solid OpenSCAD_Model
  facet normal -0 0 1
    outer loop
      vertex -6.7 -2.3 45.85
      vertex 6.7 -2.7 45.85
      vertex 6.7 -2.3 45.85
    endloop
  endfacet
  facet normal 0 0 1
    outer loop
      vertex 6.7 -2.7 45.85
      vertex -6.7 -2.3 45.85
      vertex -6.7 -2.7 45.85
    endloop
  endfacet
  facet normal 1 -0 0
    outer loop
      vertex -6.7 -2.7 46.25
      vertex -6.7 -2.3 45.85
      vertex -6.7 -2.3 46.25
    endloop
  endfacet
  facet normal 1 0 0
    outer loop
      vertex -6.7 -2.3 45.85
      vertex -6.7 -2.7 46.25
      vertex -6.7 -2.7 45.85
    endloop
  endfacet
  facet normal 0 -1 0
    outer loop
      vertex -6.7 -2.3 45.85
      vertex 6.7 -2.3 46.25
      vertex -6.7 -2.3 46.25
    endloop
  endfacet
  facet normal 0 -1 -0
    outer loop
      vertex 6.7 -2.3 46.25
      vertex -6.7 -2.3 45.85
      vertex 6.7 -2.3 45.85
    endloop
  endfacet
  facet normal -1 0 0
    outer loop
      vertex 6.7 -2.7 45.85
      vertex 6.7 -2.3 46.25
      vertex 6.7 -2.3 45.85
    endloop
  endfacet
  facet normal -1 -0 0
    outer loop
      vertex 6.7 -2.3 46.25
      vertex 6.7 -2.7 45.85
      vertex 6.7 -2.7 46.25
    endloop
  endfacet
  facet normal 0 1 -0
    outer loop
      vertex 6.7 -2.7 45.85
      vertex -6.7 -2.7 46.25
      vertex 6.7 -2.7 46.25
    endloop
  endfacet
  facet normal 0 1 0
    outer loop
      vertex -6.7 -2.7 46.25
      vertex 6.7 -2.7 45.85
      vertex -6.7 -2.7 45.85
    endloop
  endfacet
  facet normal -0 0 1
    outer loop
      vertex 5.3 4 45.85
      vertex 5.7 1 45.85
      vertex 5.7 4 45.85
    endloop
  endfacet
  facet normal 0 0 1
    outer loop
      vertex 5.7 1 45.85
      vertex 5.3 4 45.85
      vertex 5.3 1 45.85
    endloop
  endfacet
  facet normal 1 -0 0
    outer loop
      vertex 5.3 1 46.25
      vertex 5.3 4 45.85
      vertex 5.3 4 46.25
    endloop
  endfacet
  facet normal 1 0 0
    outer loop
      vertex 5.3 4 45.85
      vertex 5.3 1 46.25
      vertex 5.3 1 45.85
    endloop
  endfacet
  facet normal 0 -1 0
    outer loop
      vertex 5.3 4 45.85
      vertex 5.7 4 46.25
      vertex 5.3 4 46.25
    endloop
  endfacet
  facet normal 0 -1 -0
    outer loop
      vertex 5.7 4 46.25
      vertex 5.3 4 45.85
      vertex 5.7 4 45.85
    endloop
  endfacet
  facet normal -1 0 0
    outer loop
      vertex 5.7 1 45.85
      vertex 5.7 4 46.25
      vertex 5.7 4 45.85
    endloop
  endfacet
  facet normal -1 -0 0
    outer loop
      vertex 5.7 4 46.25
      vertex 5.7 1 45.85
      vertex 5.7 1 46.25
    endloop
  endfacet
  facet normal 0 1 -0
    outer loop
      vertex 5.7 1 45.85
      vertex 5.3 1 46.25
      vertex 5.7 1 46.25
    endloop
  endfacet
  facet normal 0 1 0
    outer loop
      vertex 5.3 1 46.25
      vertex 5.7 1 45.85
      vertex 5.3 1 45.85
    endloop
  endfacet
  facet normal -0.989174 0.146746 0
    outer loop
      vertex -7.4971 6.9588 0
      vertex -7.48846 7.01704 46.25
      vertex -7.48846 7.01704 0
    endloop
  endfacet
  facet normal -0.989174 0.146746 0
    outer loop
      vertex -7.48846 7.01704 46.25
      vertex -7.4971 6.9588 0
      vertex -7.4971 6.9588 46.25
    endloop
  endfacet
  facet normal 0.243015 -0.970023 0
    outer loop
      vertex 7.01704 -7.48846 0
      vertex 7.07416 -7.47415 46.25
      vertex 7.01704 -7.48846 46.25
    endloop
  endfacet
  facet normal 0.243015 -0.970023 0
    outer loop
      vertex 7.07416 -7.47415 46.25
      vertex 7.01704 -7.48846 0
      vertex 7.07416 -7.47415 0
    endloop
  endfacet
  facet normal 0 -1 0
    outer loop
      vertex -6.89999 -7.5 0
      vertex 6.89999 -7.5 46.25
      vertex -6.89999 -7.5 46.25
    endloop
  endfacet
  facet normal 0 -1 -0
    outer loop
      vertex 6.89999 -7.5 46.25
      vertex -6.89999 -7.5 0
      vertex 6.89999 -7.5 0
    endloop
  endfacet
  facet normal 0.146746 -0.989174 0
    outer loop
      vertex 6.9588 -7.4971 0
      vertex 7.01704 -7.48846 46.25
      vertex 6.9588 -7.4971 46.25
    endloop
  endfacet
  facet normal 0.146746 -0.989174 0
    outer loop
      vertex 7.01704 -7.48846 46.25
      vertex 6.9588 -7.4971 0
      vertex 7.01704 -7.48846 0
    endloop
  endfacet
  facet normal 0.671438 0.741061 -0
    outer loop
      vertex 7.32426 7.32426 0
      vertex 7.28062 7.3638 46.25
      vertex 7.32426 7.32426 46.25
    endloop
  endfacet
  facet normal 0.671438 0.741061 0
    outer loop
      vertex 7.28062 7.3638 46.25
      vertex 7.32426 7.32426 0
      vertex 7.28062 7.3638 0
    endloop
  endfacet
  facet normal 0.0492515 -0.998786 0
    outer loop
      vertex 6.89999 -7.5 0
      vertex 6.9588 -7.4971 46.25
      vertex 6.89999 -7.5 46.25
    endloop
  endfacet
  facet normal 0.0492515 -0.998786 0
    outer loop
      vertex 6.9588 -7.4971 46.25
      vertex 6.89999 -7.5 0
      vertex 6.9588 -7.4971 0
    endloop
  endfacet
  facet normal 0.514046 0.857763 -0
    outer loop
      vertex 7.23334 7.39888 0
      vertex 7.18283 7.42915 46.25
      vertex 7.23334 7.39888 46.25
    endloop
  endfacet
  facet normal 0.514046 0.857763 0
    outer loop
      vertex 7.18283 7.42915 46.25
      vertex 7.23334 7.39888 0
      vertex 7.18283 7.42915 0
    endloop
  endfacet
  facet normal 0.336734 -0.9416 0
    outer loop
      vertex 7.07416 -7.47415 0
      vertex 7.12961 -7.45432 46.25
      vertex 7.07416 -7.47415 46.25
    endloop
  endfacet
  facet normal 0.336734 -0.9416 0
    outer loop
      vertex 7.12961 -7.45432 46.25
      vertex 7.07416 -7.47415 0
      vertex 7.12961 -7.45432 0
    endloop
  endfacet
  facet normal -0.857763 0.514046 0
    outer loop
      vertex -7.42915 7.18283 0
      vertex -7.39888 7.23334 46.25
      vertex -7.39888 7.23334 0
    endloop
  endfacet
  facet normal -0.857763 0.514046 0
    outer loop
      vertex -7.39888 7.23334 46.25
      vertex -7.42915 7.18283 0
      vertex -7.42915 7.18283 46.25
    endloop
  endfacet
  facet normal -0.671438 -0.741061 0
    outer loop
      vertex -7.32426 -7.32426 0
      vertex -7.28062 -7.3638 46.25
      vertex -7.32426 -7.32426 46.25
    endloop
  endfacet
  facet normal -0.671438 -0.741061 -0
    outer loop
      vertex -7.28062 -7.3638 46.25
      vertex -7.32426 -7.32426 0
      vertex -7.28062 -7.3638 0
    endloop
  endfacet
  facet normal 0.903997 0.427539 0
    outer loop
      vertex 7.45432 7.12961 46.25
      vertex 7.42915 7.18283 0
      vertex 7.42915 7.18283 46.25
    endloop
  endfacet
  facet normal 0.903997 0.427539 0
    outer loop
      vertex 7.42915 7.18283 0
      vertex 7.45432 7.12961 46.25
      vertex 7.45432 7.12961 0
    endloop
  endfacet
  facet normal -0.595861 -0.803088 0
    outer loop
      vertex -7.28062 -7.3638 0
      vertex -7.23334 -7.39888 46.25
      vertex -7.28062 -7.3638 46.25
    endloop
  endfacet
  facet normal -0.595861 -0.803088 -0
    outer loop
      vertex -7.23334 -7.39888 46.25
      vertex -7.28062 -7.3638 0
      vertex -7.23334 -7.39888 0
    endloop
  endfacet
  facet normal -0.336734 -0.9416 0
    outer loop
      vertex -7.12961 -7.45432 0
      vertex -7.07416 -7.47415 46.25
      vertex -7.12961 -7.45432 46.25
    endloop
  endfacet
  facet normal -0.336734 -0.9416 -0
    outer loop
      vertex -7.07416 -7.47415 46.25
      vertex -7.12961 -7.45432 0
      vertex -7.07416 -7.47415 0
    endloop
  endfacet
  facet normal -0.0492515 0.998786 0
    outer loop
      vertex -6.89999 7.5 0
      vertex -6.9588 7.4971 46.25
      vertex -6.89999 7.5 46.25
    endloop
  endfacet
  facet normal -0.0492515 0.998786 0
    outer loop
      vertex -6.9588 7.4971 46.25
      vertex -6.89999 7.5 0
      vertex -6.9588 7.4971 0
    endloop
  endfacet
  facet normal -0.998786 0.0492515 0
    outer loop
      vertex -7.5 6.89999 0
      vertex -7.4971 6.9588 46.25
      vertex -7.4971 6.9588 0
    endloop
  endfacet
  facet normal -0.998786 0.0492515 0
    outer loop
      vertex -7.4971 6.9588 46.25
      vertex -7.5 6.89999 0
      vertex -7.5 6.89999 46.25
    endloop
  endfacet
  facet normal 1 -0 0
    outer loop
      vertex 7.5 -6.89999 46.25
      vertex 7.5 6.89999 0
      vertex 7.5 6.89999 46.25
    endloop
  endfacet
  facet normal 1 0 0
    outer loop
      vertex 7.5 6.89999 0
      vertex 7.5 -6.89999 46.25
      vertex 7.5 -6.89999 0
    endloop
  endfacet
  facet normal 0 0 -1
    outer loop
      vertex 6.89999 -7.5 0
      vertex 7.5 -6.89999 0
      vertex 7.4971 -6.9588 0
    endloop
  endfacet
  facet normal 0 0 -1
    outer loop
      vertex 7.5 -6.89999 0
      vertex 2.15 0 0
      vertex 7.5 6.89999 0
    endloop
  endfacet
  facet normal 0 0 -1
    outer loop
      vertex 6.89999 -7.5 0
      vertex 7.4971 -6.9588 0
      vertex 7.48846 -7.01704 0
    endloop
  endfacet
  facet normal 0 0 -1
    outer loop
      vertex 2.13965 0.210736 0
      vertex 7.5 6.89999 0
      vertex 2.15 0 0
    endloop
  endfacet
  facet normal 0 0 -1
    outer loop
      vertex 6.89999 -7.5 0
      vertex 7.48846 -7.01704 0
      vertex 7.47415 -7.07416 0
    endloop
  endfacet
  facet normal 0 0 -1
    outer loop
      vertex 2.10869 0.419444 0
      vertex 7.5 6.89999 0
      vertex 2.13965 0.210736 0
    endloop
  endfacet
  facet normal 0 0 -1
    outer loop
      vertex 6.89999 -7.5 0
      vertex 7.47415 -7.07416 0
      vertex 7.45432 -7.12961 0
    endloop
  endfacet
  facet normal 0 0 -1
    outer loop
      vertex 2.05742 0.624111 0
      vertex 7.5 6.89999 0
      vertex 2.10869 0.419444 0
    endloop
  endfacet
  facet normal 0 0 -1
    outer loop
      vertex 6.89999 -7.5 0
      vertex 7.45432 -7.12961 0
      vertex 7.42915 -7.18283 0
    endloop
  endfacet
  facet normal 0 0 -1
    outer loop
      vertex 1.98634 0.822769 0
      vertex 7.5 6.89999 0
      vertex 2.05742 0.624111 0
    endloop
  endfacet
  facet normal 0 0 -1
    outer loop
      vertex 6.89999 -7.5 0
      vertex 7.42915 -7.18283 0
      vertex 7.39888 -7.23334 0
    endloop
  endfacet
  facet normal 0 0 -1
    outer loop
      vertex 1.89613 1.0135 0
      vertex 7.5 6.89999 0
      vertex 1.98634 0.822769 0
    endloop
  endfacet
  facet normal 0 0 -1
    outer loop
      vertex 6.89999 -7.5 0
      vertex 7.39888 -7.23334 0
      vertex 7.3638 -7.28062 0
    endloop
  endfacet
  facet normal 0 0 -1
    outer loop
      vertex 1.78766 1.19448 0
      vertex 7.5 6.89999 0
      vertex 1.89613 1.0135 0
    endloop
  endfacet
  facet normal 0 0 -1
    outer loop
      vertex 6.89999 -7.5 0
      vertex 7.3638 -7.28062 0
      vertex 7.32426 -7.32426 0
    endloop
  endfacet
  facet normal 0 0 -1
    outer loop
      vertex 1.66197 1.36395 0
      vertex 7.5 6.89999 0
      vertex 1.78766 1.19448 0
    endloop
  endfacet
  facet normal 0 0 -1
    outer loop
      vertex 6.89999 -7.5 0
      vertex 7.32426 -7.32426 0
      vertex 7.28062 -7.3638 0
    endloop
  endfacet
  facet normal 0 0 -1
    outer loop
      vertex 1.52028 1.52028 0
      vertex 7.5 6.89999 0
      vertex 1.66197 1.36395 0
    endloop
  endfacet
  facet normal 0 0 -1
    outer loop
      vertex 6.89999 -7.5 0
      vertex 7.28062 -7.3638 0
      vertex 7.23334 -7.39888 0
    endloop
  endfacet
  facet normal 0 -0 -1
    outer loop
      vertex 6.89999 7.5 0
      vertex 7.5 6.89999 0
      vertex 1.52028 1.52028 0
    endloop
  endfacet
  facet normal 0 0 -1
    outer loop
      vertex 6.89999 -7.5 0
      vertex 7.23334 -7.39888 0
      vertex 7.18283 -7.42915 0
    endloop
  endfacet
  facet normal 0 0 -1
    outer loop
      vertex 7.4971 6.9588 0
      vertex 6.89999 7.5 0
      vertex 7.48846 7.01704 0
    endloop
  endfacet
  facet normal 0 0 -1
    outer loop
      vertex 6.89999 -7.5 0
      vertex 7.18283 -7.42915 0
      vertex 7.12961 -7.45432 0
    endloop
  endfacet
  facet normal 0 0 -1
    outer loop
      vertex 7.48846 7.01704 0
      vertex 6.89999 7.5 0
      vertex 7.47415 7.07416 0
    endloop
  endfacet
  facet normal 0 0 -1
    outer loop
      vertex 6.89999 -7.5 0
      vertex 7.12961 -7.45432 0
      vertex 7.07416 -7.47415 0
    endloop
  endfacet
  facet normal 0 0 -1
    outer loop
      vertex 7.47415 7.07416 0
      vertex 6.89999 7.5 0
      vertex 7.45432 7.12961 0
    endloop
  endfacet
  facet normal 0 0 -1
    outer loop
      vertex 6.89999 -7.5 0
      vertex 7.07416 -7.47415 0
      vertex 7.01704 -7.48846 0
    endloop
  endfacet
  facet normal 0 0 -1
    outer loop
      vertex 7.42915 7.18283 0
      vertex 6.89999 7.5 0
      vertex 7.39888 7.23334 0
    endloop
  endfacet
  facet normal 0 0 -1
    outer loop
      vertex 6.89999 -7.5 0
      vertex 7.01704 -7.48846 0
      vertex 6.9588 -7.4971 0
    endloop
  endfacet
  facet normal 0 0 -1
    outer loop
      vertex 7.39888 7.23334 0
      vertex 6.89999 7.5 0
      vertex 7.3638 7.28062 0
    endloop
  endfacet
  facet normal -0 0 -1
    outer loop
      vertex 7.5 -6.89999 0
      vertex 6.89999 -7.5 0
      vertex 1.52028 -1.52028 0
    endloop
  endfacet
  facet normal 0 0 -1
    outer loop
      vertex 7.32426 7.32426 0
      vertex 6.89999 7.5 0
      vertex 7.28062 7.3638 0
    endloop
  endfacet
  facet normal 0 0 -1
    outer loop
      vertex 7.28062 7.3638 0
      vertex 6.89999 7.5 0
      vertex 7.23334 7.39888 0
    endloop
  endfacet
  facet normal 0 0 -1
    outer loop
      vertex 7.5 -6.89999 0
      vertex 2.13965 -0.210736 0
      vertex 2.15 0 0
    endloop
  endfacet
  facet normal 0 0 -1
    outer loop
      vertex 7.5 -6.89999 0
      vertex 2.10869 -0.419444 0
      vertex 2.13965 -0.210736 0
    endloop
  endfacet
  facet normal 0 0 -1
    outer loop
      vertex 7.5 -6.89999 0
      vertex 2.05742 -0.624111 0
      vertex 2.10869 -0.419444 0
    endloop
  endfacet
  facet normal 0 0 -1
    outer loop
      vertex 7.5 -6.89999 0
      vertex 1.98634 -0.822769 0
      vertex 2.05742 -0.624111 0
    endloop
  endfacet
  facet normal 0 0 -1
    outer loop
      vertex 7.5 -6.89999 0
      vertex 1.89613 -1.0135 0
      vertex 1.98634 -0.822769 0
    endloop
  endfacet
  facet normal 0 0 -1
    outer loop
      vertex 7.5 -6.89999 0
      vertex 1.78766 -1.19448 0
      vertex 1.89613 -1.0135 0
    endloop
  endfacet
  facet normal 0 0 -1
    outer loop
      vertex 7.5 -6.89999 0
      vertex 1.66197 -1.36395 0
      vertex 1.78766 -1.19448 0
    endloop
  endfacet
  facet normal 0 0 -1
    outer loop
      vertex 7.5 -6.89999 0
      vertex 1.52028 -1.52028 0
      vertex 1.66197 -1.36395 0
    endloop
  endfacet
  facet normal 0 0 -1
    outer loop
      vertex 6.89999 -7.5 0
      vertex 1.36395 -1.66197 0
      vertex 1.52028 -1.52028 0
    endloop
  endfacet
  facet normal 0 0 -1
    outer loop
      vertex 6.89999 -7.5 0
      vertex 1.19448 -1.78766 0
      vertex 1.36395 -1.66197 0
    endloop
  endfacet
  facet normal 0 0 -1
    outer loop
      vertex 6.89999 -7.5 0
      vertex 1.0135 -1.89613 0
      vertex 1.19448 -1.78766 0
    endloop
  endfacet
  facet normal 0 0 -1
    outer loop
      vertex 6.89999 -7.5 0
      vertex 0.822769 -1.98634 0
      vertex 1.0135 -1.89613 0
    endloop
  endfacet
  facet normal 0 0 -1
    outer loop
      vertex 6.89999 -7.5 0
      vertex 0.624111 -2.05742 0
      vertex 0.822769 -1.98634 0
    endloop
  endfacet
  facet normal 0 0 -1
    outer loop
      vertex 6.89999 -7.5 0
      vertex 0.419444 -2.10869 0
      vertex 0.624111 -2.05742 0
    endloop
  endfacet
  facet normal 0 0 -1
    outer loop
      vertex 6.89999 -7.5 0
      vertex 0.210736 -2.13965 0
      vertex 0.419444 -2.10869 0
    endloop
  endfacet
  facet normal 0 0 -1
    outer loop
      vertex 6.89999 -7.5 0
      vertex 0 -2.15 0
      vertex 0.210736 -2.13965 0
    endloop
  endfacet
  facet normal 0 0 -1
    outer loop
      vertex -6.89999 -7.5 0
      vertex 0 -2.15 0
      vertex 6.89999 -7.5 0
    endloop
  endfacet
  facet normal -0 0 -1
    outer loop
      vertex 0 -2.15 0
      vertex -6.89999 -7.5 0
      vertex -0.210736 -2.13965 0
    endloop
  endfacet
  facet normal -0 0 -1
    outer loop
      vertex -0.210736 -2.13965 0
      vertex -6.89999 -7.5 0
      vertex -0.419444 -2.10869 0
    endloop
  endfacet
  facet normal -0 0 -1
    outer loop
      vertex -0.419444 -2.10869 0
      vertex -6.89999 -7.5 0
      vertex -0.624111 -2.05742 0
    endloop
  endfacet
  facet normal -0 0 -1
    outer loop
      vertex -0.624111 -2.05742 0
      vertex -6.89999 -7.5 0
      vertex -0.822769 -1.98634 0
    endloop
  endfacet
  facet normal -0 0 -1
    outer loop
      vertex -0.822769 -1.98634 0
      vertex -6.89999 -7.5 0
      vertex -1.0135 -1.89613 0
    endloop
  endfacet
  facet normal -0 0 -1
    outer loop
      vertex -2.10869 -0.419444 0
      vertex -7.5 -6.89999 0
      vertex -2.13965 -0.210736 0
    endloop
  endfacet
  facet normal -0 0 -1
    outer loop
      vertex -2.05742 -0.624111 0
      vertex -7.5 -6.89999 0
      vertex -2.10869 -0.419444 0
    endloop
  endfacet
  facet normal -0 0 -1
    outer loop
      vertex -1.98634 -0.822769 0
      vertex -7.5 -6.89999 0
      vertex -2.05742 -0.624111 0
    endloop
  endfacet
  facet normal -0 0 -1
    outer loop
      vertex -1.89613 -1.0135 0
      vertex -7.5 -6.89999 0
      vertex -1.98634 -0.822769 0
    endloop
  endfacet
  facet normal -0 0 -1
    outer loop
      vertex -1.78766 -1.19448 0
      vertex -7.5 -6.89999 0
      vertex -1.89613 -1.0135 0
    endloop
  endfacet
  facet normal -0 0 -1
    outer loop
      vertex -1.66197 -1.36395 0
      vertex -7.5 -6.89999 0
      vertex -1.78766 -1.19448 0
    endloop
  endfacet
  facet normal -0 0 -1
    outer loop
      vertex -1.52028 -1.52028 0
      vertex -7.5 -6.89999 0
      vertex -1.66197 -1.36395 0
    endloop
  endfacet
  facet normal 0 0 -1
    outer loop
      vertex -7.5 -6.89999 0
      vertex -1.52028 -1.52028 0
      vertex -6.89999 -7.5 0
    endloop
  endfacet
  facet normal -0 0 -1
    outer loop
      vertex -1.36395 -1.66197 0
      vertex -6.89999 -7.5 0
      vertex -1.52028 -1.52028 0
    endloop
  endfacet
  facet normal -0 0 -1
    outer loop
      vertex -1.19448 -1.78766 0
      vertex -6.89999 -7.5 0
      vertex -1.36395 -1.66197 0
    endloop
  endfacet
  facet normal -0 0 -1
    outer loop
      vertex -1.0135 -1.89613 0
      vertex -6.89999 -7.5 0
      vertex -1.19448 -1.78766 0
    endloop
  endfacet
  facet normal 0 0 -1
    outer loop
      vertex 7.18283 7.42915 0
      vertex 6.89999 7.5 0
      vertex 7.12961 7.45432 0
    endloop
  endfacet
  facet normal 0 0 -1
    outer loop
      vertex 7.12961 7.45432 0
      vertex 6.89999 7.5 0
      vertex 7.07416 7.47415 0
    endloop
  endfacet
  facet normal 0 0 -1
    outer loop
      vertex 7.07416 7.47415 0
      vertex 6.89999 7.5 0
      vertex 7.01704 7.48846 0
    endloop
  endfacet
  facet normal 0 0 -1
    outer loop
      vertex 7.01704 7.48846 0
      vertex 6.89999 7.5 0
      vertex 6.9588 7.4971 0
    endloop
  endfacet
  facet normal 0 0 -1
    outer loop
      vertex 7.23334 7.39888 0
      vertex 6.89999 7.5 0
      vertex 7.18283 7.42915 0
    endloop
  endfacet
  facet normal 0 0 -1
    outer loop
      vertex 7.3638 7.28062 0
      vertex 6.89999 7.5 0
      vertex 7.32426 7.32426 0
    endloop
  endfacet
  facet normal 0 0 -1
    outer loop
      vertex 7.45432 7.12961 0
      vertex 6.89999 7.5 0
      vertex 7.42915 7.18283 0
    endloop
  endfacet
  facet normal 0 0 -1
    outer loop
      vertex 7.5 6.89999 0
      vertex 6.89999 7.5 0
      vertex 7.4971 6.9588 0
    endloop
  endfacet
  facet normal 0 0 -1
    outer loop
      vertex 1.36395 1.66197 0
      vertex 6.89999 7.5 0
      vertex 1.52028 1.52028 0
    endloop
  endfacet
  facet normal 0 0 -1
    outer loop
      vertex 1.19448 1.78766 0
      vertex 6.89999 7.5 0
      vertex 1.36395 1.66197 0
    endloop
  endfacet
  facet normal 0 0 -1
    outer loop
      vertex 1.0135 1.89613 0
      vertex 6.89999 7.5 0
      vertex 1.19448 1.78766 0
    endloop
  endfacet
  facet normal 0 0 -1
    outer loop
      vertex 0.822769 1.98634 0
      vertex 6.89999 7.5 0
      vertex 1.0135 1.89613 0
    endloop
  endfacet
  facet normal 0 0 -1
    outer loop
      vertex 0.624111 2.05742 0
      vertex 6.89999 7.5 0
      vertex 0.822769 1.98634 0
    endloop
  endfacet
  facet normal 0 0 -1
    outer loop
      vertex 0.419444 2.10869 0
      vertex 6.89999 7.5 0
      vertex 0.624111 2.05742 0
    endloop
  endfacet
  facet normal 0 0 -1
    outer loop
      vertex 0.210736 2.13965 0
      vertex 6.89999 7.5 0
      vertex 0.419444 2.10869 0
    endloop
  endfacet
  facet normal 0 0 -1
    outer loop
      vertex 0 2.15 0
      vertex 6.89999 7.5 0
      vertex 0.210736 2.13965 0
    endloop
  endfacet
  facet normal 0 0 -1
    outer loop
      vertex -6.89999 7.5 0
      vertex 0 2.15 0
      vertex -0.210736 2.13965 0
    endloop
  endfacet
  facet normal 0 0 -1
    outer loop
      vertex -6.89999 7.5 0
      vertex -0.210736 2.13965 0
      vertex -0.419444 2.10869 0
    endloop
  endfacet
  facet normal 0 0 -1
    outer loop
      vertex -6.89999 7.5 0
      vertex -0.419444 2.10869 0
      vertex -0.624111 2.05742 0
    endloop
  endfacet
  facet normal 0 0 -1
    outer loop
      vertex -6.89999 7.5 0
      vertex -0.624111 2.05742 0
      vertex -0.822769 1.98634 0
    endloop
  endfacet
  facet normal 0 0 -1
    outer loop
      vertex -6.89999 7.5 0
      vertex -0.822769 1.98634 0
      vertex -1.0135 1.89613 0
    endloop
  endfacet
  facet normal 0 0 -1
    outer loop
      vertex -6.89999 7.5 0
      vertex -1.0135 1.89613 0
      vertex -1.19448 1.78766 0
    endloop
  endfacet
  facet normal -0 0 -1
    outer loop
      vertex -2.13965 -0.210736 0
      vertex -7.5 -6.89999 0
      vertex -2.15 0 0
    endloop
  endfacet
  facet normal 0 0 -1
    outer loop
      vertex -7.5 6.89999 0
      vertex -2.15 0 0
      vertex -7.5 -6.89999 0
    endloop
  endfacet
  facet normal 0 0 -1
    outer loop
      vertex -2.15 0 0
      vertex -7.5 6.89999 0
      vertex -2.13965 0.210736 0
    endloop
  endfacet
  facet normal 0 0 -1
    outer loop
      vertex -2.13965 0.210736 0
      vertex -7.5 6.89999 0
      vertex -2.10869 0.419444 0
    endloop
  endfacet
  facet normal 0 0 -1
    outer loop
      vertex -2.10869 0.419444 0
      vertex -7.5 6.89999 0
      vertex -2.05742 0.624111 0
    endloop
  endfacet
  facet normal 0 0 -1
    outer loop
      vertex 0 2.15 0
      vertex -6.89999 7.5 0
      vertex 6.89999 7.5 0
    endloop
  endfacet
  facet normal 0 0 -1
    outer loop
      vertex -1.36395 1.66197 0
      vertex -6.89999 7.5 0
      vertex -1.19448 1.78766 0
    endloop
  endfacet
  facet normal 0 0 -1
    outer loop
      vertex -1.52028 1.52028 0
      vertex -6.89999 7.5 0
      vertex -1.36395 1.66197 0
    endloop
  endfacet
  facet normal 0 0 -1
    outer loop
      vertex -7.5 6.89999 0
      vertex -1.52028 1.52028 0
      vertex -1.66197 1.36395 0
    endloop
  endfacet
  facet normal 0 0 -1
    outer loop
      vertex -7.5 6.89999 0
      vertex -1.66197 1.36395 0
      vertex -1.78766 1.19448 0
    endloop
  endfacet
  facet normal 0 0 -1
    outer loop
      vertex -7.5 6.89999 0
      vertex -1.78766 1.19448 0
      vertex -1.89613 1.0135 0
    endloop
  endfacet
  facet normal 0 0 -1
    outer loop
      vertex -2.05742 0.624111 0
      vertex -7.5 6.89999 0
      vertex -1.98634 0.822769 0
    endloop
  endfacet
  facet normal 0 0 -1
    outer loop
      vertex -7.5 -6.89999 0
      vertex -6.89999 -7.5 0
      vertex -6.9588 -7.4971 0
    endloop
  endfacet
  facet normal 0 0 -1
    outer loop
      vertex -1.98634 0.822769 0
      vertex -7.5 6.89999 0
      vertex -1.89613 1.0135 0
    endloop
  endfacet
  facet normal 0 0 -1
    outer loop
      vertex -7.5 -6.89999 0
      vertex -6.9588 -7.4971 0
      vertex -7.01704 -7.48846 0
    endloop
  endfacet
  facet normal 0 0 -1
    outer loop
      vertex -1.52028 1.52028 0
      vertex -7.5 6.89999 0
      vertex -6.89999 7.5 0
    endloop
  endfacet
  facet normal 0 0 -1
    outer loop
      vertex -7.5 -6.89999 0
      vertex -7.01704 -7.48846 0
      vertex -7.07416 -7.47415 0
    endloop
  endfacet
  facet normal 0 0 -1
    outer loop
      vertex -6.89999 7.5 0
      vertex -7.5 6.89999 0
      vertex -6.9588 7.4971 0
    endloop
  endfacet
  facet normal 0 0 -1
    outer loop
      vertex -7.5 -6.89999 0
      vertex -7.07416 -7.47415 0
      vertex -7.12961 -7.45432 0
    endloop
  endfacet
  facet normal 0 0 -1
    outer loop
      vertex -6.9588 7.4971 0
      vertex -7.5 6.89999 0
      vertex -7.01704 7.48846 0
    endloop
  endfacet
  facet normal 0 0 -1
    outer loop
      vertex -7.5 -6.89999 0
      vertex -7.12961 -7.45432 0
      vertex -7.18283 -7.42915 0
    endloop
  endfacet
  facet normal 0 0 -1
    outer loop
      vertex -7.01704 7.48846 0
      vertex -7.5 6.89999 0
      vertex -7.07416 7.47415 0
    endloop
  endfacet
  facet normal 0 0 -1
    outer loop
      vertex -7.5 -6.89999 0
      vertex -7.18283 -7.42915 0
      vertex -7.23334 -7.39888 0
    endloop
  endfacet
  facet normal 0 0 -1
    outer loop
      vertex -7.07416 7.47415 0
      vertex -7.5 6.89999 0
      vertex -7.12961 7.45432 0
    endloop
  endfacet
  facet normal 0 0 -1
    outer loop
      vertex -7.5 -6.89999 0
      vertex -7.23334 -7.39888 0
      vertex -7.28062 -7.3638 0
    endloop
  endfacet
  facet normal 0 0 -1
    outer loop
      vertex -7.12961 7.45432 0
      vertex -7.5 6.89999 0
      vertex -7.18283 7.42915 0
    endloop
  endfacet
  facet normal 0 0 -1
    outer loop
      vertex -7.5 -6.89999 0
      vertex -7.28062 -7.3638 0
      vertex -7.32426 -7.32426 0
    endloop
  endfacet
  facet normal 0 0 -1
    outer loop
      vertex -7.18283 7.42915 0
      vertex -7.5 6.89999 0
      vertex -7.23334 7.39888 0
    endloop
  endfacet
  facet normal 0 0 -1
    outer loop
      vertex -7.5 -6.89999 0
      vertex -7.32426 -7.32426 0
      vertex -7.3638 -7.28062 0
    endloop
  endfacet
  facet normal 0 0 -1
    outer loop
      vertex -7.23334 7.39888 0
      vertex -7.5 6.89999 0
      vertex -7.28062 7.3638 0
    endloop
  endfacet
  facet normal 0 0 -1
    outer loop
      vertex -7.5 -6.89999 0
      vertex -7.3638 -7.28062 0
      vertex -7.39888 -7.23334 0
    endloop
  endfacet
  facet normal 0 0 -1
    outer loop
      vertex -7.28062 7.3638 0
      vertex -7.5 6.89999 0
      vertex -7.32426 7.32426 0
    endloop
  endfacet
  facet normal 0 0 -1
    outer loop
      vertex -7.5 -6.89999 0
      vertex -7.39888 -7.23334 0
      vertex -7.42915 -7.18283 0
    endloop
  endfacet
  facet normal 0 0 -1
    outer loop
      vertex -7.32426 7.32426 0
      vertex -7.5 6.89999 0
      vertex -7.3638 7.28062 0
    endloop
  endfacet
  facet normal 0 0 -1
    outer loop
      vertex -7.5 -6.89999 0
      vertex -7.42915 -7.18283 0
      vertex -7.45432 -7.12961 0
    endloop
  endfacet
  facet normal 0 0 -1
    outer loop
      vertex -7.3638 7.28062 0
      vertex -7.5 6.89999 0
      vertex -7.39888 7.23334 0
    endloop
  endfacet
  facet normal 0 0 -1
    outer loop
      vertex -7.5 -6.89999 0
      vertex -7.45432 -7.12961 0
      vertex -7.47415 -7.07416 0
    endloop
  endfacet
  facet normal 0 0 -1
    outer loop
      vertex -7.39888 7.23334 0
      vertex -7.5 6.89999 0
      vertex -7.42915 7.18283 0
    endloop
  endfacet
  facet normal 0 0 -1
    outer loop
      vertex -7.5 -6.89999 0
      vertex -7.47415 -7.07416 0
      vertex -7.48846 -7.01704 0
    endloop
  endfacet
  facet normal 0 0 -1
    outer loop
      vertex -7.42915 7.18283 0
      vertex -7.5 6.89999 0
      vertex -7.45432 7.12961 0
    endloop
  endfacet
  facet normal 0 0 -1
    outer loop
      vertex -7.5 -6.89999 0
      vertex -7.48846 -7.01704 0
      vertex -7.4971 -6.9588 0
    endloop
  endfacet
  facet normal 0 0 -1
    outer loop
      vertex -7.45432 7.12961 0
      vertex -7.5 6.89999 0
      vertex -7.47415 7.07416 0
    endloop
  endfacet
  facet normal 0 0 -1
    outer loop
      vertex -7.47415 7.07416 0
      vertex -7.5 6.89999 0
      vertex -7.48846 7.01704 0
    endloop
  endfacet
  facet normal 0 0 -1
    outer loop
      vertex -7.48846 7.01704 0
      vertex -7.5 6.89999 0
      vertex -7.4971 6.9588 0
    endloop
  endfacet
  facet normal -1 0 0
    outer loop
      vertex -7.5 -6.89999 0
      vertex -7.5 6.89999 46.25
      vertex -7.5 6.89999 0
    endloop
  endfacet
  facet normal -1 -0 0
    outer loop
      vertex -7.5 6.89999 46.25
      vertex -7.5 -6.89999 0
      vertex -7.5 -6.89999 46.25
    endloop
  endfacet
  facet normal -0.427539 0.903997 0
    outer loop
      vertex -7.12961 7.45432 0
      vertex -7.18283 7.42915 46.25
      vertex -7.12961 7.45432 46.25
    endloop
  endfacet
  facet normal -0.427539 0.903997 0
    outer loop
      vertex -7.18283 7.42915 46.25
      vertex -7.12961 7.45432 0
      vertex -7.18283 7.42915 0
    endloop
  endfacet
  facet normal -0.9416 0.336734 0
    outer loop
      vertex -7.47415 7.07416 0
      vertex -7.45432 7.12961 46.25
      vertex -7.45432 7.12961 0
    endloop
  endfacet
  facet normal -0.9416 0.336734 0
    outer loop
      vertex -7.45432 7.12961 46.25
      vertex -7.47415 7.07416 0
      vertex -7.47415 7.07416 46.25
    endloop
  endfacet
  facet normal 0.803088 0.595861 0
    outer loop
      vertex 7.39888 7.23334 46.25
      vertex 7.3638 7.28062 0
      vertex 7.3638 7.28062 46.25
    endloop
  endfacet
  facet normal 0.803088 0.595861 0
    outer loop
      vertex 7.3638 7.28062 0
      vertex 7.39888 7.23334 46.25
      vertex 7.39888 7.23334 0
    endloop
  endfacet
  facet normal 0.857763 -0.514046 0
    outer loop
      vertex 7.39888 -7.23334 46.25
      vertex 7.42915 -7.18283 0
      vertex 7.42915 -7.18283 46.25
    endloop
  endfacet
  facet normal 0.857763 -0.514046 0
    outer loop
      vertex 7.42915 -7.18283 0
      vertex 7.39888 -7.23334 46.25
      vertex 7.39888 -7.23334 0
    endloop
  endfacet
  facet normal 0.671438 -0.741061 0
    outer loop
      vertex 7.28062 -7.3638 0
      vertex 7.32426 -7.32426 46.25
      vertex 7.28062 -7.3638 46.25
    endloop
  endfacet
  facet normal 0.671438 -0.741061 0
    outer loop
      vertex 7.32426 -7.32426 46.25
      vertex 7.28062 -7.3638 0
      vertex 7.32426 -7.32426 0
    endloop
  endfacet
  facet normal 0 1 -0
    outer loop
      vertex 6.89999 7.5 0
      vertex -6.89999 7.5 46.25
      vertex 6.89999 7.5 46.25
    endloop
  endfacet
  facet normal 0 1 0
    outer loop
      vertex -6.89999 7.5 46.25
      vertex 6.89999 7.5 0
      vertex -6.89999 7.5 0
    endloop
  endfacet
  facet normal -0.336734 0.9416 0
    outer loop
      vertex -7.07416 7.47415 0
      vertex -7.12961 7.45432 46.25
      vertex -7.07416 7.47415 46.25
    endloop
  endfacet
  facet normal -0.336734 0.9416 0
    outer loop
      vertex -7.12961 7.45432 46.25
      vertex -7.07416 7.47415 0
      vertex -7.12961 7.45432 0
    endloop
  endfacet
  facet normal 0.514046 -0.857763 0
    outer loop
      vertex 7.18283 -7.42915 0
      vertex 7.23334 -7.39888 46.25
      vertex 7.18283 -7.42915 46.25
    endloop
  endfacet
  facet normal 0.514046 -0.857763 0
    outer loop
      vertex 7.23334 -7.39888 46.25
      vertex 7.18283 -7.42915 0
      vertex 7.23334 -7.39888 0
    endloop
  endfacet
  facet normal -0.243015 -0.970023 0
    outer loop
      vertex -7.07416 -7.47415 0
      vertex -7.01704 -7.48846 46.25
      vertex -7.07416 -7.47415 46.25
    endloop
  endfacet
  facet normal -0.243015 -0.970023 -0
    outer loop
      vertex -7.01704 -7.48846 46.25
      vertex -7.07416 -7.47415 0
      vertex -7.01704 -7.48846 0
    endloop
  endfacet
  facet normal -0.903997 -0.427539 0
    outer loop
      vertex -7.42915 -7.18283 0
      vertex -7.45432 -7.12961 46.25
      vertex -7.45432 -7.12961 0
    endloop
  endfacet
  facet normal -0.903997 -0.427539 0
    outer loop
      vertex -7.45432 -7.12961 46.25
      vertex -7.42915 -7.18283 0
      vertex -7.42915 -7.18283 46.25
    endloop
  endfacet
  facet normal 0.741061 0.671438 0
    outer loop
      vertex 7.3638 7.28062 46.25
      vertex 7.32426 7.32426 0
      vertex 7.32426 7.32426 46.25
    endloop
  endfacet
  facet normal 0.741061 0.671438 0
    outer loop
      vertex 7.32426 7.32426 0
      vertex 7.3638 7.28062 46.25
      vertex 7.3638 7.28062 0
    endloop
  endfacet
  facet normal 0.9416 0.336734 0
    outer loop
      vertex 7.47415 7.07416 46.25
      vertex 7.45432 7.12961 0
      vertex 7.45432 7.12961 46.25
    endloop
  endfacet
  facet normal 0.9416 0.336734 0
    outer loop
      vertex 7.45432 7.12961 0
      vertex 7.47415 7.07416 46.25
      vertex 7.47415 7.07416 0
    endloop
  endfacet
  facet normal 0.595861 0.803088 -0
    outer loop
      vertex 7.28062 7.3638 0
      vertex 7.23334 7.39888 46.25
      vertex 7.28062 7.3638 46.25
    endloop
  endfacet
  facet normal 0.595861 0.803088 0
    outer loop
      vertex 7.23334 7.39888 46.25
      vertex 7.28062 7.3638 0
      vertex 7.23334 7.39888 0
    endloop
  endfacet
  facet normal -0.146746 0.989174 0
    outer loop
      vertex -6.9588 7.4971 0
      vertex -7.01704 7.48846 46.25
      vertex -6.9588 7.4971 46.25
    endloop
  endfacet
  facet normal -0.146746 0.989174 0
    outer loop
      vertex -7.01704 7.48846 46.25
      vertex -6.9588 7.4971 0
      vertex -7.01704 7.48846 0
    endloop
  endfacet
  facet normal -0.903997 0.427539 0
    outer loop
      vertex -7.45432 7.12961 0
      vertex -7.42915 7.18283 46.25
      vertex -7.42915 7.18283 0
    endloop
  endfacet
  facet normal -0.903997 0.427539 0
    outer loop
      vertex -7.42915 7.18283 46.25
      vertex -7.45432 7.12961 0
      vertex -7.45432 7.12961 46.25
    endloop
  endfacet
  facet normal -0.243015 0.970023 0
    outer loop
      vertex -7.01704 7.48846 0
      vertex -7.07416 7.47415 46.25
      vertex -7.01704 7.48846 46.25
    endloop
  endfacet
  facet normal -0.243015 0.970023 0
    outer loop
      vertex -7.07416 7.47415 46.25
      vertex -7.01704 7.48846 0
      vertex -7.07416 7.47415 0
    endloop
  endfacet
  facet normal -0.857763 -0.514046 0
    outer loop
      vertex -7.39888 -7.23334 0
      vertex -7.42915 -7.18283 46.25
      vertex -7.42915 -7.18283 0
    endloop
  endfacet
  facet normal -0.857763 -0.514046 0
    outer loop
      vertex -7.42915 -7.18283 46.25
      vertex -7.39888 -7.23334 0
      vertex -7.39888 -7.23334 46.25
    endloop
  endfacet
  facet normal 0.970023 -0.243015 0
    outer loop
      vertex 7.47415 -7.07416 46.25
      vertex 7.48846 -7.01704 0
      vertex 7.48846 -7.01704 46.25
    endloop
  endfacet
  facet normal 0.970023 -0.243015 0
    outer loop
      vertex 7.48846 -7.01704 0
      vertex 7.47415 -7.07416 46.25
      vertex 7.47415 -7.07416 0
    endloop
  endfacet
  facet normal 0.998786 0.0492515 0
    outer loop
      vertex 7.5 6.89999 46.25
      vertex 7.4971 6.9588 0
      vertex 7.4971 6.9588 46.25
    endloop
  endfacet
  facet normal 0.998786 0.0492515 0
    outer loop
      vertex 7.4971 6.9588 0
      vertex 7.5 6.89999 46.25
      vertex 7.5 6.89999 0
    endloop
  endfacet
  facet normal -0.514046 -0.857763 0
    outer loop
      vertex -7.23334 -7.39888 0
      vertex -7.18283 -7.42915 46.25
      vertex -7.23334 -7.39888 46.25
    endloop
  endfacet
  facet normal -0.514046 -0.857763 -0
    outer loop
      vertex -7.18283 -7.42915 46.25
      vertex -7.23334 -7.39888 0
      vertex -7.18283 -7.42915 0
    endloop
  endfacet
  facet normal -0.970023 0.243015 0
    outer loop
      vertex -7.48846 7.01704 0
      vertex -7.47415 7.07416 46.25
      vertex -7.47415 7.07416 0
    endloop
  endfacet
  facet normal -0.970023 0.243015 0
    outer loop
      vertex -7.47415 7.07416 46.25
      vertex -7.48846 7.01704 0
      vertex -7.48846 7.01704 46.25
    endloop
  endfacet
  facet normal -0.970023 -0.243015 0
    outer loop
      vertex -7.47415 -7.07416 0
      vertex -7.48846 -7.01704 46.25
      vertex -7.48846 -7.01704 0
    endloop
  endfacet
  facet normal -0.970023 -0.243015 0
    outer loop
      vertex -7.48846 -7.01704 46.25
      vertex -7.47415 -7.07416 0
      vertex -7.47415 -7.07416 46.25
    endloop
  endfacet
  facet normal -0.427539 -0.903997 0
    outer loop
      vertex -7.18283 -7.42915 0
      vertex -7.12961 -7.45432 46.25
      vertex -7.18283 -7.42915 46.25
    endloop
  endfacet
  facet normal -0.427539 -0.903997 -0
    outer loop
      vertex -7.12961 -7.45432 46.25
      vertex -7.18283 -7.42915 0
      vertex -7.12961 -7.45432 0
    endloop
  endfacet
  facet normal -0.146746 -0.989174 0
    outer loop
      vertex -7.01704 -7.48846 0
      vertex -6.9588 -7.4971 46.25
      vertex -7.01704 -7.48846 46.25
    endloop
  endfacet
  facet normal -0.146746 -0.989174 -0
    outer loop
      vertex -6.9588 -7.4971 46.25
      vertex -7.01704 -7.48846 0
      vertex -6.9588 -7.4971 0
    endloop
  endfacet
  facet normal 0.903997 -0.427539 0
    outer loop
      vertex 7.42915 -7.18283 46.25
      vertex 7.45432 -7.12961 0
      vertex 7.45432 -7.12961 46.25
    endloop
  endfacet
  facet normal 0.903997 -0.427539 0
    outer loop
      vertex 7.45432 -7.12961 0
      vertex 7.42915 -7.18283 46.25
      vertex 7.42915 -7.18283 0
    endloop
  endfacet
  facet normal -0.803088 -0.595861 0
    outer loop
      vertex -7.3638 -7.28062 0
      vertex -7.39888 -7.23334 46.25
      vertex -7.39888 -7.23334 0
    endloop
  endfacet
  facet normal -0.803088 -0.595861 0
    outer loop
      vertex -7.39888 -7.23334 46.25
      vertex -7.3638 -7.28062 0
      vertex -7.3638 -7.28062 46.25
    endloop
  endfacet
  facet normal -0.0492515 -0.998786 0
    outer loop
      vertex -6.9588 -7.4971 0
      vertex -6.89999 -7.5 46.25
      vertex -6.9588 -7.4971 46.25
    endloop
  endfacet
  facet normal -0.0492515 -0.998786 -0
    outer loop
      vertex -6.89999 -7.5 46.25
      vertex -6.9588 -7.4971 0
      vertex -6.89999 -7.5 0
    endloop
  endfacet
  facet normal 0.998786 -0.0492515 0
    outer loop
      vertex 7.4971 -6.9588 46.25
      vertex 7.5 -6.89999 0
      vertex 7.5 -6.89999 46.25
    endloop
  endfacet
  facet normal 0.998786 -0.0492515 0
    outer loop
      vertex 7.5 -6.89999 0
      vertex 7.4971 -6.9588 46.25
      vertex 7.4971 -6.9588 0
    endloop
  endfacet
  facet normal -0.741061 -0.671438 0
    outer loop
      vertex -7.32426 -7.32426 0
      vertex -7.3638 -7.28062 46.25
      vertex -7.3638 -7.28062 0
    endloop
  endfacet
  facet normal -0.741061 -0.671438 0
    outer loop
      vertex -7.3638 -7.28062 46.25
      vertex -7.32426 -7.32426 0
      vertex -7.32426 -7.32426 46.25
    endloop
  endfacet
  facet normal -0.671438 0.741061 0
    outer loop
      vertex -7.28062 7.3638 0
      vertex -7.32426 7.32426 46.25
      vertex -7.28062 7.3638 46.25
    endloop
  endfacet
  facet normal -0.671438 0.741061 0
    outer loop
      vertex -7.32426 7.32426 46.25
      vertex -7.28062 7.3638 0
      vertex -7.32426 7.32426 0
    endloop
  endfacet
  facet normal -0.803088 0.595861 0
    outer loop
      vertex -7.39888 7.23334 0
      vertex -7.3638 7.28062 46.25
      vertex -7.3638 7.28062 0
    endloop
  endfacet
  facet normal -0.803088 0.595861 0
    outer loop
      vertex -7.3638 7.28062 46.25
      vertex -7.39888 7.23334 0
      vertex -7.39888 7.23334 46.25
    endloop
  endfacet
  facet normal -0.595861 0.803088 0
    outer loop
      vertex -7.23334 7.39888 0
      vertex -7.28062 7.3638 46.25
      vertex -7.23334 7.39888 46.25
    endloop
  endfacet
  facet normal -0.595861 0.803088 0
    outer loop
      vertex -7.28062 7.3638 46.25
      vertex -7.23334 7.39888 0
      vertex -7.28062 7.3638 0
    endloop
  endfacet
  facet normal -0.514046 0.857763 0
    outer loop
      vertex -7.18283 7.42915 0
      vertex -7.23334 7.39888 46.25
      vertex -7.18283 7.42915 46.25
    endloop
  endfacet
  facet normal -0.514046 0.857763 0
    outer loop
      vertex -7.23334 7.39888 46.25
      vertex -7.18283 7.42915 0
      vertex -7.23334 7.39888 0
    endloop
  endfacet
  facet normal 0.146746 0.989174 -0
    outer loop
      vertex 7.01704 7.48846 0
      vertex 6.9588 7.4971 46.25
      vertex 7.01704 7.48846 46.25
    endloop
  endfacet
  facet normal 0.146746 0.989174 0
    outer loop
      vertex 6.9588 7.4971 46.25
      vertex 7.01704 7.48846 0
      vertex 6.9588 7.4971 0
    endloop
  endfacet
  facet normal 0.427539 0.903997 -0
    outer loop
      vertex 7.18283 7.42915 0
      vertex 7.12961 7.45432 46.25
      vertex 7.18283 7.42915 46.25
    endloop
  endfacet
  facet normal 0.427539 0.903997 0
    outer loop
      vertex 7.12961 7.45432 46.25
      vertex 7.18283 7.42915 0
      vertex 7.12961 7.45432 0
    endloop
  endfacet
  facet normal 0 0 1
    outer loop
      vertex 6.89999 7.5 46.25
      vertex 7.5 6.89999 46.25
      vertex 7.4971 6.9588 46.25
    endloop
  endfacet
  facet normal 0 0 1
    outer loop
      vertex 7.5 6.89999 46.25
      vertex 6.7 -2.3 46.25
      vertex 7.5 -6.89999 46.25
    endloop
  endfacet
  facet normal 0 0 1
    outer loop
      vertex 6.89999 7.5 46.25
      vertex 7.4971 6.9588 46.25
      vertex 7.48846 7.01704 46.25
    endloop
  endfacet
  facet normal -0 0 1
    outer loop
      vertex 6.7 -2.7 46.25
      vertex 7.5 -6.89999 46.25
      vertex 6.7 -2.3 46.25
    endloop
  endfacet
  facet normal 0 0 1
    outer loop
      vertex 6.89999 7.5 46.25
      vertex 7.48846 7.01704 46.25
      vertex 7.47415 7.07416 46.25
    endloop
  endfacet
  facet normal 0 -0 1
    outer loop
      vertex 6.89999 -7.5 46.25
      vertex 7.5 -6.89999 46.25
      vertex 6.7 -2.7 46.25
    endloop
  endfacet
  facet normal 0 0 1
    outer loop
      vertex 6.89999 7.5 46.25
      vertex 7.47415 7.07416 46.25
      vertex 7.45432 7.12961 46.25
    endloop
  endfacet
  facet normal 0 0 1
    outer loop
      vertex 7.5 -6.89999 46.25
      vertex 6.89999 -7.5 46.25
      vertex 7.4971 -6.9588 46.25
    endloop
  endfacet
  facet normal 0 0 1
    outer loop
      vertex 6.89999 7.5 46.25
      vertex 7.45432 7.12961 46.25
      vertex 7.42915 7.18283 46.25
    endloop
  endfacet
  facet normal 0 0 1
    outer loop
      vertex 7.4971 -6.9588 46.25
      vertex 6.89999 -7.5 46.25
      vertex 7.48846 -7.01704 46.25
    endloop
  endfacet
  facet normal 0 0 1
    outer loop
      vertex 6.89999 7.5 46.25
      vertex 7.42915 7.18283 46.25
      vertex 7.39888 7.23334 46.25
    endloop
  endfacet
  facet normal 0 0 1
    outer loop
      vertex 7.48846 -7.01704 46.25
      vertex 6.89999 -7.5 46.25
      vertex 7.47415 -7.07416 46.25
    endloop
  endfacet
  facet normal 0 0 1
    outer loop
      vertex 6.89999 7.5 46.25
      vertex 7.39888 7.23334 46.25
      vertex 7.3638 7.28062 46.25
    endloop
  endfacet
  facet normal 0 0 1
    outer loop
      vertex 7.47415 -7.07416 46.25
      vertex 6.89999 -7.5 46.25
      vertex 7.45432 -7.12961 46.25
    endloop
  endfacet
  facet normal 0 0 1
    outer loop
      vertex 6.89999 7.5 46.25
      vertex 7.3638 7.28062 46.25
      vertex 7.32426 7.32426 46.25
    endloop
  endfacet
  facet normal 0 0 1
    outer loop
      vertex 7.45432 -7.12961 46.25
      vertex 6.89999 -7.5 46.25
      vertex 7.42915 -7.18283 46.25
    endloop
  endfacet
  facet normal 0 0 1
    outer loop
      vertex 6.89999 7.5 46.25
      vertex 7.32426 7.32426 46.25
      vertex 7.28062 7.3638 46.25
    endloop
  endfacet
  facet normal 0 0 1
    outer loop
      vertex 7.42915 -7.18283 46.25
      vertex 6.89999 -7.5 46.25
      vertex 7.39888 -7.23334 46.25
    endloop
  endfacet
  facet normal 0 0 1
    outer loop
      vertex 6.89999 7.5 46.25
      vertex 7.28062 7.3638 46.25
      vertex 7.23334 7.39888 46.25
    endloop
  endfacet
  facet normal 0 0 1
    outer loop
      vertex 7.39888 -7.23334 46.25
      vertex 6.89999 -7.5 46.25
      vertex 7.3638 -7.28062 46.25
    endloop
  endfacet
  facet normal 0 0 1
    outer loop
      vertex 6.89999 7.5 46.25
      vertex 7.23334 7.39888 46.25
      vertex 7.18283 7.42915 46.25
    endloop
  endfacet
  facet normal 0 0 1
    outer loop
      vertex 7.3638 -7.28062 46.25
      vertex 6.89999 -7.5 46.25
      vertex 7.32426 -7.32426 46.25
    endloop
  endfacet
  facet normal 0 0 1
    outer loop
      vertex 6.89999 7.5 46.25
      vertex 7.18283 7.42915 46.25
      vertex 7.12961 7.45432 46.25
    endloop
  endfacet
  facet normal 0 0 1
    outer loop
      vertex 7.32426 -7.32426 46.25
      vertex 6.89999 -7.5 46.25
      vertex 7.28062 -7.3638 46.25
    endloop
  endfacet
  facet normal 0 0 1
    outer loop
      vertex 6.89999 7.5 46.25
      vertex 7.12961 7.45432 46.25
      vertex 7.07416 7.47415 46.25
    endloop
  endfacet
  facet normal 0 0 1
    outer loop
      vertex 7.28062 -7.3638 46.25
      vertex 6.89999 -7.5 46.25
      vertex 7.23334 -7.39888 46.25
    endloop
  endfacet
  facet normal 0 0 1
    outer loop
      vertex 6.89999 7.5 46.25
      vertex 7.07416 7.47415 46.25
      vertex 7.01704 7.48846 46.25
    endloop
  endfacet
  facet normal 0 0 1
    outer loop
      vertex 7.23334 -7.39888 46.25
      vertex 6.89999 -7.5 46.25
      vertex 7.18283 -7.42915 46.25
    endloop
  endfacet
  facet normal 0 0 1
    outer loop
      vertex 6.89999 7.5 46.25
      vertex 7.01704 7.48846 46.25
      vertex 6.9588 7.4971 46.25
    endloop
  endfacet
  facet normal 0 0 1
    outer loop
      vertex 7.18283 -7.42915 46.25
      vertex 6.89999 -7.5 46.25
      vertex 7.12961 -7.45432 46.25
    endloop
  endfacet
  facet normal 0 0 1
    outer loop
      vertex 7.5 6.89999 46.25
      vertex 6.89999 7.5 46.25
      vertex 5.7 4 46.25
    endloop
  endfacet
  facet normal 0 0 1
    outer loop
      vertex 7.12961 -7.45432 46.25
      vertex 6.89999 -7.5 46.25
      vertex 7.07416 -7.47415 46.25
    endloop
  endfacet
  facet normal 0 0 1
    outer loop
      vertex 7.07416 -7.47415 46.25
      vertex 6.89999 -7.5 46.25
      vertex 7.01704 -7.48846 46.25
    endloop
  endfacet
  facet normal 0 0 1
    outer loop
      vertex 7.5 6.89999 46.25
      vertex 5.7 4 46.25
      vertex 5.7 1 46.25
    endloop
  endfacet
  facet normal 0 0 1
    outer loop
      vertex 6.89999 7.5 46.25
      vertex 5.3 4 46.25
      vertex 5.7 4 46.25
    endloop
  endfacet
  facet normal 0 0 1
    outer loop
      vertex 5.3 4 46.25
      vertex -6.7 -2.3 46.25
      vertex 5.3 1 46.25
    endloop
  endfacet
  facet normal -0 0 1
    outer loop
      vertex -6.89999 7.5 46.25
      vertex 5.3 4 46.25
      vertex 6.89999 7.5 46.25
    endloop
  endfacet
  facet normal -0 0 1
    outer loop
      vertex -7.5 6.89999 46.25
      vertex -6.7 -2.3 46.25
      vertex -6.89999 7.5 46.25
    endloop
  endfacet
  facet normal 0 0 1
    outer loop
      vertex 5.3 4 46.25
      vertex -6.89999 7.5 46.25
      vertex -6.7 -2.3 46.25
    endloop
  endfacet
  facet normal 0 0 1
    outer loop
      vertex 7.01704 -7.48846 46.25
      vertex 6.89999 -7.5 46.25
      vertex 6.9588 -7.4971 46.25
    endloop
  endfacet
  facet normal -0 0 1
    outer loop
      vertex -6.7 -2.7 46.25
      vertex 6.89999 -7.5 46.25
      vertex 6.7 -2.7 46.25
    endloop
  endfacet
  facet normal 0 0 1
    outer loop
      vertex -6.7 -2.7 46.25
      vertex -6.89999 -7.5 46.25
      vertex 6.89999 -7.5 46.25
    endloop
  endfacet
  facet normal 0 0 1
    outer loop
      vertex -7.5 -6.89999 46.25
      vertex -6.7 -2.3 46.25
      vertex -7.5 6.89999 46.25
    endloop
  endfacet
  facet normal 0 0 1
    outer loop
      vertex -7.5 6.89999 46.25
      vertex -6.89999 7.5 46.25
      vertex -6.9588 7.4971 46.25
    endloop
  endfacet
  facet normal 0 0 1
    outer loop
      vertex -6.7 -2.3 46.25
      vertex -7.5 -6.89999 46.25
      vertex -6.7 -2.7 46.25
    endloop
  endfacet
  facet normal 0 0 1
    outer loop
      vertex -7.5 6.89999 46.25
      vertex -6.9588 7.4971 46.25
      vertex -7.01704 7.48846 46.25
    endloop
  endfacet
  facet normal 0 0 1
    outer loop
      vertex -6.7 -2.7 46.25
      vertex -7.5 -6.89999 46.25
      vertex -6.89999 -7.5 46.25
    endloop
  endfacet
  facet normal 0 0 1
    outer loop
      vertex -7.5 6.89999 46.25
      vertex -7.01704 7.48846 46.25
      vertex -7.07416 7.47415 46.25
    endloop
  endfacet
  facet normal 0 0 1
    outer loop
      vertex -6.89999 -7.5 46.25
      vertex -7.5 -6.89999 46.25
      vertex -6.9588 -7.4971 46.25
    endloop
  endfacet
  facet normal 0 0 1
    outer loop
      vertex -7.5 6.89999 46.25
      vertex -7.07416 7.47415 46.25
      vertex -7.12961 7.45432 46.25
    endloop
  endfacet
  facet normal 0 0 1
    outer loop
      vertex -6.9588 -7.4971 46.25
      vertex -7.5 -6.89999 46.25
      vertex -7.01704 -7.48846 46.25
    endloop
  endfacet
  facet normal 0 0 1
    outer loop
      vertex -7.5 6.89999 46.25
      vertex -7.12961 7.45432 46.25
      vertex -7.18283 7.42915 46.25
    endloop
  endfacet
  facet normal 0 0 1
    outer loop
      vertex -7.01704 -7.48846 46.25
      vertex -7.5 -6.89999 46.25
      vertex -7.07416 -7.47415 46.25
    endloop
  endfacet
  facet normal 0 0 1
    outer loop
      vertex -7.5 6.89999 46.25
      vertex -7.18283 7.42915 46.25
      vertex -7.23334 7.39888 46.25
    endloop
  endfacet
  facet normal 0 0 1
    outer loop
      vertex -7.07416 -7.47415 46.25
      vertex -7.5 -6.89999 46.25
      vertex -7.12961 -7.45432 46.25
    endloop
  endfacet
  facet normal 0 0 1
    outer loop
      vertex -7.5 6.89999 46.25
      vertex -7.23334 7.39888 46.25
      vertex -7.28062 7.3638 46.25
    endloop
  endfacet
  facet normal 0 0 1
    outer loop
      vertex -7.12961 -7.45432 46.25
      vertex -7.5 -6.89999 46.25
      vertex -7.18283 -7.42915 46.25
    endloop
  endfacet
  facet normal 0 0 1
    outer loop
      vertex -7.5 6.89999 46.25
      vertex -7.28062 7.3638 46.25
      vertex -7.32426 7.32426 46.25
    endloop
  endfacet
  facet normal 0 0 1
    outer loop
      vertex -7.18283 -7.42915 46.25
      vertex -7.5 -6.89999 46.25
      vertex -7.23334 -7.39888 46.25
    endloop
  endfacet
  facet normal 0 0 1
    outer loop
      vertex -7.5 6.89999 46.25
      vertex -7.32426 7.32426 46.25
      vertex -7.3638 7.28062 46.25
    endloop
  endfacet
  facet normal 0 0 1
    outer loop
      vertex -7.23334 -7.39888 46.25
      vertex -7.5 -6.89999 46.25
      vertex -7.28062 -7.3638 46.25
    endloop
  endfacet
  facet normal 0 0 1
    outer loop
      vertex -7.5 6.89999 46.25
      vertex -7.3638 7.28062 46.25
      vertex -7.39888 7.23334 46.25
    endloop
  endfacet
  facet normal 0 0 1
    outer loop
      vertex -7.28062 -7.3638 46.25
      vertex -7.5 -6.89999 46.25
      vertex -7.32426 -7.32426 46.25
    endloop
  endfacet
  facet normal 0 0 1
    outer loop
      vertex -7.5 6.89999 46.25
      vertex -7.39888 7.23334 46.25
      vertex -7.42915 7.18283 46.25
    endloop
  endfacet
  facet normal 0 0 1
    outer loop
      vertex -7.32426 -7.32426 46.25
      vertex -7.5 -6.89999 46.25
      vertex -7.3638 -7.28062 46.25
    endloop
  endfacet
  facet normal 0 0 1
    outer loop
      vertex -7.5 6.89999 46.25
      vertex -7.42915 7.18283 46.25
      vertex -7.45432 7.12961 46.25
    endloop
  endfacet
  facet normal 0 0 1
    outer loop
      vertex -7.3638 -7.28062 46.25
      vertex -7.5 -6.89999 46.25
      vertex -7.39888 -7.23334 46.25
    endloop
  endfacet
  facet normal 0 0 1
    outer loop
      vertex -7.5 6.89999 46.25
      vertex -7.45432 7.12961 46.25
      vertex -7.47415 7.07416 46.25
    endloop
  endfacet
  facet normal 0 0 1
    outer loop
      vertex -7.39888 -7.23334 46.25
      vertex -7.5 -6.89999 46.25
      vertex -7.42915 -7.18283 46.25
    endloop
  endfacet
  facet normal 0 0 1
    outer loop
      vertex -7.5 6.89999 46.25
      vertex -7.47415 7.07416 46.25
      vertex -7.48846 7.01704 46.25
    endloop
  endfacet
  facet normal 0 0 1
    outer loop
      vertex -7.42915 -7.18283 46.25
      vertex -7.5 -6.89999 46.25
      vertex -7.45432 -7.12961 46.25
    endloop
  endfacet
  facet normal 0 0 1
    outer loop
      vertex -7.5 6.89999 46.25
      vertex -7.48846 7.01704 46.25
      vertex -7.4971 6.9588 46.25
    endloop
  endfacet
  facet normal 0 0 1
    outer loop
      vertex -7.45432 -7.12961 46.25
      vertex -7.5 -6.89999 46.25
      vertex -7.47415 -7.07416 46.25
    endloop
  endfacet
  facet normal 0 0 1
    outer loop
      vertex -7.47415 -7.07416 46.25
      vertex -7.5 -6.89999 46.25
      vertex -7.48846 -7.01704 46.25
    endloop
  endfacet
  facet normal 0 0 1
    outer loop
      vertex -7.48846 -7.01704 46.25
      vertex -7.5 -6.89999 46.25
      vertex -7.4971 -6.9588 46.25
    endloop
  endfacet
  facet normal 0 0 1
    outer loop
      vertex 7.5 6.89999 46.25
      vertex 5.7 1 46.25
      vertex 6.7 -2.3 46.25
    endloop
  endfacet
  facet normal -0 0 1
    outer loop
      vertex 5.3 1 46.25
      vertex 6.7 -2.3 46.25
      vertex 5.7 1 46.25
    endloop
  endfacet
  facet normal 0 0 1
    outer loop
      vertex 6.7 -2.3 46.25
      vertex 5.3 1 46.25
      vertex -6.7 -2.3 46.25
    endloop
  endfacet
  facet normal 0.243015 0.970023 -0
    outer loop
      vertex 7.07416 7.47415 0
      vertex 7.01704 7.48846 46.25
      vertex 7.07416 7.47415 46.25
    endloop
  endfacet
  facet normal 0.243015 0.970023 0
    outer loop
      vertex 7.01704 7.48846 46.25
      vertex 7.07416 7.47415 0
      vertex 7.01704 7.48846 0
    endloop
  endfacet
  facet normal 0.857763 0.514046 0
    outer loop
      vertex 7.42915 7.18283 46.25
      vertex 7.39888 7.23334 0
      vertex 7.39888 7.23334 46.25
    endloop
  endfacet
  facet normal 0.857763 0.514046 0
    outer loop
      vertex 7.39888 7.23334 0
      vertex 7.42915 7.18283 46.25
      vertex 7.42915 7.18283 0
    endloop
  endfacet
  facet normal -0.741061 0.671438 0
    outer loop
      vertex -7.3638 7.28062 0
      vertex -7.32426 7.32426 46.25
      vertex -7.32426 7.32426 0
    endloop
  endfacet
  facet normal -0.741061 0.671438 0
    outer loop
      vertex -7.32426 7.32426 46.25
      vertex -7.3638 7.28062 0
      vertex -7.3638 7.28062 46.25
    endloop
  endfacet
  facet normal 0.989174 0.146746 0
    outer loop
      vertex 7.4971 6.9588 46.25
      vertex 7.48846 7.01704 0
      vertex 7.48846 7.01704 46.25
    endloop
  endfacet
  facet normal 0.989174 0.146746 0
    outer loop
      vertex 7.48846 7.01704 0
      vertex 7.4971 6.9588 46.25
      vertex 7.4971 6.9588 0
    endloop
  endfacet
  facet normal -0.9416 -0.336734 0
    outer loop
      vertex -7.45432 -7.12961 0
      vertex -7.47415 -7.07416 46.25
      vertex -7.47415 -7.07416 0
    endloop
  endfacet
  facet normal -0.9416 -0.336734 0
    outer loop
      vertex -7.47415 -7.07416 46.25
      vertex -7.45432 -7.12961 0
      vertex -7.45432 -7.12961 46.25
    endloop
  endfacet
  facet normal 0.741061 -0.671438 0
    outer loop
      vertex 7.32426 -7.32426 46.25
      vertex 7.3638 -7.28062 0
      vertex 7.3638 -7.28062 46.25
    endloop
  endfacet
  facet normal 0.741061 -0.671438 0
    outer loop
      vertex 7.3638 -7.28062 0
      vertex 7.32426 -7.32426 46.25
      vertex 7.32426 -7.32426 0
    endloop
  endfacet
  facet normal 0.9416 -0.336734 0
    outer loop
      vertex 7.45432 -7.12961 46.25
      vertex 7.47415 -7.07416 0
      vertex 7.47415 -7.07416 46.25
    endloop
  endfacet
  facet normal 0.9416 -0.336734 0
    outer loop
      vertex 7.47415 -7.07416 0
      vertex 7.45432 -7.12961 46.25
      vertex 7.45432 -7.12961 0
    endloop
  endfacet
  facet normal 0.0492515 0.998786 -0
    outer loop
      vertex 6.9588 7.4971 0
      vertex 6.89999 7.5 46.25
      vertex 6.9588 7.4971 46.25
    endloop
  endfacet
  facet normal 0.0492515 0.998786 0
    outer loop
      vertex 6.89999 7.5 46.25
      vertex 6.9588 7.4971 0
      vertex 6.89999 7.5 0
    endloop
  endfacet
  facet normal 0.595861 -0.803088 0
    outer loop
      vertex 7.23334 -7.39888 0
      vertex 7.28062 -7.3638 46.25
      vertex 7.23334 -7.39888 46.25
    endloop
  endfacet
  facet normal 0.595861 -0.803088 0
    outer loop
      vertex 7.28062 -7.3638 46.25
      vertex 7.23334 -7.39888 0
      vertex 7.28062 -7.3638 0
    endloop
  endfacet
  facet normal 0.970023 0.243015 0
    outer loop
      vertex 7.48846 7.01704 46.25
      vertex 7.47415 7.07416 0
      vertex 7.47415 7.07416 46.25
    endloop
  endfacet
  facet normal 0.970023 0.243015 0
    outer loop
      vertex 7.47415 7.07416 0
      vertex 7.48846 7.01704 46.25
      vertex 7.48846 7.01704 0
    endloop
  endfacet
  facet normal 0.989174 -0.146746 0
    outer loop
      vertex 7.48846 -7.01704 46.25
      vertex 7.4971 -6.9588 0
      vertex 7.4971 -6.9588 46.25
    endloop
  endfacet
  facet normal 0.989174 -0.146746 0
    outer loop
      vertex 7.4971 -6.9588 0
      vertex 7.48846 -7.01704 46.25
      vertex 7.48846 -7.01704 0
    endloop
  endfacet
  facet normal -0.998786 -0.0492515 0
    outer loop
      vertex -7.4971 -6.9588 0
      vertex -7.5 -6.89999 46.25
      vertex -7.5 -6.89999 0
    endloop
  endfacet
  facet normal -0.998786 -0.0492515 0
    outer loop
      vertex -7.5 -6.89999 46.25
      vertex -7.4971 -6.9588 0
      vertex -7.4971 -6.9588 46.25
    endloop
  endfacet
  facet normal -0.989174 -0.146746 0
    outer loop
      vertex -7.48846 -7.01704 0
      vertex -7.4971 -6.9588 46.25
      vertex -7.4971 -6.9588 0
    endloop
  endfacet
  facet normal -0.989174 -0.146746 0
    outer loop
      vertex -7.4971 -6.9588 46.25
      vertex -7.48846 -7.01704 0
      vertex -7.48846 -7.01704 46.25
    endloop
  endfacet
  facet normal 0.336734 0.9416 -0
    outer loop
      vertex 7.12961 7.45432 0
      vertex 7.07416 7.47415 46.25
      vertex 7.12961 7.45432 46.25
    endloop
  endfacet
  facet normal 0.336734 0.9416 0
    outer loop
      vertex 7.07416 7.47415 46.25
      vertex 7.12961 7.45432 0
      vertex 7.07416 7.47415 0
    endloop
  endfacet
  facet normal 0.803088 -0.595861 0
    outer loop
      vertex 7.3638 -7.28062 46.25
      vertex 7.39888 -7.23334 0
      vertex 7.39888 -7.23334 46.25
    endloop
  endfacet
  facet normal 0.803088 -0.595861 0
    outer loop
      vertex 7.39888 -7.23334 0
      vertex 7.3638 -7.28062 46.25
      vertex 7.3638 -7.28062 0
    endloop
  endfacet
  facet normal 0.427539 -0.903997 0
    outer loop
      vertex 7.12961 -7.45432 0
      vertex 7.18283 -7.42915 46.25
      vertex 7.12961 -7.45432 46.25
    endloop
  endfacet
  facet normal 0.427539 -0.903997 0
    outer loop
      vertex 7.18283 -7.42915 46.25
      vertex 7.12961 -7.45432 0
      vertex 7.18283 -7.42915 0
    endloop
  endfacet
  facet normal -0.989176 -0.146736 0
    outer loop
      vertex 2.13965 0.210736 0
      vertex 2.10869 0.419444 1.2
      vertex 2.10869 0.419444 0
    endloop
  endfacet
  facet normal -0.989176 -0.146736 0
    outer loop
      vertex 2.10869 0.419444 1.2
      vertex 2.13965 0.210736 0
      vertex 2.13965 0.210736 1.2
    endloop
  endfacet
  facet normal -0.998796 -0.0490545 0
    outer loop
      vertex 2.15 0 0
      vertex 2.13965 0.210736 1.2
      vertex 2.13965 0.210736 0
    endloop
  endfacet
  facet normal -0.998796 -0.0490545 0
    outer loop
      vertex 2.13965 0.210736 1.2
      vertex 2.15 0 0
      vertex 2.15 0 1.2
    endloop
  endfacet
  facet normal -0.970027 -0.242996 0
    outer loop
      vertex 2.10869 0.419444 0
      vertex 2.05742 0.624111 1.2
      vertex 2.05742 0.624111 0
    endloop
  endfacet
  facet normal -0.970027 -0.242996 0
    outer loop
      vertex 2.05742 0.624111 1.2
      vertex 2.10869 0.419444 0
      vertex 2.10869 0.419444 1.2
    endloop
  endfacet
  facet normal -0.427559 0.903988 0
    outer loop
      vertex 1.0135 -1.89613 0
      vertex 0.822769 -1.98634 1.2
      vertex 1.0135 -1.89613 1.2
    endloop
  endfacet
  facet normal -0.427559 0.903988 0
    outer loop
      vertex 0.822769 -1.98634 1.2
      vertex 1.0135 -1.89613 0
      vertex 0.822769 -1.98634 0
    endloop
  endfacet
  facet normal 0.595707 -0.803202 0
    outer loop
      vertex -1.36395 1.66197 0
      vertex -1.19448 1.78766 1.2
      vertex -1.36395 1.66197 1.2
    endloop
  endfacet
  facet normal 0.595707 -0.803202 0
    outer loop
      vertex -1.19448 1.78766 1.2
      vertex -1.36395 1.66197 0
      vertex -1.19448 1.78766 0
    endloop
  endfacet
  facet normal 0.903988 -0.427559 0
    outer loop
      vertex -1.98634 0.822769 1.2
      vertex -1.89613 1.0135 0
      vertex -1.89613 1.0135 1.2
    endloop
  endfacet
  facet normal 0.903988 -0.427559 0
    outer loop
      vertex -1.89613 1.0135 0
      vertex -1.98634 0.822769 1.2
      vertex -1.98634 0.822769 0
    endloop
  endfacet
  facet normal 0.970027 -0.242996 0
    outer loop
      vertex -2.10869 0.419444 1.2
      vertex -2.05742 0.624111 0
      vertex -2.05742 0.624111 1.2
    endloop
  endfacet
  facet normal 0.970027 -0.242996 0
    outer loop
      vertex -2.05742 0.624111 0
      vertex -2.10869 0.419444 1.2
      vertex -2.10869 0.419444 0
    endloop
  endfacet
  facet normal -0.514084 0.85774 0
    outer loop
      vertex 1.19448 -1.78766 0
      vertex 1.0135 -1.89613 1.2
      vertex 1.19448 -1.78766 1.2
    endloop
  endfacet
  facet normal -0.514084 0.85774 0
    outer loop
      vertex 1.0135 -1.89613 1.2
      vertex 1.19448 -1.78766 0
      vertex 1.0135 -1.89613 0
    endloop
  endfacet
  facet normal -0.242996 0.970027 0
    outer loop
      vertex 0.624111 -2.05742 0
      vertex 0.419444 -2.10869 1.2
      vertex 0.624111 -2.05742 1.2
    endloop
  endfacet
  facet normal -0.242996 0.970027 0
    outer loop
      vertex 0.419444 -2.10869 1.2
      vertex 0.624111 -2.05742 0
      vertex 0.419444 -2.10869 0
    endloop
  endfacet
  facet normal -0.0490545 -0.998796 0
    outer loop
      vertex 0 2.15 0
      vertex 0.210736 2.13965 1.2
      vertex 0 2.15 1.2
    endloop
  endfacet
  facet normal -0.0490545 -0.998796 -0
    outer loop
      vertex 0.210736 2.13965 1.2
      vertex 0 2.15 0
      vertex 0.210736 2.13965 0
    endloop
  endfacet
  facet normal -0.146736 -0.989176 0
    outer loop
      vertex 0.210736 2.13965 0
      vertex 0.419444 2.10869 1.2
      vertex 0.210736 2.13965 1.2
    endloop
  endfacet
  facet normal -0.146736 -0.989176 -0
    outer loop
      vertex 0.419444 2.10869 1.2
      vertex 0.210736 2.13965 0
      vertex 0.419444 2.10869 0
    endloop
  endfacet
  facet normal -0.427559 -0.903988 0
    outer loop
      vertex 0.822769 1.98634 0
      vertex 1.0135 1.89613 1.2
      vertex 0.822769 1.98634 1.2
    endloop
  endfacet
  facet normal -0.427559 -0.903988 -0
    outer loop
      vertex 1.0135 1.89613 1.2
      vertex 0.822769 1.98634 0
      vertex 1.0135 1.89613 0
    endloop
  endfacet
  facet normal -0.146736 0.989176 0
    outer loop
      vertex 0.419444 -2.10869 0
      vertex 0.210736 -2.13965 1.2
      vertex 0.419444 -2.10869 1.2
    endloop
  endfacet
  facet normal -0.146736 0.989176 0
    outer loop
      vertex 0.210736 -2.13965 1.2
      vertex 0.419444 -2.10869 0
      vertex 0.210736 -2.13965 0
    endloop
  endfacet
  facet normal 0 0 -1
    outer loop
      vertex 2.13965 -0.210736 1.2
      vertex 2.13965 0.210736 1.2
      vertex 2.15 0 1.2
    endloop
  endfacet
  facet normal 0 0 -1
    outer loop
      vertex 2.10869 -0.419444 1.2
      vertex 2.13965 0.210736 1.2
      vertex 2.13965 -0.210736 1.2
    endloop
  endfacet
  facet normal 0 0 -1
    outer loop
      vertex 2.10869 -0.419444 1.2
      vertex 2.10869 0.419444 1.2
      vertex 2.13965 0.210736 1.2
    endloop
  endfacet
  facet normal 0 0 -1
    outer loop
      vertex 2.05742 -0.624111 1.2
      vertex 2.10869 0.419444 1.2
      vertex 2.10869 -0.419444 1.2
    endloop
  endfacet
  facet normal 0 0 -1
    outer loop
      vertex 2.05742 -0.624111 1.2
      vertex 2.05742 0.624111 1.2
      vertex 2.10869 0.419444 1.2
    endloop
  endfacet
  facet normal 0 0 -1
    outer loop
      vertex 1.98634 -0.822769 1.2
      vertex 2.05742 0.624111 1.2
      vertex 2.05742 -0.624111 1.2
    endloop
  endfacet
  facet normal 0 0 -1
    outer loop
      vertex 1.98634 -0.822769 1.2
      vertex 1.98634 0.822769 1.2
      vertex 2.05742 0.624111 1.2
    endloop
  endfacet
  facet normal 0 0 -1
    outer loop
      vertex 1.89613 -1.0135 1.2
      vertex 1.98634 0.822769 1.2
      vertex 1.98634 -0.822769 1.2
    endloop
  endfacet
  facet normal 0 0 -1
    outer loop
      vertex 1.89613 -1.0135 1.2
      vertex 1.89613 1.0135 1.2
      vertex 1.98634 0.822769 1.2
    endloop
  endfacet
  facet normal 0 0 -1
    outer loop
      vertex 1.78766 -1.19448 1.2
      vertex 1.89613 1.0135 1.2
      vertex 1.89613 -1.0135 1.2
    endloop
  endfacet
  facet normal 0 0 -1
    outer loop
      vertex 1.78766 -1.19448 1.2
      vertex 1.78766 1.19448 1.2
      vertex 1.89613 1.0135 1.2
    endloop
  endfacet
  facet normal 0 0 -1
    outer loop
      vertex 1.66197 -1.36395 1.2
      vertex 1.78766 1.19448 1.2
      vertex 1.78766 -1.19448 1.2
    endloop
  endfacet
  facet normal 0 0 -1
    outer loop
      vertex 1.66197 -1.36395 1.2
      vertex 1.66197 1.36395 1.2
      vertex 1.78766 1.19448 1.2
    endloop
  endfacet
  facet normal 0 0 -1
    outer loop
      vertex 1.52028 -1.52028 1.2
      vertex 1.66197 1.36395 1.2
      vertex 1.66197 -1.36395 1.2
    endloop
  endfacet
  facet normal 0 0 -1
    outer loop
      vertex 1.52028 -1.52028 1.2
      vertex 1.52028 1.52028 1.2
      vertex 1.66197 1.36395 1.2
    endloop
  endfacet
  facet normal 0 0 -1
    outer loop
      vertex 1.36395 -1.66197 1.2
      vertex 1.52028 1.52028 1.2
      vertex 1.52028 -1.52028 1.2
    endloop
  endfacet
  facet normal 0 0 -1
    outer loop
      vertex 1.36395 -1.66197 1.2
      vertex 1.36395 1.66197 1.2
      vertex 1.52028 1.52028 1.2
    endloop
  endfacet
  facet normal 0 0 -1
    outer loop
      vertex 1.19448 -1.78766 1.2
      vertex 1.36395 1.66197 1.2
      vertex 1.36395 -1.66197 1.2
    endloop
  endfacet
  facet normal 0 0 -1
    outer loop
      vertex 1.19448 -1.78766 1.2
      vertex 1.19448 1.78766 1.2
      vertex 1.36395 1.66197 1.2
    endloop
  endfacet
  facet normal 0 0 -1
    outer loop
      vertex 1.0135 -1.89613 1.2
      vertex 1.19448 1.78766 1.2
      vertex 1.19448 -1.78766 1.2
    endloop
  endfacet
  facet normal 0 0 -1
    outer loop
      vertex 1.0135 -1.89613 1.2
      vertex 1.0135 1.89613 1.2
      vertex 1.19448 1.78766 1.2
    endloop
  endfacet
  facet normal 0 0 -1
    outer loop
      vertex 0.822769 -1.98634 1.2
      vertex 1.0135 1.89613 1.2
      vertex 1.0135 -1.89613 1.2
    endloop
  endfacet
  facet normal 0 0 -1
    outer loop
      vertex 0.822769 -1.98634 1.2
      vertex 0.822769 1.98634 1.2
      vertex 1.0135 1.89613 1.2
    endloop
  endfacet
  facet normal 0 0 -1
    outer loop
      vertex 0.624111 -2.05742 1.2
      vertex 0.822769 1.98634 1.2
      vertex 0.822769 -1.98634 1.2
    endloop
  endfacet
  facet normal 0 0 -1
    outer loop
      vertex 0.624111 -2.05742 1.2
      vertex 0.624111 2.05742 1.2
      vertex 0.822769 1.98634 1.2
    endloop
  endfacet
  facet normal 0 0 -1
    outer loop
      vertex 0.419444 -2.10869 1.2
      vertex 0.624111 2.05742 1.2
      vertex 0.624111 -2.05742 1.2
    endloop
  endfacet
  facet normal 0 0 -1
    outer loop
      vertex 0.419444 -2.10869 1.2
      vertex 0.419444 2.10869 1.2
      vertex 0.624111 2.05742 1.2
    endloop
  endfacet
  facet normal 0 0 -1
    outer loop
      vertex 0.210736 -2.13965 1.2
      vertex 0.419444 2.10869 1.2
      vertex 0.419444 -2.10869 1.2
    endloop
  endfacet
  facet normal 0 0 -1
    outer loop
      vertex 0.210736 -2.13965 1.2
      vertex 0.210736 2.13965 1.2
      vertex 0.419444 2.10869 1.2
    endloop
  endfacet
  facet normal 0 0 -1
    outer loop
      vertex 0 -2.15 1.2
      vertex 0.210736 2.13965 1.2
      vertex 0.210736 -2.13965 1.2
    endloop
  endfacet
  facet normal 0 0 -1
    outer loop
      vertex 0 -2.15 1.2
      vertex 0 2.15 1.2
      vertex 0.210736 2.13965 1.2
    endloop
  endfacet
  facet normal 0 0 -1
    outer loop
      vertex -0.210736 -2.13965 1.2
      vertex 0 2.15 1.2
      vertex 0 -2.15 1.2
    endloop
  endfacet
  facet normal 0 0 -1
    outer loop
      vertex -0.210736 -2.13965 1.2
      vertex -0.210736 2.13965 1.2
      vertex 0 2.15 1.2
    endloop
  endfacet
  facet normal 0 0 -1
    outer loop
      vertex -0.419444 -2.10869 1.2
      vertex -0.210736 2.13965 1.2
      vertex -0.210736 -2.13965 1.2
    endloop
  endfacet
  facet normal 0 0 -1
    outer loop
      vertex -0.419444 -2.10869 1.2
      vertex -0.419444 2.10869 1.2
      vertex -0.210736 2.13965 1.2
    endloop
  endfacet
  facet normal 0 0 -1
    outer loop
      vertex -0.624111 -2.05742 1.2
      vertex -0.419444 2.10869 1.2
      vertex -0.419444 -2.10869 1.2
    endloop
  endfacet
  facet normal 0 0 -1
    outer loop
      vertex -0.624111 -2.05742 1.2
      vertex -0.624111 2.05742 1.2
      vertex -0.419444 2.10869 1.2
    endloop
  endfacet
  facet normal 0 0 -1
    outer loop
      vertex -0.822769 -1.98634 1.2
      vertex -0.624111 2.05742 1.2
      vertex -0.624111 -2.05742 1.2
    endloop
  endfacet
  facet normal 0 0 -1
    outer loop
      vertex -0.822769 -1.98634 1.2
      vertex -0.822769 1.98634 1.2
      vertex -0.624111 2.05742 1.2
    endloop
  endfacet
  facet normal 0 0 -1
    outer loop
      vertex -1.0135 -1.89613 1.2
      vertex -0.822769 1.98634 1.2
      vertex -0.822769 -1.98634 1.2
    endloop
  endfacet
  facet normal 0 0 -1
    outer loop
      vertex -1.0135 -1.89613 1.2
      vertex -1.0135 1.89613 1.2
      vertex -0.822769 1.98634 1.2
    endloop
  endfacet
  facet normal 0 0 -1
    outer loop
      vertex -1.19448 -1.78766 1.2
      vertex -1.0135 1.89613 1.2
      vertex -1.0135 -1.89613 1.2
    endloop
  endfacet
  facet normal 0 0 -1
    outer loop
      vertex -1.19448 -1.78766 1.2
      vertex -1.19448 1.78766 1.2
      vertex -1.0135 1.89613 1.2
    endloop
  endfacet
  facet normal 0 0 -1
    outer loop
      vertex -1.36395 -1.66197 1.2
      vertex -1.19448 1.78766 1.2
      vertex -1.19448 -1.78766 1.2
    endloop
  endfacet
  facet normal 0 0 -1
    outer loop
      vertex -1.36395 -1.66197 1.2
      vertex -1.36395 1.66197 1.2
      vertex -1.19448 1.78766 1.2
    endloop
  endfacet
  facet normal 0 0 -1
    outer loop
      vertex -1.52028 -1.52028 1.2
      vertex -1.36395 1.66197 1.2
      vertex -1.36395 -1.66197 1.2
    endloop
  endfacet
  facet normal 0 0 -1
    outer loop
      vertex -1.52028 -1.52028 1.2
      vertex -1.52028 1.52028 1.2
      vertex -1.36395 1.66197 1.2
    endloop
  endfacet
  facet normal 0 0 -1
    outer loop
      vertex -1.66197 -1.36395 1.2
      vertex -1.52028 1.52028 1.2
      vertex -1.52028 -1.52028 1.2
    endloop
  endfacet
  facet normal 0 0 -1
    outer loop
      vertex -1.66197 -1.36395 1.2
      vertex -1.66197 1.36395 1.2
      vertex -1.52028 1.52028 1.2
    endloop
  endfacet
  facet normal 0 0 -1
    outer loop
      vertex -1.78766 -1.19448 1.2
      vertex -1.66197 1.36395 1.2
      vertex -1.66197 -1.36395 1.2
    endloop
  endfacet
  facet normal 0 0 -1
    outer loop
      vertex -1.78766 -1.19448 1.2
      vertex -1.78766 1.19448 1.2
      vertex -1.66197 1.36395 1.2
    endloop
  endfacet
  facet normal 0 0 -1
    outer loop
      vertex -1.89613 -1.0135 1.2
      vertex -1.78766 1.19448 1.2
      vertex -1.78766 -1.19448 1.2
    endloop
  endfacet
  facet normal 0 0 -1
    outer loop
      vertex -1.89613 -1.0135 1.2
      vertex -1.89613 1.0135 1.2
      vertex -1.78766 1.19448 1.2
    endloop
  endfacet
  facet normal 0 0 -1
    outer loop
      vertex -1.98634 -0.822769 1.2
      vertex -1.89613 1.0135 1.2
      vertex -1.89613 -1.0135 1.2
    endloop
  endfacet
  facet normal 0 0 -1
    outer loop
      vertex -1.98634 -0.822769 1.2
      vertex -1.98634 0.822769 1.2
      vertex -1.89613 1.0135 1.2
    endloop
  endfacet
  facet normal 0 0 -1
    outer loop
      vertex -2.05742 -0.624111 1.2
      vertex -1.98634 0.822769 1.2
      vertex -1.98634 -0.822769 1.2
    endloop
  endfacet
  facet normal 0 0 -1
    outer loop
      vertex -2.05742 -0.624111 1.2
      vertex -2.05742 0.624111 1.2
      vertex -1.98634 0.822769 1.2
    endloop
  endfacet
  facet normal 0 0 -1
    outer loop
      vertex -2.10869 -0.419444 1.2
      vertex -2.05742 0.624111 1.2
      vertex -2.05742 -0.624111 1.2
    endloop
  endfacet
  facet normal 0 0 -1
    outer loop
      vertex -2.10869 -0.419444 1.2
      vertex -2.10869 0.419444 1.2
      vertex -2.05742 0.624111 1.2
    endloop
  endfacet
  facet normal 0 0 -1
    outer loop
      vertex -2.13965 -0.210736 1.2
      vertex -2.10869 0.419444 1.2
      vertex -2.10869 -0.419444 1.2
    endloop
  endfacet
  facet normal 0 0 -1
    outer loop
      vertex -2.13965 -0.210736 1.2
      vertex -2.13965 0.210736 1.2
      vertex -2.10869 0.419444 1.2
    endloop
  endfacet
  facet normal 0 -0 -1
    outer loop
      vertex -2.13965 0.210736 1.2
      vertex -2.13965 -0.210736 1.2
      vertex -2.15 0 1.2
    endloop
  endfacet
  facet normal -0.803202 0.595707 0
    outer loop
      vertex 1.66197 -1.36395 0
      vertex 1.78766 -1.19448 1.2
      vertex 1.78766 -1.19448 0
    endloop
  endfacet
  facet normal -0.803202 0.595707 0
    outer loop
      vertex 1.78766 -1.19448 1.2
      vertex 1.66197 -1.36395 0
      vertex 1.66197 -1.36395 1.2
    endloop
  endfacet
  facet normal 0.740949 0.671561 0
    outer loop
      vertex -1.52028 -1.52028 1.2
      vertex -1.66197 -1.36395 0
      vertex -1.66197 -1.36395 1.2
    endloop
  endfacet
  facet normal 0.740949 0.671561 0
    outer loop
      vertex -1.66197 -1.36395 0
      vertex -1.52028 -1.52028 1.2
      vertex -1.52028 -1.52028 0
    endloop
  endfacet
  facet normal 0.514084 -0.85774 0
    outer loop
      vertex -1.19448 1.78766 0
      vertex -1.0135 1.89613 1.2
      vertex -1.19448 1.78766 1.2
    endloop
  endfacet
  facet normal 0.514084 -0.85774 0
    outer loop
      vertex -1.0135 1.89613 1.2
      vertex -1.19448 1.78766 0
      vertex -1.0135 1.89613 0
    endloop
  endfacet
  facet normal -0.989176 0.146736 0
    outer loop
      vertex 2.10869 -0.419444 0
      vertex 2.13965 -0.210736 1.2
      vertex 2.13965 -0.210736 0
    endloop
  endfacet
  facet normal -0.989176 0.146736 0
    outer loop
      vertex 2.13965 -0.210736 1.2
      vertex 2.10869 -0.419444 0
      vertex 2.10869 -0.419444 1.2
    endloop
  endfacet
  facet normal 0.146736 0.989176 -0
    outer loop
      vertex -0.210736 -2.13965 0
      vertex -0.419444 -2.10869 1.2
      vertex -0.210736 -2.13965 1.2
    endloop
  endfacet
  facet normal 0.146736 0.989176 0
    outer loop
      vertex -0.419444 -2.10869 1.2
      vertex -0.210736 -2.13965 0
      vertex -0.419444 -2.10869 0
    endloop
  endfacet
  facet normal -0.595707 0.803202 0
    outer loop
      vertex 1.36395 -1.66197 0
      vertex 1.19448 -1.78766 1.2
      vertex 1.36395 -1.66197 1.2
    endloop
  endfacet
  facet normal -0.595707 0.803202 0
    outer loop
      vertex 1.19448 -1.78766 1.2
      vertex 1.36395 -1.66197 0
      vertex 1.19448 -1.78766 0
    endloop
  endfacet
  facet normal 0.0490545 0.998796 -0
    outer loop
      vertex 0 -2.15 0
      vertex -0.210736 -2.13965 1.2
      vertex 0 -2.15 1.2
    endloop
  endfacet
  facet normal 0.0490545 0.998796 0
    outer loop
      vertex -0.210736 -2.13965 1.2
      vertex 0 -2.15 0
      vertex -0.210736 -2.13965 0
    endloop
  endfacet
  facet normal -0.595707 -0.803202 0
    outer loop
      vertex 1.19448 1.78766 0
      vertex 1.36395 1.66197 1.2
      vertex 1.19448 1.78766 1.2
    endloop
  endfacet
  facet normal -0.595707 -0.803202 -0
    outer loop
      vertex 1.36395 1.66197 1.2
      vertex 1.19448 1.78766 0
      vertex 1.36395 1.66197 0
    endloop
  endfacet
  facet normal -0.970027 0.242996 0
    outer loop
      vertex 2.05742 -0.624111 0
      vertex 2.10869 -0.419444 1.2
      vertex 2.10869 -0.419444 0
    endloop
  endfacet
  facet normal -0.970027 0.242996 0
    outer loop
      vertex 2.10869 -0.419444 1.2
      vertex 2.05742 -0.624111 0
      vertex 2.05742 -0.624111 1.2
    endloop
  endfacet
  facet normal 0.989176 -0.146736 0
    outer loop
      vertex -2.13965 0.210736 1.2
      vertex -2.10869 0.419444 0
      vertex -2.10869 0.419444 1.2
    endloop
  endfacet
  facet normal 0.989176 -0.146736 0
    outer loop
      vertex -2.10869 0.419444 0
      vertex -2.13965 0.210736 1.2
      vertex -2.13965 0.210736 0
    endloop
  endfacet
  facet normal 0.85774 -0.514084 0
    outer loop
      vertex -1.89613 1.0135 1.2
      vertex -1.78766 1.19448 0
      vertex -1.78766 1.19448 1.2
    endloop
  endfacet
  facet normal 0.85774 -0.514084 0
    outer loop
      vertex -1.78766 1.19448 0
      vertex -1.89613 1.0135 1.2
      vertex -1.89613 1.0135 0
    endloop
  endfacet
  facet normal 0.941546 0.336886 0
    outer loop
      vertex -1.98634 -0.822769 1.2
      vertex -2.05742 -0.624111 0
      vertex -2.05742 -0.624111 1.2
    endloop
  endfacet
  facet normal 0.941546 0.336886 0
    outer loop
      vertex -2.05742 -0.624111 0
      vertex -1.98634 -0.822769 1.2
      vertex -1.98634 -0.822769 0
    endloop
  endfacet
  facet normal 0.146736 -0.989176 0
    outer loop
      vertex -0.419444 2.10869 0
      vertex -0.210736 2.13965 1.2
      vertex -0.419444 2.10869 1.2
    endloop
  endfacet
  facet normal 0.146736 -0.989176 0
    outer loop
      vertex -0.210736 2.13965 1.2
      vertex -0.419444 2.10869 0
      vertex -0.210736 2.13965 0
    endloop
  endfacet
  facet normal -0.803202 -0.595707 0
    outer loop
      vertex 1.78766 1.19448 0
      vertex 1.66197 1.36395 1.2
      vertex 1.66197 1.36395 0
    endloop
  endfacet
  facet normal -0.803202 -0.595707 0
    outer loop
      vertex 1.66197 1.36395 1.2
      vertex 1.78766 1.19448 0
      vertex 1.78766 1.19448 1.2
    endloop
  endfacet
  facet normal 0.970027 0.242996 0
    outer loop
      vertex -2.05742 -0.624111 1.2
      vertex -2.10869 -0.419444 0
      vertex -2.10869 -0.419444 1.2
    endloop
  endfacet
  facet normal 0.970027 0.242996 0
    outer loop
      vertex -2.10869 -0.419444 0
      vertex -2.05742 -0.624111 1.2
      vertex -2.05742 -0.624111 0
    endloop
  endfacet
  facet normal 0.998796 0.0490545 0
    outer loop
      vertex -2.13965 -0.210736 1.2
      vertex -2.15 0 0
      vertex -2.15 0 1.2
    endloop
  endfacet
  facet normal 0.998796 0.0490545 0
    outer loop
      vertex -2.15 0 0
      vertex -2.13965 -0.210736 1.2
      vertex -2.13965 -0.210736 0
    endloop
  endfacet
  facet normal -0.514084 -0.85774 0
    outer loop
      vertex 1.0135 1.89613 0
      vertex 1.19448 1.78766 1.2
      vertex 1.0135 1.89613 1.2
    endloop
  endfacet
  facet normal -0.514084 -0.85774 -0
    outer loop
      vertex 1.19448 1.78766 1.2
      vertex 1.0135 1.89613 0
      vertex 1.19448 1.78766 0
    endloop
  endfacet
  facet normal -0.998796 0.0490545 0
    outer loop
      vertex 2.13965 -0.210736 0
      vertex 2.15 0 1.2
      vertex 2.15 0 0
    endloop
  endfacet
  facet normal -0.998796 0.0490545 0
    outer loop
      vertex 2.15 0 1.2
      vertex 2.13965 -0.210736 0
      vertex 2.13965 -0.210736 1.2
    endloop
  endfacet
  facet normal -0.903988 0.427559 0
    outer loop
      vertex 1.89613 -1.0135 0
      vertex 1.98634 -0.822769 1.2
      vertex 1.98634 -0.822769 0
    endloop
  endfacet
  facet normal -0.903988 0.427559 0
    outer loop
      vertex 1.98634 -0.822769 1.2
      vertex 1.89613 -1.0135 0
      vertex 1.89613 -1.0135 1.2
    endloop
  endfacet
  facet normal -0.85774 -0.514084 0
    outer loop
      vertex 1.89613 1.0135 0
      vertex 1.78766 1.19448 1.2
      vertex 1.78766 1.19448 0
    endloop
  endfacet
  facet normal -0.85774 -0.514084 0
    outer loop
      vertex 1.78766 1.19448 1.2
      vertex 1.89613 1.0135 0
      vertex 1.89613 1.0135 1.2
    endloop
  endfacet
  facet normal -0.740949 -0.671561 0
    outer loop
      vertex 1.66197 1.36395 0
      vertex 1.52028 1.52028 1.2
      vertex 1.52028 1.52028 0
    endloop
  endfacet
  facet normal -0.740949 -0.671561 0
    outer loop
      vertex 1.52028 1.52028 1.2
      vertex 1.66197 1.36395 0
      vertex 1.66197 1.36395 1.2
    endloop
  endfacet
  facet normal 0.0490545 -0.998796 0
    outer loop
      vertex -0.210736 2.13965 0
      vertex 0 2.15 1.2
      vertex -0.210736 2.13965 1.2
    endloop
  endfacet
  facet normal 0.0490545 -0.998796 0
    outer loop
      vertex 0 2.15 1.2
      vertex -0.210736 2.13965 0
      vertex 0 2.15 0
    endloop
  endfacet
  facet normal 0.740949 -0.671561 0
    outer loop
      vertex -1.66197 1.36395 1.2
      vertex -1.52028 1.52028 0
      vertex -1.52028 1.52028 1.2
    endloop
  endfacet
  facet normal 0.740949 -0.671561 0
    outer loop
      vertex -1.52028 1.52028 0
      vertex -1.66197 1.36395 1.2
      vertex -1.66197 1.36395 0
    endloop
  endfacet
  facet normal 0.671561 0.740949 -0
    outer loop
      vertex -1.36395 -1.66197 0
      vertex -1.52028 -1.52028 1.2
      vertex -1.36395 -1.66197 1.2
    endloop
  endfacet
  facet normal 0.671561 0.740949 0
    outer loop
      vertex -1.52028 -1.52028 1.2
      vertex -1.36395 -1.66197 0
      vertex -1.52028 -1.52028 0
    endloop
  endfacet
  facet normal -0.0490545 0.998796 0
    outer loop
      vertex 0.210736 -2.13965 0
      vertex 0 -2.15 1.2
      vertex 0.210736 -2.13965 1.2
    endloop
  endfacet
  facet normal -0.0490545 0.998796 0
    outer loop
      vertex 0 -2.15 1.2
      vertex 0.210736 -2.13965 0
      vertex 0 -2.15 0
    endloop
  endfacet
  facet normal -0.941546 -0.336886 0
    outer loop
      vertex 2.05742 0.624111 0
      vertex 1.98634 0.822769 1.2
      vertex 1.98634 0.822769 0
    endloop
  endfacet
  facet normal -0.941546 -0.336886 0
    outer loop
      vertex 1.98634 0.822769 1.2
      vertex 2.05742 0.624111 0
      vertex 2.05742 0.624111 1.2
    endloop
  endfacet
  facet normal -0.85774 0.514084 0
    outer loop
      vertex 1.78766 -1.19448 0
      vertex 1.89613 -1.0135 1.2
      vertex 1.89613 -1.0135 0
    endloop
  endfacet
  facet normal -0.85774 0.514084 0
    outer loop
      vertex 1.89613 -1.0135 1.2
      vertex 1.78766 -1.19448 0
      vertex 1.78766 -1.19448 1.2
    endloop
  endfacet
  facet normal -0.671561 -0.740949 0
    outer loop
      vertex 1.36395 1.66197 0
      vertex 1.52028 1.52028 1.2
      vertex 1.36395 1.66197 1.2
    endloop
  endfacet
  facet normal -0.671561 -0.740949 -0
    outer loop
      vertex 1.52028 1.52028 1.2
      vertex 1.36395 1.66197 0
      vertex 1.52028 1.52028 0
    endloop
  endfacet
  facet normal 0.242996 -0.970027 0
    outer loop
      vertex -0.624111 2.05742 0
      vertex -0.419444 2.10869 1.2
      vertex -0.624111 2.05742 1.2
    endloop
  endfacet
  facet normal 0.242996 -0.970027 0
    outer loop
      vertex -0.419444 2.10869 1.2
      vertex -0.624111 2.05742 0
      vertex -0.419444 2.10869 0
    endloop
  endfacet
  facet normal -0.941546 0.336886 0
    outer loop
      vertex 1.98634 -0.822769 0
      vertex 2.05742 -0.624111 1.2
      vertex 2.05742 -0.624111 0
    endloop
  endfacet
  facet normal -0.941546 0.336886 0
    outer loop
      vertex 2.05742 -0.624111 1.2
      vertex 1.98634 -0.822769 0
      vertex 1.98634 -0.822769 1.2
    endloop
  endfacet
  facet normal -0.336886 0.941546 0
    outer loop
      vertex 0.822769 -1.98634 0
      vertex 0.624111 -2.05742 1.2
      vertex 0.822769 -1.98634 1.2
    endloop
  endfacet
  facet normal -0.336886 0.941546 0
    outer loop
      vertex 0.624111 -2.05742 1.2
      vertex 0.822769 -1.98634 0
      vertex 0.624111 -2.05742 0
    endloop
  endfacet
  facet normal 0.427559 -0.903988 0
    outer loop
      vertex -1.0135 1.89613 0
      vertex -0.822769 1.98634 1.2
      vertex -1.0135 1.89613 1.2
    endloop
  endfacet
  facet normal 0.427559 -0.903988 0
    outer loop
      vertex -0.822769 1.98634 1.2
      vertex -1.0135 1.89613 0
      vertex -0.822769 1.98634 0
    endloop
  endfacet
  facet normal -0.903988 -0.427559 0
    outer loop
      vertex 1.98634 0.822769 0
      vertex 1.89613 1.0135 1.2
      vertex 1.89613 1.0135 0
    endloop
  endfacet
  facet normal -0.903988 -0.427559 0
    outer loop
      vertex 1.89613 1.0135 1.2
      vertex 1.98634 0.822769 0
      vertex 1.98634 0.822769 1.2
    endloop
  endfacet
  facet normal 0.671561 -0.740949 0
    outer loop
      vertex -1.52028 1.52028 0
      vertex -1.36395 1.66197 1.2
      vertex -1.52028 1.52028 1.2
    endloop
  endfacet
  facet normal 0.671561 -0.740949 0
    outer loop
      vertex -1.36395 1.66197 1.2
      vertex -1.52028 1.52028 0
      vertex -1.36395 1.66197 0
    endloop
  endfacet
  facet normal -0.336886 -0.941546 0
    outer loop
      vertex 0.624111 2.05742 0
      vertex 0.822769 1.98634 1.2
      vertex 0.624111 2.05742 1.2
    endloop
  endfacet
  facet normal -0.336886 -0.941546 -0
    outer loop
      vertex 0.822769 1.98634 1.2
      vertex 0.624111 2.05742 0
      vertex 0.822769 1.98634 0
    endloop
  endfacet
  facet normal 0.336886 -0.941546 0
    outer loop
      vertex -0.822769 1.98634 0
      vertex -0.624111 2.05742 1.2
      vertex -0.822769 1.98634 1.2
    endloop
  endfacet
  facet normal 0.336886 -0.941546 0
    outer loop
      vertex -0.624111 2.05742 1.2
      vertex -0.822769 1.98634 0
      vertex -0.624111 2.05742 0
    endloop
  endfacet
  facet normal 0.85774 0.514084 0
    outer loop
      vertex -1.78766 -1.19448 1.2
      vertex -1.89613 -1.0135 0
      vertex -1.89613 -1.0135 1.2
    endloop
  endfacet
  facet normal 0.85774 0.514084 0
    outer loop
      vertex -1.89613 -1.0135 0
      vertex -1.78766 -1.19448 1.2
      vertex -1.78766 -1.19448 0
    endloop
  endfacet
  facet normal 0.514084 0.85774 -0
    outer loop
      vertex -1.0135 -1.89613 0
      vertex -1.19448 -1.78766 1.2
      vertex -1.0135 -1.89613 1.2
    endloop
  endfacet
  facet normal 0.514084 0.85774 0
    outer loop
      vertex -1.19448 -1.78766 1.2
      vertex -1.0135 -1.89613 0
      vertex -1.19448 -1.78766 0
    endloop
  endfacet
  facet normal -0.242996 -0.970027 0
    outer loop
      vertex 0.419444 2.10869 0
      vertex 0.624111 2.05742 1.2
      vertex 0.419444 2.10869 1.2
    endloop
  endfacet
  facet normal -0.242996 -0.970027 -0
    outer loop
      vertex 0.624111 2.05742 1.2
      vertex 0.419444 2.10869 0
      vertex 0.624111 2.05742 0
    endloop
  endfacet
  facet normal 0.427559 0.903988 -0
    outer loop
      vertex -0.822769 -1.98634 0
      vertex -1.0135 -1.89613 1.2
      vertex -0.822769 -1.98634 1.2
    endloop
  endfacet
  facet normal 0.427559 0.903988 0
    outer loop
      vertex -1.0135 -1.89613 1.2
      vertex -0.822769 -1.98634 0
      vertex -1.0135 -1.89613 0
    endloop
  endfacet
  facet normal 0.803202 0.595707 0
    outer loop
      vertex -1.66197 -1.36395 1.2
      vertex -1.78766 -1.19448 0
      vertex -1.78766 -1.19448 1.2
    endloop
  endfacet
  facet normal 0.803202 0.595707 0
    outer loop
      vertex -1.78766 -1.19448 0
      vertex -1.66197 -1.36395 1.2
      vertex -1.66197 -1.36395 0
    endloop
  endfacet
  facet normal 0.242996 0.970027 -0
    outer loop
      vertex -0.419444 -2.10869 0
      vertex -0.624111 -2.05742 1.2
      vertex -0.419444 -2.10869 1.2
    endloop
  endfacet
  facet normal 0.242996 0.970027 0
    outer loop
      vertex -0.624111 -2.05742 1.2
      vertex -0.419444 -2.10869 0
      vertex -0.624111 -2.05742 0
    endloop
  endfacet
  facet normal 0.989176 0.146736 0
    outer loop
      vertex -2.10869 -0.419444 1.2
      vertex -2.13965 -0.210736 0
      vertex -2.13965 -0.210736 1.2
    endloop
  endfacet
  facet normal 0.989176 0.146736 0
    outer loop
      vertex -2.13965 -0.210736 0
      vertex -2.10869 -0.419444 1.2
      vertex -2.10869 -0.419444 0
    endloop
  endfacet
  facet normal 0.595707 0.803202 -0
    outer loop
      vertex -1.19448 -1.78766 0
      vertex -1.36395 -1.66197 1.2
      vertex -1.19448 -1.78766 1.2
    endloop
  endfacet
  facet normal 0.595707 0.803202 0
    outer loop
      vertex -1.36395 -1.66197 1.2
      vertex -1.19448 -1.78766 0
      vertex -1.36395 -1.66197 0
    endloop
  endfacet
  facet normal 0.903988 0.427559 0
    outer loop
      vertex -1.89613 -1.0135 1.2
      vertex -1.98634 -0.822769 0
      vertex -1.98634 -0.822769 1.2
    endloop
  endfacet
  facet normal 0.903988 0.427559 0
    outer loop
      vertex -1.98634 -0.822769 0
      vertex -1.89613 -1.0135 1.2
      vertex -1.89613 -1.0135 0
    endloop
  endfacet
  facet normal 0.941546 -0.336886 0
    outer loop
      vertex -2.05742 0.624111 1.2
      vertex -1.98634 0.822769 0
      vertex -1.98634 0.822769 1.2
    endloop
  endfacet
  facet normal 0.941546 -0.336886 0
    outer loop
      vertex -1.98634 0.822769 0
      vertex -2.05742 0.624111 1.2
      vertex -2.05742 0.624111 0
    endloop
  endfacet
  facet normal 0.803202 -0.595707 0
    outer loop
      vertex -1.78766 1.19448 1.2
      vertex -1.66197 1.36395 0
      vertex -1.66197 1.36395 1.2
    endloop
  endfacet
  facet normal 0.803202 -0.595707 0
    outer loop
      vertex -1.66197 1.36395 0
      vertex -1.78766 1.19448 1.2
      vertex -1.78766 1.19448 0
    endloop
  endfacet
  facet normal 0.998796 -0.0490545 0
    outer loop
      vertex -2.15 0 1.2
      vertex -2.13965 0.210736 0
      vertex -2.13965 0.210736 1.2
    endloop
  endfacet
  facet normal 0.998796 -0.0490545 0
    outer loop
      vertex -2.13965 0.210736 0
      vertex -2.15 0 1.2
      vertex -2.15 0 0
    endloop
  endfacet
  facet normal 0.336886 0.941546 -0
    outer loop
      vertex -0.624111 -2.05742 0
      vertex -0.822769 -1.98634 1.2
      vertex -0.624111 -2.05742 1.2
    endloop
  endfacet
  facet normal 0.336886 0.941546 0
    outer loop
      vertex -0.822769 -1.98634 1.2
      vertex -0.624111 -2.05742 0
      vertex -0.822769 -1.98634 0
    endloop
  endfacet
  facet normal -0.740949 0.671561 0
    outer loop
      vertex 1.52028 -1.52028 0
      vertex 1.66197 -1.36395 1.2
      vertex 1.66197 -1.36395 0
    endloop
  endfacet
  facet normal -0.740949 0.671561 0
    outer loop
      vertex 1.66197 -1.36395 1.2
      vertex 1.52028 -1.52028 0
      vertex 1.52028 -1.52028 1.2
    endloop
  endfacet
  facet normal -0.671561 0.740949 0
    outer loop
      vertex 1.52028 -1.52028 0
      vertex 1.36395 -1.66197 1.2
      vertex 1.52028 -1.52028 1.2
    endloop
  endfacet
  facet normal -0.671561 0.740949 0
    outer loop
      vertex 1.36395 -1.66197 1.2
      vertex 1.52028 -1.52028 0
      vertex 1.36395 -1.66197 0
    endloop
  endfacet
endsolid OpenSCAD_Model
