solid OpenSCAD_Model
  facet normal 0 0 -1
    outer loop
      vertex 7.8125 -16.6875 0
      vertex 6.31775 -16.6141 0
      vertex 7.8125 -1.4375 0
    endloop
  endfacet
  facet normal 0 0 -1
    outer loop
      vertex 7.8125 -1.4375 0
      vertex 10.9375 1.4375 0
      vertex 10.9375 -1.4375 0
    endloop
  endfacet
  facet normal 0 0 -1
    outer loop
      vertex 4.83739 -16.3945 0
      vertex 7.8125 -1.4375 0
      vertex 6.31775 -16.6141 0
    endloop
  endfacet
  facet normal 0 0 -1
    outer loop
      vertex 3.38567 -16.0308 0
      vertex 7.8125 -1.4375 0
      vertex 4.83739 -16.3945 0
    endloop
  endfacet
  facet normal 0 0 -1
    outer loop
      vertex 1.97658 -15.5267 0
      vertex 7.8125 -1.4375 0
      vertex 3.38567 -16.0308 0
    endloop
  endfacet
  facet normal 0 0 -1
    outer loop
      vertex 0.623703 -14.8868 0
      vertex 7.8125 -1.4375 0
      vertex 1.97658 -15.5267 0
    endloop
  endfacet
  facet normal 0 0 -1
    outer loop
      vertex -0.659943 -14.1174 0
      vertex 7.8125 -1.4375 0
      vertex 0.623703 -14.8868 0
    endloop
  endfacet
  facet normal 0 0 -1
    outer loop
      vertex -1.86198 -13.2259 0
      vertex 7.8125 -1.4375 0
      vertex -0.659943 -14.1174 0
    endloop
  endfacet
  facet normal 0 0 -1
    outer loop
      vertex -2.97087 -12.2209 0
      vertex 7.8125 -1.4375 0
      vertex -1.86198 -13.2259 0
    endloop
  endfacet
  facet normal 0 0 -1
    outer loop
      vertex -3.97591 -11.112 0
      vertex 7.8125 -1.4375 0
      vertex -2.97087 -12.2209 0
    endloop
  endfacet
  facet normal 0 0 -1
    outer loop
      vertex -4.8674 -9.90994 0
      vertex 7.8125 -1.4375 0
      vertex -3.97591 -11.112 0
    endloop
  endfacet
  facet normal 0 0 -1
    outer loop
      vertex -5.6368 -8.6263 0
      vertex 7.8125 -1.4375 0
      vertex -4.8674 -9.90994 0
    endloop
  endfacet
  facet normal 0 0 -1
    outer loop
      vertex -6.27666 -7.27342 0
      vertex 7.8125 -1.4375 0
      vertex -5.6368 -8.6263 0
    endloop
  endfacet
  facet normal 0 0 -1
    outer loop
      vertex -6.78084 -5.86433 0
      vertex 7.8125 -1.4375 0
      vertex -6.27666 -7.27342 0
    endloop
  endfacet
  facet normal 0 0 -1
    outer loop
      vertex -7.14447 -4.41261 0
      vertex 7.8125 -1.4375 0
      vertex -6.78084 -5.86433 0
    endloop
  endfacet
  facet normal 0 0 -1
    outer loop
      vertex -7.36406 -2.93225 0
      vertex 7.8125 -1.4375 0
      vertex -7.14447 -4.41261 0
    endloop
  endfacet
  facet normal 0 0 -1
    outer loop
      vertex -7.4375 -1.4375 0
      vertex 7.8125 -1.4375 0
      vertex -7.36406 -2.93225 0
    endloop
  endfacet
  facet normal 0 0 -1
    outer loop
      vertex 7.8125 -1.4375 0
      vertex -7.4375 -1.4375 0
      vertex 10.9375 1.4375 0
    endloop
  endfacet
  facet normal 0 0 -1
    outer loop
      vertex -10.9375 1.4375 0
      vertex -7.4375 -1.4375 0
      vertex -10.9375 -1.4375 0
    endloop
  endfacet
  facet normal 0 0 -1
    outer loop
      vertex -7.4375 -1.4375 0
      vertex -10.9375 1.4375 0
      vertex 10.9375 1.4375 0
    endloop
  endfacet
  facet normal 1 0 0
    outer loop
      vertex -7.8125 1.4375 7
      vertex -7.8125 -0.437499 1.5
      vertex -7.8125 1.4375 1.5
    endloop
  endfacet
  facet normal 1 -0 0
    outer loop
      vertex -7.8125 -1.4375 7
      vertex -7.8125 -0.437499 1.5
      vertex -7.8125 1.4375 7
    endloop
  endfacet
  facet normal 1 0 0
    outer loop
      vertex -7.8125 -0.437499 1.5
      vertex -7.8125 -1.4375 7
      vertex -7.8125 -1.4375 1.5
    endloop
  endfacet
  facet normal 0 -1 0
    outer loop
      vertex 7.8125 -1.4375 1.5
      vertex 10.9375 -1.4375 7
      vertex 7.8125 -1.4375 7
    endloop
  endfacet
  facet normal 0 -1 0
    outer loop
      vertex 10.9375 -1.4375 0
      vertex 7.8125 -1.4375 1.5
      vertex 7.8125 -1.4375 0
    endloop
  endfacet
  facet normal 0 -1 0
    outer loop
      vertex 7.8125 -1.4375 1.5
      vertex 10.9375 -1.4375 0
      vertex 10.9375 -1.4375 7
    endloop
  endfacet
  facet normal 0 -1 0
    outer loop
      vertex -10.9375 -1.4375 7
      vertex -7.8125 -1.4375 1.5
      vertex -7.8125 -1.4375 7
    endloop
  endfacet
  facet normal 0 -1 0
    outer loop
      vertex -10.9375 -1.4375 0
      vertex -7.8125 -1.4375 1.5
      vertex -10.9375 -1.4375 7
    endloop
  endfacet
  facet normal 0 -1 0
    outer loop
      vertex -7.4375 -1.4375 0
      vertex -7.8125 -1.4375 1.5
      vertex -10.9375 -1.4375 0
    endloop
  endfacet
  facet normal 0 -1 0
    outer loop
      vertex -7.8125 -1.4375 1.5
      vertex -7.4375 -1.4375 0
      vertex -7.4375 -1.4375 1.5
    endloop
  endfacet
  facet normal -0 0 1
    outer loop
      vertex -10.9375 1.4375 7
      vertex -7.8125 -1.4375 7
      vertex -7.8125 1.4375 7
    endloop
  endfacet
  facet normal 0 0 1
    outer loop
      vertex -7.8125 -1.4375 7
      vertex -10.9375 1.4375 7
      vertex -10.9375 -1.4375 7
    endloop
  endfacet
  facet normal -1 0 0
    outer loop
      vertex -10.9375 -1.4375 0
      vertex -10.9375 1.4375 7
      vertex -10.9375 1.4375 0
    endloop
  endfacet
  facet normal -1 -0 0
    outer loop
      vertex -10.9375 1.4375 7
      vertex -10.9375 -1.4375 0
      vertex -10.9375 -1.4375 7
    endloop
  endfacet
  facet normal 0 1 0
    outer loop
      vertex 10.9375 1.4375 7
      vertex 7.8125 1.4375 1.5
      vertex 7.8125 1.4375 7
    endloop
  endfacet
  facet normal 0 1 0
    outer loop
      vertex 7.8125 1.4375 1.5
      vertex 10.9375 1.4375 0
      vertex -7.8125 1.4375 1.5
    endloop
  endfacet
  facet normal 0 1 -0
    outer loop
      vertex 10.9375 1.4375 0
      vertex 7.8125 1.4375 1.5
      vertex 10.9375 1.4375 7
    endloop
  endfacet
  facet normal 0 1 -0
    outer loop
      vertex -7.8125 1.4375 1.5
      vertex -10.9375 1.4375 7
      vertex -7.8125 1.4375 7
    endloop
  endfacet
  facet normal 0 1 0
    outer loop
      vertex -7.8125 1.4375 1.5
      vertex -10.9375 1.4375 0
      vertex -10.9375 1.4375 7
    endloop
  endfacet
  facet normal 0 1 0
    outer loop
      vertex -10.9375 1.4375 0
      vertex -7.8125 1.4375 1.5
      vertex 10.9375 1.4375 0
    endloop
  endfacet
  facet normal 1 -0 0
    outer loop
      vertex 10.9375 -1.4375 7
      vertex 10.9375 1.4375 0
      vertex 10.9375 1.4375 7
    endloop
  endfacet
  facet normal 1 0 0
    outer loop
      vertex 10.9375 1.4375 0
      vertex 10.9375 -1.4375 7
      vertex 10.9375 -1.4375 0
    endloop
  endfacet
  facet normal -0 0 1
    outer loop
      vertex 7.8125 1.4375 7
      vertex 10.9375 -1.4375 7
      vertex 10.9375 1.4375 7
    endloop
  endfacet
  facet normal 0 0 1
    outer loop
      vertex 10.9375 -1.4375 7
      vertex 7.8125 1.4375 7
      vertex 7.8125 -1.4375 7
    endloop
  endfacet
  facet normal -1 0 0
    outer loop
      vertex 7.8125 -0.437499 1.5
      vertex 7.8125 1.4375 7
      vertex 7.8125 1.4375 1.5
    endloop
  endfacet
  facet normal -1 0 0
    outer loop
      vertex 7.8125 -1.4375 7
      vertex 7.8125 -0.437499 1.5
      vertex 7.8125 -1.4375 1.5
    endloop
  endfacet
  facet normal -1 0 0
    outer loop
      vertex 7.8125 -0.437499 1.5
      vertex 7.8125 -1.4375 7
      vertex 7.8125 1.4375 7
    endloop
  endfacet
  facet normal -0 0 1
    outer loop
      vertex 7.81154 -0.457103 1.5
      vertex 7.8125 -1.4375 1.5
      vertex 7.8125 -0.437499 1.5
    endloop
  endfacet
  facet normal -0 0 1
    outer loop
      vertex 7.80866 -0.476518 1.5
      vertex 7.8125 -1.4375 1.5
      vertex 7.81154 -0.457103 1.5
    endloop
  endfacet
  facet normal -0 0 1
    outer loop
      vertex 7.80389 -0.495557 1.5
      vertex 7.8125 -1.4375 1.5
      vertex 7.80866 -0.476518 1.5
    endloop
  endfacet
  facet normal -0 0 1
    outer loop
      vertex 7.79728 -0.514036 1.5
      vertex 7.8125 -1.4375 1.5
      vertex 7.80389 -0.495557 1.5
    endloop
  endfacet
  facet normal -0 0 1
    outer loop
      vertex 7.78888 -0.531779 1.5
      vertex 7.8125 -1.4375 1.5
      vertex 7.79728 -0.514036 1.5
    endloop
  endfacet
  facet normal -0 0 1
    outer loop
      vertex 7.77879 -0.548614 1.5
      vertex 7.8125 -1.4375 1.5
      vertex 7.78888 -0.531779 1.5
    endloop
  endfacet
  facet normal -0 0 1
    outer loop
      vertex 7.7671 -0.564378 1.5
      vertex 7.8125 -1.4375 1.5
      vertex 7.77879 -0.548614 1.5
    endloop
  endfacet
  facet normal -0 0 1
    outer loop
      vertex 7.75392 -0.578921 1.5
      vertex 7.8125 -1.4375 1.5
      vertex 7.7671 -0.564378 1.5
    endloop
  endfacet
  facet normal -0 0 1
    outer loop
      vertex 7.73938 -0.592102 1.5
      vertex 7.8125 -1.4375 1.5
      vertex 7.75392 -0.578921 1.5
    endloop
  endfacet
  facet normal -0 0 1
    outer loop
      vertex 7.72361 -0.603793 1.5
      vertex 7.8125 -1.4375 1.5
      vertex 7.73938 -0.592102 1.5
    endloop
  endfacet
  facet normal -0 0 1
    outer loop
      vertex 7.70678 -0.613884 1.5
      vertex 7.8125 -1.4375 1.5
      vertex 7.72361 -0.603793 1.5
    endloop
  endfacet
  facet normal -0 0 1
    outer loop
      vertex 7.68904 -0.622275 1.5
      vertex 7.8125 -1.4375 1.5
      vertex 7.70678 -0.613884 1.5
    endloop
  endfacet
  facet normal -0 0 1
    outer loop
      vertex 7.67056 -0.628887 1.5
      vertex 7.8125 -1.4375 1.5
      vertex 7.68904 -0.622275 1.5
    endloop
  endfacet
  facet normal -0 0 1
    outer loop
      vertex 7.65152 -0.633657 1.5
      vertex 7.8125 -1.4375 1.5
      vertex 7.67056 -0.628887 1.5
    endloop
  endfacet
  facet normal -0 0 1
    outer loop
      vertex 7.6321 -0.636537 1.5
      vertex 7.8125 -1.4375 1.5
      vertex 7.65152 -0.633657 1.5
    endloop
  endfacet
  facet normal -0 0 1
    outer loop
      vertex 7.6125 -0.6375 1.5
      vertex 7.8125 -1.4375 1.5
      vertex 7.6321 -0.636537 1.5
    endloop
  endfacet
  facet normal 0 0 1
    outer loop
      vertex -7.14447 -4.41261 1.5
      vertex 7.8125 -1.4375 1.5
      vertex 7.6125 -0.6375 1.5
    endloop
  endfacet
  facet normal 0 0 1
    outer loop
      vertex 7.8125 -1.4375 1.5
      vertex 6.31775 -16.6141 1.5
      vertex 7.8125 -16.6875 1.5
    endloop
  endfacet
  facet normal 0 0 1
    outer loop
      vertex 7.8125 -1.4375 1.5
      vertex 4.83739 -16.3945 1.5
      vertex 6.31775 -16.6141 1.5
    endloop
  endfacet
  facet normal 0 0 1
    outer loop
      vertex 7.8125 -1.4375 1.5
      vertex 3.38567 -16.0308 1.5
      vertex 4.83739 -16.3945 1.5
    endloop
  endfacet
  facet normal 0 0 1
    outer loop
      vertex 7.8125 -1.4375 1.5
      vertex 1.97658 -15.5267 1.5
      vertex 3.38567 -16.0308 1.5
    endloop
  endfacet
  facet normal 0 0 1
    outer loop
      vertex 7.8125 -1.4375 1.5
      vertex 0.623703 -14.8868 1.5
      vertex 1.97658 -15.5267 1.5
    endloop
  endfacet
  facet normal 0 0 1
    outer loop
      vertex 7.8125 -1.4375 1.5
      vertex -0.659943 -14.1174 1.5
      vertex 0.623703 -14.8868 1.5
    endloop
  endfacet
  facet normal 0 0 1
    outer loop
      vertex 7.8125 -1.4375 1.5
      vertex -1.86198 -13.2259 1.5
      vertex -0.659943 -14.1174 1.5
    endloop
  endfacet
  facet normal 0 0 1
    outer loop
      vertex 7.8125 -1.4375 1.5
      vertex -2.97087 -12.2209 1.5
      vertex -1.86198 -13.2259 1.5
    endloop
  endfacet
  facet normal 0 0 1
    outer loop
      vertex 7.8125 -1.4375 1.5
      vertex -3.97591 -11.112 1.5
      vertex -2.97087 -12.2209 1.5
    endloop
  endfacet
  facet normal 0 0 1
    outer loop
      vertex 7.8125 -1.4375 1.5
      vertex -4.8674 -9.90994 1.5
      vertex -3.97591 -11.112 1.5
    endloop
  endfacet
  facet normal 0 0 1
    outer loop
      vertex 7.8125 -1.4375 1.5
      vertex -5.6368 -8.6263 1.5
      vertex -4.8674 -9.90994 1.5
    endloop
  endfacet
  facet normal 0 0 1
    outer loop
      vertex 7.8125 -1.4375 1.5
      vertex -6.27666 -7.27342 1.5
      vertex -5.6368 -8.6263 1.5
    endloop
  endfacet
  facet normal 0 0 1
    outer loop
      vertex 7.8125 -1.4375 1.5
      vertex -6.78084 -5.86433 1.5
      vertex -6.27666 -7.27342 1.5
    endloop
  endfacet
  facet normal 0 0 1
    outer loop
      vertex 7.8125 -1.4375 1.5
      vertex -7.14447 -4.41261 1.5
      vertex -6.78084 -5.86433 1.5
    endloop
  endfacet
  facet normal 0 0 1
    outer loop
      vertex 7.6125 -0.6375 1.5
      vertex -7.36406 -2.93225 1.5
      vertex -7.14447 -4.41261 1.5
    endloop
  endfacet
  facet normal 0 0 1
    outer loop
      vertex 7.6125 -0.6375 1.5
      vertex -7.4375 -1.4375 1.5
      vertex -7.36406 -2.93225 1.5
    endloop
  endfacet
  facet normal -0 0 1
    outer loop
      vertex -7.6125 -0.6375 1.5
      vertex -7.4375 -1.4375 1.5
      vertex 7.6125 -0.6375 1.5
    endloop
  endfacet
  facet normal 0 0 1
    outer loop
      vertex -7.8125 -1.4375 1.5
      vertex -7.6125 -0.6375 1.5
      vertex -7.6321 -0.636537 1.5
    endloop
  endfacet
  facet normal 0 0 1
    outer loop
      vertex -7.8125 -1.4375 1.5
      vertex -7.6321 -0.636537 1.5
      vertex -7.65152 -0.633657 1.5
    endloop
  endfacet
  facet normal 0 0 1
    outer loop
      vertex -7.8125 -1.4375 1.5
      vertex -7.65152 -0.633657 1.5
      vertex -7.67056 -0.628887 1.5
    endloop
  endfacet
  facet normal 0 0 1
    outer loop
      vertex -7.8125 -1.4375 1.5
      vertex -7.67056 -0.628887 1.5
      vertex -7.68904 -0.622275 1.5
    endloop
  endfacet
  facet normal 0 0 1
    outer loop
      vertex -7.8125 -1.4375 1.5
      vertex -7.68904 -0.622275 1.5
      vertex -7.70678 -0.613884 1.5
    endloop
  endfacet
  facet normal 0 0 1
    outer loop
      vertex -7.8125 -1.4375 1.5
      vertex -7.70678 -0.613884 1.5
      vertex -7.72361 -0.603793 1.5
    endloop
  endfacet
  facet normal 0 0 1
    outer loop
      vertex -7.8125 -1.4375 1.5
      vertex -7.72361 -0.603793 1.5
      vertex -7.73938 -0.592102 1.5
    endloop
  endfacet
  facet normal 0 0 1
    outer loop
      vertex -7.8125 -1.4375 1.5
      vertex -7.73938 -0.592102 1.5
      vertex -7.75392 -0.578921 1.5
    endloop
  endfacet
  facet normal 0 0 1
    outer loop
      vertex -7.8125 -1.4375 1.5
      vertex -7.75392 -0.578921 1.5
      vertex -7.7671 -0.564378 1.5
    endloop
  endfacet
  facet normal 0 0 1
    outer loop
      vertex -7.8125 -1.4375 1.5
      vertex -7.7671 -0.564378 1.5
      vertex -7.77879 -0.548614 1.5
    endloop
  endfacet
  facet normal 0 0 1
    outer loop
      vertex -7.8125 -1.4375 1.5
      vertex -7.77879 -0.548614 1.5
      vertex -7.78888 -0.531779 1.5
    endloop
  endfacet
  facet normal 0 0 1
    outer loop
      vertex -7.8125 -1.4375 1.5
      vertex -7.78888 -0.531779 1.5
      vertex -7.79728 -0.514036 1.5
    endloop
  endfacet
  facet normal 0 0 1
    outer loop
      vertex -7.6125 -0.6375 1.5
      vertex -7.8125 -1.4375 1.5
      vertex -7.4375 -1.4375 1.5
    endloop
  endfacet
  facet normal 0 0 1
    outer loop
      vertex -7.80389 -0.495557 1.5
      vertex -7.8125 -1.4375 1.5
      vertex -7.79728 -0.514036 1.5
    endloop
  endfacet
  facet normal 0 0 1
    outer loop
      vertex -7.80866 -0.476518 1.5
      vertex -7.8125 -1.4375 1.5
      vertex -7.80389 -0.495557 1.5
    endloop
  endfacet
  facet normal 0 0 1
    outer loop
      vertex -7.81154 -0.457103 1.5
      vertex -7.8125 -1.4375 1.5
      vertex -7.80866 -0.476518 1.5
    endloop
  endfacet
  facet normal 0 0 1
    outer loop
      vertex -7.8125 -1.4375 1.5
      vertex -7.81154 -0.457103 1.5
      vertex -7.8125 -0.437499 1.5
    endloop
  endfacet
  facet normal 0 0 1
    outer loop
      vertex 7.8125 1.4375 1.5
      vertex 7.81154 -0.417896 1.5
      vertex 7.8125 -0.437499 1.5
    endloop
  endfacet
  facet normal 0 0 1
    outer loop
      vertex 7.8125 1.4375 1.5
      vertex 7.80866 -0.398481 1.5
      vertex 7.81154 -0.417896 1.5
    endloop
  endfacet
  facet normal 0 0 1
    outer loop
      vertex 7.8125 1.4375 1.5
      vertex 7.80389 -0.379442 1.5
      vertex 7.80866 -0.398481 1.5
    endloop
  endfacet
  facet normal 0 0 1
    outer loop
      vertex 7.8125 1.4375 1.5
      vertex 7.79728 -0.360963 1.5
      vertex 7.80389 -0.379442 1.5
    endloop
  endfacet
  facet normal 0 0 1
    outer loop
      vertex 7.8125 1.4375 1.5
      vertex 7.78888 -0.34322 1.5
      vertex 7.79728 -0.360963 1.5
    endloop
  endfacet
  facet normal 0 0 1
    outer loop
      vertex 7.8125 1.4375 1.5
      vertex 7.77879 -0.326385 1.5
      vertex 7.78888 -0.34322 1.5
    endloop
  endfacet
  facet normal 0 0 1
    outer loop
      vertex 7.8125 1.4375 1.5
      vertex 7.7671 -0.310621 1.5
      vertex 7.77879 -0.326385 1.5
    endloop
  endfacet
  facet normal 0 0 1
    outer loop
      vertex 7.8125 1.4375 1.5
      vertex 7.75392 -0.296078 1.5
      vertex 7.7671 -0.310621 1.5
    endloop
  endfacet
  facet normal 0 0 1
    outer loop
      vertex 7.8125 1.4375 1.5
      vertex 7.73938 -0.282897 1.5
      vertex 7.75392 -0.296078 1.5
    endloop
  endfacet
  facet normal 0 0 1
    outer loop
      vertex 7.8125 1.4375 1.5
      vertex 7.72361 -0.271206 1.5
      vertex 7.73938 -0.282897 1.5
    endloop
  endfacet
  facet normal 0 0 1
    outer loop
      vertex 7.8125 1.4375 1.5
      vertex 7.70678 -0.261115 1.5
      vertex 7.72361 -0.271206 1.5
    endloop
  endfacet
  facet normal 0 0 1
    outer loop
      vertex 7.8125 1.4375 1.5
      vertex 7.68904 -0.252724 1.5
      vertex 7.70678 -0.261115 1.5
    endloop
  endfacet
  facet normal 0 0 1
    outer loop
      vertex 7.8125 1.4375 1.5
      vertex 7.67056 -0.246112 1.5
      vertex 7.68904 -0.252724 1.5
    endloop
  endfacet
  facet normal 0 0 1
    outer loop
      vertex 7.8125 1.4375 1.5
      vertex 7.65152 -0.241343 1.5
      vertex 7.67056 -0.246112 1.5
    endloop
  endfacet
  facet normal 0 0 1
    outer loop
      vertex 7.8125 1.4375 1.5
      vertex 7.6321 -0.238462 1.5
      vertex 7.65152 -0.241343 1.5
    endloop
  endfacet
  facet normal 0 0 1
    outer loop
      vertex 7.8125 1.4375 1.5
      vertex 7.6125 -0.237499 1.5
      vertex 7.6321 -0.238462 1.5
    endloop
  endfacet
  facet normal 0 0 1
    outer loop
      vertex 7.8125 1.4375 1.5
      vertex -7.6125 -0.237499 1.5
      vertex 7.6125 -0.237499 1.5
    endloop
  endfacet
  facet normal -0 0 1
    outer loop
      vertex -7.8125 1.4375 1.5
      vertex -7.6125 -0.237499 1.5
      vertex 7.8125 1.4375 1.5
    endloop
  endfacet
  facet normal 0 0 1
    outer loop
      vertex -7.6125 -0.237499 1.5
      vertex -7.8125 1.4375 1.5
      vertex -7.6321 -0.238462 1.5
    endloop
  endfacet
  facet normal 0 0 1
    outer loop
      vertex -7.8125 1.4375 1.5
      vertex -7.65152 -0.241343 1.5
      vertex -7.6321 -0.238462 1.5
    endloop
  endfacet
  facet normal 0 0 1
    outer loop
      vertex -7.8125 1.4375 1.5
      vertex -7.67056 -0.246112 1.5
      vertex -7.65152 -0.241343 1.5
    endloop
  endfacet
  facet normal 0 0 1
    outer loop
      vertex -7.8125 1.4375 1.5
      vertex -7.68904 -0.252724 1.5
      vertex -7.67056 -0.246112 1.5
    endloop
  endfacet
  facet normal 0 0 1
    outer loop
      vertex -7.8125 1.4375 1.5
      vertex -7.70678 -0.261115 1.5
      vertex -7.68904 -0.252724 1.5
    endloop
  endfacet
  facet normal 0 0 1
    outer loop
      vertex -7.8125 1.4375 1.5
      vertex -7.72361 -0.271206 1.5
      vertex -7.70678 -0.261115 1.5
    endloop
  endfacet
  facet normal 0 0 1
    outer loop
      vertex -7.8125 1.4375 1.5
      vertex -7.73938 -0.282897 1.5
      vertex -7.72361 -0.271206 1.5
    endloop
  endfacet
  facet normal 0 0 1
    outer loop
      vertex -7.8125 1.4375 1.5
      vertex -7.75392 -0.296078 1.5
      vertex -7.73938 -0.282897 1.5
    endloop
  endfacet
  facet normal 0 0 1
    outer loop
      vertex -7.8125 1.4375 1.5
      vertex -7.7671 -0.310621 1.5
      vertex -7.75392 -0.296078 1.5
    endloop
  endfacet
  facet normal 0 0 1
    outer loop
      vertex -7.8125 1.4375 1.5
      vertex -7.77879 -0.326385 1.5
      vertex -7.7671 -0.310621 1.5
    endloop
  endfacet
  facet normal 0 0 1
    outer loop
      vertex -7.8125 1.4375 1.5
      vertex -7.78888 -0.34322 1.5
      vertex -7.77879 -0.326385 1.5
    endloop
  endfacet
  facet normal 0 0 1
    outer loop
      vertex -7.8125 1.4375 1.5
      vertex -7.79728 -0.360963 1.5
      vertex -7.78888 -0.34322 1.5
    endloop
  endfacet
  facet normal 0 0 1
    outer loop
      vertex -7.8125 1.4375 1.5
      vertex -7.80389 -0.379442 1.5
      vertex -7.79728 -0.360963 1.5
    endloop
  endfacet
  facet normal 0 0 1
    outer loop
      vertex -7.8125 1.4375 1.5
      vertex -7.80866 -0.398481 1.5
      vertex -7.80389 -0.379442 1.5
    endloop
  endfacet
  facet normal 0 0 1
    outer loop
      vertex -7.8125 1.4375 1.5
      vertex -7.81154 -0.417896 1.5
      vertex -7.80866 -0.398481 1.5
    endloop
  endfacet
  facet normal 0 0 1
    outer loop
      vertex -7.81154 -0.417896 1.5
      vertex -7.8125 1.4375 1.5
      vertex -7.8125 -0.437499 1.5
    endloop
  endfacet
  facet normal -0.998795 -0.0490728 0
    outer loop
      vertex -7.36406 -2.93225 0
      vertex -7.4375 -1.4375 1.5
      vertex -7.4375 -1.4375 0
    endloop
  endfacet
  facet normal -0.998795 -0.0490728 0
    outer loop
      vertex -7.4375 -1.4375 1.5
      vertex -7.36406 -2.93225 0
      vertex -7.36406 -2.93225 1.5
    endloop
  endfacet
  facet normal -0.857724 -0.514111 0
    outer loop
      vertex -4.8674 -9.90994 0
      vertex -5.6368 -8.6263 1.5
      vertex -5.6368 -8.6263 0
    endloop
  endfacet
  facet normal -0.857724 -0.514111 0
    outer loop
      vertex -5.6368 -8.6263 1.5
      vertex -4.8674 -9.90994 0
      vertex -4.8674 -9.90994 1.5
    endloop
  endfacet
  facet normal -0.24302 -0.970021 0
    outer loop
      vertex 3.38567 -16.0308 0
      vertex 4.83739 -16.3945 1.5
      vertex 3.38567 -16.0308 1.5
    endloop
  endfacet
  facet normal -0.24302 -0.970021 -0
    outer loop
      vertex 4.83739 -16.3945 1.5
      vertex 3.38567 -16.0308 0
      vertex 4.83739 -16.3945 0
    endloop
  endfacet
  facet normal -0.989177 -0.14673 0
    outer loop
      vertex -7.14447 -4.41261 0
      vertex -7.36406 -2.93225 1.5
      vertex -7.36406 -2.93225 0
    endloop
  endfacet
  facet normal -0.989177 -0.14673 0
    outer loop
      vertex -7.36406 -2.93225 1.5
      vertex -7.14447 -4.41261 0
      vertex -7.14447 -4.41261 1.5
    endloop
  endfacet
  facet normal 1 -0 0
    outer loop
      vertex 7.8125 -16.6875 1.5
      vertex 7.8125 -1.4375 0
      vertex 7.8125 -1.4375 1.5
    endloop
  endfacet
  facet normal 1 0 0
    outer loop
      vertex 7.8125 -1.4375 0
      vertex 7.8125 -16.6875 1.5
      vertex 7.8125 -16.6875 0
    endloop
  endfacet
  facet normal -0.427575 -0.90398 0
    outer loop
      vertex 0.623703 -14.8868 0
      vertex 1.97658 -15.5267 1.5
      vertex 0.623703 -14.8868 1.5
    endloop
  endfacet
  facet normal -0.427575 -0.90398 -0
    outer loop
      vertex 1.97658 -15.5267 1.5
      vertex 0.623703 -14.8868 0
      vertex 1.97658 -15.5267 0
    endloop
  endfacet
  facet normal -0.0490461 -0.998797 0
    outer loop
      vertex 6.31775 -16.6141 0
      vertex 7.8125 -16.6875 1.5
      vertex 6.31775 -16.6141 1.5
    endloop
  endfacet
  facet normal -0.0490461 -0.998797 -0
    outer loop
      vertex 7.8125 -16.6875 1.5
      vertex 6.31775 -16.6141 0
      vertex 7.8125 -16.6875 0
    endloop
  endfacet
  facet normal -0.941544 -0.33689 0
    outer loop
      vertex -6.27666 -7.27342 0
      vertex -6.78084 -5.86433 1.5
      vertex -6.78084 -5.86433 0
    endloop
  endfacet
  facet normal -0.941544 -0.33689 0
    outer loop
      vertex -6.78084 -5.86433 1.5
      vertex -6.27666 -7.27342 0
      vertex -6.27666 -7.27342 1.5
    endloop
  endfacet
  facet normal -0.90399 -0.427553 0
    outer loop
      vertex -5.6368 -8.6263 0
      vertex -6.27666 -7.27342 1.5
      vertex -6.27666 -7.27342 0
    endloop
  endfacet
  facet normal -0.90399 -0.427553 0
    outer loop
      vertex -6.27666 -7.27342 1.5
      vertex -5.6368 -8.6263 0
      vertex -5.6368 -8.6263 1.5
    endloop
  endfacet
  facet normal -0.671545 -0.740964 0
    outer loop
      vertex -2.97087 -12.2209 0
      vertex -1.86198 -13.2259 1.5
      vertex -2.97087 -12.2209 1.5
    endloop
  endfacet
  facet normal -0.671545 -0.740964 -0
    outer loop
      vertex -1.86198 -13.2259 1.5
      vertex -2.97087 -12.2209 0
      vertex -1.86198 -13.2259 0
    endloop
  endfacet
  facet normal -0.146737 -0.989176 0
    outer loop
      vertex 4.83739 -16.3945 0
      vertex 6.31775 -16.6141 1.5
      vertex 4.83739 -16.3945 1.5
    endloop
  endfacet
  facet normal -0.146737 -0.989176 -0
    outer loop
      vertex 6.31775 -16.6141 1.5
      vertex 4.83739 -16.3945 0
      vertex 6.31775 -16.6141 0
    endloop
  endfacet
  facet normal -0.336842 -0.941561 0
    outer loop
      vertex 1.97658 -15.5267 0
      vertex 3.38567 -16.0308 1.5
      vertex 1.97658 -15.5267 1.5
    endloop
  endfacet
  facet normal -0.336842 -0.941561 -0
    outer loop
      vertex 3.38567 -16.0308 1.5
      vertex 1.97658 -15.5267 0
      vertex 3.38567 -16.0308 0
    endloop
  endfacet
  facet normal -0.803213 -0.595691 0
    outer loop
      vertex -3.97591 -11.112 0
      vertex -4.8674 -9.90994 1.5
      vertex -4.8674 -9.90994 0
    endloop
  endfacet
  facet normal -0.803213 -0.595691 0
    outer loop
      vertex -4.8674 -9.90994 1.5
      vertex -3.97591 -11.112 0
      vertex -3.97591 -11.112 1.5
    endloop
  endfacet
  facet normal -0.740954 -0.671556 0
    outer loop
      vertex -2.97087 -12.2209 0
      vertex -3.97591 -11.112 1.5
      vertex -3.97591 -11.112 0
    endloop
  endfacet
  facet normal -0.740954 -0.671556 0
    outer loop
      vertex -3.97591 -11.112 1.5
      vertex -2.97087 -12.2209 0
      vertex -2.97087 -12.2209 1.5
    endloop
  endfacet
  facet normal -0.595703 -0.803205 0
    outer loop
      vertex -1.86198 -13.2259 0
      vertex -0.659943 -14.1174 1.5
      vertex -1.86198 -13.2259 1.5
    endloop
  endfacet
  facet normal -0.595703 -0.803205 -0
    outer loop
      vertex -0.659943 -14.1174 1.5
      vertex -1.86198 -13.2259 0
      vertex -0.659943 -14.1174 0
    endloop
  endfacet
  facet normal -0.514109 -0.857725 0
    outer loop
      vertex -0.659943 -14.1174 0
      vertex 0.623703 -14.8868 1.5
      vertex -0.659943 -14.1174 1.5
    endloop
  endfacet
  facet normal -0.514109 -0.857725 -0
    outer loop
      vertex 0.623703 -14.8868 1.5
      vertex -0.659943 -14.1174 0
      vertex 0.623703 -14.8868 0
    endloop
  endfacet
  facet normal -0.970032 -0.242976 0
    outer loop
      vertex -6.78084 -5.86433 0
      vertex -7.14447 -4.41261 1.5
      vertex -7.14447 -4.41261 0
    endloop
  endfacet
  facet normal -0.970032 -0.242976 0
    outer loop
      vertex -7.14447 -4.41261 1.5
      vertex -6.78084 -5.86433 0
      vertex -6.78084 -5.86433 1.5
    endloop
  endfacet
  facet normal 0.989176 0.146733 0
    outer loop
      vertex -7.80866 -0.476518 1.5
      vertex -7.81154 -0.457103 1.1
      vertex -7.81154 -0.457103 1.5
    endloop
  endfacet
  facet normal 0.989176 0.146733 0
    outer loop
      vertex -7.81154 -0.457103 1.1
      vertex -7.80866 -0.476518 1.5
      vertex -7.80866 -0.476518 1.1
    endloop
  endfacet
  facet normal 0.146696 0.989182 -0
    outer loop
      vertex -7.6321 -0.636537 1.1
      vertex -7.65152 -0.633657 1.5
      vertex -7.6321 -0.636537 1.5
    endloop
  endfacet
  facet normal 0.146696 0.989182 0
    outer loop
      vertex -7.65152 -0.633657 1.5
      vertex -7.6321 -0.636537 1.1
      vertex -7.65152 -0.633657 1.1
    endloop
  endfacet
  facet normal -0.998803 0.048911 0
    outer loop
      vertex 7.81154 -0.457103 1.1
      vertex 7.8125 -0.437499 1.5
      vertex 7.8125 -0.437499 1.1
    endloop
  endfacet
  facet normal -0.998803 0.048911 0
    outer loop
      vertex 7.8125 -0.437499 1.5
      vertex 7.81154 -0.457103 1.1
      vertex 7.81154 -0.457103 1.5
    endloop
  endfacet
  facet normal 0.998803 0.048911 0
    outer loop
      vertex -7.81154 -0.457103 1.5
      vertex -7.8125 -0.437499 1.1
      vertex -7.8125 -0.437499 1.5
    endloop
  endfacet
  facet normal 0.998803 0.048911 0
    outer loop
      vertex -7.8125 -0.437499 1.1
      vertex -7.81154 -0.457103 1.5
      vertex -7.81154 -0.457103 1.1
    endloop
  endfacet
  facet normal 0 -1 0
    outer loop
      vertex -7.6125 -0.237499 1.1
      vertex 7.6125 -0.237499 1.5
      vertex -7.6125 -0.237499 1.5
    endloop
  endfacet
  facet normal 0 -1 -0
    outer loop
      vertex 7.6125 -0.237499 1.5
      vertex -7.6125 -0.237499 1.1
      vertex 7.6125 -0.237499 1.1
    endloop
  endfacet
  facet normal 0.242967 -0.970035 0
    outer loop
      vertex -7.67056 -0.246112 1.1
      vertex -7.65152 -0.241343 1.5
      vertex -7.67056 -0.246112 1.5
    endloop
  endfacet
  facet normal 0.242967 -0.970035 0
    outer loop
      vertex -7.65152 -0.241343 1.5
      vertex -7.67056 -0.246112 1.1
      vertex -7.65152 -0.241343 1.1
    endloop
  endfacet
  facet normal -0.989176 0.146733 0
    outer loop
      vertex 7.80866 -0.476518 1.1
      vertex 7.81154 -0.457103 1.5
      vertex 7.81154 -0.457103 1.1
    endloop
  endfacet
  facet normal -0.989176 0.146733 0
    outer loop
      vertex 7.81154 -0.457103 1.5
      vertex 7.80866 -0.476518 1.1
      vertex 7.80866 -0.476518 1.5
    endloop
  endfacet
  facet normal 0.671635 -0.740882 0
    outer loop
      vertex -7.75392 -0.296078 1.1
      vertex -7.73938 -0.282897 1.5
      vertex -7.75392 -0.296078 1.5
    endloop
  endfacet
  facet normal 0.671635 -0.740882 0
    outer loop
      vertex -7.73938 -0.282897 1.5
      vertex -7.75392 -0.296078 1.1
      vertex -7.73938 -0.282897 1.1
    endloop
  endfacet
  facet normal -0.336879 -0.941548 0
    outer loop
      vertex 7.67056 -0.246112 1.1
      vertex 7.68904 -0.252724 1.5
      vertex 7.67056 -0.246112 1.5
    endloop
  endfacet
  facet normal -0.336879 -0.941548 -0
    outer loop
      vertex 7.68904 -0.252724 1.5
      vertex 7.67056 -0.246112 1.1
      vertex 7.68904 -0.252724 1.1
    endloop
  endfacet
  facet normal -0.0490735 0.998795 0
    outer loop
      vertex 7.6321 -0.636537 1.1
      vertex 7.6125 -0.6375 1.5
      vertex 7.6321 -0.636537 1.5
    endloop
  endfacet
  facet normal -0.0490735 0.998795 0
    outer loop
      vertex 7.6125 -0.6375 1.5
      vertex 7.6321 -0.636537 1.1
      vertex 7.6125 -0.6375 1.1
    endloop
  endfacet
  facet normal 0.514233 0.85765 -0
    outer loop
      vertex -7.70678 -0.613884 1.1
      vertex -7.72361 -0.603793 1.5
      vertex -7.70678 -0.613884 1.5
    endloop
  endfacet
  facet normal 0.514233 0.85765 0
    outer loop
      vertex -7.72361 -0.603793 1.5
      vertex -7.70678 -0.613884 1.1
      vertex -7.72361 -0.603793 1.1
    endloop
  endfacet
  facet normal -0.903828 -0.427896 0
    outer loop
      vertex 7.79728 -0.360963 1.1
      vertex 7.78888 -0.34322 1.5
      vertex 7.78888 -0.34322 1.1
    endloop
  endfacet
  facet normal -0.903828 -0.427896 0
    outer loop
      vertex 7.78888 -0.34322 1.5
      vertex 7.79728 -0.360963 1.1
      vertex 7.79728 -0.360963 1.5
    endloop
  endfacet
  facet normal 0.514233 -0.85765 0
    outer loop
      vertex -7.72361 -0.271206 1.1
      vertex -7.70678 -0.261115 1.5
      vertex -7.72361 -0.271206 1.5
    endloop
  endfacet
  facet normal 0.514233 -0.85765 0
    outer loop
      vertex -7.70678 -0.261115 1.5
      vertex -7.72361 -0.271206 1.1
      vertex -7.70678 -0.261115 1.1
    endloop
  endfacet
  facet normal -0.970019 -0.243027 0
    outer loop
      vertex 7.80866 -0.398481 1.1
      vertex 7.80389 -0.379442 1.5
      vertex 7.80389 -0.379442 1.1
    endloop
  endfacet
  facet normal -0.970019 -0.243027 0
    outer loop
      vertex 7.80389 -0.379442 1.5
      vertex 7.80866 -0.398481 1.1
      vertex 7.80866 -0.398481 1.5
    endloop
  endfacet
  facet normal 0 1 -0
    outer loop
      vertex 7.6125 -0.6375 1.1
      vertex -7.6125 -0.6375 1.5
      vertex 7.6125 -0.6375 1.5
    endloop
  endfacet
  facet normal 0 1 0
    outer loop
      vertex -7.6125 -0.6375 1.5
      vertex 7.6125 -0.6375 1.1
      vertex -7.6125 -0.6375 1.1
    endloop
  endfacet
  facet normal 0.803241 -0.595654 0
    outer loop
      vertex -7.77879 -0.326385 1.5
      vertex -7.7671 -0.310621 1.1
      vertex -7.7671 -0.310621 1.5
    endloop
  endfacet
  facet normal 0.803241 -0.595654 0
    outer loop
      vertex -7.7671 -0.310621 1.1
      vertex -7.77879 -0.326385 1.5
      vertex -7.77879 -0.326385 1.1
    endloop
  endfacet
  facet normal -0.85774 0.514084 0
    outer loop
      vertex 7.77879 -0.548614 1.1
      vertex 7.78888 -0.531779 1.5
      vertex 7.78888 -0.531779 1.1
    endloop
  endfacet
  facet normal -0.85774 0.514084 0
    outer loop
      vertex 7.78888 -0.531779 1.5
      vertex 7.77879 -0.548614 1.1
      vertex 7.77879 -0.548614 1.5
    endloop
  endfacet
  facet normal -0.803241 0.595654 0
    outer loop
      vertex 7.7671 -0.564378 1.1
      vertex 7.77879 -0.548614 1.5
      vertex 7.77879 -0.548614 1.1
    endloop
  endfacet
  facet normal -0.803241 0.595654 0
    outer loop
      vertex 7.77879 -0.548614 1.5
      vertex 7.7671 -0.564378 1.1
      vertex 7.7671 -0.564378 1.5
    endloop
  endfacet
  facet normal 0.336879 0.941548 -0
    outer loop
      vertex -7.67056 -0.628887 1.1
      vertex -7.68904 -0.622275 1.5
      vertex -7.67056 -0.628887 1.5
    endloop
  endfacet
  facet normal 0.336879 0.941548 0
    outer loop
      vertex -7.68904 -0.622275 1.5
      vertex -7.67056 -0.628887 1.1
      vertex -7.68904 -0.622275 1.1
    endloop
  endfacet
  facet normal 0.970019 0.243027 0
    outer loop
      vertex -7.80389 -0.495557 1.5
      vertex -7.80866 -0.476518 1.1
      vertex -7.80866 -0.476518 1.5
    endloop
  endfacet
  facet normal 0.970019 0.243027 0
    outer loop
      vertex -7.80866 -0.476518 1.1
      vertex -7.80389 -0.495557 1.5
      vertex -7.80389 -0.495557 1.1
    endloop
  endfacet
  facet normal 0.42758 -0.903977 0
    outer loop
      vertex -7.70678 -0.261115 1.1
      vertex -7.68904 -0.252724 1.5
      vertex -7.70678 -0.261115 1.5
    endloop
  endfacet
  facet normal 0.42758 -0.903977 0
    outer loop
      vertex -7.68904 -0.252724 1.5
      vertex -7.70678 -0.261115 1.1
      vertex -7.68904 -0.252724 1.1
    endloop
  endfacet
  facet normal -0.336879 0.941548 0
    outer loop
      vertex 7.68904 -0.622275 1.1
      vertex 7.67056 -0.628887 1.5
      vertex 7.68904 -0.622275 1.5
    endloop
  endfacet
  facet normal -0.336879 0.941548 0
    outer loop
      vertex 7.67056 -0.628887 1.5
      vertex 7.68904 -0.622275 1.1
      vertex 7.67056 -0.628887 1.1
    endloop
  endfacet
  facet normal 0.42758 0.903977 -0
    outer loop
      vertex -7.68904 -0.622275 1.1
      vertex -7.70678 -0.613884 1.5
      vertex -7.68904 -0.622275 1.5
    endloop
  endfacet
  facet normal 0.42758 0.903977 0
    outer loop
      vertex -7.70678 -0.613884 1.5
      vertex -7.68904 -0.622275 1.1
      vertex -7.70678 -0.613884 1.1
    endloop
  endfacet
  facet normal 0.740977 -0.671531 0
    outer loop
      vertex -7.7671 -0.310621 1.5
      vertex -7.75392 -0.296078 1.1
      vertex -7.75392 -0.296078 1.5
    endloop
  endfacet
  facet normal 0.740977 -0.671531 0
    outer loop
      vertex -7.75392 -0.296078 1.1
      vertex -7.7671 -0.310621 1.5
      vertex -7.7671 -0.310621 1.1
    endloop
  endfacet
  facet normal 0.970019 -0.243027 0
    outer loop
      vertex -7.80866 -0.398481 1.5
      vertex -7.80389 -0.379442 1.1
      vertex -7.80389 -0.379442 1.5
    endloop
  endfacet
  facet normal 0.970019 -0.243027 0
    outer loop
      vertex -7.80389 -0.379442 1.1
      vertex -7.80866 -0.398481 1.5
      vertex -7.80866 -0.398481 1.1
    endloop
  endfacet
  facet normal 0.941575 -0.336804 0
    outer loop
      vertex -7.80389 -0.379442 1.5
      vertex -7.79728 -0.360963 1.1
      vertex -7.79728 -0.360963 1.5
    endloop
  endfacet
  facet normal 0.941575 -0.336804 0
    outer loop
      vertex -7.79728 -0.360963 1.1
      vertex -7.80389 -0.379442 1.5
      vertex -7.80389 -0.379442 1.1
    endloop
  endfacet
  facet normal 0.85774 -0.514084 0
    outer loop
      vertex -7.78888 -0.34322 1.5
      vertex -7.77879 -0.326385 1.1
      vertex -7.77879 -0.326385 1.5
    endloop
  endfacet
  facet normal 0.85774 -0.514084 0
    outer loop
      vertex -7.77879 -0.326385 1.1
      vertex -7.78888 -0.34322 1.5
      vertex -7.78888 -0.34322 1.1
    endloop
  endfacet
  facet normal -0.242967 -0.970035 0
    outer loop
      vertex 7.65152 -0.241343 1.1
      vertex 7.67056 -0.246112 1.5
      vertex 7.65152 -0.241343 1.5
    endloop
  endfacet
  facet normal -0.242967 -0.970035 -0
    outer loop
      vertex 7.67056 -0.246112 1.5
      vertex 7.65152 -0.241343 1.1
      vertex 7.67056 -0.246112 1.1
    endloop
  endfacet
  facet normal 0.0490735 -0.998795 0
    outer loop
      vertex -7.6321 -0.238462 1.1
      vertex -7.6125 -0.237499 1.5
      vertex -7.6321 -0.238462 1.5
    endloop
  endfacet
  facet normal 0.0490735 -0.998795 0
    outer loop
      vertex -7.6125 -0.237499 1.5
      vertex -7.6321 -0.238462 1.1
      vertex -7.6125 -0.237499 1.1
    endloop
  endfacet
  facet normal -0.42758 -0.903977 0
    outer loop
      vertex 7.68904 -0.252724 1.1
      vertex 7.70678 -0.261115 1.5
      vertex 7.68904 -0.252724 1.5
    endloop
  endfacet
  facet normal -0.42758 -0.903977 -0
    outer loop
      vertex 7.70678 -0.261115 1.5
      vertex 7.68904 -0.252724 1.1
      vertex 7.70678 -0.261115 1.1
    endloop
  endfacet
  facet normal -0.998803 -0.0489135 0
    outer loop
      vertex 7.8125 -0.437499 1.1
      vertex 7.81154 -0.417896 1.5
      vertex 7.81154 -0.417896 1.1
    endloop
  endfacet
  facet normal -0.998803 -0.0489135 0
    outer loop
      vertex 7.81154 -0.417896 1.5
      vertex 7.8125 -0.437499 1.1
      vertex 7.8125 -0.437499 1.5
    endloop
  endfacet
  facet normal 0.146746 -0.989174 0
    outer loop
      vertex -7.65152 -0.241343 1.1
      vertex -7.6321 -0.238462 1.5
      vertex -7.65152 -0.241343 1.5
    endloop
  endfacet
  facet normal 0.146746 -0.989174 0
    outer loop
      vertex -7.6321 -0.238462 1.5
      vertex -7.65152 -0.241343 1.1
      vertex -7.6321 -0.238462 1.1
    endloop
  endfacet
  facet normal -0.85774 -0.514084 0
    outer loop
      vertex 7.78888 -0.34322 1.1
      vertex 7.77879 -0.326385 1.5
      vertex 7.77879 -0.326385 1.1
    endloop
  endfacet
  facet normal -0.85774 -0.514084 0
    outer loop
      vertex 7.77879 -0.326385 1.5
      vertex 7.78888 -0.34322 1.1
      vertex 7.78888 -0.34322 1.5
    endloop
  endfacet
  facet normal -0.595541 -0.803325 0
    outer loop
      vertex 7.72361 -0.271206 1.1
      vertex 7.73938 -0.282897 1.5
      vertex 7.72361 -0.271206 1.5
    endloop
  endfacet
  facet normal -0.595541 -0.803325 -0
    outer loop
      vertex 7.73938 -0.282897 1.5
      vertex 7.72361 -0.271206 1.1
      vertex 7.73938 -0.282897 1.1
    endloop
  endfacet
  facet normal 0.595541 -0.803325 0
    outer loop
      vertex -7.73938 -0.282897 1.1
      vertex -7.72361 -0.271206 1.5
      vertex -7.73938 -0.282897 1.5
    endloop
  endfacet
  facet normal 0.595541 -0.803325 0
    outer loop
      vertex -7.72361 -0.271206 1.5
      vertex -7.73938 -0.282897 1.1
      vertex -7.72361 -0.271206 1.1
    endloop
  endfacet
  facet normal 0.243015 0.970023 -0
    outer loop
      vertex -7.65152 -0.633657 1.1
      vertex -7.67056 -0.628887 1.5
      vertex -7.65152 -0.633657 1.5
    endloop
  endfacet
  facet normal 0.243015 0.970023 0
    outer loop
      vertex -7.67056 -0.628887 1.5
      vertex -7.65152 -0.633657 1.1
      vertex -7.67056 -0.628887 1.1
    endloop
  endfacet
  facet normal 0.803241 0.595654 0
    outer loop
      vertex -7.7671 -0.564378 1.5
      vertex -7.77879 -0.548614 1.1
      vertex -7.77879 -0.548614 1.5
    endloop
  endfacet
  facet normal 0.803241 0.595654 0
    outer loop
      vertex -7.77879 -0.548614 1.1
      vertex -7.7671 -0.564378 1.5
      vertex -7.7671 -0.564378 1.1
    endloop
  endfacet
  facet normal -0.989176 -0.146733 0
    outer loop
      vertex 7.81154 -0.417896 1.1
      vertex 7.80866 -0.398481 1.5
      vertex 7.80866 -0.398481 1.1
    endloop
  endfacet
  facet normal -0.989176 -0.146733 0
    outer loop
      vertex 7.80866 -0.398481 1.5
      vertex 7.81154 -0.417896 1.1
      vertex 7.81154 -0.417896 1.5
    endloop
  endfacet
  facet normal 0.989176 -0.146733 0
    outer loop
      vertex -7.81154 -0.417896 1.5
      vertex -7.80866 -0.398481 1.1
      vertex -7.80866 -0.398481 1.5
    endloop
  endfacet
  facet normal 0.989176 -0.146733 0
    outer loop
      vertex -7.80866 -0.398481 1.1
      vertex -7.81154 -0.417896 1.5
      vertex -7.81154 -0.417896 1.1
    endloop
  endfacet
  facet normal 0.998803 -0.0489135 0
    outer loop
      vertex -7.8125 -0.437499 1.5
      vertex -7.81154 -0.417896 1.1
      vertex -7.81154 -0.417896 1.5
    endloop
  endfacet
  facet normal 0.998803 -0.0489135 0
    outer loop
      vertex -7.81154 -0.417896 1.1
      vertex -7.8125 -0.437499 1.5
      vertex -7.8125 -0.437499 1.1
    endloop
  endfacet
  facet normal -0.740977 0.671531 0
    outer loop
      vertex 7.75392 -0.578921 1.1
      vertex 7.7671 -0.564378 1.5
      vertex 7.7671 -0.564378 1.1
    endloop
  endfacet
  facet normal -0.740977 0.671531 0
    outer loop
      vertex 7.7671 -0.564378 1.5
      vertex 7.75392 -0.578921 1.1
      vertex 7.75392 -0.578921 1.5
    endloop
  endfacet
  facet normal -0.146696 0.989182 0
    outer loop
      vertex 7.65152 -0.633657 1.1
      vertex 7.6321 -0.636537 1.5
      vertex 7.65152 -0.633657 1.5
    endloop
  endfacet
  facet normal -0.146696 0.989182 0
    outer loop
      vertex 7.6321 -0.636537 1.5
      vertex 7.65152 -0.633657 1.1
      vertex 7.6321 -0.636537 1.1
    endloop
  endfacet
  facet normal 0.336879 -0.941548 0
    outer loop
      vertex -7.68904 -0.252724 1.1
      vertex -7.67056 -0.246112 1.5
      vertex -7.68904 -0.252724 1.5
    endloop
  endfacet
  facet normal 0.336879 -0.941548 0
    outer loop
      vertex -7.67056 -0.246112 1.5
      vertex -7.68904 -0.252724 1.1
      vertex -7.67056 -0.246112 1.1
    endloop
  endfacet
  facet normal -0.671635 -0.740882 0
    outer loop
      vertex 7.73938 -0.282897 1.1
      vertex 7.75392 -0.296078 1.5
      vertex 7.73938 -0.282897 1.5
    endloop
  endfacet
  facet normal -0.671635 -0.740882 -0
    outer loop
      vertex 7.75392 -0.296078 1.5
      vertex 7.73938 -0.282897 1.1
      vertex 7.75392 -0.296078 1.1
    endloop
  endfacet
  facet normal -0.970019 0.243027 0
    outer loop
      vertex 7.80389 -0.495557 1.1
      vertex 7.80866 -0.476518 1.5
      vertex 7.80866 -0.476518 1.1
    endloop
  endfacet
  facet normal -0.970019 0.243027 0
    outer loop
      vertex 7.80866 -0.476518 1.5
      vertex 7.80389 -0.495557 1.1
      vertex 7.80389 -0.495557 1.5
    endloop
  endfacet
  facet normal -0.514233 -0.85765 0
    outer loop
      vertex 7.70678 -0.261115 1.1
      vertex 7.72361 -0.271206 1.5
      vertex 7.70678 -0.261115 1.5
    endloop
  endfacet
  facet normal -0.514233 -0.85765 -0
    outer loop
      vertex 7.72361 -0.271206 1.5
      vertex 7.70678 -0.261115 1.1
      vertex 7.72361 -0.271206 1.1
    endloop
  endfacet
  facet normal 0.903828 -0.427896 0
    outer loop
      vertex -7.79728 -0.360963 1.5
      vertex -7.78888 -0.34322 1.1
      vertex -7.78888 -0.34322 1.5
    endloop
  endfacet
  facet normal 0.903828 -0.427896 0
    outer loop
      vertex -7.78888 -0.34322 1.1
      vertex -7.79728 -0.360963 1.5
      vertex -7.79728 -0.360963 1.1
    endloop
  endfacet
  facet normal -0.514233 0.85765 0
    outer loop
      vertex 7.72361 -0.603793 1.1
      vertex 7.70678 -0.613884 1.5
      vertex 7.72361 -0.603793 1.5
    endloop
  endfacet
  facet normal -0.514233 0.85765 0
    outer loop
      vertex 7.70678 -0.613884 1.5
      vertex 7.72361 -0.603793 1.1
      vertex 7.70678 -0.613884 1.1
    endloop
  endfacet
  facet normal -0.941575 -0.336804 0
    outer loop
      vertex 7.80389 -0.379442 1.1
      vertex 7.79728 -0.360963 1.5
      vertex 7.79728 -0.360963 1.1
    endloop
  endfacet
  facet normal -0.941575 -0.336804 0
    outer loop
      vertex 7.79728 -0.360963 1.5
      vertex 7.80389 -0.379442 1.1
      vertex 7.80389 -0.379442 1.5
    endloop
  endfacet
  facet normal -0.595541 0.803325 0
    outer loop
      vertex 7.73938 -0.592102 1.1
      vertex 7.72361 -0.603793 1.5
      vertex 7.73938 -0.592102 1.5
    endloop
  endfacet
  facet normal -0.595541 0.803325 0
    outer loop
      vertex 7.72361 -0.603793 1.5
      vertex 7.73938 -0.592102 1.1
      vertex 7.72361 -0.603793 1.1
    endloop
  endfacet
  facet normal 0.740977 0.671531 0
    outer loop
      vertex -7.75392 -0.578921 1.5
      vertex -7.7671 -0.564378 1.1
      vertex -7.7671 -0.564378 1.5
    endloop
  endfacet
  facet normal 0.740977 0.671531 0
    outer loop
      vertex -7.7671 -0.564378 1.1
      vertex -7.75392 -0.578921 1.5
      vertex -7.75392 -0.578921 1.1
    endloop
  endfacet
  facet normal -0.42758 0.903977 0
    outer loop
      vertex 7.70678 -0.613884 1.1
      vertex 7.68904 -0.622275 1.5
      vertex 7.70678 -0.613884 1.5
    endloop
  endfacet
  facet normal -0.42758 0.903977 0
    outer loop
      vertex 7.68904 -0.622275 1.5
      vertex 7.70678 -0.613884 1.1
      vertex 7.68904 -0.622275 1.1
    endloop
  endfacet
  facet normal -0.740977 -0.671531 0
    outer loop
      vertex 7.7671 -0.310621 1.1
      vertex 7.75392 -0.296078 1.5
      vertex 7.75392 -0.296078 1.1
    endloop
  endfacet
  facet normal -0.740977 -0.671531 0
    outer loop
      vertex 7.75392 -0.296078 1.5
      vertex 7.7671 -0.310621 1.1
      vertex 7.7671 -0.310621 1.5
    endloop
  endfacet
  facet normal -0.243015 0.970023 0
    outer loop
      vertex 7.67056 -0.628887 1.1
      vertex 7.65152 -0.633657 1.5
      vertex 7.67056 -0.628887 1.5
    endloop
  endfacet
  facet normal -0.243015 0.970023 0
    outer loop
      vertex 7.65152 -0.633657 1.5
      vertex 7.67056 -0.628887 1.1
      vertex 7.65152 -0.633657 1.1
    endloop
  endfacet
  facet normal -0.803241 -0.595654 0
    outer loop
      vertex 7.77879 -0.326385 1.1
      vertex 7.7671 -0.310621 1.5
      vertex 7.7671 -0.310621 1.1
    endloop
  endfacet
  facet normal -0.803241 -0.595654 0
    outer loop
      vertex 7.7671 -0.310621 1.5
      vertex 7.77879 -0.326385 1.1
      vertex 7.77879 -0.326385 1.5
    endloop
  endfacet
  facet normal -0.146746 -0.989174 0
    outer loop
      vertex 7.6321 -0.238462 1.1
      vertex 7.65152 -0.241343 1.5
      vertex 7.6321 -0.238462 1.5
    endloop
  endfacet
  facet normal -0.146746 -0.989174 -0
    outer loop
      vertex 7.65152 -0.241343 1.5
      vertex 7.6321 -0.238462 1.1
      vertex 7.65152 -0.241343 1.1
    endloop
  endfacet
  facet normal -0.941575 0.336804 0
    outer loop
      vertex 7.79728 -0.514036 1.1
      vertex 7.80389 -0.495557 1.5
      vertex 7.80389 -0.495557 1.1
    endloop
  endfacet
  facet normal -0.941575 0.336804 0
    outer loop
      vertex 7.80389 -0.495557 1.5
      vertex 7.79728 -0.514036 1.1
      vertex 7.79728 -0.514036 1.5
    endloop
  endfacet
  facet normal -0.903828 0.427896 0
    outer loop
      vertex 7.78888 -0.531779 1.1
      vertex 7.79728 -0.514036 1.5
      vertex 7.79728 -0.514036 1.1
    endloop
  endfacet
  facet normal -0.903828 0.427896 0
    outer loop
      vertex 7.79728 -0.514036 1.5
      vertex 7.78888 -0.531779 1.1
      vertex 7.78888 -0.531779 1.5
    endloop
  endfacet
  facet normal -0.0490735 -0.998795 0
    outer loop
      vertex 7.6125 -0.237499 1.1
      vertex 7.6321 -0.238462 1.5
      vertex 7.6125 -0.237499 1.5
    endloop
  endfacet
  facet normal -0.0490735 -0.998795 -0
    outer loop
      vertex 7.6321 -0.238462 1.5
      vertex 7.6125 -0.237499 1.1
      vertex 7.6321 -0.238462 1.1
    endloop
  endfacet
  facet normal 0.903828 0.427896 0
    outer loop
      vertex -7.78888 -0.531779 1.5
      vertex -7.79728 -0.514036 1.1
      vertex -7.79728 -0.514036 1.5
    endloop
  endfacet
  facet normal 0.903828 0.427896 0
    outer loop
      vertex -7.79728 -0.514036 1.1
      vertex -7.78888 -0.531779 1.5
      vertex -7.78888 -0.531779 1.1
    endloop
  endfacet
  facet normal 0.0490735 0.998795 -0
    outer loop
      vertex -7.6125 -0.6375 1.1
      vertex -7.6321 -0.636537 1.5
      vertex -7.6125 -0.6375 1.5
    endloop
  endfacet
  facet normal 0.0490735 0.998795 0
    outer loop
      vertex -7.6321 -0.636537 1.5
      vertex -7.6125 -0.6375 1.1
      vertex -7.6321 -0.636537 1.1
    endloop
  endfacet
  facet normal -0.671635 0.740882 0
    outer loop
      vertex 7.75392 -0.578921 1.1
      vertex 7.73938 -0.592102 1.5
      vertex 7.75392 -0.578921 1.5
    endloop
  endfacet
  facet normal -0.671635 0.740882 0
    outer loop
      vertex 7.73938 -0.592102 1.5
      vertex 7.75392 -0.578921 1.1
      vertex 7.73938 -0.592102 1.1
    endloop
  endfacet
  facet normal 0.85774 0.514084 0
    outer loop
      vertex -7.77879 -0.548614 1.5
      vertex -7.78888 -0.531779 1.1
      vertex -7.78888 -0.531779 1.5
    endloop
  endfacet
  facet normal 0.85774 0.514084 0
    outer loop
      vertex -7.78888 -0.531779 1.1
      vertex -7.77879 -0.548614 1.5
      vertex -7.77879 -0.548614 1.1
    endloop
  endfacet
  facet normal 0.595541 0.803325 -0
    outer loop
      vertex -7.72361 -0.603793 1.1
      vertex -7.73938 -0.592102 1.5
      vertex -7.72361 -0.603793 1.5
    endloop
  endfacet
  facet normal 0.595541 0.803325 0
    outer loop
      vertex -7.73938 -0.592102 1.5
      vertex -7.72361 -0.603793 1.1
      vertex -7.73938 -0.592102 1.1
    endloop
  endfacet
  facet normal 0.671635 0.740882 -0
    outer loop
      vertex -7.73938 -0.592102 1.1
      vertex -7.75392 -0.578921 1.5
      vertex -7.73938 -0.592102 1.5
    endloop
  endfacet
  facet normal 0.671635 0.740882 0
    outer loop
      vertex -7.75392 -0.578921 1.5
      vertex -7.73938 -0.592102 1.1
      vertex -7.75392 -0.578921 1.1
    endloop
  endfacet
  facet normal 0 0 1
    outer loop
      vertex 7.81154 -0.417896 1.1
      vertex 7.81154 -0.457103 1.1
      vertex 7.8125 -0.437499 1.1
    endloop
  endfacet
  facet normal 0 0 1
    outer loop
      vertex 7.80866 -0.398481 1.1
      vertex 7.81154 -0.457103 1.1
      vertex 7.81154 -0.417896 1.1
    endloop
  endfacet
  facet normal 0 0 1
    outer loop
      vertex 7.80866 -0.398481 1.1
      vertex 7.80866 -0.476518 1.1
      vertex 7.81154 -0.457103 1.1
    endloop
  endfacet
  facet normal 0 0 1
    outer loop
      vertex 7.80389 -0.379442 1.1
      vertex 7.80866 -0.476518 1.1
      vertex 7.80866 -0.398481 1.1
    endloop
  endfacet
  facet normal 0 0 1
    outer loop
      vertex 7.80389 -0.379442 1.1
      vertex 7.80389 -0.495557 1.1
      vertex 7.80866 -0.476518 1.1
    endloop
  endfacet
  facet normal 0 0 1
    outer loop
      vertex 7.79728 -0.360963 1.1
      vertex 7.80389 -0.495557 1.1
      vertex 7.80389 -0.379442 1.1
    endloop
  endfacet
  facet normal 0 0 1
    outer loop
      vertex 7.79728 -0.360963 1.1
      vertex 7.79728 -0.514036 1.1
      vertex 7.80389 -0.495557 1.1
    endloop
  endfacet
  facet normal 0 0 1
    outer loop
      vertex 7.78888 -0.34322 1.1
      vertex 7.79728 -0.514036 1.1
      vertex 7.79728 -0.360963 1.1
    endloop
  endfacet
  facet normal 0 0 1
    outer loop
      vertex 7.78888 -0.34322 1.1
      vertex 7.78888 -0.531779 1.1
      vertex 7.79728 -0.514036 1.1
    endloop
  endfacet
  facet normal 0 0 1
    outer loop
      vertex 7.77879 -0.326385 1.1
      vertex 7.78888 -0.531779 1.1
      vertex 7.78888 -0.34322 1.1
    endloop
  endfacet
  facet normal 0 0 1
    outer loop
      vertex 7.77879 -0.326385 1.1
      vertex 7.77879 -0.548614 1.1
      vertex 7.78888 -0.531779 1.1
    endloop
  endfacet
  facet normal 0 0 1
    outer loop
      vertex 7.7671 -0.310621 1.1
      vertex 7.77879 -0.548614 1.1
      vertex 7.77879 -0.326385 1.1
    endloop
  endfacet
  facet normal 0 0 1
    outer loop
      vertex 7.7671 -0.310621 1.1
      vertex 7.7671 -0.564378 1.1
      vertex 7.77879 -0.548614 1.1
    endloop
  endfacet
  facet normal 0 0 1
    outer loop
      vertex 7.75392 -0.296078 1.1
      vertex 7.7671 -0.564378 1.1
      vertex 7.7671 -0.310621 1.1
    endloop
  endfacet
  facet normal 0 0 1
    outer loop
      vertex 7.75392 -0.296078 1.1
      vertex 7.75392 -0.578921 1.1
      vertex 7.7671 -0.564378 1.1
    endloop
  endfacet
  facet normal 0 0 1
    outer loop
      vertex 7.73938 -0.282897 1.1
      vertex 7.75392 -0.578921 1.1
      vertex 7.75392 -0.296078 1.1
    endloop
  endfacet
  facet normal 0 0 1
    outer loop
      vertex 7.73938 -0.282897 1.1
      vertex 7.73938 -0.592102 1.1
      vertex 7.75392 -0.578921 1.1
    endloop
  endfacet
  facet normal 0 0 1
    outer loop
      vertex 7.72361 -0.271206 1.1
      vertex 7.73938 -0.592102 1.1
      vertex 7.73938 -0.282897 1.1
    endloop
  endfacet
  facet normal 0 0 1
    outer loop
      vertex 7.72361 -0.271206 1.1
      vertex 7.72361 -0.603793 1.1
      vertex 7.73938 -0.592102 1.1
    endloop
  endfacet
  facet normal 0 0 1
    outer loop
      vertex 7.70678 -0.261115 1.1
      vertex 7.72361 -0.603793 1.1
      vertex 7.72361 -0.271206 1.1
    endloop
  endfacet
  facet normal 0 0 1
    outer loop
      vertex 7.70678 -0.261115 1.1
      vertex 7.70678 -0.613884 1.1
      vertex 7.72361 -0.603793 1.1
    endloop
  endfacet
  facet normal 0 0 1
    outer loop
      vertex 7.68904 -0.252724 1.1
      vertex 7.70678 -0.613884 1.1
      vertex 7.70678 -0.261115 1.1
    endloop
  endfacet
  facet normal 0 0 1
    outer loop
      vertex 7.68904 -0.252724 1.1
      vertex 7.68904 -0.622275 1.1
      vertex 7.70678 -0.613884 1.1
    endloop
  endfacet
  facet normal 0 0 1
    outer loop
      vertex 7.67056 -0.246112 1.1
      vertex 7.68904 -0.622275 1.1
      vertex 7.68904 -0.252724 1.1
    endloop
  endfacet
  facet normal 0 0 1
    outer loop
      vertex 7.67056 -0.246112 1.1
      vertex 7.67056 -0.628887 1.1
      vertex 7.68904 -0.622275 1.1
    endloop
  endfacet
  facet normal 0 0 1
    outer loop
      vertex 7.65152 -0.241343 1.1
      vertex 7.67056 -0.628887 1.1
      vertex 7.67056 -0.246112 1.1
    endloop
  endfacet
  facet normal 0 0 1
    outer loop
      vertex 7.65152 -0.241343 1.1
      vertex 7.65152 -0.633657 1.1
      vertex 7.67056 -0.628887 1.1
    endloop
  endfacet
  facet normal 0 0 1
    outer loop
      vertex 7.6321 -0.238462 1.1
      vertex 7.65152 -0.633657 1.1
      vertex 7.65152 -0.241343 1.1
    endloop
  endfacet
  facet normal 0 0 1
    outer loop
      vertex 7.6321 -0.238462 1.1
      vertex 7.6321 -0.636537 1.1
      vertex 7.65152 -0.633657 1.1
    endloop
  endfacet
  facet normal 0 0 1
    outer loop
      vertex 7.6125 -0.237499 1.1
      vertex 7.6321 -0.636537 1.1
      vertex 7.6321 -0.238462 1.1
    endloop
  endfacet
  facet normal 0 0 1
    outer loop
      vertex 7.6125 -0.237499 1.1
      vertex 7.6125 -0.6375 1.1
      vertex 7.6321 -0.636537 1.1
    endloop
  endfacet
  facet normal -0 0 1
    outer loop
      vertex -7.6125 -0.237499 1.1
      vertex 7.6125 -0.6375 1.1
      vertex 7.6125 -0.237499 1.1
    endloop
  endfacet
  facet normal 0 0 1
    outer loop
      vertex -7.6125 -0.237499 1.1
      vertex -7.6125 -0.6375 1.1
      vertex 7.6125 -0.6375 1.1
    endloop
  endfacet
  facet normal -0 0 1
    outer loop
      vertex -7.6321 -0.238462 1.1
      vertex -7.6125 -0.6375 1.1
      vertex -7.6125 -0.237499 1.1
    endloop
  endfacet
  facet normal 0 0 1
    outer loop
      vertex -7.6321 -0.238462 1.1
      vertex -7.6321 -0.636537 1.1
      vertex -7.6125 -0.6375 1.1
    endloop
  endfacet
  facet normal -0 0 1
    outer loop
      vertex -7.65152 -0.241343 1.1
      vertex -7.6321 -0.636537 1.1
      vertex -7.6321 -0.238462 1.1
    endloop
  endfacet
  facet normal 0 0 1
    outer loop
      vertex -7.65152 -0.241343 1.1
      vertex -7.65152 -0.633657 1.1
      vertex -7.6321 -0.636537 1.1
    endloop
  endfacet
  facet normal -0 0 1
    outer loop
      vertex -7.67056 -0.246112 1.1
      vertex -7.65152 -0.633657 1.1
      vertex -7.65152 -0.241343 1.1
    endloop
  endfacet
  facet normal 0 0 1
    outer loop
      vertex -7.67056 -0.246112 1.1
      vertex -7.67056 -0.628887 1.1
      vertex -7.65152 -0.633657 1.1
    endloop
  endfacet
  facet normal -0 0 1
    outer loop
      vertex -7.68904 -0.252724 1.1
      vertex -7.67056 -0.628887 1.1
      vertex -7.67056 -0.246112 1.1
    endloop
  endfacet
  facet normal 0 0 1
    outer loop
      vertex -7.68904 -0.252724 1.1
      vertex -7.68904 -0.622275 1.1
      vertex -7.67056 -0.628887 1.1
    endloop
  endfacet
  facet normal -0 0 1
    outer loop
      vertex -7.70678 -0.261115 1.1
      vertex -7.68904 -0.622275 1.1
      vertex -7.68904 -0.252724 1.1
    endloop
  endfacet
  facet normal 0 0 1
    outer loop
      vertex -7.70678 -0.261115 1.1
      vertex -7.70678 -0.613884 1.1
      vertex -7.68904 -0.622275 1.1
    endloop
  endfacet
  facet normal -0 0 1
    outer loop
      vertex -7.72361 -0.271206 1.1
      vertex -7.70678 -0.613884 1.1
      vertex -7.70678 -0.261115 1.1
    endloop
  endfacet
  facet normal 0 0 1
    outer loop
      vertex -7.72361 -0.271206 1.1
      vertex -7.72361 -0.603793 1.1
      vertex -7.70678 -0.613884 1.1
    endloop
  endfacet
  facet normal -0 0 1
    outer loop
      vertex -7.73938 -0.282897 1.1
      vertex -7.72361 -0.603793 1.1
      vertex -7.72361 -0.271206 1.1
    endloop
  endfacet
  facet normal 0 0 1
    outer loop
      vertex -7.73938 -0.282897 1.1
      vertex -7.73938 -0.592102 1.1
      vertex -7.72361 -0.603793 1.1
    endloop
  endfacet
  facet normal -0 0 1
    outer loop
      vertex -7.75392 -0.296078 1.1
      vertex -7.73938 -0.592102 1.1
      vertex -7.73938 -0.282897 1.1
    endloop
  endfacet
  facet normal 0 0 1
    outer loop
      vertex -7.75392 -0.296078 1.1
      vertex -7.75392 -0.578921 1.1
      vertex -7.73938 -0.592102 1.1
    endloop
  endfacet
  facet normal -0 0 1
    outer loop
      vertex -7.7671 -0.310621 1.1
      vertex -7.75392 -0.578921 1.1
      vertex -7.75392 -0.296078 1.1
    endloop
  endfacet
  facet normal 0 0 1
    outer loop
      vertex -7.7671 -0.310621 1.1
      vertex -7.7671 -0.564378 1.1
      vertex -7.75392 -0.578921 1.1
    endloop
  endfacet
  facet normal -0 0 1
    outer loop
      vertex -7.77879 -0.326385 1.1
      vertex -7.7671 -0.564378 1.1
      vertex -7.7671 -0.310621 1.1
    endloop
  endfacet
  facet normal 0 0 1
    outer loop
      vertex -7.77879 -0.326385 1.1
      vertex -7.77879 -0.548614 1.1
      vertex -7.7671 -0.564378 1.1
    endloop
  endfacet
  facet normal -0 0 1
    outer loop
      vertex -7.78888 -0.34322 1.1
      vertex -7.77879 -0.548614 1.1
      vertex -7.77879 -0.326385 1.1
    endloop
  endfacet
  facet normal 0 0 1
    outer loop
      vertex -7.78888 -0.34322 1.1
      vertex -7.78888 -0.531779 1.1
      vertex -7.77879 -0.548614 1.1
    endloop
  endfacet
  facet normal -0 0 1
    outer loop
      vertex -7.79728 -0.360963 1.1
      vertex -7.78888 -0.531779 1.1
      vertex -7.78888 -0.34322 1.1
    endloop
  endfacet
  facet normal 0 0 1
    outer loop
      vertex -7.79728 -0.360963 1.1
      vertex -7.79728 -0.514036 1.1
      vertex -7.78888 -0.531779 1.1
    endloop
  endfacet
  facet normal -0 0 1
    outer loop
      vertex -7.80389 -0.379442 1.1
      vertex -7.79728 -0.514036 1.1
      vertex -7.79728 -0.360963 1.1
    endloop
  endfacet
  facet normal 0 0 1
    outer loop
      vertex -7.80389 -0.379442 1.1
      vertex -7.80389 -0.495557 1.1
      vertex -7.79728 -0.514036 1.1
    endloop
  endfacet
  facet normal -0 0 1
    outer loop
      vertex -7.80866 -0.398481 1.1
      vertex -7.80389 -0.495557 1.1
      vertex -7.80389 -0.379442 1.1
    endloop
  endfacet
  facet normal 0 0 1
    outer loop
      vertex -7.80866 -0.398481 1.1
      vertex -7.80866 -0.476518 1.1
      vertex -7.80389 -0.495557 1.1
    endloop
  endfacet
  facet normal -0 0 1
    outer loop
      vertex -7.81154 -0.417896 1.1
      vertex -7.80866 -0.476518 1.1
      vertex -7.80866 -0.398481 1.1
    endloop
  endfacet
  facet normal 0 0 1
    outer loop
      vertex -7.81154 -0.417896 1.1
      vertex -7.81154 -0.457103 1.1
      vertex -7.80866 -0.476518 1.1
    endloop
  endfacet
  facet normal 0 -0 1
    outer loop
      vertex -7.81154 -0.457103 1.1
      vertex -7.81154 -0.417896 1.1
      vertex -7.8125 -0.437499 1.1
    endloop
  endfacet
  facet normal 0.941575 0.336804 0
    outer loop
      vertex -7.79728 -0.514036 1.5
      vertex -7.80389 -0.495557 1.1
      vertex -7.80389 -0.495557 1.5
    endloop
  endfacet
  facet normal 0.941575 0.336804 0
    outer loop
      vertex -7.80389 -0.495557 1.1
      vertex -7.79728 -0.514036 1.5
      vertex -7.79728 -0.514036 1.1
    endloop
  endfacet
endsolid OpenSCAD_Model
