solid OpenSCAD_Model
  facet normal 0 0 -1
    outer loop
      vertex 10.9375 -24.5 0
      vertex 8.83014 -24.3965 0
      vertex 10.9375 -3 0
    endloop
  endfacet
  facet normal 0 0 -1
    outer loop
      vertex 10.9375 -3 0
      vertex 14.0625 3 0
      vertex 14.0625 -3 0
    endloop
  endfacet
  facet normal 0 0 -1
    outer loop
      vertex 6.74307 -24.0869 0
      vertex 10.9375 -3 0
      vertex 8.83014 -24.3965 0
    endloop
  endfacet
  facet normal 0 0 -1
    outer loop
      vertex 4.69638 -23.5742 0
      vertex 10.9375 -3 0
      vertex 6.74307 -24.0869 0
    endloop
  endfacet
  facet normal 0 0 -1
    outer loop
      vertex 2.70981 -22.8634 0
      vertex 10.9375 -3 0
      vertex 4.69638 -23.5742 0
    endloop
  endfacet
  facet normal 0 0 -1
    outer loop
      vertex 0.802475 -21.9613 0
      vertex 10.9375 -3 0
      vertex 2.70981 -22.8634 0
    endloop
  endfacet
  facet normal 0 0 -1
    outer loop
      vertex -1.00725 -20.8766 0
      vertex 10.9375 -3 0
      vertex 0.802475 -21.9613 0
    endloop
  endfacet
  facet normal 0 0 -1
    outer loop
      vertex -2.70195 -19.6197 0
      vertex 10.9375 -3 0
      vertex -1.00725 -20.8766 0
    endloop
  endfacet
  facet normal 0 0 -1
    outer loop
      vertex -4.26529 -18.2028 0
      vertex 10.9375 -3 0
      vertex -2.70195 -19.6197 0
    endloop
  endfacet
  facet normal 0 0 -1
    outer loop
      vertex -5.68222 -16.6395 0
      vertex 10.9375 -3 0
      vertex -4.26529 -18.2028 0
    endloop
  endfacet
  facet normal 0 0 -1
    outer loop
      vertex -6.93909 -14.9447 0
      vertex 10.9375 -3 0
      vertex -5.68222 -16.6395 0
    endloop
  endfacet
  facet normal 0 0 -1
    outer loop
      vertex -8.0238 -13.135 0
      vertex 10.9375 -3 0
      vertex -6.93909 -14.9447 0
    endloop
  endfacet
  facet normal 0 0 -1
    outer loop
      vertex -8.9259 -11.2277 0
      vertex 10.9375 -3 0
      vertex -8.0238 -13.135 0
    endloop
  endfacet
  facet normal 0 0 -1
    outer loop
      vertex -9.6367 -9.24112 0
      vertex 10.9375 -3 0
      vertex -8.9259 -11.2277 0
    endloop
  endfacet
  facet normal 0 0 -1
    outer loop
      vertex -10.1494 -7.19443 0
      vertex 10.9375 -3 0
      vertex -9.6367 -9.24112 0
    endloop
  endfacet
  facet normal 0 0 -1
    outer loop
      vertex -10.459 -5.10736 0
      vertex 10.9375 -3 0
      vertex -10.1494 -7.19443 0
    endloop
  endfacet
  facet normal 0 0 -1
    outer loop
      vertex -10.5625 -3 0
      vertex 10.9375 -3 0
      vertex -10.459 -5.10736 0
    endloop
  endfacet
  facet normal 0 0 -1
    outer loop
      vertex 10.9375 -3 0
      vertex -10.5625 -3 0
      vertex 14.0625 3 0
    endloop
  endfacet
  facet normal 0 0 -1
    outer loop
      vertex -14.0625 3 0
      vertex -10.5625 -3 0
      vertex -14.0625 -3 0
    endloop
  endfacet
  facet normal 0 0 -1
    outer loop
      vertex -10.5625 -3 0
      vertex -14.0625 3 0
      vertex 14.0625 3 0
    endloop
  endfacet
  facet normal 1 0 0
    outer loop
      vertex -10.9375 3 7
      vertex -10.9375 -2 1.5
      vertex -10.9375 3 1.5
    endloop
  endfacet
  facet normal 1 -0 0
    outer loop
      vertex -10.9375 -3 7
      vertex -10.9375 -2 1.5
      vertex -10.9375 3 7
    endloop
  endfacet
  facet normal 1 0 0
    outer loop
      vertex -10.9375 -2 1.5
      vertex -10.9375 -3 7
      vertex -10.9375 -3 1.5
    endloop
  endfacet
  facet normal 0 -1 0
    outer loop
      vertex 10.9375 -3 1.5
      vertex 14.0625 -3 7
      vertex 10.9375 -3 7
    endloop
  endfacet
  facet normal 0 -1 0
    outer loop
      vertex 14.0625 -3 0
      vertex 10.9375 -3 1.5
      vertex 10.9375 -3 0
    endloop
  endfacet
  facet normal 0 -1 0
    outer loop
      vertex 10.9375 -3 1.5
      vertex 14.0625 -3 0
      vertex 14.0625 -3 7
    endloop
  endfacet
  facet normal 0 -1 0
    outer loop
      vertex -14.0625 -3 7
      vertex -10.9375 -3 1.5
      vertex -10.9375 -3 7
    endloop
  endfacet
  facet normal 0 -1 0
    outer loop
      vertex -14.0625 -3 0
      vertex -10.9375 -3 1.5
      vertex -14.0625 -3 7
    endloop
  endfacet
  facet normal 0 -1 0
    outer loop
      vertex -10.5625 -3 0
      vertex -10.9375 -3 1.5
      vertex -14.0625 -3 0
    endloop
  endfacet
  facet normal 0 -1 0
    outer loop
      vertex -10.9375 -3 1.5
      vertex -10.5625 -3 0
      vertex -10.5625 -3 1.5
    endloop
  endfacet
  facet normal -0 0 1
    outer loop
      vertex -14.0625 3 7
      vertex -10.9375 -3 7
      vertex -10.9375 3 7
    endloop
  endfacet
  facet normal 0 0 1
    outer loop
      vertex -10.9375 -3 7
      vertex -14.0625 3 7
      vertex -14.0625 -3 7
    endloop
  endfacet
  facet normal -1 0 0
    outer loop
      vertex -14.0625 -3 0
      vertex -14.0625 3 7
      vertex -14.0625 3 0
    endloop
  endfacet
  facet normal -1 -0 0
    outer loop
      vertex -14.0625 3 7
      vertex -14.0625 -3 0
      vertex -14.0625 -3 7
    endloop
  endfacet
  facet normal 0 1 0
    outer loop
      vertex 14.0625 3 7
      vertex 10.9375 3 1.5
      vertex 10.9375 3 7
    endloop
  endfacet
  facet normal 0 1 0
    outer loop
      vertex 10.9375 3 1.5
      vertex 14.0625 3 0
      vertex -10.9375 3 1.5
    endloop
  endfacet
  facet normal 0 1 -0
    outer loop
      vertex 14.0625 3 0
      vertex 10.9375 3 1.5
      vertex 14.0625 3 7
    endloop
  endfacet
  facet normal 0 1 -0
    outer loop
      vertex -10.9375 3 1.5
      vertex -14.0625 3 7
      vertex -10.9375 3 7
    endloop
  endfacet
  facet normal 0 1 0
    outer loop
      vertex -10.9375 3 1.5
      vertex -14.0625 3 0
      vertex -14.0625 3 7
    endloop
  endfacet
  facet normal 0 1 0
    outer loop
      vertex -14.0625 3 0
      vertex -10.9375 3 1.5
      vertex 14.0625 3 0
    endloop
  endfacet
  facet normal 1 -0 0
    outer loop
      vertex 14.0625 -3 7
      vertex 14.0625 3 0
      vertex 14.0625 3 7
    endloop
  endfacet
  facet normal 1 0 0
    outer loop
      vertex 14.0625 3 0
      vertex 14.0625 -3 7
      vertex 14.0625 -3 0
    endloop
  endfacet
  facet normal -0 0 1
    outer loop
      vertex 10.9375 3 7
      vertex 14.0625 -3 7
      vertex 14.0625 3 7
    endloop
  endfacet
  facet normal 0 0 1
    outer loop
      vertex 14.0625 -3 7
      vertex 10.9375 3 7
      vertex 10.9375 -3 7
    endloop
  endfacet
  facet normal -1 0 0
    outer loop
      vertex 10.9375 -2 1.5
      vertex 10.9375 3 7
      vertex 10.9375 3 1.5
    endloop
  endfacet
  facet normal -1 0 0
    outer loop
      vertex 10.9375 -3 7
      vertex 10.9375 -2 1.5
      vertex 10.9375 -3 1.5
    endloop
  endfacet
  facet normal -1 0 0
    outer loop
      vertex 10.9375 -2 1.5
      vertex 10.9375 -3 7
      vertex 10.9375 3 7
    endloop
  endfacet
  facet normal -0 0 1
    outer loop
      vertex 10.9365 -2.0196 1.5
      vertex 10.9375 -3 1.5
      vertex 10.9375 -2 1.5
    endloop
  endfacet
  facet normal -0 0 1
    outer loop
      vertex 10.9337 -2.03902 1.5
      vertex 10.9375 -3 1.5
      vertex 10.9365 -2.0196 1.5
    endloop
  endfacet
  facet normal -0 0 1
    outer loop
      vertex 10.9289 -2.05806 1.5
      vertex 10.9375 -3 1.5
      vertex 10.9337 -2.03902 1.5
    endloop
  endfacet
  facet normal -0 0 1
    outer loop
      vertex 10.9223 -2.07654 1.5
      vertex 10.9375 -3 1.5
      vertex 10.9289 -2.05806 1.5
    endloop
  endfacet
  facet normal -0 0 1
    outer loop
      vertex 10.9139 -2.09428 1.5
      vertex 10.9375 -3 1.5
      vertex 10.9223 -2.07654 1.5
    endloop
  endfacet
  facet normal -0 0 1
    outer loop
      vertex 10.9038 -2.11111 1.5
      vertex 10.9375 -3 1.5
      vertex 10.9139 -2.09428 1.5
    endloop
  endfacet
  facet normal -0 0 1
    outer loop
      vertex 10.8921 -2.12688 1.5
      vertex 10.9375 -3 1.5
      vertex 10.9038 -2.11111 1.5
    endloop
  endfacet
  facet normal -0 0 1
    outer loop
      vertex 10.8789 -2.14142 1.5
      vertex 10.9375 -3 1.5
      vertex 10.8921 -2.12688 1.5
    endloop
  endfacet
  facet normal -0 0 1
    outer loop
      vertex 10.8644 -2.1546 1.5
      vertex 10.9375 -3 1.5
      vertex 10.8789 -2.14142 1.5
    endloop
  endfacet
  facet normal -0 0 1
    outer loop
      vertex 10.8486 -2.16629 1.5
      vertex 10.9375 -3 1.5
      vertex 10.8644 -2.1546 1.5
    endloop
  endfacet
  facet normal -0 0 1
    outer loop
      vertex 10.8318 -2.17638 1.5
      vertex 10.9375 -3 1.5
      vertex 10.8486 -2.16629 1.5
    endloop
  endfacet
  facet normal -0 0 1
    outer loop
      vertex 10.814 -2.18478 1.5
      vertex 10.9375 -3 1.5
      vertex 10.8318 -2.17638 1.5
    endloop
  endfacet
  facet normal -0 0 1
    outer loop
      vertex 10.7956 -2.19139 1.5
      vertex 10.9375 -3 1.5
      vertex 10.814 -2.18478 1.5
    endloop
  endfacet
  facet normal -0 0 1
    outer loop
      vertex 10.7765 -2.19616 1.5
      vertex 10.9375 -3 1.5
      vertex 10.7956 -2.19139 1.5
    endloop
  endfacet
  facet normal -0 0 1
    outer loop
      vertex 10.7571 -2.19904 1.5
      vertex 10.9375 -3 1.5
      vertex 10.7765 -2.19616 1.5
    endloop
  endfacet
  facet normal -0 0 1
    outer loop
      vertex 10.7375 -2.2 1.5
      vertex 10.9375 -3 1.5
      vertex 10.7571 -2.19904 1.5
    endloop
  endfacet
  facet normal 0 0 1
    outer loop
      vertex -10.1494 -7.19443 1.5
      vertex 10.9375 -3 1.5
      vertex 10.7375 -2.2 1.5
    endloop
  endfacet
  facet normal 0 0 1
    outer loop
      vertex 10.9375 -3 1.5
      vertex 8.83014 -24.3965 1.5
      vertex 10.9375 -24.5 1.5
    endloop
  endfacet
  facet normal 0 0 1
    outer loop
      vertex 10.9375 -3 1.5
      vertex 6.74307 -24.0869 1.5
      vertex 8.83014 -24.3965 1.5
    endloop
  endfacet
  facet normal 0 0 1
    outer loop
      vertex 10.9375 -3 1.5
      vertex 4.69638 -23.5742 1.5
      vertex 6.74307 -24.0869 1.5
    endloop
  endfacet
  facet normal 0 0 1
    outer loop
      vertex 10.9375 -3 1.5
      vertex 2.70981 -22.8634 1.5
      vertex 4.69638 -23.5742 1.5
    endloop
  endfacet
  facet normal 0 0 1
    outer loop
      vertex 10.9375 -3 1.5
      vertex 0.802475 -21.9613 1.5
      vertex 2.70981 -22.8634 1.5
    endloop
  endfacet
  facet normal 0 0 1
    outer loop
      vertex 10.9375 -3 1.5
      vertex -1.00725 -20.8766 1.5
      vertex 0.802475 -21.9613 1.5
    endloop
  endfacet
  facet normal 0 0 1
    outer loop
      vertex 10.9375 -3 1.5
      vertex -2.70195 -19.6197 1.5
      vertex -1.00725 -20.8766 1.5
    endloop
  endfacet
  facet normal 0 0 1
    outer loop
      vertex 10.9375 -3 1.5
      vertex -4.26529 -18.2028 1.5
      vertex -2.70195 -19.6197 1.5
    endloop
  endfacet
  facet normal 0 0 1
    outer loop
      vertex 10.9375 -3 1.5
      vertex -5.68222 -16.6395 1.5
      vertex -4.26529 -18.2028 1.5
    endloop
  endfacet
  facet normal 0 0 1
    outer loop
      vertex 10.9375 -3 1.5
      vertex -6.93909 -14.9447 1.5
      vertex -5.68222 -16.6395 1.5
    endloop
  endfacet
  facet normal 0 0 1
    outer loop
      vertex 10.9375 -3 1.5
      vertex -8.0238 -13.135 1.5
      vertex -6.93909 -14.9447 1.5
    endloop
  endfacet
  facet normal 0 0 1
    outer loop
      vertex 10.9375 -3 1.5
      vertex -8.9259 -11.2277 1.5
      vertex -8.0238 -13.135 1.5
    endloop
  endfacet
  facet normal 0 0 1
    outer loop
      vertex 10.9375 -3 1.5
      vertex -9.6367 -9.24112 1.5
      vertex -8.9259 -11.2277 1.5
    endloop
  endfacet
  facet normal 0 0 1
    outer loop
      vertex 10.9375 -3 1.5
      vertex -10.1494 -7.19443 1.5
      vertex -9.6367 -9.24112 1.5
    endloop
  endfacet
  facet normal 0 0 1
    outer loop
      vertex 10.7375 -2.2 1.5
      vertex -10.459 -5.10736 1.5
      vertex -10.1494 -7.19443 1.5
    endloop
  endfacet
  facet normal 0 0 1
    outer loop
      vertex 10.7375 -2.2 1.5
      vertex -10.5625 -3 1.5
      vertex -10.459 -5.10736 1.5
    endloop
  endfacet
  facet normal -0 0 1
    outer loop
      vertex -10.7375 -2.2 1.5
      vertex -10.5625 -3 1.5
      vertex 10.7375 -2.2 1.5
    endloop
  endfacet
  facet normal 0 0 1
    outer loop
      vertex -10.9375 -3 1.5
      vertex -10.7375 -2.2 1.5
      vertex -10.7571 -2.19904 1.5
    endloop
  endfacet
  facet normal 0 0 1
    outer loop
      vertex -10.9375 -3 1.5
      vertex -10.7571 -2.19904 1.5
      vertex -10.7765 -2.19616 1.5
    endloop
  endfacet
  facet normal 0 0 1
    outer loop
      vertex -10.9375 -3 1.5
      vertex -10.7765 -2.19616 1.5
      vertex -10.7956 -2.19139 1.5
    endloop
  endfacet
  facet normal 0 0 1
    outer loop
      vertex -10.9375 -3 1.5
      vertex -10.7956 -2.19139 1.5
      vertex -10.814 -2.18478 1.5
    endloop
  endfacet
  facet normal 0 0 1
    outer loop
      vertex -10.9375 -3 1.5
      vertex -10.814 -2.18478 1.5
      vertex -10.8318 -2.17638 1.5
    endloop
  endfacet
  facet normal 0 0 1
    outer loop
      vertex -10.9375 -3 1.5
      vertex -10.8318 -2.17638 1.5
      vertex -10.8486 -2.16629 1.5
    endloop
  endfacet
  facet normal 0 0 1
    outer loop
      vertex -10.9375 -3 1.5
      vertex -10.8486 -2.16629 1.5
      vertex -10.8644 -2.1546 1.5
    endloop
  endfacet
  facet normal 0 0 1
    outer loop
      vertex -10.9375 -3 1.5
      vertex -10.8644 -2.1546 1.5
      vertex -10.8789 -2.14142 1.5
    endloop
  endfacet
  facet normal 0 0 1
    outer loop
      vertex -10.9375 -3 1.5
      vertex -10.8789 -2.14142 1.5
      vertex -10.8921 -2.12688 1.5
    endloop
  endfacet
  facet normal 0 0 1
    outer loop
      vertex -10.9375 -3 1.5
      vertex -10.8921 -2.12688 1.5
      vertex -10.9038 -2.11111 1.5
    endloop
  endfacet
  facet normal 0 0 1
    outer loop
      vertex -10.9375 -3 1.5
      vertex -10.9038 -2.11111 1.5
      vertex -10.9139 -2.09428 1.5
    endloop
  endfacet
  facet normal 0 0 1
    outer loop
      vertex -10.9375 -3 1.5
      vertex -10.9139 -2.09428 1.5
      vertex -10.9223 -2.07654 1.5
    endloop
  endfacet
  facet normal 0 0 1
    outer loop
      vertex -10.7375 -2.2 1.5
      vertex -10.9375 -3 1.5
      vertex -10.5625 -3 1.5
    endloop
  endfacet
  facet normal 0 0 1
    outer loop
      vertex -10.9289 -2.05806 1.5
      vertex -10.9375 -3 1.5
      vertex -10.9223 -2.07654 1.5
    endloop
  endfacet
  facet normal 0 0 1
    outer loop
      vertex -10.9337 -2.03902 1.5
      vertex -10.9375 -3 1.5
      vertex -10.9289 -2.05806 1.5
    endloop
  endfacet
  facet normal 0 0 1
    outer loop
      vertex -10.9365 -2.0196 1.5
      vertex -10.9375 -3 1.5
      vertex -10.9337 -2.03902 1.5
    endloop
  endfacet
  facet normal 0 0 1
    outer loop
      vertex -10.9375 -3 1.5
      vertex -10.9365 -2.0196 1.5
      vertex -10.9375 -2 1.5
    endloop
  endfacet
  facet normal 0 0 1
    outer loop
      vertex 10.9375 3 1.5
      vertex 10.9365 -1.9804 1.5
      vertex 10.9375 -2 1.5
    endloop
  endfacet
  facet normal 0 0 1
    outer loop
      vertex 10.9375 3 1.5
      vertex 10.9337 -1.96098 1.5
      vertex 10.9365 -1.9804 1.5
    endloop
  endfacet
  facet normal 0 0 1
    outer loop
      vertex 10.9375 3 1.5
      vertex 10.9289 -1.94194 1.5
      vertex 10.9337 -1.96098 1.5
    endloop
  endfacet
  facet normal 0 0 1
    outer loop
      vertex 10.9375 3 1.5
      vertex 10.9223 -1.92346 1.5
      vertex 10.9289 -1.94194 1.5
    endloop
  endfacet
  facet normal 0 0 1
    outer loop
      vertex 10.9375 3 1.5
      vertex 10.9139 -1.90572 1.5
      vertex 10.9223 -1.92346 1.5
    endloop
  endfacet
  facet normal 0 0 1
    outer loop
      vertex 10.9375 3 1.5
      vertex 10.9038 -1.88889 1.5
      vertex 10.9139 -1.90572 1.5
    endloop
  endfacet
  facet normal 0 0 1
    outer loop
      vertex 10.9375 3 1.5
      vertex 10.8921 -1.87312 1.5
      vertex 10.9038 -1.88889 1.5
    endloop
  endfacet
  facet normal 0 0 1
    outer loop
      vertex 10.9375 3 1.5
      vertex 10.8789 -1.85858 1.5
      vertex 10.8921 -1.87312 1.5
    endloop
  endfacet
  facet normal 0 0 1
    outer loop
      vertex 10.9375 3 1.5
      vertex 10.8644 -1.8454 1.5
      vertex 10.8789 -1.85858 1.5
    endloop
  endfacet
  facet normal 0 0 1
    outer loop
      vertex 10.9375 3 1.5
      vertex 10.8486 -1.83371 1.5
      vertex 10.8644 -1.8454 1.5
    endloop
  endfacet
  facet normal 0 0 1
    outer loop
      vertex 10.9375 3 1.5
      vertex 10.8318 -1.82362 1.5
      vertex 10.8486 -1.83371 1.5
    endloop
  endfacet
  facet normal 0 0 1
    outer loop
      vertex 10.9375 3 1.5
      vertex 10.814 -1.81522 1.5
      vertex 10.8318 -1.82362 1.5
    endloop
  endfacet
  facet normal 0 0 1
    outer loop
      vertex 10.9375 3 1.5
      vertex 10.7956 -1.80861 1.5
      vertex 10.814 -1.81522 1.5
    endloop
  endfacet
  facet normal 0 0 1
    outer loop
      vertex 10.9375 3 1.5
      vertex 10.7765 -1.80384 1.5
      vertex 10.7956 -1.80861 1.5
    endloop
  endfacet
  facet normal 0 0 1
    outer loop
      vertex 10.9375 3 1.5
      vertex 10.7571 -1.80096 1.5
      vertex 10.7765 -1.80384 1.5
    endloop
  endfacet
  facet normal 0 0 1
    outer loop
      vertex 10.9375 3 1.5
      vertex 10.7375 -1.8 1.5
      vertex 10.7571 -1.80096 1.5
    endloop
  endfacet
  facet normal 0 0 1
    outer loop
      vertex 10.9375 3 1.5
      vertex -10.7375 -1.8 1.5
      vertex 10.7375 -1.8 1.5
    endloop
  endfacet
  facet normal -0 0 1
    outer loop
      vertex -10.9375 3 1.5
      vertex -10.7375 -1.8 1.5
      vertex 10.9375 3 1.5
    endloop
  endfacet
  facet normal 0 0 1
    outer loop
      vertex -10.7375 -1.8 1.5
      vertex -10.9375 3 1.5
      vertex -10.7571 -1.80096 1.5
    endloop
  endfacet
  facet normal 0 0 1
    outer loop
      vertex -10.7571 -1.80096 1.5
      vertex -10.9375 3 1.5
      vertex -10.7765 -1.80384 1.5
    endloop
  endfacet
  facet normal 0 0 1
    outer loop
      vertex -10.9375 3 1.5
      vertex -10.7956 -1.80861 1.5
      vertex -10.7765 -1.80384 1.5
    endloop
  endfacet
  facet normal 0 0 1
    outer loop
      vertex -10.9375 3 1.5
      vertex -10.814 -1.81522 1.5
      vertex -10.7956 -1.80861 1.5
    endloop
  endfacet
  facet normal 0 0 1
    outer loop
      vertex -10.9375 3 1.5
      vertex -10.8318 -1.82362 1.5
      vertex -10.814 -1.81522 1.5
    endloop
  endfacet
  facet normal 0 0 1
    outer loop
      vertex -10.9375 3 1.5
      vertex -10.8486 -1.83371 1.5
      vertex -10.8318 -1.82362 1.5
    endloop
  endfacet
  facet normal 0 0 1
    outer loop
      vertex -10.9375 3 1.5
      vertex -10.8644 -1.8454 1.5
      vertex -10.8486 -1.83371 1.5
    endloop
  endfacet
  facet normal 0 0 1
    outer loop
      vertex -10.9375 3 1.5
      vertex -10.8789 -1.85858 1.5
      vertex -10.8644 -1.8454 1.5
    endloop
  endfacet
  facet normal 0 0 1
    outer loop
      vertex -10.9375 3 1.5
      vertex -10.8921 -1.87312 1.5
      vertex -10.8789 -1.85858 1.5
    endloop
  endfacet
  facet normal 0 0 1
    outer loop
      vertex -10.9375 3 1.5
      vertex -10.9038 -1.88889 1.5
      vertex -10.8921 -1.87312 1.5
    endloop
  endfacet
  facet normal 0 0 1
    outer loop
      vertex -10.9375 3 1.5
      vertex -10.9139 -1.90572 1.5
      vertex -10.9038 -1.88889 1.5
    endloop
  endfacet
  facet normal 0 0 1
    outer loop
      vertex -10.9375 3 1.5
      vertex -10.9223 -1.92346 1.5
      vertex -10.9139 -1.90572 1.5
    endloop
  endfacet
  facet normal 0 0 1
    outer loop
      vertex -10.9375 3 1.5
      vertex -10.9289 -1.94194 1.5
      vertex -10.9223 -1.92346 1.5
    endloop
  endfacet
  facet normal 0 0 1
    outer loop
      vertex -10.9375 3 1.5
      vertex -10.9337 -1.96098 1.5
      vertex -10.9289 -1.94194 1.5
    endloop
  endfacet
  facet normal 0 0 1
    outer loop
      vertex -10.9375 3 1.5
      vertex -10.9365 -1.9804 1.5
      vertex -10.9337 -1.96098 1.5
    endloop
  endfacet
  facet normal 0 0 1
    outer loop
      vertex -10.9365 -1.9804 1.5
      vertex -10.9375 3 1.5
      vertex -10.9375 -2 1.5
    endloop
  endfacet
  facet normal -0.998796 -0.0490545 0
    outer loop
      vertex -10.459 -5.10736 0
      vertex -10.5625 -3 1.5
      vertex -10.5625 -3 0
    endloop
  endfacet
  facet normal -0.998796 -0.0490545 0
    outer loop
      vertex -10.5625 -3 1.5
      vertex -10.459 -5.10736 0
      vertex -10.459 -5.10736 1.5
    endloop
  endfacet
  facet normal -0.803226 -0.595675 0
    outer loop
      vertex -5.68222 -16.6395 0
      vertex -6.93909 -14.9447 1.5
      vertex -6.93909 -14.9447 0
    endloop
  endfacet
  facet normal -0.803226 -0.595675 0
    outer loop
      vertex -6.93909 -14.9447 1.5
      vertex -5.68222 -16.6395 0
      vertex -5.68222 -16.6395 1.5
    endloop
  endfacet
  facet normal -0.242994 -0.970028 0
    outer loop
      vertex 4.69638 -23.5742 0
      vertex 6.74307 -24.0869 1.5
      vertex 4.69638 -23.5742 1.5
    endloop
  endfacet
  facet normal -0.242994 -0.970028 -0
    outer loop
      vertex 6.74307 -24.0869 1.5
      vertex 4.69638 -23.5742 0
      vertex 6.74307 -24.0869 0
    endloop
  endfacet
  facet normal -0.427554 -0.90399 0
    outer loop
      vertex 0.802475 -21.9613 0
      vertex 2.70981 -22.8634 1.5
      vertex 0.802475 -21.9613 1.5
    endloop
  endfacet
  facet normal -0.427554 -0.90399 -0
    outer loop
      vertex 2.70981 -22.8634 1.5
      vertex 0.802475 -21.9613 0
      vertex 2.70981 -22.8634 0
    endloop
  endfacet
  facet normal 1 -0 0
    outer loop
      vertex 10.9375 -24.5 1.5
      vertex 10.9375 -3 0
      vertex 10.9375 -3 1.5
    endloop
  endfacet
  facet normal 1 0 0
    outer loop
      vertex 10.9375 -3 0
      vertex 10.9375 -24.5 1.5
      vertex 10.9375 -24.5 0
    endloop
  endfacet
  facet normal -0.989176 -0.146736 0
    outer loop
      vertex -10.1494 -7.19443 0
      vertex -10.459 -5.10736 1.5
      vertex -10.459 -5.10736 0
    endloop
  endfacet
  facet normal -0.989176 -0.146736 0
    outer loop
      vertex -10.459 -5.10736 1.5
      vertex -10.1494 -7.19443 0
      vertex -10.1494 -7.19443 1.5
    endloop
  endfacet
  facet normal -0.740942 -0.671569 0
    outer loop
      vertex -4.26529 -18.2028 0
      vertex -5.68222 -16.6395 1.5
      vertex -5.68222 -16.6395 0
    endloop
  endfacet
  facet normal -0.740942 -0.671569 0
    outer loop
      vertex -5.68222 -16.6395 1.5
      vertex -4.26529 -18.2028 0
      vertex -4.26529 -18.2028 1.5
    endloop
  endfacet
  facet normal -0.0490545 -0.998796 0
    outer loop
      vertex 8.83014 -24.3965 0
      vertex 10.9375 -24.5 1.5
      vertex 8.83014 -24.3965 1.5
    endloop
  endfacet
  facet normal -0.0490545 -0.998796 -0
    outer loop
      vertex 10.9375 -24.5 1.5
      vertex 8.83014 -24.3965 0
      vertex 10.9375 -24.5 0
    endloop
  endfacet
  facet normal -0.941546 -0.336886 0
    outer loop
      vertex -8.9259 -11.2277 0
      vertex -9.6367 -9.24112 1.5
      vertex -9.6367 -9.24112 0
    endloop
  endfacet
  facet normal -0.941546 -0.336886 0
    outer loop
      vertex -9.6367 -9.24112 1.5
      vertex -8.9259 -11.2277 0
      vertex -8.9259 -11.2277 1.5
    endloop
  endfacet
  facet normal -0.903987 -0.427561 0
    outer loop
      vertex -8.0238 -13.135 0
      vertex -8.9259 -11.2277 1.5
      vertex -8.9259 -11.2277 0
    endloop
  endfacet
  facet normal -0.903987 -0.427561 0
    outer loop
      vertex -8.9259 -11.2277 1.5
      vertex -8.0238 -13.135 0
      vertex -8.0238 -13.135 1.5
    endloop
  endfacet
  facet normal -0.595707 -0.803202 0
    outer loop
      vertex -2.70195 -19.6197 0
      vertex -1.00725 -20.8766 1.5
      vertex -2.70195 -19.6197 1.5
    endloop
  endfacet
  facet normal -0.595707 -0.803202 -0
    outer loop
      vertex -1.00725 -20.8766 1.5
      vertex -2.70195 -19.6197 0
      vertex -1.00725 -20.8766 0
    endloop
  endfacet
  facet normal -0.857725 -0.514109 0
    outer loop
      vertex -6.93909 -14.9447 0
      vertex -8.0238 -13.135 1.5
      vertex -8.0238 -13.135 0
    endloop
  endfacet
  facet normal -0.857725 -0.514109 0
    outer loop
      vertex -8.0238 -13.135 1.5
      vertex -6.93909 -14.9447 0
      vertex -6.93909 -14.9447 1.5
    endloop
  endfacet
  facet normal -0.5141 -0.85773 0
    outer loop
      vertex -1.00725 -20.8766 0
      vertex 0.802475 -21.9613 1.5
      vertex -1.00725 -20.8766 1.5
    endloop
  endfacet
  facet normal -0.5141 -0.85773 -0
    outer loop
      vertex 0.802475 -21.9613 1.5
      vertex -1.00725 -20.8766 0
      vertex 0.802475 -21.9613 0
    endloop
  endfacet
  facet normal -0.146736 -0.989176 0
    outer loop
      vertex 6.74307 -24.0869 0
      vertex 8.83014 -24.3965 1.5
      vertex 6.74307 -24.0869 1.5
    endloop
  endfacet
  facet normal -0.146736 -0.989176 -0
    outer loop
      vertex 8.83014 -24.3965 1.5
      vertex 6.74307 -24.0869 0
      vertex 8.83014 -24.3965 0
    endloop
  endfacet
  facet normal -0.336887 -0.941545 0
    outer loop
      vertex 2.70981 -22.8634 0
      vertex 4.69638 -23.5742 1.5
      vertex 2.70981 -22.8634 1.5
    endloop
  endfacet
  facet normal -0.336887 -0.941545 -0
    outer loop
      vertex 4.69638 -23.5742 1.5
      vertex 2.70981 -22.8634 0
      vertex 4.69638 -23.5742 0
    endloop
  endfacet
  facet normal -0.671551 -0.740958 0
    outer loop
      vertex -4.26529 -18.2028 0
      vertex -2.70195 -19.6197 1.5
      vertex -4.26529 -18.2028 1.5
    endloop
  endfacet
  facet normal -0.671551 -0.740958 -0
    outer loop
      vertex -2.70195 -19.6197 1.5
      vertex -4.26529 -18.2028 0
      vertex -2.70195 -19.6197 0
    endloop
  endfacet
  facet normal -0.970028 -0.242994 0
    outer loop
      vertex -9.6367 -9.24112 0
      vertex -10.1494 -7.19443 1.5
      vertex -10.1494 -7.19443 0
    endloop
  endfacet
  facet normal -0.970028 -0.242994 0
    outer loop
      vertex -10.1494 -7.19443 1.5
      vertex -9.6367 -9.24112 0
      vertex -9.6367 -9.24112 1.5
    endloop
  endfacet
  facet normal 0.989765 0.142706 0
    outer loop
      vertex -10.9337 -2.03902 1.5
      vertex -10.9365 -2.0196 1.1
      vertex -10.9365 -2.0196 1.5
    endloop
  endfacet
  facet normal 0.989765 0.142706 0
    outer loop
      vertex -10.9365 -2.0196 1.1
      vertex -10.9337 -2.03902 1.5
      vertex -10.9337 -2.03902 1.1
    endloop
  endfacet
  facet normal 0.146844 0.98916 -0
    outer loop
      vertex -10.7571 -2.19904 1.1
      vertex -10.7765 -2.19616 1.5
      vertex -10.7571 -2.19904 1.5
    endloop
  endfacet
  facet normal 0.146844 0.98916 0
    outer loop
      vertex -10.7765 -2.19616 1.5
      vertex -10.7571 -2.19904 1.1
      vertex -10.7765 -2.19616 1.1
    endloop
  endfacet
  facet normal -0.998701 0.0509541 0
    outer loop
      vertex 10.9365 -2.0196 1.1
      vertex 10.9375 -2 1.5
      vertex 10.9375 -2 1.1
    endloop
  endfacet
  facet normal -0.998701 0.0509541 0
    outer loop
      vertex 10.9375 -2 1.5
      vertex 10.9365 -2.0196 1.1
      vertex 10.9365 -2.0196 1.5
    endloop
  endfacet
  facet normal 0.998701 0.0509541 0
    outer loop
      vertex -10.9365 -2.0196 1.5
      vertex -10.9375 -2 1.1
      vertex -10.9375 -2 1.5
    endloop
  endfacet
  facet normal 0.998701 0.0509541 0
    outer loop
      vertex -10.9375 -2 1.1
      vertex -10.9365 -2.0196 1.5
      vertex -10.9365 -2.0196 1.1
    endloop
  endfacet
  facet normal 0 -1 0
    outer loop
      vertex -10.7375 -1.8 1.1
      vertex 10.7375 -1.8 1.5
      vertex -10.7375 -1.8 1.5
    endloop
  endfacet
  facet normal 0 -1 -0
    outer loop
      vertex 10.7375 -1.8 1.5
      vertex -10.7375 -1.8 1.1
      vertex 10.7375 -1.8 1.1
    endloop
  endfacet
  facet normal 0.242297 -0.970202 0
    outer loop
      vertex -10.7956 -1.80861 1.1
      vertex -10.7765 -1.80384 1.5
      vertex -10.7956 -1.80861 1.5
    endloop
  endfacet
  facet normal 0.242297 -0.970202 0
    outer loop
      vertex -10.7765 -1.80384 1.5
      vertex -10.7956 -1.80861 1.1
      vertex -10.7765 -1.80384 1.1
    endloop
  endfacet
  facet normal -0.989765 0.142706 0
    outer loop
      vertex 10.9337 -2.03902 1.1
      vertex 10.9365 -2.0196 1.5
      vertex 10.9365 -2.0196 1.1
    endloop
  endfacet
  facet normal -0.989765 0.142706 0
    outer loop
      vertex 10.9365 -2.0196 1.5
      vertex 10.9337 -2.03902 1.1
      vertex 10.9337 -2.03902 1.5
    endloop
  endfacet
  facet normal 0.672622 -0.739986 0
    outer loop
      vertex -10.8789 -1.85858 1.1
      vertex -10.8644 -1.8454 1.5
      vertex -10.8789 -1.85858 1.5
    endloop
  endfacet
  facet normal 0.672622 -0.739986 0
    outer loop
      vertex -10.8644 -1.8454 1.5
      vertex -10.8789 -1.85858 1.1
      vertex -10.8644 -1.8454 1.1
    endloop
  endfacet
  facet normal -0.338085 -0.941115 0
    outer loop
      vertex 10.7956 -1.80861 1.1
      vertex 10.814 -1.81522 1.5
      vertex 10.7956 -1.80861 1.5
    endloop
  endfacet
  facet normal -0.338085 -0.941115 -0
    outer loop
      vertex 10.814 -1.81522 1.5
      vertex 10.7956 -1.80861 1.1
      vertex 10.814 -1.81522 1.1
    endloop
  endfacet
  facet normal -0.0489209 0.998803 0
    outer loop
      vertex 10.7571 -2.19904 1.1
      vertex 10.7375 -2.2 1.5
      vertex 10.7571 -2.19904 1.5
    endloop
  endfacet
  facet normal -0.0489209 0.998803 0
    outer loop
      vertex 10.7375 -2.2 1.5
      vertex 10.7571 -2.19904 1.1
      vertex 10.7375 -2.2 1.1
    endloop
  endfacet
  facet normal 0.514871 0.857268 -0
    outer loop
      vertex -10.8318 -2.17638 1.1
      vertex -10.8486 -2.16629 1.5
      vertex -10.8318 -2.17638 1.5
    endloop
  endfacet
  facet normal 0.514871 0.857268 0
    outer loop
      vertex -10.8486 -2.16629 1.5
      vertex -10.8318 -2.17638 1.1
      vertex -10.8486 -2.16629 1.1
    endloop
  endfacet
  facet normal -0.9038 -0.427955 0
    outer loop
      vertex 10.9223 -1.92346 1.1
      vertex 10.9139 -1.90572 1.5
      vertex 10.9139 -1.90572 1.1
    endloop
  endfacet
  facet normal -0.9038 -0.427955 0
    outer loop
      vertex 10.9139 -1.90572 1.5
      vertex 10.9223 -1.92346 1.1
      vertex 10.9223 -1.92346 1.5
    endloop
  endfacet
  facet normal 0.514871 -0.857268 0
    outer loop
      vertex -10.8486 -1.83371 1.1
      vertex -10.8318 -1.82362 1.5
      vertex -10.8486 -1.83371 1.5
    endloop
  endfacet
  facet normal 0.514871 -0.857268 0
    outer loop
      vertex -10.8318 -1.82362 1.5
      vertex -10.8486 -1.83371 1.1
      vertex -10.8318 -1.82362 1.1
    endloop
  endfacet
  facet normal -0.969661 -0.244452 0
    outer loop
      vertex 10.9337 -1.96098 1.1
      vertex 10.9289 -1.94194 1.5
      vertex 10.9289 -1.94194 1.1
    endloop
  endfacet
  facet normal -0.969661 -0.244452 0
    outer loop
      vertex 10.9289 -1.94194 1.5
      vertex 10.9337 -1.96098 1.1
      vertex 10.9337 -1.96098 1.5
    endloop
  endfacet
  facet normal 0 1 -0
    outer loop
      vertex 10.7375 -2.2 1.1
      vertex -10.7375 -2.2 1.5
      vertex 10.7375 -2.2 1.5
    endloop
  endfacet
  facet normal 0 1 0
    outer loop
      vertex -10.7375 -2.2 1.5
      vertex 10.7375 -2.2 1.1
      vertex -10.7375 -2.2 1.1
    endloop
  endfacet
  facet normal 0.803106 -0.595836 0
    outer loop
      vertex -10.9038 -1.88889 1.5
      vertex -10.8921 -1.87312 1.1
      vertex -10.8921 -1.87312 1.5
    endloop
  endfacet
  facet normal 0.803106 -0.595836 0
    outer loop
      vertex -10.8921 -1.87312 1.1
      vertex -10.9038 -1.88889 1.5
      vertex -10.9038 -1.88889 1.1
    endloop
  endfacet
  facet normal -0.857448 0.514571 0
    outer loop
      vertex 10.9038 -2.11111 1.1
      vertex 10.9139 -2.09428 1.5
      vertex 10.9139 -2.09428 1.1
    endloop
  endfacet
  facet normal -0.857448 0.514571 0
    outer loop
      vertex 10.9139 -2.09428 1.5
      vertex 10.9038 -2.11111 1.1
      vertex 10.9038 -2.11111 1.5
    endloop
  endfacet
  facet normal -0.803106 0.595836 0
    outer loop
      vertex 10.8921 -2.12688 1.1
      vertex 10.9038 -2.11111 1.5
      vertex 10.9038 -2.11111 1.1
    endloop
  endfacet
  facet normal -0.803106 0.595836 0
    outer loop
      vertex 10.9038 -2.11111 1.5
      vertex 10.8921 -2.12688 1.1
      vertex 10.8921 -2.12688 1.5
    endloop
  endfacet
  facet normal 0.969661 0.244452 0
    outer loop
      vertex -10.9289 -2.05806 1.5
      vertex -10.9337 -2.03902 1.1
      vertex -10.9337 -2.03902 1.5
    endloop
  endfacet
  facet normal 0.969661 0.244452 0
    outer loop
      vertex -10.9337 -2.03902 1.1
      vertex -10.9289 -2.05806 1.5
      vertex -10.9289 -2.05806 1.1
    endloop
  endfacet
  facet normal 0.426775 -0.904358 0
    outer loop
      vertex -10.8318 -1.82362 1.1
      vertex -10.814 -1.81522 1.5
      vertex -10.8318 -1.82362 1.5
    endloop
  endfacet
  facet normal 0.426775 -0.904358 0
    outer loop
      vertex -10.814 -1.81522 1.5
      vertex -10.8318 -1.82362 1.1
      vertex -10.814 -1.81522 1.1
    endloop
  endfacet
  facet normal -0.338085 0.941115 0
    outer loop
      vertex 10.814 -2.18478 1.1
      vertex 10.7956 -2.19139 1.5
      vertex 10.814 -2.18478 1.5
    endloop
  endfacet
  facet normal -0.338085 0.941115 0
    outer loop
      vertex 10.7956 -2.19139 1.5
      vertex 10.814 -2.18478 1.1
      vertex 10.7956 -2.19139 1.1
    endloop
  endfacet
  facet normal 0.426775 0.904358 -0
    outer loop
      vertex -10.814 -2.18478 1.1
      vertex -10.8318 -2.17638 1.5
      vertex -10.814 -2.18478 1.5
    endloop
  endfacet
  facet normal 0.426775 0.904358 0
    outer loop
      vertex -10.8318 -2.17638 1.5
      vertex -10.814 -2.18478 1.1
      vertex -10.8318 -2.17638 1.1
    endloop
  endfacet
  facet normal 0.740401 -0.672166 0
    outer loop
      vertex -10.8921 -1.87312 1.5
      vertex -10.8789 -1.85858 1.1
      vertex -10.8789 -1.85858 1.5
    endloop
  endfacet
  facet normal 0.740401 -0.672166 0
    outer loop
      vertex -10.8789 -1.85858 1.1
      vertex -10.8921 -1.87312 1.5
      vertex -10.8921 -1.87312 1.1
    endloop
  endfacet
  facet normal -0.0489209 -0.998803 0
    outer loop
      vertex 10.7375 -1.8 1.1
      vertex 10.7571 -1.80096 1.5
      vertex 10.7375 -1.8 1.5
    endloop
  endfacet
  facet normal -0.0489209 -0.998803 -0
    outer loop
      vertex 10.7571 -1.80096 1.5
      vertex 10.7375 -1.8 1.1
      vertex 10.7571 -1.80096 1.1
    endloop
  endfacet
  facet normal 0.969661 -0.244452 0
    outer loop
      vertex -10.9337 -1.96098 1.5
      vertex -10.9289 -1.94194 1.1
      vertex -10.9289 -1.94194 1.5
    endloop
  endfacet
  facet normal 0.969661 -0.244452 0
    outer loop
      vertex -10.9289 -1.94194 1.1
      vertex -10.9337 -1.96098 1.5
      vertex -10.9337 -1.96098 1.1
    endloop
  endfacet
  facet normal 0.941742 -0.336336 0
    outer loop
      vertex -10.9289 -1.94194 1.5
      vertex -10.9223 -1.92346 1.1
      vertex -10.9223 -1.92346 1.5
    endloop
  endfacet
  facet normal 0.941742 -0.336336 0
    outer loop
      vertex -10.9223 -1.92346 1.1
      vertex -10.9289 -1.94194 1.5
      vertex -10.9289 -1.94194 1.1
    endloop
  endfacet
  facet normal 0.857448 -0.514571 0
    outer loop
      vertex -10.9139 -1.90572 1.5
      vertex -10.9038 -1.88889 1.1
      vertex -10.9038 -1.88889 1.5
    endloop
  endfacet
  facet normal 0.857448 -0.514571 0
    outer loop
      vertex -10.9038 -1.88889 1.1
      vertex -10.9139 -1.90572 1.5
      vertex -10.9139 -1.90572 1.1
    endloop
  endfacet
  facet normal -0.242297 -0.970202 0
    outer loop
      vertex 10.7765 -1.80384 1.1
      vertex 10.7956 -1.80861 1.5
      vertex 10.7765 -1.80384 1.5
    endloop
  endfacet
  facet normal -0.242297 -0.970202 -0
    outer loop
      vertex 10.7956 -1.80861 1.5
      vertex 10.7765 -1.80384 1.1
      vertex 10.7956 -1.80861 1.1
    endloop
  endfacet
  facet normal 0.0489209 -0.998803 0
    outer loop
      vertex -10.7571 -1.80096 1.1
      vertex -10.7375 -1.8 1.5
      vertex -10.7571 -1.80096 1.5
    endloop
  endfacet
  facet normal 0.0489209 -0.998803 0
    outer loop
      vertex -10.7375 -1.8 1.5
      vertex -10.7571 -1.80096 1.1
      vertex -10.7375 -1.8 1.1
    endloop
  endfacet
  facet normal -0.426775 -0.904358 0
    outer loop
      vertex 10.814 -1.81522 1.1
      vertex 10.8318 -1.82362 1.5
      vertex 10.814 -1.81522 1.5
    endloop
  endfacet
  facet normal -0.426775 -0.904358 -0
    outer loop
      vertex 10.8318 -1.82362 1.5
      vertex 10.814 -1.81522 1.1
      vertex 10.8318 -1.82362 1.1
    endloop
  endfacet
  facet normal -0.998701 -0.0509541 0
    outer loop
      vertex 10.9375 -2 1.1
      vertex 10.9365 -1.9804 1.5
      vertex 10.9365 -1.9804 1.1
    endloop
  endfacet
  facet normal -0.998701 -0.0509541 0
    outer loop
      vertex 10.9365 -1.9804 1.5
      vertex 10.9375 -2 1.1
      vertex 10.9375 -2 1.5
    endloop
  endfacet
  facet normal 0.146844 -0.98916 0
    outer loop
      vertex -10.7765 -1.80384 1.1
      vertex -10.7571 -1.80096 1.5
      vertex -10.7765 -1.80384 1.5
    endloop
  endfacet
  facet normal 0.146844 -0.98916 0
    outer loop
      vertex -10.7571 -1.80096 1.5
      vertex -10.7765 -1.80384 1.1
      vertex -10.7571 -1.80096 1.1
    endloop
  endfacet
  facet normal -0.857448 -0.514571 0
    outer loop
      vertex 10.9139 -1.90572 1.1
      vertex 10.9038 -1.88889 1.5
      vertex 10.9038 -1.88889 1.1
    endloop
  endfacet
  facet normal -0.857448 -0.514571 0
    outer loop
      vertex 10.9038 -1.88889 1.5
      vertex 10.9139 -1.90572 1.1
      vertex 10.9139 -1.90572 1.5
    endloop
  endfacet
  facet normal -0.594777 -0.803891 0
    outer loop
      vertex 10.8486 -1.83371 1.1
      vertex 10.8644 -1.8454 1.5
      vertex 10.8486 -1.83371 1.5
    endloop
  endfacet
  facet normal -0.594777 -0.803891 -0
    outer loop
      vertex 10.8644 -1.8454 1.5
      vertex 10.8486 -1.83371 1.1
      vertex 10.8644 -1.8454 1.1
    endloop
  endfacet
  facet normal 0.594777 -0.803891 0
    outer loop
      vertex -10.8644 -1.8454 1.1
      vertex -10.8486 -1.83371 1.5
      vertex -10.8644 -1.8454 1.5
    endloop
  endfacet
  facet normal 0.594777 -0.803891 0
    outer loop
      vertex -10.8486 -1.83371 1.5
      vertex -10.8644 -1.8454 1.1
      vertex -10.8486 -1.83371 1.1
    endloop
  endfacet
  facet normal 0.242297 0.970202 -0
    outer loop
      vertex -10.7765 -2.19616 1.1
      vertex -10.7956 -2.19139 1.5
      vertex -10.7765 -2.19616 1.5
    endloop
  endfacet
  facet normal 0.242297 0.970202 0
    outer loop
      vertex -10.7956 -2.19139 1.5
      vertex -10.7765 -2.19616 1.1
      vertex -10.7956 -2.19139 1.1
    endloop
  endfacet
  facet normal 0.803106 0.595836 0
    outer loop
      vertex -10.8921 -2.12688 1.5
      vertex -10.9038 -2.11111 1.1
      vertex -10.9038 -2.11111 1.5
    endloop
  endfacet
  facet normal 0.803106 0.595836 0
    outer loop
      vertex -10.9038 -2.11111 1.1
      vertex -10.8921 -2.12688 1.5
      vertex -10.8921 -2.12688 1.1
    endloop
  endfacet
  facet normal -0.989765 -0.142706 0
    outer loop
      vertex 10.9365 -1.9804 1.1
      vertex 10.9337 -1.96098 1.5
      vertex 10.9337 -1.96098 1.1
    endloop
  endfacet
  facet normal -0.989765 -0.142706 0
    outer loop
      vertex 10.9337 -1.96098 1.5
      vertex 10.9365 -1.9804 1.1
      vertex 10.9365 -1.9804 1.5
    endloop
  endfacet
  facet normal 0.989765 -0.142706 0
    outer loop
      vertex -10.9365 -1.9804 1.5
      vertex -10.9337 -1.96098 1.1
      vertex -10.9337 -1.96098 1.5
    endloop
  endfacet
  facet normal 0.989765 -0.142706 0
    outer loop
      vertex -10.9337 -1.96098 1.1
      vertex -10.9365 -1.9804 1.5
      vertex -10.9365 -1.9804 1.1
    endloop
  endfacet
  facet normal 0.998701 -0.0509541 0
    outer loop
      vertex -10.9375 -2 1.5
      vertex -10.9365 -1.9804 1.1
      vertex -10.9365 -1.9804 1.5
    endloop
  endfacet
  facet normal 0.998701 -0.0509541 0
    outer loop
      vertex -10.9365 -1.9804 1.1
      vertex -10.9375 -2 1.5
      vertex -10.9375 -2 1.1
    endloop
  endfacet
  facet normal -0.740401 0.672166 0
    outer loop
      vertex 10.8789 -2.14142 1.1
      vertex 10.8921 -2.12688 1.5
      vertex 10.8921 -2.12688 1.1
    endloop
  endfacet
  facet normal -0.740401 0.672166 0
    outer loop
      vertex 10.8921 -2.12688 1.5
      vertex 10.8789 -2.14142 1.1
      vertex 10.8789 -2.14142 1.5
    endloop
  endfacet
  facet normal -0.146844 0.98916 0
    outer loop
      vertex 10.7765 -2.19616 1.1
      vertex 10.7571 -2.19904 1.5
      vertex 10.7765 -2.19616 1.5
    endloop
  endfacet
  facet normal -0.146844 0.98916 0
    outer loop
      vertex 10.7571 -2.19904 1.5
      vertex 10.7765 -2.19616 1.1
      vertex 10.7571 -2.19904 1.1
    endloop
  endfacet
  facet normal 0.338085 -0.941115 0
    outer loop
      vertex -10.814 -1.81522 1.1
      vertex -10.7956 -1.80861 1.5
      vertex -10.814 -1.81522 1.5
    endloop
  endfacet
  facet normal 0.338085 -0.941115 0
    outer loop
      vertex -10.7956 -1.80861 1.5
      vertex -10.814 -1.81522 1.1
      vertex -10.7956 -1.80861 1.1
    endloop
  endfacet
  facet normal -0.672622 -0.739986 0
    outer loop
      vertex 10.8644 -1.8454 1.1
      vertex 10.8789 -1.85858 1.5
      vertex 10.8644 -1.8454 1.5
    endloop
  endfacet
  facet normal -0.672622 -0.739986 -0
    outer loop
      vertex 10.8789 -1.85858 1.5
      vertex 10.8644 -1.8454 1.1
      vertex 10.8789 -1.85858 1.1
    endloop
  endfacet
  facet normal -0.969661 0.244452 0
    outer loop
      vertex 10.9289 -2.05806 1.1
      vertex 10.9337 -2.03902 1.5
      vertex 10.9337 -2.03902 1.1
    endloop
  endfacet
  facet normal -0.969661 0.244452 0
    outer loop
      vertex 10.9337 -2.03902 1.5
      vertex 10.9289 -2.05806 1.1
      vertex 10.9289 -2.05806 1.5
    endloop
  endfacet
  facet normal -0.514871 -0.857268 0
    outer loop
      vertex 10.8318 -1.82362 1.1
      vertex 10.8486 -1.83371 1.5
      vertex 10.8318 -1.82362 1.5
    endloop
  endfacet
  facet normal -0.514871 -0.857268 -0
    outer loop
      vertex 10.8486 -1.83371 1.5
      vertex 10.8318 -1.82362 1.1
      vertex 10.8486 -1.83371 1.1
    endloop
  endfacet
  facet normal 0.9038 -0.427955 0
    outer loop
      vertex -10.9223 -1.92346 1.5
      vertex -10.9139 -1.90572 1.1
      vertex -10.9139 -1.90572 1.5
    endloop
  endfacet
  facet normal 0.9038 -0.427955 0
    outer loop
      vertex -10.9139 -1.90572 1.1
      vertex -10.9223 -1.92346 1.5
      vertex -10.9223 -1.92346 1.1
    endloop
  endfacet
  facet normal -0.514871 0.857268 0
    outer loop
      vertex 10.8486 -2.16629 1.1
      vertex 10.8318 -2.17638 1.5
      vertex 10.8486 -2.16629 1.5
    endloop
  endfacet
  facet normal -0.514871 0.857268 0
    outer loop
      vertex 10.8318 -2.17638 1.5
      vertex 10.8486 -2.16629 1.1
      vertex 10.8318 -2.17638 1.1
    endloop
  endfacet
  facet normal -0.941742 -0.336336 0
    outer loop
      vertex 10.9289 -1.94194 1.1
      vertex 10.9223 -1.92346 1.5
      vertex 10.9223 -1.92346 1.1
    endloop
  endfacet
  facet normal -0.941742 -0.336336 0
    outer loop
      vertex 10.9223 -1.92346 1.5
      vertex 10.9289 -1.94194 1.1
      vertex 10.9289 -1.94194 1.5
    endloop
  endfacet
  facet normal -0.594777 0.803891 0
    outer loop
      vertex 10.8644 -2.1546 1.1
      vertex 10.8486 -2.16629 1.5
      vertex 10.8644 -2.1546 1.5
    endloop
  endfacet
  facet normal -0.594777 0.803891 0
    outer loop
      vertex 10.8486 -2.16629 1.5
      vertex 10.8644 -2.1546 1.1
      vertex 10.8486 -2.16629 1.1
    endloop
  endfacet
  facet normal 0.740401 0.672166 0
    outer loop
      vertex -10.8789 -2.14142 1.5
      vertex -10.8921 -2.12688 1.1
      vertex -10.8921 -2.12688 1.5
    endloop
  endfacet
  facet normal 0.740401 0.672166 0
    outer loop
      vertex -10.8921 -2.12688 1.1
      vertex -10.8789 -2.14142 1.5
      vertex -10.8789 -2.14142 1.1
    endloop
  endfacet
  facet normal -0.426775 0.904358 0
    outer loop
      vertex 10.8318 -2.17638 1.1
      vertex 10.814 -2.18478 1.5
      vertex 10.8318 -2.17638 1.5
    endloop
  endfacet
  facet normal -0.426775 0.904358 0
    outer loop
      vertex 10.814 -2.18478 1.5
      vertex 10.8318 -2.17638 1.1
      vertex 10.814 -2.18478 1.1
    endloop
  endfacet
  facet normal -0.740401 -0.672166 0
    outer loop
      vertex 10.8921 -1.87312 1.1
      vertex 10.8789 -1.85858 1.5
      vertex 10.8789 -1.85858 1.1
    endloop
  endfacet
  facet normal -0.740401 -0.672166 0
    outer loop
      vertex 10.8789 -1.85858 1.5
      vertex 10.8921 -1.87312 1.1
      vertex 10.8921 -1.87312 1.5
    endloop
  endfacet
  facet normal -0.242297 0.970202 0
    outer loop
      vertex 10.7956 -2.19139 1.1
      vertex 10.7765 -2.19616 1.5
      vertex 10.7956 -2.19139 1.5
    endloop
  endfacet
  facet normal -0.242297 0.970202 0
    outer loop
      vertex 10.7765 -2.19616 1.5
      vertex 10.7956 -2.19139 1.1
      vertex 10.7765 -2.19616 1.1
    endloop
  endfacet
  facet normal -0.803106 -0.595836 0
    outer loop
      vertex 10.9038 -1.88889 1.1
      vertex 10.8921 -1.87312 1.5
      vertex 10.8921 -1.87312 1.1
    endloop
  endfacet
  facet normal -0.803106 -0.595836 0
    outer loop
      vertex 10.8921 -1.87312 1.5
      vertex 10.9038 -1.88889 1.1
      vertex 10.9038 -1.88889 1.5
    endloop
  endfacet
  facet normal -0.146844 -0.98916 0
    outer loop
      vertex 10.7571 -1.80096 1.1
      vertex 10.7765 -1.80384 1.5
      vertex 10.7571 -1.80096 1.5
    endloop
  endfacet
  facet normal -0.146844 -0.98916 -0
    outer loop
      vertex 10.7765 -1.80384 1.5
      vertex 10.7571 -1.80096 1.1
      vertex 10.7765 -1.80384 1.1
    endloop
  endfacet
  facet normal -0.941742 0.336336 0
    outer loop
      vertex 10.9223 -2.07654 1.1
      vertex 10.9289 -2.05806 1.5
      vertex 10.9289 -2.05806 1.1
    endloop
  endfacet
  facet normal -0.941742 0.336336 0
    outer loop
      vertex 10.9289 -2.05806 1.5
      vertex 10.9223 -2.07654 1.1
      vertex 10.9223 -2.07654 1.5
    endloop
  endfacet
  facet normal -0.9038 0.427955 0
    outer loop
      vertex 10.9139 -2.09428 1.1
      vertex 10.9223 -2.07654 1.5
      vertex 10.9223 -2.07654 1.1
    endloop
  endfacet
  facet normal -0.9038 0.427955 0
    outer loop
      vertex 10.9223 -2.07654 1.5
      vertex 10.9139 -2.09428 1.1
      vertex 10.9139 -2.09428 1.5
    endloop
  endfacet
  facet normal 0.9038 0.427955 0
    outer loop
      vertex -10.9139 -2.09428 1.5
      vertex -10.9223 -2.07654 1.1
      vertex -10.9223 -2.07654 1.5
    endloop
  endfacet
  facet normal 0.9038 0.427955 0
    outer loop
      vertex -10.9223 -2.07654 1.1
      vertex -10.9139 -2.09428 1.5
      vertex -10.9139 -2.09428 1.1
    endloop
  endfacet
  facet normal 0.0489209 0.998803 -0
    outer loop
      vertex -10.7375 -2.2 1.1
      vertex -10.7571 -2.19904 1.5
      vertex -10.7375 -2.2 1.5
    endloop
  endfacet
  facet normal 0.0489209 0.998803 0
    outer loop
      vertex -10.7571 -2.19904 1.5
      vertex -10.7375 -2.2 1.1
      vertex -10.7571 -2.19904 1.1
    endloop
  endfacet
  facet normal 0.338085 0.941115 -0
    outer loop
      vertex -10.7956 -2.19139 1.1
      vertex -10.814 -2.18478 1.5
      vertex -10.7956 -2.19139 1.5
    endloop
  endfacet
  facet normal 0.338085 0.941115 0
    outer loop
      vertex -10.814 -2.18478 1.5
      vertex -10.7956 -2.19139 1.1
      vertex -10.814 -2.18478 1.1
    endloop
  endfacet
  facet normal -0.672622 0.739986 0
    outer loop
      vertex 10.8789 -2.14142 1.1
      vertex 10.8644 -2.1546 1.5
      vertex 10.8789 -2.14142 1.5
    endloop
  endfacet
  facet normal -0.672622 0.739986 0
    outer loop
      vertex 10.8644 -2.1546 1.5
      vertex 10.8789 -2.14142 1.1
      vertex 10.8644 -2.1546 1.1
    endloop
  endfacet
  facet normal 0.857448 0.514571 0
    outer loop
      vertex -10.9038 -2.11111 1.5
      vertex -10.9139 -2.09428 1.1
      vertex -10.9139 -2.09428 1.5
    endloop
  endfacet
  facet normal 0.857448 0.514571 0
    outer loop
      vertex -10.9139 -2.09428 1.1
      vertex -10.9038 -2.11111 1.5
      vertex -10.9038 -2.11111 1.1
    endloop
  endfacet
  facet normal 0.594777 0.803891 -0
    outer loop
      vertex -10.8486 -2.16629 1.1
      vertex -10.8644 -2.1546 1.5
      vertex -10.8486 -2.16629 1.5
    endloop
  endfacet
  facet normal 0.594777 0.803891 0
    outer loop
      vertex -10.8644 -2.1546 1.5
      vertex -10.8486 -2.16629 1.1
      vertex -10.8644 -2.1546 1.1
    endloop
  endfacet
  facet normal 0.672622 0.739986 -0
    outer loop
      vertex -10.8644 -2.1546 1.1
      vertex -10.8789 -2.14142 1.5
      vertex -10.8644 -2.1546 1.5
    endloop
  endfacet
  facet normal 0.672622 0.739986 0
    outer loop
      vertex -10.8789 -2.14142 1.5
      vertex -10.8644 -2.1546 1.1
      vertex -10.8789 -2.14142 1.1
    endloop
  endfacet
  facet normal 0 0 1
    outer loop
      vertex 10.9365 -1.9804 1.1
      vertex 10.9365 -2.0196 1.1
      vertex 10.9375 -2 1.1
    endloop
  endfacet
  facet normal 0 0 1
    outer loop
      vertex 10.9337 -1.96098 1.1
      vertex 10.9365 -2.0196 1.1
      vertex 10.9365 -1.9804 1.1
    endloop
  endfacet
  facet normal 0 0 1
    outer loop
      vertex 10.9337 -1.96098 1.1
      vertex 10.9337 -2.03902 1.1
      vertex 10.9365 -2.0196 1.1
    endloop
  endfacet
  facet normal 0 0 1
    outer loop
      vertex 10.9289 -1.94194 1.1
      vertex 10.9337 -2.03902 1.1
      vertex 10.9337 -1.96098 1.1
    endloop
  endfacet
  facet normal 0 0 1
    outer loop
      vertex 10.9289 -1.94194 1.1
      vertex 10.9289 -2.05806 1.1
      vertex 10.9337 -2.03902 1.1
    endloop
  endfacet
  facet normal 0 0 1
    outer loop
      vertex 10.9223 -1.92346 1.1
      vertex 10.9289 -2.05806 1.1
      vertex 10.9289 -1.94194 1.1
    endloop
  endfacet
  facet normal 0 0 1
    outer loop
      vertex 10.9223 -1.92346 1.1
      vertex 10.9223 -2.07654 1.1
      vertex 10.9289 -2.05806 1.1
    endloop
  endfacet
  facet normal 0 0 1
    outer loop
      vertex 10.9139 -1.90572 1.1
      vertex 10.9223 -2.07654 1.1
      vertex 10.9223 -1.92346 1.1
    endloop
  endfacet
  facet normal 0 0 1
    outer loop
      vertex 10.9139 -1.90572 1.1
      vertex 10.9139 -2.09428 1.1
      vertex 10.9223 -2.07654 1.1
    endloop
  endfacet
  facet normal 0 0 1
    outer loop
      vertex 10.9038 -1.88889 1.1
      vertex 10.9139 -2.09428 1.1
      vertex 10.9139 -1.90572 1.1
    endloop
  endfacet
  facet normal 0 0 1
    outer loop
      vertex 10.9038 -1.88889 1.1
      vertex 10.9038 -2.11111 1.1
      vertex 10.9139 -2.09428 1.1
    endloop
  endfacet
  facet normal 0 0 1
    outer loop
      vertex 10.8921 -1.87312 1.1
      vertex 10.9038 -2.11111 1.1
      vertex 10.9038 -1.88889 1.1
    endloop
  endfacet
  facet normal 0 0 1
    outer loop
      vertex 10.8921 -1.87312 1.1
      vertex 10.8921 -2.12688 1.1
      vertex 10.9038 -2.11111 1.1
    endloop
  endfacet
  facet normal 0 0 1
    outer loop
      vertex 10.8789 -1.85858 1.1
      vertex 10.8921 -2.12688 1.1
      vertex 10.8921 -1.87312 1.1
    endloop
  endfacet
  facet normal 0 0 1
    outer loop
      vertex 10.8789 -1.85858 1.1
      vertex 10.8789 -2.14142 1.1
      vertex 10.8921 -2.12688 1.1
    endloop
  endfacet
  facet normal 0 0 1
    outer loop
      vertex 10.8644 -1.8454 1.1
      vertex 10.8789 -2.14142 1.1
      vertex 10.8789 -1.85858 1.1
    endloop
  endfacet
  facet normal 0 0 1
    outer loop
      vertex 10.8644 -1.8454 1.1
      vertex 10.8644 -2.1546 1.1
      vertex 10.8789 -2.14142 1.1
    endloop
  endfacet
  facet normal 0 0 1
    outer loop
      vertex 10.8486 -1.83371 1.1
      vertex 10.8644 -2.1546 1.1
      vertex 10.8644 -1.8454 1.1
    endloop
  endfacet
  facet normal 0 0 1
    outer loop
      vertex 10.8486 -1.83371 1.1
      vertex 10.8486 -2.16629 1.1
      vertex 10.8644 -2.1546 1.1
    endloop
  endfacet
  facet normal 0 0 1
    outer loop
      vertex 10.8318 -1.82362 1.1
      vertex 10.8486 -2.16629 1.1
      vertex 10.8486 -1.83371 1.1
    endloop
  endfacet
  facet normal 0 0 1
    outer loop
      vertex 10.8318 -1.82362 1.1
      vertex 10.8318 -2.17638 1.1
      vertex 10.8486 -2.16629 1.1
    endloop
  endfacet
  facet normal 0 0 1
    outer loop
      vertex 10.814 -1.81522 1.1
      vertex 10.8318 -2.17638 1.1
      vertex 10.8318 -1.82362 1.1
    endloop
  endfacet
  facet normal 0 0 1
    outer loop
      vertex 10.814 -1.81522 1.1
      vertex 10.814 -2.18478 1.1
      vertex 10.8318 -2.17638 1.1
    endloop
  endfacet
  facet normal 0 0 1
    outer loop
      vertex 10.7956 -1.80861 1.1
      vertex 10.814 -2.18478 1.1
      vertex 10.814 -1.81522 1.1
    endloop
  endfacet
  facet normal 0 0 1
    outer loop
      vertex 10.7956 -1.80861 1.1
      vertex 10.7956 -2.19139 1.1
      vertex 10.814 -2.18478 1.1
    endloop
  endfacet
  facet normal 0 0 1
    outer loop
      vertex 10.7765 -1.80384 1.1
      vertex 10.7956 -2.19139 1.1
      vertex 10.7956 -1.80861 1.1
    endloop
  endfacet
  facet normal 0 0 1
    outer loop
      vertex 10.7765 -1.80384 1.1
      vertex 10.7765 -2.19616 1.1
      vertex 10.7956 -2.19139 1.1
    endloop
  endfacet
  facet normal 0 0 1
    outer loop
      vertex 10.7571 -1.80096 1.1
      vertex 10.7765 -2.19616 1.1
      vertex 10.7765 -1.80384 1.1
    endloop
  endfacet
  facet normal 0 0 1
    outer loop
      vertex 10.7571 -1.80096 1.1
      vertex 10.7571 -2.19904 1.1
      vertex 10.7765 -2.19616 1.1
    endloop
  endfacet
  facet normal 0 0 1
    outer loop
      vertex 10.7375 -1.8 1.1
      vertex 10.7571 -2.19904 1.1
      vertex 10.7571 -1.80096 1.1
    endloop
  endfacet
  facet normal 0 0 1
    outer loop
      vertex 10.7375 -1.8 1.1
      vertex 10.7375 -2.2 1.1
      vertex 10.7571 -2.19904 1.1
    endloop
  endfacet
  facet normal -0 0 1
    outer loop
      vertex -10.7375 -1.8 1.1
      vertex 10.7375 -2.2 1.1
      vertex 10.7375 -1.8 1.1
    endloop
  endfacet
  facet normal 0 0 1
    outer loop
      vertex -10.7375 -1.8 1.1
      vertex -10.7375 -2.2 1.1
      vertex 10.7375 -2.2 1.1
    endloop
  endfacet
  facet normal -0 0 1
    outer loop
      vertex -10.7571 -1.80096 1.1
      vertex -10.7375 -2.2 1.1
      vertex -10.7375 -1.8 1.1
    endloop
  endfacet
  facet normal 0 0 1
    outer loop
      vertex -10.7571 -1.80096 1.1
      vertex -10.7571 -2.19904 1.1
      vertex -10.7375 -2.2 1.1
    endloop
  endfacet
  facet normal -0 0 1
    outer loop
      vertex -10.7765 -1.80384 1.1
      vertex -10.7571 -2.19904 1.1
      vertex -10.7571 -1.80096 1.1
    endloop
  endfacet
  facet normal 0 0 1
    outer loop
      vertex -10.7765 -1.80384 1.1
      vertex -10.7765 -2.19616 1.1
      vertex -10.7571 -2.19904 1.1
    endloop
  endfacet
  facet normal -0 0 1
    outer loop
      vertex -10.7956 -1.80861 1.1
      vertex -10.7765 -2.19616 1.1
      vertex -10.7765 -1.80384 1.1
    endloop
  endfacet
  facet normal 0 0 1
    outer loop
      vertex -10.7956 -1.80861 1.1
      vertex -10.7956 -2.19139 1.1
      vertex -10.7765 -2.19616 1.1
    endloop
  endfacet
  facet normal -0 0 1
    outer loop
      vertex -10.814 -1.81522 1.1
      vertex -10.7956 -2.19139 1.1
      vertex -10.7956 -1.80861 1.1
    endloop
  endfacet
  facet normal 0 0 1
    outer loop
      vertex -10.814 -1.81522 1.1
      vertex -10.814 -2.18478 1.1
      vertex -10.7956 -2.19139 1.1
    endloop
  endfacet
  facet normal -0 0 1
    outer loop
      vertex -10.8318 -1.82362 1.1
      vertex -10.814 -2.18478 1.1
      vertex -10.814 -1.81522 1.1
    endloop
  endfacet
  facet normal 0 0 1
    outer loop
      vertex -10.8318 -1.82362 1.1
      vertex -10.8318 -2.17638 1.1
      vertex -10.814 -2.18478 1.1
    endloop
  endfacet
  facet normal -0 0 1
    outer loop
      vertex -10.8486 -1.83371 1.1
      vertex -10.8318 -2.17638 1.1
      vertex -10.8318 -1.82362 1.1
    endloop
  endfacet
  facet normal 0 0 1
    outer loop
      vertex -10.8486 -1.83371 1.1
      vertex -10.8486 -2.16629 1.1
      vertex -10.8318 -2.17638 1.1
    endloop
  endfacet
  facet normal -0 0 1
    outer loop
      vertex -10.8644 -1.8454 1.1
      vertex -10.8486 -2.16629 1.1
      vertex -10.8486 -1.83371 1.1
    endloop
  endfacet
  facet normal 0 0 1
    outer loop
      vertex -10.8644 -1.8454 1.1
      vertex -10.8644 -2.1546 1.1
      vertex -10.8486 -2.16629 1.1
    endloop
  endfacet
  facet normal -0 0 1
    outer loop
      vertex -10.8789 -1.85858 1.1
      vertex -10.8644 -2.1546 1.1
      vertex -10.8644 -1.8454 1.1
    endloop
  endfacet
  facet normal 0 0 1
    outer loop
      vertex -10.8789 -1.85858 1.1
      vertex -10.8789 -2.14142 1.1
      vertex -10.8644 -2.1546 1.1
    endloop
  endfacet
  facet normal -0 0 1
    outer loop
      vertex -10.8921 -1.87312 1.1
      vertex -10.8789 -2.14142 1.1
      vertex -10.8789 -1.85858 1.1
    endloop
  endfacet
  facet normal 0 0 1
    outer loop
      vertex -10.8921 -1.87312 1.1
      vertex -10.8921 -2.12688 1.1
      vertex -10.8789 -2.14142 1.1
    endloop
  endfacet
  facet normal -0 0 1
    outer loop
      vertex -10.9038 -1.88889 1.1
      vertex -10.8921 -2.12688 1.1
      vertex -10.8921 -1.87312 1.1
    endloop
  endfacet
  facet normal 0 0 1
    outer loop
      vertex -10.9038 -1.88889 1.1
      vertex -10.9038 -2.11111 1.1
      vertex -10.8921 -2.12688 1.1
    endloop
  endfacet
  facet normal -0 0 1
    outer loop
      vertex -10.9139 -1.90572 1.1
      vertex -10.9038 -2.11111 1.1
      vertex -10.9038 -1.88889 1.1
    endloop
  endfacet
  facet normal 0 0 1
    outer loop
      vertex -10.9139 -1.90572 1.1
      vertex -10.9139 -2.09428 1.1
      vertex -10.9038 -2.11111 1.1
    endloop
  endfacet
  facet normal -0 0 1
    outer loop
      vertex -10.9223 -1.92346 1.1
      vertex -10.9139 -2.09428 1.1
      vertex -10.9139 -1.90572 1.1
    endloop
  endfacet
  facet normal 0 0 1
    outer loop
      vertex -10.9223 -1.92346 1.1
      vertex -10.9223 -2.07654 1.1
      vertex -10.9139 -2.09428 1.1
    endloop
  endfacet
  facet normal -0 0 1
    outer loop
      vertex -10.9289 -1.94194 1.1
      vertex -10.9223 -2.07654 1.1
      vertex -10.9223 -1.92346 1.1
    endloop
  endfacet
  facet normal 0 0 1
    outer loop
      vertex -10.9289 -1.94194 1.1
      vertex -10.9289 -2.05806 1.1
      vertex -10.9223 -2.07654 1.1
    endloop
  endfacet
  facet normal -0 0 1
    outer loop
      vertex -10.9337 -1.96098 1.1
      vertex -10.9289 -2.05806 1.1
      vertex -10.9289 -1.94194 1.1
    endloop
  endfacet
  facet normal 0 0 1
    outer loop
      vertex -10.9337 -1.96098 1.1
      vertex -10.9337 -2.03902 1.1
      vertex -10.9289 -2.05806 1.1
    endloop
  endfacet
  facet normal -0 0 1
    outer loop
      vertex -10.9365 -1.9804 1.1
      vertex -10.9337 -2.03902 1.1
      vertex -10.9337 -1.96098 1.1
    endloop
  endfacet
  facet normal 0 0 1
    outer loop
      vertex -10.9365 -1.9804 1.1
      vertex -10.9365 -2.0196 1.1
      vertex -10.9337 -2.03902 1.1
    endloop
  endfacet
  facet normal 0 -0 1
    outer loop
      vertex -10.9365 -2.0196 1.1
      vertex -10.9365 -1.9804 1.1
      vertex -10.9375 -2 1.1
    endloop
  endfacet
  facet normal 0.941742 0.336336 0
    outer loop
      vertex -10.9223 -2.07654 1.5
      vertex -10.9289 -2.05806 1.1
      vertex -10.9289 -2.05806 1.5
    endloop
  endfacet
  facet normal 0.941742 0.336336 0
    outer loop
      vertex -10.9289 -2.05806 1.1
      vertex -10.9223 -2.07654 1.5
      vertex -10.9223 -2.07654 1.1
    endloop
  endfacet
endsolid OpenSCAD_Model
