solid OpenSCAD_Model
  facet normal 0 0 -1
    outer loop
      vertex 14.0625 -29.1875 0
      vertex 11.3425 -29.0539 0
      vertex 14.0625 -1.4375 0
    endloop
  endfacet
  facet normal 0 0 -1
    outer loop
      vertex 14.0625 -1.4375 0
      vertex 17.1875 1.4375 0
      vertex 17.1875 -1.4375 0
    endloop
  endfacet
  facet normal 0 0 -1
    outer loop
      vertex 8.64876 -28.6543 0
      vertex 14.0625 -1.4375 0
      vertex 11.3425 -29.0539 0
    endloop
  endfacet
  facet normal 0 0 -1
    outer loop
      vertex 6.00711 -27.9926 0
      vertex 14.0625 -1.4375 0
      vertex 8.64876 -28.6543 0
    endloop
  endfacet
  facet normal 0 0 -1
    outer loop
      vertex 3.44304 -27.0751 0
      vertex 14.0625 -1.4375 0
      vertex 6.00711 -27.9926 0
    endloop
  endfacet
  facet normal 0 0 -1
    outer loop
      vertex 0.981247 -25.9108 0
      vertex 14.0625 -1.4375 0
      vertex 3.44304 -27.0751 0
    endloop
  endfacet
  facet normal 0 0 -1
    outer loop
      vertex -1.35457 -24.5108 0
      vertex 14.0625 -1.4375 0
      vertex 0.981247 -25.9108 0
    endloop
  endfacet
  facet normal 0 0 -1
    outer loop
      vertex -3.5419 -22.8885 0
      vertex 14.0625 -1.4375 0
      vertex -1.35457 -24.5108 0
    endloop
  endfacet
  facet normal 0 0 -1
    outer loop
      vertex -5.55971 -21.0597 0
      vertex 14.0625 -1.4375 0
      vertex -3.5419 -22.8885 0
    endloop
  endfacet
  facet normal 0 0 -1
    outer loop
      vertex -7.38853 -19.0419 0
      vertex 14.0625 -1.4375 0
      vertex -5.55971 -21.0597 0
    endloop
  endfacet
  facet normal 0 0 -1
    outer loop
      vertex -9.01077 -16.8546 0
      vertex 14.0625 -1.4375 0
      vertex -7.38853 -19.0419 0
    endloop
  endfacet
  facet normal 0 0 -1
    outer loop
      vertex -10.4108 -14.5188 0
      vertex 14.0625 -1.4375 0
      vertex -9.01077 -16.8546 0
    endloop
  endfacet
  facet normal 0 0 -1
    outer loop
      vertex -11.5751 -12.057 0
      vertex 14.0625 -1.4375 0
      vertex -10.4108 -14.5188 0
    endloop
  endfacet
  facet normal 0 0 -1
    outer loop
      vertex -12.4926 -9.49289 0
      vertex 14.0625 -1.4375 0
      vertex -11.5751 -12.057 0
    endloop
  endfacet
  facet normal 0 0 -1
    outer loop
      vertex -13.1543 -6.85124 0
      vertex 14.0625 -1.4375 0
      vertex -12.4926 -9.49289 0
    endloop
  endfacet
  facet normal 0 0 -1
    outer loop
      vertex -13.5539 -4.15747 0
      vertex 14.0625 -1.4375 0
      vertex -13.1543 -6.85124 0
    endloop
  endfacet
  facet normal 0 0 -1
    outer loop
      vertex -13.6875 -1.4375 0
      vertex 14.0625 -1.4375 0
      vertex -13.5539 -4.15747 0
    endloop
  endfacet
  facet normal 0 0 -1
    outer loop
      vertex 14.0625 -1.4375 0
      vertex -13.6875 -1.4375 0
      vertex 17.1875 1.4375 0
    endloop
  endfacet
  facet normal 0 0 -1
    outer loop
      vertex -17.1875 1.4375 0
      vertex -13.6875 -1.4375 0
      vertex -17.1875 -1.4375 0
    endloop
  endfacet
  facet normal 0 0 -1
    outer loop
      vertex -13.6875 -1.4375 0
      vertex -17.1875 1.4375 0
      vertex 17.1875 1.4375 0
    endloop
  endfacet
  facet normal 1 0 0
    outer loop
      vertex -14.0625 1.4375 7
      vertex -14.0625 -0.437499 1.5
      vertex -14.0625 1.4375 1.5
    endloop
  endfacet
  facet normal 1 -0 0
    outer loop
      vertex -14.0625 -1.4375 7
      vertex -14.0625 -0.437499 1.5
      vertex -14.0625 1.4375 7
    endloop
  endfacet
  facet normal 1 0 0
    outer loop
      vertex -14.0625 -0.437499 1.5
      vertex -14.0625 -1.4375 7
      vertex -14.0625 -1.4375 1.5
    endloop
  endfacet
  facet normal 0 -1 0
    outer loop
      vertex 14.0625 -1.4375 1.5
      vertex 17.1875 -1.4375 7
      vertex 14.0625 -1.4375 7
    endloop
  endfacet
  facet normal 0 -1 0
    outer loop
      vertex 17.1875 -1.4375 0
      vertex 14.0625 -1.4375 1.5
      vertex 14.0625 -1.4375 0
    endloop
  endfacet
  facet normal 0 -1 0
    outer loop
      vertex 14.0625 -1.4375 1.5
      vertex 17.1875 -1.4375 0
      vertex 17.1875 -1.4375 7
    endloop
  endfacet
  facet normal 0 -1 0
    outer loop
      vertex -17.1875 -1.4375 7
      vertex -14.0625 -1.4375 1.5
      vertex -14.0625 -1.4375 7
    endloop
  endfacet
  facet normal 0 -1 0
    outer loop
      vertex -17.1875 -1.4375 0
      vertex -14.0625 -1.4375 1.5
      vertex -17.1875 -1.4375 7
    endloop
  endfacet
  facet normal 0 -1 0
    outer loop
      vertex -13.6875 -1.4375 0
      vertex -14.0625 -1.4375 1.5
      vertex -17.1875 -1.4375 0
    endloop
  endfacet
  facet normal 0 -1 0
    outer loop
      vertex -14.0625 -1.4375 1.5
      vertex -13.6875 -1.4375 0
      vertex -13.6875 -1.4375 1.5
    endloop
  endfacet
  facet normal -0 0 1
    outer loop
      vertex -17.1875 1.4375 7
      vertex -14.0625 -1.4375 7
      vertex -14.0625 1.4375 7
    endloop
  endfacet
  facet normal 0 0 1
    outer loop
      vertex -14.0625 -1.4375 7
      vertex -17.1875 1.4375 7
      vertex -17.1875 -1.4375 7
    endloop
  endfacet
  facet normal -1 0 0
    outer loop
      vertex -17.1875 -1.4375 0
      vertex -17.1875 1.4375 7
      vertex -17.1875 1.4375 0
    endloop
  endfacet
  facet normal -1 -0 0
    outer loop
      vertex -17.1875 1.4375 7
      vertex -17.1875 -1.4375 0
      vertex -17.1875 -1.4375 7
    endloop
  endfacet
  facet normal 0 1 0
    outer loop
      vertex 17.1875 1.4375 7
      vertex 14.0625 1.4375 1.5
      vertex 14.0625 1.4375 7
    endloop
  endfacet
  facet normal 0 1 0
    outer loop
      vertex 14.0625 1.4375 1.5
      vertex 17.1875 1.4375 0
      vertex -14.0625 1.4375 1.5
    endloop
  endfacet
  facet normal 0 1 -0
    outer loop
      vertex 17.1875 1.4375 0
      vertex 14.0625 1.4375 1.5
      vertex 17.1875 1.4375 7
    endloop
  endfacet
  facet normal 0 1 -0
    outer loop
      vertex -14.0625 1.4375 1.5
      vertex -17.1875 1.4375 7
      vertex -14.0625 1.4375 7
    endloop
  endfacet
  facet normal 0 1 0
    outer loop
      vertex -14.0625 1.4375 1.5
      vertex -17.1875 1.4375 0
      vertex -17.1875 1.4375 7
    endloop
  endfacet
  facet normal 0 1 0
    outer loop
      vertex -17.1875 1.4375 0
      vertex -14.0625 1.4375 1.5
      vertex 17.1875 1.4375 0
    endloop
  endfacet
  facet normal 1 -0 0
    outer loop
      vertex 17.1875 -1.4375 7
      vertex 17.1875 1.4375 0
      vertex 17.1875 1.4375 7
    endloop
  endfacet
  facet normal 1 0 0
    outer loop
      vertex 17.1875 1.4375 0
      vertex 17.1875 -1.4375 7
      vertex 17.1875 -1.4375 0
    endloop
  endfacet
  facet normal -0 0 1
    outer loop
      vertex 14.0625 1.4375 7
      vertex 17.1875 -1.4375 7
      vertex 17.1875 1.4375 7
    endloop
  endfacet
  facet normal 0 0 1
    outer loop
      vertex 17.1875 -1.4375 7
      vertex 14.0625 1.4375 7
      vertex 14.0625 -1.4375 7
    endloop
  endfacet
  facet normal -1 0 0
    outer loop
      vertex 14.0625 -0.437499 1.5
      vertex 14.0625 1.4375 7
      vertex 14.0625 1.4375 1.5
    endloop
  endfacet
  facet normal -1 0 0
    outer loop
      vertex 14.0625 -1.4375 7
      vertex 14.0625 -0.437499 1.5
      vertex 14.0625 -1.4375 1.5
    endloop
  endfacet
  facet normal -1 0 0
    outer loop
      vertex 14.0625 -0.437499 1.5
      vertex 14.0625 -1.4375 7
      vertex 14.0625 1.4375 7
    endloop
  endfacet
  facet normal -0 0 1
    outer loop
      vertex 14.0615 -0.457103 1.5
      vertex 14.0625 -1.4375 1.5
      vertex 14.0625 -0.437499 1.5
    endloop
  endfacet
  facet normal -0 0 1
    outer loop
      vertex 14.0587 -0.476518 1.5
      vertex 14.0625 -1.4375 1.5
      vertex 14.0615 -0.457103 1.5
    endloop
  endfacet
  facet normal -0 0 1
    outer loop
      vertex 14.0539 -0.495557 1.5
      vertex 14.0625 -1.4375 1.5
      vertex 14.0587 -0.476518 1.5
    endloop
  endfacet
  facet normal -0 0 1
    outer loop
      vertex 14.0473 -0.514036 1.5
      vertex 14.0625 -1.4375 1.5
      vertex 14.0539 -0.495557 1.5
    endloop
  endfacet
  facet normal -0 0 1
    outer loop
      vertex 14.0389 -0.531779 1.5
      vertex 14.0625 -1.4375 1.5
      vertex 14.0473 -0.514036 1.5
    endloop
  endfacet
  facet normal -0 0 1
    outer loop
      vertex 14.0288 -0.548614 1.5
      vertex 14.0625 -1.4375 1.5
      vertex 14.0389 -0.531779 1.5
    endloop
  endfacet
  facet normal -0 0 1
    outer loop
      vertex 14.0171 -0.564378 1.5
      vertex 14.0625 -1.4375 1.5
      vertex 14.0288 -0.548614 1.5
    endloop
  endfacet
  facet normal -0 0 1
    outer loop
      vertex 14.0039 -0.578921 1.5
      vertex 14.0625 -1.4375 1.5
      vertex 14.0171 -0.564378 1.5
    endloop
  endfacet
  facet normal -0 0 1
    outer loop
      vertex 13.9894 -0.592102 1.5
      vertex 14.0625 -1.4375 1.5
      vertex 14.0039 -0.578921 1.5
    endloop
  endfacet
  facet normal -0 0 1
    outer loop
      vertex 13.9736 -0.603793 1.5
      vertex 14.0625 -1.4375 1.5
      vertex 13.9894 -0.592102 1.5
    endloop
  endfacet
  facet normal -0 0 1
    outer loop
      vertex 13.9568 -0.613884 1.5
      vertex 14.0625 -1.4375 1.5
      vertex 13.9736 -0.603793 1.5
    endloop
  endfacet
  facet normal -0 0 1
    outer loop
      vertex 13.939 -0.622275 1.5
      vertex 14.0625 -1.4375 1.5
      vertex 13.9568 -0.613884 1.5
    endloop
  endfacet
  facet normal -0 0 1
    outer loop
      vertex 13.9206 -0.628887 1.5
      vertex 14.0625 -1.4375 1.5
      vertex 13.939 -0.622275 1.5
    endloop
  endfacet
  facet normal -0 0 1
    outer loop
      vertex 13.9015 -0.633657 1.5
      vertex 14.0625 -1.4375 1.5
      vertex 13.9206 -0.628887 1.5
    endloop
  endfacet
  facet normal -0 0 1
    outer loop
      vertex 13.8821 -0.636537 1.5
      vertex 14.0625 -1.4375 1.5
      vertex 13.9015 -0.633657 1.5
    endloop
  endfacet
  facet normal -0 0 1
    outer loop
      vertex 13.8625 -0.6375 1.5
      vertex 14.0625 -1.4375 1.5
      vertex 13.8821 -0.636537 1.5
    endloop
  endfacet
  facet normal 0 0 1
    outer loop
      vertex -13.1543 -6.85124 1.5
      vertex 14.0625 -1.4375 1.5
      vertex 13.8625 -0.6375 1.5
    endloop
  endfacet
  facet normal 0 0 1
    outer loop
      vertex 14.0625 -1.4375 1.5
      vertex 11.3425 -29.0539 1.5
      vertex 14.0625 -29.1875 1.5
    endloop
  endfacet
  facet normal 0 0 1
    outer loop
      vertex 14.0625 -1.4375 1.5
      vertex 8.64876 -28.6543 1.5
      vertex 11.3425 -29.0539 1.5
    endloop
  endfacet
  facet normal 0 0 1
    outer loop
      vertex 14.0625 -1.4375 1.5
      vertex 6.00711 -27.9926 1.5
      vertex 8.64876 -28.6543 1.5
    endloop
  endfacet
  facet normal 0 0 1
    outer loop
      vertex 14.0625 -1.4375 1.5
      vertex 3.44304 -27.0751 1.5
      vertex 6.00711 -27.9926 1.5
    endloop
  endfacet
  facet normal 0 0 1
    outer loop
      vertex 14.0625 -1.4375 1.5
      vertex 0.981247 -25.9108 1.5
      vertex 3.44304 -27.0751 1.5
    endloop
  endfacet
  facet normal 0 0 1
    outer loop
      vertex 14.0625 -1.4375 1.5
      vertex -1.35457 -24.5108 1.5
      vertex 0.981247 -25.9108 1.5
    endloop
  endfacet
  facet normal 0 0 1
    outer loop
      vertex 14.0625 -1.4375 1.5
      vertex -3.5419 -22.8885 1.5
      vertex -1.35457 -24.5108 1.5
    endloop
  endfacet
  facet normal 0 0 1
    outer loop
      vertex 14.0625 -1.4375 1.5
      vertex -5.55971 -21.0597 1.5
      vertex -3.5419 -22.8885 1.5
    endloop
  endfacet
  facet normal 0 0 1
    outer loop
      vertex 14.0625 -1.4375 1.5
      vertex -7.38853 -19.0419 1.5
      vertex -5.55971 -21.0597 1.5
    endloop
  endfacet
  facet normal 0 0 1
    outer loop
      vertex 14.0625 -1.4375 1.5
      vertex -9.01077 -16.8546 1.5
      vertex -7.38853 -19.0419 1.5
    endloop
  endfacet
  facet normal 0 0 1
    outer loop
      vertex 14.0625 -1.4375 1.5
      vertex -10.4108 -14.5188 1.5
      vertex -9.01077 -16.8546 1.5
    endloop
  endfacet
  facet normal 0 0 1
    outer loop
      vertex 14.0625 -1.4375 1.5
      vertex -11.5751 -12.057 1.5
      vertex -10.4108 -14.5188 1.5
    endloop
  endfacet
  facet normal 0 0 1
    outer loop
      vertex 14.0625 -1.4375 1.5
      vertex -12.4926 -9.49289 1.5
      vertex -11.5751 -12.057 1.5
    endloop
  endfacet
  facet normal 0 0 1
    outer loop
      vertex 14.0625 -1.4375 1.5
      vertex -13.1543 -6.85124 1.5
      vertex -12.4926 -9.49289 1.5
    endloop
  endfacet
  facet normal 0 0 1
    outer loop
      vertex 13.8625 -0.6375 1.5
      vertex -13.5539 -4.15747 1.5
      vertex -13.1543 -6.85124 1.5
    endloop
  endfacet
  facet normal 0 0 1
    outer loop
      vertex 13.8625 -0.6375 1.5
      vertex -13.6875 -1.4375 1.5
      vertex -13.5539 -4.15747 1.5
    endloop
  endfacet
  facet normal -0 0 1
    outer loop
      vertex -13.8625 -0.6375 1.5
      vertex -13.6875 -1.4375 1.5
      vertex 13.8625 -0.6375 1.5
    endloop
  endfacet
  facet normal 0 0 1
    outer loop
      vertex -14.0625 -1.4375 1.5
      vertex -13.8625 -0.6375 1.5
      vertex -13.8821 -0.636537 1.5
    endloop
  endfacet
  facet normal 0 0 1
    outer loop
      vertex -14.0625 -1.4375 1.5
      vertex -13.8821 -0.636537 1.5
      vertex -13.9015 -0.633657 1.5
    endloop
  endfacet
  facet normal 0 0 1
    outer loop
      vertex -14.0625 -1.4375 1.5
      vertex -13.9015 -0.633657 1.5
      vertex -13.9206 -0.628887 1.5
    endloop
  endfacet
  facet normal 0 0 1
    outer loop
      vertex -14.0625 -1.4375 1.5
      vertex -13.9206 -0.628887 1.5
      vertex -13.939 -0.622275 1.5
    endloop
  endfacet
  facet normal 0 0 1
    outer loop
      vertex -14.0625 -1.4375 1.5
      vertex -13.939 -0.622275 1.5
      vertex -13.9568 -0.613884 1.5
    endloop
  endfacet
  facet normal 0 0 1
    outer loop
      vertex -14.0625 -1.4375 1.5
      vertex -13.9568 -0.613884 1.5
      vertex -13.9736 -0.603793 1.5
    endloop
  endfacet
  facet normal 0 0 1
    outer loop
      vertex -14.0625 -1.4375 1.5
      vertex -13.9736 -0.603793 1.5
      vertex -13.9894 -0.592102 1.5
    endloop
  endfacet
  facet normal 0 0 1
    outer loop
      vertex -14.0625 -1.4375 1.5
      vertex -13.9894 -0.592102 1.5
      vertex -14.0039 -0.578921 1.5
    endloop
  endfacet
  facet normal 0 0 1
    outer loop
      vertex -14.0625 -1.4375 1.5
      vertex -14.0039 -0.578921 1.5
      vertex -14.0171 -0.564378 1.5
    endloop
  endfacet
  facet normal 0 0 1
    outer loop
      vertex -14.0625 -1.4375 1.5
      vertex -14.0171 -0.564378 1.5
      vertex -14.0288 -0.548614 1.5
    endloop
  endfacet
  facet normal 0 0 1
    outer loop
      vertex -14.0625 -1.4375 1.5
      vertex -14.0288 -0.548614 1.5
      vertex -14.0389 -0.531779 1.5
    endloop
  endfacet
  facet normal 0 0 1
    outer loop
      vertex -14.0625 -1.4375 1.5
      vertex -14.0389 -0.531779 1.5
      vertex -14.0473 -0.514036 1.5
    endloop
  endfacet
  facet normal 0 0 1
    outer loop
      vertex -13.8625 -0.6375 1.5
      vertex -14.0625 -1.4375 1.5
      vertex -13.6875 -1.4375 1.5
    endloop
  endfacet
  facet normal 0 0 1
    outer loop
      vertex -14.0539 -0.495557 1.5
      vertex -14.0625 -1.4375 1.5
      vertex -14.0473 -0.514036 1.5
    endloop
  endfacet
  facet normal 0 0 1
    outer loop
      vertex -14.0587 -0.476518 1.5
      vertex -14.0625 -1.4375 1.5
      vertex -14.0539 -0.495557 1.5
    endloop
  endfacet
  facet normal 0 0 1
    outer loop
      vertex -14.0615 -0.457103 1.5
      vertex -14.0625 -1.4375 1.5
      vertex -14.0587 -0.476518 1.5
    endloop
  endfacet
  facet normal 0 0 1
    outer loop
      vertex -14.0625 -1.4375 1.5
      vertex -14.0615 -0.457103 1.5
      vertex -14.0625 -0.437499 1.5
    endloop
  endfacet
  facet normal 0 0 1
    outer loop
      vertex 14.0625 1.4375 1.5
      vertex 14.0615 -0.417896 1.5
      vertex 14.0625 -0.437499 1.5
    endloop
  endfacet
  facet normal 0 0 1
    outer loop
      vertex 14.0625 1.4375 1.5
      vertex 14.0587 -0.398481 1.5
      vertex 14.0615 -0.417896 1.5
    endloop
  endfacet
  facet normal 0 0 1
    outer loop
      vertex 14.0625 1.4375 1.5
      vertex 14.0539 -0.379442 1.5
      vertex 14.0587 -0.398481 1.5
    endloop
  endfacet
  facet normal 0 0 1
    outer loop
      vertex 14.0625 1.4375 1.5
      vertex 14.0473 -0.360963 1.5
      vertex 14.0539 -0.379442 1.5
    endloop
  endfacet
  facet normal 0 0 1
    outer loop
      vertex 14.0625 1.4375 1.5
      vertex 14.0389 -0.34322 1.5
      vertex 14.0473 -0.360963 1.5
    endloop
  endfacet
  facet normal 0 0 1
    outer loop
      vertex 14.0625 1.4375 1.5
      vertex 14.0288 -0.326385 1.5
      vertex 14.0389 -0.34322 1.5
    endloop
  endfacet
  facet normal 0 0 1
    outer loop
      vertex 14.0625 1.4375 1.5
      vertex 14.0171 -0.310621 1.5
      vertex 14.0288 -0.326385 1.5
    endloop
  endfacet
  facet normal 0 0 1
    outer loop
      vertex 14.0625 1.4375 1.5
      vertex 14.0039 -0.296078 1.5
      vertex 14.0171 -0.310621 1.5
    endloop
  endfacet
  facet normal 0 0 1
    outer loop
      vertex 14.0625 1.4375 1.5
      vertex 13.9894 -0.282897 1.5
      vertex 14.0039 -0.296078 1.5
    endloop
  endfacet
  facet normal 0 0 1
    outer loop
      vertex 14.0625 1.4375 1.5
      vertex 13.9736 -0.271206 1.5
      vertex 13.9894 -0.282897 1.5
    endloop
  endfacet
  facet normal 0 0 1
    outer loop
      vertex 14.0625 1.4375 1.5
      vertex 13.9568 -0.261115 1.5
      vertex 13.9736 -0.271206 1.5
    endloop
  endfacet
  facet normal 0 0 1
    outer loop
      vertex 14.0625 1.4375 1.5
      vertex 13.939 -0.252724 1.5
      vertex 13.9568 -0.261115 1.5
    endloop
  endfacet
  facet normal 0 0 1
    outer loop
      vertex 14.0625 1.4375 1.5
      vertex 13.9206 -0.246112 1.5
      vertex 13.939 -0.252724 1.5
    endloop
  endfacet
  facet normal 0 0 1
    outer loop
      vertex 14.0625 1.4375 1.5
      vertex 13.9015 -0.241343 1.5
      vertex 13.9206 -0.246112 1.5
    endloop
  endfacet
  facet normal 0 0 1
    outer loop
      vertex 14.0625 1.4375 1.5
      vertex 13.8821 -0.238462 1.5
      vertex 13.9015 -0.241343 1.5
    endloop
  endfacet
  facet normal 0 0 1
    outer loop
      vertex 14.0625 1.4375 1.5
      vertex 13.8625 -0.237499 1.5
      vertex 13.8821 -0.238462 1.5
    endloop
  endfacet
  facet normal 0 0 1
    outer loop
      vertex 14.0625 1.4375 1.5
      vertex -13.8625 -0.237499 1.5
      vertex 13.8625 -0.237499 1.5
    endloop
  endfacet
  facet normal -0 0 1
    outer loop
      vertex -14.0625 1.4375 1.5
      vertex -13.8625 -0.237499 1.5
      vertex 14.0625 1.4375 1.5
    endloop
  endfacet
  facet normal 0 0 1
    outer loop
      vertex -13.8625 -0.237499 1.5
      vertex -14.0625 1.4375 1.5
      vertex -13.8821 -0.238462 1.5
    endloop
  endfacet
  facet normal 0 0 1
    outer loop
      vertex -14.0625 1.4375 1.5
      vertex -13.9015 -0.241343 1.5
      vertex -13.8821 -0.238462 1.5
    endloop
  endfacet
  facet normal 0 0 1
    outer loop
      vertex -14.0625 1.4375 1.5
      vertex -13.9206 -0.246112 1.5
      vertex -13.9015 -0.241343 1.5
    endloop
  endfacet
  facet normal 0 0 1
    outer loop
      vertex -14.0625 1.4375 1.5
      vertex -13.939 -0.252724 1.5
      vertex -13.9206 -0.246112 1.5
    endloop
  endfacet
  facet normal 0 0 1
    outer loop
      vertex -14.0625 1.4375 1.5
      vertex -13.9568 -0.261115 1.5
      vertex -13.939 -0.252724 1.5
    endloop
  endfacet
  facet normal 0 0 1
    outer loop
      vertex -14.0625 1.4375 1.5
      vertex -13.9736 -0.271206 1.5
      vertex -13.9568 -0.261115 1.5
    endloop
  endfacet
  facet normal 0 0 1
    outer loop
      vertex -14.0625 1.4375 1.5
      vertex -13.9894 -0.282897 1.5
      vertex -13.9736 -0.271206 1.5
    endloop
  endfacet
  facet normal 0 0 1
    outer loop
      vertex -14.0625 1.4375 1.5
      vertex -14.0039 -0.296078 1.5
      vertex -13.9894 -0.282897 1.5
    endloop
  endfacet
  facet normal 0 0 1
    outer loop
      vertex -14.0625 1.4375 1.5
      vertex -14.0171 -0.310621 1.5
      vertex -14.0039 -0.296078 1.5
    endloop
  endfacet
  facet normal 0 0 1
    outer loop
      vertex -14.0625 1.4375 1.5
      vertex -14.0288 -0.326385 1.5
      vertex -14.0171 -0.310621 1.5
    endloop
  endfacet
  facet normal 0 0 1
    outer loop
      vertex -14.0625 1.4375 1.5
      vertex -14.0389 -0.34322 1.5
      vertex -14.0288 -0.326385 1.5
    endloop
  endfacet
  facet normal 0 0 1
    outer loop
      vertex -14.0625 1.4375 1.5
      vertex -14.0473 -0.360963 1.5
      vertex -14.0389 -0.34322 1.5
    endloop
  endfacet
  facet normal 0 0 1
    outer loop
      vertex -14.0625 1.4375 1.5
      vertex -14.0539 -0.379442 1.5
      vertex -14.0473 -0.360963 1.5
    endloop
  endfacet
  facet normal 0 0 1
    outer loop
      vertex -14.0625 1.4375 1.5
      vertex -14.0587 -0.398481 1.5
      vertex -14.0539 -0.379442 1.5
    endloop
  endfacet
  facet normal 0 0 1
    outer loop
      vertex -14.0625 1.4375 1.5
      vertex -14.0615 -0.417896 1.5
      vertex -14.0587 -0.398481 1.5
    endloop
  endfacet
  facet normal 0 0 1
    outer loop
      vertex -14.0615 -0.417896 1.5
      vertex -14.0625 1.4375 1.5
      vertex -14.0625 -0.437499 1.5
    endloop
  endfacet
  facet normal -0.998796 -0.049059 0
    outer loop
      vertex -13.5539 -4.15747 0
      vertex -13.6875 -1.4375 1.5
      vertex -13.6875 -1.4375 0
    endloop
  endfacet
  facet normal -0.998796 -0.049059 0
    outer loop
      vertex -13.6875 -1.4375 1.5
      vertex -13.5539 -4.15747 0
      vertex -13.5539 -4.15747 1.5
    endloop
  endfacet
  facet normal -0.242981 -0.970031 0
    outer loop
      vertex 6.00711 -27.9926 0
      vertex 8.64876 -28.6543 1.5
      vertex 6.00711 -27.9926 1.5
    endloop
  endfacet
  facet normal -0.242981 -0.970031 -0
    outer loop
      vertex 8.64876 -28.6543 1.5
      vertex 6.00711 -27.9926 0
      vertex 8.64876 -28.6543 0
    endloop
  endfacet
  facet normal 1 -0 0
    outer loop
      vertex 14.0625 -29.1875 1.5
      vertex 14.0625 -1.4375 0
      vertex 14.0625 -1.4375 1.5
    endloop
  endfacet
  facet normal 1 0 0
    outer loop
      vertex 14.0625 -1.4375 0
      vertex 14.0625 -29.1875 1.5
      vertex 14.0625 -29.1875 0
    endloop
  endfacet
  facet normal -0.0490585 -0.998796 0
    outer loop
      vertex 11.3425 -29.0539 0
      vertex 14.0625 -29.1875 1.5
      vertex 11.3425 -29.0539 1.5
    endloop
  endfacet
  facet normal -0.0490585 -0.998796 -0
    outer loop
      vertex 14.0625 -29.1875 1.5
      vertex 11.3425 -29.0539 0
      vertex 14.0625 -29.1875 0
    endloop
  endfacet
  facet normal -0.857728 -0.514104 0
    outer loop
      vertex -9.01077 -16.8546 0
      vertex -10.4108 -14.5188 1.5
      vertex -10.4108 -14.5188 0
    endloop
  endfacet
  facet normal -0.857728 -0.514104 0
    outer loop
      vertex -10.4108 -14.5188 1.5
      vertex -9.01077 -16.8546 0
      vertex -9.01077 -16.8546 1.5
    endloop
  endfacet
  facet normal -0.671552 -0.740958 0
    outer loop
      vertex -5.55971 -21.0597 0
      vertex -3.5419 -22.8885 1.5
      vertex -5.55971 -21.0597 1.5
    endloop
  endfacet
  facet normal -0.671552 -0.740958 -0
    outer loop
      vertex -3.5419 -22.8885 1.5
      vertex -5.55971 -21.0597 0
      vertex -3.5419 -22.8885 0
    endloop
  endfacet
  facet normal -0.803203 -0.595706 0
    outer loop
      vertex -7.38853 -19.0419 0
      vertex -9.01077 -16.8546 1.5
      vertex -9.01077 -16.8546 0
    endloop
  endfacet
  facet normal -0.803203 -0.595706 0
    outer loop
      vertex -9.01077 -16.8546 1.5
      vertex -7.38853 -19.0419 0
      vertex -7.38853 -19.0419 1.5
    endloop
  endfacet
  facet normal -0.740952 -0.671557 0
    outer loop
      vertex -5.55971 -21.0597 0
      vertex -7.38853 -19.0419 1.5
      vertex -7.38853 -19.0419 0
    endloop
  endfacet
  facet normal -0.740952 -0.671557 0
    outer loop
      vertex -7.38853 -19.0419 1.5
      vertex -5.55971 -21.0597 0
      vertex -5.55971 -21.0597 1.5
    endloop
  endfacet
  facet normal -0.514093 -0.857734 0
    outer loop
      vertex -1.35457 -24.5108 0
      vertex 0.981247 -25.9108 1.5
      vertex -1.35457 -24.5108 1.5
    endloop
  endfacet
  facet normal -0.514093 -0.857734 -0
    outer loop
      vertex 0.981247 -25.9108 1.5
      vertex -1.35457 -24.5108 0
      vertex 0.981247 -25.9108 0
    endloop
  endfacet
  facet normal -0.989176 -0.146737 0
    outer loop
      vertex -13.1543 -6.85124 0
      vertex -13.5539 -4.15747 1.5
      vertex -13.5539 -4.15747 0
    endloop
  endfacet
  facet normal -0.989176 -0.146737 0
    outer loop
      vertex -13.5539 -4.15747 1.5
      vertex -13.1543 -6.85124 0
      vertex -13.1543 -6.85124 1.5
    endloop
  endfacet
  facet normal -0.146738 -0.989175 0
    outer loop
      vertex 8.64876 -28.6543 0
      vertex 11.3425 -29.0539 1.5
      vertex 8.64876 -28.6543 1.5
    endloop
  endfacet
  facet normal -0.146738 -0.989175 -0
    outer loop
      vertex 11.3425 -29.0539 1.5
      vertex 8.64876 -28.6543 0
      vertex 11.3425 -29.0539 0
    endloop
  endfacet
  facet normal -0.33691 -0.941537 0
    outer loop
      vertex 3.44304 -27.0751 0
      vertex 6.00711 -27.9926 1.5
      vertex 3.44304 -27.0751 1.5
    endloop
  endfacet
  facet normal -0.33691 -0.941537 -0
    outer loop
      vertex 6.00711 -27.9926 1.5
      vertex 3.44304 -27.0751 0
      vertex 6.00711 -27.9926 0
    endloop
  endfacet
  facet normal -0.903996 -0.427542 0
    outer loop
      vertex -10.4108 -14.5188 0
      vertex -11.5751 -12.057 1.5
      vertex -11.5751 -12.057 0
    endloop
  endfacet
  facet normal -0.903996 -0.427542 0
    outer loop
      vertex -11.5751 -12.057 1.5
      vertex -10.4108 -14.5188 0
      vertex -10.4108 -14.5188 1.5
    endloop
  endfacet
  facet normal -0.427543 -0.903995 0
    outer loop
      vertex 0.981247 -25.9108 0
      vertex 3.44304 -27.0751 1.5
      vertex 0.981247 -25.9108 1.5
    endloop
  endfacet
  facet normal -0.427543 -0.903995 -0
    outer loop
      vertex 3.44304 -27.0751 1.5
      vertex 0.981247 -25.9108 0
      vertex 3.44304 -27.0751 0
    endloop
  endfacet
  facet normal -0.941539 -0.336905 0
    outer loop
      vertex -11.5751 -12.057 0
      vertex -12.4926 -9.49289 1.5
      vertex -12.4926 -9.49289 0
    endloop
  endfacet
  facet normal -0.941539 -0.336905 0
    outer loop
      vertex -12.4926 -9.49289 1.5
      vertex -11.5751 -12.057 0
      vertex -11.5751 -12.057 1.5
    endloop
  endfacet
  facet normal -0.595715 -0.803196 0
    outer loop
      vertex -3.5419 -22.8885 0
      vertex -1.35457 -24.5108 1.5
      vertex -3.5419 -22.8885 1.5
    endloop
  endfacet
  facet normal -0.595715 -0.803196 -0
    outer loop
      vertex -1.35457 -24.5108 1.5
      vertex -3.5419 -22.8885 0
      vertex -1.35457 -24.5108 0
    endloop
  endfacet
  facet normal -0.970031 -0.242981 0
    outer loop
      vertex -12.4926 -9.49289 0
      vertex -13.1543 -6.85124 1.5
      vertex -13.1543 -6.85124 0
    endloop
  endfacet
  facet normal -0.970031 -0.242981 0
    outer loop
      vertex -13.1543 -6.85124 1.5
      vertex -12.4926 -9.49289 0
      vertex -12.4926 -9.49289 1.5
    endloop
  endfacet
  facet normal 0.98976 0.142742 0
    outer loop
      vertex -14.0587 -0.476518 1.5
      vertex -14.0615 -0.457103 1.1
      vertex -14.0615 -0.457103 1.5
    endloop
  endfacet
  facet normal 0.98976 0.142742 0
    outer loop
      vertex -14.0615 -0.457103 1.1
      vertex -14.0587 -0.476518 1.5
      vertex -14.0587 -0.476518 1.1
    endloop
  endfacet
  facet normal 0.146844 0.98916 -0
    outer loop
      vertex -13.8821 -0.636537 1.1
      vertex -13.9015 -0.633657 1.5
      vertex -13.8821 -0.636537 1.5
    endloop
  endfacet
  facet normal 0.146844 0.98916 0
    outer loop
      vertex -13.9015 -0.633657 1.5
      vertex -13.8821 -0.636537 1.1
      vertex -13.9015 -0.633657 1.1
    endloop
  endfacet
  facet normal -0.998702 0.0509438 0
    outer loop
      vertex 14.0615 -0.457103 1.1
      vertex 14.0625 -0.437499 1.5
      vertex 14.0625 -0.437499 1.1
    endloop
  endfacet
  facet normal -0.998702 0.0509438 0
    outer loop
      vertex 14.0625 -0.437499 1.5
      vertex 14.0615 -0.457103 1.1
      vertex 14.0615 -0.457103 1.5
    endloop
  endfacet
  facet normal 0.998702 0.0509438 0
    outer loop
      vertex -14.0615 -0.457103 1.5
      vertex -14.0625 -0.437499 1.1
      vertex -14.0625 -0.437499 1.5
    endloop
  endfacet
  facet normal 0.998702 0.0509438 0
    outer loop
      vertex -14.0625 -0.437499 1.1
      vertex -14.0615 -0.457103 1.5
      vertex -14.0615 -0.457103 1.1
    endloop
  endfacet
  facet normal 0 -1 0
    outer loop
      vertex -13.8625 -0.237499 1.1
      vertex 13.8625 -0.237499 1.5
      vertex -13.8625 -0.237499 1.5
    endloop
  endfacet
  facet normal 0 -1 -0
    outer loop
      vertex 13.8625 -0.237499 1.5
      vertex -13.8625 -0.237499 1.1
      vertex 13.8625 -0.237499 1.1
    endloop
  endfacet
  facet normal 0.242249 -0.970214 0
    outer loop
      vertex -13.9206 -0.246112 1.1
      vertex -13.9015 -0.241343 1.5
      vertex -13.9206 -0.246112 1.5
    endloop
  endfacet
  facet normal 0.242249 -0.970214 0
    outer loop
      vertex -13.9015 -0.241343 1.5
      vertex -13.9206 -0.246112 1.1
      vertex -13.9015 -0.241343 1.1
    endloop
  endfacet
  facet normal -0.98976 0.142742 0
    outer loop
      vertex 14.0587 -0.476518 1.1
      vertex 14.0615 -0.457103 1.5
      vertex 14.0615 -0.457103 1.1
    endloop
  endfacet
  facet normal -0.98976 0.142742 0
    outer loop
      vertex 14.0615 -0.457103 1.5
      vertex 14.0587 -0.476518 1.1
      vertex 14.0587 -0.476518 1.5
    endloop
  endfacet
  facet normal 0.67265 -0.739961 0
    outer loop
      vertex -14.0039 -0.296078 1.1
      vertex -13.9894 -0.282897 1.5
      vertex -14.0039 -0.296078 1.5
    endloop
  endfacet
  facet normal 0.67265 -0.739961 0
    outer loop
      vertex -13.9894 -0.282897 1.5
      vertex -14.0039 -0.296078 1.1
      vertex -13.9894 -0.282897 1.1
    endloop
  endfacet
  facet normal -0.338176 -0.941083 0
    outer loop
      vertex 13.9206 -0.246112 1.1
      vertex 13.939 -0.252724 1.5
      vertex 13.9206 -0.246112 1.5
    endloop
  endfacet
  facet normal -0.338176 -0.941083 -0
    outer loop
      vertex 13.939 -0.252724 1.5
      vertex 13.9206 -0.246112 1.1
      vertex 13.939 -0.252724 1.1
    endloop
  endfacet
  facet normal -0.0490735 0.998795 0
    outer loop
      vertex 13.8821 -0.636537 1.1
      vertex 13.8625 -0.6375 1.5
      vertex 13.8821 -0.636537 1.5
    endloop
  endfacet
  facet normal -0.0490735 0.998795 0
    outer loop
      vertex 13.8625 -0.6375 1.5
      vertex 13.8821 -0.636537 1.1
      vertex 13.8625 -0.6375 1.1
    endloop
  endfacet
  facet normal 0.514908 0.857245 -0
    outer loop
      vertex -13.9568 -0.613884 1.1
      vertex -13.9736 -0.603793 1.5
      vertex -13.9568 -0.613884 1.5
    endloop
  endfacet
  facet normal 0.514908 0.857245 0
    outer loop
      vertex -13.9736 -0.603793 1.5
      vertex -13.9568 -0.613884 1.1
      vertex -13.9736 -0.603793 1.1
    endloop
  endfacet
  facet normal -0.903828 -0.427896 0
    outer loop
      vertex 14.0473 -0.360963 1.1
      vertex 14.0389 -0.34322 1.5
      vertex 14.0389 -0.34322 1.1
    endloop
  endfacet
  facet normal -0.903828 -0.427896 0
    outer loop
      vertex 14.0389 -0.34322 1.5
      vertex 14.0473 -0.360963 1.1
      vertex 14.0473 -0.360963 1.5
    endloop
  endfacet
  facet normal 0.514908 -0.857245 0
    outer loop
      vertex -13.9736 -0.271206 1.1
      vertex -13.9568 -0.261115 1.5
      vertex -13.9736 -0.271206 1.5
    endloop
  endfacet
  facet normal 0.514908 -0.857245 0
    outer loop
      vertex -13.9568 -0.261115 1.5
      vertex -13.9736 -0.271206 1.1
      vertex -13.9568 -0.261115 1.1
    endloop
  endfacet
  facet normal -0.969658 -0.244464 0
    outer loop
      vertex 14.0587 -0.398481 1.1
      vertex 14.0539 -0.379442 1.5
      vertex 14.0539 -0.379442 1.1
    endloop
  endfacet
  facet normal -0.969658 -0.244464 0
    outer loop
      vertex 14.0539 -0.379442 1.5
      vertex 14.0587 -0.398481 1.1
      vertex 14.0587 -0.398481 1.5
    endloop
  endfacet
  facet normal 0 1 -0
    outer loop
      vertex 13.8625 -0.6375 1.1
      vertex -13.8625 -0.6375 1.5
      vertex 13.8625 -0.6375 1.5
    endloop
  endfacet
  facet normal 0 1 0
    outer loop
      vertex -13.8625 -0.6375 1.5
      vertex 13.8625 -0.6375 1.1
      vertex -13.8625 -0.6375 1.1
    endloop
  endfacet
  facet normal 0.802997 -0.595983 0
    outer loop
      vertex -14.0288 -0.326385 1.5
      vertex -14.0171 -0.310621 1.1
      vertex -14.0171 -0.310621 1.5
    endloop
  endfacet
  facet normal 0.802997 -0.595983 0
    outer loop
      vertex -14.0171 -0.310621 1.1
      vertex -14.0288 -0.326385 1.5
      vertex -14.0288 -0.326385 1.1
    endloop
  endfacet
  facet normal -0.857515 0.514458 0
    outer loop
      vertex 14.0288 -0.548614 1.1
      vertex 14.0389 -0.531779 1.5
      vertex 14.0389 -0.531779 1.1
    endloop
  endfacet
  facet normal -0.857515 0.514458 0
    outer loop
      vertex 14.0389 -0.531779 1.5
      vertex 14.0288 -0.548614 1.1
      vertex 14.0288 -0.548614 1.5
    endloop
  endfacet
  facet normal -0.802997 0.595983 0
    outer loop
      vertex 14.0171 -0.564378 1.1
      vertex 14.0288 -0.548614 1.5
      vertex 14.0288 -0.548614 1.1
    endloop
  endfacet
  facet normal -0.802997 0.595983 0
    outer loop
      vertex 14.0288 -0.548614 1.5
      vertex 14.0171 -0.564378 1.1
      vertex 14.0171 -0.564378 1.5
    endloop
  endfacet
  facet normal 0.338176 0.941083 -0
    outer loop
      vertex -13.9206 -0.628887 1.1
      vertex -13.939 -0.622275 1.5
      vertex -13.9206 -0.628887 1.5
    endloop
  endfacet
  facet normal 0.338176 0.941083 0
    outer loop
      vertex -13.939 -0.622275 1.5
      vertex -13.9206 -0.628887 1.1
      vertex -13.939 -0.622275 1.1
    endloop
  endfacet
  facet normal 0.969658 0.244464 0
    outer loop
      vertex -14.0539 -0.495557 1.5
      vertex -14.0587 -0.476518 1.1
      vertex -14.0587 -0.476518 1.5
    endloop
  endfacet
  facet normal 0.969658 0.244464 0
    outer loop
      vertex -14.0587 -0.476518 1.1
      vertex -14.0539 -0.495557 1.5
      vertex -14.0539 -0.495557 1.1
    endloop
  endfacet
  facet normal 0.426401 -0.904534 0
    outer loop
      vertex -13.9568 -0.261115 1.1
      vertex -13.939 -0.252724 1.5
      vertex -13.9568 -0.261115 1.5
    endloop
  endfacet
  facet normal 0.426401 -0.904534 0
    outer loop
      vertex -13.939 -0.252724 1.5
      vertex -13.9568 -0.261115 1.1
      vertex -13.939 -0.252724 1.1
    endloop
  endfacet
  facet normal -0.338176 0.941083 0
    outer loop
      vertex 13.939 -0.622275 1.1
      vertex 13.9206 -0.628887 1.5
      vertex 13.939 -0.622275 1.5
    endloop
  endfacet
  facet normal -0.338176 0.941083 0
    outer loop
      vertex 13.9206 -0.628887 1.5
      vertex 13.939 -0.622275 1.1
      vertex 13.9206 -0.628887 1.1
    endloop
  endfacet
  facet normal 0.426401 0.904534 -0
    outer loop
      vertex -13.939 -0.622275 1.1
      vertex -13.9568 -0.613884 1.5
      vertex -13.939 -0.622275 1.5
    endloop
  endfacet
  facet normal 0.426401 0.904534 0
    outer loop
      vertex -13.9568 -0.613884 1.5
      vertex -13.939 -0.622275 1.1
      vertex -13.9568 -0.613884 1.1
    endloop
  endfacet
  facet normal 0.74047 -0.67209 0
    outer loop
      vertex -14.0171 -0.310621 1.5
      vertex -14.0039 -0.296078 1.1
      vertex -14.0039 -0.296078 1.5
    endloop
  endfacet
  facet normal 0.74047 -0.67209 0
    outer loop
      vertex -14.0039 -0.296078 1.1
      vertex -14.0171 -0.310621 1.5
      vertex -14.0171 -0.310621 1.1
    endloop
  endfacet
  facet normal 0.969658 -0.244464 0
    outer loop
      vertex -14.0587 -0.398481 1.5
      vertex -14.0539 -0.379442 1.1
      vertex -14.0539 -0.379442 1.5
    endloop
  endfacet
  facet normal 0.969658 -0.244464 0
    outer loop
      vertex -14.0539 -0.379442 1.1
      vertex -14.0587 -0.398481 1.5
      vertex -14.0587 -0.398481 1.1
    endloop
  endfacet
  facet normal 0.941736 -0.336353 0
    outer loop
      vertex -14.0539 -0.379442 1.5
      vertex -14.0473 -0.360963 1.1
      vertex -14.0473 -0.360963 1.5
    endloop
  endfacet
  facet normal 0.941736 -0.336353 0
    outer loop
      vertex -14.0473 -0.360963 1.1
      vertex -14.0539 -0.379442 1.5
      vertex -14.0539 -0.379442 1.1
    endloop
  endfacet
  facet normal 0.857515 -0.514458 0
    outer loop
      vertex -14.0389 -0.34322 1.5
      vertex -14.0288 -0.326385 1.1
      vertex -14.0288 -0.326385 1.5
    endloop
  endfacet
  facet normal 0.857515 -0.514458 0
    outer loop
      vertex -14.0288 -0.326385 1.1
      vertex -14.0389 -0.34322 1.5
      vertex -14.0389 -0.34322 1.1
    endloop
  endfacet
  facet normal -0.242249 -0.970214 0
    outer loop
      vertex 13.9015 -0.241343 1.1
      vertex 13.9206 -0.246112 1.5
      vertex 13.9015 -0.241343 1.5
    endloop
  endfacet
  facet normal -0.242249 -0.970214 -0
    outer loop
      vertex 13.9206 -0.246112 1.5
      vertex 13.9015 -0.241343 1.1
      vertex 13.9206 -0.246112 1.1
    endloop
  endfacet
  facet normal 0.0490735 -0.998795 0
    outer loop
      vertex -13.8821 -0.238462 1.1
      vertex -13.8625 -0.237499 1.5
      vertex -13.8821 -0.238462 1.5
    endloop
  endfacet
  facet normal 0.0490735 -0.998795 0
    outer loop
      vertex -13.8625 -0.237499 1.5
      vertex -13.8821 -0.238462 1.1
      vertex -13.8625 -0.237499 1.1
    endloop
  endfacet
  facet normal -0.426401 -0.904534 0
    outer loop
      vertex 13.939 -0.252724 1.1
      vertex 13.9568 -0.261115 1.5
      vertex 13.939 -0.252724 1.5
    endloop
  endfacet
  facet normal -0.426401 -0.904534 -0
    outer loop
      vertex 13.9568 -0.261115 1.5
      vertex 13.939 -0.252724 1.1
      vertex 13.9568 -0.261115 1.1
    endloop
  endfacet
  facet normal -0.998701 -0.0509464 0
    outer loop
      vertex 14.0625 -0.437499 1.1
      vertex 14.0615 -0.417896 1.5
      vertex 14.0615 -0.417896 1.1
    endloop
  endfacet
  facet normal -0.998701 -0.0509464 0
    outer loop
      vertex 14.0615 -0.417896 1.5
      vertex 14.0625 -0.437499 1.1
      vertex 14.0625 -0.437499 1.5
    endloop
  endfacet
  facet normal 0.146894 -0.989152 0
    outer loop
      vertex -13.9015 -0.241343 1.1
      vertex -13.8821 -0.238462 1.5
      vertex -13.9015 -0.241343 1.5
    endloop
  endfacet
  facet normal 0.146894 -0.989152 0
    outer loop
      vertex -13.8821 -0.238462 1.5
      vertex -13.9015 -0.241343 1.1
      vertex -13.8821 -0.238462 1.1
    endloop
  endfacet
  facet normal -0.857515 -0.514458 0
    outer loop
      vertex 14.0389 -0.34322 1.1
      vertex 14.0288 -0.326385 1.5
      vertex 14.0288 -0.326385 1.1
    endloop
  endfacet
  facet normal -0.857515 -0.514458 0
    outer loop
      vertex 14.0288 -0.326385 1.5
      vertex 14.0389 -0.34322 1.1
      vertex 14.0389 -0.34322 1.5
    endloop
  endfacet
  facet normal -0.59481 -0.803866 0
    outer loop
      vertex 13.9736 -0.271206 1.1
      vertex 13.9894 -0.282897 1.5
      vertex 13.9736 -0.271206 1.5
    endloop
  endfacet
  facet normal -0.59481 -0.803866 -0
    outer loop
      vertex 13.9894 -0.282897 1.5
      vertex 13.9736 -0.271206 1.1
      vertex 13.9894 -0.282897 1.1
    endloop
  endfacet
  facet normal 0.59481 -0.803866 0
    outer loop
      vertex -13.9894 -0.282897 1.1
      vertex -13.9736 -0.271206 1.5
      vertex -13.9894 -0.282897 1.5
    endloop
  endfacet
  facet normal 0.59481 -0.803866 0
    outer loop
      vertex -13.9736 -0.271206 1.5
      vertex -13.9894 -0.282897 1.1
      vertex -13.9736 -0.271206 1.1
    endloop
  endfacet
  facet normal 0.242297 0.970202 -0
    outer loop
      vertex -13.9015 -0.633657 1.1
      vertex -13.9206 -0.628887 1.5
      vertex -13.9015 -0.633657 1.5
    endloop
  endfacet
  facet normal 0.242297 0.970202 0
    outer loop
      vertex -13.9206 -0.628887 1.5
      vertex -13.9015 -0.633657 1.1
      vertex -13.9206 -0.628887 1.1
    endloop
  endfacet
  facet normal 0.802997 0.595983 0
    outer loop
      vertex -14.0171 -0.564378 1.5
      vertex -14.0288 -0.548614 1.1
      vertex -14.0288 -0.548614 1.5
    endloop
  endfacet
  facet normal 0.802997 0.595983 0
    outer loop
      vertex -14.0288 -0.548614 1.1
      vertex -14.0171 -0.564378 1.5
      vertex -14.0171 -0.564378 1.1
    endloop
  endfacet
  facet normal -0.98976 -0.142742 0
    outer loop
      vertex 14.0615 -0.417896 1.1
      vertex 14.0587 -0.398481 1.5
      vertex 14.0587 -0.398481 1.1
    endloop
  endfacet
  facet normal -0.98976 -0.142742 0
    outer loop
      vertex 14.0587 -0.398481 1.5
      vertex 14.0615 -0.417896 1.1
      vertex 14.0615 -0.417896 1.5
    endloop
  endfacet
  facet normal 0.98976 -0.142742 0
    outer loop
      vertex -14.0615 -0.417896 1.5
      vertex -14.0587 -0.398481 1.1
      vertex -14.0587 -0.398481 1.5
    endloop
  endfacet
  facet normal 0.98976 -0.142742 0
    outer loop
      vertex -14.0587 -0.398481 1.1
      vertex -14.0615 -0.417896 1.5
      vertex -14.0615 -0.417896 1.1
    endloop
  endfacet
  facet normal 0.998701 -0.0509464 0
    outer loop
      vertex -14.0625 -0.437499 1.5
      vertex -14.0615 -0.417896 1.1
      vertex -14.0615 -0.417896 1.5
    endloop
  endfacet
  facet normal 0.998701 -0.0509464 0
    outer loop
      vertex -14.0615 -0.417896 1.1
      vertex -14.0625 -0.437499 1.5
      vertex -14.0625 -0.437499 1.1
    endloop
  endfacet
  facet normal -0.74047 0.67209 0
    outer loop
      vertex 14.0039 -0.578921 1.1
      vertex 14.0171 -0.564378 1.5
      vertex 14.0171 -0.564378 1.1
    endloop
  endfacet
  facet normal -0.74047 0.67209 0
    outer loop
      vertex 14.0171 -0.564378 1.5
      vertex 14.0039 -0.578921 1.1
      vertex 14.0039 -0.578921 1.5
    endloop
  endfacet
  facet normal -0.146844 0.98916 0
    outer loop
      vertex 13.9015 -0.633657 1.1
      vertex 13.8821 -0.636537 1.5
      vertex 13.9015 -0.633657 1.5
    endloop
  endfacet
  facet normal -0.146844 0.98916 0
    outer loop
      vertex 13.8821 -0.636537 1.5
      vertex 13.9015 -0.633657 1.1
      vertex 13.8821 -0.636537 1.1
    endloop
  endfacet
  facet normal 0.338176 -0.941083 0
    outer loop
      vertex -13.939 -0.252724 1.1
      vertex -13.9206 -0.246112 1.5
      vertex -13.939 -0.252724 1.5
    endloop
  endfacet
  facet normal 0.338176 -0.941083 0
    outer loop
      vertex -13.9206 -0.246112 1.5
      vertex -13.939 -0.252724 1.1
      vertex -13.9206 -0.246112 1.1
    endloop
  endfacet
  facet normal -0.67265 -0.739961 0
    outer loop
      vertex 13.9894 -0.282897 1.1
      vertex 14.0039 -0.296078 1.5
      vertex 13.9894 -0.282897 1.5
    endloop
  endfacet
  facet normal -0.67265 -0.739961 -0
    outer loop
      vertex 14.0039 -0.296078 1.5
      vertex 13.9894 -0.282897 1.1
      vertex 14.0039 -0.296078 1.1
    endloop
  endfacet
  facet normal -0.969658 0.244464 0
    outer loop
      vertex 14.0539 -0.495557 1.1
      vertex 14.0587 -0.476518 1.5
      vertex 14.0587 -0.476518 1.1
    endloop
  endfacet
  facet normal -0.969658 0.244464 0
    outer loop
      vertex 14.0587 -0.476518 1.5
      vertex 14.0539 -0.495557 1.1
      vertex 14.0539 -0.495557 1.5
    endloop
  endfacet
  facet normal -0.514908 -0.857245 0
    outer loop
      vertex 13.9568 -0.261115 1.1
      vertex 13.9736 -0.271206 1.5
      vertex 13.9568 -0.261115 1.5
    endloop
  endfacet
  facet normal -0.514908 -0.857245 -0
    outer loop
      vertex 13.9736 -0.271206 1.5
      vertex 13.9568 -0.261115 1.1
      vertex 13.9736 -0.271206 1.1
    endloop
  endfacet
  facet normal 0.903828 -0.427896 0
    outer loop
      vertex -14.0473 -0.360963 1.5
      vertex -14.0389 -0.34322 1.1
      vertex -14.0389 -0.34322 1.5
    endloop
  endfacet
  facet normal 0.903828 -0.427896 0
    outer loop
      vertex -14.0389 -0.34322 1.1
      vertex -14.0473 -0.360963 1.5
      vertex -14.0473 -0.360963 1.1
    endloop
  endfacet
  facet normal -0.514908 0.857245 0
    outer loop
      vertex 13.9736 -0.603793 1.1
      vertex 13.9568 -0.613884 1.5
      vertex 13.9736 -0.603793 1.5
    endloop
  endfacet
  facet normal -0.514908 0.857245 0
    outer loop
      vertex 13.9568 -0.613884 1.5
      vertex 13.9736 -0.603793 1.1
      vertex 13.9568 -0.613884 1.1
    endloop
  endfacet
  facet normal -0.941736 -0.336353 0
    outer loop
      vertex 14.0539 -0.379442 1.1
      vertex 14.0473 -0.360963 1.5
      vertex 14.0473 -0.360963 1.1
    endloop
  endfacet
  facet normal -0.941736 -0.336353 0
    outer loop
      vertex 14.0473 -0.360963 1.5
      vertex 14.0539 -0.379442 1.1
      vertex 14.0539 -0.379442 1.5
    endloop
  endfacet
  facet normal -0.59481 0.803866 0
    outer loop
      vertex 13.9894 -0.592102 1.1
      vertex 13.9736 -0.603793 1.5
      vertex 13.9894 -0.592102 1.5
    endloop
  endfacet
  facet normal -0.59481 0.803866 0
    outer loop
      vertex 13.9736 -0.603793 1.5
      vertex 13.9894 -0.592102 1.1
      vertex 13.9736 -0.603793 1.1
    endloop
  endfacet
  facet normal 0.74047 0.67209 0
    outer loop
      vertex -14.0039 -0.578921 1.5
      vertex -14.0171 -0.564378 1.1
      vertex -14.0171 -0.564378 1.5
    endloop
  endfacet
  facet normal 0.74047 0.67209 0
    outer loop
      vertex -14.0171 -0.564378 1.1
      vertex -14.0039 -0.578921 1.5
      vertex -14.0039 -0.578921 1.1
    endloop
  endfacet
  facet normal -0.426401 0.904534 0
    outer loop
      vertex 13.9568 -0.613884 1.1
      vertex 13.939 -0.622275 1.5
      vertex 13.9568 -0.613884 1.5
    endloop
  endfacet
  facet normal -0.426401 0.904534 0
    outer loop
      vertex 13.939 -0.622275 1.5
      vertex 13.9568 -0.613884 1.1
      vertex 13.939 -0.622275 1.1
    endloop
  endfacet
  facet normal -0.74047 -0.67209 0
    outer loop
      vertex 14.0171 -0.310621 1.1
      vertex 14.0039 -0.296078 1.5
      vertex 14.0039 -0.296078 1.1
    endloop
  endfacet
  facet normal -0.74047 -0.67209 0
    outer loop
      vertex 14.0039 -0.296078 1.5
      vertex 14.0171 -0.310621 1.1
      vertex 14.0171 -0.310621 1.5
    endloop
  endfacet
  facet normal -0.242297 0.970202 0
    outer loop
      vertex 13.9206 -0.628887 1.1
      vertex 13.9015 -0.633657 1.5
      vertex 13.9206 -0.628887 1.5
    endloop
  endfacet
  facet normal -0.242297 0.970202 0
    outer loop
      vertex 13.9015 -0.633657 1.5
      vertex 13.9206 -0.628887 1.1
      vertex 13.9015 -0.633657 1.1
    endloop
  endfacet
  facet normal -0.802997 -0.595983 0
    outer loop
      vertex 14.0288 -0.326385 1.1
      vertex 14.0171 -0.310621 1.5
      vertex 14.0171 -0.310621 1.1
    endloop
  endfacet
  facet normal -0.802997 -0.595983 0
    outer loop
      vertex 14.0171 -0.310621 1.5
      vertex 14.0288 -0.326385 1.1
      vertex 14.0288 -0.326385 1.5
    endloop
  endfacet
  facet normal -0.146894 -0.989152 0
    outer loop
      vertex 13.8821 -0.238462 1.1
      vertex 13.9015 -0.241343 1.5
      vertex 13.8821 -0.238462 1.5
    endloop
  endfacet
  facet normal -0.146894 -0.989152 -0
    outer loop
      vertex 13.9015 -0.241343 1.5
      vertex 13.8821 -0.238462 1.1
      vertex 13.9015 -0.241343 1.1
    endloop
  endfacet
  facet normal -0.941736 0.336353 0
    outer loop
      vertex 14.0473 -0.514036 1.1
      vertex 14.0539 -0.495557 1.5
      vertex 14.0539 -0.495557 1.1
    endloop
  endfacet
  facet normal -0.941736 0.336353 0
    outer loop
      vertex 14.0539 -0.495557 1.5
      vertex 14.0473 -0.514036 1.1
      vertex 14.0473 -0.514036 1.5
    endloop
  endfacet
  facet normal -0.903828 0.427896 0
    outer loop
      vertex 14.0389 -0.531779 1.1
      vertex 14.0473 -0.514036 1.5
      vertex 14.0473 -0.514036 1.1
    endloop
  endfacet
  facet normal -0.903828 0.427896 0
    outer loop
      vertex 14.0473 -0.514036 1.5
      vertex 14.0389 -0.531779 1.1
      vertex 14.0389 -0.531779 1.5
    endloop
  endfacet
  facet normal -0.0490735 -0.998795 0
    outer loop
      vertex 13.8625 -0.237499 1.1
      vertex 13.8821 -0.238462 1.5
      vertex 13.8625 -0.237499 1.5
    endloop
  endfacet
  facet normal -0.0490735 -0.998795 -0
    outer loop
      vertex 13.8821 -0.238462 1.5
      vertex 13.8625 -0.237499 1.1
      vertex 13.8821 -0.238462 1.1
    endloop
  endfacet
  facet normal 0.903828 0.427896 0
    outer loop
      vertex -14.0389 -0.531779 1.5
      vertex -14.0473 -0.514036 1.1
      vertex -14.0473 -0.514036 1.5
    endloop
  endfacet
  facet normal 0.903828 0.427896 0
    outer loop
      vertex -14.0473 -0.514036 1.1
      vertex -14.0389 -0.531779 1.5
      vertex -14.0389 -0.531779 1.1
    endloop
  endfacet
  facet normal 0.0490735 0.998795 -0
    outer loop
      vertex -13.8625 -0.6375 1.1
      vertex -13.8821 -0.636537 1.5
      vertex -13.8625 -0.6375 1.5
    endloop
  endfacet
  facet normal 0.0490735 0.998795 0
    outer loop
      vertex -13.8821 -0.636537 1.5
      vertex -13.8625 -0.6375 1.1
      vertex -13.8821 -0.636537 1.1
    endloop
  endfacet
  facet normal -0.67265 0.739961 0
    outer loop
      vertex 14.0039 -0.578921 1.1
      vertex 13.9894 -0.592102 1.5
      vertex 14.0039 -0.578921 1.5
    endloop
  endfacet
  facet normal -0.67265 0.739961 0
    outer loop
      vertex 13.9894 -0.592102 1.5
      vertex 14.0039 -0.578921 1.1
      vertex 13.9894 -0.592102 1.1
    endloop
  endfacet
  facet normal 0.857515 0.514458 0
    outer loop
      vertex -14.0288 -0.548614 1.5
      vertex -14.0389 -0.531779 1.1
      vertex -14.0389 -0.531779 1.5
    endloop
  endfacet
  facet normal 0.857515 0.514458 0
    outer loop
      vertex -14.0389 -0.531779 1.1
      vertex -14.0288 -0.548614 1.5
      vertex -14.0288 -0.548614 1.1
    endloop
  endfacet
  facet normal 0.59481 0.803866 -0
    outer loop
      vertex -13.9736 -0.603793 1.1
      vertex -13.9894 -0.592102 1.5
      vertex -13.9736 -0.603793 1.5
    endloop
  endfacet
  facet normal 0.59481 0.803866 0
    outer loop
      vertex -13.9894 -0.592102 1.5
      vertex -13.9736 -0.603793 1.1
      vertex -13.9894 -0.592102 1.1
    endloop
  endfacet
  facet normal 0.67265 0.739961 -0
    outer loop
      vertex -13.9894 -0.592102 1.1
      vertex -14.0039 -0.578921 1.5
      vertex -13.9894 -0.592102 1.5
    endloop
  endfacet
  facet normal 0.67265 0.739961 0
    outer loop
      vertex -14.0039 -0.578921 1.5
      vertex -13.9894 -0.592102 1.1
      vertex -14.0039 -0.578921 1.1
    endloop
  endfacet
  facet normal 0 0 1
    outer loop
      vertex 14.0615 -0.417896 1.1
      vertex 14.0615 -0.457103 1.1
      vertex 14.0625 -0.437499 1.1
    endloop
  endfacet
  facet normal 0 0 1
    outer loop
      vertex 14.0587 -0.398481 1.1
      vertex 14.0615 -0.457103 1.1
      vertex 14.0615 -0.417896 1.1
    endloop
  endfacet
  facet normal 0 0 1
    outer loop
      vertex 14.0587 -0.398481 1.1
      vertex 14.0587 -0.476518 1.1
      vertex 14.0615 -0.457103 1.1
    endloop
  endfacet
  facet normal 0 0 1
    outer loop
      vertex 14.0539 -0.379442 1.1
      vertex 14.0587 -0.476518 1.1
      vertex 14.0587 -0.398481 1.1
    endloop
  endfacet
  facet normal 0 0 1
    outer loop
      vertex 14.0539 -0.379442 1.1
      vertex 14.0539 -0.495557 1.1
      vertex 14.0587 -0.476518 1.1
    endloop
  endfacet
  facet normal 0 0 1
    outer loop
      vertex 14.0473 -0.360963 1.1
      vertex 14.0539 -0.495557 1.1
      vertex 14.0539 -0.379442 1.1
    endloop
  endfacet
  facet normal 0 0 1
    outer loop
      vertex 14.0473 -0.360963 1.1
      vertex 14.0473 -0.514036 1.1
      vertex 14.0539 -0.495557 1.1
    endloop
  endfacet
  facet normal 0 0 1
    outer loop
      vertex 14.0389 -0.34322 1.1
      vertex 14.0473 -0.514036 1.1
      vertex 14.0473 -0.360963 1.1
    endloop
  endfacet
  facet normal 0 0 1
    outer loop
      vertex 14.0389 -0.34322 1.1
      vertex 14.0389 -0.531779 1.1
      vertex 14.0473 -0.514036 1.1
    endloop
  endfacet
  facet normal 0 0 1
    outer loop
      vertex 14.0288 -0.326385 1.1
      vertex 14.0389 -0.531779 1.1
      vertex 14.0389 -0.34322 1.1
    endloop
  endfacet
  facet normal 0 0 1
    outer loop
      vertex 14.0288 -0.326385 1.1
      vertex 14.0288 -0.548614 1.1
      vertex 14.0389 -0.531779 1.1
    endloop
  endfacet
  facet normal 0 0 1
    outer loop
      vertex 14.0171 -0.310621 1.1
      vertex 14.0288 -0.548614 1.1
      vertex 14.0288 -0.326385 1.1
    endloop
  endfacet
  facet normal 0 0 1
    outer loop
      vertex 14.0171 -0.310621 1.1
      vertex 14.0171 -0.564378 1.1
      vertex 14.0288 -0.548614 1.1
    endloop
  endfacet
  facet normal 0 0 1
    outer loop
      vertex 14.0039 -0.296078 1.1
      vertex 14.0171 -0.564378 1.1
      vertex 14.0171 -0.310621 1.1
    endloop
  endfacet
  facet normal 0 0 1
    outer loop
      vertex 14.0039 -0.296078 1.1
      vertex 14.0039 -0.578921 1.1
      vertex 14.0171 -0.564378 1.1
    endloop
  endfacet
  facet normal 0 0 1
    outer loop
      vertex 13.9894 -0.282897 1.1
      vertex 14.0039 -0.578921 1.1
      vertex 14.0039 -0.296078 1.1
    endloop
  endfacet
  facet normal 0 0 1
    outer loop
      vertex 13.9894 -0.282897 1.1
      vertex 13.9894 -0.592102 1.1
      vertex 14.0039 -0.578921 1.1
    endloop
  endfacet
  facet normal 0 0 1
    outer loop
      vertex 13.9736 -0.271206 1.1
      vertex 13.9894 -0.592102 1.1
      vertex 13.9894 -0.282897 1.1
    endloop
  endfacet
  facet normal 0 0 1
    outer loop
      vertex 13.9736 -0.271206 1.1
      vertex 13.9736 -0.603793 1.1
      vertex 13.9894 -0.592102 1.1
    endloop
  endfacet
  facet normal 0 0 1
    outer loop
      vertex 13.9568 -0.261115 1.1
      vertex 13.9736 -0.603793 1.1
      vertex 13.9736 -0.271206 1.1
    endloop
  endfacet
  facet normal 0 0 1
    outer loop
      vertex 13.9568 -0.261115 1.1
      vertex 13.9568 -0.613884 1.1
      vertex 13.9736 -0.603793 1.1
    endloop
  endfacet
  facet normal 0 0 1
    outer loop
      vertex 13.939 -0.252724 1.1
      vertex 13.9568 -0.613884 1.1
      vertex 13.9568 -0.261115 1.1
    endloop
  endfacet
  facet normal 0 0 1
    outer loop
      vertex 13.939 -0.252724 1.1
      vertex 13.939 -0.622275 1.1
      vertex 13.9568 -0.613884 1.1
    endloop
  endfacet
  facet normal 0 0 1
    outer loop
      vertex 13.9206 -0.246112 1.1
      vertex 13.939 -0.622275 1.1
      vertex 13.939 -0.252724 1.1
    endloop
  endfacet
  facet normal 0 0 1
    outer loop
      vertex 13.9206 -0.246112 1.1
      vertex 13.9206 -0.628887 1.1
      vertex 13.939 -0.622275 1.1
    endloop
  endfacet
  facet normal 0 0 1
    outer loop
      vertex 13.9015 -0.241343 1.1
      vertex 13.9206 -0.628887 1.1
      vertex 13.9206 -0.246112 1.1
    endloop
  endfacet
  facet normal 0 0 1
    outer loop
      vertex 13.9015 -0.241343 1.1
      vertex 13.9015 -0.633657 1.1
      vertex 13.9206 -0.628887 1.1
    endloop
  endfacet
  facet normal 0 0 1
    outer loop
      vertex 13.8821 -0.238462 1.1
      vertex 13.9015 -0.633657 1.1
      vertex 13.9015 -0.241343 1.1
    endloop
  endfacet
  facet normal 0 0 1
    outer loop
      vertex 13.8821 -0.238462 1.1
      vertex 13.8821 -0.636537 1.1
      vertex 13.9015 -0.633657 1.1
    endloop
  endfacet
  facet normal 0 0 1
    outer loop
      vertex 13.8625 -0.237499 1.1
      vertex 13.8821 -0.636537 1.1
      vertex 13.8821 -0.238462 1.1
    endloop
  endfacet
  facet normal 0 0 1
    outer loop
      vertex 13.8625 -0.237499 1.1
      vertex 13.8625 -0.6375 1.1
      vertex 13.8821 -0.636537 1.1
    endloop
  endfacet
  facet normal -0 0 1
    outer loop
      vertex -13.8625 -0.237499 1.1
      vertex 13.8625 -0.6375 1.1
      vertex 13.8625 -0.237499 1.1
    endloop
  endfacet
  facet normal 0 0 1
    outer loop
      vertex -13.8625 -0.237499 1.1
      vertex -13.8625 -0.6375 1.1
      vertex 13.8625 -0.6375 1.1
    endloop
  endfacet
  facet normal -0 0 1
    outer loop
      vertex -13.8821 -0.238462 1.1
      vertex -13.8625 -0.6375 1.1
      vertex -13.8625 -0.237499 1.1
    endloop
  endfacet
  facet normal 0 0 1
    outer loop
      vertex -13.8821 -0.238462 1.1
      vertex -13.8821 -0.636537 1.1
      vertex -13.8625 -0.6375 1.1
    endloop
  endfacet
  facet normal -0 0 1
    outer loop
      vertex -13.9015 -0.241343 1.1
      vertex -13.8821 -0.636537 1.1
      vertex -13.8821 -0.238462 1.1
    endloop
  endfacet
  facet normal 0 0 1
    outer loop
      vertex -13.9015 -0.241343 1.1
      vertex -13.9015 -0.633657 1.1
      vertex -13.8821 -0.636537 1.1
    endloop
  endfacet
  facet normal -0 0 1
    outer loop
      vertex -13.9206 -0.246112 1.1
      vertex -13.9015 -0.633657 1.1
      vertex -13.9015 -0.241343 1.1
    endloop
  endfacet
  facet normal 0 0 1
    outer loop
      vertex -13.9206 -0.246112 1.1
      vertex -13.9206 -0.628887 1.1
      vertex -13.9015 -0.633657 1.1
    endloop
  endfacet
  facet normal -0 0 1
    outer loop
      vertex -13.939 -0.252724 1.1
      vertex -13.9206 -0.628887 1.1
      vertex -13.9206 -0.246112 1.1
    endloop
  endfacet
  facet normal 0 0 1
    outer loop
      vertex -13.939 -0.252724 1.1
      vertex -13.939 -0.622275 1.1
      vertex -13.9206 -0.628887 1.1
    endloop
  endfacet
  facet normal -0 0 1
    outer loop
      vertex -13.9568 -0.261115 1.1
      vertex -13.939 -0.622275 1.1
      vertex -13.939 -0.252724 1.1
    endloop
  endfacet
  facet normal 0 0 1
    outer loop
      vertex -13.9568 -0.261115 1.1
      vertex -13.9568 -0.613884 1.1
      vertex -13.939 -0.622275 1.1
    endloop
  endfacet
  facet normal -0 0 1
    outer loop
      vertex -13.9736 -0.271206 1.1
      vertex -13.9568 -0.613884 1.1
      vertex -13.9568 -0.261115 1.1
    endloop
  endfacet
  facet normal 0 0 1
    outer loop
      vertex -13.9736 -0.271206 1.1
      vertex -13.9736 -0.603793 1.1
      vertex -13.9568 -0.613884 1.1
    endloop
  endfacet
  facet normal -0 0 1
    outer loop
      vertex -13.9894 -0.282897 1.1
      vertex -13.9736 -0.603793 1.1
      vertex -13.9736 -0.271206 1.1
    endloop
  endfacet
  facet normal 0 0 1
    outer loop
      vertex -13.9894 -0.282897 1.1
      vertex -13.9894 -0.592102 1.1
      vertex -13.9736 -0.603793 1.1
    endloop
  endfacet
  facet normal -0 0 1
    outer loop
      vertex -14.0039 -0.296078 1.1
      vertex -13.9894 -0.592102 1.1
      vertex -13.9894 -0.282897 1.1
    endloop
  endfacet
  facet normal 0 0 1
    outer loop
      vertex -14.0039 -0.296078 1.1
      vertex -14.0039 -0.578921 1.1
      vertex -13.9894 -0.592102 1.1
    endloop
  endfacet
  facet normal -0 0 1
    outer loop
      vertex -14.0171 -0.310621 1.1
      vertex -14.0039 -0.578921 1.1
      vertex -14.0039 -0.296078 1.1
    endloop
  endfacet
  facet normal 0 0 1
    outer loop
      vertex -14.0171 -0.310621 1.1
      vertex -14.0171 -0.564378 1.1
      vertex -14.0039 -0.578921 1.1
    endloop
  endfacet
  facet normal -0 0 1
    outer loop
      vertex -14.0288 -0.326385 1.1
      vertex -14.0171 -0.564378 1.1
      vertex -14.0171 -0.310621 1.1
    endloop
  endfacet
  facet normal 0 0 1
    outer loop
      vertex -14.0288 -0.326385 1.1
      vertex -14.0288 -0.548614 1.1
      vertex -14.0171 -0.564378 1.1
    endloop
  endfacet
  facet normal -0 0 1
    outer loop
      vertex -14.0389 -0.34322 1.1
      vertex -14.0288 -0.548614 1.1
      vertex -14.0288 -0.326385 1.1
    endloop
  endfacet
  facet normal 0 0 1
    outer loop
      vertex -14.0389 -0.34322 1.1
      vertex -14.0389 -0.531779 1.1
      vertex -14.0288 -0.548614 1.1
    endloop
  endfacet
  facet normal -0 0 1
    outer loop
      vertex -14.0473 -0.360963 1.1
      vertex -14.0389 -0.531779 1.1
      vertex -14.0389 -0.34322 1.1
    endloop
  endfacet
  facet normal 0 0 1
    outer loop
      vertex -14.0473 -0.360963 1.1
      vertex -14.0473 -0.514036 1.1
      vertex -14.0389 -0.531779 1.1
    endloop
  endfacet
  facet normal -0 0 1
    outer loop
      vertex -14.0539 -0.379442 1.1
      vertex -14.0473 -0.514036 1.1
      vertex -14.0473 -0.360963 1.1
    endloop
  endfacet
  facet normal 0 0 1
    outer loop
      vertex -14.0539 -0.379442 1.1
      vertex -14.0539 -0.495557 1.1
      vertex -14.0473 -0.514036 1.1
    endloop
  endfacet
  facet normal -0 0 1
    outer loop
      vertex -14.0587 -0.398481 1.1
      vertex -14.0539 -0.495557 1.1
      vertex -14.0539 -0.379442 1.1
    endloop
  endfacet
  facet normal 0 0 1
    outer loop
      vertex -14.0587 -0.398481 1.1
      vertex -14.0587 -0.476518 1.1
      vertex -14.0539 -0.495557 1.1
    endloop
  endfacet
  facet normal -0 0 1
    outer loop
      vertex -14.0615 -0.417896 1.1
      vertex -14.0587 -0.476518 1.1
      vertex -14.0587 -0.398481 1.1
    endloop
  endfacet
  facet normal 0 0 1
    outer loop
      vertex -14.0615 -0.417896 1.1
      vertex -14.0615 -0.457103 1.1
      vertex -14.0587 -0.476518 1.1
    endloop
  endfacet
  facet normal 0 -0 1
    outer loop
      vertex -14.0615 -0.457103 1.1
      vertex -14.0615 -0.417896 1.1
      vertex -14.0625 -0.437499 1.1
    endloop
  endfacet
  facet normal 0.941736 0.336353 0
    outer loop
      vertex -14.0473 -0.514036 1.5
      vertex -14.0539 -0.495557 1.1
      vertex -14.0539 -0.495557 1.5
    endloop
  endfacet
  facet normal 0.941736 0.336353 0
    outer loop
      vertex -14.0539 -0.495557 1.1
      vertex -14.0473 -0.514036 1.5
      vertex -14.0473 -0.514036 1.1
    endloop
  endfacet
endsolid OpenSCAD_Model
