solid OpenSCAD_Model
  facet normal 0 0 -1
    outer loop
      vertex 7.4375 -2.1875 0
      vertex 10.9375 2.1875 0
      vertex 10.9375 -2.1875 0
    endloop
  endfacet
  facet normal 0 0 -1
    outer loop
      vertex -7.8125 -2.1875 0
      vertex 7.36406 -3.68225 0
      vertex 7.14447 -5.16261 0
    endloop
  endfacet
  facet normal 0 0 -1
    outer loop
      vertex -7.8125 -2.1875 0
      vertex 7.14447 -5.16261 0
      vertex 6.78084 -6.61433 0
    endloop
  endfacet
  facet normal 0 0 -1
    outer loop
      vertex -7.8125 -2.1875 0
      vertex 6.78084 -6.61433 0
      vertex 6.27666 -8.02342 0
    endloop
  endfacet
  facet normal 0 0 -1
    outer loop
      vertex -7.8125 -2.1875 0
      vertex 6.27666 -8.02342 0
      vertex 5.6368 -9.3763 0
    endloop
  endfacet
  facet normal 0 0 -1
    outer loop
      vertex -7.8125 -2.1875 0
      vertex 5.6368 -9.3763 0
      vertex 4.8674 -10.6599 0
    endloop
  endfacet
  facet normal 0 0 -1
    outer loop
      vertex -7.8125 -2.1875 0
      vertex 4.8674 -10.6599 0
      vertex 3.97591 -11.862 0
    endloop
  endfacet
  facet normal 0 0 -1
    outer loop
      vertex -7.8125 -2.1875 0
      vertex 3.97591 -11.862 0
      vertex 2.97087 -12.9709 0
    endloop
  endfacet
  facet normal 0 0 -1
    outer loop
      vertex -7.8125 -2.1875 0
      vertex 2.97087 -12.9709 0
      vertex 1.86198 -13.9759 0
    endloop
  endfacet
  facet normal 0 0 -1
    outer loop
      vertex -7.8125 -2.1875 0
      vertex 1.86198 -13.9759 0
      vertex 0.659943 -14.8674 0
    endloop
  endfacet
  facet normal 0 0 -1
    outer loop
      vertex -7.8125 -2.1875 0
      vertex 0.659943 -14.8674 0
      vertex -0.623703 -15.6368 0
    endloop
  endfacet
  facet normal 0 0 -1
    outer loop
      vertex -7.8125 -2.1875 0
      vertex -0.623703 -15.6368 0
      vertex -1.97658 -16.2767 0
    endloop
  endfacet
  facet normal 0 0 -1
    outer loop
      vertex -7.8125 -2.1875 0
      vertex -1.97658 -16.2767 0
      vertex -3.38567 -16.7808 0
    endloop
  endfacet
  facet normal 0 0 -1
    outer loop
      vertex -7.8125 -2.1875 0
      vertex -3.38567 -16.7808 0
      vertex -4.83739 -17.1445 0
    endloop
  endfacet
  facet normal 0 0 -1
    outer loop
      vertex 7.36406 -3.68225 0
      vertex -7.8125 -2.1875 0
      vertex 7.4375 -2.1875 0
    endloop
  endfacet
  facet normal 0 0 -1
    outer loop
      vertex -7.8125 -2.1875 0
      vertex -4.83739 -17.1445 0
      vertex -6.31775 -17.3641 0
    endloop
  endfacet
  facet normal 0 0 -1
    outer loop
      vertex -7.8125 -2.1875 0
      vertex -6.31775 -17.3641 0
      vertex -7.8125 -17.4375 0
    endloop
  endfacet
  facet normal 0 0 -1
    outer loop
      vertex -10.9375 2.1875 0
      vertex 7.4375 -2.1875 0
      vertex -7.8125 -2.1875 0
    endloop
  endfacet
  facet normal 0 0 -1
    outer loop
      vertex -10.9375 2.1875 0
      vertex -7.8125 -2.1875 0
      vertex -10.9375 -2.1875 0
    endloop
  endfacet
  facet normal 0 0 -1
    outer loop
      vertex 7.4375 -2.1875 0
      vertex -10.9375 2.1875 0
      vertex 10.9375 2.1875 0
    endloop
  endfacet
  facet normal 1 0 0
    outer loop
      vertex -7.8125 2.1875 7
      vertex -7.8125 -1.1875 1.5
      vertex -7.8125 2.1875 1.5
    endloop
  endfacet
  facet normal 1 -0 0
    outer loop
      vertex -7.8125 -2.1875 7
      vertex -7.8125 -1.1875 1.5
      vertex -7.8125 2.1875 7
    endloop
  endfacet
  facet normal 1 0 0
    outer loop
      vertex -7.8125 -1.1875 1.5
      vertex -7.8125 -2.1875 7
      vertex -7.8125 -2.1875 1.5
    endloop
  endfacet
  facet normal 0 -1 0
    outer loop
      vertex 7.4375 -2.1875 1.5
      vertex 7.4375 -2.1875 0
      vertex 7.8125 -2.1875 1.5
    endloop
  endfacet
  facet normal 0 -1 0
    outer loop
      vertex 7.8125 -2.1875 1.5
      vertex 10.9375 -2.1875 7
      vertex 7.8125 -2.1875 7
    endloop
  endfacet
  facet normal 0 -1 0
    outer loop
      vertex 10.9375 -2.1875 0
      vertex 7.8125 -2.1875 1.5
      vertex 7.4375 -2.1875 0
    endloop
  endfacet
  facet normal 0 -1 0
    outer loop
      vertex 7.8125 -2.1875 1.5
      vertex 10.9375 -2.1875 0
      vertex 10.9375 -2.1875 7
    endloop
  endfacet
  facet normal 0 -1 0
    outer loop
      vertex -10.9375 -2.1875 7
      vertex -7.8125 -2.1875 1.5
      vertex -7.8125 -2.1875 7
    endloop
  endfacet
  facet normal 0 -1 0
    outer loop
      vertex -10.9375 -2.1875 0
      vertex -7.8125 -2.1875 1.5
      vertex -10.9375 -2.1875 7
    endloop
  endfacet
  facet normal 0 -1 -0
    outer loop
      vertex -7.8125 -2.1875 1.5
      vertex -10.9375 -2.1875 0
      vertex -7.8125 -2.1875 0
    endloop
  endfacet
  facet normal -0 0 1
    outer loop
      vertex -10.9375 2.1875 7
      vertex -7.8125 -2.1875 7
      vertex -7.8125 2.1875 7
    endloop
  endfacet
  facet normal 0 0 1
    outer loop
      vertex -7.8125 -2.1875 7
      vertex -10.9375 2.1875 7
      vertex -10.9375 -2.1875 7
    endloop
  endfacet
  facet normal -1 0 0
    outer loop
      vertex -10.9375 -2.1875 0
      vertex -10.9375 2.1875 7
      vertex -10.9375 2.1875 0
    endloop
  endfacet
  facet normal -1 -0 0
    outer loop
      vertex -10.9375 2.1875 7
      vertex -10.9375 -2.1875 0
      vertex -10.9375 -2.1875 7
    endloop
  endfacet
  facet normal 0 1 0
    outer loop
      vertex 10.9375 2.1875 7
      vertex 7.8125 2.1875 1.5
      vertex 7.8125 2.1875 7
    endloop
  endfacet
  facet normal 0 1 0
    outer loop
      vertex 7.8125 2.1875 1.5
      vertex 10.9375 2.1875 0
      vertex -7.8125 2.1875 1.5
    endloop
  endfacet
  facet normal 0 1 -0
    outer loop
      vertex 10.9375 2.1875 0
      vertex 7.8125 2.1875 1.5
      vertex 10.9375 2.1875 7
    endloop
  endfacet
  facet normal 0 1 -0
    outer loop
      vertex -7.8125 2.1875 1.5
      vertex -10.9375 2.1875 7
      vertex -7.8125 2.1875 7
    endloop
  endfacet
  facet normal 0 1 0
    outer loop
      vertex -7.8125 2.1875 1.5
      vertex -10.9375 2.1875 0
      vertex -10.9375 2.1875 7
    endloop
  endfacet
  facet normal 0 1 0
    outer loop
      vertex -10.9375 2.1875 0
      vertex -7.8125 2.1875 1.5
      vertex 10.9375 2.1875 0
    endloop
  endfacet
  facet normal 1 -0 0
    outer loop
      vertex 10.9375 -2.1875 7
      vertex 10.9375 2.1875 0
      vertex 10.9375 2.1875 7
    endloop
  endfacet
  facet normal 1 0 0
    outer loop
      vertex 10.9375 2.1875 0
      vertex 10.9375 -2.1875 7
      vertex 10.9375 -2.1875 0
    endloop
  endfacet
  facet normal -0 0 1
    outer loop
      vertex 7.8125 2.1875 7
      vertex 10.9375 -2.1875 7
      vertex 10.9375 2.1875 7
    endloop
  endfacet
  facet normal 0 0 1
    outer loop
      vertex 10.9375 -2.1875 7
      vertex 7.8125 2.1875 7
      vertex 7.8125 -2.1875 7
    endloop
  endfacet
  facet normal -1 0 0
    outer loop
      vertex 7.8125 -1.1875 1.5
      vertex 7.8125 2.1875 7
      vertex 7.8125 2.1875 1.5
    endloop
  endfacet
  facet normal -1 0 0
    outer loop
      vertex 7.8125 -2.1875 7
      vertex 7.8125 -1.1875 1.5
      vertex 7.8125 -2.1875 1.5
    endloop
  endfacet
  facet normal -1 0 0
    outer loop
      vertex 7.8125 -1.1875 1.5
      vertex 7.8125 -2.1875 7
      vertex 7.8125 2.1875 7
    endloop
  endfacet
  facet normal -0 0 1
    outer loop
      vertex 7.81154 -1.2071 1.5
      vertex 7.8125 -2.1875 1.5
      vertex 7.8125 -1.1875 1.5
    endloop
  endfacet
  facet normal -0 0 1
    outer loop
      vertex 7.80866 -1.22652 1.5
      vertex 7.8125 -2.1875 1.5
      vertex 7.81154 -1.2071 1.5
    endloop
  endfacet
  facet normal -0 0 1
    outer loop
      vertex 7.80389 -1.24556 1.5
      vertex 7.8125 -2.1875 1.5
      vertex 7.80866 -1.22652 1.5
    endloop
  endfacet
  facet normal -0 0 1
    outer loop
      vertex 7.79728 -1.26404 1.5
      vertex 7.8125 -2.1875 1.5
      vertex 7.80389 -1.24556 1.5
    endloop
  endfacet
  facet normal -0 0 1
    outer loop
      vertex 7.78888 -1.28178 1.5
      vertex 7.8125 -2.1875 1.5
      vertex 7.79728 -1.26404 1.5
    endloop
  endfacet
  facet normal -0 0 1
    outer loop
      vertex 7.77879 -1.29861 1.5
      vertex 7.8125 -2.1875 1.5
      vertex 7.78888 -1.28178 1.5
    endloop
  endfacet
  facet normal -0 0 1
    outer loop
      vertex 7.7671 -1.31438 1.5
      vertex 7.8125 -2.1875 1.5
      vertex 7.77879 -1.29861 1.5
    endloop
  endfacet
  facet normal -0 0 1
    outer loop
      vertex 7.75392 -1.32892 1.5
      vertex 7.8125 -2.1875 1.5
      vertex 7.7671 -1.31438 1.5
    endloop
  endfacet
  facet normal -0 0 1
    outer loop
      vertex 7.73938 -1.3421 1.5
      vertex 7.8125 -2.1875 1.5
      vertex 7.75392 -1.32892 1.5
    endloop
  endfacet
  facet normal -0 0 1
    outer loop
      vertex 7.72361 -1.35379 1.5
      vertex 7.8125 -2.1875 1.5
      vertex 7.73938 -1.3421 1.5
    endloop
  endfacet
  facet normal -0 0 1
    outer loop
      vertex 7.70678 -1.36388 1.5
      vertex 7.8125 -2.1875 1.5
      vertex 7.72361 -1.35379 1.5
    endloop
  endfacet
  facet normal -0 0 1
    outer loop
      vertex 7.68904 -1.37228 1.5
      vertex 7.8125 -2.1875 1.5
      vertex 7.70678 -1.36388 1.5
    endloop
  endfacet
  facet normal -0 0 1
    outer loop
      vertex 7.67056 -1.37889 1.5
      vertex 7.8125 -2.1875 1.5
      vertex 7.68904 -1.37228 1.5
    endloop
  endfacet
  facet normal -0 0 1
    outer loop
      vertex 7.65152 -1.38366 1.5
      vertex 7.8125 -2.1875 1.5
      vertex 7.67056 -1.37889 1.5
    endloop
  endfacet
  facet normal -0 0 1
    outer loop
      vertex 7.6321 -1.38654 1.5
      vertex 7.8125 -2.1875 1.5
      vertex 7.65152 -1.38366 1.5
    endloop
  endfacet
  facet normal -0 0 1
    outer loop
      vertex 7.6125 -1.3875 1.5
      vertex 7.8125 -2.1875 1.5
      vertex 7.6321 -1.38654 1.5
    endloop
  endfacet
  facet normal 0 0 1
    outer loop
      vertex 7.6125 -1.3875 1.5
      vertex 7.4375 -2.1875 1.5
      vertex 7.8125 -2.1875 1.5
    endloop
  endfacet
  facet normal 0 0 1
    outer loop
      vertex -7.6125 -1.3875 1.5
      vertex 7.36406 -3.68225 1.5
      vertex 7.4375 -2.1875 1.5
    endloop
  endfacet
  facet normal 0 0 1
    outer loop
      vertex 7.36406 -3.68225 1.5
      vertex -7.6125 -1.3875 1.5
      vertex 7.14447 -5.16261 1.5
    endloop
  endfacet
  facet normal -0 0 1
    outer loop
      vertex -7.8125 -2.1875 1.5
      vertex 7.14447 -5.16261 1.5
      vertex -7.6125 -1.3875 1.5
    endloop
  endfacet
  facet normal 0 0 1
    outer loop
      vertex 6.78084 -6.61433 1.5
      vertex -7.8125 -2.1875 1.5
      vertex 6.27666 -8.02342 1.5
    endloop
  endfacet
  facet normal -0 0 1
    outer loop
      vertex -7.6125 -1.3875 1.5
      vertex 7.4375 -2.1875 1.5
      vertex 7.6125 -1.3875 1.5
    endloop
  endfacet
  facet normal 0 0 1
    outer loop
      vertex 6.27666 -8.02342 1.5
      vertex -7.8125 -2.1875 1.5
      vertex 5.6368 -9.3763 1.5
    endloop
  endfacet
  facet normal 0 0 1
    outer loop
      vertex 5.6368 -9.3763 1.5
      vertex -7.8125 -2.1875 1.5
      vertex 4.8674 -10.6599 1.5
    endloop
  endfacet
  facet normal 0 0 1
    outer loop
      vertex 4.8674 -10.6599 1.5
      vertex -7.8125 -2.1875 1.5
      vertex 3.97591 -11.862 1.5
    endloop
  endfacet
  facet normal 0 0 1
    outer loop
      vertex 3.97591 -11.862 1.5
      vertex -7.8125 -2.1875 1.5
      vertex 2.97087 -12.9709 1.5
    endloop
  endfacet
  facet normal 0 0 1
    outer loop
      vertex 2.97087 -12.9709 1.5
      vertex -7.8125 -2.1875 1.5
      vertex 1.86198 -13.9759 1.5
    endloop
  endfacet
  facet normal 0 0 1
    outer loop
      vertex 1.86198 -13.9759 1.5
      vertex -7.8125 -2.1875 1.5
      vertex 0.659943 -14.8674 1.5
    endloop
  endfacet
  facet normal 0 0 1
    outer loop
      vertex 0.659943 -14.8674 1.5
      vertex -7.8125 -2.1875 1.5
      vertex -0.623703 -15.6368 1.5
    endloop
  endfacet
  facet normal 0 0 1
    outer loop
      vertex -0.623703 -15.6368 1.5
      vertex -7.8125 -2.1875 1.5
      vertex -1.97658 -16.2767 1.5
    endloop
  endfacet
  facet normal 0 0 1
    outer loop
      vertex -1.97658 -16.2767 1.5
      vertex -7.8125 -2.1875 1.5
      vertex -3.38567 -16.7808 1.5
    endloop
  endfacet
  facet normal 0 0 1
    outer loop
      vertex -3.38567 -16.7808 1.5
      vertex -7.8125 -2.1875 1.5
      vertex -4.83739 -17.1445 1.5
    endloop
  endfacet
  facet normal 0 0 1
    outer loop
      vertex 7.14447 -5.16261 1.5
      vertex -7.8125 -2.1875 1.5
      vertex 6.78084 -6.61433 1.5
    endloop
  endfacet
  facet normal 0 0 1
    outer loop
      vertex -7.8125 -2.1875 1.5
      vertex -7.6125 -1.3875 1.5
      vertex -7.6321 -1.38654 1.5
    endloop
  endfacet
  facet normal 0 0 1
    outer loop
      vertex -7.8125 -2.1875 1.5
      vertex -7.6321 -1.38654 1.5
      vertex -7.65152 -1.38366 1.5
    endloop
  endfacet
  facet normal 0 0 1
    outer loop
      vertex -7.8125 -2.1875 1.5
      vertex -7.65152 -1.38366 1.5
      vertex -7.67056 -1.37889 1.5
    endloop
  endfacet
  facet normal 0 0 1
    outer loop
      vertex -7.8125 -2.1875 1.5
      vertex -7.67056 -1.37889 1.5
      vertex -7.68904 -1.37228 1.5
    endloop
  endfacet
  facet normal 0 0 1
    outer loop
      vertex -7.8125 -2.1875 1.5
      vertex -7.68904 -1.37228 1.5
      vertex -7.70678 -1.36388 1.5
    endloop
  endfacet
  facet normal 0 0 1
    outer loop
      vertex -7.8125 -2.1875 1.5
      vertex -7.70678 -1.36388 1.5
      vertex -7.72361 -1.35379 1.5
    endloop
  endfacet
  facet normal 0 0 1
    outer loop
      vertex -7.8125 -2.1875 1.5
      vertex -7.72361 -1.35379 1.5
      vertex -7.73938 -1.3421 1.5
    endloop
  endfacet
  facet normal 0 0 1
    outer loop
      vertex -7.8125 -2.1875 1.5
      vertex -7.73938 -1.3421 1.5
      vertex -7.75392 -1.32892 1.5
    endloop
  endfacet
  facet normal 0 0 1
    outer loop
      vertex -7.8125 -2.1875 1.5
      vertex -7.75392 -1.32892 1.5
      vertex -7.7671 -1.31438 1.5
    endloop
  endfacet
  facet normal 0 0 1
    outer loop
      vertex -7.8125 -2.1875 1.5
      vertex -7.7671 -1.31438 1.5
      vertex -7.77879 -1.29861 1.5
    endloop
  endfacet
  facet normal 0 0 1
    outer loop
      vertex -7.8125 -2.1875 1.5
      vertex -7.77879 -1.29861 1.5
      vertex -7.78888 -1.28178 1.5
    endloop
  endfacet
  facet normal 0 0 1
    outer loop
      vertex -7.8125 -2.1875 1.5
      vertex -7.78888 -1.28178 1.5
      vertex -7.79728 -1.26404 1.5
    endloop
  endfacet
  facet normal 0 0 1
    outer loop
      vertex -7.8125 -2.1875 1.5
      vertex -7.79728 -1.26404 1.5
      vertex -7.80389 -1.24556 1.5
    endloop
  endfacet
  facet normal 0 0 1
    outer loop
      vertex -7.8125 -2.1875 1.5
      vertex -7.80389 -1.24556 1.5
      vertex -7.80866 -1.22652 1.5
    endloop
  endfacet
  facet normal 0 0 1
    outer loop
      vertex -7.8125 -2.1875 1.5
      vertex -7.80866 -1.22652 1.5
      vertex -7.81154 -1.2071 1.5
    endloop
  endfacet
  facet normal 0 0 1
    outer loop
      vertex -7.8125 -2.1875 1.5
      vertex -7.81154 -1.2071 1.5
      vertex -7.8125 -1.1875 1.5
    endloop
  endfacet
  facet normal 0 0 1
    outer loop
      vertex -4.83739 -17.1445 1.5
      vertex -7.8125 -2.1875 1.5
      vertex -6.31775 -17.3641 1.5
    endloop
  endfacet
  facet normal 0 0 1
    outer loop
      vertex -6.31775 -17.3641 1.5
      vertex -7.8125 -2.1875 1.5
      vertex -7.8125 -17.4375 1.5
    endloop
  endfacet
  facet normal 0 0 1
    outer loop
      vertex 7.8125 2.1875 1.5
      vertex 7.81154 -1.1679 1.5
      vertex 7.8125 -1.1875 1.5
    endloop
  endfacet
  facet normal 0 0 1
    outer loop
      vertex 7.8125 2.1875 1.5
      vertex 7.80866 -1.14848 1.5
      vertex 7.81154 -1.1679 1.5
    endloop
  endfacet
  facet normal 0 0 1
    outer loop
      vertex 7.8125 2.1875 1.5
      vertex 7.80389 -1.12944 1.5
      vertex 7.80866 -1.14848 1.5
    endloop
  endfacet
  facet normal 0 0 1
    outer loop
      vertex 7.8125 2.1875 1.5
      vertex 7.79728 -1.11096 1.5
      vertex 7.80389 -1.12944 1.5
    endloop
  endfacet
  facet normal 0 0 1
    outer loop
      vertex 7.8125 2.1875 1.5
      vertex 7.78888 -1.09322 1.5
      vertex 7.79728 -1.11096 1.5
    endloop
  endfacet
  facet normal 0 0 1
    outer loop
      vertex 7.8125 2.1875 1.5
      vertex 7.77879 -1.07639 1.5
      vertex 7.78888 -1.09322 1.5
    endloop
  endfacet
  facet normal 0 0 1
    outer loop
      vertex 7.8125 2.1875 1.5
      vertex 7.7671 -1.06062 1.5
      vertex 7.77879 -1.07639 1.5
    endloop
  endfacet
  facet normal 0 0 1
    outer loop
      vertex 7.8125 2.1875 1.5
      vertex 7.75392 -1.04608 1.5
      vertex 7.7671 -1.06062 1.5
    endloop
  endfacet
  facet normal 0 0 1
    outer loop
      vertex 7.8125 2.1875 1.5
      vertex 7.73938 -1.0329 1.5
      vertex 7.75392 -1.04608 1.5
    endloop
  endfacet
  facet normal 0 0 1
    outer loop
      vertex 7.8125 2.1875 1.5
      vertex 7.72361 -1.02121 1.5
      vertex 7.73938 -1.0329 1.5
    endloop
  endfacet
  facet normal 0 0 1
    outer loop
      vertex 7.8125 2.1875 1.5
      vertex 7.70678 -1.01112 1.5
      vertex 7.72361 -1.02121 1.5
    endloop
  endfacet
  facet normal 0 0 1
    outer loop
      vertex 7.8125 2.1875 1.5
      vertex 7.68904 -1.00272 1.5
      vertex 7.70678 -1.01112 1.5
    endloop
  endfacet
  facet normal 0 0 1
    outer loop
      vertex 7.8125 2.1875 1.5
      vertex 7.67056 -0.996112 1.5
      vertex 7.68904 -1.00272 1.5
    endloop
  endfacet
  facet normal 0 0 1
    outer loop
      vertex 7.8125 2.1875 1.5
      vertex 7.65152 -0.991343 1.5
      vertex 7.67056 -0.996112 1.5
    endloop
  endfacet
  facet normal 0 0 1
    outer loop
      vertex 7.8125 2.1875 1.5
      vertex 7.6321 -0.988462 1.5
      vertex 7.65152 -0.991343 1.5
    endloop
  endfacet
  facet normal 0 0 1
    outer loop
      vertex 7.8125 2.1875 1.5
      vertex 7.6125 -0.987499 1.5
      vertex 7.6321 -0.988462 1.5
    endloop
  endfacet
  facet normal 0 0 1
    outer loop
      vertex 7.8125 2.1875 1.5
      vertex -7.6125 -0.987499 1.5
      vertex 7.6125 -0.987499 1.5
    endloop
  endfacet
  facet normal -0 0 1
    outer loop
      vertex -7.8125 2.1875 1.5
      vertex -7.6125 -0.987499 1.5
      vertex 7.8125 2.1875 1.5
    endloop
  endfacet
  facet normal 0 0 1
    outer loop
      vertex -7.6125 -0.987499 1.5
      vertex -7.8125 2.1875 1.5
      vertex -7.6321 -0.988462 1.5
    endloop
  endfacet
  facet normal 0 0 1
    outer loop
      vertex -7.6321 -0.988462 1.5
      vertex -7.8125 2.1875 1.5
      vertex -7.65152 -0.991343 1.5
    endloop
  endfacet
  facet normal 0 0 1
    outer loop
      vertex -7.8125 2.1875 1.5
      vertex -7.67056 -0.996112 1.5
      vertex -7.65152 -0.991343 1.5
    endloop
  endfacet
  facet normal 0 0 1
    outer loop
      vertex -7.8125 2.1875 1.5
      vertex -7.68904 -1.00272 1.5
      vertex -7.67056 -0.996112 1.5
    endloop
  endfacet
  facet normal 0 0 1
    outer loop
      vertex -7.8125 2.1875 1.5
      vertex -7.70678 -1.01112 1.5
      vertex -7.68904 -1.00272 1.5
    endloop
  endfacet
  facet normal 0 0 1
    outer loop
      vertex -7.8125 2.1875 1.5
      vertex -7.72361 -1.02121 1.5
      vertex -7.70678 -1.01112 1.5
    endloop
  endfacet
  facet normal 0 0 1
    outer loop
      vertex -7.8125 2.1875 1.5
      vertex -7.73938 -1.0329 1.5
      vertex -7.72361 -1.02121 1.5
    endloop
  endfacet
  facet normal 0 0 1
    outer loop
      vertex -7.8125 2.1875 1.5
      vertex -7.75392 -1.04608 1.5
      vertex -7.73938 -1.0329 1.5
    endloop
  endfacet
  facet normal 0 0 1
    outer loop
      vertex -7.8125 2.1875 1.5
      vertex -7.7671 -1.06062 1.5
      vertex -7.75392 -1.04608 1.5
    endloop
  endfacet
  facet normal 0 0 1
    outer loop
      vertex -7.8125 2.1875 1.5
      vertex -7.77879 -1.07639 1.5
      vertex -7.7671 -1.06062 1.5
    endloop
  endfacet
  facet normal 0 0 1
    outer loop
      vertex -7.8125 2.1875 1.5
      vertex -7.78888 -1.09322 1.5
      vertex -7.77879 -1.07639 1.5
    endloop
  endfacet
  facet normal 0 0 1
    outer loop
      vertex -7.8125 2.1875 1.5
      vertex -7.79728 -1.11096 1.5
      vertex -7.78888 -1.09322 1.5
    endloop
  endfacet
  facet normal 0 0 1
    outer loop
      vertex -7.8125 2.1875 1.5
      vertex -7.80389 -1.12944 1.5
      vertex -7.79728 -1.11096 1.5
    endloop
  endfacet
  facet normal 0 0 1
    outer loop
      vertex -7.8125 2.1875 1.5
      vertex -7.80866 -1.14848 1.5
      vertex -7.80389 -1.12944 1.5
    endloop
  endfacet
  facet normal 0 0 1
    outer loop
      vertex -7.8125 2.1875 1.5
      vertex -7.81154 -1.1679 1.5
      vertex -7.80866 -1.14848 1.5
    endloop
  endfacet
  facet normal 0 0 1
    outer loop
      vertex -7.81154 -1.1679 1.5
      vertex -7.8125 2.1875 1.5
      vertex -7.8125 -1.1875 1.5
    endloop
  endfacet
  facet normal 0.427575 -0.90398 0
    outer loop
      vertex -1.97658 -16.2767 0
      vertex -0.623703 -15.6368 1.5
      vertex -1.97658 -16.2767 1.5
    endloop
  endfacet
  facet normal 0.427575 -0.90398 0
    outer loop
      vertex -0.623703 -15.6368 1.5
      vertex -1.97658 -16.2767 0
      vertex -0.623703 -15.6368 0
    endloop
  endfacet
  facet normal -1 0 0
    outer loop
      vertex -7.8125 -17.4375 0
      vertex -7.8125 -2.1875 1.5
      vertex -7.8125 -2.1875 0
    endloop
  endfacet
  facet normal -1 -0 0
    outer loop
      vertex -7.8125 -2.1875 1.5
      vertex -7.8125 -17.4375 0
      vertex -7.8125 -17.4375 1.5
    endloop
  endfacet
  facet normal 0.671545 -0.740964 0
    outer loop
      vertex 1.86198 -13.9759 0
      vertex 2.97087 -12.9709 1.5
      vertex 1.86198 -13.9759 1.5
    endloop
  endfacet
  facet normal 0.671545 -0.740964 0
    outer loop
      vertex 2.97087 -12.9709 1.5
      vertex 1.86198 -13.9759 0
      vertex 2.97087 -12.9709 0
    endloop
  endfacet
  facet normal 0.998795 -0.0490728 0
    outer loop
      vertex 7.36406 -3.68225 1.5
      vertex 7.4375 -2.1875 0
      vertex 7.4375 -2.1875 1.5
    endloop
  endfacet
  facet normal 0.998795 -0.0490728 0
    outer loop
      vertex 7.4375 -2.1875 0
      vertex 7.36406 -3.68225 1.5
      vertex 7.36406 -3.68225 0
    endloop
  endfacet
  facet normal 0.146737 -0.989176 0
    outer loop
      vertex -6.31775 -17.3641 0
      vertex -4.83739 -17.1445 1.5
      vertex -6.31775 -17.3641 1.5
    endloop
  endfacet
  facet normal 0.146737 -0.989176 0
    outer loop
      vertex -4.83739 -17.1445 1.5
      vertex -6.31775 -17.3641 0
      vertex -4.83739 -17.1445 0
    endloop
  endfacet
  facet normal 0.0490461 -0.998797 0
    outer loop
      vertex -7.8125 -17.4375 0
      vertex -6.31775 -17.3641 1.5
      vertex -7.8125 -17.4375 1.5
    endloop
  endfacet
  facet normal 0.0490461 -0.998797 0
    outer loop
      vertex -6.31775 -17.3641 1.5
      vertex -7.8125 -17.4375 0
      vertex -6.31775 -17.3641 0
    endloop
  endfacet
  facet normal 0.595703 -0.803205 0
    outer loop
      vertex 0.659943 -14.8674 0
      vertex 1.86198 -13.9759 1.5
      vertex 0.659943 -14.8674 1.5
    endloop
  endfacet
  facet normal 0.595703 -0.803205 0
    outer loop
      vertex 1.86198 -13.9759 1.5
      vertex 0.659943 -14.8674 0
      vertex 1.86198 -13.9759 0
    endloop
  endfacet
  facet normal 0.24302 -0.970021 0
    outer loop
      vertex -4.83739 -17.1445 0
      vertex -3.38567 -16.7808 1.5
      vertex -4.83739 -17.1445 1.5
    endloop
  endfacet
  facet normal 0.24302 -0.970021 0
    outer loop
      vertex -3.38567 -16.7808 1.5
      vertex -4.83739 -17.1445 0
      vertex -3.38567 -16.7808 0
    endloop
  endfacet
  facet normal 0.970032 -0.242976 0
    outer loop
      vertex 6.78084 -6.61433 1.5
      vertex 7.14447 -5.16261 0
      vertex 7.14447 -5.16261 1.5
    endloop
  endfacet
  facet normal 0.970032 -0.242976 0
    outer loop
      vertex 7.14447 -5.16261 0
      vertex 6.78084 -6.61433 1.5
      vertex 6.78084 -6.61433 0
    endloop
  endfacet
  facet normal 0.90399 -0.427553 0
    outer loop
      vertex 5.6368 -9.3763 1.5
      vertex 6.27666 -8.02342 0
      vertex 6.27666 -8.02342 1.5
    endloop
  endfacet
  facet normal 0.90399 -0.427553 0
    outer loop
      vertex 6.27666 -8.02342 0
      vertex 5.6368 -9.3763 1.5
      vertex 5.6368 -9.3763 0
    endloop
  endfacet
  facet normal 0.941544 -0.33689 0
    outer loop
      vertex 6.27666 -8.02342 1.5
      vertex 6.78084 -6.61433 0
      vertex 6.78084 -6.61433 1.5
    endloop
  endfacet
  facet normal 0.941544 -0.33689 0
    outer loop
      vertex 6.78084 -6.61433 0
      vertex 6.27666 -8.02342 1.5
      vertex 6.27666 -8.02342 0
    endloop
  endfacet
  facet normal 0.336842 -0.941561 0
    outer loop
      vertex -3.38567 -16.7808 0
      vertex -1.97658 -16.2767 1.5
      vertex -3.38567 -16.7808 1.5
    endloop
  endfacet
  facet normal 0.336842 -0.941561 0
    outer loop
      vertex -1.97658 -16.2767 1.5
      vertex -3.38567 -16.7808 0
      vertex -1.97658 -16.2767 0
    endloop
  endfacet
  facet normal 0.803223 -0.595679 0
    outer loop
      vertex 3.97591 -11.862 1.5
      vertex 4.8674 -10.6599 0
      vertex 4.8674 -10.6599 1.5
    endloop
  endfacet
  facet normal 0.803223 -0.595679 0
    outer loop
      vertex 4.8674 -10.6599 0
      vertex 3.97591 -11.862 1.5
      vertex 3.97591 -11.862 0
    endloop
  endfacet
  facet normal 0.989177 -0.14673 0
    outer loop
      vertex 7.14447 -5.16261 1.5
      vertex 7.36406 -3.68225 0
      vertex 7.36406 -3.68225 1.5
    endloop
  endfacet
  facet normal 0.989177 -0.14673 0
    outer loop
      vertex 7.36406 -3.68225 0
      vertex 7.14447 -5.16261 1.5
      vertex 7.14447 -5.16261 0
    endloop
  endfacet
  facet normal 0.857717 -0.514122 0
    outer loop
      vertex 4.8674 -10.6599 1.5
      vertex 5.6368 -9.3763 0
      vertex 5.6368 -9.3763 1.5
    endloop
  endfacet
  facet normal 0.857717 -0.514122 0
    outer loop
      vertex 5.6368 -9.3763 0
      vertex 4.8674 -10.6599 1.5
      vertex 4.8674 -10.6599 0
    endloop
  endfacet
  facet normal 0.514109 -0.857725 0
    outer loop
      vertex -0.623703 -15.6368 0
      vertex 0.659943 -14.8674 1.5
      vertex -0.623703 -15.6368 1.5
    endloop
  endfacet
  facet normal 0.514109 -0.857725 0
    outer loop
      vertex 0.659943 -14.8674 1.5
      vertex -0.623703 -15.6368 0
      vertex 0.659943 -14.8674 0
    endloop
  endfacet
  facet normal 0.740954 -0.671556 0
    outer loop
      vertex 2.97087 -12.9709 1.5
      vertex 3.97591 -11.862 0
      vertex 3.97591 -11.862 1.5
    endloop
  endfacet
  facet normal 0.740954 -0.671556 0
    outer loop
      vertex 3.97591 -11.862 0
      vertex 2.97087 -12.9709 1.5
      vertex 2.97087 -12.9709 0
    endloop
  endfacet
  facet normal 0.989182 0.146696 0
    outer loop
      vertex -7.80866 -1.22652 1.5
      vertex -7.81154 -1.2071 1.1
      vertex -7.81154 -1.2071 1.5
    endloop
  endfacet
  facet normal 0.989182 0.146696 0
    outer loop
      vertex -7.81154 -1.2071 1.1
      vertex -7.80866 -1.22652 1.5
      vertex -7.80866 -1.22652 1.1
    endloop
  endfacet
  facet normal 0.146696 0.989182 -0
    outer loop
      vertex -7.6321 -1.38654 1.1
      vertex -7.65152 -1.38366 1.5
      vertex -7.6321 -1.38654 1.5
    endloop
  endfacet
  facet normal 0.146696 0.989182 0
    outer loop
      vertex -7.65152 -1.38366 1.5
      vertex -7.6321 -1.38654 1.1
      vertex -7.65152 -1.38366 1.1
    endloop
  endfacet
  facet normal -0.998803 0.0489209 0
    outer loop
      vertex 7.81154 -1.2071 1.1
      vertex 7.8125 -1.1875 1.5
      vertex 7.8125 -1.1875 1.1
    endloop
  endfacet
  facet normal -0.998803 0.0489209 0
    outer loop
      vertex 7.8125 -1.1875 1.5
      vertex 7.81154 -1.2071 1.1
      vertex 7.81154 -1.2071 1.5
    endloop
  endfacet
  facet normal 0.998803 0.0489209 0
    outer loop
      vertex -7.81154 -1.2071 1.5
      vertex -7.8125 -1.1875 1.1
      vertex -7.8125 -1.1875 1.5
    endloop
  endfacet
  facet normal 0.998803 0.0489209 0
    outer loop
      vertex -7.8125 -1.1875 1.1
      vertex -7.81154 -1.2071 1.5
      vertex -7.81154 -1.2071 1.1
    endloop
  endfacet
  facet normal 0 -1 0
    outer loop
      vertex -7.6125 -0.987499 1.1
      vertex 7.6125 -0.987499 1.5
      vertex -7.6125 -0.987499 1.5
    endloop
  endfacet
  facet normal 0 -1 -0
    outer loop
      vertex 7.6125 -0.987499 1.5
      vertex -7.6125 -0.987499 1.1
      vertex 7.6125 -0.987499 1.1
    endloop
  endfacet
  facet normal 0.242967 -0.970035 0
    outer loop
      vertex -7.67056 -0.996112 1.1
      vertex -7.65152 -0.991343 1.5
      vertex -7.67056 -0.996112 1.5
    endloop
  endfacet
  facet normal 0.242967 -0.970035 0
    outer loop
      vertex -7.65152 -0.991343 1.5
      vertex -7.67056 -0.996112 1.1
      vertex -7.65152 -0.991343 1.1
    endloop
  endfacet
  facet normal -0.989182 0.146696 0
    outer loop
      vertex 7.80866 -1.22652 1.1
      vertex 7.81154 -1.2071 1.5
      vertex 7.81154 -1.2071 1.1
    endloop
  endfacet
  facet normal -0.989182 0.146696 0
    outer loop
      vertex 7.81154 -1.2071 1.5
      vertex 7.80866 -1.22652 1.1
      vertex 7.80866 -1.22652 1.5
    endloop
  endfacet
  facet normal 0.671607 -0.740908 0
    outer loop
      vertex -7.75392 -1.04608 1.1
      vertex -7.73938 -1.0329 1.5
      vertex -7.75392 -1.04608 1.5
    endloop
  endfacet
  facet normal 0.671607 -0.740908 0
    outer loop
      vertex -7.73938 -1.0329 1.5
      vertex -7.75392 -1.04608 1.1
      vertex -7.73938 -1.0329 1.1
    endloop
  endfacet
  facet normal -0.336698 -0.941613 0
    outer loop
      vertex 7.67056 -0.996112 1.1
      vertex 7.68904 -1.00272 1.5
      vertex 7.67056 -0.996112 1.5
    endloop
  endfacet
  facet normal -0.336698 -0.941613 -0
    outer loop
      vertex 7.68904 -1.00272 1.5
      vertex 7.67056 -0.996112 1.1
      vertex 7.68904 -1.00272 1.1
    endloop
  endfacet
  facet normal -0.0489209 0.998803 0
    outer loop
      vertex 7.6321 -1.38654 1.1
      vertex 7.6125 -1.3875 1.5
      vertex 7.6321 -1.38654 1.5
    endloop
  endfacet
  facet normal -0.0489209 0.998803 0
    outer loop
      vertex 7.6125 -1.3875 1.5
      vertex 7.6321 -1.38654 1.1
      vertex 7.6125 -1.3875 1.1
    endloop
  endfacet
  facet normal 0.514196 0.857673 -0
    outer loop
      vertex -7.70678 -1.36388 1.1
      vertex -7.72361 -1.35379 1.5
      vertex -7.70678 -1.36388 1.5
    endloop
  endfacet
  facet normal 0.514196 0.857673 0
    outer loop
      vertex -7.72361 -1.35379 1.5
      vertex -7.70678 -1.36388 1.1
      vertex -7.72361 -1.35379 1.1
    endloop
  endfacet
  facet normal -0.9038 -0.427955 0
    outer loop
      vertex 7.79728 -1.11096 1.1
      vertex 7.78888 -1.09322 1.5
      vertex 7.78888 -1.09322 1.1
    endloop
  endfacet
  facet normal -0.9038 -0.427955 0
    outer loop
      vertex 7.78888 -1.09322 1.5
      vertex 7.79728 -1.11096 1.1
      vertex 7.79728 -1.11096 1.5
    endloop
  endfacet
  facet normal 0.514196 -0.857673 0
    outer loop
      vertex -7.72361 -1.02121 1.1
      vertex -7.70678 -1.01112 1.5
      vertex -7.72361 -1.02121 1.5
    endloop
  endfacet
  facet normal 0.514196 -0.857673 0
    outer loop
      vertex -7.70678 -1.01112 1.5
      vertex -7.72361 -1.02121 1.1
      vertex -7.70678 -1.01112 1.1
    endloop
  endfacet
  facet normal -0.970023 -0.243015 0
    outer loop
      vertex 7.80866 -1.14848 1.1
      vertex 7.80389 -1.12944 1.5
      vertex 7.80389 -1.12944 1.1
    endloop
  endfacet
  facet normal -0.970023 -0.243015 0
    outer loop
      vertex 7.80389 -1.12944 1.5
      vertex 7.80866 -1.14848 1.1
      vertex 7.80866 -1.14848 1.5
    endloop
  endfacet
  facet normal 0 1 -0
    outer loop
      vertex 7.6125 -1.3875 1.1
      vertex -7.6125 -1.3875 1.5
      vertex 7.6125 -1.3875 1.5
    endloop
  endfacet
  facet normal 0 1 0
    outer loop
      vertex -7.6125 -1.3875 1.5
      vertex 7.6125 -1.3875 1.1
      vertex -7.6125 -1.3875 1.1
    endloop
  endfacet
  facet normal 0.80335 -0.595508 0
    outer loop
      vertex -7.77879 -1.07639 1.5
      vertex -7.7671 -1.06062 1.1
      vertex -7.7671 -1.06062 1.5
    endloop
  endfacet
  facet normal 0.80335 -0.595508 0
    outer loop
      vertex -7.7671 -1.06062 1.1
      vertex -7.77879 -1.07639 1.5
      vertex -7.77879 -1.07639 1.1
    endloop
  endfacet
  facet normal -0.857673 0.514196 0
    outer loop
      vertex 7.77879 -1.29861 1.1
      vertex 7.78888 -1.28178 1.5
      vertex 7.78888 -1.28178 1.1
    endloop
  endfacet
  facet normal -0.857673 0.514196 0
    outer loop
      vertex 7.78888 -1.28178 1.5
      vertex 7.77879 -1.29861 1.1
      vertex 7.77879 -1.29861 1.5
    endloop
  endfacet
  facet normal -0.80335 0.595508 0
    outer loop
      vertex 7.7671 -1.31438 1.1
      vertex 7.77879 -1.29861 1.5
      vertex 7.77879 -1.29861 1.1
    endloop
  endfacet
  facet normal -0.80335 0.595508 0
    outer loop
      vertex 7.77879 -1.29861 1.5
      vertex 7.7671 -1.31438 1.1
      vertex 7.7671 -1.31438 1.5
    endloop
  endfacet
  facet normal 0.336788 0.94158 -0
    outer loop
      vertex -7.67056 -1.37889 1.1
      vertex -7.68904 -1.37228 1.5
      vertex -7.67056 -1.37889 1.5
    endloop
  endfacet
  facet normal 0.336788 0.94158 0
    outer loop
      vertex -7.68904 -1.37228 1.5
      vertex -7.67056 -1.37889 1.1
      vertex -7.68904 -1.37228 1.1
    endloop
  endfacet
  facet normal 0.970023 0.243015 0
    outer loop
      vertex -7.80389 -1.24556 1.5
      vertex -7.80866 -1.22652 1.1
      vertex -7.80866 -1.22652 1.5
    endloop
  endfacet
  facet normal 0.970023 0.243015 0
    outer loop
      vertex -7.80866 -1.22652 1.1
      vertex -7.80389 -1.24556 1.5
      vertex -7.80389 -1.24556 1.1
    endloop
  endfacet
  facet normal 0.427955 -0.9038 0
    outer loop
      vertex -7.70678 -1.01112 1.1
      vertex -7.68904 -1.00272 1.5
      vertex -7.70678 -1.01112 1.5
    endloop
  endfacet
  facet normal 0.427955 -0.9038 0
    outer loop
      vertex -7.68904 -1.00272 1.5
      vertex -7.70678 -1.01112 1.1
      vertex -7.68904 -1.00272 1.1
    endloop
  endfacet
  facet normal -0.336788 0.94158 0
    outer loop
      vertex 7.68904 -1.37228 1.1
      vertex 7.67056 -1.37889 1.5
      vertex 7.68904 -1.37228 1.5
    endloop
  endfacet
  facet normal -0.336788 0.94158 0
    outer loop
      vertex 7.67056 -1.37889 1.5
      vertex 7.68904 -1.37228 1.1
      vertex 7.67056 -1.37889 1.1
    endloop
  endfacet
  facet normal 0.427955 0.9038 -0
    outer loop
      vertex -7.68904 -1.37228 1.1
      vertex -7.70678 -1.36388 1.5
      vertex -7.68904 -1.37228 1.5
    endloop
  endfacet
  facet normal 0.427955 0.9038 0
    outer loop
      vertex -7.70678 -1.36388 1.5
      vertex -7.68904 -1.37228 1.1
      vertex -7.70678 -1.36388 1.1
    endloop
  endfacet
  facet normal 0.740908 -0.671607 0
    outer loop
      vertex -7.7671 -1.06062 1.5
      vertex -7.75392 -1.04608 1.1
      vertex -7.75392 -1.04608 1.5
    endloop
  endfacet
  facet normal 0.740908 -0.671607 0
    outer loop
      vertex -7.75392 -1.04608 1.1
      vertex -7.7671 -1.06062 1.5
      vertex -7.7671 -1.06062 1.1
    endloop
  endfacet
  facet normal 0.970023 -0.243015 0
    outer loop
      vertex -7.80866 -1.14848 1.5
      vertex -7.80389 -1.12944 1.1
      vertex -7.80389 -1.12944 1.5
    endloop
  endfacet
  facet normal 0.970023 -0.243015 0
    outer loop
      vertex -7.80389 -1.12944 1.1
      vertex -7.80866 -1.14848 1.5
      vertex -7.80866 -1.14848 1.1
    endloop
  endfacet
  facet normal 0.94158 -0.336788 0
    outer loop
      vertex -7.80389 -1.12944 1.5
      vertex -7.79728 -1.11096 1.1
      vertex -7.79728 -1.11096 1.5
    endloop
  endfacet
  facet normal 0.94158 -0.336788 0
    outer loop
      vertex -7.79728 -1.11096 1.1
      vertex -7.80389 -1.12944 1.5
      vertex -7.80389 -1.12944 1.1
    endloop
  endfacet
  facet normal 0.857673 -0.514196 0
    outer loop
      vertex -7.78888 -1.09322 1.5
      vertex -7.77879 -1.07639 1.1
      vertex -7.77879 -1.07639 1.5
    endloop
  endfacet
  facet normal 0.857673 -0.514196 0
    outer loop
      vertex -7.77879 -1.07639 1.1
      vertex -7.78888 -1.09322 1.5
      vertex -7.78888 -1.09322 1.1
    endloop
  endfacet
  facet normal -0.242967 -0.970035 0
    outer loop
      vertex 7.65152 -0.991343 1.1
      vertex 7.67056 -0.996112 1.5
      vertex 7.65152 -0.991343 1.5
    endloop
  endfacet
  facet normal -0.242967 -0.970035 -0
    outer loop
      vertex 7.67056 -0.996112 1.5
      vertex 7.65152 -0.991343 1.1
      vertex 7.67056 -0.996112 1.1
    endloop
  endfacet
  facet normal 0.0490735 -0.998795 0
    outer loop
      vertex -7.6321 -0.988462 1.1
      vertex -7.6125 -0.987499 1.5
      vertex -7.6321 -0.988462 1.5
    endloop
  endfacet
  facet normal 0.0490735 -0.998795 0
    outer loop
      vertex -7.6125 -0.987499 1.5
      vertex -7.6321 -0.988462 1.1
      vertex -7.6125 -0.987499 1.1
    endloop
  endfacet
  facet normal -0.427955 -0.9038 0
    outer loop
      vertex 7.68904 -1.00272 1.1
      vertex 7.70678 -1.01112 1.5
      vertex 7.68904 -1.00272 1.5
    endloop
  endfacet
  facet normal -0.427955 -0.9038 -0
    outer loop
      vertex 7.70678 -1.01112 1.5
      vertex 7.68904 -1.00272 1.1
      vertex 7.70678 -1.01112 1.1
    endloop
  endfacet
  facet normal -0.998803 -0.0489209 0
    outer loop
      vertex 7.8125 -1.1875 1.1
      vertex 7.81154 -1.1679 1.5
      vertex 7.81154 -1.1679 1.1
    endloop
  endfacet
  facet normal -0.998803 -0.0489209 0
    outer loop
      vertex 7.81154 -1.1679 1.5
      vertex 7.8125 -1.1875 1.1
      vertex 7.8125 -1.1875 1.5
    endloop
  endfacet
  facet normal 0.146746 -0.989174 0
    outer loop
      vertex -7.65152 -0.991343 1.1
      vertex -7.6321 -0.988462 1.5
      vertex -7.65152 -0.991343 1.5
    endloop
  endfacet
  facet normal 0.146746 -0.989174 0
    outer loop
      vertex -7.6321 -0.988462 1.5
      vertex -7.65152 -0.991343 1.1
      vertex -7.6321 -0.988462 1.1
    endloop
  endfacet
  facet normal -0.857673 -0.514196 0
    outer loop
      vertex 7.78888 -1.09322 1.1
      vertex 7.77879 -1.07639 1.5
      vertex 7.77879 -1.07639 1.1
    endloop
  endfacet
  facet normal -0.857673 -0.514196 0
    outer loop
      vertex 7.77879 -1.07639 1.5
      vertex 7.78888 -1.09322 1.1
      vertex 7.78888 -1.09322 1.5
    endloop
  endfacet
  facet normal -0.595508 -0.80335 0
    outer loop
      vertex 7.72361 -1.02121 1.1
      vertex 7.73938 -1.0329 1.5
      vertex 7.72361 -1.02121 1.5
    endloop
  endfacet
  facet normal -0.595508 -0.80335 -0
    outer loop
      vertex 7.73938 -1.0329 1.5
      vertex 7.72361 -1.02121 1.1
      vertex 7.73938 -1.0329 1.1
    endloop
  endfacet
  facet normal 0.595508 -0.80335 0
    outer loop
      vertex -7.73938 -1.0329 1.1
      vertex -7.72361 -1.02121 1.5
      vertex -7.73938 -1.0329 1.5
    endloop
  endfacet
  facet normal 0.595508 -0.80335 0
    outer loop
      vertex -7.72361 -1.02121 1.5
      vertex -7.73938 -1.0329 1.1
      vertex -7.72361 -1.02121 1.1
    endloop
  endfacet
  facet normal 0.243015 0.970023 -0
    outer loop
      vertex -7.65152 -1.38366 1.1
      vertex -7.67056 -1.37889 1.5
      vertex -7.65152 -1.38366 1.5
    endloop
  endfacet
  facet normal 0.243015 0.970023 0
    outer loop
      vertex -7.67056 -1.37889 1.5
      vertex -7.65152 -1.38366 1.1
      vertex -7.67056 -1.37889 1.1
    endloop
  endfacet
  facet normal 0.80335 0.595508 0
    outer loop
      vertex -7.7671 -1.31438 1.5
      vertex -7.77879 -1.29861 1.1
      vertex -7.77879 -1.29861 1.5
    endloop
  endfacet
  facet normal 0.80335 0.595508 0
    outer loop
      vertex -7.77879 -1.29861 1.1
      vertex -7.7671 -1.31438 1.5
      vertex -7.7671 -1.31438 1.1
    endloop
  endfacet
  facet normal -0.989182 -0.146696 0
    outer loop
      vertex 7.81154 -1.1679 1.1
      vertex 7.80866 -1.14848 1.5
      vertex 7.80866 -1.14848 1.1
    endloop
  endfacet
  facet normal -0.989182 -0.146696 0
    outer loop
      vertex 7.80866 -1.14848 1.5
      vertex 7.81154 -1.1679 1.1
      vertex 7.81154 -1.1679 1.5
    endloop
  endfacet
  facet normal 0.989182 -0.146696 0
    outer loop
      vertex -7.81154 -1.1679 1.5
      vertex -7.80866 -1.14848 1.1
      vertex -7.80866 -1.14848 1.5
    endloop
  endfacet
  facet normal 0.989182 -0.146696 0
    outer loop
      vertex -7.80866 -1.14848 1.1
      vertex -7.81154 -1.1679 1.5
      vertex -7.81154 -1.1679 1.1
    endloop
  endfacet
  facet normal 0.998803 -0.0489209 0
    outer loop
      vertex -7.8125 -1.1875 1.5
      vertex -7.81154 -1.1679 1.1
      vertex -7.81154 -1.1679 1.5
    endloop
  endfacet
  facet normal 0.998803 -0.0489209 0
    outer loop
      vertex -7.81154 -1.1679 1.1
      vertex -7.8125 -1.1875 1.5
      vertex -7.8125 -1.1875 1.1
    endloop
  endfacet
  facet normal -0.740908 0.671607 0
    outer loop
      vertex 7.75392 -1.32892 1.1
      vertex 7.7671 -1.31438 1.5
      vertex 7.7671 -1.31438 1.1
    endloop
  endfacet
  facet normal -0.740908 0.671607 0
    outer loop
      vertex 7.7671 -1.31438 1.5
      vertex 7.75392 -1.32892 1.1
      vertex 7.75392 -1.32892 1.5
    endloop
  endfacet
  facet normal -0.146696 0.989182 0
    outer loop
      vertex 7.65152 -1.38366 1.1
      vertex 7.6321 -1.38654 1.5
      vertex 7.65152 -1.38366 1.5
    endloop
  endfacet
  facet normal -0.146696 0.989182 0
    outer loop
      vertex 7.6321 -1.38654 1.5
      vertex 7.65152 -1.38366 1.1
      vertex 7.6321 -1.38654 1.1
    endloop
  endfacet
  facet normal 0.336698 -0.941613 0
    outer loop
      vertex -7.68904 -1.00272 1.1
      vertex -7.67056 -0.996112 1.5
      vertex -7.68904 -1.00272 1.5
    endloop
  endfacet
  facet normal 0.336698 -0.941613 0
    outer loop
      vertex -7.67056 -0.996112 1.5
      vertex -7.68904 -1.00272 1.1
      vertex -7.67056 -0.996112 1.1
    endloop
  endfacet
  facet normal -0.671607 -0.740908 0
    outer loop
      vertex 7.73938 -1.0329 1.1
      vertex 7.75392 -1.04608 1.5
      vertex 7.73938 -1.0329 1.5
    endloop
  endfacet
  facet normal -0.671607 -0.740908 -0
    outer loop
      vertex 7.75392 -1.04608 1.5
      vertex 7.73938 -1.0329 1.1
      vertex 7.75392 -1.04608 1.1
    endloop
  endfacet
  facet normal -0.970023 0.243015 0
    outer loop
      vertex 7.80389 -1.24556 1.1
      vertex 7.80866 -1.22652 1.5
      vertex 7.80866 -1.22652 1.1
    endloop
  endfacet
  facet normal -0.970023 0.243015 0
    outer loop
      vertex 7.80866 -1.22652 1.5
      vertex 7.80389 -1.24556 1.1
      vertex 7.80389 -1.24556 1.5
    endloop
  endfacet
  facet normal -0.514196 -0.857673 0
    outer loop
      vertex 7.70678 -1.01112 1.1
      vertex 7.72361 -1.02121 1.5
      vertex 7.70678 -1.01112 1.5
    endloop
  endfacet
  facet normal -0.514196 -0.857673 -0
    outer loop
      vertex 7.72361 -1.02121 1.5
      vertex 7.70678 -1.01112 1.1
      vertex 7.72361 -1.02121 1.1
    endloop
  endfacet
  facet normal 0.9038 -0.427955 0
    outer loop
      vertex -7.79728 -1.11096 1.5
      vertex -7.78888 -1.09322 1.1
      vertex -7.78888 -1.09322 1.5
    endloop
  endfacet
  facet normal 0.9038 -0.427955 0
    outer loop
      vertex -7.78888 -1.09322 1.1
      vertex -7.79728 -1.11096 1.5
      vertex -7.79728 -1.11096 1.1
    endloop
  endfacet
  facet normal -0.514196 0.857673 0
    outer loop
      vertex 7.72361 -1.35379 1.1
      vertex 7.70678 -1.36388 1.5
      vertex 7.72361 -1.35379 1.5
    endloop
  endfacet
  facet normal -0.514196 0.857673 0
    outer loop
      vertex 7.70678 -1.36388 1.5
      vertex 7.72361 -1.35379 1.1
      vertex 7.70678 -1.36388 1.1
    endloop
  endfacet
  facet normal -0.94158 -0.336788 0
    outer loop
      vertex 7.80389 -1.12944 1.1
      vertex 7.79728 -1.11096 1.5
      vertex 7.79728 -1.11096 1.1
    endloop
  endfacet
  facet normal -0.94158 -0.336788 0
    outer loop
      vertex 7.79728 -1.11096 1.5
      vertex 7.80389 -1.12944 1.1
      vertex 7.80389 -1.12944 1.5
    endloop
  endfacet
  facet normal -0.595508 0.80335 0
    outer loop
      vertex 7.73938 -1.3421 1.1
      vertex 7.72361 -1.35379 1.5
      vertex 7.73938 -1.3421 1.5
    endloop
  endfacet
  facet normal -0.595508 0.80335 0
    outer loop
      vertex 7.72361 -1.35379 1.5
      vertex 7.73938 -1.3421 1.1
      vertex 7.72361 -1.35379 1.1
    endloop
  endfacet
  facet normal 0.740908 0.671607 0
    outer loop
      vertex -7.75392 -1.32892 1.5
      vertex -7.7671 -1.31438 1.1
      vertex -7.7671 -1.31438 1.5
    endloop
  endfacet
  facet normal 0.740908 0.671607 0
    outer loop
      vertex -7.7671 -1.31438 1.1
      vertex -7.75392 -1.32892 1.5
      vertex -7.75392 -1.32892 1.1
    endloop
  endfacet
  facet normal -0.427955 0.9038 0
    outer loop
      vertex 7.70678 -1.36388 1.1
      vertex 7.68904 -1.37228 1.5
      vertex 7.70678 -1.36388 1.5
    endloop
  endfacet
  facet normal -0.427955 0.9038 0
    outer loop
      vertex 7.68904 -1.37228 1.5
      vertex 7.70678 -1.36388 1.1
      vertex 7.68904 -1.37228 1.1
    endloop
  endfacet
  facet normal -0.740908 -0.671607 0
    outer loop
      vertex 7.7671 -1.06062 1.1
      vertex 7.75392 -1.04608 1.5
      vertex 7.75392 -1.04608 1.1
    endloop
  endfacet
  facet normal -0.740908 -0.671607 0
    outer loop
      vertex 7.75392 -1.04608 1.5
      vertex 7.7671 -1.06062 1.1
      vertex 7.7671 -1.06062 1.5
    endloop
  endfacet
  facet normal -0.243015 0.970023 0
    outer loop
      vertex 7.67056 -1.37889 1.1
      vertex 7.65152 -1.38366 1.5
      vertex 7.67056 -1.37889 1.5
    endloop
  endfacet
  facet normal -0.243015 0.970023 0
    outer loop
      vertex 7.65152 -1.38366 1.5
      vertex 7.67056 -1.37889 1.1
      vertex 7.65152 -1.38366 1.1
    endloop
  endfacet
  facet normal -0.80335 -0.595508 0
    outer loop
      vertex 7.77879 -1.07639 1.1
      vertex 7.7671 -1.06062 1.5
      vertex 7.7671 -1.06062 1.1
    endloop
  endfacet
  facet normal -0.80335 -0.595508 0
    outer loop
      vertex 7.7671 -1.06062 1.5
      vertex 7.77879 -1.07639 1.1
      vertex 7.77879 -1.07639 1.5
    endloop
  endfacet
  facet normal -0.146746 -0.989174 0
    outer loop
      vertex 7.6321 -0.988462 1.1
      vertex 7.65152 -0.991343 1.5
      vertex 7.6321 -0.988462 1.5
    endloop
  endfacet
  facet normal -0.146746 -0.989174 -0
    outer loop
      vertex 7.65152 -0.991343 1.5
      vertex 7.6321 -0.988462 1.1
      vertex 7.65152 -0.991343 1.1
    endloop
  endfacet
  facet normal -0.94158 0.336788 0
    outer loop
      vertex 7.79728 -1.26404 1.1
      vertex 7.80389 -1.24556 1.5
      vertex 7.80389 -1.24556 1.1
    endloop
  endfacet
  facet normal -0.94158 0.336788 0
    outer loop
      vertex 7.80389 -1.24556 1.5
      vertex 7.79728 -1.26404 1.1
      vertex 7.79728 -1.26404 1.5
    endloop
  endfacet
  facet normal -0.9038 0.427955 0
    outer loop
      vertex 7.78888 -1.28178 1.1
      vertex 7.79728 -1.26404 1.5
      vertex 7.79728 -1.26404 1.1
    endloop
  endfacet
  facet normal -0.9038 0.427955 0
    outer loop
      vertex 7.79728 -1.26404 1.5
      vertex 7.78888 -1.28178 1.1
      vertex 7.78888 -1.28178 1.5
    endloop
  endfacet
  facet normal -0.0490735 -0.998795 0
    outer loop
      vertex 7.6125 -0.987499 1.1
      vertex 7.6321 -0.988462 1.5
      vertex 7.6125 -0.987499 1.5
    endloop
  endfacet
  facet normal -0.0490735 -0.998795 -0
    outer loop
      vertex 7.6321 -0.988462 1.5
      vertex 7.6125 -0.987499 1.1
      vertex 7.6321 -0.988462 1.1
    endloop
  endfacet
  facet normal 0.9038 0.427955 0
    outer loop
      vertex -7.78888 -1.28178 1.5
      vertex -7.79728 -1.26404 1.1
      vertex -7.79728 -1.26404 1.5
    endloop
  endfacet
  facet normal 0.9038 0.427955 0
    outer loop
      vertex -7.79728 -1.26404 1.1
      vertex -7.78888 -1.28178 1.5
      vertex -7.78888 -1.28178 1.1
    endloop
  endfacet
  facet normal 0.0489209 0.998803 -0
    outer loop
      vertex -7.6125 -1.3875 1.1
      vertex -7.6321 -1.38654 1.5
      vertex -7.6125 -1.3875 1.5
    endloop
  endfacet
  facet normal 0.0489209 0.998803 0
    outer loop
      vertex -7.6321 -1.38654 1.5
      vertex -7.6125 -1.3875 1.1
      vertex -7.6321 -1.38654 1.1
    endloop
  endfacet
  facet normal -0.671607 0.740908 0
    outer loop
      vertex 7.75392 -1.32892 1.1
      vertex 7.73938 -1.3421 1.5
      vertex 7.75392 -1.32892 1.5
    endloop
  endfacet
  facet normal -0.671607 0.740908 0
    outer loop
      vertex 7.73938 -1.3421 1.5
      vertex 7.75392 -1.32892 1.1
      vertex 7.73938 -1.3421 1.1
    endloop
  endfacet
  facet normal 0.857673 0.514196 0
    outer loop
      vertex -7.77879 -1.29861 1.5
      vertex -7.78888 -1.28178 1.1
      vertex -7.78888 -1.28178 1.5
    endloop
  endfacet
  facet normal 0.857673 0.514196 0
    outer loop
      vertex -7.78888 -1.28178 1.1
      vertex -7.77879 -1.29861 1.5
      vertex -7.77879 -1.29861 1.1
    endloop
  endfacet
  facet normal 0.595508 0.80335 -0
    outer loop
      vertex -7.72361 -1.35379 1.1
      vertex -7.73938 -1.3421 1.5
      vertex -7.72361 -1.35379 1.5
    endloop
  endfacet
  facet normal 0.595508 0.80335 0
    outer loop
      vertex -7.73938 -1.3421 1.5
      vertex -7.72361 -1.35379 1.1
      vertex -7.73938 -1.3421 1.1
    endloop
  endfacet
  facet normal 0.671607 0.740908 -0
    outer loop
      vertex -7.73938 -1.3421 1.1
      vertex -7.75392 -1.32892 1.5
      vertex -7.73938 -1.3421 1.5
    endloop
  endfacet
  facet normal 0.671607 0.740908 0
    outer loop
      vertex -7.75392 -1.32892 1.5
      vertex -7.73938 -1.3421 1.1
      vertex -7.75392 -1.32892 1.1
    endloop
  endfacet
  facet normal 0 0 1
    outer loop
      vertex 7.81154 -1.1679 1.1
      vertex 7.81154 -1.2071 1.1
      vertex 7.8125 -1.1875 1.1
    endloop
  endfacet
  facet normal 0 0 1
    outer loop
      vertex 7.80866 -1.14848 1.1
      vertex 7.81154 -1.2071 1.1
      vertex 7.81154 -1.1679 1.1
    endloop
  endfacet
  facet normal 0 0 1
    outer loop
      vertex 7.80866 -1.14848 1.1
      vertex 7.80866 -1.22652 1.1
      vertex 7.81154 -1.2071 1.1
    endloop
  endfacet
  facet normal 0 0 1
    outer loop
      vertex 7.80389 -1.12944 1.1
      vertex 7.80866 -1.22652 1.1
      vertex 7.80866 -1.14848 1.1
    endloop
  endfacet
  facet normal 0 0 1
    outer loop
      vertex 7.80389 -1.12944 1.1
      vertex 7.80389 -1.24556 1.1
      vertex 7.80866 -1.22652 1.1
    endloop
  endfacet
  facet normal 0 0 1
    outer loop
      vertex 7.79728 -1.11096 1.1
      vertex 7.80389 -1.24556 1.1
      vertex 7.80389 -1.12944 1.1
    endloop
  endfacet
  facet normal 0 0 1
    outer loop
      vertex 7.79728 -1.11096 1.1
      vertex 7.79728 -1.26404 1.1
      vertex 7.80389 -1.24556 1.1
    endloop
  endfacet
  facet normal 0 0 1
    outer loop
      vertex 7.78888 -1.09322 1.1
      vertex 7.79728 -1.26404 1.1
      vertex 7.79728 -1.11096 1.1
    endloop
  endfacet
  facet normal 0 0 1
    outer loop
      vertex 7.78888 -1.09322 1.1
      vertex 7.78888 -1.28178 1.1
      vertex 7.79728 -1.26404 1.1
    endloop
  endfacet
  facet normal 0 0 1
    outer loop
      vertex 7.77879 -1.07639 1.1
      vertex 7.78888 -1.28178 1.1
      vertex 7.78888 -1.09322 1.1
    endloop
  endfacet
  facet normal 0 0 1
    outer loop
      vertex 7.77879 -1.07639 1.1
      vertex 7.77879 -1.29861 1.1
      vertex 7.78888 -1.28178 1.1
    endloop
  endfacet
  facet normal 0 0 1
    outer loop
      vertex 7.7671 -1.06062 1.1
      vertex 7.77879 -1.29861 1.1
      vertex 7.77879 -1.07639 1.1
    endloop
  endfacet
  facet normal 0 0 1
    outer loop
      vertex 7.7671 -1.06062 1.1
      vertex 7.7671 -1.31438 1.1
      vertex 7.77879 -1.29861 1.1
    endloop
  endfacet
  facet normal 0 0 1
    outer loop
      vertex 7.75392 -1.04608 1.1
      vertex 7.7671 -1.31438 1.1
      vertex 7.7671 -1.06062 1.1
    endloop
  endfacet
  facet normal 0 0 1
    outer loop
      vertex 7.75392 -1.04608 1.1
      vertex 7.75392 -1.32892 1.1
      vertex 7.7671 -1.31438 1.1
    endloop
  endfacet
  facet normal 0 0 1
    outer loop
      vertex 7.73938 -1.0329 1.1
      vertex 7.75392 -1.32892 1.1
      vertex 7.75392 -1.04608 1.1
    endloop
  endfacet
  facet normal 0 0 1
    outer loop
      vertex 7.73938 -1.0329 1.1
      vertex 7.73938 -1.3421 1.1
      vertex 7.75392 -1.32892 1.1
    endloop
  endfacet
  facet normal 0 0 1
    outer loop
      vertex 7.72361 -1.02121 1.1
      vertex 7.73938 -1.3421 1.1
      vertex 7.73938 -1.0329 1.1
    endloop
  endfacet
  facet normal 0 0 1
    outer loop
      vertex 7.72361 -1.02121 1.1
      vertex 7.72361 -1.35379 1.1
      vertex 7.73938 -1.3421 1.1
    endloop
  endfacet
  facet normal 0 0 1
    outer loop
      vertex 7.70678 -1.01112 1.1
      vertex 7.72361 -1.35379 1.1
      vertex 7.72361 -1.02121 1.1
    endloop
  endfacet
  facet normal 0 0 1
    outer loop
      vertex 7.70678 -1.01112 1.1
      vertex 7.70678 -1.36388 1.1
      vertex 7.72361 -1.35379 1.1
    endloop
  endfacet
  facet normal 0 0 1
    outer loop
      vertex 7.68904 -1.00272 1.1
      vertex 7.70678 -1.36388 1.1
      vertex 7.70678 -1.01112 1.1
    endloop
  endfacet
  facet normal 0 0 1
    outer loop
      vertex 7.68904 -1.00272 1.1
      vertex 7.68904 -1.37228 1.1
      vertex 7.70678 -1.36388 1.1
    endloop
  endfacet
  facet normal 0 0 1
    outer loop
      vertex 7.67056 -0.996112 1.1
      vertex 7.68904 -1.37228 1.1
      vertex 7.68904 -1.00272 1.1
    endloop
  endfacet
  facet normal 0 0 1
    outer loop
      vertex 7.67056 -0.996112 1.1
      vertex 7.67056 -1.37889 1.1
      vertex 7.68904 -1.37228 1.1
    endloop
  endfacet
  facet normal 0 0 1
    outer loop
      vertex 7.65152 -0.991343 1.1
      vertex 7.67056 -1.37889 1.1
      vertex 7.67056 -0.996112 1.1
    endloop
  endfacet
  facet normal 0 0 1
    outer loop
      vertex 7.65152 -0.991343 1.1
      vertex 7.65152 -1.38366 1.1
      vertex 7.67056 -1.37889 1.1
    endloop
  endfacet
  facet normal 0 0 1
    outer loop
      vertex 7.6321 -0.988462 1.1
      vertex 7.65152 -1.38366 1.1
      vertex 7.65152 -0.991343 1.1
    endloop
  endfacet
  facet normal 0 0 1
    outer loop
      vertex 7.6321 -0.988462 1.1
      vertex 7.6321 -1.38654 1.1
      vertex 7.65152 -1.38366 1.1
    endloop
  endfacet
  facet normal 0 0 1
    outer loop
      vertex 7.6125 -0.987499 1.1
      vertex 7.6321 -1.38654 1.1
      vertex 7.6321 -0.988462 1.1
    endloop
  endfacet
  facet normal 0 0 1
    outer loop
      vertex 7.6125 -0.987499 1.1
      vertex 7.6125 -1.3875 1.1
      vertex 7.6321 -1.38654 1.1
    endloop
  endfacet
  facet normal -0 0 1
    outer loop
      vertex -7.6125 -0.987499 1.1
      vertex 7.6125 -1.3875 1.1
      vertex 7.6125 -0.987499 1.1
    endloop
  endfacet
  facet normal 0 0 1
    outer loop
      vertex -7.6125 -0.987499 1.1
      vertex -7.6125 -1.3875 1.1
      vertex 7.6125 -1.3875 1.1
    endloop
  endfacet
  facet normal -0 0 1
    outer loop
      vertex -7.6321 -0.988462 1.1
      vertex -7.6125 -1.3875 1.1
      vertex -7.6125 -0.987499 1.1
    endloop
  endfacet
  facet normal 0 0 1
    outer loop
      vertex -7.6321 -0.988462 1.1
      vertex -7.6321 -1.38654 1.1
      vertex -7.6125 -1.3875 1.1
    endloop
  endfacet
  facet normal -0 0 1
    outer loop
      vertex -7.65152 -0.991343 1.1
      vertex -7.6321 -1.38654 1.1
      vertex -7.6321 -0.988462 1.1
    endloop
  endfacet
  facet normal 0 0 1
    outer loop
      vertex -7.65152 -0.991343 1.1
      vertex -7.65152 -1.38366 1.1
      vertex -7.6321 -1.38654 1.1
    endloop
  endfacet
  facet normal -0 0 1
    outer loop
      vertex -7.67056 -0.996112 1.1
      vertex -7.65152 -1.38366 1.1
      vertex -7.65152 -0.991343 1.1
    endloop
  endfacet
  facet normal 0 0 1
    outer loop
      vertex -7.67056 -0.996112 1.1
      vertex -7.67056 -1.37889 1.1
      vertex -7.65152 -1.38366 1.1
    endloop
  endfacet
  facet normal -0 0 1
    outer loop
      vertex -7.68904 -1.00272 1.1
      vertex -7.67056 -1.37889 1.1
      vertex -7.67056 -0.996112 1.1
    endloop
  endfacet
  facet normal 0 0 1
    outer loop
      vertex -7.68904 -1.00272 1.1
      vertex -7.68904 -1.37228 1.1
      vertex -7.67056 -1.37889 1.1
    endloop
  endfacet
  facet normal -0 0 1
    outer loop
      vertex -7.70678 -1.01112 1.1
      vertex -7.68904 -1.37228 1.1
      vertex -7.68904 -1.00272 1.1
    endloop
  endfacet
  facet normal 0 0 1
    outer loop
      vertex -7.70678 -1.01112 1.1
      vertex -7.70678 -1.36388 1.1
      vertex -7.68904 -1.37228 1.1
    endloop
  endfacet
  facet normal -0 0 1
    outer loop
      vertex -7.72361 -1.02121 1.1
      vertex -7.70678 -1.36388 1.1
      vertex -7.70678 -1.01112 1.1
    endloop
  endfacet
  facet normal 0 0 1
    outer loop
      vertex -7.72361 -1.02121 1.1
      vertex -7.72361 -1.35379 1.1
      vertex -7.70678 -1.36388 1.1
    endloop
  endfacet
  facet normal -0 0 1
    outer loop
      vertex -7.73938 -1.0329 1.1
      vertex -7.72361 -1.35379 1.1
      vertex -7.72361 -1.02121 1.1
    endloop
  endfacet
  facet normal 0 0 1
    outer loop
      vertex -7.73938 -1.0329 1.1
      vertex -7.73938 -1.3421 1.1
      vertex -7.72361 -1.35379 1.1
    endloop
  endfacet
  facet normal -0 0 1
    outer loop
      vertex -7.75392 -1.04608 1.1
      vertex -7.73938 -1.3421 1.1
      vertex -7.73938 -1.0329 1.1
    endloop
  endfacet
  facet normal 0 0 1
    outer loop
      vertex -7.75392 -1.04608 1.1
      vertex -7.75392 -1.32892 1.1
      vertex -7.73938 -1.3421 1.1
    endloop
  endfacet
  facet normal -0 0 1
    outer loop
      vertex -7.7671 -1.06062 1.1
      vertex -7.75392 -1.32892 1.1
      vertex -7.75392 -1.04608 1.1
    endloop
  endfacet
  facet normal 0 0 1
    outer loop
      vertex -7.7671 -1.06062 1.1
      vertex -7.7671 -1.31438 1.1
      vertex -7.75392 -1.32892 1.1
    endloop
  endfacet
  facet normal -0 0 1
    outer loop
      vertex -7.77879 -1.07639 1.1
      vertex -7.7671 -1.31438 1.1
      vertex -7.7671 -1.06062 1.1
    endloop
  endfacet
  facet normal 0 0 1
    outer loop
      vertex -7.77879 -1.07639 1.1
      vertex -7.77879 -1.29861 1.1
      vertex -7.7671 -1.31438 1.1
    endloop
  endfacet
  facet normal -0 0 1
    outer loop
      vertex -7.78888 -1.09322 1.1
      vertex -7.77879 -1.29861 1.1
      vertex -7.77879 -1.07639 1.1
    endloop
  endfacet
  facet normal 0 0 1
    outer loop
      vertex -7.78888 -1.09322 1.1
      vertex -7.78888 -1.28178 1.1
      vertex -7.77879 -1.29861 1.1
    endloop
  endfacet
  facet normal -0 0 1
    outer loop
      vertex -7.79728 -1.11096 1.1
      vertex -7.78888 -1.28178 1.1
      vertex -7.78888 -1.09322 1.1
    endloop
  endfacet
  facet normal 0 0 1
    outer loop
      vertex -7.79728 -1.11096 1.1
      vertex -7.79728 -1.26404 1.1
      vertex -7.78888 -1.28178 1.1
    endloop
  endfacet
  facet normal -0 0 1
    outer loop
      vertex -7.80389 -1.12944 1.1
      vertex -7.79728 -1.26404 1.1
      vertex -7.79728 -1.11096 1.1
    endloop
  endfacet
  facet normal 0 0 1
    outer loop
      vertex -7.80389 -1.12944 1.1
      vertex -7.80389 -1.24556 1.1
      vertex -7.79728 -1.26404 1.1
    endloop
  endfacet
  facet normal -0 0 1
    outer loop
      vertex -7.80866 -1.14848 1.1
      vertex -7.80389 -1.24556 1.1
      vertex -7.80389 -1.12944 1.1
    endloop
  endfacet
  facet normal 0 0 1
    outer loop
      vertex -7.80866 -1.14848 1.1
      vertex -7.80866 -1.22652 1.1
      vertex -7.80389 -1.24556 1.1
    endloop
  endfacet
  facet normal -0 0 1
    outer loop
      vertex -7.81154 -1.1679 1.1
      vertex -7.80866 -1.22652 1.1
      vertex -7.80866 -1.14848 1.1
    endloop
  endfacet
  facet normal 0 0 1
    outer loop
      vertex -7.81154 -1.1679 1.1
      vertex -7.81154 -1.2071 1.1
      vertex -7.80866 -1.22652 1.1
    endloop
  endfacet
  facet normal 0 -0 1
    outer loop
      vertex -7.81154 -1.2071 1.1
      vertex -7.81154 -1.1679 1.1
      vertex -7.8125 -1.1875 1.1
    endloop
  endfacet
  facet normal 0.94158 0.336788 0
    outer loop
      vertex -7.79728 -1.26404 1.5
      vertex -7.80389 -1.24556 1.1
      vertex -7.80389 -1.24556 1.5
    endloop
  endfacet
  facet normal 0.94158 0.336788 0
    outer loop
      vertex -7.80389 -1.24556 1.1
      vertex -7.79728 -1.26404 1.5
      vertex -7.79728 -1.26404 1.1
    endloop
  endfacet
endsolid OpenSCAD_Model
