solid OpenSCAD_Model
  facet normal 0 0 -1
    outer loop
      vertex 14.0625 -29.9375 0
      vertex 11.3425 -29.8039 0
      vertex 14.0625 -2.1875 0
    endloop
  endfacet
  facet normal 0 0 -1
    outer loop
      vertex 14.0625 -2.1875 0
      vertex 17.1875 2.1875 0
      vertex 17.1875 -2.1875 0
    endloop
  endfacet
  facet normal 0 0 -1
    outer loop
      vertex 8.64876 -29.4043 0
      vertex 14.0625 -2.1875 0
      vertex 11.3425 -29.8039 0
    endloop
  endfacet
  facet normal 0 0 -1
    outer loop
      vertex 6.00711 -28.7426 0
      vertex 14.0625 -2.1875 0
      vertex 8.64876 -29.4043 0
    endloop
  endfacet
  facet normal 0 0 -1
    outer loop
      vertex 3.44304 -27.8251 0
      vertex 14.0625 -2.1875 0
      vertex 6.00711 -28.7426 0
    endloop
  endfacet
  facet normal 0 0 -1
    outer loop
      vertex 0.981247 -26.6608 0
      vertex 14.0625 -2.1875 0
      vertex 3.44304 -27.8251 0
    endloop
  endfacet
  facet normal 0 0 -1
    outer loop
      vertex -1.35457 -25.2608 0
      vertex 14.0625 -2.1875 0
      vertex 0.981247 -26.6608 0
    endloop
  endfacet
  facet normal 0 0 -1
    outer loop
      vertex -3.5419 -23.6385 0
      vertex 14.0625 -2.1875 0
      vertex -1.35457 -25.2608 0
    endloop
  endfacet
  facet normal 0 0 -1
    outer loop
      vertex -5.55971 -21.8097 0
      vertex 14.0625 -2.1875 0
      vertex -3.5419 -23.6385 0
    endloop
  endfacet
  facet normal 0 0 -1
    outer loop
      vertex -7.38853 -19.7919 0
      vertex 14.0625 -2.1875 0
      vertex -5.55971 -21.8097 0
    endloop
  endfacet
  facet normal 0 0 -1
    outer loop
      vertex -9.01077 -17.6046 0
      vertex 14.0625 -2.1875 0
      vertex -7.38853 -19.7919 0
    endloop
  endfacet
  facet normal 0 0 -1
    outer loop
      vertex -10.4108 -15.2688 0
      vertex 14.0625 -2.1875 0
      vertex -9.01077 -17.6046 0
    endloop
  endfacet
  facet normal 0 0 -1
    outer loop
      vertex -11.5751 -12.807 0
      vertex 14.0625 -2.1875 0
      vertex -10.4108 -15.2688 0
    endloop
  endfacet
  facet normal 0 0 -1
    outer loop
      vertex -12.4926 -10.2429 0
      vertex 14.0625 -2.1875 0
      vertex -11.5751 -12.807 0
    endloop
  endfacet
  facet normal 0 0 -1
    outer loop
      vertex -13.1543 -7.60124 0
      vertex 14.0625 -2.1875 0
      vertex -12.4926 -10.2429 0
    endloop
  endfacet
  facet normal 0 0 -1
    outer loop
      vertex -13.5539 -4.90747 0
      vertex 14.0625 -2.1875 0
      vertex -13.1543 -7.60124 0
    endloop
  endfacet
  facet normal 0 0 -1
    outer loop
      vertex -13.6875 -2.1875 0
      vertex 14.0625 -2.1875 0
      vertex -13.5539 -4.90747 0
    endloop
  endfacet
  facet normal 0 0 -1
    outer loop
      vertex 14.0625 -2.1875 0
      vertex -13.6875 -2.1875 0
      vertex 17.1875 2.1875 0
    endloop
  endfacet
  facet normal 0 0 -1
    outer loop
      vertex -17.1875 2.1875 0
      vertex -13.6875 -2.1875 0
      vertex -17.1875 -2.1875 0
    endloop
  endfacet
  facet normal 0 0 -1
    outer loop
      vertex -13.6875 -2.1875 0
      vertex -17.1875 2.1875 0
      vertex 17.1875 2.1875 0
    endloop
  endfacet
  facet normal 1 0 0
    outer loop
      vertex -14.0625 2.1875 7
      vertex -14.0625 -1.1875 1.5
      vertex -14.0625 2.1875 1.5
    endloop
  endfacet
  facet normal 1 -0 0
    outer loop
      vertex -14.0625 -2.1875 7
      vertex -14.0625 -1.1875 1.5
      vertex -14.0625 2.1875 7
    endloop
  endfacet
  facet normal 1 0 0
    outer loop
      vertex -14.0625 -1.1875 1.5
      vertex -14.0625 -2.1875 7
      vertex -14.0625 -2.1875 1.5
    endloop
  endfacet
  facet normal 0 -1 0
    outer loop
      vertex 14.0625 -2.1875 1.5
      vertex 17.1875 -2.1875 7
      vertex 14.0625 -2.1875 7
    endloop
  endfacet
  facet normal 0 -1 0
    outer loop
      vertex 17.1875 -2.1875 0
      vertex 14.0625 -2.1875 1.5
      vertex 14.0625 -2.1875 0
    endloop
  endfacet
  facet normal 0 -1 0
    outer loop
      vertex 14.0625 -2.1875 1.5
      vertex 17.1875 -2.1875 0
      vertex 17.1875 -2.1875 7
    endloop
  endfacet
  facet normal 0 -1 0
    outer loop
      vertex -17.1875 -2.1875 7
      vertex -14.0625 -2.1875 1.5
      vertex -14.0625 -2.1875 7
    endloop
  endfacet
  facet normal 0 -1 0
    outer loop
      vertex -17.1875 -2.1875 0
      vertex -14.0625 -2.1875 1.5
      vertex -17.1875 -2.1875 7
    endloop
  endfacet
  facet normal 0 -1 0
    outer loop
      vertex -13.6875 -2.1875 0
      vertex -14.0625 -2.1875 1.5
      vertex -17.1875 -2.1875 0
    endloop
  endfacet
  facet normal 0 -1 0
    outer loop
      vertex -14.0625 -2.1875 1.5
      vertex -13.6875 -2.1875 0
      vertex -13.6875 -2.1875 1.5
    endloop
  endfacet
  facet normal -0 0 1
    outer loop
      vertex -17.1875 2.1875 7
      vertex -14.0625 -2.1875 7
      vertex -14.0625 2.1875 7
    endloop
  endfacet
  facet normal 0 0 1
    outer loop
      vertex -14.0625 -2.1875 7
      vertex -17.1875 2.1875 7
      vertex -17.1875 -2.1875 7
    endloop
  endfacet
  facet normal -1 0 0
    outer loop
      vertex -17.1875 -2.1875 0
      vertex -17.1875 2.1875 7
      vertex -17.1875 2.1875 0
    endloop
  endfacet
  facet normal -1 -0 0
    outer loop
      vertex -17.1875 2.1875 7
      vertex -17.1875 -2.1875 0
      vertex -17.1875 -2.1875 7
    endloop
  endfacet
  facet normal 0 1 0
    outer loop
      vertex 17.1875 2.1875 7
      vertex 14.0625 2.1875 1.5
      vertex 14.0625 2.1875 7
    endloop
  endfacet
  facet normal 0 1 0
    outer loop
      vertex 14.0625 2.1875 1.5
      vertex 17.1875 2.1875 0
      vertex -14.0625 2.1875 1.5
    endloop
  endfacet
  facet normal 0 1 -0
    outer loop
      vertex 17.1875 2.1875 0
      vertex 14.0625 2.1875 1.5
      vertex 17.1875 2.1875 7
    endloop
  endfacet
  facet normal 0 1 -0
    outer loop
      vertex -14.0625 2.1875 1.5
      vertex -17.1875 2.1875 7
      vertex -14.0625 2.1875 7
    endloop
  endfacet
  facet normal 0 1 0
    outer loop
      vertex -14.0625 2.1875 1.5
      vertex -17.1875 2.1875 0
      vertex -17.1875 2.1875 7
    endloop
  endfacet
  facet normal 0 1 0
    outer loop
      vertex -17.1875 2.1875 0
      vertex -14.0625 2.1875 1.5
      vertex 17.1875 2.1875 0
    endloop
  endfacet
  facet normal 1 -0 0
    outer loop
      vertex 17.1875 -2.1875 7
      vertex 17.1875 2.1875 0
      vertex 17.1875 2.1875 7
    endloop
  endfacet
  facet normal 1 0 0
    outer loop
      vertex 17.1875 2.1875 0
      vertex 17.1875 -2.1875 7
      vertex 17.1875 -2.1875 0
    endloop
  endfacet
  facet normal -0 0 1
    outer loop
      vertex 14.0625 2.1875 7
      vertex 17.1875 -2.1875 7
      vertex 17.1875 2.1875 7
    endloop
  endfacet
  facet normal 0 0 1
    outer loop
      vertex 17.1875 -2.1875 7
      vertex 14.0625 2.1875 7
      vertex 14.0625 -2.1875 7
    endloop
  endfacet
  facet normal -1 0 0
    outer loop
      vertex 14.0625 -1.1875 1.5
      vertex 14.0625 2.1875 7
      vertex 14.0625 2.1875 1.5
    endloop
  endfacet
  facet normal -1 0 0
    outer loop
      vertex 14.0625 -2.1875 7
      vertex 14.0625 -1.1875 1.5
      vertex 14.0625 -2.1875 1.5
    endloop
  endfacet
  facet normal -1 0 0
    outer loop
      vertex 14.0625 -1.1875 1.5
      vertex 14.0625 -2.1875 7
      vertex 14.0625 2.1875 7
    endloop
  endfacet
  facet normal -0 0 1
    outer loop
      vertex 14.0615 -1.2071 1.5
      vertex 14.0625 -2.1875 1.5
      vertex 14.0625 -1.1875 1.5
    endloop
  endfacet
  facet normal -0 0 1
    outer loop
      vertex 14.0587 -1.22652 1.5
      vertex 14.0625 -2.1875 1.5
      vertex 14.0615 -1.2071 1.5
    endloop
  endfacet
  facet normal -0 0 1
    outer loop
      vertex 14.0539 -1.24556 1.5
      vertex 14.0625 -2.1875 1.5
      vertex 14.0587 -1.22652 1.5
    endloop
  endfacet
  facet normal -0 0 1
    outer loop
      vertex 14.0473 -1.26404 1.5
      vertex 14.0625 -2.1875 1.5
      vertex 14.0539 -1.24556 1.5
    endloop
  endfacet
  facet normal -0 0 1
    outer loop
      vertex 14.0389 -1.28178 1.5
      vertex 14.0625 -2.1875 1.5
      vertex 14.0473 -1.26404 1.5
    endloop
  endfacet
  facet normal -0 0 1
    outer loop
      vertex 14.0288 -1.29861 1.5
      vertex 14.0625 -2.1875 1.5
      vertex 14.0389 -1.28178 1.5
    endloop
  endfacet
  facet normal -0 0 1
    outer loop
      vertex 14.0171 -1.31438 1.5
      vertex 14.0625 -2.1875 1.5
      vertex 14.0288 -1.29861 1.5
    endloop
  endfacet
  facet normal -0 0 1
    outer loop
      vertex 14.0039 -1.32892 1.5
      vertex 14.0625 -2.1875 1.5
      vertex 14.0171 -1.31438 1.5
    endloop
  endfacet
  facet normal -0 0 1
    outer loop
      vertex 13.9894 -1.3421 1.5
      vertex 14.0625 -2.1875 1.5
      vertex 14.0039 -1.32892 1.5
    endloop
  endfacet
  facet normal -0 0 1
    outer loop
      vertex 13.9736 -1.35379 1.5
      vertex 14.0625 -2.1875 1.5
      vertex 13.9894 -1.3421 1.5
    endloop
  endfacet
  facet normal -0 0 1
    outer loop
      vertex 13.9568 -1.36388 1.5
      vertex 14.0625 -2.1875 1.5
      vertex 13.9736 -1.35379 1.5
    endloop
  endfacet
  facet normal -0 0 1
    outer loop
      vertex 13.939 -1.37228 1.5
      vertex 14.0625 -2.1875 1.5
      vertex 13.9568 -1.36388 1.5
    endloop
  endfacet
  facet normal -0 0 1
    outer loop
      vertex 13.9206 -1.37889 1.5
      vertex 14.0625 -2.1875 1.5
      vertex 13.939 -1.37228 1.5
    endloop
  endfacet
  facet normal -0 0 1
    outer loop
      vertex 13.9015 -1.38366 1.5
      vertex 14.0625 -2.1875 1.5
      vertex 13.9206 -1.37889 1.5
    endloop
  endfacet
  facet normal -0 0 1
    outer loop
      vertex 13.8821 -1.38654 1.5
      vertex 14.0625 -2.1875 1.5
      vertex 13.9015 -1.38366 1.5
    endloop
  endfacet
  facet normal -0 0 1
    outer loop
      vertex 13.8625 -1.3875 1.5
      vertex 14.0625 -2.1875 1.5
      vertex 13.8821 -1.38654 1.5
    endloop
  endfacet
  facet normal 0 0 1
    outer loop
      vertex -13.1543 -7.60124 1.5
      vertex 14.0625 -2.1875 1.5
      vertex 13.8625 -1.3875 1.5
    endloop
  endfacet
  facet normal 0 0 1
    outer loop
      vertex 14.0625 -2.1875 1.5
      vertex 11.3425 -29.8039 1.5
      vertex 14.0625 -29.9375 1.5
    endloop
  endfacet
  facet normal 0 0 1
    outer loop
      vertex 14.0625 -2.1875 1.5
      vertex 8.64876 -29.4043 1.5
      vertex 11.3425 -29.8039 1.5
    endloop
  endfacet
  facet normal 0 0 1
    outer loop
      vertex 14.0625 -2.1875 1.5
      vertex 6.00711 -28.7426 1.5
      vertex 8.64876 -29.4043 1.5
    endloop
  endfacet
  facet normal 0 0 1
    outer loop
      vertex 14.0625 -2.1875 1.5
      vertex 3.44304 -27.8251 1.5
      vertex 6.00711 -28.7426 1.5
    endloop
  endfacet
  facet normal 0 0 1
    outer loop
      vertex 14.0625 -2.1875 1.5
      vertex 0.981247 -26.6608 1.5
      vertex 3.44304 -27.8251 1.5
    endloop
  endfacet
  facet normal 0 0 1
    outer loop
      vertex 14.0625 -2.1875 1.5
      vertex -1.35457 -25.2608 1.5
      vertex 0.981247 -26.6608 1.5
    endloop
  endfacet
  facet normal 0 0 1
    outer loop
      vertex 14.0625 -2.1875 1.5
      vertex -3.5419 -23.6385 1.5
      vertex -1.35457 -25.2608 1.5
    endloop
  endfacet
  facet normal 0 0 1
    outer loop
      vertex 14.0625 -2.1875 1.5
      vertex -5.55971 -21.8097 1.5
      vertex -3.5419 -23.6385 1.5
    endloop
  endfacet
  facet normal 0 0 1
    outer loop
      vertex 14.0625 -2.1875 1.5
      vertex -7.38853 -19.7919 1.5
      vertex -5.55971 -21.8097 1.5
    endloop
  endfacet
  facet normal 0 0 1
    outer loop
      vertex 14.0625 -2.1875 1.5
      vertex -9.01077 -17.6046 1.5
      vertex -7.38853 -19.7919 1.5
    endloop
  endfacet
  facet normal 0 0 1
    outer loop
      vertex 14.0625 -2.1875 1.5
      vertex -10.4108 -15.2688 1.5
      vertex -9.01077 -17.6046 1.5
    endloop
  endfacet
  facet normal 0 0 1
    outer loop
      vertex 14.0625 -2.1875 1.5
      vertex -11.5751 -12.807 1.5
      vertex -10.4108 -15.2688 1.5
    endloop
  endfacet
  facet normal 0 0 1
    outer loop
      vertex 14.0625 -2.1875 1.5
      vertex -12.4926 -10.2429 1.5
      vertex -11.5751 -12.807 1.5
    endloop
  endfacet
  facet normal 0 0 1
    outer loop
      vertex 14.0625 -2.1875 1.5
      vertex -13.1543 -7.60124 1.5
      vertex -12.4926 -10.2429 1.5
    endloop
  endfacet
  facet normal 0 0 1
    outer loop
      vertex 13.8625 -1.3875 1.5
      vertex -13.5539 -4.90747 1.5
      vertex -13.1543 -7.60124 1.5
    endloop
  endfacet
  facet normal 0 0 1
    outer loop
      vertex 13.8625 -1.3875 1.5
      vertex -13.6875 -2.1875 1.5
      vertex -13.5539 -4.90747 1.5
    endloop
  endfacet
  facet normal -0 0 1
    outer loop
      vertex -13.8625 -1.3875 1.5
      vertex -13.6875 -2.1875 1.5
      vertex 13.8625 -1.3875 1.5
    endloop
  endfacet
  facet normal 0 0 1
    outer loop
      vertex -14.0625 -2.1875 1.5
      vertex -13.8625 -1.3875 1.5
      vertex -13.8821 -1.38654 1.5
    endloop
  endfacet
  facet normal 0 0 1
    outer loop
      vertex -14.0625 -2.1875 1.5
      vertex -13.8821 -1.38654 1.5
      vertex -13.9015 -1.38366 1.5
    endloop
  endfacet
  facet normal 0 0 1
    outer loop
      vertex -14.0625 -2.1875 1.5
      vertex -13.9015 -1.38366 1.5
      vertex -13.9206 -1.37889 1.5
    endloop
  endfacet
  facet normal 0 0 1
    outer loop
      vertex -14.0625 -2.1875 1.5
      vertex -13.9206 -1.37889 1.5
      vertex -13.939 -1.37228 1.5
    endloop
  endfacet
  facet normal 0 0 1
    outer loop
      vertex -14.0625 -2.1875 1.5
      vertex -13.939 -1.37228 1.5
      vertex -13.9568 -1.36388 1.5
    endloop
  endfacet
  facet normal 0 0 1
    outer loop
      vertex -14.0625 -2.1875 1.5
      vertex -13.9568 -1.36388 1.5
      vertex -13.9736 -1.35379 1.5
    endloop
  endfacet
  facet normal 0 0 1
    outer loop
      vertex -14.0625 -2.1875 1.5
      vertex -13.9736 -1.35379 1.5
      vertex -13.9894 -1.3421 1.5
    endloop
  endfacet
  facet normal 0 0 1
    outer loop
      vertex -14.0625 -2.1875 1.5
      vertex -13.9894 -1.3421 1.5
      vertex -14.0039 -1.32892 1.5
    endloop
  endfacet
  facet normal 0 0 1
    outer loop
      vertex -14.0625 -2.1875 1.5
      vertex -14.0039 -1.32892 1.5
      vertex -14.0171 -1.31438 1.5
    endloop
  endfacet
  facet normal 0 0 1
    outer loop
      vertex -14.0625 -2.1875 1.5
      vertex -14.0171 -1.31438 1.5
      vertex -14.0288 -1.29861 1.5
    endloop
  endfacet
  facet normal 0 0 1
    outer loop
      vertex -14.0625 -2.1875 1.5
      vertex -14.0288 -1.29861 1.5
      vertex -14.0389 -1.28178 1.5
    endloop
  endfacet
  facet normal 0 0 1
    outer loop
      vertex -14.0625 -2.1875 1.5
      vertex -14.0389 -1.28178 1.5
      vertex -14.0473 -1.26404 1.5
    endloop
  endfacet
  facet normal 0 0 1
    outer loop
      vertex -13.8625 -1.3875 1.5
      vertex -14.0625 -2.1875 1.5
      vertex -13.6875 -2.1875 1.5
    endloop
  endfacet
  facet normal 0 0 1
    outer loop
      vertex -14.0539 -1.24556 1.5
      vertex -14.0625 -2.1875 1.5
      vertex -14.0473 -1.26404 1.5
    endloop
  endfacet
  facet normal 0 0 1
    outer loop
      vertex -14.0587 -1.22652 1.5
      vertex -14.0625 -2.1875 1.5
      vertex -14.0539 -1.24556 1.5
    endloop
  endfacet
  facet normal 0 0 1
    outer loop
      vertex -14.0615 -1.2071 1.5
      vertex -14.0625 -2.1875 1.5
      vertex -14.0587 -1.22652 1.5
    endloop
  endfacet
  facet normal 0 0 1
    outer loop
      vertex -14.0625 -2.1875 1.5
      vertex -14.0615 -1.2071 1.5
      vertex -14.0625 -1.1875 1.5
    endloop
  endfacet
  facet normal 0 0 1
    outer loop
      vertex 14.0625 2.1875 1.5
      vertex 14.0615 -1.1679 1.5
      vertex 14.0625 -1.1875 1.5
    endloop
  endfacet
  facet normal 0 0 1
    outer loop
      vertex 14.0625 2.1875 1.5
      vertex 14.0587 -1.14848 1.5
      vertex 14.0615 -1.1679 1.5
    endloop
  endfacet
  facet normal 0 0 1
    outer loop
      vertex 14.0625 2.1875 1.5
      vertex 14.0539 -1.12944 1.5
      vertex 14.0587 -1.14848 1.5
    endloop
  endfacet
  facet normal 0 0 1
    outer loop
      vertex 14.0625 2.1875 1.5
      vertex 14.0473 -1.11096 1.5
      vertex 14.0539 -1.12944 1.5
    endloop
  endfacet
  facet normal 0 0 1
    outer loop
      vertex 14.0625 2.1875 1.5
      vertex 14.0389 -1.09322 1.5
      vertex 14.0473 -1.11096 1.5
    endloop
  endfacet
  facet normal 0 0 1
    outer loop
      vertex 14.0625 2.1875 1.5
      vertex 14.0288 -1.07639 1.5
      vertex 14.0389 -1.09322 1.5
    endloop
  endfacet
  facet normal 0 0 1
    outer loop
      vertex 14.0625 2.1875 1.5
      vertex 14.0171 -1.06062 1.5
      vertex 14.0288 -1.07639 1.5
    endloop
  endfacet
  facet normal 0 0 1
    outer loop
      vertex 14.0625 2.1875 1.5
      vertex 14.0039 -1.04608 1.5
      vertex 14.0171 -1.06062 1.5
    endloop
  endfacet
  facet normal 0 0 1
    outer loop
      vertex 14.0625 2.1875 1.5
      vertex 13.9894 -1.0329 1.5
      vertex 14.0039 -1.04608 1.5
    endloop
  endfacet
  facet normal 0 0 1
    outer loop
      vertex 14.0625 2.1875 1.5
      vertex 13.9736 -1.02121 1.5
      vertex 13.9894 -1.0329 1.5
    endloop
  endfacet
  facet normal 0 0 1
    outer loop
      vertex 14.0625 2.1875 1.5
      vertex 13.9568 -1.01112 1.5
      vertex 13.9736 -1.02121 1.5
    endloop
  endfacet
  facet normal 0 0 1
    outer loop
      vertex 14.0625 2.1875 1.5
      vertex 13.939 -1.00272 1.5
      vertex 13.9568 -1.01112 1.5
    endloop
  endfacet
  facet normal 0 0 1
    outer loop
      vertex 14.0625 2.1875 1.5
      vertex 13.9206 -0.996112 1.5
      vertex 13.939 -1.00272 1.5
    endloop
  endfacet
  facet normal 0 0 1
    outer loop
      vertex 14.0625 2.1875 1.5
      vertex 13.9015 -0.991343 1.5
      vertex 13.9206 -0.996112 1.5
    endloop
  endfacet
  facet normal 0 0 1
    outer loop
      vertex 14.0625 2.1875 1.5
      vertex 13.8821 -0.988462 1.5
      vertex 13.9015 -0.991343 1.5
    endloop
  endfacet
  facet normal 0 0 1
    outer loop
      vertex 14.0625 2.1875 1.5
      vertex 13.8625 -0.987499 1.5
      vertex 13.8821 -0.988462 1.5
    endloop
  endfacet
  facet normal 0 0 1
    outer loop
      vertex 14.0625 2.1875 1.5
      vertex -13.8625 -0.987499 1.5
      vertex 13.8625 -0.987499 1.5
    endloop
  endfacet
  facet normal -0 0 1
    outer loop
      vertex -14.0625 2.1875 1.5
      vertex -13.8625 -0.987499 1.5
      vertex 14.0625 2.1875 1.5
    endloop
  endfacet
  facet normal 0 0 1
    outer loop
      vertex -13.8625 -0.987499 1.5
      vertex -14.0625 2.1875 1.5
      vertex -13.8821 -0.988462 1.5
    endloop
  endfacet
  facet normal 0 0 1
    outer loop
      vertex -14.0625 2.1875 1.5
      vertex -13.9015 -0.991343 1.5
      vertex -13.8821 -0.988462 1.5
    endloop
  endfacet
  facet normal 0 0 1
    outer loop
      vertex -14.0625 2.1875 1.5
      vertex -13.9206 -0.996112 1.5
      vertex -13.9015 -0.991343 1.5
    endloop
  endfacet
  facet normal 0 0 1
    outer loop
      vertex -14.0625 2.1875 1.5
      vertex -13.939 -1.00272 1.5
      vertex -13.9206 -0.996112 1.5
    endloop
  endfacet
  facet normal 0 0 1
    outer loop
      vertex -14.0625 2.1875 1.5
      vertex -13.9568 -1.01112 1.5
      vertex -13.939 -1.00272 1.5
    endloop
  endfacet
  facet normal 0 0 1
    outer loop
      vertex -14.0625 2.1875 1.5
      vertex -13.9736 -1.02121 1.5
      vertex -13.9568 -1.01112 1.5
    endloop
  endfacet
  facet normal 0 0 1
    outer loop
      vertex -14.0625 2.1875 1.5
      vertex -13.9894 -1.0329 1.5
      vertex -13.9736 -1.02121 1.5
    endloop
  endfacet
  facet normal 0 0 1
    outer loop
      vertex -14.0625 2.1875 1.5
      vertex -14.0039 -1.04608 1.5
      vertex -13.9894 -1.0329 1.5
    endloop
  endfacet
  facet normal 0 0 1
    outer loop
      vertex -14.0625 2.1875 1.5
      vertex -14.0171 -1.06062 1.5
      vertex -14.0039 -1.04608 1.5
    endloop
  endfacet
  facet normal 0 0 1
    outer loop
      vertex -14.0625 2.1875 1.5
      vertex -14.0288 -1.07639 1.5
      vertex -14.0171 -1.06062 1.5
    endloop
  endfacet
  facet normal 0 0 1
    outer loop
      vertex -14.0625 2.1875 1.5
      vertex -14.0389 -1.09322 1.5
      vertex -14.0288 -1.07639 1.5
    endloop
  endfacet
  facet normal 0 0 1
    outer loop
      vertex -14.0625 2.1875 1.5
      vertex -14.0473 -1.11096 1.5
      vertex -14.0389 -1.09322 1.5
    endloop
  endfacet
  facet normal 0 0 1
    outer loop
      vertex -14.0625 2.1875 1.5
      vertex -14.0539 -1.12944 1.5
      vertex -14.0473 -1.11096 1.5
    endloop
  endfacet
  facet normal 0 0 1
    outer loop
      vertex -14.0625 2.1875 1.5
      vertex -14.0587 -1.14848 1.5
      vertex -14.0539 -1.12944 1.5
    endloop
  endfacet
  facet normal 0 0 1
    outer loop
      vertex -14.0625 2.1875 1.5
      vertex -14.0615 -1.1679 1.5
      vertex -14.0587 -1.14848 1.5
    endloop
  endfacet
  facet normal 0 0 1
    outer loop
      vertex -14.0615 -1.1679 1.5
      vertex -14.0625 2.1875 1.5
      vertex -14.0625 -1.1875 1.5
    endloop
  endfacet
  facet normal -0.998796 -0.049059 0
    outer loop
      vertex -13.5539 -4.90747 0
      vertex -13.6875 -2.1875 1.5
      vertex -13.6875 -2.1875 0
    endloop
  endfacet
  facet normal -0.998796 -0.049059 0
    outer loop
      vertex -13.6875 -2.1875 1.5
      vertex -13.5539 -4.90747 0
      vertex -13.5539 -4.90747 1.5
    endloop
  endfacet
  facet normal -0.242981 -0.970031 0
    outer loop
      vertex 6.00711 -28.7426 0
      vertex 8.64876 -29.4043 1.5
      vertex 6.00711 -28.7426 1.5
    endloop
  endfacet
  facet normal -0.242981 -0.970031 -0
    outer loop
      vertex 8.64876 -29.4043 1.5
      vertex 6.00711 -28.7426 0
      vertex 8.64876 -29.4043 0
    endloop
  endfacet
  facet normal 1 -0 0
    outer loop
      vertex 14.0625 -29.9375 1.5
      vertex 14.0625 -2.1875 0
      vertex 14.0625 -2.1875 1.5
    endloop
  endfacet
  facet normal 1 0 0
    outer loop
      vertex 14.0625 -2.1875 0
      vertex 14.0625 -29.9375 1.5
      vertex 14.0625 -29.9375 0
    endloop
  endfacet
  facet normal -0.0490585 -0.998796 0
    outer loop
      vertex 11.3425 -29.8039 0
      vertex 14.0625 -29.9375 1.5
      vertex 11.3425 -29.8039 1.5
    endloop
  endfacet
  facet normal -0.0490585 -0.998796 -0
    outer loop
      vertex 14.0625 -29.9375 1.5
      vertex 11.3425 -29.8039 0
      vertex 14.0625 -29.9375 0
    endloop
  endfacet
  facet normal -0.857728 -0.514104 0
    outer loop
      vertex -9.01077 -17.6046 0
      vertex -10.4108 -15.2688 1.5
      vertex -10.4108 -15.2688 0
    endloop
  endfacet
  facet normal -0.857728 -0.514104 0
    outer loop
      vertex -10.4108 -15.2688 1.5
      vertex -9.01077 -17.6046 0
      vertex -9.01077 -17.6046 1.5
    endloop
  endfacet
  facet normal -0.671552 -0.740958 0
    outer loop
      vertex -5.55971 -21.8097 0
      vertex -3.5419 -23.6385 1.5
      vertex -5.55971 -21.8097 1.5
    endloop
  endfacet
  facet normal -0.671552 -0.740958 -0
    outer loop
      vertex -3.5419 -23.6385 1.5
      vertex -5.55971 -21.8097 0
      vertex -3.5419 -23.6385 0
    endloop
  endfacet
  facet normal -0.803203 -0.595706 0
    outer loop
      vertex -7.38853 -19.7919 0
      vertex -9.01077 -17.6046 1.5
      vertex -9.01077 -17.6046 0
    endloop
  endfacet
  facet normal -0.803203 -0.595706 0
    outer loop
      vertex -9.01077 -17.6046 1.5
      vertex -7.38853 -19.7919 0
      vertex -7.38853 -19.7919 1.5
    endloop
  endfacet
  facet normal -0.740952 -0.671557 0
    outer loop
      vertex -5.55971 -21.8097 0
      vertex -7.38853 -19.7919 1.5
      vertex -7.38853 -19.7919 0
    endloop
  endfacet
  facet normal -0.740952 -0.671557 0
    outer loop
      vertex -7.38853 -19.7919 1.5
      vertex -5.55971 -21.8097 0
      vertex -5.55971 -21.8097 1.5
    endloop
  endfacet
  facet normal -0.514093 -0.857734 0
    outer loop
      vertex -1.35457 -25.2608 0
      vertex 0.981247 -26.6608 1.5
      vertex -1.35457 -25.2608 1.5
    endloop
  endfacet
  facet normal -0.514093 -0.857734 -0
    outer loop
      vertex 0.981247 -26.6608 1.5
      vertex -1.35457 -25.2608 0
      vertex 0.981247 -26.6608 0
    endloop
  endfacet
  facet normal -0.989176 -0.146737 0
    outer loop
      vertex -13.1543 -7.60124 0
      vertex -13.5539 -4.90747 1.5
      vertex -13.5539 -4.90747 0
    endloop
  endfacet
  facet normal -0.989176 -0.146737 0
    outer loop
      vertex -13.5539 -4.90747 1.5
      vertex -13.1543 -7.60124 0
      vertex -13.1543 -7.60124 1.5
    endloop
  endfacet
  facet normal -0.146738 -0.989175 0
    outer loop
      vertex 8.64876 -29.4043 0
      vertex 11.3425 -29.8039 1.5
      vertex 8.64876 -29.4043 1.5
    endloop
  endfacet
  facet normal -0.146738 -0.989175 -0
    outer loop
      vertex 11.3425 -29.8039 1.5
      vertex 8.64876 -29.4043 0
      vertex 11.3425 -29.8039 0
    endloop
  endfacet
  facet normal -0.33691 -0.941537 0
    outer loop
      vertex 3.44304 -27.8251 0
      vertex 6.00711 -28.7426 1.5
      vertex 3.44304 -27.8251 1.5
    endloop
  endfacet
  facet normal -0.33691 -0.941537 -0
    outer loop
      vertex 6.00711 -28.7426 1.5
      vertex 3.44304 -27.8251 0
      vertex 6.00711 -28.7426 0
    endloop
  endfacet
  facet normal -0.903996 -0.427542 0
    outer loop
      vertex -10.4108 -15.2688 0
      vertex -11.5751 -12.807 1.5
      vertex -11.5751 -12.807 0
    endloop
  endfacet
  facet normal -0.903996 -0.427542 0
    outer loop
      vertex -11.5751 -12.807 1.5
      vertex -10.4108 -15.2688 0
      vertex -10.4108 -15.2688 1.5
    endloop
  endfacet
  facet normal -0.427543 -0.903995 0
    outer loop
      vertex 0.981247 -26.6608 0
      vertex 3.44304 -27.8251 1.5
      vertex 0.981247 -26.6608 1.5
    endloop
  endfacet
  facet normal -0.427543 -0.903995 -0
    outer loop
      vertex 3.44304 -27.8251 1.5
      vertex 0.981247 -26.6608 0
      vertex 3.44304 -27.8251 0
    endloop
  endfacet
  facet normal -0.941538 -0.336906 0
    outer loop
      vertex -11.5751 -12.807 0
      vertex -12.4926 -10.2429 1.5
      vertex -12.4926 -10.2429 0
    endloop
  endfacet
  facet normal -0.941538 -0.336906 0
    outer loop
      vertex -12.4926 -10.2429 1.5
      vertex -11.5751 -12.807 0
      vertex -11.5751 -12.807 1.5
    endloop
  endfacet
  facet normal -0.595715 -0.803196 0
    outer loop
      vertex -3.5419 -23.6385 0
      vertex -1.35457 -25.2608 1.5
      vertex -3.5419 -23.6385 1.5
    endloop
  endfacet
  facet normal -0.595715 -0.803196 -0
    outer loop
      vertex -1.35457 -25.2608 1.5
      vertex -3.5419 -23.6385 0
      vertex -1.35457 -25.2608 0
    endloop
  endfacet
  facet normal -0.970031 -0.24298 0
    outer loop
      vertex -12.4926 -10.2429 0
      vertex -13.1543 -7.60124 1.5
      vertex -13.1543 -7.60124 0
    endloop
  endfacet
  facet normal -0.970031 -0.24298 0
    outer loop
      vertex -13.1543 -7.60124 1.5
      vertex -12.4926 -10.2429 0
      vertex -12.4926 -10.2429 1.5
    endloop
  endfacet
  facet normal 0.989765 0.142706 0
    outer loop
      vertex -14.0587 -1.22652 1.5
      vertex -14.0615 -1.2071 1.1
      vertex -14.0615 -1.2071 1.5
    endloop
  endfacet
  facet normal 0.989765 0.142706 0
    outer loop
      vertex -14.0615 -1.2071 1.1
      vertex -14.0587 -1.22652 1.5
      vertex -14.0587 -1.22652 1.1
    endloop
  endfacet
  facet normal 0.146844 0.98916 -0
    outer loop
      vertex -13.8821 -1.38654 1.1
      vertex -13.9015 -1.38366 1.5
      vertex -13.8821 -1.38654 1.5
    endloop
  endfacet
  facet normal 0.146844 0.98916 0
    outer loop
      vertex -13.9015 -1.38366 1.5
      vertex -13.8821 -1.38654 1.1
      vertex -13.9015 -1.38366 1.1
    endloop
  endfacet
  facet normal -0.998701 0.0509541 0
    outer loop
      vertex 14.0615 -1.2071 1.1
      vertex 14.0625 -1.1875 1.5
      vertex 14.0625 -1.1875 1.1
    endloop
  endfacet
  facet normal -0.998701 0.0509541 0
    outer loop
      vertex 14.0625 -1.1875 1.5
      vertex 14.0615 -1.2071 1.1
      vertex 14.0615 -1.2071 1.5
    endloop
  endfacet
  facet normal 0.998701 0.0509541 0
    outer loop
      vertex -14.0615 -1.2071 1.5
      vertex -14.0625 -1.1875 1.1
      vertex -14.0625 -1.1875 1.5
    endloop
  endfacet
  facet normal 0.998701 0.0509541 0
    outer loop
      vertex -14.0625 -1.1875 1.1
      vertex -14.0615 -1.2071 1.5
      vertex -14.0615 -1.2071 1.1
    endloop
  endfacet
  facet normal 0 -1 0
    outer loop
      vertex -13.8625 -0.987499 1.1
      vertex 13.8625 -0.987499 1.5
      vertex -13.8625 -0.987499 1.5
    endloop
  endfacet
  facet normal 0 -1 -0
    outer loop
      vertex 13.8625 -0.987499 1.5
      vertex -13.8625 -0.987499 1.1
      vertex 13.8625 -0.987499 1.1
    endloop
  endfacet
  facet normal 0.242249 -0.970214 0
    outer loop
      vertex -13.9206 -0.996112 1.1
      vertex -13.9015 -0.991343 1.5
      vertex -13.9206 -0.996112 1.5
    endloop
  endfacet
  facet normal 0.242249 -0.970214 0
    outer loop
      vertex -13.9015 -0.991343 1.5
      vertex -13.9206 -0.996112 1.1
      vertex -13.9015 -0.991343 1.1
    endloop
  endfacet
  facet normal -0.989765 0.142706 0
    outer loop
      vertex 14.0587 -1.22652 1.1
      vertex 14.0615 -1.2071 1.5
      vertex 14.0615 -1.2071 1.1
    endloop
  endfacet
  facet normal -0.989765 0.142706 0
    outer loop
      vertex 14.0615 -1.2071 1.5
      vertex 14.0587 -1.22652 1.1
      vertex 14.0587 -1.22652 1.5
    endloop
  endfacet
  facet normal 0.672622 -0.739986 0
    outer loop
      vertex -14.0039 -1.04608 1.1
      vertex -13.9894 -1.0329 1.5
      vertex -14.0039 -1.04608 1.5
    endloop
  endfacet
  facet normal 0.672622 -0.739986 0
    outer loop
      vertex -13.9894 -1.0329 1.5
      vertex -14.0039 -1.04608 1.1
      vertex -13.9894 -1.0329 1.1
    endloop
  endfacet
  facet normal -0.337995 -0.941148 0
    outer loop
      vertex 13.9206 -0.996112 1.1
      vertex 13.939 -1.00272 1.5
      vertex 13.9206 -0.996112 1.5
    endloop
  endfacet
  facet normal -0.337995 -0.941148 -0
    outer loop
      vertex 13.939 -1.00272 1.5
      vertex 13.9206 -0.996112 1.1
      vertex 13.939 -1.00272 1.1
    endloop
  endfacet
  facet normal -0.0489209 0.998803 0
    outer loop
      vertex 13.8821 -1.38654 1.1
      vertex 13.8625 -1.3875 1.5
      vertex 13.8821 -1.38654 1.5
    endloop
  endfacet
  facet normal -0.0489209 0.998803 0
    outer loop
      vertex 13.8625 -1.3875 1.5
      vertex 13.8821 -1.38654 1.1
      vertex 13.8625 -1.3875 1.1
    endloop
  endfacet
  facet normal 0.514871 0.857268 -0
    outer loop
      vertex -13.9568 -1.36388 1.1
      vertex -13.9736 -1.35379 1.5
      vertex -13.9568 -1.36388 1.5
    endloop
  endfacet
  facet normal 0.514871 0.857268 0
    outer loop
      vertex -13.9736 -1.35379 1.5
      vertex -13.9568 -1.36388 1.1
      vertex -13.9736 -1.35379 1.1
    endloop
  endfacet
  facet normal -0.9038 -0.427955 0
    outer loop
      vertex 14.0473 -1.11096 1.1
      vertex 14.0389 -1.09322 1.5
      vertex 14.0389 -1.09322 1.1
    endloop
  endfacet
  facet normal -0.9038 -0.427955 0
    outer loop
      vertex 14.0389 -1.09322 1.5
      vertex 14.0473 -1.11096 1.1
      vertex 14.0473 -1.11096 1.5
    endloop
  endfacet
  facet normal 0.514871 -0.857268 0
    outer loop
      vertex -13.9736 -1.02121 1.1
      vertex -13.9568 -1.01112 1.5
      vertex -13.9736 -1.02121 1.5
    endloop
  endfacet
  facet normal 0.514871 -0.857268 0
    outer loop
      vertex -13.9568 -1.01112 1.5
      vertex -13.9736 -1.02121 1.1
      vertex -13.9568 -1.01112 1.1
    endloop
  endfacet
  facet normal -0.969661 -0.244452 0
    outer loop
      vertex 14.0587 -1.14848 1.1
      vertex 14.0539 -1.12944 1.5
      vertex 14.0539 -1.12944 1.1
    endloop
  endfacet
  facet normal -0.969661 -0.244452 0
    outer loop
      vertex 14.0539 -1.12944 1.5
      vertex 14.0587 -1.14848 1.1
      vertex 14.0587 -1.14848 1.5
    endloop
  endfacet
  facet normal 0 1 -0
    outer loop
      vertex 13.8625 -1.3875 1.1
      vertex -13.8625 -1.3875 1.5
      vertex 13.8625 -1.3875 1.5
    endloop
  endfacet
  facet normal 0 1 0
    outer loop
      vertex -13.8625 -1.3875 1.5
      vertex 13.8625 -1.3875 1.1
      vertex -13.8625 -1.3875 1.1
    endloop
  endfacet
  facet normal 0.803106 -0.595836 0
    outer loop
      vertex -14.0288 -1.07639 1.5
      vertex -14.0171 -1.06062 1.1
      vertex -14.0171 -1.06062 1.5
    endloop
  endfacet
  facet normal 0.803106 -0.595836 0
    outer loop
      vertex -14.0171 -1.06062 1.1
      vertex -14.0288 -1.07639 1.5
      vertex -14.0288 -1.07639 1.1
    endloop
  endfacet
  facet normal -0.857448 0.514571 0
    outer loop
      vertex 14.0288 -1.29861 1.1
      vertex 14.0389 -1.28178 1.5
      vertex 14.0389 -1.28178 1.1
    endloop
  endfacet
  facet normal -0.857448 0.514571 0
    outer loop
      vertex 14.0389 -1.28178 1.5
      vertex 14.0288 -1.29861 1.1
      vertex 14.0288 -1.29861 1.5
    endloop
  endfacet
  facet normal -0.803106 0.595836 0
    outer loop
      vertex 14.0171 -1.31438 1.1
      vertex 14.0288 -1.29861 1.5
      vertex 14.0288 -1.29861 1.1
    endloop
  endfacet
  facet normal -0.803106 0.595836 0
    outer loop
      vertex 14.0288 -1.29861 1.5
      vertex 14.0171 -1.31438 1.1
      vertex 14.0171 -1.31438 1.5
    endloop
  endfacet
  facet normal 0.338085 0.941115 -0
    outer loop
      vertex -13.9206 -1.37889 1.1
      vertex -13.939 -1.37228 1.5
      vertex -13.9206 -1.37889 1.5
    endloop
  endfacet
  facet normal 0.338085 0.941115 0
    outer loop
      vertex -13.939 -1.37228 1.5
      vertex -13.9206 -1.37889 1.1
      vertex -13.939 -1.37228 1.1
    endloop
  endfacet
  facet normal 0.969661 0.244452 0
    outer loop
      vertex -14.0539 -1.24556 1.5
      vertex -14.0587 -1.22652 1.1
      vertex -14.0587 -1.22652 1.5
    endloop
  endfacet
  facet normal 0.969661 0.244452 0
    outer loop
      vertex -14.0587 -1.22652 1.1
      vertex -14.0539 -1.24556 1.5
      vertex -14.0539 -1.24556 1.1
    endloop
  endfacet
  facet normal 0.426775 -0.904358 0
    outer loop
      vertex -13.9568 -1.01112 1.1
      vertex -13.939 -1.00272 1.5
      vertex -13.9568 -1.01112 1.5
    endloop
  endfacet
  facet normal 0.426775 -0.904358 0
    outer loop
      vertex -13.939 -1.00272 1.5
      vertex -13.9568 -1.01112 1.1
      vertex -13.939 -1.00272 1.1
    endloop
  endfacet
  facet normal -0.338085 0.941115 0
    outer loop
      vertex 13.939 -1.37228 1.1
      vertex 13.9206 -1.37889 1.5
      vertex 13.939 -1.37228 1.5
    endloop
  endfacet
  facet normal -0.338085 0.941115 0
    outer loop
      vertex 13.9206 -1.37889 1.5
      vertex 13.939 -1.37228 1.1
      vertex 13.9206 -1.37889 1.1
    endloop
  endfacet
  facet normal 0.426775 0.904358 -0
    outer loop
      vertex -13.939 -1.37228 1.1
      vertex -13.9568 -1.36388 1.5
      vertex -13.939 -1.37228 1.5
    endloop
  endfacet
  facet normal 0.426775 0.904358 0
    outer loop
      vertex -13.9568 -1.36388 1.5
      vertex -13.939 -1.37228 1.1
      vertex -13.9568 -1.36388 1.1
    endloop
  endfacet
  facet normal 0.740401 -0.672166 0
    outer loop
      vertex -14.0171 -1.06062 1.5
      vertex -14.0039 -1.04608 1.1
      vertex -14.0039 -1.04608 1.5
    endloop
  endfacet
  facet normal 0.740401 -0.672166 0
    outer loop
      vertex -14.0039 -1.04608 1.1
      vertex -14.0171 -1.06062 1.5
      vertex -14.0171 -1.06062 1.1
    endloop
  endfacet
  facet normal -0.0490735 -0.998795 0
    outer loop
      vertex 13.8625 -0.987499 1.1
      vertex 13.8821 -0.988462 1.5
      vertex 13.8625 -0.987499 1.5
    endloop
  endfacet
  facet normal -0.0490735 -0.998795 -0
    outer loop
      vertex 13.8821 -0.988462 1.5
      vertex 13.8625 -0.987499 1.1
      vertex 13.8821 -0.988462 1.1
    endloop
  endfacet
  facet normal 0.969661 -0.244452 0
    outer loop
      vertex -14.0587 -1.14848 1.5
      vertex -14.0539 -1.12944 1.1
      vertex -14.0539 -1.12944 1.5
    endloop
  endfacet
  facet normal 0.969661 -0.244452 0
    outer loop
      vertex -14.0539 -1.12944 1.1
      vertex -14.0587 -1.14848 1.5
      vertex -14.0587 -1.14848 1.1
    endloop
  endfacet
  facet normal 0.941742 -0.336336 0
    outer loop
      vertex -14.0539 -1.12944 1.5
      vertex -14.0473 -1.11096 1.1
      vertex -14.0473 -1.11096 1.5
    endloop
  endfacet
  facet normal 0.941742 -0.336336 0
    outer loop
      vertex -14.0473 -1.11096 1.1
      vertex -14.0539 -1.12944 1.5
      vertex -14.0539 -1.12944 1.1
    endloop
  endfacet
  facet normal 0.857448 -0.514571 0
    outer loop
      vertex -14.0389 -1.09322 1.5
      vertex -14.0288 -1.07639 1.1
      vertex -14.0288 -1.07639 1.5
    endloop
  endfacet
  facet normal 0.857448 -0.514571 0
    outer loop
      vertex -14.0288 -1.07639 1.1
      vertex -14.0389 -1.09322 1.5
      vertex -14.0389 -1.09322 1.1
    endloop
  endfacet
  facet normal -0.242249 -0.970214 0
    outer loop
      vertex 13.9015 -0.991343 1.1
      vertex 13.9206 -0.996112 1.5
      vertex 13.9015 -0.991343 1.5
    endloop
  endfacet
  facet normal -0.242249 -0.970214 -0
    outer loop
      vertex 13.9206 -0.996112 1.5
      vertex 13.9015 -0.991343 1.1
      vertex 13.9206 -0.996112 1.1
    endloop
  endfacet
  facet normal 0.0490735 -0.998795 0
    outer loop
      vertex -13.8821 -0.988462 1.1
      vertex -13.8625 -0.987499 1.5
      vertex -13.8821 -0.988462 1.5
    endloop
  endfacet
  facet normal 0.0490735 -0.998795 0
    outer loop
      vertex -13.8625 -0.987499 1.5
      vertex -13.8821 -0.988462 1.1
      vertex -13.8625 -0.987499 1.1
    endloop
  endfacet
  facet normal -0.426775 -0.904358 0
    outer loop
      vertex 13.939 -1.00272 1.1
      vertex 13.9568 -1.01112 1.5
      vertex 13.939 -1.00272 1.5
    endloop
  endfacet
  facet normal -0.426775 -0.904358 -0
    outer loop
      vertex 13.9568 -1.01112 1.5
      vertex 13.939 -1.00272 1.1
      vertex 13.9568 -1.01112 1.1
    endloop
  endfacet
  facet normal 0.146894 -0.989152 0
    outer loop
      vertex -13.9015 -0.991343 1.1
      vertex -13.8821 -0.988462 1.5
      vertex -13.9015 -0.991343 1.5
    endloop
  endfacet
  facet normal 0.146894 -0.989152 0
    outer loop
      vertex -13.8821 -0.988462 1.5
      vertex -13.9015 -0.991343 1.1
      vertex -13.8821 -0.988462 1.1
    endloop
  endfacet
  facet normal -0.857448 -0.514571 0
    outer loop
      vertex 14.0389 -1.09322 1.1
      vertex 14.0288 -1.07639 1.5
      vertex 14.0288 -1.07639 1.1
    endloop
  endfacet
  facet normal -0.857448 -0.514571 0
    outer loop
      vertex 14.0288 -1.07639 1.5
      vertex 14.0389 -1.09322 1.1
      vertex 14.0389 -1.09322 1.5
    endloop
  endfacet
  facet normal -0.594777 -0.803891 0
    outer loop
      vertex 13.9736 -1.02121 1.1
      vertex 13.9894 -1.0329 1.5
      vertex 13.9736 -1.02121 1.5
    endloop
  endfacet
  facet normal -0.594777 -0.803891 -0
    outer loop
      vertex 13.9894 -1.0329 1.5
      vertex 13.9736 -1.02121 1.1
      vertex 13.9894 -1.0329 1.1
    endloop
  endfacet
  facet normal 0.594777 -0.803891 0
    outer loop
      vertex -13.9894 -1.0329 1.1
      vertex -13.9736 -1.02121 1.5
      vertex -13.9894 -1.0329 1.5
    endloop
  endfacet
  facet normal 0.594777 -0.803891 0
    outer loop
      vertex -13.9736 -1.02121 1.5
      vertex -13.9894 -1.0329 1.1
      vertex -13.9736 -1.02121 1.1
    endloop
  endfacet
  facet normal 0.242297 0.970202 -0
    outer loop
      vertex -13.9015 -1.38366 1.1
      vertex -13.9206 -1.37889 1.5
      vertex -13.9015 -1.38366 1.5
    endloop
  endfacet
  facet normal 0.242297 0.970202 0
    outer loop
      vertex -13.9206 -1.37889 1.5
      vertex -13.9015 -1.38366 1.1
      vertex -13.9206 -1.37889 1.1
    endloop
  endfacet
  facet normal 0.803106 0.595836 0
    outer loop
      vertex -14.0171 -1.31438 1.5
      vertex -14.0288 -1.29861 1.1
      vertex -14.0288 -1.29861 1.5
    endloop
  endfacet
  facet normal 0.803106 0.595836 0
    outer loop
      vertex -14.0288 -1.29861 1.1
      vertex -14.0171 -1.31438 1.5
      vertex -14.0171 -1.31438 1.1
    endloop
  endfacet
  facet normal -0.989765 -0.142706 0
    outer loop
      vertex 14.0615 -1.1679 1.1
      vertex 14.0587 -1.14848 1.5
      vertex 14.0587 -1.14848 1.1
    endloop
  endfacet
  facet normal -0.989765 -0.142706 0
    outer loop
      vertex 14.0587 -1.14848 1.5
      vertex 14.0615 -1.1679 1.1
      vertex 14.0615 -1.1679 1.5
    endloop
  endfacet
  facet normal 0.989765 -0.142706 0
    outer loop
      vertex -14.0615 -1.1679 1.5
      vertex -14.0587 -1.14848 1.1
      vertex -14.0587 -1.14848 1.5
    endloop
  endfacet
  facet normal 0.989765 -0.142706 0
    outer loop
      vertex -14.0587 -1.14848 1.1
      vertex -14.0615 -1.1679 1.5
      vertex -14.0615 -1.1679 1.1
    endloop
  endfacet
  facet normal 0.998701 -0.0509541 0
    outer loop
      vertex -14.0625 -1.1875 1.5
      vertex -14.0615 -1.1679 1.1
      vertex -14.0615 -1.1679 1.5
    endloop
  endfacet
  facet normal 0.998701 -0.0509541 0
    outer loop
      vertex -14.0615 -1.1679 1.1
      vertex -14.0625 -1.1875 1.5
      vertex -14.0625 -1.1875 1.1
    endloop
  endfacet
  facet normal -0.740401 0.672166 0
    outer loop
      vertex 14.0039 -1.32892 1.1
      vertex 14.0171 -1.31438 1.5
      vertex 14.0171 -1.31438 1.1
    endloop
  endfacet
  facet normal -0.740401 0.672166 0
    outer loop
      vertex 14.0171 -1.31438 1.5
      vertex 14.0039 -1.32892 1.1
      vertex 14.0039 -1.32892 1.5
    endloop
  endfacet
  facet normal -0.146844 0.98916 0
    outer loop
      vertex 13.9015 -1.38366 1.1
      vertex 13.8821 -1.38654 1.5
      vertex 13.9015 -1.38366 1.5
    endloop
  endfacet
  facet normal -0.146844 0.98916 0
    outer loop
      vertex 13.8821 -1.38654 1.5
      vertex 13.9015 -1.38366 1.1
      vertex 13.8821 -1.38654 1.1
    endloop
  endfacet
  facet normal 0.337995 -0.941148 0
    outer loop
      vertex -13.939 -1.00272 1.1
      vertex -13.9206 -0.996112 1.5
      vertex -13.939 -1.00272 1.5
    endloop
  endfacet
  facet normal 0.337995 -0.941148 0
    outer loop
      vertex -13.9206 -0.996112 1.5
      vertex -13.939 -1.00272 1.1
      vertex -13.9206 -0.996112 1.1
    endloop
  endfacet
  facet normal -0.672622 -0.739986 0
    outer loop
      vertex 13.9894 -1.0329 1.1
      vertex 14.0039 -1.04608 1.5
      vertex 13.9894 -1.0329 1.5
    endloop
  endfacet
  facet normal -0.672622 -0.739986 -0
    outer loop
      vertex 14.0039 -1.04608 1.5
      vertex 13.9894 -1.0329 1.1
      vertex 14.0039 -1.04608 1.1
    endloop
  endfacet
  facet normal -0.969661 0.244452 0
    outer loop
      vertex 14.0539 -1.24556 1.1
      vertex 14.0587 -1.22652 1.5
      vertex 14.0587 -1.22652 1.1
    endloop
  endfacet
  facet normal -0.969661 0.244452 0
    outer loop
      vertex 14.0587 -1.22652 1.5
      vertex 14.0539 -1.24556 1.1
      vertex 14.0539 -1.24556 1.5
    endloop
  endfacet
  facet normal -0.998701 -0.0509541 0
    outer loop
      vertex 14.0625 -1.1875 1.1
      vertex 14.0615 -1.1679 1.5
      vertex 14.0615 -1.1679 1.1
    endloop
  endfacet
  facet normal -0.998701 -0.0509541 0
    outer loop
      vertex 14.0615 -1.1679 1.5
      vertex 14.0625 -1.1875 1.1
      vertex 14.0625 -1.1875 1.5
    endloop
  endfacet
  facet normal -0.514871 -0.857268 0
    outer loop
      vertex 13.9568 -1.01112 1.1
      vertex 13.9736 -1.02121 1.5
      vertex 13.9568 -1.01112 1.5
    endloop
  endfacet
  facet normal -0.514871 -0.857268 -0
    outer loop
      vertex 13.9736 -1.02121 1.5
      vertex 13.9568 -1.01112 1.1
      vertex 13.9736 -1.02121 1.1
    endloop
  endfacet
  facet normal 0.9038 -0.427955 0
    outer loop
      vertex -14.0473 -1.11096 1.5
      vertex -14.0389 -1.09322 1.1
      vertex -14.0389 -1.09322 1.5
    endloop
  endfacet
  facet normal 0.9038 -0.427955 0
    outer loop
      vertex -14.0389 -1.09322 1.1
      vertex -14.0473 -1.11096 1.5
      vertex -14.0473 -1.11096 1.1
    endloop
  endfacet
  facet normal -0.514871 0.857268 0
    outer loop
      vertex 13.9736 -1.35379 1.1
      vertex 13.9568 -1.36388 1.5
      vertex 13.9736 -1.35379 1.5
    endloop
  endfacet
  facet normal -0.514871 0.857268 0
    outer loop
      vertex 13.9568 -1.36388 1.5
      vertex 13.9736 -1.35379 1.1
      vertex 13.9568 -1.36388 1.1
    endloop
  endfacet
  facet normal -0.941742 -0.336336 0
    outer loop
      vertex 14.0539 -1.12944 1.1
      vertex 14.0473 -1.11096 1.5
      vertex 14.0473 -1.11096 1.1
    endloop
  endfacet
  facet normal -0.941742 -0.336336 0
    outer loop
      vertex 14.0473 -1.11096 1.5
      vertex 14.0539 -1.12944 1.1
      vertex 14.0539 -1.12944 1.5
    endloop
  endfacet
  facet normal -0.594777 0.803891 0
    outer loop
      vertex 13.9894 -1.3421 1.1
      vertex 13.9736 -1.35379 1.5
      vertex 13.9894 -1.3421 1.5
    endloop
  endfacet
  facet normal -0.594777 0.803891 0
    outer loop
      vertex 13.9736 -1.35379 1.5
      vertex 13.9894 -1.3421 1.1
      vertex 13.9736 -1.35379 1.1
    endloop
  endfacet
  facet normal 0.740401 0.672166 0
    outer loop
      vertex -14.0039 -1.32892 1.5
      vertex -14.0171 -1.31438 1.1
      vertex -14.0171 -1.31438 1.5
    endloop
  endfacet
  facet normal 0.740401 0.672166 0
    outer loop
      vertex -14.0171 -1.31438 1.1
      vertex -14.0039 -1.32892 1.5
      vertex -14.0039 -1.32892 1.1
    endloop
  endfacet
  facet normal -0.426775 0.904358 0
    outer loop
      vertex 13.9568 -1.36388 1.1
      vertex 13.939 -1.37228 1.5
      vertex 13.9568 -1.36388 1.5
    endloop
  endfacet
  facet normal -0.426775 0.904358 0
    outer loop
      vertex 13.939 -1.37228 1.5
      vertex 13.9568 -1.36388 1.1
      vertex 13.939 -1.37228 1.1
    endloop
  endfacet
  facet normal -0.740401 -0.672166 0
    outer loop
      vertex 14.0171 -1.06062 1.1
      vertex 14.0039 -1.04608 1.5
      vertex 14.0039 -1.04608 1.1
    endloop
  endfacet
  facet normal -0.740401 -0.672166 0
    outer loop
      vertex 14.0039 -1.04608 1.5
      vertex 14.0171 -1.06062 1.1
      vertex 14.0171 -1.06062 1.5
    endloop
  endfacet
  facet normal -0.242297 0.970202 0
    outer loop
      vertex 13.9206 -1.37889 1.1
      vertex 13.9015 -1.38366 1.5
      vertex 13.9206 -1.37889 1.5
    endloop
  endfacet
  facet normal -0.242297 0.970202 0
    outer loop
      vertex 13.9015 -1.38366 1.5
      vertex 13.9206 -1.37889 1.1
      vertex 13.9015 -1.38366 1.1
    endloop
  endfacet
  facet normal -0.803106 -0.595836 0
    outer loop
      vertex 14.0288 -1.07639 1.1
      vertex 14.0171 -1.06062 1.5
      vertex 14.0171 -1.06062 1.1
    endloop
  endfacet
  facet normal -0.803106 -0.595836 0
    outer loop
      vertex 14.0171 -1.06062 1.5
      vertex 14.0288 -1.07639 1.1
      vertex 14.0288 -1.07639 1.5
    endloop
  endfacet
  facet normal -0.146894 -0.989152 0
    outer loop
      vertex 13.8821 -0.988462 1.1
      vertex 13.9015 -0.991343 1.5
      vertex 13.8821 -0.988462 1.5
    endloop
  endfacet
  facet normal -0.146894 -0.989152 -0
    outer loop
      vertex 13.9015 -0.991343 1.5
      vertex 13.8821 -0.988462 1.1
      vertex 13.9015 -0.991343 1.1
    endloop
  endfacet
  facet normal -0.941742 0.336336 0
    outer loop
      vertex 14.0473 -1.26404 1.1
      vertex 14.0539 -1.24556 1.5
      vertex 14.0539 -1.24556 1.1
    endloop
  endfacet
  facet normal -0.941742 0.336336 0
    outer loop
      vertex 14.0539 -1.24556 1.5
      vertex 14.0473 -1.26404 1.1
      vertex 14.0473 -1.26404 1.5
    endloop
  endfacet
  facet normal -0.9038 0.427955 0
    outer loop
      vertex 14.0389 -1.28178 1.1
      vertex 14.0473 -1.26404 1.5
      vertex 14.0473 -1.26404 1.1
    endloop
  endfacet
  facet normal -0.9038 0.427955 0
    outer loop
      vertex 14.0473 -1.26404 1.5
      vertex 14.0389 -1.28178 1.1
      vertex 14.0389 -1.28178 1.5
    endloop
  endfacet
  facet normal 0.9038 0.427955 0
    outer loop
      vertex -14.0389 -1.28178 1.5
      vertex -14.0473 -1.26404 1.1
      vertex -14.0473 -1.26404 1.5
    endloop
  endfacet
  facet normal 0.9038 0.427955 0
    outer loop
      vertex -14.0473 -1.26404 1.1
      vertex -14.0389 -1.28178 1.5
      vertex -14.0389 -1.28178 1.1
    endloop
  endfacet
  facet normal 0.0489209 0.998803 -0
    outer loop
      vertex -13.8625 -1.3875 1.1
      vertex -13.8821 -1.38654 1.5
      vertex -13.8625 -1.3875 1.5
    endloop
  endfacet
  facet normal 0.0489209 0.998803 0
    outer loop
      vertex -13.8821 -1.38654 1.5
      vertex -13.8625 -1.3875 1.1
      vertex -13.8821 -1.38654 1.1
    endloop
  endfacet
  facet normal -0.672622 0.739986 0
    outer loop
      vertex 14.0039 -1.32892 1.1
      vertex 13.9894 -1.3421 1.5
      vertex 14.0039 -1.32892 1.5
    endloop
  endfacet
  facet normal -0.672622 0.739986 0
    outer loop
      vertex 13.9894 -1.3421 1.5
      vertex 14.0039 -1.32892 1.1
      vertex 13.9894 -1.3421 1.1
    endloop
  endfacet
  facet normal 0.857448 0.514571 0
    outer loop
      vertex -14.0288 -1.29861 1.5
      vertex -14.0389 -1.28178 1.1
      vertex -14.0389 -1.28178 1.5
    endloop
  endfacet
  facet normal 0.857448 0.514571 0
    outer loop
      vertex -14.0389 -1.28178 1.1
      vertex -14.0288 -1.29861 1.5
      vertex -14.0288 -1.29861 1.1
    endloop
  endfacet
  facet normal 0.594777 0.803891 -0
    outer loop
      vertex -13.9736 -1.35379 1.1
      vertex -13.9894 -1.3421 1.5
      vertex -13.9736 -1.35379 1.5
    endloop
  endfacet
  facet normal 0.594777 0.803891 0
    outer loop
      vertex -13.9894 -1.3421 1.5
      vertex -13.9736 -1.35379 1.1
      vertex -13.9894 -1.3421 1.1
    endloop
  endfacet
  facet normal 0.672622 0.739986 -0
    outer loop
      vertex -13.9894 -1.3421 1.1
      vertex -14.0039 -1.32892 1.5
      vertex -13.9894 -1.3421 1.5
    endloop
  endfacet
  facet normal 0.672622 0.739986 0
    outer loop
      vertex -14.0039 -1.32892 1.5
      vertex -13.9894 -1.3421 1.1
      vertex -14.0039 -1.32892 1.1
    endloop
  endfacet
  facet normal 0 0 1
    outer loop
      vertex 14.0615 -1.1679 1.1
      vertex 14.0615 -1.2071 1.1
      vertex 14.0625 -1.1875 1.1
    endloop
  endfacet
  facet normal 0 0 1
    outer loop
      vertex 14.0587 -1.14848 1.1
      vertex 14.0615 -1.2071 1.1
      vertex 14.0615 -1.1679 1.1
    endloop
  endfacet
  facet normal 0 0 1
    outer loop
      vertex 14.0587 -1.14848 1.1
      vertex 14.0587 -1.22652 1.1
      vertex 14.0615 -1.2071 1.1
    endloop
  endfacet
  facet normal 0 0 1
    outer loop
      vertex 14.0539 -1.12944 1.1
      vertex 14.0587 -1.22652 1.1
      vertex 14.0587 -1.14848 1.1
    endloop
  endfacet
  facet normal 0 0 1
    outer loop
      vertex 14.0539 -1.12944 1.1
      vertex 14.0539 -1.24556 1.1
      vertex 14.0587 -1.22652 1.1
    endloop
  endfacet
  facet normal 0 0 1
    outer loop
      vertex 14.0473 -1.11096 1.1
      vertex 14.0539 -1.24556 1.1
      vertex 14.0539 -1.12944 1.1
    endloop
  endfacet
  facet normal 0 0 1
    outer loop
      vertex 14.0473 -1.11096 1.1
      vertex 14.0473 -1.26404 1.1
      vertex 14.0539 -1.24556 1.1
    endloop
  endfacet
  facet normal 0 0 1
    outer loop
      vertex 14.0389 -1.09322 1.1
      vertex 14.0473 -1.26404 1.1
      vertex 14.0473 -1.11096 1.1
    endloop
  endfacet
  facet normal 0 0 1
    outer loop
      vertex 14.0389 -1.09322 1.1
      vertex 14.0389 -1.28178 1.1
      vertex 14.0473 -1.26404 1.1
    endloop
  endfacet
  facet normal 0 0 1
    outer loop
      vertex 14.0288 -1.07639 1.1
      vertex 14.0389 -1.28178 1.1
      vertex 14.0389 -1.09322 1.1
    endloop
  endfacet
  facet normal 0 0 1
    outer loop
      vertex 14.0288 -1.07639 1.1
      vertex 14.0288 -1.29861 1.1
      vertex 14.0389 -1.28178 1.1
    endloop
  endfacet
  facet normal 0 0 1
    outer loop
      vertex 14.0171 -1.06062 1.1
      vertex 14.0288 -1.29861 1.1
      vertex 14.0288 -1.07639 1.1
    endloop
  endfacet
  facet normal 0 0 1
    outer loop
      vertex 14.0171 -1.06062 1.1
      vertex 14.0171 -1.31438 1.1
      vertex 14.0288 -1.29861 1.1
    endloop
  endfacet
  facet normal 0 0 1
    outer loop
      vertex 14.0039 -1.04608 1.1
      vertex 14.0171 -1.31438 1.1
      vertex 14.0171 -1.06062 1.1
    endloop
  endfacet
  facet normal 0 0 1
    outer loop
      vertex 14.0039 -1.04608 1.1
      vertex 14.0039 -1.32892 1.1
      vertex 14.0171 -1.31438 1.1
    endloop
  endfacet
  facet normal 0 0 1
    outer loop
      vertex 13.9894 -1.0329 1.1
      vertex 14.0039 -1.32892 1.1
      vertex 14.0039 -1.04608 1.1
    endloop
  endfacet
  facet normal 0 0 1
    outer loop
      vertex 13.9894 -1.0329 1.1
      vertex 13.9894 -1.3421 1.1
      vertex 14.0039 -1.32892 1.1
    endloop
  endfacet
  facet normal 0 0 1
    outer loop
      vertex 13.9736 -1.02121 1.1
      vertex 13.9894 -1.3421 1.1
      vertex 13.9894 -1.0329 1.1
    endloop
  endfacet
  facet normal 0 0 1
    outer loop
      vertex 13.9736 -1.02121 1.1
      vertex 13.9736 -1.35379 1.1
      vertex 13.9894 -1.3421 1.1
    endloop
  endfacet
  facet normal 0 0 1
    outer loop
      vertex 13.9568 -1.01112 1.1
      vertex 13.9736 -1.35379 1.1
      vertex 13.9736 -1.02121 1.1
    endloop
  endfacet
  facet normal 0 0 1
    outer loop
      vertex 13.9568 -1.01112 1.1
      vertex 13.9568 -1.36388 1.1
      vertex 13.9736 -1.35379 1.1
    endloop
  endfacet
  facet normal 0 0 1
    outer loop
      vertex 13.939 -1.00272 1.1
      vertex 13.9568 -1.36388 1.1
      vertex 13.9568 -1.01112 1.1
    endloop
  endfacet
  facet normal 0 0 1
    outer loop
      vertex 13.939 -1.00272 1.1
      vertex 13.939 -1.37228 1.1
      vertex 13.9568 -1.36388 1.1
    endloop
  endfacet
  facet normal 0 0 1
    outer loop
      vertex 13.9206 -0.996112 1.1
      vertex 13.939 -1.37228 1.1
      vertex 13.939 -1.00272 1.1
    endloop
  endfacet
  facet normal 0 0 1
    outer loop
      vertex 13.9206 -0.996112 1.1
      vertex 13.9206 -1.37889 1.1
      vertex 13.939 -1.37228 1.1
    endloop
  endfacet
  facet normal 0 0 1
    outer loop
      vertex 13.9015 -0.991343 1.1
      vertex 13.9206 -1.37889 1.1
      vertex 13.9206 -0.996112 1.1
    endloop
  endfacet
  facet normal 0 0 1
    outer loop
      vertex 13.9015 -0.991343 1.1
      vertex 13.9015 -1.38366 1.1
      vertex 13.9206 -1.37889 1.1
    endloop
  endfacet
  facet normal 0 0 1
    outer loop
      vertex 13.8821 -0.988462 1.1
      vertex 13.9015 -1.38366 1.1
      vertex 13.9015 -0.991343 1.1
    endloop
  endfacet
  facet normal 0 0 1
    outer loop
      vertex 13.8821 -0.988462 1.1
      vertex 13.8821 -1.38654 1.1
      vertex 13.9015 -1.38366 1.1
    endloop
  endfacet
  facet normal 0 0 1
    outer loop
      vertex 13.8625 -0.987499 1.1
      vertex 13.8821 -1.38654 1.1
      vertex 13.8821 -0.988462 1.1
    endloop
  endfacet
  facet normal 0 0 1
    outer loop
      vertex 13.8625 -0.987499 1.1
      vertex 13.8625 -1.3875 1.1
      vertex 13.8821 -1.38654 1.1
    endloop
  endfacet
  facet normal -0 0 1
    outer loop
      vertex -13.8625 -0.987499 1.1
      vertex 13.8625 -1.3875 1.1
      vertex 13.8625 -0.987499 1.1
    endloop
  endfacet
  facet normal 0 0 1
    outer loop
      vertex -13.8625 -0.987499 1.1
      vertex -13.8625 -1.3875 1.1
      vertex 13.8625 -1.3875 1.1
    endloop
  endfacet
  facet normal -0 0 1
    outer loop
      vertex -13.8821 -0.988462 1.1
      vertex -13.8625 -1.3875 1.1
      vertex -13.8625 -0.987499 1.1
    endloop
  endfacet
  facet normal 0 0 1
    outer loop
      vertex -13.8821 -0.988462 1.1
      vertex -13.8821 -1.38654 1.1
      vertex -13.8625 -1.3875 1.1
    endloop
  endfacet
  facet normal -0 0 1
    outer loop
      vertex -13.9015 -0.991343 1.1
      vertex -13.8821 -1.38654 1.1
      vertex -13.8821 -0.988462 1.1
    endloop
  endfacet
  facet normal 0 0 1
    outer loop
      vertex -13.9015 -0.991343 1.1
      vertex -13.9015 -1.38366 1.1
      vertex -13.8821 -1.38654 1.1
    endloop
  endfacet
  facet normal -0 0 1
    outer loop
      vertex -13.9206 -0.996112 1.1
      vertex -13.9015 -1.38366 1.1
      vertex -13.9015 -0.991343 1.1
    endloop
  endfacet
  facet normal 0 0 1
    outer loop
      vertex -13.9206 -0.996112 1.1
      vertex -13.9206 -1.37889 1.1
      vertex -13.9015 -1.38366 1.1
    endloop
  endfacet
  facet normal -0 0 1
    outer loop
      vertex -13.939 -1.00272 1.1
      vertex -13.9206 -1.37889 1.1
      vertex -13.9206 -0.996112 1.1
    endloop
  endfacet
  facet normal 0 0 1
    outer loop
      vertex -13.939 -1.00272 1.1
      vertex -13.939 -1.37228 1.1
      vertex -13.9206 -1.37889 1.1
    endloop
  endfacet
  facet normal -0 0 1
    outer loop
      vertex -13.9568 -1.01112 1.1
      vertex -13.939 -1.37228 1.1
      vertex -13.939 -1.00272 1.1
    endloop
  endfacet
  facet normal 0 0 1
    outer loop
      vertex -13.9568 -1.01112 1.1
      vertex -13.9568 -1.36388 1.1
      vertex -13.939 -1.37228 1.1
    endloop
  endfacet
  facet normal -0 0 1
    outer loop
      vertex -13.9736 -1.02121 1.1
      vertex -13.9568 -1.36388 1.1
      vertex -13.9568 -1.01112 1.1
    endloop
  endfacet
  facet normal 0 0 1
    outer loop
      vertex -13.9736 -1.02121 1.1
      vertex -13.9736 -1.35379 1.1
      vertex -13.9568 -1.36388 1.1
    endloop
  endfacet
  facet normal -0 0 1
    outer loop
      vertex -13.9894 -1.0329 1.1
      vertex -13.9736 -1.35379 1.1
      vertex -13.9736 -1.02121 1.1
    endloop
  endfacet
  facet normal 0 0 1
    outer loop
      vertex -13.9894 -1.0329 1.1
      vertex -13.9894 -1.3421 1.1
      vertex -13.9736 -1.35379 1.1
    endloop
  endfacet
  facet normal -0 0 1
    outer loop
      vertex -14.0039 -1.04608 1.1
      vertex -13.9894 -1.3421 1.1
      vertex -13.9894 -1.0329 1.1
    endloop
  endfacet
  facet normal 0 0 1
    outer loop
      vertex -14.0039 -1.04608 1.1
      vertex -14.0039 -1.32892 1.1
      vertex -13.9894 -1.3421 1.1
    endloop
  endfacet
  facet normal -0 0 1
    outer loop
      vertex -14.0171 -1.06062 1.1
      vertex -14.0039 -1.32892 1.1
      vertex -14.0039 -1.04608 1.1
    endloop
  endfacet
  facet normal 0 0 1
    outer loop
      vertex -14.0171 -1.06062 1.1
      vertex -14.0171 -1.31438 1.1
      vertex -14.0039 -1.32892 1.1
    endloop
  endfacet
  facet normal -0 0 1
    outer loop
      vertex -14.0288 -1.07639 1.1
      vertex -14.0171 -1.31438 1.1
      vertex -14.0171 -1.06062 1.1
    endloop
  endfacet
  facet normal 0 0 1
    outer loop
      vertex -14.0288 -1.07639 1.1
      vertex -14.0288 -1.29861 1.1
      vertex -14.0171 -1.31438 1.1
    endloop
  endfacet
  facet normal -0 0 1
    outer loop
      vertex -14.0389 -1.09322 1.1
      vertex -14.0288 -1.29861 1.1
      vertex -14.0288 -1.07639 1.1
    endloop
  endfacet
  facet normal 0 0 1
    outer loop
      vertex -14.0389 -1.09322 1.1
      vertex -14.0389 -1.28178 1.1
      vertex -14.0288 -1.29861 1.1
    endloop
  endfacet
  facet normal -0 0 1
    outer loop
      vertex -14.0473 -1.11096 1.1
      vertex -14.0389 -1.28178 1.1
      vertex -14.0389 -1.09322 1.1
    endloop
  endfacet
  facet normal 0 0 1
    outer loop
      vertex -14.0473 -1.11096 1.1
      vertex -14.0473 -1.26404 1.1
      vertex -14.0389 -1.28178 1.1
    endloop
  endfacet
  facet normal -0 0 1
    outer loop
      vertex -14.0539 -1.12944 1.1
      vertex -14.0473 -1.26404 1.1
      vertex -14.0473 -1.11096 1.1
    endloop
  endfacet
  facet normal 0 0 1
    outer loop
      vertex -14.0539 -1.12944 1.1
      vertex -14.0539 -1.24556 1.1
      vertex -14.0473 -1.26404 1.1
    endloop
  endfacet
  facet normal -0 0 1
    outer loop
      vertex -14.0587 -1.14848 1.1
      vertex -14.0539 -1.24556 1.1
      vertex -14.0539 -1.12944 1.1
    endloop
  endfacet
  facet normal 0 0 1
    outer loop
      vertex -14.0587 -1.14848 1.1
      vertex -14.0587 -1.22652 1.1
      vertex -14.0539 -1.24556 1.1
    endloop
  endfacet
  facet normal -0 0 1
    outer loop
      vertex -14.0615 -1.1679 1.1
      vertex -14.0587 -1.22652 1.1
      vertex -14.0587 -1.14848 1.1
    endloop
  endfacet
  facet normal 0 0 1
    outer loop
      vertex -14.0615 -1.1679 1.1
      vertex -14.0615 -1.2071 1.1
      vertex -14.0587 -1.22652 1.1
    endloop
  endfacet
  facet normal 0 -0 1
    outer loop
      vertex -14.0615 -1.2071 1.1
      vertex -14.0615 -1.1679 1.1
      vertex -14.0625 -1.1875 1.1
    endloop
  endfacet
  facet normal 0.941742 0.336336 0
    outer loop
      vertex -14.0473 -1.26404 1.5
      vertex -14.0539 -1.24556 1.1
      vertex -14.0539 -1.24556 1.5
    endloop
  endfacet
  facet normal 0.941742 0.336336 0
    outer loop
      vertex -14.0539 -1.24556 1.1
      vertex -14.0473 -1.26404 1.5
      vertex -14.0473 -1.26404 1.1
    endloop
  endfacet
endsolid OpenSCAD_Model
