solid OpenSCAD_Model
  facet normal 0 0 -1
    outer loop
      vertex 5.9375 -5.9375 0
      vertex 3.3375 -3.75 0
      vertex 5.9375 -1.5625 0
    endloop
  endfacet
  facet normal 0 0 -1
    outer loop
      vertex 5.9375 -5.9375 0
      vertex 3.33196 -3.86272 0
      vertex 3.3375 -3.75 0
    endloop
  endfacet
  facet normal 0 0 -1
    outer loop
      vertex 5.9375 -5.9375 0
      vertex 3.3154 -3.97435 0
      vertex 3.33196 -3.86272 0
    endloop
  endfacet
  facet normal 0 0 -1
    outer loop
      vertex 5.9375 -5.9375 0
      vertex 3.28798 -4.08383 0
      vertex 3.3154 -3.97435 0
    endloop
  endfacet
  facet normal 0 0 -1
    outer loop
      vertex 5.9375 -5.9375 0
      vertex 3.24996 -4.19009 0
      vertex 3.28798 -4.08383 0
    endloop
  endfacet
  facet normal 0 0 -1
    outer loop
      vertex 5.9375 -5.9375 0
      vertex 3.20171 -4.29211 0
      vertex 3.24996 -4.19009 0
    endloop
  endfacet
  facet normal 0 0 -1
    outer loop
      vertex 5.9375 -5.9375 0
      vertex 3.14369 -4.38891 0
      vertex 3.20171 -4.29211 0
    endloop
  endfacet
  facet normal 0 0 -1
    outer loop
      vertex 5.9375 -5.9375 0
      vertex 3.07646 -4.47955 0
      vertex 3.14369 -4.38891 0
    endloop
  endfacet
  facet normal 0 0 -1
    outer loop
      vertex 5.9375 -5.9375 0
      vertex 3.00067 -4.56317 0
      vertex 3.07646 -4.47955 0
    endloop
  endfacet
  facet normal 0 0 -1
    outer loop
      vertex 5.9375 -5.9375 0
      vertex 2.91705 -4.63896 0
      vertex 3.00067 -4.56317 0
    endloop
  endfacet
  facet normal 0 0 -1
    outer loop
      vertex 5.9375 -5.9375 0
      vertex 2.82641 -4.70619 0
      vertex 2.91705 -4.63896 0
    endloop
  endfacet
  facet normal 0 0 -1
    outer loop
      vertex 5.9375 -5.9375 0
      vertex 2.72961 -4.76421 0
      vertex 2.82641 -4.70619 0
    endloop
  endfacet
  facet normal 0 0 -1
    outer loop
      vertex 5.9375 -5.9375 0
      vertex 2.62759 -4.81246 0
      vertex 2.72961 -4.76421 0
    endloop
  endfacet
  facet normal 0 0 -1
    outer loop
      vertex 5.9375 -5.9375 0
      vertex 2.52133 -4.85048 0
      vertex 2.62759 -4.81246 0
    endloop
  endfacet
  facet normal 0 0 -1
    outer loop
      vertex 5.9375 -5.9375 0
      vertex 2.41185 -4.8779 0
      vertex 2.52133 -4.85048 0
    endloop
  endfacet
  facet normal 0 0 -1
    outer loop
      vertex 5.9375 -5.9375 0
      vertex 2.30022 -4.89446 0
      vertex 2.41185 -4.8779 0
    endloop
  endfacet
  facet normal 0 0 -1
    outer loop
      vertex 5.9375 -5.9375 0
      vertex 2.1875 -4.9 0
      vertex 2.30022 -4.89446 0
    endloop
  endfacet
  facet normal 0 0 -1
    outer loop
      vertex 5.9375 -5.9375 0
      vertex 2.07478 -4.89446 0
      vertex 2.1875 -4.9 0
    endloop
  endfacet
  facet normal 0 0 -1
    outer loop
      vertex -5.9375 -5.9375 0
      vertex 2.07478 -4.89446 0
      vertex 5.9375 -5.9375 0
    endloop
  endfacet
  facet normal -0 0 -1
    outer loop
      vertex 2.07478 -4.89446 0
      vertex -5.9375 -5.9375 0
      vertex 1.96315 -4.8779 0
    endloop
  endfacet
  facet normal 0 0 -1
    outer loop
      vertex 1.04304 -3.86272 0
      vertex -1.5625 -1.5625 0
      vertex 1.0375 -3.75 0
    endloop
  endfacet
  facet normal 0 0 -1
    outer loop
      vertex 1.0596 -3.97435 0
      vertex -1.5625 -1.5625 0
      vertex 1.04304 -3.86272 0
    endloop
  endfacet
  facet normal 0 0 -1
    outer loop
      vertex 1.08702 -4.08383 0
      vertex -1.5625 -1.5625 0
      vertex 1.0596 -3.97435 0
    endloop
  endfacet
  facet normal 0 0 -1
    outer loop
      vertex -5.9375 -5.9375 0
      vertex 1.08702 -4.08383 0
      vertex 1.12504 -4.19009 0
    endloop
  endfacet
  facet normal 0 0 -1
    outer loop
      vertex -5.9375 -5.9375 0
      vertex 1.12504 -4.19009 0
      vertex 1.17329 -4.29211 0
    endloop
  endfacet
  facet normal 0 0 -1
    outer loop
      vertex -5.9375 -5.9375 0
      vertex 1.17329 -4.29211 0
      vertex 1.23131 -4.38891 0
    endloop
  endfacet
  facet normal 0 0 -1
    outer loop
      vertex -5.9375 -5.9375 0
      vertex 1.23131 -4.38891 0
      vertex 1.29854 -4.47955 0
    endloop
  endfacet
  facet normal 0 0 -1
    outer loop
      vertex -5.9375 -5.9375 0
      vertex 1.29854 -4.47955 0
      vertex 1.37433 -4.56317 0
    endloop
  endfacet
  facet normal 0 0 -1
    outer loop
      vertex -1.5625 -1.5625 0
      vertex -2.6 2.1875 0
      vertex -1.5625 5.9375 0
    endloop
  endfacet
  facet normal 0 0 -1
    outer loop
      vertex -1.5625 -1.5625 0
      vertex -2.60554 2.07478 0
      vertex -2.6 2.1875 0
    endloop
  endfacet
  facet normal 0 0 -1
    outer loop
      vertex -1.5625 -1.5625 0
      vertex -2.6221 1.96315 0
      vertex -2.60554 2.07478 0
    endloop
  endfacet
  facet normal 0 0 -1
    outer loop
      vertex -1.5625 -1.5625 0
      vertex -2.64952 1.85367 0
      vertex -2.6221 1.96315 0
    endloop
  endfacet
  facet normal 0 0 -1
    outer loop
      vertex -1.5625 -1.5625 0
      vertex -2.68754 1.74741 0
      vertex -2.64952 1.85367 0
    endloop
  endfacet
  facet normal 0 0 -1
    outer loop
      vertex -1.5625 -1.5625 0
      vertex -2.73579 1.64539 0
      vertex -2.68754 1.74741 0
    endloop
  endfacet
  facet normal 0 0 -1
    outer loop
      vertex -1.5625 -1.5625 0
      vertex -2.79381 1.54859 0
      vertex -2.73579 1.64539 0
    endloop
  endfacet
  facet normal 0 0 -1
    outer loop
      vertex -1.5625 -1.5625 0
      vertex -2.86104 1.45795 0
      vertex -2.79381 1.54859 0
    endloop
  endfacet
  facet normal 0 0 -1
    outer loop
      vertex -1.5625 -1.5625 0
      vertex -2.93683 1.37433 0
      vertex -2.86104 1.45795 0
    endloop
  endfacet
  facet normal 0 0 -1
    outer loop
      vertex -1.5625 -1.5625 0
      vertex -3.02045 1.29854 0
      vertex -2.93683 1.37433 0
    endloop
  endfacet
  facet normal 0 0 -1
    outer loop
      vertex -1.5625 -1.5625 0
      vertex -3.11109 1.23131 0
      vertex -3.02045 1.29854 0
    endloop
  endfacet
  facet normal 0 0 -1
    outer loop
      vertex -1.5625 -1.5625 0
      vertex -3.20789 1.17329 0
      vertex -3.11109 1.23131 0
    endloop
  endfacet
  facet normal 0 0 -1
    outer loop
      vertex -1.5625 -1.5625 0
      vertex -3.30991 1.12504 0
      vertex -3.20789 1.17329 0
    endloop
  endfacet
  facet normal 0 0 -1
    outer loop
      vertex -1.5625 -1.5625 0
      vertex -3.41617 1.08702 0
      vertex -3.30991 1.12504 0
    endloop
  endfacet
  facet normal 0 0 -1
    outer loop
      vertex -1.5625 -1.5625 0
      vertex -3.52565 1.0596 0
      vertex -3.41617 1.08702 0
    endloop
  endfacet
  facet normal 0 0 -1
    outer loop
      vertex -1.5625 -1.5625 0
      vertex -3.63728 1.04304 0
      vertex -3.52565 1.0596 0
    endloop
  endfacet
  facet normal 0 0 -1
    outer loop
      vertex -1.5625 -1.5625 0
      vertex -3.75 1.0375 0
      vertex -3.63728 1.04304 0
    endloop
  endfacet
  facet normal 0 0 -1
    outer loop
      vertex -1.5625 -1.5625 0
      vertex -3.86272 1.04304 0
      vertex -3.75 1.0375 0
    endloop
  endfacet
  facet normal 0 0 -1
    outer loop
      vertex -1.5625 -1.5625 0
      vertex -3.97435 1.0596 0
      vertex -3.86272 1.04304 0
    endloop
  endfacet
  facet normal 0 0 -1
    outer loop
      vertex -1.5625 -1.5625 0
      vertex -4.08383 1.08702 0
      vertex -3.97435 1.0596 0
    endloop
  endfacet
  facet normal 0 0 -1
    outer loop
      vertex -5.9375 -5.9375 0
      vertex -4.08383 1.08702 0
      vertex -1.5625 -1.5625 0
    endloop
  endfacet
  facet normal -0 0 -1
    outer loop
      vertex -4.08383 1.08702 0
      vertex -5.9375 -5.9375 0
      vertex -4.19009 1.12504 0
    endloop
  endfacet
  facet normal -0 0 -1
    outer loop
      vertex 1.08702 -4.08383 0
      vertex -5.9375 -5.9375 0
      vertex -1.5625 -1.5625 0
    endloop
  endfacet
  facet normal -0 0 -1
    outer loop
      vertex -4.19009 1.12504 0
      vertex -5.9375 -5.9375 0
      vertex -4.29211 1.17329 0
    endloop
  endfacet
  facet normal -0 0 -1
    outer loop
      vertex -4.29211 1.17329 0
      vertex -5.9375 -5.9375 0
      vertex -4.38891 1.23131 0
    endloop
  endfacet
  facet normal -0 0 -1
    outer loop
      vertex -4.38891 1.23131 0
      vertex -5.9375 -5.9375 0
      vertex -4.47955 1.29854 0
    endloop
  endfacet
  facet normal 0 0 -1
    outer loop
      vertex -5.9375 5.9375 0
      vertex -4.89446 2.07478 0
      vertex -5.9375 -5.9375 0
    endloop
  endfacet
  facet normal -0 0 -1
    outer loop
      vertex -4.8779 1.96315 0
      vertex -5.9375 -5.9375 0
      vertex -4.89446 2.07478 0
    endloop
  endfacet
  facet normal -0 0 -1
    outer loop
      vertex -4.85048 1.85367 0
      vertex -5.9375 -5.9375 0
      vertex -4.8779 1.96315 0
    endloop
  endfacet
  facet normal -0 0 -1
    outer loop
      vertex -4.81246 1.74741 0
      vertex -5.9375 -5.9375 0
      vertex -4.85048 1.85367 0
    endloop
  endfacet
  facet normal -0 0 -1
    outer loop
      vertex -4.76421 1.64539 0
      vertex -5.9375 -5.9375 0
      vertex -4.81246 1.74741 0
    endloop
  endfacet
  facet normal -0 0 -1
    outer loop
      vertex -4.70619 1.54859 0
      vertex -5.9375 -5.9375 0
      vertex -4.76421 1.64539 0
    endloop
  endfacet
  facet normal -0 0 -1
    outer loop
      vertex -4.63896 1.45795 0
      vertex -5.9375 -5.9375 0
      vertex -4.70619 1.54859 0
    endloop
  endfacet
  facet normal -0 0 -1
    outer loop
      vertex -4.56317 1.37433 0
      vertex -5.9375 -5.9375 0
      vertex -4.63896 1.45795 0
    endloop
  endfacet
  facet normal -0 0 -1
    outer loop
      vertex -4.47955 1.29854 0
      vertex -5.9375 -5.9375 0
      vertex -4.56317 1.37433 0
    endloop
  endfacet
  facet normal -0 0 -1
    outer loop
      vertex 1.45795 -4.63896 0
      vertex -5.9375 -5.9375 0
      vertex 1.37433 -4.56317 0
    endloop
  endfacet
  facet normal -0 0 -1
    outer loop
      vertex 1.54859 -4.70619 0
      vertex -5.9375 -5.9375 0
      vertex 1.45795 -4.63896 0
    endloop
  endfacet
  facet normal -0 0 -1
    outer loop
      vertex 1.64539 -4.76421 0
      vertex -5.9375 -5.9375 0
      vertex 1.54859 -4.70619 0
    endloop
  endfacet
  facet normal -0 0 -1
    outer loop
      vertex 1.74741 -4.81246 0
      vertex -5.9375 -5.9375 0
      vertex 1.64539 -4.76421 0
    endloop
  endfacet
  facet normal -0 0 -1
    outer loop
      vertex 1.85367 -4.85048 0
      vertex -5.9375 -5.9375 0
      vertex 1.74741 -4.81246 0
    endloop
  endfacet
  facet normal -0 0 -1
    outer loop
      vertex 1.96315 -4.8779 0
      vertex -5.9375 -5.9375 0
      vertex 1.85367 -4.85048 0
    endloop
  endfacet
  facet normal 0 0 -1
    outer loop
      vertex 3.33196 -3.63728 0
      vertex 5.9375 -1.5625 0
      vertex 3.3375 -3.75 0
    endloop
  endfacet
  facet normal 0 0 -1
    outer loop
      vertex 3.3154 -3.52565 0
      vertex 5.9375 -1.5625 0
      vertex 3.33196 -3.63728 0
    endloop
  endfacet
  facet normal 0 0 -1
    outer loop
      vertex 3.28798 -3.41617 0
      vertex 5.9375 -1.5625 0
      vertex 3.3154 -3.52565 0
    endloop
  endfacet
  facet normal 0 0 -1
    outer loop
      vertex 3.24996 -3.30991 0
      vertex 5.9375 -1.5625 0
      vertex 3.28798 -3.41617 0
    endloop
  endfacet
  facet normal 0 0 -1
    outer loop
      vertex 3.20171 -3.20789 0
      vertex 5.9375 -1.5625 0
      vertex 3.24996 -3.30991 0
    endloop
  endfacet
  facet normal 0 0 -1
    outer loop
      vertex 3.14369 -3.11109 0
      vertex 5.9375 -1.5625 0
      vertex 3.20171 -3.20789 0
    endloop
  endfacet
  facet normal 0 0 -1
    outer loop
      vertex 3.07646 -3.02045 0
      vertex 5.9375 -1.5625 0
      vertex 3.14369 -3.11109 0
    endloop
  endfacet
  facet normal 0 0 -1
    outer loop
      vertex 3.00067 -2.93683 0
      vertex 5.9375 -1.5625 0
      vertex 3.07646 -3.02045 0
    endloop
  endfacet
  facet normal 0 0 -1
    outer loop
      vertex 2.91705 -2.86104 0
      vertex 5.9375 -1.5625 0
      vertex 3.00067 -2.93683 0
    endloop
  endfacet
  facet normal 0 0 -1
    outer loop
      vertex 2.82641 -2.79381 0
      vertex 5.9375 -1.5625 0
      vertex 2.91705 -2.86104 0
    endloop
  endfacet
  facet normal 0 0 -1
    outer loop
      vertex 2.72961 -2.73579 0
      vertex 5.9375 -1.5625 0
      vertex 2.82641 -2.79381 0
    endloop
  endfacet
  facet normal 0 0 -1
    outer loop
      vertex 2.62759 -2.68754 0
      vertex 5.9375 -1.5625 0
      vertex 2.72961 -2.73579 0
    endloop
  endfacet
  facet normal 0 0 -1
    outer loop
      vertex 2.52133 -2.64952 0
      vertex 5.9375 -1.5625 0
      vertex 2.62759 -2.68754 0
    endloop
  endfacet
  facet normal 0 0 -1
    outer loop
      vertex 2.41185 -2.6221 0
      vertex 5.9375 -1.5625 0
      vertex 2.52133 -2.64952 0
    endloop
  endfacet
  facet normal 0 0 -1
    outer loop
      vertex 2.30022 -2.60554 0
      vertex 5.9375 -1.5625 0
      vertex 2.41185 -2.6221 0
    endloop
  endfacet
  facet normal 0 0 -1
    outer loop
      vertex 2.1875 -2.6 0
      vertex 5.9375 -1.5625 0
      vertex 2.30022 -2.60554 0
    endloop
  endfacet
  facet normal 0 0 -1
    outer loop
      vertex -1.5625 -1.5625 0
      vertex 2.1875 -2.6 0
      vertex 2.07478 -2.60554 0
    endloop
  endfacet
  facet normal 0 0 -1
    outer loop
      vertex -1.5625 -1.5625 0
      vertex 2.07478 -2.60554 0
      vertex 1.96315 -2.6221 0
    endloop
  endfacet
  facet normal 0 0 -1
    outer loop
      vertex -1.5625 -1.5625 0
      vertex 1.96315 -2.6221 0
      vertex 1.85367 -2.64952 0
    endloop
  endfacet
  facet normal 0 0 -1
    outer loop
      vertex 2.1875 -2.6 0
      vertex -1.5625 -1.5625 0
      vertex 5.9375 -1.5625 0
    endloop
  endfacet
  facet normal 0 0 -1
    outer loop
      vertex 1.74741 -2.68754 0
      vertex -1.5625 -1.5625 0
      vertex 1.85367 -2.64952 0
    endloop
  endfacet
  facet normal 0 0 -1
    outer loop
      vertex 1.64539 -2.73579 0
      vertex -1.5625 -1.5625 0
      vertex 1.74741 -2.68754 0
    endloop
  endfacet
  facet normal 0 0 -1
    outer loop
      vertex 1.54859 -2.79381 0
      vertex -1.5625 -1.5625 0
      vertex 1.64539 -2.73579 0
    endloop
  endfacet
  facet normal 0 0 -1
    outer loop
      vertex 1.45795 -2.86104 0
      vertex -1.5625 -1.5625 0
      vertex 1.54859 -2.79381 0
    endloop
  endfacet
  facet normal 0 0 -1
    outer loop
      vertex 1.37433 -2.93683 0
      vertex -1.5625 -1.5625 0
      vertex 1.45795 -2.86104 0
    endloop
  endfacet
  facet normal 0 0 -1
    outer loop
      vertex 1.29854 -3.02045 0
      vertex -1.5625 -1.5625 0
      vertex 1.37433 -2.93683 0
    endloop
  endfacet
  facet normal 0 0 -1
    outer loop
      vertex 1.23131 -3.11109 0
      vertex -1.5625 -1.5625 0
      vertex 1.29854 -3.02045 0
    endloop
  endfacet
  facet normal 0 0 -1
    outer loop
      vertex 1.17329 -3.20789 0
      vertex -1.5625 -1.5625 0
      vertex 1.23131 -3.11109 0
    endloop
  endfacet
  facet normal 0 0 -1
    outer loop
      vertex 1.12504 -3.30991 0
      vertex -1.5625 -1.5625 0
      vertex 1.17329 -3.20789 0
    endloop
  endfacet
  facet normal 0 0 -1
    outer loop
      vertex 1.08702 -3.41617 0
      vertex -1.5625 -1.5625 0
      vertex 1.12504 -3.30991 0
    endloop
  endfacet
  facet normal 0 0 -1
    outer loop
      vertex 1.0596 -3.52565 0
      vertex -1.5625 -1.5625 0
      vertex 1.08702 -3.41617 0
    endloop
  endfacet
  facet normal 0 0 -1
    outer loop
      vertex 1.04304 -3.63728 0
      vertex -1.5625 -1.5625 0
      vertex 1.0596 -3.52565 0
    endloop
  endfacet
  facet normal 0 0 -1
    outer loop
      vertex -1.5625 -1.5625 0
      vertex 1.04304 -3.63728 0
      vertex 1.0375 -3.75 0
    endloop
  endfacet
  facet normal 0 0 -1
    outer loop
      vertex -2.60554 2.30022 0
      vertex -1.5625 5.9375 0
      vertex -2.6 2.1875 0
    endloop
  endfacet
  facet normal 0 0 -1
    outer loop
      vertex -2.6221 2.41185 0
      vertex -1.5625 5.9375 0
      vertex -2.60554 2.30022 0
    endloop
  endfacet
  facet normal 0 0 -1
    outer loop
      vertex -2.64952 2.52133 0
      vertex -1.5625 5.9375 0
      vertex -2.6221 2.41185 0
    endloop
  endfacet
  facet normal 0 0 -1
    outer loop
      vertex -2.68754 2.62759 0
      vertex -1.5625 5.9375 0
      vertex -2.64952 2.52133 0
    endloop
  endfacet
  facet normal 0 0 -1
    outer loop
      vertex -2.73579 2.72961 0
      vertex -1.5625 5.9375 0
      vertex -2.68754 2.62759 0
    endloop
  endfacet
  facet normal 0 0 -1
    outer loop
      vertex -2.79381 2.82641 0
      vertex -1.5625 5.9375 0
      vertex -2.73579 2.72961 0
    endloop
  endfacet
  facet normal 0 0 -1
    outer loop
      vertex -2.86104 2.91705 0
      vertex -1.5625 5.9375 0
      vertex -2.79381 2.82641 0
    endloop
  endfacet
  facet normal 0 0 -1
    outer loop
      vertex -2.93683 3.00067 0
      vertex -1.5625 5.9375 0
      vertex -2.86104 2.91705 0
    endloop
  endfacet
  facet normal 0 0 -1
    outer loop
      vertex -3.02045 3.07646 0
      vertex -1.5625 5.9375 0
      vertex -2.93683 3.00067 0
    endloop
  endfacet
  facet normal 0 0 -1
    outer loop
      vertex -3.11109 3.14369 0
      vertex -1.5625 5.9375 0
      vertex -3.02045 3.07646 0
    endloop
  endfacet
  facet normal 0 0 -1
    outer loop
      vertex -3.20789 3.20171 0
      vertex -1.5625 5.9375 0
      vertex -3.11109 3.14369 0
    endloop
  endfacet
  facet normal 0 0 -1
    outer loop
      vertex -3.30991 3.24996 0
      vertex -1.5625 5.9375 0
      vertex -3.20789 3.20171 0
    endloop
  endfacet
  facet normal 0 0 -1
    outer loop
      vertex -3.41617 3.28798 0
      vertex -1.5625 5.9375 0
      vertex -3.30991 3.24996 0
    endloop
  endfacet
  facet normal 0 0 -1
    outer loop
      vertex -3.52565 3.3154 0
      vertex -1.5625 5.9375 0
      vertex -3.41617 3.28798 0
    endloop
  endfacet
  facet normal 0 0 -1
    outer loop
      vertex -3.63728 3.33196 0
      vertex -1.5625 5.9375 0
      vertex -3.52565 3.3154 0
    endloop
  endfacet
  facet normal 0 0 -1
    outer loop
      vertex -3.75 3.3375 0
      vertex -1.5625 5.9375 0
      vertex -3.63728 3.33196 0
    endloop
  endfacet
  facet normal 0 0 -1
    outer loop
      vertex -5.9375 5.9375 0
      vertex -3.75 3.3375 0
      vertex -3.86272 3.33196 0
    endloop
  endfacet
  facet normal 0 0 -1
    outer loop
      vertex -5.9375 5.9375 0
      vertex -3.86272 3.33196 0
      vertex -3.97435 3.3154 0
    endloop
  endfacet
  facet normal 0 0 -1
    outer loop
      vertex -5.9375 5.9375 0
      vertex -3.97435 3.3154 0
      vertex -4.08383 3.28798 0
    endloop
  endfacet
  facet normal 0 0 -1
    outer loop
      vertex -5.9375 5.9375 0
      vertex -4.08383 3.28798 0
      vertex -4.19009 3.24996 0
    endloop
  endfacet
  facet normal 0 0 -1
    outer loop
      vertex -5.9375 5.9375 0
      vertex -4.19009 3.24996 0
      vertex -4.29211 3.20171 0
    endloop
  endfacet
  facet normal 0 0 -1
    outer loop
      vertex -5.9375 5.9375 0
      vertex -4.29211 3.20171 0
      vertex -4.38891 3.14369 0
    endloop
  endfacet
  facet normal 0 0 -1
    outer loop
      vertex -5.9375 5.9375 0
      vertex -4.38891 3.14369 0
      vertex -4.47955 3.07646 0
    endloop
  endfacet
  facet normal 0 0 -1
    outer loop
      vertex -5.9375 5.9375 0
      vertex -4.47955 3.07646 0
      vertex -4.56317 3.00067 0
    endloop
  endfacet
  facet normal 0 0 -1
    outer loop
      vertex -4.89446 2.07478 0
      vertex -5.9375 5.9375 0
      vertex -4.9 2.1875 0
    endloop
  endfacet
  facet normal 0 0 -1
    outer loop
      vertex -3.75 3.3375 0
      vertex -5.9375 5.9375 0
      vertex -1.5625 5.9375 0
    endloop
  endfacet
  facet normal 0 0 -1
    outer loop
      vertex -4.63896 2.91705 0
      vertex -5.9375 5.9375 0
      vertex -4.56317 3.00067 0
    endloop
  endfacet
  facet normal 0 0 -1
    outer loop
      vertex -4.70619 2.82641 0
      vertex -5.9375 5.9375 0
      vertex -4.63896 2.91705 0
    endloop
  endfacet
  facet normal 0 0 -1
    outer loop
      vertex -4.76421 2.72961 0
      vertex -5.9375 5.9375 0
      vertex -4.70619 2.82641 0
    endloop
  endfacet
  facet normal 0 0 -1
    outer loop
      vertex -4.81246 2.62759 0
      vertex -5.9375 5.9375 0
      vertex -4.76421 2.72961 0
    endloop
  endfacet
  facet normal 0 0 -1
    outer loop
      vertex -4.85048 2.52133 0
      vertex -5.9375 5.9375 0
      vertex -4.81246 2.62759 0
    endloop
  endfacet
  facet normal 0 0 -1
    outer loop
      vertex -4.8779 2.41185 0
      vertex -5.9375 5.9375 0
      vertex -4.85048 2.52133 0
    endloop
  endfacet
  facet normal 0 0 -1
    outer loop
      vertex -4.89446 2.30022 0
      vertex -5.9375 5.9375 0
      vertex -4.8779 2.41185 0
    endloop
  endfacet
  facet normal 0 0 -1
    outer loop
      vertex -4.9 2.1875 0
      vertex -5.9375 5.9375 0
      vertex -4.89446 2.30022 0
    endloop
  endfacet
  facet normal 1 -0 0
    outer loop
      vertex 5.9375 -5.9375 25
      vertex 5.9375 -1.5625 0
      vertex 5.9375 -1.5625 25
    endloop
  endfacet
  facet normal 1 0 0
    outer loop
      vertex 5.9375 -1.5625 0
      vertex 5.9375 -5.9375 25
      vertex 5.9375 -5.9375 0
    endloop
  endfacet
  facet normal 0 -1 0
    outer loop
      vertex -5.9375 -5.9375 0
      vertex 5.9375 -5.9375 25
      vertex -5.9375 -5.9375 25
    endloop
  endfacet
  facet normal 0 -1 -0
    outer loop
      vertex 5.9375 -5.9375 25
      vertex -5.9375 -5.9375 0
      vertex 5.9375 -5.9375 0
    endloop
  endfacet
  facet normal 0 0 1
    outer loop
      vertex -1.5625 5.9375 25
      vertex -5.9375 5.9375 25
      vertex -1.5625 -1.5625 25
    endloop
  endfacet
  facet normal -0 0 1
    outer loop
      vertex -1.5625 -1.5625 25
      vertex 5.9375 -5.9375 25
      vertex 5.9375 -1.5625 25
    endloop
  endfacet
  facet normal 0 0 1
    outer loop
      vertex -1.5625 -1.5625 25
      vertex -5.9375 -5.9375 25
      vertex 5.9375 -5.9375 25
    endloop
  endfacet
  facet normal 0 0 1
    outer loop
      vertex -5.9375 -5.9375 25
      vertex -1.5625 -1.5625 25
      vertex -5.9375 5.9375 25
    endloop
  endfacet
  facet normal -1 0 0
    outer loop
      vertex -5.9375 -5.9375 0
      vertex -5.9375 5.9375 25
      vertex -5.9375 5.9375 0
    endloop
  endfacet
  facet normal -1 -0 0
    outer loop
      vertex -5.9375 5.9375 25
      vertex -5.9375 -5.9375 0
      vertex -5.9375 -5.9375 25
    endloop
  endfacet
  facet normal 0 1 -0
    outer loop
      vertex 5.9375 -1.5625 0
      vertex -1.5625 -1.5625 25
      vertex 5.9375 -1.5625 25
    endloop
  endfacet
  facet normal 0 1 0
    outer loop
      vertex -1.5625 -1.5625 25
      vertex 5.9375 -1.5625 0
      vertex -1.5625 -1.5625 0
    endloop
  endfacet
  facet normal 1 -0 0
    outer loop
      vertex -1.5625 -1.5625 25
      vertex -1.5625 5.9375 0
      vertex -1.5625 5.9375 25
    endloop
  endfacet
  facet normal 1 0 0
    outer loop
      vertex -1.5625 5.9375 0
      vertex -1.5625 -1.5625 25
      vertex -1.5625 -1.5625 0
    endloop
  endfacet
  facet normal 0 1 -0
    outer loop
      vertex -1.5625 5.9375 0
      vertex -5.9375 5.9375 25
      vertex -1.5625 5.9375 25
    endloop
  endfacet
  facet normal 0 1 0
    outer loop
      vertex -5.9375 5.9375 25
      vertex -1.5625 5.9375 0
      vertex -5.9375 5.9375 0
    endloop
  endfacet
  facet normal -0.989175 -0.146741 0
    outer loop
      vertex 3.33196 -3.63728 0
      vertex 3.3154 -3.52565 1.2
      vertex 3.3154 -3.52565 0
    endloop
  endfacet
  facet normal -0.989175 -0.146741 0
    outer loop
      vertex 3.3154 -3.52565 1.2
      vertex 3.33196 -3.63728 0
      vertex 3.33196 -3.63728 1.2
    endloop
  endfacet
  facet normal -0.998794 -0.0490891 0
    outer loop
      vertex 3.3375 -3.75 0
      vertex 3.33196 -3.63728 1.2
      vertex 3.33196 -3.63728 0
    endloop
  endfacet
  facet normal -0.998794 -0.0490891 0
    outer loop
      vertex 3.33196 -3.63728 1.2
      vertex 3.3375 -3.75 0
      vertex 3.3375 -3.75 1.2
    endloop
  endfacet
  facet normal -0.970038 -0.242953 0
    outer loop
      vertex 3.3154 -3.52565 0
      vertex 3.28798 -3.41617 1.2
      vertex 3.28798 -3.41617 0
    endloop
  endfacet
  facet normal -0.970038 -0.242953 0
    outer loop
      vertex 3.28798 -3.41617 1.2
      vertex 3.3154 -3.52565 0
      vertex 3.3154 -3.52565 1.2
    endloop
  endfacet
  facet normal 0.146741 -0.989175 0
    outer loop
      vertex 1.96315 -2.6221 0
      vertex 2.07478 -2.60554 1.2
      vertex 1.96315 -2.6221 1.2
    endloop
  endfacet
  facet normal 0.146741 -0.989175 0
    outer loop
      vertex 2.07478 -2.60554 1.2
      vertex 1.96315 -2.6221 0
      vertex 2.07478 -2.60554 0
    endloop
  endfacet
  facet normal 0.941545 0.336886 0
    outer loop
      vertex 1.12504 -4.19009 1.2
      vertex 1.08702 -4.08383 0
      vertex 1.08702 -4.08383 1.2
    endloop
  endfacet
  facet normal 0.941545 0.336886 0
    outer loop
      vertex 1.08702 -4.08383 0
      vertex 1.12504 -4.19009 1.2
      vertex 1.12504 -4.19009 0
    endloop
  endfacet
  facet normal -0.514105 -0.857727 0
    outer loop
      vertex 2.72961 -2.73579 0
      vertex 2.82641 -2.79381 1.2
      vertex 2.72961 -2.73579 1.2
    endloop
  endfacet
  facet normal -0.514105 -0.857727 -0
    outer loop
      vertex 2.82641 -2.79381 1.2
      vertex 2.72961 -2.73579 0
      vertex 2.82641 -2.79381 0
    endloop
  endfacet
  facet normal 0.857727 -0.514105 0
    outer loop
      vertex 1.17329 -3.20789 1.2
      vertex 1.23131 -3.11109 0
      vertex 1.23131 -3.11109 1.2
    endloop
  endfacet
  facet normal 0.857727 -0.514105 0
    outer loop
      vertex 1.23131 -3.11109 0
      vertex 1.17329 -3.20789 1.2
      vertex 1.17329 -3.20789 0
    endloop
  endfacet
  facet normal -0.427542 0.903996 0
    outer loop
      vertex 2.72961 -4.76421 0
      vertex 2.62759 -4.81246 1.2
      vertex 2.72961 -4.76421 1.2
    endloop
  endfacet
  facet normal -0.427542 0.903996 0
    outer loop
      vertex 2.62759 -4.81246 1.2
      vertex 2.72961 -4.76421 0
      vertex 2.62759 -4.81246 0
    endloop
  endfacet
  facet normal -0.998794 0.0490891 0
    outer loop
      vertex 3.33196 -3.86272 0
      vertex 3.3375 -3.75 1.2
      vertex 3.3375 -3.75 0
    endloop
  endfacet
  facet normal -0.998794 0.0490891 0
    outer loop
      vertex 3.3375 -3.75 1.2
      vertex 3.33196 -3.86272 0
      vertex 3.33196 -3.86272 1.2
    endloop
  endfacet
  facet normal -0.242953 0.970038 0
    outer loop
      vertex 2.52133 -4.85048 0
      vertex 2.41185 -4.8779 1.2
      vertex 2.52133 -4.85048 1.2
    endloop
  endfacet
  facet normal -0.242953 0.970038 0
    outer loop
      vertex 2.41185 -4.8779 1.2
      vertex 2.52133 -4.85048 0
      vertex 2.41185 -4.8779 0
    endloop
  endfacet
  facet normal 0.595738 -0.803179 0
    outer loop
      vertex 1.45795 -2.86104 0
      vertex 1.54859 -2.79381 1.2
      vertex 1.45795 -2.86104 1.2
    endloop
  endfacet
  facet normal 0.595738 -0.803179 0
    outer loop
      vertex 1.54859 -2.79381 1.2
      vertex 1.45795 -2.86104 0
      vertex 1.54859 -2.79381 0
    endloop
  endfacet
  facet normal -0.0490891 0.998794 0
    outer loop
      vertex 2.30022 -4.89446 0
      vertex 2.1875 -4.9 1.2
      vertex 2.30022 -4.89446 1.2
    endloop
  endfacet
  facet normal -0.0490891 0.998794 0
    outer loop
      vertex 2.1875 -4.9 1.2
      vertex 2.30022 -4.89446 0
      vertex 2.1875 -4.9 0
    endloop
  endfacet
  facet normal 0.514105 0.857727 -0
    outer loop
      vertex 1.64539 -4.76421 0
      vertex 1.54859 -4.70619 1.2
      vertex 1.64539 -4.76421 1.2
    endloop
  endfacet
  facet normal 0.514105 0.857727 0
    outer loop
      vertex 1.54859 -4.70619 1.2
      vertex 1.64539 -4.76421 0
      vertex 1.54859 -4.70619 0
    endloop
  endfacet
  facet normal -0.903996 -0.427542 0
    outer loop
      vertex 3.24996 -3.30991 0
      vertex 3.20171 -3.20789 1.2
      vertex 3.20171 -3.20789 0
    endloop
  endfacet
  facet normal -0.903996 -0.427542 0
    outer loop
      vertex 3.20171 -3.20789 1.2
      vertex 3.24996 -3.30991 0
      vertex 3.24996 -3.30991 1.2
    endloop
  endfacet
  facet normal 0.146741 0.989175 -0
    outer loop
      vertex 2.07478 -4.89446 0
      vertex 1.96315 -4.8779 1.2
      vertex 2.07478 -4.89446 1.2
    endloop
  endfacet
  facet normal 0.146741 0.989175 0
    outer loop
      vertex 1.96315 -4.8779 1.2
      vertex 2.07478 -4.89446 0
      vertex 1.96315 -4.8779 0
    endloop
  endfacet
  facet normal 0.242953 0.970038 -0
    outer loop
      vertex 1.96315 -4.8779 0
      vertex 1.85367 -4.85048 1.2
      vertex 1.96315 -4.8779 1.2
    endloop
  endfacet
  facet normal 0.242953 0.970038 0
    outer loop
      vertex 1.85367 -4.85048 1.2
      vertex 1.96315 -4.8779 0
      vertex 1.85367 -4.85048 0
    endloop
  endfacet
  facet normal -0.595738 -0.803179 0
    outer loop
      vertex 2.82641 -2.79381 0
      vertex 2.91705 -2.86104 1.2
      vertex 2.82641 -2.79381 1.2
    endloop
  endfacet
  facet normal -0.595738 -0.803179 -0
    outer loop
      vertex 2.91705 -2.86104 1.2
      vertex 2.82641 -2.79381 0
      vertex 2.91705 -2.86104 0
    endloop
  endfacet
  facet normal 0.903996 0.427542 0
    outer loop
      vertex 1.17329 -4.29211 1.2
      vertex 1.12504 -4.19009 0
      vertex 1.12504 -4.19009 1.2
    endloop
  endfacet
  facet normal 0.903996 0.427542 0
    outer loop
      vertex 1.12504 -4.19009 0
      vertex 1.17329 -4.29211 1.2
      vertex 1.17329 -4.29211 0
    endloop
  endfacet
  facet normal -0.803179 0.595738 0
    outer loop
      vertex 3.07646 -4.47955 0
      vertex 3.14369 -4.38891 1.2
      vertex 3.14369 -4.38891 0
    endloop
  endfacet
  facet normal -0.803179 0.595738 0
    outer loop
      vertex 3.14369 -4.38891 1.2
      vertex 3.07646 -4.47955 0
      vertex 3.07646 -4.47955 1.2
    endloop
  endfacet
  facet normal -0.803179 -0.595738 0
    outer loop
      vertex 3.14369 -3.11109 0
      vertex 3.07646 -3.02045 1.2
      vertex 3.07646 -3.02045 0
    endloop
  endfacet
  facet normal -0.803179 -0.595738 0
    outer loop
      vertex 3.07646 -3.02045 1.2
      vertex 3.14369 -3.11109 0
      vertex 3.14369 -3.11109 1.2
    endloop
  endfacet
  facet normal 0 0 -1
    outer loop
      vertex 3.33196 -3.86272 1.2
      vertex 3.33196 -3.63728 1.2
      vertex 3.3375 -3.75 1.2
    endloop
  endfacet
  facet normal 0 0 -1
    outer loop
      vertex 3.3154 -3.97435 1.2
      vertex 3.33196 -3.63728 1.2
      vertex 3.33196 -3.86272 1.2
    endloop
  endfacet
  facet normal 0 0 -1
    outer loop
      vertex 3.3154 -3.97435 1.2
      vertex 3.3154 -3.52565 1.2
      vertex 3.33196 -3.63728 1.2
    endloop
  endfacet
  facet normal 0 0 -1
    outer loop
      vertex 3.28798 -4.08383 1.2
      vertex 3.3154 -3.52565 1.2
      vertex 3.3154 -3.97435 1.2
    endloop
  endfacet
  facet normal 0 0 -1
    outer loop
      vertex 3.28798 -4.08383 1.2
      vertex 3.28798 -3.41617 1.2
      vertex 3.3154 -3.52565 1.2
    endloop
  endfacet
  facet normal 0 0 -1
    outer loop
      vertex 3.24996 -4.19009 1.2
      vertex 3.28798 -3.41617 1.2
      vertex 3.28798 -4.08383 1.2
    endloop
  endfacet
  facet normal 0 0 -1
    outer loop
      vertex 3.24996 -4.19009 1.2
      vertex 3.24996 -3.30991 1.2
      vertex 3.28798 -3.41617 1.2
    endloop
  endfacet
  facet normal 0 0 -1
    outer loop
      vertex 3.20171 -4.29211 1.2
      vertex 3.24996 -3.30991 1.2
      vertex 3.24996 -4.19009 1.2
    endloop
  endfacet
  facet normal 0 0 -1
    outer loop
      vertex 3.20171 -4.29211 1.2
      vertex 3.20171 -3.20789 1.2
      vertex 3.24996 -3.30991 1.2
    endloop
  endfacet
  facet normal 0 0 -1
    outer loop
      vertex 3.14369 -4.38891 1.2
      vertex 3.20171 -3.20789 1.2
      vertex 3.20171 -4.29211 1.2
    endloop
  endfacet
  facet normal 0 0 -1
    outer loop
      vertex 3.14369 -4.38891 1.2
      vertex 3.14369 -3.11109 1.2
      vertex 3.20171 -3.20789 1.2
    endloop
  endfacet
  facet normal 0 0 -1
    outer loop
      vertex 3.07646 -4.47955 1.2
      vertex 3.14369 -3.11109 1.2
      vertex 3.14369 -4.38891 1.2
    endloop
  endfacet
  facet normal 0 0 -1
    outer loop
      vertex 3.07646 -4.47955 1.2
      vertex 3.07646 -3.02045 1.2
      vertex 3.14369 -3.11109 1.2
    endloop
  endfacet
  facet normal 0 0 -1
    outer loop
      vertex 3.00067 -4.56317 1.2
      vertex 3.07646 -3.02045 1.2
      vertex 3.07646 -4.47955 1.2
    endloop
  endfacet
  facet normal 0 0 -1
    outer loop
      vertex 3.00067 -4.56317 1.2
      vertex 3.00067 -2.93683 1.2
      vertex 3.07646 -3.02045 1.2
    endloop
  endfacet
  facet normal 0 0 -1
    outer loop
      vertex 2.91705 -4.63896 1.2
      vertex 3.00067 -2.93683 1.2
      vertex 3.00067 -4.56317 1.2
    endloop
  endfacet
  facet normal 0 0 -1
    outer loop
      vertex 2.91705 -4.63896 1.2
      vertex 2.91705 -2.86104 1.2
      vertex 3.00067 -2.93683 1.2
    endloop
  endfacet
  facet normal 0 0 -1
    outer loop
      vertex 2.82641 -4.70619 1.2
      vertex 2.91705 -2.86104 1.2
      vertex 2.91705 -4.63896 1.2
    endloop
  endfacet
  facet normal 0 0 -1
    outer loop
      vertex 2.82641 -4.70619 1.2
      vertex 2.82641 -2.79381 1.2
      vertex 2.91705 -2.86104 1.2
    endloop
  endfacet
  facet normal 0 0 -1
    outer loop
      vertex 2.72961 -4.76421 1.2
      vertex 2.82641 -2.79381 1.2
      vertex 2.82641 -4.70619 1.2
    endloop
  endfacet
  facet normal 0 0 -1
    outer loop
      vertex 2.72961 -4.76421 1.2
      vertex 2.72961 -2.73579 1.2
      vertex 2.82641 -2.79381 1.2
    endloop
  endfacet
  facet normal 0 0 -1
    outer loop
      vertex 2.62759 -4.81246 1.2
      vertex 2.72961 -2.73579 1.2
      vertex 2.72961 -4.76421 1.2
    endloop
  endfacet
  facet normal 0 0 -1
    outer loop
      vertex 2.62759 -4.81246 1.2
      vertex 2.62759 -2.68754 1.2
      vertex 2.72961 -2.73579 1.2
    endloop
  endfacet
  facet normal 0 0 -1
    outer loop
      vertex 2.52133 -4.85048 1.2
      vertex 2.62759 -2.68754 1.2
      vertex 2.62759 -4.81246 1.2
    endloop
  endfacet
  facet normal 0 0 -1
    outer loop
      vertex 2.52133 -4.85048 1.2
      vertex 2.52133 -2.64952 1.2
      vertex 2.62759 -2.68754 1.2
    endloop
  endfacet
  facet normal 0 0 -1
    outer loop
      vertex 2.41185 -4.8779 1.2
      vertex 2.52133 -2.64952 1.2
      vertex 2.52133 -4.85048 1.2
    endloop
  endfacet
  facet normal 0 0 -1
    outer loop
      vertex 2.41185 -4.8779 1.2
      vertex 2.41185 -2.6221 1.2
      vertex 2.52133 -2.64952 1.2
    endloop
  endfacet
  facet normal 0 0 -1
    outer loop
      vertex 2.30022 -4.89446 1.2
      vertex 2.41185 -2.6221 1.2
      vertex 2.41185 -4.8779 1.2
    endloop
  endfacet
  facet normal 0 0 -1
    outer loop
      vertex 2.30022 -4.89446 1.2
      vertex 2.30022 -2.60554 1.2
      vertex 2.41185 -2.6221 1.2
    endloop
  endfacet
  facet normal 0 0 -1
    outer loop
      vertex 2.1875 -4.9 1.2
      vertex 2.30022 -2.60554 1.2
      vertex 2.30022 -4.89446 1.2
    endloop
  endfacet
  facet normal 0 0 -1
    outer loop
      vertex 2.1875 -4.9 1.2
      vertex 2.1875 -2.6 1.2
      vertex 2.30022 -2.60554 1.2
    endloop
  endfacet
  facet normal 0 0 -1
    outer loop
      vertex 2.07478 -4.89446 1.2
      vertex 2.1875 -2.6 1.2
      vertex 2.1875 -4.9 1.2
    endloop
  endfacet
  facet normal 0 0 -1
    outer loop
      vertex 2.07478 -4.89446 1.2
      vertex 2.07478 -2.60554 1.2
      vertex 2.1875 -2.6 1.2
    endloop
  endfacet
  facet normal 0 0 -1
    outer loop
      vertex 1.96315 -4.8779 1.2
      vertex 2.07478 -2.60554 1.2
      vertex 2.07478 -4.89446 1.2
    endloop
  endfacet
  facet normal 0 0 -1
    outer loop
      vertex 1.96315 -4.8779 1.2
      vertex 1.96315 -2.6221 1.2
      vertex 2.07478 -2.60554 1.2
    endloop
  endfacet
  facet normal 0 0 -1
    outer loop
      vertex 1.85367 -4.85048 1.2
      vertex 1.96315 -2.6221 1.2
      vertex 1.96315 -4.8779 1.2
    endloop
  endfacet
  facet normal 0 0 -1
    outer loop
      vertex 1.85367 -4.85048 1.2
      vertex 1.85367 -2.64952 1.2
      vertex 1.96315 -2.6221 1.2
    endloop
  endfacet
  facet normal 0 0 -1
    outer loop
      vertex 1.74741 -4.81246 1.2
      vertex 1.85367 -2.64952 1.2
      vertex 1.85367 -4.85048 1.2
    endloop
  endfacet
  facet normal 0 0 -1
    outer loop
      vertex 1.74741 -4.81246 1.2
      vertex 1.74741 -2.68754 1.2
      vertex 1.85367 -2.64952 1.2
    endloop
  endfacet
  facet normal 0 0 -1
    outer loop
      vertex 1.64539 -4.76421 1.2
      vertex 1.74741 -2.68754 1.2
      vertex 1.74741 -4.81246 1.2
    endloop
  endfacet
  facet normal 0 0 -1
    outer loop
      vertex 1.64539 -4.76421 1.2
      vertex 1.64539 -2.73579 1.2
      vertex 1.74741 -2.68754 1.2
    endloop
  endfacet
  facet normal 0 0 -1
    outer loop
      vertex 1.54859 -4.70619 1.2
      vertex 1.64539 -2.73579 1.2
      vertex 1.64539 -4.76421 1.2
    endloop
  endfacet
  facet normal 0 0 -1
    outer loop
      vertex 1.54859 -4.70619 1.2
      vertex 1.54859 -2.79381 1.2
      vertex 1.64539 -2.73579 1.2
    endloop
  endfacet
  facet normal 0 0 -1
    outer loop
      vertex 1.45795 -4.63896 1.2
      vertex 1.54859 -2.79381 1.2
      vertex 1.54859 -4.70619 1.2
    endloop
  endfacet
  facet normal 0 0 -1
    outer loop
      vertex 1.45795 -4.63896 1.2
      vertex 1.45795 -2.86104 1.2
      vertex 1.54859 -2.79381 1.2
    endloop
  endfacet
  facet normal 0 0 -1
    outer loop
      vertex 1.37433 -4.56317 1.2
      vertex 1.45795 -2.86104 1.2
      vertex 1.45795 -4.63896 1.2
    endloop
  endfacet
  facet normal 0 0 -1
    outer loop
      vertex 1.37433 -4.56317 1.2
      vertex 1.37433 -2.93683 1.2
      vertex 1.45795 -2.86104 1.2
    endloop
  endfacet
  facet normal 0 0 -1
    outer loop
      vertex 1.29854 -4.47955 1.2
      vertex 1.37433 -2.93683 1.2
      vertex 1.37433 -4.56317 1.2
    endloop
  endfacet
  facet normal 0 0 -1
    outer loop
      vertex 1.29854 -4.47955 1.2
      vertex 1.29854 -3.02045 1.2
      vertex 1.37433 -2.93683 1.2
    endloop
  endfacet
  facet normal 0 0 -1
    outer loop
      vertex 1.23131 -4.38891 1.2
      vertex 1.29854 -3.02045 1.2
      vertex 1.29854 -4.47955 1.2
    endloop
  endfacet
  facet normal 0 0 -1
    outer loop
      vertex 1.23131 -4.38891 1.2
      vertex 1.23131 -3.11109 1.2
      vertex 1.29854 -3.02045 1.2
    endloop
  endfacet
  facet normal 0 0 -1
    outer loop
      vertex 1.17329 -4.29211 1.2
      vertex 1.23131 -3.11109 1.2
      vertex 1.23131 -4.38891 1.2
    endloop
  endfacet
  facet normal 0 0 -1
    outer loop
      vertex 1.17329 -4.29211 1.2
      vertex 1.17329 -3.20789 1.2
      vertex 1.23131 -3.11109 1.2
    endloop
  endfacet
  facet normal 0 0 -1
    outer loop
      vertex 1.12504 -4.19009 1.2
      vertex 1.17329 -3.20789 1.2
      vertex 1.17329 -4.29211 1.2
    endloop
  endfacet
  facet normal 0 0 -1
    outer loop
      vertex 1.12504 -4.19009 1.2
      vertex 1.12504 -3.30991 1.2
      vertex 1.17329 -3.20789 1.2
    endloop
  endfacet
  facet normal 0 0 -1
    outer loop
      vertex 1.08702 -4.08383 1.2
      vertex 1.12504 -3.30991 1.2
      vertex 1.12504 -4.19009 1.2
    endloop
  endfacet
  facet normal 0 0 -1
    outer loop
      vertex 1.08702 -4.08383 1.2
      vertex 1.08702 -3.41617 1.2
      vertex 1.12504 -3.30991 1.2
    endloop
  endfacet
  facet normal 0 0 -1
    outer loop
      vertex 1.0596 -3.97435 1.2
      vertex 1.08702 -3.41617 1.2
      vertex 1.08702 -4.08383 1.2
    endloop
  endfacet
  facet normal 0 0 -1
    outer loop
      vertex 1.0596 -3.97435 1.2
      vertex 1.0596 -3.52565 1.2
      vertex 1.08702 -3.41617 1.2
    endloop
  endfacet
  facet normal 0 0 -1
    outer loop
      vertex 1.04304 -3.86272 1.2
      vertex 1.0596 -3.52565 1.2
      vertex 1.0596 -3.97435 1.2
    endloop
  endfacet
  facet normal 0 0 -1
    outer loop
      vertex 1.04304 -3.86272 1.2
      vertex 1.04304 -3.63728 1.2
      vertex 1.0596 -3.52565 1.2
    endloop
  endfacet
  facet normal 0 -0 -1
    outer loop
      vertex 1.04304 -3.63728 1.2
      vertex 1.04304 -3.86272 1.2
      vertex 1.0375 -3.75 1.2
    endloop
  endfacet
  facet normal 0.989175 -0.146741 0
    outer loop
      vertex 1.04304 -3.63728 1.2
      vertex 1.0596 -3.52565 0
      vertex 1.0596 -3.52565 1.2
    endloop
  endfacet
  facet normal 0.989175 -0.146741 0
    outer loop
      vertex 1.0596 -3.52565 0
      vertex 1.04304 -3.63728 1.2
      vertex 1.04304 -3.63728 0
    endloop
  endfacet
  facet normal 0.970038 0.242953 0
    outer loop
      vertex 1.08702 -4.08383 1.2
      vertex 1.0596 -3.97435 0
      vertex 1.0596 -3.97435 1.2
    endloop
  endfacet
  facet normal 0.970038 0.242953 0
    outer loop
      vertex 1.0596 -3.97435 0
      vertex 1.08702 -4.08383 1.2
      vertex 1.08702 -4.08383 0
    endloop
  endfacet
  facet normal 0.336886 -0.941545 0
    outer loop
      vertex 1.74741 -2.68754 0
      vertex 1.85367 -2.64952 1.2
      vertex 1.74741 -2.68754 1.2
    endloop
  endfacet
  facet normal 0.336886 -0.941545 0
    outer loop
      vertex 1.85367 -2.64952 1.2
      vertex 1.74741 -2.68754 0
      vertex 1.85367 -2.64952 0
    endloop
  endfacet
  facet normal 0.740946 -0.671565 0
    outer loop
      vertex 1.29854 -3.02045 1.2
      vertex 1.37433 -2.93683 0
      vertex 1.37433 -2.93683 1.2
    endloop
  endfacet
  facet normal 0.740946 -0.671565 0
    outer loop
      vertex 1.37433 -2.93683 0
      vertex 1.29854 -3.02045 1.2
      vertex 1.29854 -3.02045 0
    endloop
  endfacet
  facet normal -0.941545 0.336886 0
    outer loop
      vertex 3.24996 -4.19009 0
      vertex 3.28798 -4.08383 1.2
      vertex 3.28798 -4.08383 0
    endloop
  endfacet
  facet normal -0.941545 0.336886 0
    outer loop
      vertex 3.28798 -4.08383 1.2
      vertex 3.24996 -4.19009 0
      vertex 3.24996 -4.19009 1.2
    endloop
  endfacet
  facet normal -0.146741 0.989175 0
    outer loop
      vertex 2.41185 -4.8779 0
      vertex 2.30022 -4.89446 1.2
      vertex 2.41185 -4.8779 1.2
    endloop
  endfacet
  facet normal -0.146741 0.989175 0
    outer loop
      vertex 2.30022 -4.89446 1.2
      vertex 2.41185 -4.8779 0
      vertex 2.30022 -4.89446 0
    endloop
  endfacet
  facet normal -0.857727 -0.514105 0
    outer loop
      vertex 3.20171 -3.20789 0
      vertex 3.14369 -3.11109 1.2
      vertex 3.14369 -3.11109 0
    endloop
  endfacet
  facet normal -0.857727 -0.514105 0
    outer loop
      vertex 3.14369 -3.11109 1.2
      vertex 3.20171 -3.20789 0
      vertex 3.20171 -3.20789 1.2
    endloop
  endfacet
  facet normal -0.941545 -0.336886 0
    outer loop
      vertex 3.28798 -3.41617 0
      vertex 3.24996 -3.30991 1.2
      vertex 3.24996 -3.30991 0
    endloop
  endfacet
  facet normal -0.941545 -0.336886 0
    outer loop
      vertex 3.24996 -3.30991 1.2
      vertex 3.28798 -3.41617 0
      vertex 3.28798 -3.41617 1.2
    endloop
  endfacet
  facet normal -0.671565 -0.740946 0
    outer loop
      vertex 2.91705 -2.86104 0
      vertex 3.00067 -2.93683 1.2
      vertex 2.91705 -2.86104 1.2
    endloop
  endfacet
  facet normal -0.671565 -0.740946 -0
    outer loop
      vertex 3.00067 -2.93683 1.2
      vertex 2.91705 -2.86104 0
      vertex 3.00067 -2.93683 0
    endloop
  endfacet
  facet normal -0.970038 0.242953 0
    outer loop
      vertex 3.28798 -4.08383 0
      vertex 3.3154 -3.97435 1.2
      vertex 3.3154 -3.97435 0
    endloop
  endfacet
  facet normal -0.970038 0.242953 0
    outer loop
      vertex 3.3154 -3.97435 1.2
      vertex 3.28798 -4.08383 0
      vertex 3.28798 -4.08383 1.2
    endloop
  endfacet
  facet normal -0.0490891 -0.998794 0
    outer loop
      vertex 2.1875 -2.6 0
      vertex 2.30022 -2.60554 1.2
      vertex 2.1875 -2.6 1.2
    endloop
  endfacet
  facet normal -0.0490891 -0.998794 -0
    outer loop
      vertex 2.30022 -2.60554 1.2
      vertex 2.1875 -2.6 0
      vertex 2.30022 -2.60554 0
    endloop
  endfacet
  facet normal 0.514105 -0.857727 0
    outer loop
      vertex 1.54859 -2.79381 0
      vertex 1.64539 -2.73579 1.2
      vertex 1.54859 -2.79381 1.2
    endloop
  endfacet
  facet normal 0.514105 -0.857727 0
    outer loop
      vertex 1.64539 -2.73579 1.2
      vertex 1.54859 -2.79381 0
      vertex 1.64539 -2.73579 0
    endloop
  endfacet
  facet normal -0.336886 -0.941545 0
    outer loop
      vertex 2.52133 -2.64952 0
      vertex 2.62759 -2.68754 1.2
      vertex 2.52133 -2.64952 1.2
    endloop
  endfacet
  facet normal -0.336886 -0.941545 -0
    outer loop
      vertex 2.62759 -2.68754 1.2
      vertex 2.52133 -2.64952 0
      vertex 2.62759 -2.68754 0
    endloop
  endfacet
  facet normal 0.242953 -0.970038 0
    outer loop
      vertex 1.85367 -2.64952 0
      vertex 1.96315 -2.6221 1.2
      vertex 1.85367 -2.64952 1.2
    endloop
  endfacet
  facet normal 0.242953 -0.970038 0
    outer loop
      vertex 1.96315 -2.6221 1.2
      vertex 1.85367 -2.64952 0
      vertex 1.96315 -2.6221 0
    endloop
  endfacet
  facet normal -0.989175 0.146741 0
    outer loop
      vertex 3.3154 -3.97435 0
      vertex 3.33196 -3.86272 1.2
      vertex 3.33196 -3.86272 0
    endloop
  endfacet
  facet normal -0.989175 0.146741 0
    outer loop
      vertex 3.33196 -3.86272 1.2
      vertex 3.3154 -3.97435 0
      vertex 3.3154 -3.97435 1.2
    endloop
  endfacet
  facet normal -0.514105 0.857727 0
    outer loop
      vertex 2.82641 -4.70619 0
      vertex 2.72961 -4.76421 1.2
      vertex 2.82641 -4.70619 1.2
    endloop
  endfacet
  facet normal -0.514105 0.857727 0
    outer loop
      vertex 2.72961 -4.76421 1.2
      vertex 2.82641 -4.70619 0
      vertex 2.72961 -4.76421 0
    endloop
  endfacet
  facet normal -0.857727 0.514105 0
    outer loop
      vertex 3.14369 -4.38891 0
      vertex 3.20171 -4.29211 1.2
      vertex 3.20171 -4.29211 0
    endloop
  endfacet
  facet normal -0.857727 0.514105 0
    outer loop
      vertex 3.20171 -4.29211 1.2
      vertex 3.14369 -4.38891 0
      vertex 3.14369 -4.38891 1.2
    endloop
  endfacet
  facet normal -0.427542 -0.903996 0
    outer loop
      vertex 2.62759 -2.68754 0
      vertex 2.72961 -2.73579 1.2
      vertex 2.62759 -2.68754 1.2
    endloop
  endfacet
  facet normal -0.427542 -0.903996 -0
    outer loop
      vertex 2.72961 -2.73579 1.2
      vertex 2.62759 -2.68754 0
      vertex 2.72961 -2.73579 0
    endloop
  endfacet
  facet normal 0.941545 -0.336886 0
    outer loop
      vertex 1.08702 -3.41617 1.2
      vertex 1.12504 -3.30991 0
      vertex 1.12504 -3.30991 1.2
    endloop
  endfacet
  facet normal 0.941545 -0.336886 0
    outer loop
      vertex 1.12504 -3.30991 0
      vertex 1.08702 -3.41617 1.2
      vertex 1.08702 -3.41617 0
    endloop
  endfacet
  facet normal -0.903996 0.427542 0
    outer loop
      vertex 3.20171 -4.29211 0
      vertex 3.24996 -4.19009 1.2
      vertex 3.24996 -4.19009 0
    endloop
  endfacet
  facet normal -0.903996 0.427542 0
    outer loop
      vertex 3.24996 -4.19009 1.2
      vertex 3.20171 -4.29211 0
      vertex 3.20171 -4.29211 1.2
    endloop
  endfacet
  facet normal -0.242953 -0.970038 0
    outer loop
      vertex 2.41185 -2.6221 0
      vertex 2.52133 -2.64952 1.2
      vertex 2.41185 -2.6221 1.2
    endloop
  endfacet
  facet normal -0.242953 -0.970038 -0
    outer loop
      vertex 2.52133 -2.64952 1.2
      vertex 2.41185 -2.6221 0
      vertex 2.52133 -2.64952 0
    endloop
  endfacet
  facet normal 0.970038 -0.242953 0
    outer loop
      vertex 1.0596 -3.52565 1.2
      vertex 1.08702 -3.41617 0
      vertex 1.08702 -3.41617 1.2
    endloop
  endfacet
  facet normal 0.970038 -0.242953 0
    outer loop
      vertex 1.08702 -3.41617 0
      vertex 1.0596 -3.52565 1.2
      vertex 1.0596 -3.52565 0
    endloop
  endfacet
  facet normal 0.671565 -0.740946 0
    outer loop
      vertex 1.37433 -2.93683 0
      vertex 1.45795 -2.86104 1.2
      vertex 1.37433 -2.93683 1.2
    endloop
  endfacet
  facet normal 0.671565 -0.740946 0
    outer loop
      vertex 1.45795 -2.86104 1.2
      vertex 1.37433 -2.93683 0
      vertex 1.45795 -2.86104 0
    endloop
  endfacet
  facet normal 0.857727 0.514105 0
    outer loop
      vertex 1.23131 -4.38891 1.2
      vertex 1.17329 -4.29211 0
      vertex 1.17329 -4.29211 1.2
    endloop
  endfacet
  facet normal 0.857727 0.514105 0
    outer loop
      vertex 1.17329 -4.29211 0
      vertex 1.23131 -4.38891 1.2
      vertex 1.23131 -4.38891 0
    endloop
  endfacet
  facet normal 0.0490891 -0.998794 0
    outer loop
      vertex 2.07478 -2.60554 0
      vertex 2.1875 -2.6 1.2
      vertex 2.07478 -2.60554 1.2
    endloop
  endfacet
  facet normal 0.0490891 -0.998794 0
    outer loop
      vertex 2.1875 -2.6 1.2
      vertex 2.07478 -2.60554 0
      vertex 2.1875 -2.6 0
    endloop
  endfacet
  facet normal -0.146741 -0.989175 0
    outer loop
      vertex 2.30022 -2.60554 0
      vertex 2.41185 -2.6221 1.2
      vertex 2.30022 -2.60554 1.2
    endloop
  endfacet
  facet normal -0.146741 -0.989175 -0
    outer loop
      vertex 2.41185 -2.6221 1.2
      vertex 2.30022 -2.60554 0
      vertex 2.41185 -2.6221 0
    endloop
  endfacet
  facet normal 0.740946 0.671565 0
    outer loop
      vertex 1.37433 -4.56317 1.2
      vertex 1.29854 -4.47955 0
      vertex 1.29854 -4.47955 1.2
    endloop
  endfacet
  facet normal 0.740946 0.671565 0
    outer loop
      vertex 1.29854 -4.47955 0
      vertex 1.37433 -4.56317 1.2
      vertex 1.37433 -4.56317 0
    endloop
  endfacet
  facet normal 0.595738 0.803179 -0
    outer loop
      vertex 1.54859 -4.70619 0
      vertex 1.45795 -4.63896 1.2
      vertex 1.54859 -4.70619 1.2
    endloop
  endfacet
  facet normal 0.595738 0.803179 0
    outer loop
      vertex 1.45795 -4.63896 1.2
      vertex 1.54859 -4.70619 0
      vertex 1.45795 -4.63896 0
    endloop
  endfacet
  facet normal 0.989175 0.146741 0
    outer loop
      vertex 1.0596 -3.97435 1.2
      vertex 1.04304 -3.86272 0
      vertex 1.04304 -3.86272 1.2
    endloop
  endfacet
  facet normal 0.989175 0.146741 0
    outer loop
      vertex 1.04304 -3.86272 0
      vertex 1.0596 -3.97435 1.2
      vertex 1.0596 -3.97435 0
    endloop
  endfacet
  facet normal 0.427542 -0.903996 0
    outer loop
      vertex 1.64539 -2.73579 0
      vertex 1.74741 -2.68754 1.2
      vertex 1.64539 -2.73579 1.2
    endloop
  endfacet
  facet normal 0.427542 -0.903996 0
    outer loop
      vertex 1.74741 -2.68754 1.2
      vertex 1.64539 -2.73579 0
      vertex 1.74741 -2.68754 0
    endloop
  endfacet
  facet normal 0.803179 0.595738 0
    outer loop
      vertex 1.29854 -4.47955 1.2
      vertex 1.23131 -4.38891 0
      vertex 1.23131 -4.38891 1.2
    endloop
  endfacet
  facet normal 0.803179 0.595738 0
    outer loop
      vertex 1.23131 -4.38891 0
      vertex 1.29854 -4.47955 1.2
      vertex 1.29854 -4.47955 0
    endloop
  endfacet
  facet normal -0.336886 0.941545 0
    outer loop
      vertex 2.62759 -4.81246 0
      vertex 2.52133 -4.85048 1.2
      vertex 2.62759 -4.81246 1.2
    endloop
  endfacet
  facet normal -0.336886 0.941545 0
    outer loop
      vertex 2.52133 -4.85048 1.2
      vertex 2.62759 -4.81246 0
      vertex 2.52133 -4.85048 0
    endloop
  endfacet
  facet normal 0.998794 0.0490891 0
    outer loop
      vertex 1.04304 -3.86272 1.2
      vertex 1.0375 -3.75 0
      vertex 1.0375 -3.75 1.2
    endloop
  endfacet
  facet normal 0.998794 0.0490891 0
    outer loop
      vertex 1.0375 -3.75 0
      vertex 1.04304 -3.86272 1.2
      vertex 1.04304 -3.86272 0
    endloop
  endfacet
  facet normal 0.427542 0.903996 -0
    outer loop
      vertex 1.74741 -4.81246 0
      vertex 1.64539 -4.76421 1.2
      vertex 1.74741 -4.81246 1.2
    endloop
  endfacet
  facet normal 0.427542 0.903996 0
    outer loop
      vertex 1.64539 -4.76421 1.2
      vertex 1.74741 -4.81246 0
      vertex 1.64539 -4.76421 0
    endloop
  endfacet
  facet normal -0.595738 0.803179 0
    outer loop
      vertex 2.91705 -4.63896 0
      vertex 2.82641 -4.70619 1.2
      vertex 2.91705 -4.63896 1.2
    endloop
  endfacet
  facet normal -0.595738 0.803179 0
    outer loop
      vertex 2.82641 -4.70619 1.2
      vertex 2.91705 -4.63896 0
      vertex 2.82641 -4.70619 0
    endloop
  endfacet
  facet normal 0.803179 -0.595738 0
    outer loop
      vertex 1.23131 -3.11109 1.2
      vertex 1.29854 -3.02045 0
      vertex 1.29854 -3.02045 1.2
    endloop
  endfacet
  facet normal 0.803179 -0.595738 0
    outer loop
      vertex 1.29854 -3.02045 0
      vertex 1.23131 -3.11109 1.2
      vertex 1.23131 -3.11109 0
    endloop
  endfacet
  facet normal -0.740946 -0.671565 0
    outer loop
      vertex 3.07646 -3.02045 0
      vertex 3.00067 -2.93683 1.2
      vertex 3.00067 -2.93683 0
    endloop
  endfacet
  facet normal -0.740946 -0.671565 0
    outer loop
      vertex 3.00067 -2.93683 1.2
      vertex 3.07646 -3.02045 0
      vertex 3.07646 -3.02045 1.2
    endloop
  endfacet
  facet normal 0.903996 -0.427542 0
    outer loop
      vertex 1.12504 -3.30991 1.2
      vertex 1.17329 -3.20789 0
      vertex 1.17329 -3.20789 1.2
    endloop
  endfacet
  facet normal 0.903996 -0.427542 0
    outer loop
      vertex 1.17329 -3.20789 0
      vertex 1.12504 -3.30991 1.2
      vertex 1.12504 -3.30991 0
    endloop
  endfacet
  facet normal 0.336886 0.941545 -0
    outer loop
      vertex 1.85367 -4.85048 0
      vertex 1.74741 -4.81246 1.2
      vertex 1.85367 -4.85048 1.2
    endloop
  endfacet
  facet normal 0.336886 0.941545 0
    outer loop
      vertex 1.74741 -4.81246 1.2
      vertex 1.85367 -4.85048 0
      vertex 1.74741 -4.81246 0
    endloop
  endfacet
  facet normal 0.0490891 0.998794 -0
    outer loop
      vertex 2.1875 -4.9 0
      vertex 2.07478 -4.89446 1.2
      vertex 2.1875 -4.9 1.2
    endloop
  endfacet
  facet normal 0.0490891 0.998794 0
    outer loop
      vertex 2.07478 -4.89446 1.2
      vertex 2.1875 -4.9 0
      vertex 2.07478 -4.89446 0
    endloop
  endfacet
  facet normal 0.998794 -0.0490891 0
    outer loop
      vertex 1.0375 -3.75 1.2
      vertex 1.04304 -3.63728 0
      vertex 1.04304 -3.63728 1.2
    endloop
  endfacet
  facet normal 0.998794 -0.0490891 0
    outer loop
      vertex 1.04304 -3.63728 0
      vertex 1.0375 -3.75 1.2
      vertex 1.0375 -3.75 0
    endloop
  endfacet
  facet normal 0.671565 0.740946 -0
    outer loop
      vertex 1.45795 -4.63896 0
      vertex 1.37433 -4.56317 1.2
      vertex 1.45795 -4.63896 1.2
    endloop
  endfacet
  facet normal 0.671565 0.740946 0
    outer loop
      vertex 1.37433 -4.56317 1.2
      vertex 1.45795 -4.63896 0
      vertex 1.37433 -4.56317 0
    endloop
  endfacet
  facet normal -0.740946 0.671565 0
    outer loop
      vertex 3.00067 -4.56317 0
      vertex 3.07646 -4.47955 1.2
      vertex 3.07646 -4.47955 0
    endloop
  endfacet
  facet normal -0.740946 0.671565 0
    outer loop
      vertex 3.07646 -4.47955 1.2
      vertex 3.00067 -4.56317 0
      vertex 3.00067 -4.56317 1.2
    endloop
  endfacet
  facet normal -0.671565 0.740946 0
    outer loop
      vertex 3.00067 -4.56317 0
      vertex 2.91705 -4.63896 1.2
      vertex 3.00067 -4.56317 1.2
    endloop
  endfacet
  facet normal -0.671565 0.740946 0
    outer loop
      vertex 2.91705 -4.63896 1.2
      vertex 3.00067 -4.56317 0
      vertex 2.91705 -4.63896 0
    endloop
  endfacet
  facet normal 0.336886 0.941545 -0
    outer loop
      vertex -4.08383 1.08702 0
      vertex -4.19009 1.12504 1.2
      vertex -4.08383 1.08702 1.2
    endloop
  endfacet
  facet normal 0.336886 0.941545 0
    outer loop
      vertex -4.19009 1.12504 1.2
      vertex -4.08383 1.08702 0
      vertex -4.19009 1.12504 0
    endloop
  endfacet
  facet normal -0.989175 -0.146741 0
    outer loop
      vertex -2.60554 2.30022 0
      vertex -2.6221 2.41185 1.2
      vertex -2.6221 2.41185 0
    endloop
  endfacet
  facet normal -0.989175 -0.146741 0
    outer loop
      vertex -2.6221 2.41185 1.2
      vertex -2.60554 2.30022 0
      vertex -2.60554 2.30022 1.2
    endloop
  endfacet
  facet normal -0.998794 -0.0490891 0
    outer loop
      vertex -2.6 2.1875 0
      vertex -2.60554 2.30022 1.2
      vertex -2.60554 2.30022 0
    endloop
  endfacet
  facet normal -0.998794 -0.0490891 0
    outer loop
      vertex -2.60554 2.30022 1.2
      vertex -2.6 2.1875 0
      vertex -2.6 2.1875 1.2
    endloop
  endfacet
  facet normal -0.970038 -0.242953 0
    outer loop
      vertex -2.6221 2.41185 0
      vertex -2.64952 2.52133 1.2
      vertex -2.64952 2.52133 0
    endloop
  endfacet
  facet normal -0.970038 -0.242953 0
    outer loop
      vertex -2.64952 2.52133 1.2
      vertex -2.6221 2.41185 0
      vertex -2.6221 2.41185 1.2
    endloop
  endfacet
  facet normal -0.595738 -0.803179 0
    outer loop
      vertex -3.11109 3.14369 0
      vertex -3.02045 3.07646 1.2
      vertex -3.11109 3.14369 1.2
    endloop
  endfacet
  facet normal -0.595738 -0.803179 -0
    outer loop
      vertex -3.02045 3.07646 1.2
      vertex -3.11109 3.14369 0
      vertex -3.02045 3.07646 0
    endloop
  endfacet
  facet normal 0.671565 -0.740946 0
    outer loop
      vertex -4.56317 3.00067 0
      vertex -4.47955 3.07646 1.2
      vertex -4.56317 3.00067 1.2
    endloop
  endfacet
  facet normal 0.671565 -0.740946 0
    outer loop
      vertex -4.47955 3.07646 1.2
      vertex -4.56317 3.00067 0
      vertex -4.47955 3.07646 0
    endloop
  endfacet
  facet normal 0.903996 -0.427542 0
    outer loop
      vertex -4.81246 2.62759 1.2
      vertex -4.76421 2.72961 0
      vertex -4.76421 2.72961 1.2
    endloop
  endfacet
  facet normal 0.903996 -0.427542 0
    outer loop
      vertex -4.76421 2.72961 0
      vertex -4.81246 2.62759 1.2
      vertex -4.81246 2.62759 0
    endloop
  endfacet
  facet normal 0.989175 -0.146741 0
    outer loop
      vertex -4.89446 2.30022 1.2
      vertex -4.8779 2.41185 0
      vertex -4.8779 2.41185 1.2
    endloop
  endfacet
  facet normal 0.989175 -0.146741 0
    outer loop
      vertex -4.8779 2.41185 0
      vertex -4.89446 2.30022 1.2
      vertex -4.89446 2.30022 0
    endloop
  endfacet
  facet normal -0.242953 -0.970038 0
    outer loop
      vertex -3.52565 3.3154 0
      vertex -3.41617 3.28798 1.2
      vertex -3.52565 3.3154 1.2
    endloop
  endfacet
  facet normal -0.242953 -0.970038 -0
    outer loop
      vertex -3.41617 3.28798 1.2
      vertex -3.52565 3.3154 0
      vertex -3.41617 3.28798 0
    endloop
  endfacet
  facet normal 0.0490891 0.998794 -0
    outer loop
      vertex -3.75 1.0375 0
      vertex -3.86272 1.04304 1.2
      vertex -3.75 1.0375 1.2
    endloop
  endfacet
  facet normal 0.0490891 0.998794 0
    outer loop
      vertex -3.86272 1.04304 1.2
      vertex -3.75 1.0375 0
      vertex -3.86272 1.04304 0
    endloop
  endfacet
  facet normal 0.941545 0.336886 0
    outer loop
      vertex -4.81246 1.74741 1.2
      vertex -4.85048 1.85367 0
      vertex -4.85048 1.85367 1.2
    endloop
  endfacet
  facet normal 0.941545 0.336886 0
    outer loop
      vertex -4.85048 1.85367 0
      vertex -4.81246 1.74741 1.2
      vertex -4.81246 1.74741 0
    endloop
  endfacet
  facet normal -0.903996 -0.427542 0
    outer loop
      vertex -2.68754 2.62759 0
      vertex -2.73579 2.72961 1.2
      vertex -2.73579 2.72961 0
    endloop
  endfacet
  facet normal -0.903996 -0.427542 0
    outer loop
      vertex -2.73579 2.72961 1.2
      vertex -2.68754 2.62759 0
      vertex -2.68754 2.62759 1.2
    endloop
  endfacet
  facet normal 0.671565 0.740946 -0
    outer loop
      vertex -4.47955 1.29854 0
      vertex -4.56317 1.37433 1.2
      vertex -4.47955 1.29854 1.2
    endloop
  endfacet
  facet normal 0.671565 0.740946 0
    outer loop
      vertex -4.56317 1.37433 1.2
      vertex -4.47955 1.29854 0
      vertex -4.56317 1.37433 0
    endloop
  endfacet
  facet normal -0.857727 0.514105 0
    outer loop
      vertex -2.79381 1.54859 0
      vertex -2.73579 1.64539 1.2
      vertex -2.73579 1.64539 0
    endloop
  endfacet
  facet normal -0.857727 0.514105 0
    outer loop
      vertex -2.73579 1.64539 1.2
      vertex -2.79381 1.54859 0
      vertex -2.79381 1.54859 1.2
    endloop
  endfacet
  facet normal 0.857727 0.514105 0
    outer loop
      vertex -4.70619 1.54859 1.2
      vertex -4.76421 1.64539 0
      vertex -4.76421 1.64539 1.2
    endloop
  endfacet
  facet normal 0.857727 0.514105 0
    outer loop
      vertex -4.76421 1.64539 0
      vertex -4.70619 1.54859 1.2
      vertex -4.70619 1.54859 0
    endloop
  endfacet
  facet normal 0.941545 -0.336886 0
    outer loop
      vertex -4.85048 2.52133 1.2
      vertex -4.81246 2.62759 0
      vertex -4.81246 2.62759 1.2
    endloop
  endfacet
  facet normal 0.941545 -0.336886 0
    outer loop
      vertex -4.81246 2.62759 0
      vertex -4.85048 2.52133 1.2
      vertex -4.85048 2.52133 0
    endloop
  endfacet
  facet normal 0.970038 -0.242953 0
    outer loop
      vertex -4.8779 2.41185 1.2
      vertex -4.85048 2.52133 0
      vertex -4.85048 2.52133 1.2
    endloop
  endfacet
  facet normal 0.970038 -0.242953 0
    outer loop
      vertex -4.85048 2.52133 0
      vertex -4.8779 2.41185 1.2
      vertex -4.8779 2.41185 0
    endloop
  endfacet
  facet normal 0.595738 -0.803179 0
    outer loop
      vertex -4.47955 3.07646 0
      vertex -4.38891 3.14369 1.2
      vertex -4.47955 3.07646 1.2
    endloop
  endfacet
  facet normal 0.595738 -0.803179 0
    outer loop
      vertex -4.38891 3.14369 1.2
      vertex -4.47955 3.07646 0
      vertex -4.38891 3.14369 0
    endloop
  endfacet
  facet normal -0.427542 -0.903996 0
    outer loop
      vertex -3.30991 3.24996 0
      vertex -3.20789 3.20171 1.2
      vertex -3.30991 3.24996 1.2
    endloop
  endfacet
  facet normal -0.427542 -0.903996 -0
    outer loop
      vertex -3.20789 3.20171 1.2
      vertex -3.30991 3.24996 0
      vertex -3.20789 3.20171 0
    endloop
  endfacet
  facet normal -0.970038 0.242953 0
    outer loop
      vertex -2.64952 1.85367 0
      vertex -2.6221 1.96315 1.2
      vertex -2.6221 1.96315 0
    endloop
  endfacet
  facet normal -0.970038 0.242953 0
    outer loop
      vertex -2.6221 1.96315 1.2
      vertex -2.64952 1.85367 0
      vertex -2.64952 1.85367 1.2
    endloop
  endfacet
  facet normal -0.336886 0.941545 0
    outer loop
      vertex -3.30991 1.12504 0
      vertex -3.41617 1.08702 1.2
      vertex -3.30991 1.12504 1.2
    endloop
  endfacet
  facet normal -0.336886 0.941545 0
    outer loop
      vertex -3.41617 1.08702 1.2
      vertex -3.30991 1.12504 0
      vertex -3.41617 1.08702 0
    endloop
  endfacet
  facet normal -0.803179 -0.595738 0
    outer loop
      vertex -2.79381 2.82641 0
      vertex -2.86104 2.91705 1.2
      vertex -2.86104 2.91705 0
    endloop
  endfacet
  facet normal -0.803179 -0.595738 0
    outer loop
      vertex -2.86104 2.91705 1.2
      vertex -2.79381 2.82641 0
      vertex -2.79381 2.82641 1.2
    endloop
  endfacet
  facet normal -0.427542 0.903996 0
    outer loop
      vertex -3.20789 1.17329 0
      vertex -3.30991 1.12504 1.2
      vertex -3.20789 1.17329 1.2
    endloop
  endfacet
  facet normal -0.427542 0.903996 0
    outer loop
      vertex -3.30991 1.12504 1.2
      vertex -3.20789 1.17329 0
      vertex -3.30991 1.12504 0
    endloop
  endfacet
  facet normal -0.0490891 0.998794 0
    outer loop
      vertex -3.63728 1.04304 0
      vertex -3.75 1.0375 1.2
      vertex -3.63728 1.04304 1.2
    endloop
  endfacet
  facet normal -0.0490891 0.998794 0
    outer loop
      vertex -3.75 1.0375 1.2
      vertex -3.63728 1.04304 0
      vertex -3.75 1.0375 0
    endloop
  endfacet
  facet normal -0.595738 0.803179 0
    outer loop
      vertex -3.02045 1.29854 0
      vertex -3.11109 1.23131 1.2
      vertex -3.02045 1.29854 1.2
    endloop
  endfacet
  facet normal -0.595738 0.803179 0
    outer loop
      vertex -3.11109 1.23131 1.2
      vertex -3.02045 1.29854 0
      vertex -3.11109 1.23131 0
    endloop
  endfacet
  facet normal 0.427542 -0.903996 0
    outer loop
      vertex -4.29211 3.20171 0
      vertex -4.19009 3.24996 1.2
      vertex -4.29211 3.20171 1.2
    endloop
  endfacet
  facet normal 0.427542 -0.903996 0
    outer loop
      vertex -4.19009 3.24996 1.2
      vertex -4.29211 3.20171 0
      vertex -4.19009 3.24996 0
    endloop
  endfacet
  facet normal -0.740946 0.671565 0
    outer loop
      vertex -2.93683 1.37433 0
      vertex -2.86104 1.45795 1.2
      vertex -2.86104 1.45795 0
    endloop
  endfacet
  facet normal -0.740946 0.671565 0
    outer loop
      vertex -2.86104 1.45795 1.2
      vertex -2.93683 1.37433 0
      vertex -2.93683 1.37433 1.2
    endloop
  endfacet
  facet normal 0.0490891 -0.998794 0
    outer loop
      vertex -3.86272 3.33196 0
      vertex -3.75 3.3375 1.2
      vertex -3.86272 3.33196 1.2
    endloop
  endfacet
  facet normal 0.0490891 -0.998794 0
    outer loop
      vertex -3.75 3.3375 1.2
      vertex -3.86272 3.33196 0
      vertex -3.75 3.3375 0
    endloop
  endfacet
  facet normal -0.146741 0.989175 0
    outer loop
      vertex -3.52565 1.0596 0
      vertex -3.63728 1.04304 1.2
      vertex -3.52565 1.0596 1.2
    endloop
  endfacet
  facet normal -0.146741 0.989175 0
    outer loop
      vertex -3.63728 1.04304 1.2
      vertex -3.52565 1.0596 0
      vertex -3.63728 1.04304 0
    endloop
  endfacet
  facet normal 0.740946 -0.671565 0
    outer loop
      vertex -4.63896 2.91705 1.2
      vertex -4.56317 3.00067 0
      vertex -4.56317 3.00067 1.2
    endloop
  endfacet
  facet normal 0.740946 -0.671565 0
    outer loop
      vertex -4.56317 3.00067 0
      vertex -4.63896 2.91705 1.2
      vertex -4.63896 2.91705 0
    endloop
  endfacet
  facet normal -0.989175 0.146741 0
    outer loop
      vertex -2.6221 1.96315 0
      vertex -2.60554 2.07478 1.2
      vertex -2.60554 2.07478 0
    endloop
  endfacet
  facet normal -0.989175 0.146741 0
    outer loop
      vertex -2.60554 2.07478 1.2
      vertex -2.6221 1.96315 0
      vertex -2.6221 1.96315 1.2
    endloop
  endfacet
  facet normal -0.998794 0.0490891 0
    outer loop
      vertex -2.60554 2.07478 0
      vertex -2.6 2.1875 1.2
      vertex -2.6 2.1875 0
    endloop
  endfacet
  facet normal -0.998794 0.0490891 0
    outer loop
      vertex -2.6 2.1875 1.2
      vertex -2.60554 2.07478 0
      vertex -2.60554 2.07478 1.2
    endloop
  endfacet
  facet normal -0.941545 -0.336886 0
    outer loop
      vertex -2.64952 2.52133 0
      vertex -2.68754 2.62759 1.2
      vertex -2.68754 2.62759 0
    endloop
  endfacet
  facet normal -0.941545 -0.336886 0
    outer loop
      vertex -2.68754 2.62759 1.2
      vertex -2.64952 2.52133 0
      vertex -2.64952 2.52133 1.2
    endloop
  endfacet
  facet normal -0.146741 -0.989175 0
    outer loop
      vertex -3.63728 3.33196 0
      vertex -3.52565 3.3154 1.2
      vertex -3.63728 3.33196 1.2
    endloop
  endfacet
  facet normal -0.146741 -0.989175 -0
    outer loop
      vertex -3.52565 3.3154 1.2
      vertex -3.63728 3.33196 0
      vertex -3.52565 3.3154 0
    endloop
  endfacet
  facet normal 0 0 -1
    outer loop
      vertex -2.60554 2.07478 1.2
      vertex -2.60554 2.30022 1.2
      vertex -2.6 2.1875 1.2
    endloop
  endfacet
  facet normal 0 0 -1
    outer loop
      vertex -2.6221 1.96315 1.2
      vertex -2.60554 2.30022 1.2
      vertex -2.60554 2.07478 1.2
    endloop
  endfacet
  facet normal 0 0 -1
    outer loop
      vertex -2.6221 1.96315 1.2
      vertex -2.6221 2.41185 1.2
      vertex -2.60554 2.30022 1.2
    endloop
  endfacet
  facet normal 0 0 -1
    outer loop
      vertex -2.64952 1.85367 1.2
      vertex -2.6221 2.41185 1.2
      vertex -2.6221 1.96315 1.2
    endloop
  endfacet
  facet normal 0 0 -1
    outer loop
      vertex -2.64952 1.85367 1.2
      vertex -2.64952 2.52133 1.2
      vertex -2.6221 2.41185 1.2
    endloop
  endfacet
  facet normal 0 0 -1
    outer loop
      vertex -2.68754 1.74741 1.2
      vertex -2.64952 2.52133 1.2
      vertex -2.64952 1.85367 1.2
    endloop
  endfacet
  facet normal 0 0 -1
    outer loop
      vertex -2.68754 1.74741 1.2
      vertex -2.68754 2.62759 1.2
      vertex -2.64952 2.52133 1.2
    endloop
  endfacet
  facet normal 0 0 -1
    outer loop
      vertex -2.73579 1.64539 1.2
      vertex -2.68754 2.62759 1.2
      vertex -2.68754 1.74741 1.2
    endloop
  endfacet
  facet normal 0 0 -1
    outer loop
      vertex -2.73579 1.64539 1.2
      vertex -2.73579 2.72961 1.2
      vertex -2.68754 2.62759 1.2
    endloop
  endfacet
  facet normal 0 0 -1
    outer loop
      vertex -2.79381 1.54859 1.2
      vertex -2.73579 2.72961 1.2
      vertex -2.73579 1.64539 1.2
    endloop
  endfacet
  facet normal 0 0 -1
    outer loop
      vertex -2.79381 1.54859 1.2
      vertex -2.79381 2.82641 1.2
      vertex -2.73579 2.72961 1.2
    endloop
  endfacet
  facet normal 0 0 -1
    outer loop
      vertex -2.86104 1.45795 1.2
      vertex -2.79381 2.82641 1.2
      vertex -2.79381 1.54859 1.2
    endloop
  endfacet
  facet normal 0 0 -1
    outer loop
      vertex -2.86104 1.45795 1.2
      vertex -2.86104 2.91705 1.2
      vertex -2.79381 2.82641 1.2
    endloop
  endfacet
  facet normal 0 0 -1
    outer loop
      vertex -2.93683 1.37433 1.2
      vertex -2.86104 2.91705 1.2
      vertex -2.86104 1.45795 1.2
    endloop
  endfacet
  facet normal 0 0 -1
    outer loop
      vertex -2.93683 1.37433 1.2
      vertex -2.93683 3.00067 1.2
      vertex -2.86104 2.91705 1.2
    endloop
  endfacet
  facet normal 0 0 -1
    outer loop
      vertex -3.02045 1.29854 1.2
      vertex -2.93683 3.00067 1.2
      vertex -2.93683 1.37433 1.2
    endloop
  endfacet
  facet normal 0 0 -1
    outer loop
      vertex -3.02045 1.29854 1.2
      vertex -3.02045 3.07646 1.2
      vertex -2.93683 3.00067 1.2
    endloop
  endfacet
  facet normal 0 0 -1
    outer loop
      vertex -3.11109 1.23131 1.2
      vertex -3.02045 3.07646 1.2
      vertex -3.02045 1.29854 1.2
    endloop
  endfacet
  facet normal 0 0 -1
    outer loop
      vertex -3.11109 1.23131 1.2
      vertex -3.11109 3.14369 1.2
      vertex -3.02045 3.07646 1.2
    endloop
  endfacet
  facet normal 0 0 -1
    outer loop
      vertex -3.20789 1.17329 1.2
      vertex -3.11109 3.14369 1.2
      vertex -3.11109 1.23131 1.2
    endloop
  endfacet
  facet normal 0 0 -1
    outer loop
      vertex -3.20789 1.17329 1.2
      vertex -3.20789 3.20171 1.2
      vertex -3.11109 3.14369 1.2
    endloop
  endfacet
  facet normal 0 0 -1
    outer loop
      vertex -3.30991 1.12504 1.2
      vertex -3.20789 3.20171 1.2
      vertex -3.20789 1.17329 1.2
    endloop
  endfacet
  facet normal 0 0 -1
    outer loop
      vertex -3.30991 1.12504 1.2
      vertex -3.30991 3.24996 1.2
      vertex -3.20789 3.20171 1.2
    endloop
  endfacet
  facet normal 0 0 -1
    outer loop
      vertex -3.41617 1.08702 1.2
      vertex -3.30991 3.24996 1.2
      vertex -3.30991 1.12504 1.2
    endloop
  endfacet
  facet normal 0 0 -1
    outer loop
      vertex -3.41617 1.08702 1.2
      vertex -3.41617 3.28798 1.2
      vertex -3.30991 3.24996 1.2
    endloop
  endfacet
  facet normal 0 0 -1
    outer loop
      vertex -3.52565 1.0596 1.2
      vertex -3.41617 3.28798 1.2
      vertex -3.41617 1.08702 1.2
    endloop
  endfacet
  facet normal 0 0 -1
    outer loop
      vertex -3.52565 1.0596 1.2
      vertex -3.52565 3.3154 1.2
      vertex -3.41617 3.28798 1.2
    endloop
  endfacet
  facet normal 0 0 -1
    outer loop
      vertex -3.63728 1.04304 1.2
      vertex -3.52565 3.3154 1.2
      vertex -3.52565 1.0596 1.2
    endloop
  endfacet
  facet normal 0 0 -1
    outer loop
      vertex -3.63728 1.04304 1.2
      vertex -3.63728 3.33196 1.2
      vertex -3.52565 3.3154 1.2
    endloop
  endfacet
  facet normal 0 0 -1
    outer loop
      vertex -3.75 1.0375 1.2
      vertex -3.63728 3.33196 1.2
      vertex -3.63728 1.04304 1.2
    endloop
  endfacet
  facet normal 0 0 -1
    outer loop
      vertex -3.75 1.0375 1.2
      vertex -3.75 3.3375 1.2
      vertex -3.63728 3.33196 1.2
    endloop
  endfacet
  facet normal 0 0 -1
    outer loop
      vertex -3.86272 1.04304 1.2
      vertex -3.75 3.3375 1.2
      vertex -3.75 1.0375 1.2
    endloop
  endfacet
  facet normal 0 0 -1
    outer loop
      vertex -3.86272 1.04304 1.2
      vertex -3.86272 3.33196 1.2
      vertex -3.75 3.3375 1.2
    endloop
  endfacet
  facet normal 0 0 -1
    outer loop
      vertex -3.97435 1.0596 1.2
      vertex -3.86272 3.33196 1.2
      vertex -3.86272 1.04304 1.2
    endloop
  endfacet
  facet normal 0 0 -1
    outer loop
      vertex -3.97435 1.0596 1.2
      vertex -3.97435 3.3154 1.2
      vertex -3.86272 3.33196 1.2
    endloop
  endfacet
  facet normal 0 0 -1
    outer loop
      vertex -4.08383 1.08702 1.2
      vertex -3.97435 3.3154 1.2
      vertex -3.97435 1.0596 1.2
    endloop
  endfacet
  facet normal 0 0 -1
    outer loop
      vertex -4.08383 1.08702 1.2
      vertex -4.08383 3.28798 1.2
      vertex -3.97435 3.3154 1.2
    endloop
  endfacet
  facet normal 0 0 -1
    outer loop
      vertex -4.19009 1.12504 1.2
      vertex -4.08383 3.28798 1.2
      vertex -4.08383 1.08702 1.2
    endloop
  endfacet
  facet normal 0 0 -1
    outer loop
      vertex -4.19009 1.12504 1.2
      vertex -4.19009 3.24996 1.2
      vertex -4.08383 3.28798 1.2
    endloop
  endfacet
  facet normal 0 0 -1
    outer loop
      vertex -4.29211 1.17329 1.2
      vertex -4.19009 3.24996 1.2
      vertex -4.19009 1.12504 1.2
    endloop
  endfacet
  facet normal 0 0 -1
    outer loop
      vertex -4.29211 1.17329 1.2
      vertex -4.29211 3.20171 1.2
      vertex -4.19009 3.24996 1.2
    endloop
  endfacet
  facet normal 0 0 -1
    outer loop
      vertex -4.38891 1.23131 1.2
      vertex -4.29211 3.20171 1.2
      vertex -4.29211 1.17329 1.2
    endloop
  endfacet
  facet normal 0 0 -1
    outer loop
      vertex -4.38891 1.23131 1.2
      vertex -4.38891 3.14369 1.2
      vertex -4.29211 3.20171 1.2
    endloop
  endfacet
  facet normal 0 0 -1
    outer loop
      vertex -4.47955 1.29854 1.2
      vertex -4.38891 3.14369 1.2
      vertex -4.38891 1.23131 1.2
    endloop
  endfacet
  facet normal 0 0 -1
    outer loop
      vertex -4.47955 1.29854 1.2
      vertex -4.47955 3.07646 1.2
      vertex -4.38891 3.14369 1.2
    endloop
  endfacet
  facet normal 0 0 -1
    outer loop
      vertex -4.56317 1.37433 1.2
      vertex -4.47955 3.07646 1.2
      vertex -4.47955 1.29854 1.2
    endloop
  endfacet
  facet normal 0 0 -1
    outer loop
      vertex -4.56317 1.37433 1.2
      vertex -4.56317 3.00067 1.2
      vertex -4.47955 3.07646 1.2
    endloop
  endfacet
  facet normal 0 0 -1
    outer loop
      vertex -4.63896 1.45795 1.2
      vertex -4.56317 3.00067 1.2
      vertex -4.56317 1.37433 1.2
    endloop
  endfacet
  facet normal 0 0 -1
    outer loop
      vertex -4.63896 1.45795 1.2
      vertex -4.63896 2.91705 1.2
      vertex -4.56317 3.00067 1.2
    endloop
  endfacet
  facet normal 0 0 -1
    outer loop
      vertex -4.70619 1.54859 1.2
      vertex -4.63896 2.91705 1.2
      vertex -4.63896 1.45795 1.2
    endloop
  endfacet
  facet normal 0 0 -1
    outer loop
      vertex -4.70619 1.54859 1.2
      vertex -4.70619 2.82641 1.2
      vertex -4.63896 2.91705 1.2
    endloop
  endfacet
  facet normal 0 0 -1
    outer loop
      vertex -4.76421 1.64539 1.2
      vertex -4.70619 2.82641 1.2
      vertex -4.70619 1.54859 1.2
    endloop
  endfacet
  facet normal 0 0 -1
    outer loop
      vertex -4.76421 1.64539 1.2
      vertex -4.76421 2.72961 1.2
      vertex -4.70619 2.82641 1.2
    endloop
  endfacet
  facet normal 0 0 -1
    outer loop
      vertex -4.81246 1.74741 1.2
      vertex -4.76421 2.72961 1.2
      vertex -4.76421 1.64539 1.2
    endloop
  endfacet
  facet normal 0 0 -1
    outer loop
      vertex -4.81246 1.74741 1.2
      vertex -4.81246 2.62759 1.2
      vertex -4.76421 2.72961 1.2
    endloop
  endfacet
  facet normal 0 0 -1
    outer loop
      vertex -4.85048 1.85367 1.2
      vertex -4.81246 2.62759 1.2
      vertex -4.81246 1.74741 1.2
    endloop
  endfacet
  facet normal 0 0 -1
    outer loop
      vertex -4.85048 1.85367 1.2
      vertex -4.85048 2.52133 1.2
      vertex -4.81246 2.62759 1.2
    endloop
  endfacet
  facet normal 0 0 -1
    outer loop
      vertex -4.8779 1.96315 1.2
      vertex -4.85048 2.52133 1.2
      vertex -4.85048 1.85367 1.2
    endloop
  endfacet
  facet normal 0 0 -1
    outer loop
      vertex -4.8779 1.96315 1.2
      vertex -4.8779 2.41185 1.2
      vertex -4.85048 2.52133 1.2
    endloop
  endfacet
  facet normal 0 0 -1
    outer loop
      vertex -4.89446 2.07478 1.2
      vertex -4.8779 2.41185 1.2
      vertex -4.8779 1.96315 1.2
    endloop
  endfacet
  facet normal 0 0 -1
    outer loop
      vertex -4.89446 2.07478 1.2
      vertex -4.89446 2.30022 1.2
      vertex -4.8779 2.41185 1.2
    endloop
  endfacet
  facet normal 0 -0 -1
    outer loop
      vertex -4.89446 2.30022 1.2
      vertex -4.89446 2.07478 1.2
      vertex -4.9 2.1875 1.2
    endloop
  endfacet
  facet normal -0.514105 -0.857727 0
    outer loop
      vertex -3.20789 3.20171 0
      vertex -3.11109 3.14369 1.2
      vertex -3.20789 3.20171 1.2
    endloop
  endfacet
  facet normal -0.514105 -0.857727 -0
    outer loop
      vertex -3.11109 3.14369 1.2
      vertex -3.20789 3.20171 0
      vertex -3.11109 3.14369 0
    endloop
  endfacet
  facet normal -0.803179 0.595738 0
    outer loop
      vertex -2.86104 1.45795 0
      vertex -2.79381 1.54859 1.2
      vertex -2.79381 1.54859 0
    endloop
  endfacet
  facet normal -0.803179 0.595738 0
    outer loop
      vertex -2.79381 1.54859 1.2
      vertex -2.86104 1.45795 0
      vertex -2.86104 1.45795 1.2
    endloop
  endfacet
  facet normal -0.671565 -0.740946 0
    outer loop
      vertex -3.02045 3.07646 0
      vertex -2.93683 3.00067 1.2
      vertex -3.02045 3.07646 1.2
    endloop
  endfacet
  facet normal -0.671565 -0.740946 -0
    outer loop
      vertex -2.93683 3.00067 1.2
      vertex -3.02045 3.07646 0
      vertex -2.93683 3.00067 0
    endloop
  endfacet
  facet normal -0.336886 -0.941545 0
    outer loop
      vertex -3.41617 3.28798 0
      vertex -3.30991 3.24996 1.2
      vertex -3.41617 3.28798 1.2
    endloop
  endfacet
  facet normal -0.336886 -0.941545 -0
    outer loop
      vertex -3.30991 3.24996 1.2
      vertex -3.41617 3.28798 0
      vertex -3.30991 3.24996 0
    endloop
  endfacet
  facet normal -0.242953 0.970038 0
    outer loop
      vertex -3.41617 1.08702 0
      vertex -3.52565 1.0596 1.2
      vertex -3.41617 1.08702 1.2
    endloop
  endfacet
  facet normal -0.242953 0.970038 0
    outer loop
      vertex -3.52565 1.0596 1.2
      vertex -3.41617 1.08702 0
      vertex -3.52565 1.0596 0
    endloop
  endfacet
  facet normal 0.803179 -0.595738 0
    outer loop
      vertex -4.70619 2.82641 1.2
      vertex -4.63896 2.91705 0
      vertex -4.63896 2.91705 1.2
    endloop
  endfacet
  facet normal 0.803179 -0.595738 0
    outer loop
      vertex -4.63896 2.91705 0
      vertex -4.70619 2.82641 1.2
      vertex -4.70619 2.82641 0
    endloop
  endfacet
  facet normal -0.857727 -0.514105 0
    outer loop
      vertex -2.73579 2.72961 0
      vertex -2.79381 2.82641 1.2
      vertex -2.79381 2.82641 0
    endloop
  endfacet
  facet normal -0.857727 -0.514105 0
    outer loop
      vertex -2.79381 2.82641 1.2
      vertex -2.73579 2.72961 0
      vertex -2.73579 2.72961 1.2
    endloop
  endfacet
  facet normal 0.146741 0.989175 -0
    outer loop
      vertex -3.86272 1.04304 0
      vertex -3.97435 1.0596 1.2
      vertex -3.86272 1.04304 1.2
    endloop
  endfacet
  facet normal 0.146741 0.989175 0
    outer loop
      vertex -3.97435 1.0596 1.2
      vertex -3.86272 1.04304 0
      vertex -3.97435 1.0596 0
    endloop
  endfacet
  facet normal 0.514105 -0.857727 0
    outer loop
      vertex -4.38891 3.14369 0
      vertex -4.29211 3.20171 1.2
      vertex -4.38891 3.14369 1.2
    endloop
  endfacet
  facet normal 0.514105 -0.857727 0
    outer loop
      vertex -4.29211 3.20171 1.2
      vertex -4.38891 3.14369 0
      vertex -4.29211 3.20171 0
    endloop
  endfacet
  facet normal 0.242953 -0.970038 0
    outer loop
      vertex -4.08383 3.28798 0
      vertex -3.97435 3.3154 1.2
      vertex -4.08383 3.28798 1.2
    endloop
  endfacet
  facet normal 0.242953 -0.970038 0
    outer loop
      vertex -3.97435 3.3154 1.2
      vertex -4.08383 3.28798 0
      vertex -3.97435 3.3154 0
    endloop
  endfacet
  facet normal -0.0490891 -0.998794 0
    outer loop
      vertex -3.75 3.3375 0
      vertex -3.63728 3.33196 1.2
      vertex -3.75 3.3375 1.2
    endloop
  endfacet
  facet normal -0.0490891 -0.998794 -0
    outer loop
      vertex -3.63728 3.33196 1.2
      vertex -3.75 3.3375 0
      vertex -3.63728 3.33196 0
    endloop
  endfacet
  facet normal 0.903996 0.427542 0
    outer loop
      vertex -4.76421 1.64539 1.2
      vertex -4.81246 1.74741 0
      vertex -4.81246 1.74741 1.2
    endloop
  endfacet
  facet normal 0.903996 0.427542 0
    outer loop
      vertex -4.81246 1.74741 0
      vertex -4.76421 1.64539 1.2
      vertex -4.76421 1.64539 0
    endloop
  endfacet
  facet normal 0.146741 -0.989175 0
    outer loop
      vertex -3.97435 3.3154 0
      vertex -3.86272 3.33196 1.2
      vertex -3.97435 3.3154 1.2
    endloop
  endfacet
  facet normal 0.146741 -0.989175 0
    outer loop
      vertex -3.86272 3.33196 1.2
      vertex -3.97435 3.3154 0
      vertex -3.86272 3.33196 0
    endloop
  endfacet
  facet normal -0.514105 0.857727 0
    outer loop
      vertex -3.11109 1.23131 0
      vertex -3.20789 1.17329 1.2
      vertex -3.11109 1.23131 1.2
    endloop
  endfacet
  facet normal -0.514105 0.857727 0
    outer loop
      vertex -3.20789 1.17329 1.2
      vertex -3.11109 1.23131 0
      vertex -3.20789 1.17329 0
    endloop
  endfacet
  facet normal 0.336886 -0.941545 0
    outer loop
      vertex -4.19009 3.24996 0
      vertex -4.08383 3.28798 1.2
      vertex -4.19009 3.24996 1.2
    endloop
  endfacet
  facet normal 0.336886 -0.941545 0
    outer loop
      vertex -4.08383 3.28798 1.2
      vertex -4.19009 3.24996 0
      vertex -4.08383 3.28798 0
    endloop
  endfacet
  facet normal 0.857727 -0.514105 0
    outer loop
      vertex -4.76421 2.72961 1.2
      vertex -4.70619 2.82641 0
      vertex -4.70619 2.82641 1.2
    endloop
  endfacet
  facet normal 0.857727 -0.514105 0
    outer loop
      vertex -4.70619 2.82641 0
      vertex -4.76421 2.72961 1.2
      vertex -4.76421 2.72961 0
    endloop
  endfacet
  facet normal 0.970038 0.242953 0
    outer loop
      vertex -4.85048 1.85367 1.2
      vertex -4.8779 1.96315 0
      vertex -4.8779 1.96315 1.2
    endloop
  endfacet
  facet normal 0.970038 0.242953 0
    outer loop
      vertex -4.8779 1.96315 0
      vertex -4.85048 1.85367 1.2
      vertex -4.85048 1.85367 0
    endloop
  endfacet
  facet normal 0.427542 0.903996 -0
    outer loop
      vertex -4.19009 1.12504 0
      vertex -4.29211 1.17329 1.2
      vertex -4.19009 1.12504 1.2
    endloop
  endfacet
  facet normal 0.427542 0.903996 0
    outer loop
      vertex -4.29211 1.17329 1.2
      vertex -4.19009 1.12504 0
      vertex -4.29211 1.17329 0
    endloop
  endfacet
  facet normal -0.740946 -0.671565 0
    outer loop
      vertex -2.86104 2.91705 0
      vertex -2.93683 3.00067 1.2
      vertex -2.93683 3.00067 0
    endloop
  endfacet
  facet normal -0.740946 -0.671565 0
    outer loop
      vertex -2.93683 3.00067 1.2
      vertex -2.86104 2.91705 0
      vertex -2.86104 2.91705 1.2
    endloop
  endfacet
  facet normal 0.740946 0.671565 0
    outer loop
      vertex -4.56317 1.37433 1.2
      vertex -4.63896 1.45795 0
      vertex -4.63896 1.45795 1.2
    endloop
  endfacet
  facet normal 0.740946 0.671565 0
    outer loop
      vertex -4.63896 1.45795 0
      vertex -4.56317 1.37433 1.2
      vertex -4.56317 1.37433 0
    endloop
  endfacet
  facet normal 0.514105 0.857727 -0
    outer loop
      vertex -4.29211 1.17329 0
      vertex -4.38891 1.23131 1.2
      vertex -4.29211 1.17329 1.2
    endloop
  endfacet
  facet normal 0.514105 0.857727 0
    outer loop
      vertex -4.38891 1.23131 1.2
      vertex -4.29211 1.17329 0
      vertex -4.38891 1.23131 0
    endloop
  endfacet
  facet normal 0.989175 0.146741 0
    outer loop
      vertex -4.8779 1.96315 1.2
      vertex -4.89446 2.07478 0
      vertex -4.89446 2.07478 1.2
    endloop
  endfacet
  facet normal 0.989175 0.146741 0
    outer loop
      vertex -4.89446 2.07478 0
      vertex -4.8779 1.96315 1.2
      vertex -4.8779 1.96315 0
    endloop
  endfacet
  facet normal 0.595738 0.803179 -0
    outer loop
      vertex -4.38891 1.23131 0
      vertex -4.47955 1.29854 1.2
      vertex -4.38891 1.23131 1.2
    endloop
  endfacet
  facet normal 0.595738 0.803179 0
    outer loop
      vertex -4.47955 1.29854 1.2
      vertex -4.38891 1.23131 0
      vertex -4.47955 1.29854 0
    endloop
  endfacet
  facet normal -0.941545 0.336886 0
    outer loop
      vertex -2.68754 1.74741 0
      vertex -2.64952 1.85367 1.2
      vertex -2.64952 1.85367 0
    endloop
  endfacet
  facet normal -0.941545 0.336886 0
    outer loop
      vertex -2.64952 1.85367 1.2
      vertex -2.68754 1.74741 0
      vertex -2.68754 1.74741 1.2
    endloop
  endfacet
  facet normal 0.803179 0.595738 0
    outer loop
      vertex -4.63896 1.45795 1.2
      vertex -4.70619 1.54859 0
      vertex -4.70619 1.54859 1.2
    endloop
  endfacet
  facet normal 0.803179 0.595738 0
    outer loop
      vertex -4.70619 1.54859 0
      vertex -4.63896 1.45795 1.2
      vertex -4.63896 1.45795 0
    endloop
  endfacet
  facet normal -0.903996 0.427542 0
    outer loop
      vertex -2.73579 1.64539 0
      vertex -2.68754 1.74741 1.2
      vertex -2.68754 1.74741 0
    endloop
  endfacet
  facet normal -0.903996 0.427542 0
    outer loop
      vertex -2.68754 1.74741 1.2
      vertex -2.73579 1.64539 0
      vertex -2.73579 1.64539 1.2
    endloop
  endfacet
  facet normal -0.671565 0.740946 0
    outer loop
      vertex -2.93683 1.37433 0
      vertex -3.02045 1.29854 1.2
      vertex -2.93683 1.37433 1.2
    endloop
  endfacet
  facet normal -0.671565 0.740946 0
    outer loop
      vertex -3.02045 1.29854 1.2
      vertex -2.93683 1.37433 0
      vertex -3.02045 1.29854 0
    endloop
  endfacet
  facet normal 0.998794 -0.0490891 0
    outer loop
      vertex -4.9 2.1875 1.2
      vertex -4.89446 2.30022 0
      vertex -4.89446 2.30022 1.2
    endloop
  endfacet
  facet normal 0.998794 -0.0490891 0
    outer loop
      vertex -4.89446 2.30022 0
      vertex -4.9 2.1875 1.2
      vertex -4.9 2.1875 0
    endloop
  endfacet
  facet normal 0.998794 0.0490891 0
    outer loop
      vertex -4.89446 2.07478 1.2
      vertex -4.9 2.1875 0
      vertex -4.9 2.1875 1.2
    endloop
  endfacet
  facet normal 0.998794 0.0490891 0
    outer loop
      vertex -4.9 2.1875 0
      vertex -4.89446 2.07478 1.2
      vertex -4.89446 2.07478 0
    endloop
  endfacet
  facet normal 0.242953 0.970038 -0
    outer loop
      vertex -3.97435 1.0596 0
      vertex -4.08383 1.08702 1.2
      vertex -3.97435 1.0596 1.2
    endloop
  endfacet
  facet normal 0.242953 0.970038 0
    outer loop
      vertex -4.08383 1.08702 1.2
      vertex -3.97435 1.0596 0
      vertex -4.08383 1.08702 0
    endloop
  endfacet
endsolid OpenSCAD_Model
