solid OpenSCAD_Model
  facet normal 0 0 -1
    outer loop
      vertex 12.125 -2.1875 0
      vertex 15.625 2.1875 0
      vertex 15.625 -2.1875 0
    endloop
  endfacet
  facet normal 0 0 -1
    outer loop
      vertex -12.5 -2.1875 0
      vertex 12.0064 -4.60117 0
      vertex 11.6518 -6.99159 0
    endloop
  endfacet
  facet normal 0 0 -1
    outer loop
      vertex -12.5 -2.1875 0
      vertex 11.6518 -6.99159 0
      vertex 11.0647 -9.33575 0
    endloop
  endfacet
  facet normal 0 0 -1
    outer loop
      vertex -12.5 -2.1875 0
      vertex 11.0647 -9.33575 0
      vertex 10.2505 -11.6111 0
    endloop
  endfacet
  facet normal 0 0 -1
    outer loop
      vertex -12.5 -2.1875 0
      vertex 10.2505 -11.6111 0
      vertex 9.2173 -13.7956 0
    endloop
  endfacet
  facet normal 0 0 -1
    outer loop
      vertex -12.5 -2.1875 0
      vertex 9.2173 -13.7956 0
      vertex 7.97493 -15.8684 0
    endloop
  endfacet
  facet normal 0 0 -1
    outer loop
      vertex -12.5 -2.1875 0
      vertex 7.97493 -15.8684 0
      vertex 6.53537 -17.8094 0
    endloop
  endfacet
  facet normal 0 0 -1
    outer loop
      vertex -12.5 -2.1875 0
      vertex 6.53537 -17.8094 0
      vertex 4.91249 -19.6 0
    endloop
  endfacet
  facet normal 0 0 -1
    outer loop
      vertex -12.5 -2.1875 0
      vertex 4.91249 -19.6 0
      vertex 3.12193 -21.2229 0
    endloop
  endfacet
  facet normal 0 0 -1
    outer loop
      vertex -12.5 -2.1875 0
      vertex 3.12193 -21.2229 0
      vertex 1.18091 -22.6624 0
    endloop
  endfacet
  facet normal 0 0 -1
    outer loop
      vertex -12.5 -2.1875 0
      vertex 1.18091 -22.6624 0
      vertex -0.891861 -23.9048 0
    endloop
  endfacet
  facet normal 0 0 -1
    outer loop
      vertex -12.5 -2.1875 0
      vertex -0.891861 -23.9048 0
      vertex -3.07643 -24.938 0
    endloop
  endfacet
  facet normal 0 0 -1
    outer loop
      vertex -12.5 -2.1875 0
      vertex -3.07643 -24.938 0
      vertex -5.35175 -25.7522 0
    endloop
  endfacet
  facet normal 0 0 -1
    outer loop
      vertex -12.5 -2.1875 0
      vertex -5.35175 -25.7522 0
      vertex -7.69591 -26.3393 0
    endloop
  endfacet
  facet normal 0 0 -1
    outer loop
      vertex 12.0064 -4.60117 0
      vertex -12.5 -2.1875 0
      vertex 12.125 -2.1875 0
    endloop
  endfacet
  facet normal 0 0 -1
    outer loop
      vertex -12.5 -2.1875 0
      vertex -7.69591 -26.3393 0
      vertex -10.0863 -26.6939 0
    endloop
  endfacet
  facet normal 0 0 -1
    outer loop
      vertex -12.5 -2.1875 0
      vertex -10.0863 -26.6939 0
      vertex -12.5 -26.8125 0
    endloop
  endfacet
  facet normal 0 0 -1
    outer loop
      vertex -15.625 2.1875 0
      vertex 12.125 -2.1875 0
      vertex -12.5 -2.1875 0
    endloop
  endfacet
  facet normal 0 0 -1
    outer loop
      vertex -15.625 2.1875 0
      vertex -12.5 -2.1875 0
      vertex -15.625 -2.1875 0
    endloop
  endfacet
  facet normal 0 0 -1
    outer loop
      vertex 12.125 -2.1875 0
      vertex -15.625 2.1875 0
      vertex 15.625 2.1875 0
    endloop
  endfacet
  facet normal 1 0 0
    outer loop
      vertex -12.5 2.1875 7
      vertex -12.5 -1.1875 1.5
      vertex -12.5 2.1875 1.5
    endloop
  endfacet
  facet normal 1 -0 0
    outer loop
      vertex -12.5 -2.1875 7
      vertex -12.5 -1.1875 1.5
      vertex -12.5 2.1875 7
    endloop
  endfacet
  facet normal 1 0 0
    outer loop
      vertex -12.5 -1.1875 1.5
      vertex -12.5 -2.1875 7
      vertex -12.5 -2.1875 1.5
    endloop
  endfacet
  facet normal 0 -1 0
    outer loop
      vertex 12.125 -2.1875 1.5
      vertex 12.125 -2.1875 0
      vertex 12.5 -2.1875 1.5
    endloop
  endfacet
  facet normal 0 -1 0
    outer loop
      vertex 12.5 -2.1875 1.5
      vertex 15.625 -2.1875 7
      vertex 12.5 -2.1875 7
    endloop
  endfacet
  facet normal 0 -1 0
    outer loop
      vertex 15.625 -2.1875 0
      vertex 12.5 -2.1875 1.5
      vertex 12.125 -2.1875 0
    endloop
  endfacet
  facet normal 0 -1 0
    outer loop
      vertex 12.5 -2.1875 1.5
      vertex 15.625 -2.1875 0
      vertex 15.625 -2.1875 7
    endloop
  endfacet
  facet normal 0 -1 0
    outer loop
      vertex -15.625 -2.1875 7
      vertex -12.5 -2.1875 1.5
      vertex -12.5 -2.1875 7
    endloop
  endfacet
  facet normal 0 -1 0
    outer loop
      vertex -15.625 -2.1875 0
      vertex -12.5 -2.1875 1.5
      vertex -15.625 -2.1875 7
    endloop
  endfacet
  facet normal 0 -1 -0
    outer loop
      vertex -12.5 -2.1875 1.5
      vertex -15.625 -2.1875 0
      vertex -12.5 -2.1875 0
    endloop
  endfacet
  facet normal -0 0 1
    outer loop
      vertex -15.625 2.1875 7
      vertex -12.5 -2.1875 7
      vertex -12.5 2.1875 7
    endloop
  endfacet
  facet normal 0 0 1
    outer loop
      vertex -12.5 -2.1875 7
      vertex -15.625 2.1875 7
      vertex -15.625 -2.1875 7
    endloop
  endfacet
  facet normal -1 0 0
    outer loop
      vertex -15.625 -2.1875 0
      vertex -15.625 2.1875 7
      vertex -15.625 2.1875 0
    endloop
  endfacet
  facet normal -1 -0 0
    outer loop
      vertex -15.625 2.1875 7
      vertex -15.625 -2.1875 0
      vertex -15.625 -2.1875 7
    endloop
  endfacet
  facet normal 0 1 0
    outer loop
      vertex 15.625 2.1875 7
      vertex 12.5 2.1875 1.5
      vertex 12.5 2.1875 7
    endloop
  endfacet
  facet normal 0 1 0
    outer loop
      vertex 12.5 2.1875 1.5
      vertex 15.625 2.1875 0
      vertex -12.5 2.1875 1.5
    endloop
  endfacet
  facet normal 0 1 -0
    outer loop
      vertex 15.625 2.1875 0
      vertex 12.5 2.1875 1.5
      vertex 15.625 2.1875 7
    endloop
  endfacet
  facet normal 0 1 -0
    outer loop
      vertex -12.5 2.1875 1.5
      vertex -15.625 2.1875 7
      vertex -12.5 2.1875 7
    endloop
  endfacet
  facet normal 0 1 0
    outer loop
      vertex -12.5 2.1875 1.5
      vertex -15.625 2.1875 0
      vertex -15.625 2.1875 7
    endloop
  endfacet
  facet normal 0 1 0
    outer loop
      vertex -15.625 2.1875 0
      vertex -12.5 2.1875 1.5
      vertex 15.625 2.1875 0
    endloop
  endfacet
  facet normal 1 -0 0
    outer loop
      vertex 15.625 -2.1875 7
      vertex 15.625 2.1875 0
      vertex 15.625 2.1875 7
    endloop
  endfacet
  facet normal 1 0 0
    outer loop
      vertex 15.625 2.1875 0
      vertex 15.625 -2.1875 7
      vertex 15.625 -2.1875 0
    endloop
  endfacet
  facet normal -0 0 1
    outer loop
      vertex 12.5 2.1875 7
      vertex 15.625 -2.1875 7
      vertex 15.625 2.1875 7
    endloop
  endfacet
  facet normal 0 0 1
    outer loop
      vertex 15.625 -2.1875 7
      vertex 12.5 2.1875 7
      vertex 12.5 -2.1875 7
    endloop
  endfacet
  facet normal -1 0 0
    outer loop
      vertex 12.5 -1.1875 1.5
      vertex 12.5 2.1875 7
      vertex 12.5 2.1875 1.5
    endloop
  endfacet
  facet normal -1 0 0
    outer loop
      vertex 12.5 -2.1875 7
      vertex 12.5 -1.1875 1.5
      vertex 12.5 -2.1875 1.5
    endloop
  endfacet
  facet normal -1 0 0
    outer loop
      vertex 12.5 -1.1875 1.5
      vertex 12.5 -2.1875 7
      vertex 12.5 2.1875 7
    endloop
  endfacet
  facet normal -0 0 1
    outer loop
      vertex 12.499 -1.2071 1.5
      vertex 12.5 -2.1875 1.5
      vertex 12.5 -1.1875 1.5
    endloop
  endfacet
  facet normal -0 0 1
    outer loop
      vertex 12.4962 -1.22652 1.5
      vertex 12.5 -2.1875 1.5
      vertex 12.499 -1.2071 1.5
    endloop
  endfacet
  facet normal -0 0 1
    outer loop
      vertex 12.4914 -1.24556 1.5
      vertex 12.5 -2.1875 1.5
      vertex 12.4962 -1.22652 1.5
    endloop
  endfacet
  facet normal -0 0 1
    outer loop
      vertex 12.4848 -1.26404 1.5
      vertex 12.5 -2.1875 1.5
      vertex 12.4914 -1.24556 1.5
    endloop
  endfacet
  facet normal -0 0 1
    outer loop
      vertex 12.4764 -1.28178 1.5
      vertex 12.5 -2.1875 1.5
      vertex 12.4848 -1.26404 1.5
    endloop
  endfacet
  facet normal -0 0 1
    outer loop
      vertex 12.4663 -1.29861 1.5
      vertex 12.5 -2.1875 1.5
      vertex 12.4764 -1.28178 1.5
    endloop
  endfacet
  facet normal -0 0 1
    outer loop
      vertex 12.4546 -1.31438 1.5
      vertex 12.5 -2.1875 1.5
      vertex 12.4663 -1.29861 1.5
    endloop
  endfacet
  facet normal -0 0 1
    outer loop
      vertex 12.4414 -1.32892 1.5
      vertex 12.5 -2.1875 1.5
      vertex 12.4546 -1.31438 1.5
    endloop
  endfacet
  facet normal -0 0 1
    outer loop
      vertex 12.4269 -1.3421 1.5
      vertex 12.5 -2.1875 1.5
      vertex 12.4414 -1.32892 1.5
    endloop
  endfacet
  facet normal -0 0 1
    outer loop
      vertex 12.4111 -1.35379 1.5
      vertex 12.5 -2.1875 1.5
      vertex 12.4269 -1.3421 1.5
    endloop
  endfacet
  facet normal -0 0 1
    outer loop
      vertex 12.3943 -1.36388 1.5
      vertex 12.5 -2.1875 1.5
      vertex 12.4111 -1.35379 1.5
    endloop
  endfacet
  facet normal -0 0 1
    outer loop
      vertex 12.3765 -1.37228 1.5
      vertex 12.5 -2.1875 1.5
      vertex 12.3943 -1.36388 1.5
    endloop
  endfacet
  facet normal -0 0 1
    outer loop
      vertex 12.3581 -1.37889 1.5
      vertex 12.5 -2.1875 1.5
      vertex 12.3765 -1.37228 1.5
    endloop
  endfacet
  facet normal -0 0 1
    outer loop
      vertex 12.339 -1.38366 1.5
      vertex 12.5 -2.1875 1.5
      vertex 12.3581 -1.37889 1.5
    endloop
  endfacet
  facet normal -0 0 1
    outer loop
      vertex 12.3196 -1.38654 1.5
      vertex 12.5 -2.1875 1.5
      vertex 12.339 -1.38366 1.5
    endloop
  endfacet
  facet normal -0 0 1
    outer loop
      vertex 12.3 -1.3875 1.5
      vertex 12.5 -2.1875 1.5
      vertex 12.3196 -1.38654 1.5
    endloop
  endfacet
  facet normal 0 0 1
    outer loop
      vertex 12.3 -1.3875 1.5
      vertex 12.125 -2.1875 1.5
      vertex 12.5 -2.1875 1.5
    endloop
  endfacet
  facet normal 0 0 1
    outer loop
      vertex -12.3 -1.3875 1.5
      vertex 12.0064 -4.60117 1.5
      vertex 12.125 -2.1875 1.5
    endloop
  endfacet
  facet normal 0 0 1
    outer loop
      vertex 12.0064 -4.60117 1.5
      vertex -12.3 -1.3875 1.5
      vertex 11.6518 -6.99159 1.5
    endloop
  endfacet
  facet normal -0 0 1
    outer loop
      vertex -12.5 -2.1875 1.5
      vertex 11.6518 -6.99159 1.5
      vertex -12.3 -1.3875 1.5
    endloop
  endfacet
  facet normal 0 0 1
    outer loop
      vertex 11.6518 -6.99159 1.5
      vertex -12.5 -2.1875 1.5
      vertex 11.0647 -9.33575 1.5
    endloop
  endfacet
  facet normal -0 0 1
    outer loop
      vertex -12.3 -1.3875 1.5
      vertex 12.125 -2.1875 1.5
      vertex 12.3 -1.3875 1.5
    endloop
  endfacet
  facet normal 0 0 1
    outer loop
      vertex 10.2505 -11.6111 1.5
      vertex -12.5 -2.1875 1.5
      vertex 9.2173 -13.7956 1.5
    endloop
  endfacet
  facet normal 0 0 1
    outer loop
      vertex 9.2173 -13.7956 1.5
      vertex -12.5 -2.1875 1.5
      vertex 7.97493 -15.8684 1.5
    endloop
  endfacet
  facet normal 0 0 1
    outer loop
      vertex 7.97493 -15.8684 1.5
      vertex -12.5 -2.1875 1.5
      vertex 6.53537 -17.8094 1.5
    endloop
  endfacet
  facet normal 0 0 1
    outer loop
      vertex 6.53537 -17.8094 1.5
      vertex -12.5 -2.1875 1.5
      vertex 4.91249 -19.6 1.5
    endloop
  endfacet
  facet normal 0 0 1
    outer loop
      vertex 4.91249 -19.6 1.5
      vertex -12.5 -2.1875 1.5
      vertex 3.12193 -21.2229 1.5
    endloop
  endfacet
  facet normal 0 0 1
    outer loop
      vertex 3.12193 -21.2229 1.5
      vertex -12.5 -2.1875 1.5
      vertex 1.18091 -22.6624 1.5
    endloop
  endfacet
  facet normal 0 0 1
    outer loop
      vertex 1.18091 -22.6624 1.5
      vertex -12.5 -2.1875 1.5
      vertex -0.891861 -23.9048 1.5
    endloop
  endfacet
  facet normal 0 0 1
    outer loop
      vertex -0.891861 -23.9048 1.5
      vertex -12.5 -2.1875 1.5
      vertex -3.07643 -24.938 1.5
    endloop
  endfacet
  facet normal 0 0 1
    outer loop
      vertex -3.07643 -24.938 1.5
      vertex -12.5 -2.1875 1.5
      vertex -5.35175 -25.7522 1.5
    endloop
  endfacet
  facet normal 0 0 1
    outer loop
      vertex -5.35175 -25.7522 1.5
      vertex -12.5 -2.1875 1.5
      vertex -7.69591 -26.3393 1.5
    endloop
  endfacet
  facet normal 0 0 1
    outer loop
      vertex 11.0647 -9.33575 1.5
      vertex -12.5 -2.1875 1.5
      vertex 10.2505 -11.6111 1.5
    endloop
  endfacet
  facet normal 0 0 1
    outer loop
      vertex -12.5 -2.1875 1.5
      vertex -12.3 -1.3875 1.5
      vertex -12.3196 -1.38654 1.5
    endloop
  endfacet
  facet normal 0 0 1
    outer loop
      vertex -12.5 -2.1875 1.5
      vertex -12.3196 -1.38654 1.5
      vertex -12.339 -1.38366 1.5
    endloop
  endfacet
  facet normal 0 0 1
    outer loop
      vertex -12.5 -2.1875 1.5
      vertex -12.339 -1.38366 1.5
      vertex -12.3581 -1.37889 1.5
    endloop
  endfacet
  facet normal 0 0 1
    outer loop
      vertex -12.5 -2.1875 1.5
      vertex -12.3581 -1.37889 1.5
      vertex -12.3765 -1.37228 1.5
    endloop
  endfacet
  facet normal 0 0 1
    outer loop
      vertex -12.5 -2.1875 1.5
      vertex -12.3765 -1.37228 1.5
      vertex -12.3943 -1.36388 1.5
    endloop
  endfacet
  facet normal 0 0 1
    outer loop
      vertex -12.5 -2.1875 1.5
      vertex -12.3943 -1.36388 1.5
      vertex -12.4111 -1.35379 1.5
    endloop
  endfacet
  facet normal 0 0 1
    outer loop
      vertex -12.5 -2.1875 1.5
      vertex -12.4111 -1.35379 1.5
      vertex -12.4269 -1.3421 1.5
    endloop
  endfacet
  facet normal 0 0 1
    outer loop
      vertex -12.5 -2.1875 1.5
      vertex -12.4269 -1.3421 1.5
      vertex -12.4414 -1.32892 1.5
    endloop
  endfacet
  facet normal 0 0 1
    outer loop
      vertex -12.5 -2.1875 1.5
      vertex -12.4414 -1.32892 1.5
      vertex -12.4546 -1.31438 1.5
    endloop
  endfacet
  facet normal 0 0 1
    outer loop
      vertex -12.5 -2.1875 1.5
      vertex -12.4546 -1.31438 1.5
      vertex -12.4663 -1.29861 1.5
    endloop
  endfacet
  facet normal 0 0 1
    outer loop
      vertex -12.5 -2.1875 1.5
      vertex -12.4663 -1.29861 1.5
      vertex -12.4764 -1.28178 1.5
    endloop
  endfacet
  facet normal 0 0 1
    outer loop
      vertex -12.5 -2.1875 1.5
      vertex -12.4764 -1.28178 1.5
      vertex -12.4848 -1.26404 1.5
    endloop
  endfacet
  facet normal 0 0 1
    outer loop
      vertex -12.5 -2.1875 1.5
      vertex -12.4848 -1.26404 1.5
      vertex -12.4914 -1.24556 1.5
    endloop
  endfacet
  facet normal 0 0 1
    outer loop
      vertex -12.5 -2.1875 1.5
      vertex -12.4914 -1.24556 1.5
      vertex -12.4962 -1.22652 1.5
    endloop
  endfacet
  facet normal 0 0 1
    outer loop
      vertex -12.5 -2.1875 1.5
      vertex -12.4962 -1.22652 1.5
      vertex -12.499 -1.2071 1.5
    endloop
  endfacet
  facet normal 0 0 1
    outer loop
      vertex -12.5 -2.1875 1.5
      vertex -12.499 -1.2071 1.5
      vertex -12.5 -1.1875 1.5
    endloop
  endfacet
  facet normal 0 0 1
    outer loop
      vertex -7.69591 -26.3393 1.5
      vertex -12.5 -2.1875 1.5
      vertex -10.0863 -26.6939 1.5
    endloop
  endfacet
  facet normal 0 0 1
    outer loop
      vertex -10.0863 -26.6939 1.5
      vertex -12.5 -2.1875 1.5
      vertex -12.5 -26.8125 1.5
    endloop
  endfacet
  facet normal 0 0 1
    outer loop
      vertex 12.5 2.1875 1.5
      vertex 12.499 -1.1679 1.5
      vertex 12.5 -1.1875 1.5
    endloop
  endfacet
  facet normal 0 0 1
    outer loop
      vertex 12.5 2.1875 1.5
      vertex 12.4962 -1.14848 1.5
      vertex 12.499 -1.1679 1.5
    endloop
  endfacet
  facet normal 0 0 1
    outer loop
      vertex 12.5 2.1875 1.5
      vertex 12.4914 -1.12944 1.5
      vertex 12.4962 -1.14848 1.5
    endloop
  endfacet
  facet normal 0 0 1
    outer loop
      vertex 12.5 2.1875 1.5
      vertex 12.4848 -1.11096 1.5
      vertex 12.4914 -1.12944 1.5
    endloop
  endfacet
  facet normal 0 0 1
    outer loop
      vertex 12.5 2.1875 1.5
      vertex 12.4764 -1.09322 1.5
      vertex 12.4848 -1.11096 1.5
    endloop
  endfacet
  facet normal 0 0 1
    outer loop
      vertex 12.5 2.1875 1.5
      vertex 12.4663 -1.07639 1.5
      vertex 12.4764 -1.09322 1.5
    endloop
  endfacet
  facet normal 0 0 1
    outer loop
      vertex 12.5 2.1875 1.5
      vertex 12.4546 -1.06062 1.5
      vertex 12.4663 -1.07639 1.5
    endloop
  endfacet
  facet normal 0 0 1
    outer loop
      vertex 12.5 2.1875 1.5
      vertex 12.4414 -1.04608 1.5
      vertex 12.4546 -1.06062 1.5
    endloop
  endfacet
  facet normal 0 0 1
    outer loop
      vertex 12.5 2.1875 1.5
      vertex 12.4269 -1.0329 1.5
      vertex 12.4414 -1.04608 1.5
    endloop
  endfacet
  facet normal 0 0 1
    outer loop
      vertex 12.5 2.1875 1.5
      vertex 12.4111 -1.02121 1.5
      vertex 12.4269 -1.0329 1.5
    endloop
  endfacet
  facet normal 0 0 1
    outer loop
      vertex 12.5 2.1875 1.5
      vertex 12.3943 -1.01112 1.5
      vertex 12.4111 -1.02121 1.5
    endloop
  endfacet
  facet normal 0 0 1
    outer loop
      vertex 12.5 2.1875 1.5
      vertex 12.3765 -1.00272 1.5
      vertex 12.3943 -1.01112 1.5
    endloop
  endfacet
  facet normal 0 0 1
    outer loop
      vertex 12.5 2.1875 1.5
      vertex 12.3581 -0.996112 1.5
      vertex 12.3765 -1.00272 1.5
    endloop
  endfacet
  facet normal 0 0 1
    outer loop
      vertex 12.5 2.1875 1.5
      vertex 12.339 -0.991343 1.5
      vertex 12.3581 -0.996112 1.5
    endloop
  endfacet
  facet normal 0 0 1
    outer loop
      vertex 12.5 2.1875 1.5
      vertex 12.3196 -0.988462 1.5
      vertex 12.339 -0.991343 1.5
    endloop
  endfacet
  facet normal 0 0 1
    outer loop
      vertex 12.5 2.1875 1.5
      vertex 12.3 -0.987499 1.5
      vertex 12.3196 -0.988462 1.5
    endloop
  endfacet
  facet normal 0 0 1
    outer loop
      vertex 12.5 2.1875 1.5
      vertex -12.3 -0.987499 1.5
      vertex 12.3 -0.987499 1.5
    endloop
  endfacet
  facet normal -0 0 1
    outer loop
      vertex -12.5 2.1875 1.5
      vertex -12.3 -0.987499 1.5
      vertex 12.5 2.1875 1.5
    endloop
  endfacet
  facet normal 0 0 1
    outer loop
      vertex -12.3 -0.987499 1.5
      vertex -12.5 2.1875 1.5
      vertex -12.3196 -0.988462 1.5
    endloop
  endfacet
  facet normal 0 0 1
    outer loop
      vertex -12.5 2.1875 1.5
      vertex -12.339 -0.991343 1.5
      vertex -12.3196 -0.988462 1.5
    endloop
  endfacet
  facet normal 0 0 1
    outer loop
      vertex -12.5 2.1875 1.5
      vertex -12.3581 -0.996112 1.5
      vertex -12.339 -0.991343 1.5
    endloop
  endfacet
  facet normal 0 0 1
    outer loop
      vertex -12.5 2.1875 1.5
      vertex -12.3765 -1.00272 1.5
      vertex -12.3581 -0.996112 1.5
    endloop
  endfacet
  facet normal 0 0 1
    outer loop
      vertex -12.5 2.1875 1.5
      vertex -12.3943 -1.01112 1.5
      vertex -12.3765 -1.00272 1.5
    endloop
  endfacet
  facet normal 0 0 1
    outer loop
      vertex -12.5 2.1875 1.5
      vertex -12.4111 -1.02121 1.5
      vertex -12.3943 -1.01112 1.5
    endloop
  endfacet
  facet normal 0 0 1
    outer loop
      vertex -12.5 2.1875 1.5
      vertex -12.4269 -1.0329 1.5
      vertex -12.4111 -1.02121 1.5
    endloop
  endfacet
  facet normal 0 0 1
    outer loop
      vertex -12.5 2.1875 1.5
      vertex -12.4414 -1.04608 1.5
      vertex -12.4269 -1.0329 1.5
    endloop
  endfacet
  facet normal 0 0 1
    outer loop
      vertex -12.5 2.1875 1.5
      vertex -12.4546 -1.06062 1.5
      vertex -12.4414 -1.04608 1.5
    endloop
  endfacet
  facet normal 0 0 1
    outer loop
      vertex -12.5 2.1875 1.5
      vertex -12.4663 -1.07639 1.5
      vertex -12.4546 -1.06062 1.5
    endloop
  endfacet
  facet normal 0 0 1
    outer loop
      vertex -12.5 2.1875 1.5
      vertex -12.4764 -1.09322 1.5
      vertex -12.4663 -1.07639 1.5
    endloop
  endfacet
  facet normal 0 0 1
    outer loop
      vertex -12.5 2.1875 1.5
      vertex -12.4848 -1.11096 1.5
      vertex -12.4764 -1.09322 1.5
    endloop
  endfacet
  facet normal 0 0 1
    outer loop
      vertex -12.5 2.1875 1.5
      vertex -12.4914 -1.12944 1.5
      vertex -12.4848 -1.11096 1.5
    endloop
  endfacet
  facet normal 0 0 1
    outer loop
      vertex -12.5 2.1875 1.5
      vertex -12.4962 -1.14848 1.5
      vertex -12.4914 -1.12944 1.5
    endloop
  endfacet
  facet normal 0 0 1
    outer loop
      vertex -12.5 2.1875 1.5
      vertex -12.499 -1.1679 1.5
      vertex -12.4962 -1.14848 1.5
    endloop
  endfacet
  facet normal 0 0 1
    outer loop
      vertex -12.499 -1.1679 1.5
      vertex -12.5 2.1875 1.5
      vertex -12.5 -1.1875 1.5
    endloop
  endfacet
  facet normal -1 0 0
    outer loop
      vertex -12.5 -26.8125 0
      vertex -12.5 -2.1875 1.5
      vertex -12.5 -2.1875 0
    endloop
  endfacet
  facet normal -1 -0 0
    outer loop
      vertex -12.5 -2.1875 1.5
      vertex -12.5 -26.8125 0
      vertex -12.5 -26.8125 1.5
    endloop
  endfacet
  facet normal 0.671566 -0.740945 0
    outer loop
      vertex 3.12193 -21.2229 0
      vertex 4.91249 -19.6 1.5
      vertex 3.12193 -21.2229 1.5
    endloop
  endfacet
  facet normal 0.671566 -0.740945 0
    outer loop
      vertex 4.91249 -19.6 1.5
      vertex 3.12193 -21.2229 0
      vertex 4.91249 -19.6 0
    endloop
  endfacet
  facet normal 0.146738 -0.989175 0
    outer loop
      vertex -10.0863 -26.6939 0
      vertex -7.69591 -26.3393 1.5
      vertex -10.0863 -26.6939 1.5
    endloop
  endfacet
  facet normal 0.146738 -0.989175 0
    outer loop
      vertex -7.69591 -26.3393 1.5
      vertex -10.0863 -26.6939 0
      vertex -7.69591 -26.3393 0
    endloop
  endfacet
  facet normal 0.049077 -0.998795 0
    outer loop
      vertex -12.5 -26.8125 0
      vertex -10.0863 -26.6939 1.5
      vertex -12.5 -26.8125 1.5
    endloop
  endfacet
  facet normal 0.049077 -0.998795 0
    outer loop
      vertex -10.0863 -26.6939 1.5
      vertex -12.5 -26.8125 0
      vertex -10.0863 -26.6939 0
    endloop
  endfacet
  facet normal 0.242948 -0.970039 0
    outer loop
      vertex -7.69591 -26.3393 0
      vertex -5.35175 -25.7522 1.5
      vertex -7.69591 -26.3393 1.5
    endloop
  endfacet
  facet normal 0.242948 -0.970039 0
    outer loop
      vertex -5.35175 -25.7522 1.5
      vertex -7.69591 -26.3393 0
      vertex -5.35175 -25.7522 0
    endloop
  endfacet
  facet normal 0.514112 -0.857723 0
    outer loop
      vertex -0.891861 -23.9048 0
      vertex 1.18091 -22.6624 1.5
      vertex -0.891861 -23.9048 1.5
    endloop
  endfacet
  facet normal 0.514112 -0.857723 0
    outer loop
      vertex 1.18091 -22.6624 1.5
      vertex -0.891861 -23.9048 0
      vertex 1.18091 -22.6624 0
    endloop
  endfacet
  facet normal 0.803204 -0.595704 0
    outer loop
      vertex 6.53537 -17.8094 1.5
      vertex 7.97493 -15.8684 0
      vertex 7.97493 -15.8684 1.5
    endloop
  endfacet
  facet normal 0.803204 -0.595704 0
    outer loop
      vertex 7.97493 -15.8684 0
      vertex 6.53537 -17.8094 1.5
      vertex 6.53537 -17.8094 0
    endloop
  endfacet
  facet normal 0.857732 -0.514097 0
    outer loop
      vertex 7.97493 -15.8684 1.5
      vertex 9.2173 -13.7956 0
      vertex 9.2173 -13.7956 1.5
    endloop
  endfacet
  facet normal 0.857732 -0.514097 0
    outer loop
      vertex 9.2173 -13.7956 0
      vertex 7.97493 -15.8684 1.5
      vertex 7.97493 -15.8684 0
    endloop
  endfacet
  facet normal 0.740956 -0.671553 0
    outer loop
      vertex 4.91249 -19.6 1.5
      vertex 6.53537 -17.8094 0
      vertex 6.53537 -17.8094 1.5
    endloop
  endfacet
  facet normal 0.740956 -0.671553 0
    outer loop
      vertex 6.53537 -17.8094 0
      vertex 4.91249 -19.6 1.5
      vertex 4.91249 -19.6 0
    endloop
  endfacet
  facet normal 0.998795 -0.0490776 0
    outer loop
      vertex 12.0064 -4.60117 1.5
      vertex 12.125 -2.1875 0
      vertex 12.125 -2.1875 1.5
    endloop
  endfacet
  facet normal 0.998795 -0.0490776 0
    outer loop
      vertex 12.125 -2.1875 0
      vertex 12.0064 -4.60117 1.5
      vertex 12.0064 -4.60117 0
    endloop
  endfacet
  facet normal 0.970039 -0.242948 0
    outer loop
      vertex 11.0647 -9.33575 1.5
      vertex 11.6518 -6.99159 0
      vertex 11.6518 -6.99159 1.5
    endloop
  endfacet
  facet normal 0.970039 -0.242948 0
    outer loop
      vertex 11.6518 -6.99159 0
      vertex 11.0647 -9.33575 1.5
      vertex 11.0647 -9.33575 0
    endloop
  endfacet
  facet normal 0.427547 -0.903993 0
    outer loop
      vertex -3.07643 -24.938 0
      vertex -0.891861 -23.9048 1.5
      vertex -3.07643 -24.938 1.5
    endloop
  endfacet
  facet normal 0.427547 -0.903993 0
    outer loop
      vertex -0.891861 -23.9048 1.5
      vertex -3.07643 -24.938 0
      vertex -0.891861 -23.9048 0
    endloop
  endfacet
  facet normal 0.336918 -0.941534 0
    outer loop
      vertex -5.35175 -25.7522 0
      vertex -3.07643 -24.938 1.5
      vertex -5.35175 -25.7522 1.5
    endloop
  endfacet
  facet normal 0.336918 -0.941534 0
    outer loop
      vertex -3.07643 -24.938 1.5
      vertex -5.35175 -25.7522 0
      vertex -3.07643 -24.938 0
    endloop
  endfacet
  facet normal 0.903988 -0.427558 0
    outer loop
      vertex 9.2173 -13.7956 1.5
      vertex 10.2505 -11.6111 0
      vertex 10.2505 -11.6111 1.5
    endloop
  endfacet
  facet normal 0.903988 -0.427558 0
    outer loop
      vertex 10.2505 -11.6111 0
      vertex 9.2173 -13.7956 1.5
      vertex 9.2173 -13.7956 0
    endloop
  endfacet
  facet normal 0.989176 -0.146736 0
    outer loop
      vertex 11.6518 -6.99159 1.5
      vertex 12.0064 -4.60117 0
      vertex 12.0064 -4.60117 1.5
    endloop
  endfacet
  facet normal 0.989176 -0.146736 0
    outer loop
      vertex 12.0064 -4.60117 0
      vertex 11.6518 -6.99159 1.5
      vertex 11.6518 -6.99159 0
    endloop
  endfacet
  facet normal 0.595684 -0.803219 0
    outer loop
      vertex 1.18091 -22.6624 0
      vertex 3.12193 -21.2229 1.5
      vertex 1.18091 -22.6624 1.5
    endloop
  endfacet
  facet normal 0.595684 -0.803219 0
    outer loop
      vertex 3.12193 -21.2229 1.5
      vertex 1.18091 -22.6624 0
      vertex 3.12193 -21.2229 0
    endloop
  endfacet
  facet normal 0.941535 -0.336914 0
    outer loop
      vertex 10.2505 -11.6111 1.5
      vertex 11.0647 -9.33575 0
      vertex 11.0647 -9.33575 1.5
    endloop
  endfacet
  facet normal 0.941535 -0.336914 0
    outer loop
      vertex 11.0647 -9.33575 0
      vertex 10.2505 -11.6111 1.5
      vertex 10.2505 -11.6111 0
    endloop
  endfacet
  facet normal 0.989765 0.142706 0
    outer loop
      vertex -12.4962 -1.22652 1.5
      vertex -12.499 -1.2071 1.1
      vertex -12.499 -1.2071 1.5
    endloop
  endfacet
  facet normal 0.989765 0.142706 0
    outer loop
      vertex -12.499 -1.2071 1.1
      vertex -12.4962 -1.22652 1.5
      vertex -12.4962 -1.22652 1.1
    endloop
  endfacet
  facet normal 0.146844 0.98916 -0
    outer loop
      vertex -12.3196 -1.38654 1.1
      vertex -12.339 -1.38366 1.5
      vertex -12.3196 -1.38654 1.5
    endloop
  endfacet
  facet normal 0.146844 0.98916 0
    outer loop
      vertex -12.339 -1.38366 1.5
      vertex -12.3196 -1.38654 1.1
      vertex -12.339 -1.38366 1.1
    endloop
  endfacet
  facet normal -0.998701 0.0509541 0
    outer loop
      vertex 12.499 -1.2071 1.1
      vertex 12.5 -1.1875 1.5
      vertex 12.5 -1.1875 1.1
    endloop
  endfacet
  facet normal -0.998701 0.0509541 0
    outer loop
      vertex 12.5 -1.1875 1.5
      vertex 12.499 -1.2071 1.1
      vertex 12.499 -1.2071 1.5
    endloop
  endfacet
  facet normal 0.998701 0.0509541 0
    outer loop
      vertex -12.499 -1.2071 1.5
      vertex -12.5 -1.1875 1.1
      vertex -12.5 -1.1875 1.5
    endloop
  endfacet
  facet normal 0.998701 0.0509541 0
    outer loop
      vertex -12.5 -1.1875 1.1
      vertex -12.499 -1.2071 1.5
      vertex -12.499 -1.2071 1.1
    endloop
  endfacet
  facet normal 0 -1 0
    outer loop
      vertex -12.3 -0.987499 1.1
      vertex 12.3 -0.987499 1.5
      vertex -12.3 -0.987499 1.5
    endloop
  endfacet
  facet normal 0 -1 -0
    outer loop
      vertex 12.3 -0.987499 1.5
      vertex -12.3 -0.987499 1.1
      vertex 12.3 -0.987499 1.1
    endloop
  endfacet
  facet normal 0.242249 -0.970214 0
    outer loop
      vertex -12.3581 -0.996112 1.1
      vertex -12.339 -0.991343 1.5
      vertex -12.3581 -0.996112 1.5
    endloop
  endfacet
  facet normal 0.242249 -0.970214 0
    outer loop
      vertex -12.339 -0.991343 1.5
      vertex -12.3581 -0.996112 1.1
      vertex -12.339 -0.991343 1.1
    endloop
  endfacet
  facet normal -0.989765 0.142706 0
    outer loop
      vertex 12.4962 -1.22652 1.1
      vertex 12.499 -1.2071 1.5
      vertex 12.499 -1.2071 1.1
    endloop
  endfacet
  facet normal -0.989765 0.142706 0
    outer loop
      vertex 12.499 -1.2071 1.5
      vertex 12.4962 -1.22652 1.1
      vertex 12.4962 -1.22652 1.5
    endloop
  endfacet
  facet normal 0.672622 -0.739986 0
    outer loop
      vertex -12.4414 -1.04608 1.1
      vertex -12.4269 -1.0329 1.5
      vertex -12.4414 -1.04608 1.5
    endloop
  endfacet
  facet normal 0.672622 -0.739986 0
    outer loop
      vertex -12.4269 -1.0329 1.5
      vertex -12.4414 -1.04608 1.1
      vertex -12.4269 -1.0329 1.1
    endloop
  endfacet
  facet normal -0.337995 -0.941148 0
    outer loop
      vertex 12.3581 -0.996112 1.1
      vertex 12.3765 -1.00272 1.5
      vertex 12.3581 -0.996112 1.5
    endloop
  endfacet
  facet normal -0.337995 -0.941148 -0
    outer loop
      vertex 12.3765 -1.00272 1.5
      vertex 12.3581 -0.996112 1.1
      vertex 12.3765 -1.00272 1.1
    endloop
  endfacet
  facet normal -0.0489209 0.998803 0
    outer loop
      vertex 12.3196 -1.38654 1.1
      vertex 12.3 -1.3875 1.5
      vertex 12.3196 -1.38654 1.5
    endloop
  endfacet
  facet normal -0.0489209 0.998803 0
    outer loop
      vertex 12.3 -1.3875 1.5
      vertex 12.3196 -1.38654 1.1
      vertex 12.3 -1.3875 1.1
    endloop
  endfacet
  facet normal 0.514871 0.857268 -0
    outer loop
      vertex -12.3943 -1.36388 1.1
      vertex -12.4111 -1.35379 1.5
      vertex -12.3943 -1.36388 1.5
    endloop
  endfacet
  facet normal 0.514871 0.857268 0
    outer loop
      vertex -12.4111 -1.35379 1.5
      vertex -12.3943 -1.36388 1.1
      vertex -12.4111 -1.35379 1.1
    endloop
  endfacet
  facet normal -0.9038 -0.427955 0
    outer loop
      vertex 12.4848 -1.11096 1.1
      vertex 12.4764 -1.09322 1.5
      vertex 12.4764 -1.09322 1.1
    endloop
  endfacet
  facet normal -0.9038 -0.427955 0
    outer loop
      vertex 12.4764 -1.09322 1.5
      vertex 12.4848 -1.11096 1.1
      vertex 12.4848 -1.11096 1.5
    endloop
  endfacet
  facet normal 0.514871 -0.857268 0
    outer loop
      vertex -12.4111 -1.02121 1.1
      vertex -12.3943 -1.01112 1.5
      vertex -12.4111 -1.02121 1.5
    endloop
  endfacet
  facet normal 0.514871 -0.857268 0
    outer loop
      vertex -12.3943 -1.01112 1.5
      vertex -12.4111 -1.02121 1.1
      vertex -12.3943 -1.01112 1.1
    endloop
  endfacet
  facet normal -0.969661 -0.244452 0
    outer loop
      vertex 12.4962 -1.14848 1.1
      vertex 12.4914 -1.12944 1.5
      vertex 12.4914 -1.12944 1.1
    endloop
  endfacet
  facet normal -0.969661 -0.244452 0
    outer loop
      vertex 12.4914 -1.12944 1.5
      vertex 12.4962 -1.14848 1.1
      vertex 12.4962 -1.14848 1.5
    endloop
  endfacet
  facet normal 0 1 -0
    outer loop
      vertex 12.3 -1.3875 1.1
      vertex -12.3 -1.3875 1.5
      vertex 12.3 -1.3875 1.5
    endloop
  endfacet
  facet normal 0 1 0
    outer loop
      vertex -12.3 -1.3875 1.5
      vertex 12.3 -1.3875 1.1
      vertex -12.3 -1.3875 1.1
    endloop
  endfacet
  facet normal 0.803106 -0.595836 0
    outer loop
      vertex -12.4663 -1.07639 1.5
      vertex -12.4546 -1.06062 1.1
      vertex -12.4546 -1.06062 1.5
    endloop
  endfacet
  facet normal 0.803106 -0.595836 0
    outer loop
      vertex -12.4546 -1.06062 1.1
      vertex -12.4663 -1.07639 1.5
      vertex -12.4663 -1.07639 1.1
    endloop
  endfacet
  facet normal -0.857448 0.514571 0
    outer loop
      vertex 12.4663 -1.29861 1.1
      vertex 12.4764 -1.28178 1.5
      vertex 12.4764 -1.28178 1.1
    endloop
  endfacet
  facet normal -0.857448 0.514571 0
    outer loop
      vertex 12.4764 -1.28178 1.5
      vertex 12.4663 -1.29861 1.1
      vertex 12.4663 -1.29861 1.5
    endloop
  endfacet
  facet normal -0.803106 0.595836 0
    outer loop
      vertex 12.4546 -1.31438 1.1
      vertex 12.4663 -1.29861 1.5
      vertex 12.4663 -1.29861 1.1
    endloop
  endfacet
  facet normal -0.803106 0.595836 0
    outer loop
      vertex 12.4663 -1.29861 1.5
      vertex 12.4546 -1.31438 1.1
      vertex 12.4546 -1.31438 1.5
    endloop
  endfacet
  facet normal 0.969661 0.244452 0
    outer loop
      vertex -12.4914 -1.24556 1.5
      vertex -12.4962 -1.22652 1.1
      vertex -12.4962 -1.22652 1.5
    endloop
  endfacet
  facet normal 0.969661 0.244452 0
    outer loop
      vertex -12.4962 -1.22652 1.1
      vertex -12.4914 -1.24556 1.5
      vertex -12.4914 -1.24556 1.1
    endloop
  endfacet
  facet normal 0.426775 -0.904358 0
    outer loop
      vertex -12.3943 -1.01112 1.1
      vertex -12.3765 -1.00272 1.5
      vertex -12.3943 -1.01112 1.5
    endloop
  endfacet
  facet normal 0.426775 -0.904358 0
    outer loop
      vertex -12.3765 -1.00272 1.5
      vertex -12.3943 -1.01112 1.1
      vertex -12.3765 -1.00272 1.1
    endloop
  endfacet
  facet normal -0.338085 0.941115 0
    outer loop
      vertex 12.3765 -1.37228 1.1
      vertex 12.3581 -1.37889 1.5
      vertex 12.3765 -1.37228 1.5
    endloop
  endfacet
  facet normal -0.338085 0.941115 0
    outer loop
      vertex 12.3581 -1.37889 1.5
      vertex 12.3765 -1.37228 1.1
      vertex 12.3581 -1.37889 1.1
    endloop
  endfacet
  facet normal 0.426775 0.904358 -0
    outer loop
      vertex -12.3765 -1.37228 1.1
      vertex -12.3943 -1.36388 1.5
      vertex -12.3765 -1.37228 1.5
    endloop
  endfacet
  facet normal 0.426775 0.904358 0
    outer loop
      vertex -12.3943 -1.36388 1.5
      vertex -12.3765 -1.37228 1.1
      vertex -12.3943 -1.36388 1.1
    endloop
  endfacet
  facet normal 0.740401 -0.672166 0
    outer loop
      vertex -12.4546 -1.06062 1.5
      vertex -12.4414 -1.04608 1.1
      vertex -12.4414 -1.04608 1.5
    endloop
  endfacet
  facet normal 0.740401 -0.672166 0
    outer loop
      vertex -12.4414 -1.04608 1.1
      vertex -12.4546 -1.06062 1.5
      vertex -12.4546 -1.06062 1.1
    endloop
  endfacet
  facet normal 0.969661 -0.244452 0
    outer loop
      vertex -12.4962 -1.14848 1.5
      vertex -12.4914 -1.12944 1.1
      vertex -12.4914 -1.12944 1.5
    endloop
  endfacet
  facet normal 0.969661 -0.244452 0
    outer loop
      vertex -12.4914 -1.12944 1.1
      vertex -12.4962 -1.14848 1.5
      vertex -12.4962 -1.14848 1.1
    endloop
  endfacet
  facet normal 0.941742 -0.336336 0
    outer loop
      vertex -12.4914 -1.12944 1.5
      vertex -12.4848 -1.11096 1.1
      vertex -12.4848 -1.11096 1.5
    endloop
  endfacet
  facet normal 0.941742 -0.336336 0
    outer loop
      vertex -12.4848 -1.11096 1.1
      vertex -12.4914 -1.12944 1.5
      vertex -12.4914 -1.12944 1.1
    endloop
  endfacet
  facet normal 0.857448 -0.514571 0
    outer loop
      vertex -12.4764 -1.09322 1.5
      vertex -12.4663 -1.07639 1.1
      vertex -12.4663 -1.07639 1.5
    endloop
  endfacet
  facet normal 0.857448 -0.514571 0
    outer loop
      vertex -12.4663 -1.07639 1.1
      vertex -12.4764 -1.09322 1.5
      vertex -12.4764 -1.09322 1.1
    endloop
  endfacet
  facet normal -0.242249 -0.970214 0
    outer loop
      vertex 12.339 -0.991343 1.1
      vertex 12.3581 -0.996112 1.5
      vertex 12.339 -0.991343 1.5
    endloop
  endfacet
  facet normal -0.242249 -0.970214 -0
    outer loop
      vertex 12.3581 -0.996112 1.5
      vertex 12.339 -0.991343 1.1
      vertex 12.3581 -0.996112 1.1
    endloop
  endfacet
  facet normal 0.0490735 -0.998795 0
    outer loop
      vertex -12.3196 -0.988462 1.1
      vertex -12.3 -0.987499 1.5
      vertex -12.3196 -0.988462 1.5
    endloop
  endfacet
  facet normal 0.0490735 -0.998795 0
    outer loop
      vertex -12.3 -0.987499 1.5
      vertex -12.3196 -0.988462 1.1
      vertex -12.3 -0.987499 1.1
    endloop
  endfacet
  facet normal -0.426775 -0.904358 0
    outer loop
      vertex 12.3765 -1.00272 1.1
      vertex 12.3943 -1.01112 1.5
      vertex 12.3765 -1.00272 1.5
    endloop
  endfacet
  facet normal -0.426775 -0.904358 -0
    outer loop
      vertex 12.3943 -1.01112 1.5
      vertex 12.3765 -1.00272 1.1
      vertex 12.3943 -1.01112 1.1
    endloop
  endfacet
  facet normal -0.998701 -0.0509541 0
    outer loop
      vertex 12.5 -1.1875 1.1
      vertex 12.499 -1.1679 1.5
      vertex 12.499 -1.1679 1.1
    endloop
  endfacet
  facet normal -0.998701 -0.0509541 0
    outer loop
      vertex 12.499 -1.1679 1.5
      vertex 12.5 -1.1875 1.1
      vertex 12.5 -1.1875 1.5
    endloop
  endfacet
  facet normal 0.146894 -0.989152 0
    outer loop
      vertex -12.339 -0.991343 1.1
      vertex -12.3196 -0.988462 1.5
      vertex -12.339 -0.991343 1.5
    endloop
  endfacet
  facet normal 0.146894 -0.989152 0
    outer loop
      vertex -12.3196 -0.988462 1.5
      vertex -12.339 -0.991343 1.1
      vertex -12.3196 -0.988462 1.1
    endloop
  endfacet
  facet normal -0.857448 -0.514571 0
    outer loop
      vertex 12.4764 -1.09322 1.1
      vertex 12.4663 -1.07639 1.5
      vertex 12.4663 -1.07639 1.1
    endloop
  endfacet
  facet normal -0.857448 -0.514571 0
    outer loop
      vertex 12.4663 -1.07639 1.5
      vertex 12.4764 -1.09322 1.1
      vertex 12.4764 -1.09322 1.5
    endloop
  endfacet
  facet normal -0.594777 -0.803891 0
    outer loop
      vertex 12.4111 -1.02121 1.1
      vertex 12.4269 -1.0329 1.5
      vertex 12.4111 -1.02121 1.5
    endloop
  endfacet
  facet normal -0.594777 -0.803891 -0
    outer loop
      vertex 12.4269 -1.0329 1.5
      vertex 12.4111 -1.02121 1.1
      vertex 12.4269 -1.0329 1.1
    endloop
  endfacet
  facet normal 0.594777 -0.803891 0
    outer loop
      vertex -12.4269 -1.0329 1.1
      vertex -12.4111 -1.02121 1.5
      vertex -12.4269 -1.0329 1.5
    endloop
  endfacet
  facet normal 0.594777 -0.803891 0
    outer loop
      vertex -12.4111 -1.02121 1.5
      vertex -12.4269 -1.0329 1.1
      vertex -12.4111 -1.02121 1.1
    endloop
  endfacet
  facet normal 0.242297 0.970202 -0
    outer loop
      vertex -12.339 -1.38366 1.1
      vertex -12.3581 -1.37889 1.5
      vertex -12.339 -1.38366 1.5
    endloop
  endfacet
  facet normal 0.242297 0.970202 0
    outer loop
      vertex -12.3581 -1.37889 1.5
      vertex -12.339 -1.38366 1.1
      vertex -12.3581 -1.37889 1.1
    endloop
  endfacet
  facet normal 0.803106 0.595836 0
    outer loop
      vertex -12.4546 -1.31438 1.5
      vertex -12.4663 -1.29861 1.1
      vertex -12.4663 -1.29861 1.5
    endloop
  endfacet
  facet normal 0.803106 0.595836 0
    outer loop
      vertex -12.4663 -1.29861 1.1
      vertex -12.4546 -1.31438 1.5
      vertex -12.4546 -1.31438 1.1
    endloop
  endfacet
  facet normal -0.989765 -0.142706 0
    outer loop
      vertex 12.499 -1.1679 1.1
      vertex 12.4962 -1.14848 1.5
      vertex 12.4962 -1.14848 1.1
    endloop
  endfacet
  facet normal -0.989765 -0.142706 0
    outer loop
      vertex 12.4962 -1.14848 1.5
      vertex 12.499 -1.1679 1.1
      vertex 12.499 -1.1679 1.5
    endloop
  endfacet
  facet normal 0.989765 -0.142706 0
    outer loop
      vertex -12.499 -1.1679 1.5
      vertex -12.4962 -1.14848 1.1
      vertex -12.4962 -1.14848 1.5
    endloop
  endfacet
  facet normal 0.989765 -0.142706 0
    outer loop
      vertex -12.4962 -1.14848 1.1
      vertex -12.499 -1.1679 1.5
      vertex -12.499 -1.1679 1.1
    endloop
  endfacet
  facet normal 0.998701 -0.0509541 0
    outer loop
      vertex -12.5 -1.1875 1.5
      vertex -12.499 -1.1679 1.1
      vertex -12.499 -1.1679 1.5
    endloop
  endfacet
  facet normal 0.998701 -0.0509541 0
    outer loop
      vertex -12.499 -1.1679 1.1
      vertex -12.5 -1.1875 1.5
      vertex -12.5 -1.1875 1.1
    endloop
  endfacet
  facet normal -0.740401 0.672166 0
    outer loop
      vertex 12.4414 -1.32892 1.1
      vertex 12.4546 -1.31438 1.5
      vertex 12.4546 -1.31438 1.1
    endloop
  endfacet
  facet normal -0.740401 0.672166 0
    outer loop
      vertex 12.4546 -1.31438 1.5
      vertex 12.4414 -1.32892 1.1
      vertex 12.4414 -1.32892 1.5
    endloop
  endfacet
  facet normal -0.146844 0.98916 0
    outer loop
      vertex 12.339 -1.38366 1.1
      vertex 12.3196 -1.38654 1.5
      vertex 12.339 -1.38366 1.5
    endloop
  endfacet
  facet normal -0.146844 0.98916 0
    outer loop
      vertex 12.3196 -1.38654 1.5
      vertex 12.339 -1.38366 1.1
      vertex 12.3196 -1.38654 1.1
    endloop
  endfacet
  facet normal 0.337995 -0.941148 0
    outer loop
      vertex -12.3765 -1.00272 1.1
      vertex -12.3581 -0.996112 1.5
      vertex -12.3765 -1.00272 1.5
    endloop
  endfacet
  facet normal 0.337995 -0.941148 0
    outer loop
      vertex -12.3581 -0.996112 1.5
      vertex -12.3765 -1.00272 1.1
      vertex -12.3581 -0.996112 1.1
    endloop
  endfacet
  facet normal -0.672622 -0.739986 0
    outer loop
      vertex 12.4269 -1.0329 1.1
      vertex 12.4414 -1.04608 1.5
      vertex 12.4269 -1.0329 1.5
    endloop
  endfacet
  facet normal -0.672622 -0.739986 -0
    outer loop
      vertex 12.4414 -1.04608 1.5
      vertex 12.4269 -1.0329 1.1
      vertex 12.4414 -1.04608 1.1
    endloop
  endfacet
  facet normal -0.969661 0.244452 0
    outer loop
      vertex 12.4914 -1.24556 1.1
      vertex 12.4962 -1.22652 1.5
      vertex 12.4962 -1.22652 1.1
    endloop
  endfacet
  facet normal -0.969661 0.244452 0
    outer loop
      vertex 12.4962 -1.22652 1.5
      vertex 12.4914 -1.24556 1.1
      vertex 12.4914 -1.24556 1.5
    endloop
  endfacet
  facet normal -0.514871 -0.857268 0
    outer loop
      vertex 12.3943 -1.01112 1.1
      vertex 12.4111 -1.02121 1.5
      vertex 12.3943 -1.01112 1.5
    endloop
  endfacet
  facet normal -0.514871 -0.857268 -0
    outer loop
      vertex 12.4111 -1.02121 1.5
      vertex 12.3943 -1.01112 1.1
      vertex 12.4111 -1.02121 1.1
    endloop
  endfacet
  facet normal 0.9038 -0.427955 0
    outer loop
      vertex -12.4848 -1.11096 1.5
      vertex -12.4764 -1.09322 1.1
      vertex -12.4764 -1.09322 1.5
    endloop
  endfacet
  facet normal 0.9038 -0.427955 0
    outer loop
      vertex -12.4764 -1.09322 1.1
      vertex -12.4848 -1.11096 1.5
      vertex -12.4848 -1.11096 1.1
    endloop
  endfacet
  facet normal -0.514871 0.857268 0
    outer loop
      vertex 12.4111 -1.35379 1.1
      vertex 12.3943 -1.36388 1.5
      vertex 12.4111 -1.35379 1.5
    endloop
  endfacet
  facet normal -0.514871 0.857268 0
    outer loop
      vertex 12.3943 -1.36388 1.5
      vertex 12.4111 -1.35379 1.1
      vertex 12.3943 -1.36388 1.1
    endloop
  endfacet
  facet normal -0.941742 -0.336336 0
    outer loop
      vertex 12.4914 -1.12944 1.1
      vertex 12.4848 -1.11096 1.5
      vertex 12.4848 -1.11096 1.1
    endloop
  endfacet
  facet normal -0.941742 -0.336336 0
    outer loop
      vertex 12.4848 -1.11096 1.5
      vertex 12.4914 -1.12944 1.1
      vertex 12.4914 -1.12944 1.5
    endloop
  endfacet
  facet normal -0.594777 0.803891 0
    outer loop
      vertex 12.4269 -1.3421 1.1
      vertex 12.4111 -1.35379 1.5
      vertex 12.4269 -1.3421 1.5
    endloop
  endfacet
  facet normal -0.594777 0.803891 0
    outer loop
      vertex 12.4111 -1.35379 1.5
      vertex 12.4269 -1.3421 1.1
      vertex 12.4111 -1.35379 1.1
    endloop
  endfacet
  facet normal 0.740401 0.672166 0
    outer loop
      vertex -12.4414 -1.32892 1.5
      vertex -12.4546 -1.31438 1.1
      vertex -12.4546 -1.31438 1.5
    endloop
  endfacet
  facet normal 0.740401 0.672166 0
    outer loop
      vertex -12.4546 -1.31438 1.1
      vertex -12.4414 -1.32892 1.5
      vertex -12.4414 -1.32892 1.1
    endloop
  endfacet
  facet normal -0.426775 0.904358 0
    outer loop
      vertex 12.3943 -1.36388 1.1
      vertex 12.3765 -1.37228 1.5
      vertex 12.3943 -1.36388 1.5
    endloop
  endfacet
  facet normal -0.426775 0.904358 0
    outer loop
      vertex 12.3765 -1.37228 1.5
      vertex 12.3943 -1.36388 1.1
      vertex 12.3765 -1.37228 1.1
    endloop
  endfacet
  facet normal -0.740401 -0.672166 0
    outer loop
      vertex 12.4546 -1.06062 1.1
      vertex 12.4414 -1.04608 1.5
      vertex 12.4414 -1.04608 1.1
    endloop
  endfacet
  facet normal -0.740401 -0.672166 0
    outer loop
      vertex 12.4414 -1.04608 1.5
      vertex 12.4546 -1.06062 1.1
      vertex 12.4546 -1.06062 1.5
    endloop
  endfacet
  facet normal -0.242297 0.970202 0
    outer loop
      vertex 12.3581 -1.37889 1.1
      vertex 12.339 -1.38366 1.5
      vertex 12.3581 -1.37889 1.5
    endloop
  endfacet
  facet normal -0.242297 0.970202 0
    outer loop
      vertex 12.339 -1.38366 1.5
      vertex 12.3581 -1.37889 1.1
      vertex 12.339 -1.38366 1.1
    endloop
  endfacet
  facet normal -0.803106 -0.595836 0
    outer loop
      vertex 12.4663 -1.07639 1.1
      vertex 12.4546 -1.06062 1.5
      vertex 12.4546 -1.06062 1.1
    endloop
  endfacet
  facet normal -0.803106 -0.595836 0
    outer loop
      vertex 12.4546 -1.06062 1.5
      vertex 12.4663 -1.07639 1.1
      vertex 12.4663 -1.07639 1.5
    endloop
  endfacet
  facet normal -0.146894 -0.989152 0
    outer loop
      vertex 12.3196 -0.988462 1.1
      vertex 12.339 -0.991343 1.5
      vertex 12.3196 -0.988462 1.5
    endloop
  endfacet
  facet normal -0.146894 -0.989152 -0
    outer loop
      vertex 12.339 -0.991343 1.5
      vertex 12.3196 -0.988462 1.1
      vertex 12.339 -0.991343 1.1
    endloop
  endfacet
  facet normal -0.941742 0.336336 0
    outer loop
      vertex 12.4848 -1.26404 1.1
      vertex 12.4914 -1.24556 1.5
      vertex 12.4914 -1.24556 1.1
    endloop
  endfacet
  facet normal -0.941742 0.336336 0
    outer loop
      vertex 12.4914 -1.24556 1.5
      vertex 12.4848 -1.26404 1.1
      vertex 12.4848 -1.26404 1.5
    endloop
  endfacet
  facet normal -0.9038 0.427955 0
    outer loop
      vertex 12.4764 -1.28178 1.1
      vertex 12.4848 -1.26404 1.5
      vertex 12.4848 -1.26404 1.1
    endloop
  endfacet
  facet normal -0.9038 0.427955 0
    outer loop
      vertex 12.4848 -1.26404 1.5
      vertex 12.4764 -1.28178 1.1
      vertex 12.4764 -1.28178 1.5
    endloop
  endfacet
  facet normal -0.0490735 -0.998795 0
    outer loop
      vertex 12.3 -0.987499 1.1
      vertex 12.3196 -0.988462 1.5
      vertex 12.3 -0.987499 1.5
    endloop
  endfacet
  facet normal -0.0490735 -0.998795 -0
    outer loop
      vertex 12.3196 -0.988462 1.5
      vertex 12.3 -0.987499 1.1
      vertex 12.3196 -0.988462 1.1
    endloop
  endfacet
  facet normal 0.9038 0.427955 0
    outer loop
      vertex -12.4764 -1.28178 1.5
      vertex -12.4848 -1.26404 1.1
      vertex -12.4848 -1.26404 1.5
    endloop
  endfacet
  facet normal 0.9038 0.427955 0
    outer loop
      vertex -12.4848 -1.26404 1.1
      vertex -12.4764 -1.28178 1.5
      vertex -12.4764 -1.28178 1.1
    endloop
  endfacet
  facet normal 0.0489209 0.998803 -0
    outer loop
      vertex -12.3 -1.3875 1.1
      vertex -12.3196 -1.38654 1.5
      vertex -12.3 -1.3875 1.5
    endloop
  endfacet
  facet normal 0.0489209 0.998803 0
    outer loop
      vertex -12.3196 -1.38654 1.5
      vertex -12.3 -1.3875 1.1
      vertex -12.3196 -1.38654 1.1
    endloop
  endfacet
  facet normal 0.338085 0.941115 -0
    outer loop
      vertex -12.3581 -1.37889 1.1
      vertex -12.3765 -1.37228 1.5
      vertex -12.3581 -1.37889 1.5
    endloop
  endfacet
  facet normal 0.338085 0.941115 0
    outer loop
      vertex -12.3765 -1.37228 1.5
      vertex -12.3581 -1.37889 1.1
      vertex -12.3765 -1.37228 1.1
    endloop
  endfacet
  facet normal -0.672622 0.739986 0
    outer loop
      vertex 12.4414 -1.32892 1.1
      vertex 12.4269 -1.3421 1.5
      vertex 12.4414 -1.32892 1.5
    endloop
  endfacet
  facet normal -0.672622 0.739986 0
    outer loop
      vertex 12.4269 -1.3421 1.5
      vertex 12.4414 -1.32892 1.1
      vertex 12.4269 -1.3421 1.1
    endloop
  endfacet
  facet normal 0.857448 0.514571 0
    outer loop
      vertex -12.4663 -1.29861 1.5
      vertex -12.4764 -1.28178 1.1
      vertex -12.4764 -1.28178 1.5
    endloop
  endfacet
  facet normal 0.857448 0.514571 0
    outer loop
      vertex -12.4764 -1.28178 1.1
      vertex -12.4663 -1.29861 1.5
      vertex -12.4663 -1.29861 1.1
    endloop
  endfacet
  facet normal 0.594777 0.803891 -0
    outer loop
      vertex -12.4111 -1.35379 1.1
      vertex -12.4269 -1.3421 1.5
      vertex -12.4111 -1.35379 1.5
    endloop
  endfacet
  facet normal 0.594777 0.803891 0
    outer loop
      vertex -12.4269 -1.3421 1.5
      vertex -12.4111 -1.35379 1.1
      vertex -12.4269 -1.3421 1.1
    endloop
  endfacet
  facet normal 0.672622 0.739986 -0
    outer loop
      vertex -12.4269 -1.3421 1.1
      vertex -12.4414 -1.32892 1.5
      vertex -12.4269 -1.3421 1.5
    endloop
  endfacet
  facet normal 0.672622 0.739986 0
    outer loop
      vertex -12.4414 -1.32892 1.5
      vertex -12.4269 -1.3421 1.1
      vertex -12.4414 -1.32892 1.1
    endloop
  endfacet
  facet normal 0 0 1
    outer loop
      vertex 12.499 -1.1679 1.1
      vertex 12.499 -1.2071 1.1
      vertex 12.5 -1.1875 1.1
    endloop
  endfacet
  facet normal 0 0 1
    outer loop
      vertex 12.4962 -1.14848 1.1
      vertex 12.499 -1.2071 1.1
      vertex 12.499 -1.1679 1.1
    endloop
  endfacet
  facet normal 0 0 1
    outer loop
      vertex 12.4962 -1.14848 1.1
      vertex 12.4962 -1.22652 1.1
      vertex 12.499 -1.2071 1.1
    endloop
  endfacet
  facet normal 0 0 1
    outer loop
      vertex 12.4914 -1.12944 1.1
      vertex 12.4962 -1.22652 1.1
      vertex 12.4962 -1.14848 1.1
    endloop
  endfacet
  facet normal 0 0 1
    outer loop
      vertex 12.4914 -1.12944 1.1
      vertex 12.4914 -1.24556 1.1
      vertex 12.4962 -1.22652 1.1
    endloop
  endfacet
  facet normal 0 0 1
    outer loop
      vertex 12.4848 -1.11096 1.1
      vertex 12.4914 -1.24556 1.1
      vertex 12.4914 -1.12944 1.1
    endloop
  endfacet
  facet normal 0 0 1
    outer loop
      vertex 12.4848 -1.11096 1.1
      vertex 12.4848 -1.26404 1.1
      vertex 12.4914 -1.24556 1.1
    endloop
  endfacet
  facet normal 0 0 1
    outer loop
      vertex 12.4764 -1.09322 1.1
      vertex 12.4848 -1.26404 1.1
      vertex 12.4848 -1.11096 1.1
    endloop
  endfacet
  facet normal 0 0 1
    outer loop
      vertex 12.4764 -1.09322 1.1
      vertex 12.4764 -1.28178 1.1
      vertex 12.4848 -1.26404 1.1
    endloop
  endfacet
  facet normal 0 0 1
    outer loop
      vertex 12.4663 -1.07639 1.1
      vertex 12.4764 -1.28178 1.1
      vertex 12.4764 -1.09322 1.1
    endloop
  endfacet
  facet normal 0 0 1
    outer loop
      vertex 12.4663 -1.07639 1.1
      vertex 12.4663 -1.29861 1.1
      vertex 12.4764 -1.28178 1.1
    endloop
  endfacet
  facet normal 0 0 1
    outer loop
      vertex 12.4546 -1.06062 1.1
      vertex 12.4663 -1.29861 1.1
      vertex 12.4663 -1.07639 1.1
    endloop
  endfacet
  facet normal 0 0 1
    outer loop
      vertex 12.4546 -1.06062 1.1
      vertex 12.4546 -1.31438 1.1
      vertex 12.4663 -1.29861 1.1
    endloop
  endfacet
  facet normal 0 0 1
    outer loop
      vertex 12.4414 -1.04608 1.1
      vertex 12.4546 -1.31438 1.1
      vertex 12.4546 -1.06062 1.1
    endloop
  endfacet
  facet normal 0 0 1
    outer loop
      vertex 12.4414 -1.04608 1.1
      vertex 12.4414 -1.32892 1.1
      vertex 12.4546 -1.31438 1.1
    endloop
  endfacet
  facet normal 0 0 1
    outer loop
      vertex 12.4269 -1.0329 1.1
      vertex 12.4414 -1.32892 1.1
      vertex 12.4414 -1.04608 1.1
    endloop
  endfacet
  facet normal 0 0 1
    outer loop
      vertex 12.4269 -1.0329 1.1
      vertex 12.4269 -1.3421 1.1
      vertex 12.4414 -1.32892 1.1
    endloop
  endfacet
  facet normal 0 0 1
    outer loop
      vertex 12.4111 -1.02121 1.1
      vertex 12.4269 -1.3421 1.1
      vertex 12.4269 -1.0329 1.1
    endloop
  endfacet
  facet normal 0 0 1
    outer loop
      vertex 12.4111 -1.02121 1.1
      vertex 12.4111 -1.35379 1.1
      vertex 12.4269 -1.3421 1.1
    endloop
  endfacet
  facet normal 0 0 1
    outer loop
      vertex 12.3943 -1.01112 1.1
      vertex 12.4111 -1.35379 1.1
      vertex 12.4111 -1.02121 1.1
    endloop
  endfacet
  facet normal 0 0 1
    outer loop
      vertex 12.3943 -1.01112 1.1
      vertex 12.3943 -1.36388 1.1
      vertex 12.4111 -1.35379 1.1
    endloop
  endfacet
  facet normal 0 0 1
    outer loop
      vertex 12.3765 -1.00272 1.1
      vertex 12.3943 -1.36388 1.1
      vertex 12.3943 -1.01112 1.1
    endloop
  endfacet
  facet normal 0 0 1
    outer loop
      vertex 12.3765 -1.00272 1.1
      vertex 12.3765 -1.37228 1.1
      vertex 12.3943 -1.36388 1.1
    endloop
  endfacet
  facet normal 0 0 1
    outer loop
      vertex 12.3581 -0.996112 1.1
      vertex 12.3765 -1.37228 1.1
      vertex 12.3765 -1.00272 1.1
    endloop
  endfacet
  facet normal 0 0 1
    outer loop
      vertex 12.3581 -0.996112 1.1
      vertex 12.3581 -1.37889 1.1
      vertex 12.3765 -1.37228 1.1
    endloop
  endfacet
  facet normal 0 0 1
    outer loop
      vertex 12.339 -0.991343 1.1
      vertex 12.3581 -1.37889 1.1
      vertex 12.3581 -0.996112 1.1
    endloop
  endfacet
  facet normal 0 0 1
    outer loop
      vertex 12.339 -0.991343 1.1
      vertex 12.339 -1.38366 1.1
      vertex 12.3581 -1.37889 1.1
    endloop
  endfacet
  facet normal 0 0 1
    outer loop
      vertex 12.3196 -0.988462 1.1
      vertex 12.339 -1.38366 1.1
      vertex 12.339 -0.991343 1.1
    endloop
  endfacet
  facet normal 0 0 1
    outer loop
      vertex 12.3196 -0.988462 1.1
      vertex 12.3196 -1.38654 1.1
      vertex 12.339 -1.38366 1.1
    endloop
  endfacet
  facet normal 0 0 1
    outer loop
      vertex 12.3 -0.987499 1.1
      vertex 12.3196 -1.38654 1.1
      vertex 12.3196 -0.988462 1.1
    endloop
  endfacet
  facet normal 0 0 1
    outer loop
      vertex 12.3 -0.987499 1.1
      vertex 12.3 -1.3875 1.1
      vertex 12.3196 -1.38654 1.1
    endloop
  endfacet
  facet normal -0 0 1
    outer loop
      vertex -12.3 -0.987499 1.1
      vertex 12.3 -1.3875 1.1
      vertex 12.3 -0.987499 1.1
    endloop
  endfacet
  facet normal 0 0 1
    outer loop
      vertex -12.3 -0.987499 1.1
      vertex -12.3 -1.3875 1.1
      vertex 12.3 -1.3875 1.1
    endloop
  endfacet
  facet normal -0 0 1
    outer loop
      vertex -12.3196 -0.988462 1.1
      vertex -12.3 -1.3875 1.1
      vertex -12.3 -0.987499 1.1
    endloop
  endfacet
  facet normal 0 0 1
    outer loop
      vertex -12.3196 -0.988462 1.1
      vertex -12.3196 -1.38654 1.1
      vertex -12.3 -1.3875 1.1
    endloop
  endfacet
  facet normal -0 0 1
    outer loop
      vertex -12.339 -0.991343 1.1
      vertex -12.3196 -1.38654 1.1
      vertex -12.3196 -0.988462 1.1
    endloop
  endfacet
  facet normal 0 0 1
    outer loop
      vertex -12.339 -0.991343 1.1
      vertex -12.339 -1.38366 1.1
      vertex -12.3196 -1.38654 1.1
    endloop
  endfacet
  facet normal -0 0 1
    outer loop
      vertex -12.3581 -0.996112 1.1
      vertex -12.339 -1.38366 1.1
      vertex -12.339 -0.991343 1.1
    endloop
  endfacet
  facet normal 0 0 1
    outer loop
      vertex -12.3581 -0.996112 1.1
      vertex -12.3581 -1.37889 1.1
      vertex -12.339 -1.38366 1.1
    endloop
  endfacet
  facet normal -0 0 1
    outer loop
      vertex -12.3765 -1.00272 1.1
      vertex -12.3581 -1.37889 1.1
      vertex -12.3581 -0.996112 1.1
    endloop
  endfacet
  facet normal 0 0 1
    outer loop
      vertex -12.3765 -1.00272 1.1
      vertex -12.3765 -1.37228 1.1
      vertex -12.3581 -1.37889 1.1
    endloop
  endfacet
  facet normal -0 0 1
    outer loop
      vertex -12.3943 -1.01112 1.1
      vertex -12.3765 -1.37228 1.1
      vertex -12.3765 -1.00272 1.1
    endloop
  endfacet
  facet normal 0 0 1
    outer loop
      vertex -12.3943 -1.01112 1.1
      vertex -12.3943 -1.36388 1.1
      vertex -12.3765 -1.37228 1.1
    endloop
  endfacet
  facet normal -0 0 1
    outer loop
      vertex -12.4111 -1.02121 1.1
      vertex -12.3943 -1.36388 1.1
      vertex -12.3943 -1.01112 1.1
    endloop
  endfacet
  facet normal 0 0 1
    outer loop
      vertex -12.4111 -1.02121 1.1
      vertex -12.4111 -1.35379 1.1
      vertex -12.3943 -1.36388 1.1
    endloop
  endfacet
  facet normal -0 0 1
    outer loop
      vertex -12.4269 -1.0329 1.1
      vertex -12.4111 -1.35379 1.1
      vertex -12.4111 -1.02121 1.1
    endloop
  endfacet
  facet normal 0 0 1
    outer loop
      vertex -12.4269 -1.0329 1.1
      vertex -12.4269 -1.3421 1.1
      vertex -12.4111 -1.35379 1.1
    endloop
  endfacet
  facet normal -0 0 1
    outer loop
      vertex -12.4414 -1.04608 1.1
      vertex -12.4269 -1.3421 1.1
      vertex -12.4269 -1.0329 1.1
    endloop
  endfacet
  facet normal 0 0 1
    outer loop
      vertex -12.4414 -1.04608 1.1
      vertex -12.4414 -1.32892 1.1
      vertex -12.4269 -1.3421 1.1
    endloop
  endfacet
  facet normal -0 0 1
    outer loop
      vertex -12.4546 -1.06062 1.1
      vertex -12.4414 -1.32892 1.1
      vertex -12.4414 -1.04608 1.1
    endloop
  endfacet
  facet normal 0 0 1
    outer loop
      vertex -12.4546 -1.06062 1.1
      vertex -12.4546 -1.31438 1.1
      vertex -12.4414 -1.32892 1.1
    endloop
  endfacet
  facet normal -0 0 1
    outer loop
      vertex -12.4663 -1.07639 1.1
      vertex -12.4546 -1.31438 1.1
      vertex -12.4546 -1.06062 1.1
    endloop
  endfacet
  facet normal 0 0 1
    outer loop
      vertex -12.4663 -1.07639 1.1
      vertex -12.4663 -1.29861 1.1
      vertex -12.4546 -1.31438 1.1
    endloop
  endfacet
  facet normal -0 0 1
    outer loop
      vertex -12.4764 -1.09322 1.1
      vertex -12.4663 -1.29861 1.1
      vertex -12.4663 -1.07639 1.1
    endloop
  endfacet
  facet normal 0 0 1
    outer loop
      vertex -12.4764 -1.09322 1.1
      vertex -12.4764 -1.28178 1.1
      vertex -12.4663 -1.29861 1.1
    endloop
  endfacet
  facet normal -0 0 1
    outer loop
      vertex -12.4848 -1.11096 1.1
      vertex -12.4764 -1.28178 1.1
      vertex -12.4764 -1.09322 1.1
    endloop
  endfacet
  facet normal 0 0 1
    outer loop
      vertex -12.4848 -1.11096 1.1
      vertex -12.4848 -1.26404 1.1
      vertex -12.4764 -1.28178 1.1
    endloop
  endfacet
  facet normal -0 0 1
    outer loop
      vertex -12.4914 -1.12944 1.1
      vertex -12.4848 -1.26404 1.1
      vertex -12.4848 -1.11096 1.1
    endloop
  endfacet
  facet normal 0 0 1
    outer loop
      vertex -12.4914 -1.12944 1.1
      vertex -12.4914 -1.24556 1.1
      vertex -12.4848 -1.26404 1.1
    endloop
  endfacet
  facet normal -0 0 1
    outer loop
      vertex -12.4962 -1.14848 1.1
      vertex -12.4914 -1.24556 1.1
      vertex -12.4914 -1.12944 1.1
    endloop
  endfacet
  facet normal 0 0 1
    outer loop
      vertex -12.4962 -1.14848 1.1
      vertex -12.4962 -1.22652 1.1
      vertex -12.4914 -1.24556 1.1
    endloop
  endfacet
  facet normal -0 0 1
    outer loop
      vertex -12.499 -1.1679 1.1
      vertex -12.4962 -1.22652 1.1
      vertex -12.4962 -1.14848 1.1
    endloop
  endfacet
  facet normal 0 0 1
    outer loop
      vertex -12.499 -1.1679 1.1
      vertex -12.499 -1.2071 1.1
      vertex -12.4962 -1.22652 1.1
    endloop
  endfacet
  facet normal 0 -0 1
    outer loop
      vertex -12.499 -1.2071 1.1
      vertex -12.499 -1.1679 1.1
      vertex -12.5 -1.1875 1.1
    endloop
  endfacet
  facet normal 0.941742 0.336336 0
    outer loop
      vertex -12.4848 -1.26404 1.5
      vertex -12.4914 -1.24556 1.1
      vertex -12.4914 -1.24556 1.5
    endloop
  endfacet
  facet normal 0.941742 0.336336 0
    outer loop
      vertex -12.4914 -1.24556 1.1
      vertex -12.4848 -1.26404 1.5
      vertex -12.4848 -1.26404 1.1
    endloop
  endfacet
endsolid OpenSCAD_Model
