solid OpenSCAD_Model
  facet normal 0 0 -1
    outer loop
      vertex 14.0625 -30.75 0
      vertex 11.3425 -30.6164 0
      vertex 14.0625 -3 0
    endloop
  endfacet
  facet normal 0 0 -1
    outer loop
      vertex 14.0625 -3 0
      vertex 17.1875 3 0
      vertex 17.1875 -3 0
    endloop
  endfacet
  facet normal 0 0 -1
    outer loop
      vertex 8.64876 -30.2168 0
      vertex 14.0625 -3 0
      vertex 11.3425 -30.6164 0
    endloop
  endfacet
  facet normal 0 0 -1
    outer loop
      vertex 6.00711 -29.5551 0
      vertex 14.0625 -3 0
      vertex 8.64876 -30.2168 0
    endloop
  endfacet
  facet normal 0 0 -1
    outer loop
      vertex 3.44304 -28.6376 0
      vertex 14.0625 -3 0
      vertex 6.00711 -29.5551 0
    endloop
  endfacet
  facet normal 0 0 -1
    outer loop
      vertex 0.981247 -27.4733 0
      vertex 14.0625 -3 0
      vertex 3.44304 -28.6376 0
    endloop
  endfacet
  facet normal 0 0 -1
    outer loop
      vertex -1.35457 -26.0733 0
      vertex 14.0625 -3 0
      vertex 0.981247 -27.4733 0
    endloop
  endfacet
  facet normal 0 0 -1
    outer loop
      vertex -3.5419 -24.451 0
      vertex 14.0625 -3 0
      vertex -1.35457 -26.0733 0
    endloop
  endfacet
  facet normal 0 0 -1
    outer loop
      vertex -5.55971 -22.6222 0
      vertex 14.0625 -3 0
      vertex -3.5419 -24.451 0
    endloop
  endfacet
  facet normal 0 0 -1
    outer loop
      vertex -7.38853 -20.6044 0
      vertex 14.0625 -3 0
      vertex -5.55971 -22.6222 0
    endloop
  endfacet
  facet normal 0 0 -1
    outer loop
      vertex -9.01077 -18.4171 0
      vertex 14.0625 -3 0
      vertex -7.38853 -20.6044 0
    endloop
  endfacet
  facet normal 0 0 -1
    outer loop
      vertex -10.4108 -16.0813 0
      vertex 14.0625 -3 0
      vertex -9.01077 -18.4171 0
    endloop
  endfacet
  facet normal 0 0 -1
    outer loop
      vertex -11.5751 -13.6195 0
      vertex 14.0625 -3 0
      vertex -10.4108 -16.0813 0
    endloop
  endfacet
  facet normal 0 0 -1
    outer loop
      vertex -12.4926 -11.0554 0
      vertex 14.0625 -3 0
      vertex -11.5751 -13.6195 0
    endloop
  endfacet
  facet normal 0 0 -1
    outer loop
      vertex -13.1543 -8.41374 0
      vertex 14.0625 -3 0
      vertex -12.4926 -11.0554 0
    endloop
  endfacet
  facet normal 0 0 -1
    outer loop
      vertex -13.5539 -5.71997 0
      vertex 14.0625 -3 0
      vertex -13.1543 -8.41374 0
    endloop
  endfacet
  facet normal 0 0 -1
    outer loop
      vertex -13.6875 -3 0
      vertex 14.0625 -3 0
      vertex -13.5539 -5.71997 0
    endloop
  endfacet
  facet normal 0 0 -1
    outer loop
      vertex 14.0625 -3 0
      vertex -13.6875 -3 0
      vertex 17.1875 3 0
    endloop
  endfacet
  facet normal 0 0 -1
    outer loop
      vertex -17.1875 3 0
      vertex -13.6875 -3 0
      vertex -17.1875 -3 0
    endloop
  endfacet
  facet normal 0 0 -1
    outer loop
      vertex -13.6875 -3 0
      vertex -17.1875 3 0
      vertex 17.1875 3 0
    endloop
  endfacet
  facet normal 1 0 0
    outer loop
      vertex -14.0625 3 7
      vertex -14.0625 -2 1.5
      vertex -14.0625 3 1.5
    endloop
  endfacet
  facet normal 1 -0 0
    outer loop
      vertex -14.0625 -3 7
      vertex -14.0625 -2 1.5
      vertex -14.0625 3 7
    endloop
  endfacet
  facet normal 1 0 0
    outer loop
      vertex -14.0625 -2 1.5
      vertex -14.0625 -3 7
      vertex -14.0625 -3 1.5
    endloop
  endfacet
  facet normal 0 -1 0
    outer loop
      vertex 14.0625 -3 1.5
      vertex 17.1875 -3 7
      vertex 14.0625 -3 7
    endloop
  endfacet
  facet normal 0 -1 0
    outer loop
      vertex 17.1875 -3 0
      vertex 14.0625 -3 1.5
      vertex 14.0625 -3 0
    endloop
  endfacet
  facet normal 0 -1 0
    outer loop
      vertex 14.0625 -3 1.5
      vertex 17.1875 -3 0
      vertex 17.1875 -3 7
    endloop
  endfacet
  facet normal 0 -1 0
    outer loop
      vertex -17.1875 -3 7
      vertex -14.0625 -3 1.5
      vertex -14.0625 -3 7
    endloop
  endfacet
  facet normal 0 -1 0
    outer loop
      vertex -17.1875 -3 0
      vertex -14.0625 -3 1.5
      vertex -17.1875 -3 7
    endloop
  endfacet
  facet normal 0 -1 0
    outer loop
      vertex -13.6875 -3 0
      vertex -14.0625 -3 1.5
      vertex -17.1875 -3 0
    endloop
  endfacet
  facet normal 0 -1 0
    outer loop
      vertex -14.0625 -3 1.5
      vertex -13.6875 -3 0
      vertex -13.6875 -3 1.5
    endloop
  endfacet
  facet normal -0 0 1
    outer loop
      vertex -17.1875 3 7
      vertex -14.0625 -3 7
      vertex -14.0625 3 7
    endloop
  endfacet
  facet normal 0 0 1
    outer loop
      vertex -14.0625 -3 7
      vertex -17.1875 3 7
      vertex -17.1875 -3 7
    endloop
  endfacet
  facet normal -1 0 0
    outer loop
      vertex -17.1875 -3 0
      vertex -17.1875 3 7
      vertex -17.1875 3 0
    endloop
  endfacet
  facet normal -1 -0 0
    outer loop
      vertex -17.1875 3 7
      vertex -17.1875 -3 0
      vertex -17.1875 -3 7
    endloop
  endfacet
  facet normal 0 1 0
    outer loop
      vertex 17.1875 3 7
      vertex 14.0625 3 1.5
      vertex 14.0625 3 7
    endloop
  endfacet
  facet normal 0 1 0
    outer loop
      vertex 14.0625 3 1.5
      vertex 17.1875 3 0
      vertex -14.0625 3 1.5
    endloop
  endfacet
  facet normal 0 1 -0
    outer loop
      vertex 17.1875 3 0
      vertex 14.0625 3 1.5
      vertex 17.1875 3 7
    endloop
  endfacet
  facet normal 0 1 -0
    outer loop
      vertex -14.0625 3 1.5
      vertex -17.1875 3 7
      vertex -14.0625 3 7
    endloop
  endfacet
  facet normal 0 1 0
    outer loop
      vertex -14.0625 3 1.5
      vertex -17.1875 3 0
      vertex -17.1875 3 7
    endloop
  endfacet
  facet normal 0 1 0
    outer loop
      vertex -17.1875 3 0
      vertex -14.0625 3 1.5
      vertex 17.1875 3 0
    endloop
  endfacet
  facet normal 1 -0 0
    outer loop
      vertex 17.1875 -3 7
      vertex 17.1875 3 0
      vertex 17.1875 3 7
    endloop
  endfacet
  facet normal 1 0 0
    outer loop
      vertex 17.1875 3 0
      vertex 17.1875 -3 7
      vertex 17.1875 -3 0
    endloop
  endfacet
  facet normal -0 0 1
    outer loop
      vertex 14.0625 3 7
      vertex 17.1875 -3 7
      vertex 17.1875 3 7
    endloop
  endfacet
  facet normal 0 0 1
    outer loop
      vertex 17.1875 -3 7
      vertex 14.0625 3 7
      vertex 14.0625 -3 7
    endloop
  endfacet
  facet normal -1 0 0
    outer loop
      vertex 14.0625 -2 1.5
      vertex 14.0625 3 7
      vertex 14.0625 3 1.5
    endloop
  endfacet
  facet normal -1 0 0
    outer loop
      vertex 14.0625 -3 7
      vertex 14.0625 -2 1.5
      vertex 14.0625 -3 1.5
    endloop
  endfacet
  facet normal -1 0 0
    outer loop
      vertex 14.0625 -2 1.5
      vertex 14.0625 -3 7
      vertex 14.0625 3 7
    endloop
  endfacet
  facet normal -0 0 1
    outer loop
      vertex 14.0615 -2.0196 1.5
      vertex 14.0625 -3 1.5
      vertex 14.0625 -2 1.5
    endloop
  endfacet
  facet normal -0 0 1
    outer loop
      vertex 14.0587 -2.03902 1.5
      vertex 14.0625 -3 1.5
      vertex 14.0615 -2.0196 1.5
    endloop
  endfacet
  facet normal -0 0 1
    outer loop
      vertex 14.0539 -2.05806 1.5
      vertex 14.0625 -3 1.5
      vertex 14.0587 -2.03902 1.5
    endloop
  endfacet
  facet normal -0 0 1
    outer loop
      vertex 14.0473 -2.07654 1.5
      vertex 14.0625 -3 1.5
      vertex 14.0539 -2.05806 1.5
    endloop
  endfacet
  facet normal -0 0 1
    outer loop
      vertex 14.0389 -2.09428 1.5
      vertex 14.0625 -3 1.5
      vertex 14.0473 -2.07654 1.5
    endloop
  endfacet
  facet normal -0 0 1
    outer loop
      vertex 14.0288 -2.11111 1.5
      vertex 14.0625 -3 1.5
      vertex 14.0389 -2.09428 1.5
    endloop
  endfacet
  facet normal -0 0 1
    outer loop
      vertex 14.0171 -2.12688 1.5
      vertex 14.0625 -3 1.5
      vertex 14.0288 -2.11111 1.5
    endloop
  endfacet
  facet normal -0 0 1
    outer loop
      vertex 14.0039 -2.14142 1.5
      vertex 14.0625 -3 1.5
      vertex 14.0171 -2.12688 1.5
    endloop
  endfacet
  facet normal -0 0 1
    outer loop
      vertex 13.9894 -2.1546 1.5
      vertex 14.0625 -3 1.5
      vertex 14.0039 -2.14142 1.5
    endloop
  endfacet
  facet normal -0 0 1
    outer loop
      vertex 13.9736 -2.16629 1.5
      vertex 14.0625 -3 1.5
      vertex 13.9894 -2.1546 1.5
    endloop
  endfacet
  facet normal -0 0 1
    outer loop
      vertex 13.9568 -2.17638 1.5
      vertex 14.0625 -3 1.5
      vertex 13.9736 -2.16629 1.5
    endloop
  endfacet
  facet normal -0 0 1
    outer loop
      vertex 13.939 -2.18478 1.5
      vertex 14.0625 -3 1.5
      vertex 13.9568 -2.17638 1.5
    endloop
  endfacet
  facet normal -0 0 1
    outer loop
      vertex 13.9206 -2.19139 1.5
      vertex 14.0625 -3 1.5
      vertex 13.939 -2.18478 1.5
    endloop
  endfacet
  facet normal -0 0 1
    outer loop
      vertex 13.9015 -2.19616 1.5
      vertex 14.0625 -3 1.5
      vertex 13.9206 -2.19139 1.5
    endloop
  endfacet
  facet normal -0 0 1
    outer loop
      vertex 13.8821 -2.19904 1.5
      vertex 14.0625 -3 1.5
      vertex 13.9015 -2.19616 1.5
    endloop
  endfacet
  facet normal -0 0 1
    outer loop
      vertex 13.8625 -2.2 1.5
      vertex 14.0625 -3 1.5
      vertex 13.8821 -2.19904 1.5
    endloop
  endfacet
  facet normal 0 0 1
    outer loop
      vertex -13.1543 -8.41374 1.5
      vertex 14.0625 -3 1.5
      vertex 13.8625 -2.2 1.5
    endloop
  endfacet
  facet normal 0 0 1
    outer loop
      vertex 14.0625 -3 1.5
      vertex 11.3425 -30.6164 1.5
      vertex 14.0625 -30.75 1.5
    endloop
  endfacet
  facet normal 0 0 1
    outer loop
      vertex 14.0625 -3 1.5
      vertex 8.64876 -30.2168 1.5
      vertex 11.3425 -30.6164 1.5
    endloop
  endfacet
  facet normal 0 0 1
    outer loop
      vertex 14.0625 -3 1.5
      vertex 6.00711 -29.5551 1.5
      vertex 8.64876 -30.2168 1.5
    endloop
  endfacet
  facet normal 0 0 1
    outer loop
      vertex 14.0625 -3 1.5
      vertex 3.44304 -28.6376 1.5
      vertex 6.00711 -29.5551 1.5
    endloop
  endfacet
  facet normal 0 0 1
    outer loop
      vertex 14.0625 -3 1.5
      vertex 0.981247 -27.4733 1.5
      vertex 3.44304 -28.6376 1.5
    endloop
  endfacet
  facet normal 0 0 1
    outer loop
      vertex 14.0625 -3 1.5
      vertex -1.35457 -26.0733 1.5
      vertex 0.981247 -27.4733 1.5
    endloop
  endfacet
  facet normal 0 0 1
    outer loop
      vertex 14.0625 -3 1.5
      vertex -3.5419 -24.451 1.5
      vertex -1.35457 -26.0733 1.5
    endloop
  endfacet
  facet normal 0 0 1
    outer loop
      vertex 14.0625 -3 1.5
      vertex -5.55971 -22.6222 1.5
      vertex -3.5419 -24.451 1.5
    endloop
  endfacet
  facet normal 0 0 1
    outer loop
      vertex 14.0625 -3 1.5
      vertex -7.38853 -20.6044 1.5
      vertex -5.55971 -22.6222 1.5
    endloop
  endfacet
  facet normal 0 0 1
    outer loop
      vertex 14.0625 -3 1.5
      vertex -9.01077 -18.4171 1.5
      vertex -7.38853 -20.6044 1.5
    endloop
  endfacet
  facet normal 0 0 1
    outer loop
      vertex 14.0625 -3 1.5
      vertex -10.4108 -16.0813 1.5
      vertex -9.01077 -18.4171 1.5
    endloop
  endfacet
  facet normal 0 0 1
    outer loop
      vertex 14.0625 -3 1.5
      vertex -11.5751 -13.6195 1.5
      vertex -10.4108 -16.0813 1.5
    endloop
  endfacet
  facet normal 0 0 1
    outer loop
      vertex 14.0625 -3 1.5
      vertex -12.4926 -11.0554 1.5
      vertex -11.5751 -13.6195 1.5
    endloop
  endfacet
  facet normal 0 0 1
    outer loop
      vertex 14.0625 -3 1.5
      vertex -13.1543 -8.41374 1.5
      vertex -12.4926 -11.0554 1.5
    endloop
  endfacet
  facet normal 0 0 1
    outer loop
      vertex 13.8625 -2.2 1.5
      vertex -13.5539 -5.71997 1.5
      vertex -13.1543 -8.41374 1.5
    endloop
  endfacet
  facet normal 0 0 1
    outer loop
      vertex 13.8625 -2.2 1.5
      vertex -13.6875 -3 1.5
      vertex -13.5539 -5.71997 1.5
    endloop
  endfacet
  facet normal -0 0 1
    outer loop
      vertex -13.8625 -2.2 1.5
      vertex -13.6875 -3 1.5
      vertex 13.8625 -2.2 1.5
    endloop
  endfacet
  facet normal 0 0 1
    outer loop
      vertex -14.0625 -3 1.5
      vertex -13.8625 -2.2 1.5
      vertex -13.8821 -2.19904 1.5
    endloop
  endfacet
  facet normal 0 0 1
    outer loop
      vertex -14.0625 -3 1.5
      vertex -13.8821 -2.19904 1.5
      vertex -13.9015 -2.19616 1.5
    endloop
  endfacet
  facet normal 0 0 1
    outer loop
      vertex -14.0625 -3 1.5
      vertex -13.9015 -2.19616 1.5
      vertex -13.9206 -2.19139 1.5
    endloop
  endfacet
  facet normal 0 0 1
    outer loop
      vertex -14.0625 -3 1.5
      vertex -13.9206 -2.19139 1.5
      vertex -13.939 -2.18478 1.5
    endloop
  endfacet
  facet normal 0 0 1
    outer loop
      vertex -14.0625 -3 1.5
      vertex -13.939 -2.18478 1.5
      vertex -13.9568 -2.17638 1.5
    endloop
  endfacet
  facet normal 0 0 1
    outer loop
      vertex -14.0625 -3 1.5
      vertex -13.9568 -2.17638 1.5
      vertex -13.9736 -2.16629 1.5
    endloop
  endfacet
  facet normal 0 0 1
    outer loop
      vertex -14.0625 -3 1.5
      vertex -13.9736 -2.16629 1.5
      vertex -13.9894 -2.1546 1.5
    endloop
  endfacet
  facet normal 0 0 1
    outer loop
      vertex -14.0625 -3 1.5
      vertex -13.9894 -2.1546 1.5
      vertex -14.0039 -2.14142 1.5
    endloop
  endfacet
  facet normal 0 0 1
    outer loop
      vertex -14.0625 -3 1.5
      vertex -14.0039 -2.14142 1.5
      vertex -14.0171 -2.12688 1.5
    endloop
  endfacet
  facet normal 0 0 1
    outer loop
      vertex -14.0625 -3 1.5
      vertex -14.0171 -2.12688 1.5
      vertex -14.0288 -2.11111 1.5
    endloop
  endfacet
  facet normal 0 0 1
    outer loop
      vertex -14.0625 -3 1.5
      vertex -14.0288 -2.11111 1.5
      vertex -14.0389 -2.09428 1.5
    endloop
  endfacet
  facet normal 0 0 1
    outer loop
      vertex -14.0625 -3 1.5
      vertex -14.0389 -2.09428 1.5
      vertex -14.0473 -2.07654 1.5
    endloop
  endfacet
  facet normal 0 0 1
    outer loop
      vertex -13.8625 -2.2 1.5
      vertex -14.0625 -3 1.5
      vertex -13.6875 -3 1.5
    endloop
  endfacet
  facet normal 0 0 1
    outer loop
      vertex -14.0539 -2.05806 1.5
      vertex -14.0625 -3 1.5
      vertex -14.0473 -2.07654 1.5
    endloop
  endfacet
  facet normal 0 0 1
    outer loop
      vertex -14.0587 -2.03902 1.5
      vertex -14.0625 -3 1.5
      vertex -14.0539 -2.05806 1.5
    endloop
  endfacet
  facet normal 0 0 1
    outer loop
      vertex -14.0615 -2.0196 1.5
      vertex -14.0625 -3 1.5
      vertex -14.0587 -2.03902 1.5
    endloop
  endfacet
  facet normal 0 0 1
    outer loop
      vertex -14.0625 -3 1.5
      vertex -14.0615 -2.0196 1.5
      vertex -14.0625 -2 1.5
    endloop
  endfacet
  facet normal 0 0 1
    outer loop
      vertex 14.0625 3 1.5
      vertex 14.0615 -1.9804 1.5
      vertex 14.0625 -2 1.5
    endloop
  endfacet
  facet normal 0 0 1
    outer loop
      vertex 14.0625 3 1.5
      vertex 14.0587 -1.96098 1.5
      vertex 14.0615 -1.9804 1.5
    endloop
  endfacet
  facet normal 0 0 1
    outer loop
      vertex 14.0625 3 1.5
      vertex 14.0539 -1.94194 1.5
      vertex 14.0587 -1.96098 1.5
    endloop
  endfacet
  facet normal 0 0 1
    outer loop
      vertex 14.0625 3 1.5
      vertex 14.0473 -1.92346 1.5
      vertex 14.0539 -1.94194 1.5
    endloop
  endfacet
  facet normal 0 0 1
    outer loop
      vertex 14.0625 3 1.5
      vertex 14.0389 -1.90572 1.5
      vertex 14.0473 -1.92346 1.5
    endloop
  endfacet
  facet normal 0 0 1
    outer loop
      vertex 14.0625 3 1.5
      vertex 14.0288 -1.88889 1.5
      vertex 14.0389 -1.90572 1.5
    endloop
  endfacet
  facet normal 0 0 1
    outer loop
      vertex 14.0625 3 1.5
      vertex 14.0171 -1.87312 1.5
      vertex 14.0288 -1.88889 1.5
    endloop
  endfacet
  facet normal 0 0 1
    outer loop
      vertex 14.0625 3 1.5
      vertex 14.0039 -1.85858 1.5
      vertex 14.0171 -1.87312 1.5
    endloop
  endfacet
  facet normal 0 0 1
    outer loop
      vertex 14.0625 3 1.5
      vertex 13.9894 -1.8454 1.5
      vertex 14.0039 -1.85858 1.5
    endloop
  endfacet
  facet normal 0 0 1
    outer loop
      vertex 14.0625 3 1.5
      vertex 13.9736 -1.83371 1.5
      vertex 13.9894 -1.8454 1.5
    endloop
  endfacet
  facet normal 0 0 1
    outer loop
      vertex 14.0625 3 1.5
      vertex 13.9568 -1.82362 1.5
      vertex 13.9736 -1.83371 1.5
    endloop
  endfacet
  facet normal 0 0 1
    outer loop
      vertex 14.0625 3 1.5
      vertex 13.939 -1.81522 1.5
      vertex 13.9568 -1.82362 1.5
    endloop
  endfacet
  facet normal 0 0 1
    outer loop
      vertex 14.0625 3 1.5
      vertex 13.9206 -1.80861 1.5
      vertex 13.939 -1.81522 1.5
    endloop
  endfacet
  facet normal 0 0 1
    outer loop
      vertex 14.0625 3 1.5
      vertex 13.9015 -1.80384 1.5
      vertex 13.9206 -1.80861 1.5
    endloop
  endfacet
  facet normal 0 0 1
    outer loop
      vertex 14.0625 3 1.5
      vertex 13.8821 -1.80096 1.5
      vertex 13.9015 -1.80384 1.5
    endloop
  endfacet
  facet normal 0 0 1
    outer loop
      vertex 14.0625 3 1.5
      vertex 13.8625 -1.8 1.5
      vertex 13.8821 -1.80096 1.5
    endloop
  endfacet
  facet normal 0 0 1
    outer loop
      vertex 14.0625 3 1.5
      vertex -13.8625 -1.8 1.5
      vertex 13.8625 -1.8 1.5
    endloop
  endfacet
  facet normal -0 0 1
    outer loop
      vertex -14.0625 3 1.5
      vertex -13.8625 -1.8 1.5
      vertex 14.0625 3 1.5
    endloop
  endfacet
  facet normal 0 0 1
    outer loop
      vertex -13.8625 -1.8 1.5
      vertex -14.0625 3 1.5
      vertex -13.8821 -1.80096 1.5
    endloop
  endfacet
  facet normal 0 0 1
    outer loop
      vertex -13.8821 -1.80096 1.5
      vertex -14.0625 3 1.5
      vertex -13.9015 -1.80384 1.5
    endloop
  endfacet
  facet normal 0 0 1
    outer loop
      vertex -14.0625 3 1.5
      vertex -13.9206 -1.80861 1.5
      vertex -13.9015 -1.80384 1.5
    endloop
  endfacet
  facet normal 0 0 1
    outer loop
      vertex -14.0625 3 1.5
      vertex -13.939 -1.81522 1.5
      vertex -13.9206 -1.80861 1.5
    endloop
  endfacet
  facet normal 0 0 1
    outer loop
      vertex -14.0625 3 1.5
      vertex -13.9568 -1.82362 1.5
      vertex -13.939 -1.81522 1.5
    endloop
  endfacet
  facet normal 0 0 1
    outer loop
      vertex -14.0625 3 1.5
      vertex -13.9736 -1.83371 1.5
      vertex -13.9568 -1.82362 1.5
    endloop
  endfacet
  facet normal 0 0 1
    outer loop
      vertex -14.0625 3 1.5
      vertex -13.9894 -1.8454 1.5
      vertex -13.9736 -1.83371 1.5
    endloop
  endfacet
  facet normal 0 0 1
    outer loop
      vertex -14.0625 3 1.5
      vertex -14.0039 -1.85858 1.5
      vertex -13.9894 -1.8454 1.5
    endloop
  endfacet
  facet normal 0 0 1
    outer loop
      vertex -14.0625 3 1.5
      vertex -14.0171 -1.87312 1.5
      vertex -14.0039 -1.85858 1.5
    endloop
  endfacet
  facet normal 0 0 1
    outer loop
      vertex -14.0625 3 1.5
      vertex -14.0288 -1.88889 1.5
      vertex -14.0171 -1.87312 1.5
    endloop
  endfacet
  facet normal 0 0 1
    outer loop
      vertex -14.0625 3 1.5
      vertex -14.0389 -1.90572 1.5
      vertex -14.0288 -1.88889 1.5
    endloop
  endfacet
  facet normal 0 0 1
    outer loop
      vertex -14.0625 3 1.5
      vertex -14.0473 -1.92346 1.5
      vertex -14.0389 -1.90572 1.5
    endloop
  endfacet
  facet normal 0 0 1
    outer loop
      vertex -14.0625 3 1.5
      vertex -14.0539 -1.94194 1.5
      vertex -14.0473 -1.92346 1.5
    endloop
  endfacet
  facet normal 0 0 1
    outer loop
      vertex -14.0625 3 1.5
      vertex -14.0587 -1.96098 1.5
      vertex -14.0539 -1.94194 1.5
    endloop
  endfacet
  facet normal 0 0 1
    outer loop
      vertex -14.0625 3 1.5
      vertex -14.0615 -1.9804 1.5
      vertex -14.0587 -1.96098 1.5
    endloop
  endfacet
  facet normal 0 0 1
    outer loop
      vertex -14.0615 -1.9804 1.5
      vertex -14.0625 3 1.5
      vertex -14.0625 -2 1.5
    endloop
  endfacet
  facet normal -0.998796 -0.049059 0
    outer loop
      vertex -13.5539 -5.71997 0
      vertex -13.6875 -3 1.5
      vertex -13.6875 -3 0
    endloop
  endfacet
  facet normal -0.998796 -0.049059 0
    outer loop
      vertex -13.6875 -3 1.5
      vertex -13.5539 -5.71997 0
      vertex -13.5539 -5.71997 1.5
    endloop
  endfacet
  facet normal -0.242981 -0.970031 0
    outer loop
      vertex 6.00711 -29.5551 0
      vertex 8.64876 -30.2168 1.5
      vertex 6.00711 -29.5551 1.5
    endloop
  endfacet
  facet normal -0.242981 -0.970031 -0
    outer loop
      vertex 8.64876 -30.2168 1.5
      vertex 6.00711 -29.5551 0
      vertex 8.64876 -30.2168 0
    endloop
  endfacet
  facet normal 1 -0 0
    outer loop
      vertex 14.0625 -30.75 1.5
      vertex 14.0625 -3 0
      vertex 14.0625 -3 1.5
    endloop
  endfacet
  facet normal 1 0 0
    outer loop
      vertex 14.0625 -3 0
      vertex 14.0625 -30.75 1.5
      vertex 14.0625 -30.75 0
    endloop
  endfacet
  facet normal -0.0490585 -0.998796 0
    outer loop
      vertex 11.3425 -30.6164 0
      vertex 14.0625 -30.75 1.5
      vertex 11.3425 -30.6164 1.5
    endloop
  endfacet
  facet normal -0.0490585 -0.998796 -0
    outer loop
      vertex 14.0625 -30.75 1.5
      vertex 11.3425 -30.6164 0
      vertex 14.0625 -30.75 0
    endloop
  endfacet
  facet normal -0.857728 -0.514104 0
    outer loop
      vertex -9.01077 -18.4171 0
      vertex -10.4108 -16.0813 1.5
      vertex -10.4108 -16.0813 0
    endloop
  endfacet
  facet normal -0.857728 -0.514104 0
    outer loop
      vertex -10.4108 -16.0813 1.5
      vertex -9.01077 -18.4171 0
      vertex -9.01077 -18.4171 1.5
    endloop
  endfacet
  facet normal -0.671552 -0.740958 0
    outer loop
      vertex -5.55971 -22.6222 0
      vertex -3.5419 -24.451 1.5
      vertex -5.55971 -22.6222 1.5
    endloop
  endfacet
  facet normal -0.671552 -0.740958 -0
    outer loop
      vertex -3.5419 -24.451 1.5
      vertex -5.55971 -22.6222 0
      vertex -3.5419 -24.451 0
    endloop
  endfacet
  facet normal -0.803203 -0.595706 0
    outer loop
      vertex -7.38853 -20.6044 0
      vertex -9.01077 -18.4171 1.5
      vertex -9.01077 -18.4171 0
    endloop
  endfacet
  facet normal -0.803203 -0.595706 0
    outer loop
      vertex -9.01077 -18.4171 1.5
      vertex -7.38853 -20.6044 0
      vertex -7.38853 -20.6044 1.5
    endloop
  endfacet
  facet normal -0.740952 -0.671557 0
    outer loop
      vertex -5.55971 -22.6222 0
      vertex -7.38853 -20.6044 1.5
      vertex -7.38853 -20.6044 0
    endloop
  endfacet
  facet normal -0.740952 -0.671557 0
    outer loop
      vertex -7.38853 -20.6044 1.5
      vertex -5.55971 -22.6222 0
      vertex -5.55971 -22.6222 1.5
    endloop
  endfacet
  facet normal -0.514093 -0.857734 0
    outer loop
      vertex -1.35457 -26.0733 0
      vertex 0.981247 -27.4733 1.5
      vertex -1.35457 -26.0733 1.5
    endloop
  endfacet
  facet normal -0.514093 -0.857734 -0
    outer loop
      vertex 0.981247 -27.4733 1.5
      vertex -1.35457 -26.0733 0
      vertex 0.981247 -27.4733 0
    endloop
  endfacet
  facet normal -0.989176 -0.146737 0
    outer loop
      vertex -13.1543 -8.41374 0
      vertex -13.5539 -5.71997 1.5
      vertex -13.5539 -5.71997 0
    endloop
  endfacet
  facet normal -0.989176 -0.146737 0
    outer loop
      vertex -13.5539 -5.71997 1.5
      vertex -13.1543 -8.41374 0
      vertex -13.1543 -8.41374 1.5
    endloop
  endfacet
  facet normal -0.146738 -0.989175 0
    outer loop
      vertex 8.64876 -30.2168 0
      vertex 11.3425 -30.6164 1.5
      vertex 8.64876 -30.2168 1.5
    endloop
  endfacet
  facet normal -0.146738 -0.989175 -0
    outer loop
      vertex 11.3425 -30.6164 1.5
      vertex 8.64876 -30.2168 0
      vertex 11.3425 -30.6164 0
    endloop
  endfacet
  facet normal -0.33691 -0.941537 0
    outer loop
      vertex 3.44304 -28.6376 0
      vertex 6.00711 -29.5551 1.5
      vertex 3.44304 -28.6376 1.5
    endloop
  endfacet
  facet normal -0.33691 -0.941537 -0
    outer loop
      vertex 6.00711 -29.5551 1.5
      vertex 3.44304 -28.6376 0
      vertex 6.00711 -29.5551 0
    endloop
  endfacet
  facet normal -0.903996 -0.427542 0
    outer loop
      vertex -10.4108 -16.0813 0
      vertex -11.5751 -13.6195 1.5
      vertex -11.5751 -13.6195 0
    endloop
  endfacet
  facet normal -0.903996 -0.427542 0
    outer loop
      vertex -11.5751 -13.6195 1.5
      vertex -10.4108 -16.0813 0
      vertex -10.4108 -16.0813 1.5
    endloop
  endfacet
  facet normal -0.427543 -0.903995 0
    outer loop
      vertex 0.981247 -27.4733 0
      vertex 3.44304 -28.6376 1.5
      vertex 0.981247 -27.4733 1.5
    endloop
  endfacet
  facet normal -0.427543 -0.903995 -0
    outer loop
      vertex 3.44304 -28.6376 1.5
      vertex 0.981247 -27.4733 0
      vertex 3.44304 -28.6376 0
    endloop
  endfacet
  facet normal -0.941538 -0.336906 0
    outer loop
      vertex -11.5751 -13.6195 0
      vertex -12.4926 -11.0554 1.5
      vertex -12.4926 -11.0554 0
    endloop
  endfacet
  facet normal -0.941538 -0.336906 0
    outer loop
      vertex -12.4926 -11.0554 1.5
      vertex -11.5751 -13.6195 0
      vertex -11.5751 -13.6195 1.5
    endloop
  endfacet
  facet normal -0.595715 -0.803196 0
    outer loop
      vertex -3.5419 -24.451 0
      vertex -1.35457 -26.0733 1.5
      vertex -3.5419 -24.451 1.5
    endloop
  endfacet
  facet normal -0.595715 -0.803196 -0
    outer loop
      vertex -1.35457 -26.0733 1.5
      vertex -3.5419 -24.451 0
      vertex -1.35457 -26.0733 0
    endloop
  endfacet
  facet normal -0.970031 -0.24298 0
    outer loop
      vertex -12.4926 -11.0554 0
      vertex -13.1543 -8.41374 1.5
      vertex -13.1543 -8.41374 0
    endloop
  endfacet
  facet normal -0.970031 -0.24298 0
    outer loop
      vertex -13.1543 -8.41374 1.5
      vertex -12.4926 -11.0554 0
      vertex -12.4926 -11.0554 1.5
    endloop
  endfacet
  facet normal 0.989765 0.142706 0
    outer loop
      vertex -14.0587 -2.03902 1.5
      vertex -14.0615 -2.0196 1.1
      vertex -14.0615 -2.0196 1.5
    endloop
  endfacet
  facet normal 0.989765 0.142706 0
    outer loop
      vertex -14.0615 -2.0196 1.1
      vertex -14.0587 -2.03902 1.5
      vertex -14.0587 -2.03902 1.1
    endloop
  endfacet
  facet normal 0.146844 0.98916 -0
    outer loop
      vertex -13.8821 -2.19904 1.1
      vertex -13.9015 -2.19616 1.5
      vertex -13.8821 -2.19904 1.5
    endloop
  endfacet
  facet normal 0.146844 0.98916 0
    outer loop
      vertex -13.9015 -2.19616 1.5
      vertex -13.8821 -2.19904 1.1
      vertex -13.9015 -2.19616 1.1
    endloop
  endfacet
  facet normal -0.998701 0.0509541 0
    outer loop
      vertex 14.0615 -2.0196 1.1
      vertex 14.0625 -2 1.5
      vertex 14.0625 -2 1.1
    endloop
  endfacet
  facet normal -0.998701 0.0509541 0
    outer loop
      vertex 14.0625 -2 1.5
      vertex 14.0615 -2.0196 1.1
      vertex 14.0615 -2.0196 1.5
    endloop
  endfacet
  facet normal 0.998701 0.0509541 0
    outer loop
      vertex -14.0615 -2.0196 1.5
      vertex -14.0625 -2 1.1
      vertex -14.0625 -2 1.5
    endloop
  endfacet
  facet normal 0.998701 0.0509541 0
    outer loop
      vertex -14.0625 -2 1.1
      vertex -14.0615 -2.0196 1.5
      vertex -14.0615 -2.0196 1.1
    endloop
  endfacet
  facet normal 0 -1 0
    outer loop
      vertex -13.8625 -1.8 1.1
      vertex 13.8625 -1.8 1.5
      vertex -13.8625 -1.8 1.5
    endloop
  endfacet
  facet normal 0 -1 -0
    outer loop
      vertex 13.8625 -1.8 1.5
      vertex -13.8625 -1.8 1.1
      vertex 13.8625 -1.8 1.1
    endloop
  endfacet
  facet normal 0.242297 -0.970202 0
    outer loop
      vertex -13.9206 -1.80861 1.1
      vertex -13.9015 -1.80384 1.5
      vertex -13.9206 -1.80861 1.5
    endloop
  endfacet
  facet normal 0.242297 -0.970202 0
    outer loop
      vertex -13.9015 -1.80384 1.5
      vertex -13.9206 -1.80861 1.1
      vertex -13.9015 -1.80384 1.1
    endloop
  endfacet
  facet normal -0.989765 0.142706 0
    outer loop
      vertex 14.0587 -2.03902 1.1
      vertex 14.0615 -2.0196 1.5
      vertex 14.0615 -2.0196 1.1
    endloop
  endfacet
  facet normal -0.989765 0.142706 0
    outer loop
      vertex 14.0615 -2.0196 1.5
      vertex 14.0587 -2.03902 1.1
      vertex 14.0587 -2.03902 1.5
    endloop
  endfacet
  facet normal 0.672622 -0.739986 0
    outer loop
      vertex -14.0039 -1.85858 1.1
      vertex -13.9894 -1.8454 1.5
      vertex -14.0039 -1.85858 1.5
    endloop
  endfacet
  facet normal 0.672622 -0.739986 0
    outer loop
      vertex -13.9894 -1.8454 1.5
      vertex -14.0039 -1.85858 1.1
      vertex -13.9894 -1.8454 1.1
    endloop
  endfacet
  facet normal -0.338085 -0.941115 0
    outer loop
      vertex 13.9206 -1.80861 1.1
      vertex 13.939 -1.81522 1.5
      vertex 13.9206 -1.80861 1.5
    endloop
  endfacet
  facet normal -0.338085 -0.941115 -0
    outer loop
      vertex 13.939 -1.81522 1.5
      vertex 13.9206 -1.80861 1.1
      vertex 13.939 -1.81522 1.1
    endloop
  endfacet
  facet normal -0.0489209 0.998803 0
    outer loop
      vertex 13.8821 -2.19904 1.1
      vertex 13.8625 -2.2 1.5
      vertex 13.8821 -2.19904 1.5
    endloop
  endfacet
  facet normal -0.0489209 0.998803 0
    outer loop
      vertex 13.8625 -2.2 1.5
      vertex 13.8821 -2.19904 1.1
      vertex 13.8625 -2.2 1.1
    endloop
  endfacet
  facet normal 0.514871 0.857268 -0
    outer loop
      vertex -13.9568 -2.17638 1.1
      vertex -13.9736 -2.16629 1.5
      vertex -13.9568 -2.17638 1.5
    endloop
  endfacet
  facet normal 0.514871 0.857268 0
    outer loop
      vertex -13.9736 -2.16629 1.5
      vertex -13.9568 -2.17638 1.1
      vertex -13.9736 -2.16629 1.1
    endloop
  endfacet
  facet normal -0.9038 -0.427955 0
    outer loop
      vertex 14.0473 -1.92346 1.1
      vertex 14.0389 -1.90572 1.5
      vertex 14.0389 -1.90572 1.1
    endloop
  endfacet
  facet normal -0.9038 -0.427955 0
    outer loop
      vertex 14.0389 -1.90572 1.5
      vertex 14.0473 -1.92346 1.1
      vertex 14.0473 -1.92346 1.5
    endloop
  endfacet
  facet normal 0.514871 -0.857268 0
    outer loop
      vertex -13.9736 -1.83371 1.1
      vertex -13.9568 -1.82362 1.5
      vertex -13.9736 -1.83371 1.5
    endloop
  endfacet
  facet normal 0.514871 -0.857268 0
    outer loop
      vertex -13.9568 -1.82362 1.5
      vertex -13.9736 -1.83371 1.1
      vertex -13.9568 -1.82362 1.1
    endloop
  endfacet
  facet normal -0.969661 -0.244452 0
    outer loop
      vertex 14.0587 -1.96098 1.1
      vertex 14.0539 -1.94194 1.5
      vertex 14.0539 -1.94194 1.1
    endloop
  endfacet
  facet normal -0.969661 -0.244452 0
    outer loop
      vertex 14.0539 -1.94194 1.5
      vertex 14.0587 -1.96098 1.1
      vertex 14.0587 -1.96098 1.5
    endloop
  endfacet
  facet normal 0 1 -0
    outer loop
      vertex 13.8625 -2.2 1.1
      vertex -13.8625 -2.2 1.5
      vertex 13.8625 -2.2 1.5
    endloop
  endfacet
  facet normal 0 1 0
    outer loop
      vertex -13.8625 -2.2 1.5
      vertex 13.8625 -2.2 1.1
      vertex -13.8625 -2.2 1.1
    endloop
  endfacet
  facet normal 0.803106 -0.595836 0
    outer loop
      vertex -14.0288 -1.88889 1.5
      vertex -14.0171 -1.87312 1.1
      vertex -14.0171 -1.87312 1.5
    endloop
  endfacet
  facet normal 0.803106 -0.595836 0
    outer loop
      vertex -14.0171 -1.87312 1.1
      vertex -14.0288 -1.88889 1.5
      vertex -14.0288 -1.88889 1.1
    endloop
  endfacet
  facet normal -0.857448 0.514571 0
    outer loop
      vertex 14.0288 -2.11111 1.1
      vertex 14.0389 -2.09428 1.5
      vertex 14.0389 -2.09428 1.1
    endloop
  endfacet
  facet normal -0.857448 0.514571 0
    outer loop
      vertex 14.0389 -2.09428 1.5
      vertex 14.0288 -2.11111 1.1
      vertex 14.0288 -2.11111 1.5
    endloop
  endfacet
  facet normal -0.803106 0.595836 0
    outer loop
      vertex 14.0171 -2.12688 1.1
      vertex 14.0288 -2.11111 1.5
      vertex 14.0288 -2.11111 1.1
    endloop
  endfacet
  facet normal -0.803106 0.595836 0
    outer loop
      vertex 14.0288 -2.11111 1.5
      vertex 14.0171 -2.12688 1.1
      vertex 14.0171 -2.12688 1.5
    endloop
  endfacet
  facet normal 0.338085 0.941115 -0
    outer loop
      vertex -13.9206 -2.19139 1.1
      vertex -13.939 -2.18478 1.5
      vertex -13.9206 -2.19139 1.5
    endloop
  endfacet
  facet normal 0.338085 0.941115 0
    outer loop
      vertex -13.939 -2.18478 1.5
      vertex -13.9206 -2.19139 1.1
      vertex -13.939 -2.18478 1.1
    endloop
  endfacet
  facet normal 0.969661 0.244452 0
    outer loop
      vertex -14.0539 -2.05806 1.5
      vertex -14.0587 -2.03902 1.1
      vertex -14.0587 -2.03902 1.5
    endloop
  endfacet
  facet normal 0.969661 0.244452 0
    outer loop
      vertex -14.0587 -2.03902 1.1
      vertex -14.0539 -2.05806 1.5
      vertex -14.0539 -2.05806 1.1
    endloop
  endfacet
  facet normal 0.426775 -0.904358 0
    outer loop
      vertex -13.9568 -1.82362 1.1
      vertex -13.939 -1.81522 1.5
      vertex -13.9568 -1.82362 1.5
    endloop
  endfacet
  facet normal 0.426775 -0.904358 0
    outer loop
      vertex -13.939 -1.81522 1.5
      vertex -13.9568 -1.82362 1.1
      vertex -13.939 -1.81522 1.1
    endloop
  endfacet
  facet normal -0.338085 0.941115 0
    outer loop
      vertex 13.939 -2.18478 1.1
      vertex 13.9206 -2.19139 1.5
      vertex 13.939 -2.18478 1.5
    endloop
  endfacet
  facet normal -0.338085 0.941115 0
    outer loop
      vertex 13.9206 -2.19139 1.5
      vertex 13.939 -2.18478 1.1
      vertex 13.9206 -2.19139 1.1
    endloop
  endfacet
  facet normal 0.426775 0.904358 -0
    outer loop
      vertex -13.939 -2.18478 1.1
      vertex -13.9568 -2.17638 1.5
      vertex -13.939 -2.18478 1.5
    endloop
  endfacet
  facet normal 0.426775 0.904358 0
    outer loop
      vertex -13.9568 -2.17638 1.5
      vertex -13.939 -2.18478 1.1
      vertex -13.9568 -2.17638 1.1
    endloop
  endfacet
  facet normal 0.740401 -0.672166 0
    outer loop
      vertex -14.0171 -1.87312 1.5
      vertex -14.0039 -1.85858 1.1
      vertex -14.0039 -1.85858 1.5
    endloop
  endfacet
  facet normal 0.740401 -0.672166 0
    outer loop
      vertex -14.0039 -1.85858 1.1
      vertex -14.0171 -1.87312 1.5
      vertex -14.0171 -1.87312 1.1
    endloop
  endfacet
  facet normal -0.0489209 -0.998803 0
    outer loop
      vertex 13.8625 -1.8 1.1
      vertex 13.8821 -1.80096 1.5
      vertex 13.8625 -1.8 1.5
    endloop
  endfacet
  facet normal -0.0489209 -0.998803 -0
    outer loop
      vertex 13.8821 -1.80096 1.5
      vertex 13.8625 -1.8 1.1
      vertex 13.8821 -1.80096 1.1
    endloop
  endfacet
  facet normal 0.969661 -0.244452 0
    outer loop
      vertex -14.0587 -1.96098 1.5
      vertex -14.0539 -1.94194 1.1
      vertex -14.0539 -1.94194 1.5
    endloop
  endfacet
  facet normal 0.969661 -0.244452 0
    outer loop
      vertex -14.0539 -1.94194 1.1
      vertex -14.0587 -1.96098 1.5
      vertex -14.0587 -1.96098 1.1
    endloop
  endfacet
  facet normal 0.941742 -0.336336 0
    outer loop
      vertex -14.0539 -1.94194 1.5
      vertex -14.0473 -1.92346 1.1
      vertex -14.0473 -1.92346 1.5
    endloop
  endfacet
  facet normal 0.941742 -0.336336 0
    outer loop
      vertex -14.0473 -1.92346 1.1
      vertex -14.0539 -1.94194 1.5
      vertex -14.0539 -1.94194 1.1
    endloop
  endfacet
  facet normal 0.857448 -0.514571 0
    outer loop
      vertex -14.0389 -1.90572 1.5
      vertex -14.0288 -1.88889 1.1
      vertex -14.0288 -1.88889 1.5
    endloop
  endfacet
  facet normal 0.857448 -0.514571 0
    outer loop
      vertex -14.0288 -1.88889 1.1
      vertex -14.0389 -1.90572 1.5
      vertex -14.0389 -1.90572 1.1
    endloop
  endfacet
  facet normal -0.242297 -0.970202 0
    outer loop
      vertex 13.9015 -1.80384 1.1
      vertex 13.9206 -1.80861 1.5
      vertex 13.9015 -1.80384 1.5
    endloop
  endfacet
  facet normal -0.242297 -0.970202 -0
    outer loop
      vertex 13.9206 -1.80861 1.5
      vertex 13.9015 -1.80384 1.1
      vertex 13.9206 -1.80861 1.1
    endloop
  endfacet
  facet normal 0.0489209 -0.998803 0
    outer loop
      vertex -13.8821 -1.80096 1.1
      vertex -13.8625 -1.8 1.5
      vertex -13.8821 -1.80096 1.5
    endloop
  endfacet
  facet normal 0.0489209 -0.998803 0
    outer loop
      vertex -13.8625 -1.8 1.5
      vertex -13.8821 -1.80096 1.1
      vertex -13.8625 -1.8 1.1
    endloop
  endfacet
  facet normal -0.426775 -0.904358 0
    outer loop
      vertex 13.939 -1.81522 1.1
      vertex 13.9568 -1.82362 1.5
      vertex 13.939 -1.81522 1.5
    endloop
  endfacet
  facet normal -0.426775 -0.904358 -0
    outer loop
      vertex 13.9568 -1.82362 1.5
      vertex 13.939 -1.81522 1.1
      vertex 13.9568 -1.82362 1.1
    endloop
  endfacet
  facet normal -0.998701 -0.0509541 0
    outer loop
      vertex 14.0625 -2 1.1
      vertex 14.0615 -1.9804 1.5
      vertex 14.0615 -1.9804 1.1
    endloop
  endfacet
  facet normal -0.998701 -0.0509541 0
    outer loop
      vertex 14.0615 -1.9804 1.5
      vertex 14.0625 -2 1.1
      vertex 14.0625 -2 1.5
    endloop
  endfacet
  facet normal 0.146844 -0.98916 0
    outer loop
      vertex -13.9015 -1.80384 1.1
      vertex -13.8821 -1.80096 1.5
      vertex -13.9015 -1.80384 1.5
    endloop
  endfacet
  facet normal 0.146844 -0.98916 0
    outer loop
      vertex -13.8821 -1.80096 1.5
      vertex -13.9015 -1.80384 1.1
      vertex -13.8821 -1.80096 1.1
    endloop
  endfacet
  facet normal -0.857448 -0.514571 0
    outer loop
      vertex 14.0389 -1.90572 1.1
      vertex 14.0288 -1.88889 1.5
      vertex 14.0288 -1.88889 1.1
    endloop
  endfacet
  facet normal -0.857448 -0.514571 0
    outer loop
      vertex 14.0288 -1.88889 1.5
      vertex 14.0389 -1.90572 1.1
      vertex 14.0389 -1.90572 1.5
    endloop
  endfacet
  facet normal -0.594777 -0.803891 0
    outer loop
      vertex 13.9736 -1.83371 1.1
      vertex 13.9894 -1.8454 1.5
      vertex 13.9736 -1.83371 1.5
    endloop
  endfacet
  facet normal -0.594777 -0.803891 -0
    outer loop
      vertex 13.9894 -1.8454 1.5
      vertex 13.9736 -1.83371 1.1
      vertex 13.9894 -1.8454 1.1
    endloop
  endfacet
  facet normal 0.594777 -0.803891 0
    outer loop
      vertex -13.9894 -1.8454 1.1
      vertex -13.9736 -1.83371 1.5
      vertex -13.9894 -1.8454 1.5
    endloop
  endfacet
  facet normal 0.594777 -0.803891 0
    outer loop
      vertex -13.9736 -1.83371 1.5
      vertex -13.9894 -1.8454 1.1
      vertex -13.9736 -1.83371 1.1
    endloop
  endfacet
  facet normal 0.242297 0.970202 -0
    outer loop
      vertex -13.9015 -2.19616 1.1
      vertex -13.9206 -2.19139 1.5
      vertex -13.9015 -2.19616 1.5
    endloop
  endfacet
  facet normal 0.242297 0.970202 0
    outer loop
      vertex -13.9206 -2.19139 1.5
      vertex -13.9015 -2.19616 1.1
      vertex -13.9206 -2.19139 1.1
    endloop
  endfacet
  facet normal 0.803106 0.595836 0
    outer loop
      vertex -14.0171 -2.12688 1.5
      vertex -14.0288 -2.11111 1.1
      vertex -14.0288 -2.11111 1.5
    endloop
  endfacet
  facet normal 0.803106 0.595836 0
    outer loop
      vertex -14.0288 -2.11111 1.1
      vertex -14.0171 -2.12688 1.5
      vertex -14.0171 -2.12688 1.1
    endloop
  endfacet
  facet normal -0.989765 -0.142706 0
    outer loop
      vertex 14.0615 -1.9804 1.1
      vertex 14.0587 -1.96098 1.5
      vertex 14.0587 -1.96098 1.1
    endloop
  endfacet
  facet normal -0.989765 -0.142706 0
    outer loop
      vertex 14.0587 -1.96098 1.5
      vertex 14.0615 -1.9804 1.1
      vertex 14.0615 -1.9804 1.5
    endloop
  endfacet
  facet normal 0.989765 -0.142706 0
    outer loop
      vertex -14.0615 -1.9804 1.5
      vertex -14.0587 -1.96098 1.1
      vertex -14.0587 -1.96098 1.5
    endloop
  endfacet
  facet normal 0.989765 -0.142706 0
    outer loop
      vertex -14.0587 -1.96098 1.1
      vertex -14.0615 -1.9804 1.5
      vertex -14.0615 -1.9804 1.1
    endloop
  endfacet
  facet normal 0.998701 -0.0509541 0
    outer loop
      vertex -14.0625 -2 1.5
      vertex -14.0615 -1.9804 1.1
      vertex -14.0615 -1.9804 1.5
    endloop
  endfacet
  facet normal 0.998701 -0.0509541 0
    outer loop
      vertex -14.0615 -1.9804 1.1
      vertex -14.0625 -2 1.5
      vertex -14.0625 -2 1.1
    endloop
  endfacet
  facet normal -0.740401 0.672166 0
    outer loop
      vertex 14.0039 -2.14142 1.1
      vertex 14.0171 -2.12688 1.5
      vertex 14.0171 -2.12688 1.1
    endloop
  endfacet
  facet normal -0.740401 0.672166 0
    outer loop
      vertex 14.0171 -2.12688 1.5
      vertex 14.0039 -2.14142 1.1
      vertex 14.0039 -2.14142 1.5
    endloop
  endfacet
  facet normal -0.146844 0.98916 0
    outer loop
      vertex 13.9015 -2.19616 1.1
      vertex 13.8821 -2.19904 1.5
      vertex 13.9015 -2.19616 1.5
    endloop
  endfacet
  facet normal -0.146844 0.98916 0
    outer loop
      vertex 13.8821 -2.19904 1.5
      vertex 13.9015 -2.19616 1.1
      vertex 13.8821 -2.19904 1.1
    endloop
  endfacet
  facet normal 0.338085 -0.941115 0
    outer loop
      vertex -13.939 -1.81522 1.1
      vertex -13.9206 -1.80861 1.5
      vertex -13.939 -1.81522 1.5
    endloop
  endfacet
  facet normal 0.338085 -0.941115 0
    outer loop
      vertex -13.9206 -1.80861 1.5
      vertex -13.939 -1.81522 1.1
      vertex -13.9206 -1.80861 1.1
    endloop
  endfacet
  facet normal -0.672622 -0.739986 0
    outer loop
      vertex 13.9894 -1.8454 1.1
      vertex 14.0039 -1.85858 1.5
      vertex 13.9894 -1.8454 1.5
    endloop
  endfacet
  facet normal -0.672622 -0.739986 -0
    outer loop
      vertex 14.0039 -1.85858 1.5
      vertex 13.9894 -1.8454 1.1
      vertex 14.0039 -1.85858 1.1
    endloop
  endfacet
  facet normal -0.969661 0.244452 0
    outer loop
      vertex 14.0539 -2.05806 1.1
      vertex 14.0587 -2.03902 1.5
      vertex 14.0587 -2.03902 1.1
    endloop
  endfacet
  facet normal -0.969661 0.244452 0
    outer loop
      vertex 14.0587 -2.03902 1.5
      vertex 14.0539 -2.05806 1.1
      vertex 14.0539 -2.05806 1.5
    endloop
  endfacet
  facet normal -0.514871 -0.857268 0
    outer loop
      vertex 13.9568 -1.82362 1.1
      vertex 13.9736 -1.83371 1.5
      vertex 13.9568 -1.82362 1.5
    endloop
  endfacet
  facet normal -0.514871 -0.857268 -0
    outer loop
      vertex 13.9736 -1.83371 1.5
      vertex 13.9568 -1.82362 1.1
      vertex 13.9736 -1.83371 1.1
    endloop
  endfacet
  facet normal 0.9038 -0.427955 0
    outer loop
      vertex -14.0473 -1.92346 1.5
      vertex -14.0389 -1.90572 1.1
      vertex -14.0389 -1.90572 1.5
    endloop
  endfacet
  facet normal 0.9038 -0.427955 0
    outer loop
      vertex -14.0389 -1.90572 1.1
      vertex -14.0473 -1.92346 1.5
      vertex -14.0473 -1.92346 1.1
    endloop
  endfacet
  facet normal -0.514871 0.857268 0
    outer loop
      vertex 13.9736 -2.16629 1.1
      vertex 13.9568 -2.17638 1.5
      vertex 13.9736 -2.16629 1.5
    endloop
  endfacet
  facet normal -0.514871 0.857268 0
    outer loop
      vertex 13.9568 -2.17638 1.5
      vertex 13.9736 -2.16629 1.1
      vertex 13.9568 -2.17638 1.1
    endloop
  endfacet
  facet normal -0.941742 -0.336336 0
    outer loop
      vertex 14.0539 -1.94194 1.1
      vertex 14.0473 -1.92346 1.5
      vertex 14.0473 -1.92346 1.1
    endloop
  endfacet
  facet normal -0.941742 -0.336336 0
    outer loop
      vertex 14.0473 -1.92346 1.5
      vertex 14.0539 -1.94194 1.1
      vertex 14.0539 -1.94194 1.5
    endloop
  endfacet
  facet normal -0.594777 0.803891 0
    outer loop
      vertex 13.9894 -2.1546 1.1
      vertex 13.9736 -2.16629 1.5
      vertex 13.9894 -2.1546 1.5
    endloop
  endfacet
  facet normal -0.594777 0.803891 0
    outer loop
      vertex 13.9736 -2.16629 1.5
      vertex 13.9894 -2.1546 1.1
      vertex 13.9736 -2.16629 1.1
    endloop
  endfacet
  facet normal 0.740401 0.672166 0
    outer loop
      vertex -14.0039 -2.14142 1.5
      vertex -14.0171 -2.12688 1.1
      vertex -14.0171 -2.12688 1.5
    endloop
  endfacet
  facet normal 0.740401 0.672166 0
    outer loop
      vertex -14.0171 -2.12688 1.1
      vertex -14.0039 -2.14142 1.5
      vertex -14.0039 -2.14142 1.1
    endloop
  endfacet
  facet normal -0.426775 0.904358 0
    outer loop
      vertex 13.9568 -2.17638 1.1
      vertex 13.939 -2.18478 1.5
      vertex 13.9568 -2.17638 1.5
    endloop
  endfacet
  facet normal -0.426775 0.904358 0
    outer loop
      vertex 13.939 -2.18478 1.5
      vertex 13.9568 -2.17638 1.1
      vertex 13.939 -2.18478 1.1
    endloop
  endfacet
  facet normal -0.740401 -0.672166 0
    outer loop
      vertex 14.0171 -1.87312 1.1
      vertex 14.0039 -1.85858 1.5
      vertex 14.0039 -1.85858 1.1
    endloop
  endfacet
  facet normal -0.740401 -0.672166 0
    outer loop
      vertex 14.0039 -1.85858 1.5
      vertex 14.0171 -1.87312 1.1
      vertex 14.0171 -1.87312 1.5
    endloop
  endfacet
  facet normal -0.242297 0.970202 0
    outer loop
      vertex 13.9206 -2.19139 1.1
      vertex 13.9015 -2.19616 1.5
      vertex 13.9206 -2.19139 1.5
    endloop
  endfacet
  facet normal -0.242297 0.970202 0
    outer loop
      vertex 13.9015 -2.19616 1.5
      vertex 13.9206 -2.19139 1.1
      vertex 13.9015 -2.19616 1.1
    endloop
  endfacet
  facet normal -0.803106 -0.595836 0
    outer loop
      vertex 14.0288 -1.88889 1.1
      vertex 14.0171 -1.87312 1.5
      vertex 14.0171 -1.87312 1.1
    endloop
  endfacet
  facet normal -0.803106 -0.595836 0
    outer loop
      vertex 14.0171 -1.87312 1.5
      vertex 14.0288 -1.88889 1.1
      vertex 14.0288 -1.88889 1.5
    endloop
  endfacet
  facet normal -0.146844 -0.98916 0
    outer loop
      vertex 13.8821 -1.80096 1.1
      vertex 13.9015 -1.80384 1.5
      vertex 13.8821 -1.80096 1.5
    endloop
  endfacet
  facet normal -0.146844 -0.98916 -0
    outer loop
      vertex 13.9015 -1.80384 1.5
      vertex 13.8821 -1.80096 1.1
      vertex 13.9015 -1.80384 1.1
    endloop
  endfacet
  facet normal -0.941742 0.336336 0
    outer loop
      vertex 14.0473 -2.07654 1.1
      vertex 14.0539 -2.05806 1.5
      vertex 14.0539 -2.05806 1.1
    endloop
  endfacet
  facet normal -0.941742 0.336336 0
    outer loop
      vertex 14.0539 -2.05806 1.5
      vertex 14.0473 -2.07654 1.1
      vertex 14.0473 -2.07654 1.5
    endloop
  endfacet
  facet normal -0.9038 0.427955 0
    outer loop
      vertex 14.0389 -2.09428 1.1
      vertex 14.0473 -2.07654 1.5
      vertex 14.0473 -2.07654 1.1
    endloop
  endfacet
  facet normal -0.9038 0.427955 0
    outer loop
      vertex 14.0473 -2.07654 1.5
      vertex 14.0389 -2.09428 1.1
      vertex 14.0389 -2.09428 1.5
    endloop
  endfacet
  facet normal 0.9038 0.427955 0
    outer loop
      vertex -14.0389 -2.09428 1.5
      vertex -14.0473 -2.07654 1.1
      vertex -14.0473 -2.07654 1.5
    endloop
  endfacet
  facet normal 0.9038 0.427955 0
    outer loop
      vertex -14.0473 -2.07654 1.1
      vertex -14.0389 -2.09428 1.5
      vertex -14.0389 -2.09428 1.1
    endloop
  endfacet
  facet normal 0.0489209 0.998803 -0
    outer loop
      vertex -13.8625 -2.2 1.1
      vertex -13.8821 -2.19904 1.5
      vertex -13.8625 -2.2 1.5
    endloop
  endfacet
  facet normal 0.0489209 0.998803 0
    outer loop
      vertex -13.8821 -2.19904 1.5
      vertex -13.8625 -2.2 1.1
      vertex -13.8821 -2.19904 1.1
    endloop
  endfacet
  facet normal -0.672622 0.739986 0
    outer loop
      vertex 14.0039 -2.14142 1.1
      vertex 13.9894 -2.1546 1.5
      vertex 14.0039 -2.14142 1.5
    endloop
  endfacet
  facet normal -0.672622 0.739986 0
    outer loop
      vertex 13.9894 -2.1546 1.5
      vertex 14.0039 -2.14142 1.1
      vertex 13.9894 -2.1546 1.1
    endloop
  endfacet
  facet normal 0.857448 0.514571 0
    outer loop
      vertex -14.0288 -2.11111 1.5
      vertex -14.0389 -2.09428 1.1
      vertex -14.0389 -2.09428 1.5
    endloop
  endfacet
  facet normal 0.857448 0.514571 0
    outer loop
      vertex -14.0389 -2.09428 1.1
      vertex -14.0288 -2.11111 1.5
      vertex -14.0288 -2.11111 1.1
    endloop
  endfacet
  facet normal 0.594777 0.803891 -0
    outer loop
      vertex -13.9736 -2.16629 1.1
      vertex -13.9894 -2.1546 1.5
      vertex -13.9736 -2.16629 1.5
    endloop
  endfacet
  facet normal 0.594777 0.803891 0
    outer loop
      vertex -13.9894 -2.1546 1.5
      vertex -13.9736 -2.16629 1.1
      vertex -13.9894 -2.1546 1.1
    endloop
  endfacet
  facet normal 0.672622 0.739986 -0
    outer loop
      vertex -13.9894 -2.1546 1.1
      vertex -14.0039 -2.14142 1.5
      vertex -13.9894 -2.1546 1.5
    endloop
  endfacet
  facet normal 0.672622 0.739986 0
    outer loop
      vertex -14.0039 -2.14142 1.5
      vertex -13.9894 -2.1546 1.1
      vertex -14.0039 -2.14142 1.1
    endloop
  endfacet
  facet normal 0 0 1
    outer loop
      vertex 14.0615 -1.9804 1.1
      vertex 14.0615 -2.0196 1.1
      vertex 14.0625 -2 1.1
    endloop
  endfacet
  facet normal 0 0 1
    outer loop
      vertex 14.0587 -1.96098 1.1
      vertex 14.0615 -2.0196 1.1
      vertex 14.0615 -1.9804 1.1
    endloop
  endfacet
  facet normal 0 0 1
    outer loop
      vertex 14.0587 -1.96098 1.1
      vertex 14.0587 -2.03902 1.1
      vertex 14.0615 -2.0196 1.1
    endloop
  endfacet
  facet normal 0 0 1
    outer loop
      vertex 14.0539 -1.94194 1.1
      vertex 14.0587 -2.03902 1.1
      vertex 14.0587 -1.96098 1.1
    endloop
  endfacet
  facet normal 0 0 1
    outer loop
      vertex 14.0539 -1.94194 1.1
      vertex 14.0539 -2.05806 1.1
      vertex 14.0587 -2.03902 1.1
    endloop
  endfacet
  facet normal 0 0 1
    outer loop
      vertex 14.0473 -1.92346 1.1
      vertex 14.0539 -2.05806 1.1
      vertex 14.0539 -1.94194 1.1
    endloop
  endfacet
  facet normal 0 0 1
    outer loop
      vertex 14.0473 -1.92346 1.1
      vertex 14.0473 -2.07654 1.1
      vertex 14.0539 -2.05806 1.1
    endloop
  endfacet
  facet normal 0 0 1
    outer loop
      vertex 14.0389 -1.90572 1.1
      vertex 14.0473 -2.07654 1.1
      vertex 14.0473 -1.92346 1.1
    endloop
  endfacet
  facet normal 0 0 1
    outer loop
      vertex 14.0389 -1.90572 1.1
      vertex 14.0389 -2.09428 1.1
      vertex 14.0473 -2.07654 1.1
    endloop
  endfacet
  facet normal 0 0 1
    outer loop
      vertex 14.0288 -1.88889 1.1
      vertex 14.0389 -2.09428 1.1
      vertex 14.0389 -1.90572 1.1
    endloop
  endfacet
  facet normal 0 0 1
    outer loop
      vertex 14.0288 -1.88889 1.1
      vertex 14.0288 -2.11111 1.1
      vertex 14.0389 -2.09428 1.1
    endloop
  endfacet
  facet normal 0 0 1
    outer loop
      vertex 14.0171 -1.87312 1.1
      vertex 14.0288 -2.11111 1.1
      vertex 14.0288 -1.88889 1.1
    endloop
  endfacet
  facet normal 0 0 1
    outer loop
      vertex 14.0171 -1.87312 1.1
      vertex 14.0171 -2.12688 1.1
      vertex 14.0288 -2.11111 1.1
    endloop
  endfacet
  facet normal 0 0 1
    outer loop
      vertex 14.0039 -1.85858 1.1
      vertex 14.0171 -2.12688 1.1
      vertex 14.0171 -1.87312 1.1
    endloop
  endfacet
  facet normal 0 0 1
    outer loop
      vertex 14.0039 -1.85858 1.1
      vertex 14.0039 -2.14142 1.1
      vertex 14.0171 -2.12688 1.1
    endloop
  endfacet
  facet normal 0 0 1
    outer loop
      vertex 13.9894 -1.8454 1.1
      vertex 14.0039 -2.14142 1.1
      vertex 14.0039 -1.85858 1.1
    endloop
  endfacet
  facet normal 0 0 1
    outer loop
      vertex 13.9894 -1.8454 1.1
      vertex 13.9894 -2.1546 1.1
      vertex 14.0039 -2.14142 1.1
    endloop
  endfacet
  facet normal 0 0 1
    outer loop
      vertex 13.9736 -1.83371 1.1
      vertex 13.9894 -2.1546 1.1
      vertex 13.9894 -1.8454 1.1
    endloop
  endfacet
  facet normal 0 0 1
    outer loop
      vertex 13.9736 -1.83371 1.1
      vertex 13.9736 -2.16629 1.1
      vertex 13.9894 -2.1546 1.1
    endloop
  endfacet
  facet normal 0 0 1
    outer loop
      vertex 13.9568 -1.82362 1.1
      vertex 13.9736 -2.16629 1.1
      vertex 13.9736 -1.83371 1.1
    endloop
  endfacet
  facet normal 0 0 1
    outer loop
      vertex 13.9568 -1.82362 1.1
      vertex 13.9568 -2.17638 1.1
      vertex 13.9736 -2.16629 1.1
    endloop
  endfacet
  facet normal 0 0 1
    outer loop
      vertex 13.939 -1.81522 1.1
      vertex 13.9568 -2.17638 1.1
      vertex 13.9568 -1.82362 1.1
    endloop
  endfacet
  facet normal 0 0 1
    outer loop
      vertex 13.939 -1.81522 1.1
      vertex 13.939 -2.18478 1.1
      vertex 13.9568 -2.17638 1.1
    endloop
  endfacet
  facet normal 0 0 1
    outer loop
      vertex 13.9206 -1.80861 1.1
      vertex 13.939 -2.18478 1.1
      vertex 13.939 -1.81522 1.1
    endloop
  endfacet
  facet normal 0 0 1
    outer loop
      vertex 13.9206 -1.80861 1.1
      vertex 13.9206 -2.19139 1.1
      vertex 13.939 -2.18478 1.1
    endloop
  endfacet
  facet normal 0 0 1
    outer loop
      vertex 13.9015 -1.80384 1.1
      vertex 13.9206 -2.19139 1.1
      vertex 13.9206 -1.80861 1.1
    endloop
  endfacet
  facet normal 0 0 1
    outer loop
      vertex 13.9015 -1.80384 1.1
      vertex 13.9015 -2.19616 1.1
      vertex 13.9206 -2.19139 1.1
    endloop
  endfacet
  facet normal 0 0 1
    outer loop
      vertex 13.8821 -1.80096 1.1
      vertex 13.9015 -2.19616 1.1
      vertex 13.9015 -1.80384 1.1
    endloop
  endfacet
  facet normal 0 0 1
    outer loop
      vertex 13.8821 -1.80096 1.1
      vertex 13.8821 -2.19904 1.1
      vertex 13.9015 -2.19616 1.1
    endloop
  endfacet
  facet normal 0 0 1
    outer loop
      vertex 13.8625 -1.8 1.1
      vertex 13.8821 -2.19904 1.1
      vertex 13.8821 -1.80096 1.1
    endloop
  endfacet
  facet normal 0 0 1
    outer loop
      vertex 13.8625 -1.8 1.1
      vertex 13.8625 -2.2 1.1
      vertex 13.8821 -2.19904 1.1
    endloop
  endfacet
  facet normal -0 0 1
    outer loop
      vertex -13.8625 -1.8 1.1
      vertex 13.8625 -2.2 1.1
      vertex 13.8625 -1.8 1.1
    endloop
  endfacet
  facet normal 0 0 1
    outer loop
      vertex -13.8625 -1.8 1.1
      vertex -13.8625 -2.2 1.1
      vertex 13.8625 -2.2 1.1
    endloop
  endfacet
  facet normal -0 0 1
    outer loop
      vertex -13.8821 -1.80096 1.1
      vertex -13.8625 -2.2 1.1
      vertex -13.8625 -1.8 1.1
    endloop
  endfacet
  facet normal 0 0 1
    outer loop
      vertex -13.8821 -1.80096 1.1
      vertex -13.8821 -2.19904 1.1
      vertex -13.8625 -2.2 1.1
    endloop
  endfacet
  facet normal -0 0 1
    outer loop
      vertex -13.9015 -1.80384 1.1
      vertex -13.8821 -2.19904 1.1
      vertex -13.8821 -1.80096 1.1
    endloop
  endfacet
  facet normal 0 0 1
    outer loop
      vertex -13.9015 -1.80384 1.1
      vertex -13.9015 -2.19616 1.1
      vertex -13.8821 -2.19904 1.1
    endloop
  endfacet
  facet normal -0 0 1
    outer loop
      vertex -13.9206 -1.80861 1.1
      vertex -13.9015 -2.19616 1.1
      vertex -13.9015 -1.80384 1.1
    endloop
  endfacet
  facet normal 0 0 1
    outer loop
      vertex -13.9206 -1.80861 1.1
      vertex -13.9206 -2.19139 1.1
      vertex -13.9015 -2.19616 1.1
    endloop
  endfacet
  facet normal -0 0 1
    outer loop
      vertex -13.939 -1.81522 1.1
      vertex -13.9206 -2.19139 1.1
      vertex -13.9206 -1.80861 1.1
    endloop
  endfacet
  facet normal 0 0 1
    outer loop
      vertex -13.939 -1.81522 1.1
      vertex -13.939 -2.18478 1.1
      vertex -13.9206 -2.19139 1.1
    endloop
  endfacet
  facet normal -0 0 1
    outer loop
      vertex -13.9568 -1.82362 1.1
      vertex -13.939 -2.18478 1.1
      vertex -13.939 -1.81522 1.1
    endloop
  endfacet
  facet normal 0 0 1
    outer loop
      vertex -13.9568 -1.82362 1.1
      vertex -13.9568 -2.17638 1.1
      vertex -13.939 -2.18478 1.1
    endloop
  endfacet
  facet normal -0 0 1
    outer loop
      vertex -13.9736 -1.83371 1.1
      vertex -13.9568 -2.17638 1.1
      vertex -13.9568 -1.82362 1.1
    endloop
  endfacet
  facet normal 0 0 1
    outer loop
      vertex -13.9736 -1.83371 1.1
      vertex -13.9736 -2.16629 1.1
      vertex -13.9568 -2.17638 1.1
    endloop
  endfacet
  facet normal -0 0 1
    outer loop
      vertex -13.9894 -1.8454 1.1
      vertex -13.9736 -2.16629 1.1
      vertex -13.9736 -1.83371 1.1
    endloop
  endfacet
  facet normal 0 0 1
    outer loop
      vertex -13.9894 -1.8454 1.1
      vertex -13.9894 -2.1546 1.1
      vertex -13.9736 -2.16629 1.1
    endloop
  endfacet
  facet normal -0 0 1
    outer loop
      vertex -14.0039 -1.85858 1.1
      vertex -13.9894 -2.1546 1.1
      vertex -13.9894 -1.8454 1.1
    endloop
  endfacet
  facet normal 0 0 1
    outer loop
      vertex -14.0039 -1.85858 1.1
      vertex -14.0039 -2.14142 1.1
      vertex -13.9894 -2.1546 1.1
    endloop
  endfacet
  facet normal -0 0 1
    outer loop
      vertex -14.0171 -1.87312 1.1
      vertex -14.0039 -2.14142 1.1
      vertex -14.0039 -1.85858 1.1
    endloop
  endfacet
  facet normal 0 0 1
    outer loop
      vertex -14.0171 -1.87312 1.1
      vertex -14.0171 -2.12688 1.1
      vertex -14.0039 -2.14142 1.1
    endloop
  endfacet
  facet normal -0 0 1
    outer loop
      vertex -14.0288 -1.88889 1.1
      vertex -14.0171 -2.12688 1.1
      vertex -14.0171 -1.87312 1.1
    endloop
  endfacet
  facet normal 0 0 1
    outer loop
      vertex -14.0288 -1.88889 1.1
      vertex -14.0288 -2.11111 1.1
      vertex -14.0171 -2.12688 1.1
    endloop
  endfacet
  facet normal -0 0 1
    outer loop
      vertex -14.0389 -1.90572 1.1
      vertex -14.0288 -2.11111 1.1
      vertex -14.0288 -1.88889 1.1
    endloop
  endfacet
  facet normal 0 0 1
    outer loop
      vertex -14.0389 -1.90572 1.1
      vertex -14.0389 -2.09428 1.1
      vertex -14.0288 -2.11111 1.1
    endloop
  endfacet
  facet normal -0 0 1
    outer loop
      vertex -14.0473 -1.92346 1.1
      vertex -14.0389 -2.09428 1.1
      vertex -14.0389 -1.90572 1.1
    endloop
  endfacet
  facet normal 0 0 1
    outer loop
      vertex -14.0473 -1.92346 1.1
      vertex -14.0473 -2.07654 1.1
      vertex -14.0389 -2.09428 1.1
    endloop
  endfacet
  facet normal -0 0 1
    outer loop
      vertex -14.0539 -1.94194 1.1
      vertex -14.0473 -2.07654 1.1
      vertex -14.0473 -1.92346 1.1
    endloop
  endfacet
  facet normal 0 0 1
    outer loop
      vertex -14.0539 -1.94194 1.1
      vertex -14.0539 -2.05806 1.1
      vertex -14.0473 -2.07654 1.1
    endloop
  endfacet
  facet normal -0 0 1
    outer loop
      vertex -14.0587 -1.96098 1.1
      vertex -14.0539 -2.05806 1.1
      vertex -14.0539 -1.94194 1.1
    endloop
  endfacet
  facet normal 0 0 1
    outer loop
      vertex -14.0587 -1.96098 1.1
      vertex -14.0587 -2.03902 1.1
      vertex -14.0539 -2.05806 1.1
    endloop
  endfacet
  facet normal -0 0 1
    outer loop
      vertex -14.0615 -1.9804 1.1
      vertex -14.0587 -2.03902 1.1
      vertex -14.0587 -1.96098 1.1
    endloop
  endfacet
  facet normal 0 0 1
    outer loop
      vertex -14.0615 -1.9804 1.1
      vertex -14.0615 -2.0196 1.1
      vertex -14.0587 -2.03902 1.1
    endloop
  endfacet
  facet normal 0 -0 1
    outer loop
      vertex -14.0615 -2.0196 1.1
      vertex -14.0615 -1.9804 1.1
      vertex -14.0625 -2 1.1
    endloop
  endfacet
  facet normal 0.941742 0.336336 0
    outer loop
      vertex -14.0473 -2.07654 1.5
      vertex -14.0539 -2.05806 1.1
      vertex -14.0539 -2.05806 1.5
    endloop
  endfacet
  facet normal 0.941742 0.336336 0
    outer loop
      vertex -14.0539 -2.05806 1.1
      vertex -14.0473 -2.07654 1.5
      vertex -14.0473 -2.07654 1.1
    endloop
  endfacet
endsolid OpenSCAD_Model
