solid OpenSCAD_Model
  facet normal 0 0 -1
    outer loop
      vertex -6.25 -1.4375 0
      vertex 6.25 1.4375 0
      vertex 6.25 -1.4375 0
    endloop
  endfacet
  facet normal -0 0 -1
    outer loop
      vertex 6.25 1.4375 0
      vertex -6.25 -1.4375 0
      vertex -6.25 1.4375 0
    endloop
  endfacet
  facet normal 1 -0 0
    outer loop
      vertex 6.25 -1.4375 7
      vertex 6.25 1.4375 0
      vertex 6.25 1.4375 7
    endloop
  endfacet
  facet normal 1 0 0
    outer loop
      vertex 6.25 1.4375 0
      vertex 6.25 -1.4375 7
      vertex 6.25 -1.4375 0
    endloop
  endfacet
  facet normal -0 0 1
    outer loop
      vertex -6.25 1.4375 7
      vertex 6.25 -1.4375 7
      vertex 6.25 1.4375 7
    endloop
  endfacet
  facet normal 0 0 1
    outer loop
      vertex 6.25 -1.4375 7
      vertex -6.25 1.4375 7
      vertex -6.25 -1.4375 7
    endloop
  endfacet
  facet normal 0 -1 0
    outer loop
      vertex -6.25 -1.4375 0
      vertex 6.25 -1.4375 7
      vertex -6.25 -1.4375 7
    endloop
  endfacet
  facet normal 0 -1 -0
    outer loop
      vertex 6.25 -1.4375 7
      vertex -6.25 -1.4375 0
      vertex 6.25 -1.4375 0
    endloop
  endfacet
  facet normal -1 0 0
    outer loop
      vertex -6.25 -1.4375 0
      vertex -6.25 1.4375 7
      vertex -6.25 1.4375 0
    endloop
  endfacet
  facet normal -1 -0 0
    outer loop
      vertex -6.25 1.4375 7
      vertex -6.25 -1.4375 0
      vertex -6.25 -1.4375 7
    endloop
  endfacet
  facet normal 0 1 -0
    outer loop
      vertex 6.25 1.4375 0
      vertex -6.25 1.4375 7
      vertex 6.25 1.4375 7
    endloop
  endfacet
  facet normal 0 1 0
    outer loop
      vertex -6.25 1.4375 7
      vertex 6.25 1.4375 0
      vertex -6.25 1.4375 0
    endloop
  endfacet
endsolid OpenSCAD_Model
