solid OpenSCAD_Model
  facet normal 0 0 -1
    outer loop
      vertex 9.375 -20.5625 0
      vertex 7.57394 -20.474 0
      vertex 9.375 -2.1875 0
    endloop
  endfacet
  facet normal 0 0 -1
    outer loop
      vertex 9.375 -2.1875 0
      vertex 12.5 2.1875 0
      vertex 12.5 -2.1875 0
    endloop
  endfacet
  facet normal 0 0 -1
    outer loop
      vertex 5.79022 -20.2094 0
      vertex 9.375 -2.1875 0
      vertex 7.57394 -20.474 0
    endloop
  endfacet
  facet normal 0 0 -1
    outer loop
      vertex 4.04103 -19.7713 0
      vertex 9.375 -2.1875 0
      vertex 5.79022 -20.2094 0
    endloop
  endfacet
  facet normal 0 0 -1
    outer loop
      vertex 2.3432 -19.1638 0
      vertex 9.375 -2.1875 0
      vertex 4.04103 -19.7713 0
    endloop
  endfacet
  facet normal 0 0 -1
    outer loop
      vertex 0.713089 -18.3928 0
      vertex 9.375 -2.1875 0
      vertex 2.3432 -19.1638 0
    endloop
  endfacet
  facet normal 0 0 -1
    outer loop
      vertex -0.833603 -17.4657 0
      vertex 9.375 -2.1875 0
      vertex 0.713089 -18.3928 0
    endloop
  endfacet
  facet normal 0 0 -1
    outer loop
      vertex -2.28197 -16.3916 0
      vertex 9.375 -2.1875 0
      vertex -0.833603 -17.4657 0
    endloop
  endfacet
  facet normal 0 0 -1
    outer loop
      vertex -3.61807 -15.1806 0
      vertex 9.375 -2.1875 0
      vertex -2.28197 -16.3916 0
    endloop
  endfacet
  facet normal 0 0 -1
    outer loop
      vertex -4.82906 -13.8445 0
      vertex 9.375 -2.1875 0
      vertex -3.61807 -15.1806 0
    endloop
  endfacet
  facet normal 0 0 -1
    outer loop
      vertex -5.90324 -12.3961 0
      vertex 9.375 -2.1875 0
      vertex -4.82906 -13.8445 0
    endloop
  endfacet
  facet normal 0 0 -1
    outer loop
      vertex -6.83029 -10.8494 0
      vertex 9.375 -2.1875 0
      vertex -5.90324 -12.3961 0
    endloop
  endfacet
  facet normal 0 0 -1
    outer loop
      vertex -7.60127 -9.2193 0
      vertex 9.375 -2.1875 0
      vertex -6.83029 -10.8494 0
    endloop
  endfacet
  facet normal 0 0 -1
    outer loop
      vertex -8.20877 -7.52147 0
      vertex 9.375 -2.1875 0
      vertex -7.60127 -9.2193 0
    endloop
  endfacet
  facet normal 0 0 -1
    outer loop
      vertex -8.64693 -5.77228 0
      vertex 9.375 -2.1875 0
      vertex -8.20877 -7.52147 0
    endloop
  endfacet
  facet normal 0 0 -1
    outer loop
      vertex -8.91151 -3.98856 0
      vertex 9.375 -2.1875 0
      vertex -8.64693 -5.77228 0
    endloop
  endfacet
  facet normal 0 0 -1
    outer loop
      vertex -9 -2.1875 0
      vertex 9.375 -2.1875 0
      vertex -8.91151 -3.98856 0
    endloop
  endfacet
  facet normal 0 0 -1
    outer loop
      vertex 9.375 -2.1875 0
      vertex -9 -2.1875 0
      vertex 12.5 2.1875 0
    endloop
  endfacet
  facet normal 0 0 -1
    outer loop
      vertex -12.5 2.1875 0
      vertex -9 -2.1875 0
      vertex -12.5 -2.1875 0
    endloop
  endfacet
  facet normal 0 0 -1
    outer loop
      vertex -9 -2.1875 0
      vertex -12.5 2.1875 0
      vertex 12.5 2.1875 0
    endloop
  endfacet
  facet normal 1 0 0
    outer loop
      vertex -9.375 2.1875 7
      vertex -9.375 -1.1875 1.5
      vertex -9.375 2.1875 1.5
    endloop
  endfacet
  facet normal 1 -0 0
    outer loop
      vertex -9.375 -2.1875 7
      vertex -9.375 -1.1875 1.5
      vertex -9.375 2.1875 7
    endloop
  endfacet
  facet normal 1 0 0
    outer loop
      vertex -9.375 -1.1875 1.5
      vertex -9.375 -2.1875 7
      vertex -9.375 -2.1875 1.5
    endloop
  endfacet
  facet normal 0 -1 0
    outer loop
      vertex 9.375 -2.1875 1.5
      vertex 12.5 -2.1875 7
      vertex 9.375 -2.1875 7
    endloop
  endfacet
  facet normal 0 -1 0
    outer loop
      vertex 12.5 -2.1875 0
      vertex 9.375 -2.1875 1.5
      vertex 9.375 -2.1875 0
    endloop
  endfacet
  facet normal 0 -1 0
    outer loop
      vertex 9.375 -2.1875 1.5
      vertex 12.5 -2.1875 0
      vertex 12.5 -2.1875 7
    endloop
  endfacet
  facet normal 0 -1 0
    outer loop
      vertex -12.5 -2.1875 7
      vertex -9.375 -2.1875 1.5
      vertex -9.375 -2.1875 7
    endloop
  endfacet
  facet normal 0 -1 0
    outer loop
      vertex -12.5 -2.1875 0
      vertex -9.375 -2.1875 1.5
      vertex -12.5 -2.1875 7
    endloop
  endfacet
  facet normal 0 -1 0
    outer loop
      vertex -9 -2.1875 0
      vertex -9.375 -2.1875 1.5
      vertex -12.5 -2.1875 0
    endloop
  endfacet
  facet normal 0 -1 0
    outer loop
      vertex -9.375 -2.1875 1.5
      vertex -9 -2.1875 0
      vertex -9 -2.1875 1.5
    endloop
  endfacet
  facet normal -0 0 1
    outer loop
      vertex -12.5 2.1875 7
      vertex -9.375 -2.1875 7
      vertex -9.375 2.1875 7
    endloop
  endfacet
  facet normal 0 0 1
    outer loop
      vertex -9.375 -2.1875 7
      vertex -12.5 2.1875 7
      vertex -12.5 -2.1875 7
    endloop
  endfacet
  facet normal -1 0 0
    outer loop
      vertex -12.5 -2.1875 0
      vertex -12.5 2.1875 7
      vertex -12.5 2.1875 0
    endloop
  endfacet
  facet normal -1 -0 0
    outer loop
      vertex -12.5 2.1875 7
      vertex -12.5 -2.1875 0
      vertex -12.5 -2.1875 7
    endloop
  endfacet
  facet normal 0 1 0
    outer loop
      vertex 12.5 2.1875 7
      vertex 9.375 2.1875 1.5
      vertex 9.375 2.1875 7
    endloop
  endfacet
  facet normal 0 1 0
    outer loop
      vertex 9.375 2.1875 1.5
      vertex 12.5 2.1875 0
      vertex -9.375 2.1875 1.5
    endloop
  endfacet
  facet normal 0 1 -0
    outer loop
      vertex 12.5 2.1875 0
      vertex 9.375 2.1875 1.5
      vertex 12.5 2.1875 7
    endloop
  endfacet
  facet normal 0 1 -0
    outer loop
      vertex -9.375 2.1875 1.5
      vertex -12.5 2.1875 7
      vertex -9.375 2.1875 7
    endloop
  endfacet
  facet normal 0 1 0
    outer loop
      vertex -9.375 2.1875 1.5
      vertex -12.5 2.1875 0
      vertex -12.5 2.1875 7
    endloop
  endfacet
  facet normal 0 1 0
    outer loop
      vertex -12.5 2.1875 0
      vertex -9.375 2.1875 1.5
      vertex 12.5 2.1875 0
    endloop
  endfacet
  facet normal 1 -0 0
    outer loop
      vertex 12.5 -2.1875 7
      vertex 12.5 2.1875 0
      vertex 12.5 2.1875 7
    endloop
  endfacet
  facet normal 1 0 0
    outer loop
      vertex 12.5 2.1875 0
      vertex 12.5 -2.1875 7
      vertex 12.5 -2.1875 0
    endloop
  endfacet
  facet normal -0 0 1
    outer loop
      vertex 9.375 2.1875 7
      vertex 12.5 -2.1875 7
      vertex 12.5 2.1875 7
    endloop
  endfacet
  facet normal 0 0 1
    outer loop
      vertex 12.5 -2.1875 7
      vertex 9.375 2.1875 7
      vertex 9.375 -2.1875 7
    endloop
  endfacet
  facet normal -1 0 0
    outer loop
      vertex 9.375 -1.1875 1.5
      vertex 9.375 2.1875 7
      vertex 9.375 2.1875 1.5
    endloop
  endfacet
  facet normal -1 0 0
    outer loop
      vertex 9.375 -2.1875 7
      vertex 9.375 -1.1875 1.5
      vertex 9.375 -2.1875 1.5
    endloop
  endfacet
  facet normal -1 0 0
    outer loop
      vertex 9.375 -1.1875 1.5
      vertex 9.375 -2.1875 7
      vertex 9.375 2.1875 7
    endloop
  endfacet
  facet normal -0 0 1
    outer loop
      vertex 9.37404 -1.2071 1.5
      vertex 9.375 -2.1875 1.5
      vertex 9.375 -1.1875 1.5
    endloop
  endfacet
  facet normal -0 0 1
    outer loop
      vertex 9.37116 -1.22652 1.5
      vertex 9.375 -2.1875 1.5
      vertex 9.37404 -1.2071 1.5
    endloop
  endfacet
  facet normal -0 0 1
    outer loop
      vertex 9.36639 -1.24556 1.5
      vertex 9.375 -2.1875 1.5
      vertex 9.37116 -1.22652 1.5
    endloop
  endfacet
  facet normal -0 0 1
    outer loop
      vertex 9.35978 -1.26404 1.5
      vertex 9.375 -2.1875 1.5
      vertex 9.36639 -1.24556 1.5
    endloop
  endfacet
  facet normal -0 0 1
    outer loop
      vertex 9.35138 -1.28178 1.5
      vertex 9.375 -2.1875 1.5
      vertex 9.35978 -1.26404 1.5
    endloop
  endfacet
  facet normal -0 0 1
    outer loop
      vertex 9.34129 -1.29861 1.5
      vertex 9.375 -2.1875 1.5
      vertex 9.35138 -1.28178 1.5
    endloop
  endfacet
  facet normal -0 0 1
    outer loop
      vertex 9.3296 -1.31438 1.5
      vertex 9.375 -2.1875 1.5
      vertex 9.34129 -1.29861 1.5
    endloop
  endfacet
  facet normal -0 0 1
    outer loop
      vertex 9.31642 -1.32892 1.5
      vertex 9.375 -2.1875 1.5
      vertex 9.3296 -1.31438 1.5
    endloop
  endfacet
  facet normal -0 0 1
    outer loop
      vertex 9.30188 -1.3421 1.5
      vertex 9.375 -2.1875 1.5
      vertex 9.31642 -1.32892 1.5
    endloop
  endfacet
  facet normal -0 0 1
    outer loop
      vertex 9.28611 -1.35379 1.5
      vertex 9.375 -2.1875 1.5
      vertex 9.30188 -1.3421 1.5
    endloop
  endfacet
  facet normal -0 0 1
    outer loop
      vertex 9.26928 -1.36388 1.5
      vertex 9.375 -2.1875 1.5
      vertex 9.28611 -1.35379 1.5
    endloop
  endfacet
  facet normal -0 0 1
    outer loop
      vertex 9.25154 -1.37228 1.5
      vertex 9.375 -2.1875 1.5
      vertex 9.26928 -1.36388 1.5
    endloop
  endfacet
  facet normal -0 0 1
    outer loop
      vertex 9.23306 -1.37889 1.5
      vertex 9.375 -2.1875 1.5
      vertex 9.25154 -1.37228 1.5
    endloop
  endfacet
  facet normal -0 0 1
    outer loop
      vertex 9.21402 -1.38366 1.5
      vertex 9.375 -2.1875 1.5
      vertex 9.23306 -1.37889 1.5
    endloop
  endfacet
  facet normal -0 0 1
    outer loop
      vertex 9.1946 -1.38654 1.5
      vertex 9.375 -2.1875 1.5
      vertex 9.21402 -1.38366 1.5
    endloop
  endfacet
  facet normal -0 0 1
    outer loop
      vertex 9.175 -1.3875 1.5
      vertex 9.375 -2.1875 1.5
      vertex 9.1946 -1.38654 1.5
    endloop
  endfacet
  facet normal 0 0 1
    outer loop
      vertex -8.64693 -5.77228 1.5
      vertex 9.375 -2.1875 1.5
      vertex 9.175 -1.3875 1.5
    endloop
  endfacet
  facet normal 0 0 1
    outer loop
      vertex 9.375 -2.1875 1.5
      vertex 7.57394 -20.474 1.5
      vertex 9.375 -20.5625 1.5
    endloop
  endfacet
  facet normal 0 0 1
    outer loop
      vertex 9.375 -2.1875 1.5
      vertex 5.79022 -20.2094 1.5
      vertex 7.57394 -20.474 1.5
    endloop
  endfacet
  facet normal 0 0 1
    outer loop
      vertex 9.375 -2.1875 1.5
      vertex 4.04103 -19.7713 1.5
      vertex 5.79022 -20.2094 1.5
    endloop
  endfacet
  facet normal 0 0 1
    outer loop
      vertex 9.375 -2.1875 1.5
      vertex 2.3432 -19.1638 1.5
      vertex 4.04103 -19.7713 1.5
    endloop
  endfacet
  facet normal 0 0 1
    outer loop
      vertex 9.375 -2.1875 1.5
      vertex 0.713089 -18.3928 1.5
      vertex 2.3432 -19.1638 1.5
    endloop
  endfacet
  facet normal 0 0 1
    outer loop
      vertex 9.375 -2.1875 1.5
      vertex -0.833603 -17.4657 1.5
      vertex 0.713089 -18.3928 1.5
    endloop
  endfacet
  facet normal 0 0 1
    outer loop
      vertex 9.375 -2.1875 1.5
      vertex -2.28197 -16.3916 1.5
      vertex -0.833603 -17.4657 1.5
    endloop
  endfacet
  facet normal 0 0 1
    outer loop
      vertex 9.375 -2.1875 1.5
      vertex -3.61807 -15.1806 1.5
      vertex -2.28197 -16.3916 1.5
    endloop
  endfacet
  facet normal 0 0 1
    outer loop
      vertex 9.375 -2.1875 1.5
      vertex -4.82906 -13.8445 1.5
      vertex -3.61807 -15.1806 1.5
    endloop
  endfacet
  facet normal 0 0 1
    outer loop
      vertex 9.375 -2.1875 1.5
      vertex -5.90324 -12.3961 1.5
      vertex -4.82906 -13.8445 1.5
    endloop
  endfacet
  facet normal 0 0 1
    outer loop
      vertex 9.375 -2.1875 1.5
      vertex -6.83029 -10.8494 1.5
      vertex -5.90324 -12.3961 1.5
    endloop
  endfacet
  facet normal 0 0 1
    outer loop
      vertex 9.375 -2.1875 1.5
      vertex -7.60127 -9.2193 1.5
      vertex -6.83029 -10.8494 1.5
    endloop
  endfacet
  facet normal 0 0 1
    outer loop
      vertex 9.375 -2.1875 1.5
      vertex -8.20877 -7.52147 1.5
      vertex -7.60127 -9.2193 1.5
    endloop
  endfacet
  facet normal 0 0 1
    outer loop
      vertex 9.375 -2.1875 1.5
      vertex -8.64693 -5.77228 1.5
      vertex -8.20877 -7.52147 1.5
    endloop
  endfacet
  facet normal 0 0 1
    outer loop
      vertex 9.175 -1.3875 1.5
      vertex -8.91151 -3.98856 1.5
      vertex -8.64693 -5.77228 1.5
    endloop
  endfacet
  facet normal 0 0 1
    outer loop
      vertex 9.175 -1.3875 1.5
      vertex -9 -2.1875 1.5
      vertex -8.91151 -3.98856 1.5
    endloop
  endfacet
  facet normal -0 0 1
    outer loop
      vertex -9.175 -1.3875 1.5
      vertex -9 -2.1875 1.5
      vertex 9.175 -1.3875 1.5
    endloop
  endfacet
  facet normal 0 0 1
    outer loop
      vertex -9.375 -2.1875 1.5
      vertex -9.175 -1.3875 1.5
      vertex -9.1946 -1.38654 1.5
    endloop
  endfacet
  facet normal 0 0 1
    outer loop
      vertex -9.375 -2.1875 1.5
      vertex -9.1946 -1.38654 1.5
      vertex -9.21402 -1.38366 1.5
    endloop
  endfacet
  facet normal 0 0 1
    outer loop
      vertex -9.375 -2.1875 1.5
      vertex -9.21402 -1.38366 1.5
      vertex -9.23306 -1.37889 1.5
    endloop
  endfacet
  facet normal 0 0 1
    outer loop
      vertex -9.375 -2.1875 1.5
      vertex -9.23306 -1.37889 1.5
      vertex -9.25154 -1.37228 1.5
    endloop
  endfacet
  facet normal 0 0 1
    outer loop
      vertex -9.375 -2.1875 1.5
      vertex -9.25154 -1.37228 1.5
      vertex -9.26928 -1.36388 1.5
    endloop
  endfacet
  facet normal 0 0 1
    outer loop
      vertex -9.375 -2.1875 1.5
      vertex -9.26928 -1.36388 1.5
      vertex -9.28611 -1.35379 1.5
    endloop
  endfacet
  facet normal 0 0 1
    outer loop
      vertex -9.375 -2.1875 1.5
      vertex -9.28611 -1.35379 1.5
      vertex -9.30188 -1.3421 1.5
    endloop
  endfacet
  facet normal 0 0 1
    outer loop
      vertex -9.375 -2.1875 1.5
      vertex -9.30188 -1.3421 1.5
      vertex -9.31642 -1.32892 1.5
    endloop
  endfacet
  facet normal 0 0 1
    outer loop
      vertex -9.375 -2.1875 1.5
      vertex -9.31642 -1.32892 1.5
      vertex -9.3296 -1.31438 1.5
    endloop
  endfacet
  facet normal 0 0 1
    outer loop
      vertex -9.375 -2.1875 1.5
      vertex -9.3296 -1.31438 1.5
      vertex -9.34129 -1.29861 1.5
    endloop
  endfacet
  facet normal 0 0 1
    outer loop
      vertex -9.375 -2.1875 1.5
      vertex -9.34129 -1.29861 1.5
      vertex -9.35138 -1.28178 1.5
    endloop
  endfacet
  facet normal 0 0 1
    outer loop
      vertex -9.375 -2.1875 1.5
      vertex -9.35138 -1.28178 1.5
      vertex -9.35978 -1.26404 1.5
    endloop
  endfacet
  facet normal 0 0 1
    outer loop
      vertex -9.175 -1.3875 1.5
      vertex -9.375 -2.1875 1.5
      vertex -9 -2.1875 1.5
    endloop
  endfacet
  facet normal 0 0 1
    outer loop
      vertex -9.36639 -1.24556 1.5
      vertex -9.375 -2.1875 1.5
      vertex -9.35978 -1.26404 1.5
    endloop
  endfacet
  facet normal 0 0 1
    outer loop
      vertex -9.37116 -1.22652 1.5
      vertex -9.375 -2.1875 1.5
      vertex -9.36639 -1.24556 1.5
    endloop
  endfacet
  facet normal 0 0 1
    outer loop
      vertex -9.37404 -1.2071 1.5
      vertex -9.375 -2.1875 1.5
      vertex -9.37116 -1.22652 1.5
    endloop
  endfacet
  facet normal 0 0 1
    outer loop
      vertex -9.375 -2.1875 1.5
      vertex -9.37404 -1.2071 1.5
      vertex -9.375 -1.1875 1.5
    endloop
  endfacet
  facet normal 0 0 1
    outer loop
      vertex 9.375 2.1875 1.5
      vertex 9.37404 -1.1679 1.5
      vertex 9.375 -1.1875 1.5
    endloop
  endfacet
  facet normal 0 0 1
    outer loop
      vertex 9.375 2.1875 1.5
      vertex 9.37116 -1.14848 1.5
      vertex 9.37404 -1.1679 1.5
    endloop
  endfacet
  facet normal 0 0 1
    outer loop
      vertex 9.375 2.1875 1.5
      vertex 9.36639 -1.12944 1.5
      vertex 9.37116 -1.14848 1.5
    endloop
  endfacet
  facet normal 0 0 1
    outer loop
      vertex 9.375 2.1875 1.5
      vertex 9.35978 -1.11096 1.5
      vertex 9.36639 -1.12944 1.5
    endloop
  endfacet
  facet normal 0 0 1
    outer loop
      vertex 9.375 2.1875 1.5
      vertex 9.35138 -1.09322 1.5
      vertex 9.35978 -1.11096 1.5
    endloop
  endfacet
  facet normal 0 0 1
    outer loop
      vertex 9.375 2.1875 1.5
      vertex 9.34129 -1.07639 1.5
      vertex 9.35138 -1.09322 1.5
    endloop
  endfacet
  facet normal 0 0 1
    outer loop
      vertex 9.375 2.1875 1.5
      vertex 9.3296 -1.06062 1.5
      vertex 9.34129 -1.07639 1.5
    endloop
  endfacet
  facet normal 0 0 1
    outer loop
      vertex 9.375 2.1875 1.5
      vertex 9.31642 -1.04608 1.5
      vertex 9.3296 -1.06062 1.5
    endloop
  endfacet
  facet normal 0 0 1
    outer loop
      vertex 9.375 2.1875 1.5
      vertex 9.30188 -1.0329 1.5
      vertex 9.31642 -1.04608 1.5
    endloop
  endfacet
  facet normal 0 0 1
    outer loop
      vertex 9.375 2.1875 1.5
      vertex 9.28611 -1.02121 1.5
      vertex 9.30188 -1.0329 1.5
    endloop
  endfacet
  facet normal 0 0 1
    outer loop
      vertex 9.375 2.1875 1.5
      vertex 9.26928 -1.01112 1.5
      vertex 9.28611 -1.02121 1.5
    endloop
  endfacet
  facet normal 0 0 1
    outer loop
      vertex 9.375 2.1875 1.5
      vertex 9.25154 -1.00272 1.5
      vertex 9.26928 -1.01112 1.5
    endloop
  endfacet
  facet normal 0 0 1
    outer loop
      vertex 9.375 2.1875 1.5
      vertex 9.23306 -0.996112 1.5
      vertex 9.25154 -1.00272 1.5
    endloop
  endfacet
  facet normal 0 0 1
    outer loop
      vertex 9.375 2.1875 1.5
      vertex 9.21402 -0.991343 1.5
      vertex 9.23306 -0.996112 1.5
    endloop
  endfacet
  facet normal 0 0 1
    outer loop
      vertex 9.375 2.1875 1.5
      vertex 9.1946 -0.988462 1.5
      vertex 9.21402 -0.991343 1.5
    endloop
  endfacet
  facet normal 0 0 1
    outer loop
      vertex 9.375 2.1875 1.5
      vertex 9.175 -0.987499 1.5
      vertex 9.1946 -0.988462 1.5
    endloop
  endfacet
  facet normal 0 0 1
    outer loop
      vertex 9.375 2.1875 1.5
      vertex -9.175 -0.987499 1.5
      vertex 9.175 -0.987499 1.5
    endloop
  endfacet
  facet normal -0 0 1
    outer loop
      vertex -9.375 2.1875 1.5
      vertex -9.175 -0.987499 1.5
      vertex 9.375 2.1875 1.5
    endloop
  endfacet
  facet normal 0 0 1
    outer loop
      vertex -9.175 -0.987499 1.5
      vertex -9.375 2.1875 1.5
      vertex -9.1946 -0.988462 1.5
    endloop
  endfacet
  facet normal 0 0 1
    outer loop
      vertex -9.1946 -0.988462 1.5
      vertex -9.375 2.1875 1.5
      vertex -9.21402 -0.991343 1.5
    endloop
  endfacet
  facet normal 0 0 1
    outer loop
      vertex -9.375 2.1875 1.5
      vertex -9.23306 -0.996112 1.5
      vertex -9.21402 -0.991343 1.5
    endloop
  endfacet
  facet normal 0 0 1
    outer loop
      vertex -9.375 2.1875 1.5
      vertex -9.25154 -1.00272 1.5
      vertex -9.23306 -0.996112 1.5
    endloop
  endfacet
  facet normal 0 0 1
    outer loop
      vertex -9.375 2.1875 1.5
      vertex -9.26928 -1.01112 1.5
      vertex -9.25154 -1.00272 1.5
    endloop
  endfacet
  facet normal 0 0 1
    outer loop
      vertex -9.375 2.1875 1.5
      vertex -9.28611 -1.02121 1.5
      vertex -9.26928 -1.01112 1.5
    endloop
  endfacet
  facet normal 0 0 1
    outer loop
      vertex -9.375 2.1875 1.5
      vertex -9.30188 -1.0329 1.5
      vertex -9.28611 -1.02121 1.5
    endloop
  endfacet
  facet normal 0 0 1
    outer loop
      vertex -9.375 2.1875 1.5
      vertex -9.31642 -1.04608 1.5
      vertex -9.30188 -1.0329 1.5
    endloop
  endfacet
  facet normal 0 0 1
    outer loop
      vertex -9.375 2.1875 1.5
      vertex -9.3296 -1.06062 1.5
      vertex -9.31642 -1.04608 1.5
    endloop
  endfacet
  facet normal 0 0 1
    outer loop
      vertex -9.375 2.1875 1.5
      vertex -9.34129 -1.07639 1.5
      vertex -9.3296 -1.06062 1.5
    endloop
  endfacet
  facet normal 0 0 1
    outer loop
      vertex -9.375 2.1875 1.5
      vertex -9.35138 -1.09322 1.5
      vertex -9.34129 -1.07639 1.5
    endloop
  endfacet
  facet normal 0 0 1
    outer loop
      vertex -9.375 2.1875 1.5
      vertex -9.35978 -1.11096 1.5
      vertex -9.35138 -1.09322 1.5
    endloop
  endfacet
  facet normal 0 0 1
    outer loop
      vertex -9.375 2.1875 1.5
      vertex -9.36639 -1.12944 1.5
      vertex -9.35978 -1.11096 1.5
    endloop
  endfacet
  facet normal 0 0 1
    outer loop
      vertex -9.375 2.1875 1.5
      vertex -9.37116 -1.14848 1.5
      vertex -9.36639 -1.12944 1.5
    endloop
  endfacet
  facet normal 0 0 1
    outer loop
      vertex -9.375 2.1875 1.5
      vertex -9.37404 -1.1679 1.5
      vertex -9.37116 -1.14848 1.5
    endloop
  endfacet
  facet normal 0 0 1
    outer loop
      vertex -9.37404 -1.1679 1.5
      vertex -9.375 2.1875 1.5
      vertex -9.375 -1.1875 1.5
    endloop
  endfacet
  facet normal -0.998795 -0.049073 0
    outer loop
      vertex -8.91151 -3.98856 0
      vertex -9 -2.1875 1.5
      vertex -9 -2.1875 0
    endloop
  endfacet
  facet normal -0.998795 -0.049073 0
    outer loop
      vertex -9 -2.1875 1.5
      vertex -8.91151 -3.98856 0
      vertex -8.91151 -3.98856 1.5
    endloop
  endfacet
  facet normal -0.803215 -0.59569 0
    outer loop
      vertex -4.82906 -13.8445 0
      vertex -5.90324 -12.3961 1.5
      vertex -5.90324 -12.3961 0
    endloop
  endfacet
  facet normal -0.803215 -0.59569 0
    outer loop
      vertex -5.90324 -12.3961 1.5
      vertex -4.82906 -13.8445 0
      vertex -4.82906 -13.8445 1.5
    endloop
  endfacet
  facet normal -0.0490785 -0.998795 0
    outer loop
      vertex 7.57394 -20.474 0
      vertex 9.375 -20.5625 1.5
      vertex 7.57394 -20.474 1.5
    endloop
  endfacet
  facet normal -0.0490785 -0.998795 -0
    outer loop
      vertex 9.375 -20.5625 1.5
      vertex 7.57394 -20.474 0
      vertex 9.375 -20.5625 0
    endloop
  endfacet
  facet normal 1 -0 0
    outer loop
      vertex 9.375 -20.5625 1.5
      vertex 9.375 -2.1875 0
      vertex 9.375 -2.1875 1.5
    endloop
  endfacet
  facet normal 1 0 0
    outer loop
      vertex 9.375 -2.1875 0
      vertex 9.375 -20.5625 1.5
      vertex 9.375 -20.5625 0
    endloop
  endfacet
  facet normal -0.989177 -0.146725 0
    outer loop
      vertex -8.64693 -5.77228 0
      vertex -8.91151 -3.98856 1.5
      vertex -8.91151 -3.98856 0
    endloop
  endfacet
  facet normal -0.989177 -0.146725 0
    outer loop
      vertex -8.91151 -3.98856 1.5
      vertex -8.64693 -5.77228 0
      vertex -8.64693 -5.77228 1.5
    endloop
  endfacet
  facet normal -0.903989 -0.427555 0
    outer loop
      vertex -6.83029 -10.8494 0
      vertex -7.60127 -9.2193 1.5
      vertex -7.60127 -9.2193 0
    endloop
  endfacet
  facet normal -0.903989 -0.427555 0
    outer loop
      vertex -7.60127 -9.2193 1.5
      vertex -6.83029 -10.8494 0
      vertex -6.83029 -10.8494 1.5
    endloop
  endfacet
  facet normal -0.242954 -0.970038 0
    outer loop
      vertex 4.04103 -19.7713 0
      vertex 5.79022 -20.2094 1.5
      vertex 4.04103 -19.7713 1.5
    endloop
  endfacet
  facet normal -0.242954 -0.970038 -0
    outer loop
      vertex 5.79022 -20.2094 1.5
      vertex 4.04103 -19.7713 0
      vertex 5.79022 -20.2094 0
    endloop
  endfacet
  facet normal -0.427562 -0.903986 0
    outer loop
      vertex 0.713089 -18.3928 0
      vertex 2.3432 -19.1638 1.5
      vertex 0.713089 -18.3928 1.5
    endloop
  endfacet
  facet normal -0.427562 -0.903986 -0
    outer loop
      vertex 2.3432 -19.1638 1.5
      vertex 0.713089 -18.3928 0
      vertex 2.3432 -19.1638 0
    endloop
  endfacet
  facet normal -0.85773 -0.5141 0
    outer loop
      vertex -5.90324 -12.3961 0
      vertex -6.83029 -10.8494 1.5
      vertex -6.83029 -10.8494 0
    endloop
  endfacet
  facet normal -0.85773 -0.5141 0
    outer loop
      vertex -6.83029 -10.8494 1.5
      vertex -5.90324 -12.3961 0
      vertex -5.90324 -12.3961 1.5
    endloop
  endfacet
  facet normal -0.941543 -0.336893 0
    outer loop
      vertex -7.60127 -9.2193 0
      vertex -8.20877 -7.52147 1.5
      vertex -8.20877 -7.52147 0
    endloop
  endfacet
  facet normal -0.941543 -0.336893 0
    outer loop
      vertex -8.20877 -7.52147 1.5
      vertex -7.60127 -9.2193 0
      vertex -7.60127 -9.2193 1.5
    endloop
  endfacet
  facet normal -0.740946 -0.671565 0
    outer loop
      vertex -3.61807 -15.1806 0
      vertex -4.82906 -13.8445 1.5
      vertex -4.82906 -13.8445 0
    endloop
  endfacet
  facet normal -0.740946 -0.671565 0
    outer loop
      vertex -4.82906 -13.8445 1.5
      vertex -3.61807 -15.1806 0
      vertex -3.61807 -15.1806 1.5
    endloop
  endfacet
  facet normal -0.146736 -0.989176 0
    outer loop
      vertex 5.79022 -20.2094 0
      vertex 7.57394 -20.474 1.5
      vertex 5.79022 -20.2094 1.5
    endloop
  endfacet
  facet normal -0.146736 -0.989176 -0
    outer loop
      vertex 7.57394 -20.474 1.5
      vertex 5.79022 -20.2094 0
      vertex 7.57394 -20.474 0
    endloop
  endfacet
  facet normal -0.671568 -0.740943 0
    outer loop
      vertex -3.61807 -15.1806 0
      vertex -2.28197 -16.3916 1.5
      vertex -3.61807 -15.1806 1.5
    endloop
  endfacet
  facet normal -0.671568 -0.740943 -0
    outer loop
      vertex -2.28197 -16.3916 1.5
      vertex -3.61807 -15.1806 0
      vertex -2.28197 -16.3916 0
    endloop
  endfacet
  facet normal -0.514123 -0.857717 0
    outer loop
      vertex -0.833603 -17.4657 0
      vertex 0.713089 -18.3928 1.5
      vertex -0.833603 -17.4657 1.5
    endloop
  endfacet
  facet normal -0.514123 -0.857717 -0
    outer loop
      vertex 0.713089 -18.3928 1.5
      vertex -0.833603 -17.4657 0
      vertex 0.713089 -18.3928 0
    endloop
  endfacet
  facet normal -0.336893 -0.941543 0
    outer loop
      vertex 2.3432 -19.1638 0
      vertex 4.04103 -19.7713 1.5
      vertex 2.3432 -19.1638 1.5
    endloop
  endfacet
  facet normal -0.336893 -0.941543 -0
    outer loop
      vertex 4.04103 -19.7713 1.5
      vertex 2.3432 -19.1638 0
      vertex 4.04103 -19.7713 0
    endloop
  endfacet
  facet normal -0.59567 -0.803229 0
    outer loop
      vertex -2.28197 -16.3916 0
      vertex -0.833603 -17.4657 1.5
      vertex -2.28197 -16.3916 1.5
    endloop
  endfacet
  facet normal -0.59567 -0.803229 -0
    outer loop
      vertex -0.833603 -17.4657 1.5
      vertex -2.28197 -16.3916 0
      vertex -0.833603 -17.4657 0
    endloop
  endfacet
  facet normal -0.97003 -0.242986 0
    outer loop
      vertex -8.20877 -7.52147 0
      vertex -8.64693 -5.77228 1.5
      vertex -8.64693 -5.77228 0
    endloop
  endfacet
  facet normal -0.97003 -0.242986 0
    outer loop
      vertex -8.64693 -5.77228 1.5
      vertex -8.20877 -7.52147 0
      vertex -8.20877 -7.52147 1.5
    endloop
  endfacet
  facet normal 0.989182 0.146696 0
    outer loop
      vertex -9.37116 -1.22652 1.5
      vertex -9.37404 -1.2071 1.1
      vertex -9.37404 -1.2071 1.5
    endloop
  endfacet
  facet normal 0.989182 0.146696 0
    outer loop
      vertex -9.37404 -1.2071 1.1
      vertex -9.37116 -1.22652 1.5
      vertex -9.37116 -1.22652 1.1
    endloop
  endfacet
  facet normal 0.146696 0.989182 -0
    outer loop
      vertex -9.1946 -1.38654 1.1
      vertex -9.21402 -1.38366 1.5
      vertex -9.1946 -1.38654 1.5
    endloop
  endfacet
  facet normal 0.146696 0.989182 0
    outer loop
      vertex -9.21402 -1.38366 1.5
      vertex -9.1946 -1.38654 1.1
      vertex -9.21402 -1.38366 1.1
    endloop
  endfacet
  facet normal -0.998803 0.0489209 0
    outer loop
      vertex 9.37404 -1.2071 1.1
      vertex 9.375 -1.1875 1.5
      vertex 9.375 -1.1875 1.1
    endloop
  endfacet
  facet normal -0.998803 0.0489209 0
    outer loop
      vertex 9.375 -1.1875 1.5
      vertex 9.37404 -1.2071 1.1
      vertex 9.37404 -1.2071 1.5
    endloop
  endfacet
  facet normal 0.998803 0.0489209 0
    outer loop
      vertex -9.37404 -1.2071 1.5
      vertex -9.375 -1.1875 1.1
      vertex -9.375 -1.1875 1.5
    endloop
  endfacet
  facet normal 0.998803 0.0489209 0
    outer loop
      vertex -9.375 -1.1875 1.1
      vertex -9.37404 -1.2071 1.5
      vertex -9.37404 -1.2071 1.1
    endloop
  endfacet
  facet normal 0 -1 0
    outer loop
      vertex -9.175 -0.987499 1.1
      vertex 9.175 -0.987499 1.5
      vertex -9.175 -0.987499 1.5
    endloop
  endfacet
  facet normal 0 -1 -0
    outer loop
      vertex 9.175 -0.987499 1.5
      vertex -9.175 -0.987499 1.1
      vertex 9.175 -0.987499 1.1
    endloop
  endfacet
  facet normal 0.242967 -0.970035 0
    outer loop
      vertex -9.23306 -0.996112 1.1
      vertex -9.21402 -0.991343 1.5
      vertex -9.23306 -0.996112 1.5
    endloop
  endfacet
  facet normal 0.242967 -0.970035 0
    outer loop
      vertex -9.21402 -0.991343 1.5
      vertex -9.23306 -0.996112 1.1
      vertex -9.21402 -0.991343 1.1
    endloop
  endfacet
  facet normal -0.989182 0.146696 0
    outer loop
      vertex 9.37116 -1.22652 1.1
      vertex 9.37404 -1.2071 1.5
      vertex 9.37404 -1.2071 1.1
    endloop
  endfacet
  facet normal -0.989182 0.146696 0
    outer loop
      vertex 9.37404 -1.2071 1.5
      vertex 9.37116 -1.22652 1.1
      vertex 9.37116 -1.22652 1.5
    endloop
  endfacet
  facet normal 0.671607 -0.740908 0
    outer loop
      vertex -9.31642 -1.04608 1.1
      vertex -9.30188 -1.0329 1.5
      vertex -9.31642 -1.04608 1.5
    endloop
  endfacet
  facet normal 0.671607 -0.740908 0
    outer loop
      vertex -9.30188 -1.0329 1.5
      vertex -9.31642 -1.04608 1.1
      vertex -9.30188 -1.0329 1.1
    endloop
  endfacet
  facet normal -0.336698 -0.941613 0
    outer loop
      vertex 9.23306 -0.996112 1.1
      vertex 9.25154 -1.00272 1.5
      vertex 9.23306 -0.996112 1.5
    endloop
  endfacet
  facet normal -0.336698 -0.941613 -0
    outer loop
      vertex 9.25154 -1.00272 1.5
      vertex 9.23306 -0.996112 1.1
      vertex 9.25154 -1.00272 1.1
    endloop
  endfacet
  facet normal -0.0489209 0.998803 0
    outer loop
      vertex 9.1946 -1.38654 1.1
      vertex 9.175 -1.3875 1.5
      vertex 9.1946 -1.38654 1.5
    endloop
  endfacet
  facet normal -0.0489209 0.998803 0
    outer loop
      vertex 9.175 -1.3875 1.5
      vertex 9.1946 -1.38654 1.1
      vertex 9.175 -1.3875 1.1
    endloop
  endfacet
  facet normal 0.514196 0.857673 -0
    outer loop
      vertex -9.26928 -1.36388 1.1
      vertex -9.28611 -1.35379 1.5
      vertex -9.26928 -1.36388 1.5
    endloop
  endfacet
  facet normal 0.514196 0.857673 0
    outer loop
      vertex -9.28611 -1.35379 1.5
      vertex -9.26928 -1.36388 1.1
      vertex -9.28611 -1.35379 1.1
    endloop
  endfacet
  facet normal -0.9038 -0.427955 0
    outer loop
      vertex 9.35978 -1.11096 1.1
      vertex 9.35138 -1.09322 1.5
      vertex 9.35138 -1.09322 1.1
    endloop
  endfacet
  facet normal -0.9038 -0.427955 0
    outer loop
      vertex 9.35138 -1.09322 1.5
      vertex 9.35978 -1.11096 1.1
      vertex 9.35978 -1.11096 1.5
    endloop
  endfacet
  facet normal 0.514196 -0.857673 0
    outer loop
      vertex -9.28611 -1.02121 1.1
      vertex -9.26928 -1.01112 1.5
      vertex -9.28611 -1.02121 1.5
    endloop
  endfacet
  facet normal 0.514196 -0.857673 0
    outer loop
      vertex -9.26928 -1.01112 1.5
      vertex -9.28611 -1.02121 1.1
      vertex -9.26928 -1.01112 1.1
    endloop
  endfacet
  facet normal -0.970023 -0.243015 0
    outer loop
      vertex 9.37116 -1.14848 1.1
      vertex 9.36639 -1.12944 1.5
      vertex 9.36639 -1.12944 1.1
    endloop
  endfacet
  facet normal -0.970023 -0.243015 0
    outer loop
      vertex 9.36639 -1.12944 1.5
      vertex 9.37116 -1.14848 1.1
      vertex 9.37116 -1.14848 1.5
    endloop
  endfacet
  facet normal 0 1 -0
    outer loop
      vertex 9.175 -1.3875 1.1
      vertex -9.175 -1.3875 1.5
      vertex 9.175 -1.3875 1.5
    endloop
  endfacet
  facet normal 0 1 0
    outer loop
      vertex -9.175 -1.3875 1.5
      vertex 9.175 -1.3875 1.1
      vertex -9.175 -1.3875 1.1
    endloop
  endfacet
  facet normal 0.80335 -0.595508 0
    outer loop
      vertex -9.34129 -1.07639 1.5
      vertex -9.3296 -1.06062 1.1
      vertex -9.3296 -1.06062 1.5
    endloop
  endfacet
  facet normal 0.80335 -0.595508 0
    outer loop
      vertex -9.3296 -1.06062 1.1
      vertex -9.34129 -1.07639 1.5
      vertex -9.34129 -1.07639 1.1
    endloop
  endfacet
  facet normal -0.857673 0.514196 0
    outer loop
      vertex 9.34129 -1.29861 1.1
      vertex 9.35138 -1.28178 1.5
      vertex 9.35138 -1.28178 1.1
    endloop
  endfacet
  facet normal -0.857673 0.514196 0
    outer loop
      vertex 9.35138 -1.28178 1.5
      vertex 9.34129 -1.29861 1.1
      vertex 9.34129 -1.29861 1.5
    endloop
  endfacet
  facet normal -0.80335 0.595508 0
    outer loop
      vertex 9.3296 -1.31438 1.1
      vertex 9.34129 -1.29861 1.5
      vertex 9.34129 -1.29861 1.1
    endloop
  endfacet
  facet normal -0.80335 0.595508 0
    outer loop
      vertex 9.34129 -1.29861 1.5
      vertex 9.3296 -1.31438 1.1
      vertex 9.3296 -1.31438 1.5
    endloop
  endfacet
  facet normal 0.970023 0.243015 0
    outer loop
      vertex -9.36639 -1.24556 1.5
      vertex -9.37116 -1.22652 1.1
      vertex -9.37116 -1.22652 1.5
    endloop
  endfacet
  facet normal 0.970023 0.243015 0
    outer loop
      vertex -9.37116 -1.22652 1.1
      vertex -9.36639 -1.24556 1.5
      vertex -9.36639 -1.24556 1.1
    endloop
  endfacet
  facet normal 0.427955 -0.9038 0
    outer loop
      vertex -9.26928 -1.01112 1.1
      vertex -9.25154 -1.00272 1.5
      vertex -9.26928 -1.01112 1.5
    endloop
  endfacet
  facet normal 0.427955 -0.9038 0
    outer loop
      vertex -9.25154 -1.00272 1.5
      vertex -9.26928 -1.01112 1.1
      vertex -9.25154 -1.00272 1.1
    endloop
  endfacet
  facet normal -0.336788 0.94158 0
    outer loop
      vertex 9.25154 -1.37228 1.1
      vertex 9.23306 -1.37889 1.5
      vertex 9.25154 -1.37228 1.5
    endloop
  endfacet
  facet normal -0.336788 0.94158 0
    outer loop
      vertex 9.23306 -1.37889 1.5
      vertex 9.25154 -1.37228 1.1
      vertex 9.23306 -1.37889 1.1
    endloop
  endfacet
  facet normal 0.427955 0.9038 -0
    outer loop
      vertex -9.25154 -1.37228 1.1
      vertex -9.26928 -1.36388 1.5
      vertex -9.25154 -1.37228 1.5
    endloop
  endfacet
  facet normal 0.427955 0.9038 0
    outer loop
      vertex -9.26928 -1.36388 1.5
      vertex -9.25154 -1.37228 1.1
      vertex -9.26928 -1.36388 1.1
    endloop
  endfacet
  facet normal 0.740908 -0.671607 0
    outer loop
      vertex -9.3296 -1.06062 1.5
      vertex -9.31642 -1.04608 1.1
      vertex -9.31642 -1.04608 1.5
    endloop
  endfacet
  facet normal 0.740908 -0.671607 0
    outer loop
      vertex -9.31642 -1.04608 1.1
      vertex -9.3296 -1.06062 1.5
      vertex -9.3296 -1.06062 1.1
    endloop
  endfacet
  facet normal -0.0490735 -0.998795 0
    outer loop
      vertex 9.175 -0.987499 1.1
      vertex 9.1946 -0.988462 1.5
      vertex 9.175 -0.987499 1.5
    endloop
  endfacet
  facet normal -0.0490735 -0.998795 -0
    outer loop
      vertex 9.1946 -0.988462 1.5
      vertex 9.175 -0.987499 1.1
      vertex 9.1946 -0.988462 1.1
    endloop
  endfacet
  facet normal 0.970023 -0.243015 0
    outer loop
      vertex -9.37116 -1.14848 1.5
      vertex -9.36639 -1.12944 1.1
      vertex -9.36639 -1.12944 1.5
    endloop
  endfacet
  facet normal 0.970023 -0.243015 0
    outer loop
      vertex -9.36639 -1.12944 1.1
      vertex -9.37116 -1.14848 1.5
      vertex -9.37116 -1.14848 1.1
    endloop
  endfacet
  facet normal 0.94158 -0.336788 0
    outer loop
      vertex -9.36639 -1.12944 1.5
      vertex -9.35978 -1.11096 1.1
      vertex -9.35978 -1.11096 1.5
    endloop
  endfacet
  facet normal 0.94158 -0.336788 0
    outer loop
      vertex -9.35978 -1.11096 1.1
      vertex -9.36639 -1.12944 1.5
      vertex -9.36639 -1.12944 1.1
    endloop
  endfacet
  facet normal 0.857673 -0.514196 0
    outer loop
      vertex -9.35138 -1.09322 1.5
      vertex -9.34129 -1.07639 1.1
      vertex -9.34129 -1.07639 1.5
    endloop
  endfacet
  facet normal 0.857673 -0.514196 0
    outer loop
      vertex -9.34129 -1.07639 1.1
      vertex -9.35138 -1.09322 1.5
      vertex -9.35138 -1.09322 1.1
    endloop
  endfacet
  facet normal -0.242967 -0.970035 0
    outer loop
      vertex 9.21402 -0.991343 1.1
      vertex 9.23306 -0.996112 1.5
      vertex 9.21402 -0.991343 1.5
    endloop
  endfacet
  facet normal -0.242967 -0.970035 -0
    outer loop
      vertex 9.23306 -0.996112 1.5
      vertex 9.21402 -0.991343 1.1
      vertex 9.23306 -0.996112 1.1
    endloop
  endfacet
  facet normal 0.0490735 -0.998795 0
    outer loop
      vertex -9.1946 -0.988462 1.1
      vertex -9.175 -0.987499 1.5
      vertex -9.1946 -0.988462 1.5
    endloop
  endfacet
  facet normal 0.0490735 -0.998795 0
    outer loop
      vertex -9.175 -0.987499 1.5
      vertex -9.1946 -0.988462 1.1
      vertex -9.175 -0.987499 1.1
    endloop
  endfacet
  facet normal -0.427955 -0.9038 0
    outer loop
      vertex 9.25154 -1.00272 1.1
      vertex 9.26928 -1.01112 1.5
      vertex 9.25154 -1.00272 1.5
    endloop
  endfacet
  facet normal -0.427955 -0.9038 -0
    outer loop
      vertex 9.26928 -1.01112 1.5
      vertex 9.25154 -1.00272 1.1
      vertex 9.26928 -1.01112 1.1
    endloop
  endfacet
  facet normal -0.998803 -0.0489209 0
    outer loop
      vertex 9.375 -1.1875 1.1
      vertex 9.37404 -1.1679 1.5
      vertex 9.37404 -1.1679 1.1
    endloop
  endfacet
  facet normal -0.998803 -0.0489209 0
    outer loop
      vertex 9.37404 -1.1679 1.5
      vertex 9.375 -1.1875 1.1
      vertex 9.375 -1.1875 1.5
    endloop
  endfacet
  facet normal 0.146746 -0.989174 0
    outer loop
      vertex -9.21402 -0.991343 1.1
      vertex -9.1946 -0.988462 1.5
      vertex -9.21402 -0.991343 1.5
    endloop
  endfacet
  facet normal 0.146746 -0.989174 0
    outer loop
      vertex -9.1946 -0.988462 1.5
      vertex -9.21402 -0.991343 1.1
      vertex -9.1946 -0.988462 1.1
    endloop
  endfacet
  facet normal -0.857673 -0.514196 0
    outer loop
      vertex 9.35138 -1.09322 1.1
      vertex 9.34129 -1.07639 1.5
      vertex 9.34129 -1.07639 1.1
    endloop
  endfacet
  facet normal -0.857673 -0.514196 0
    outer loop
      vertex 9.34129 -1.07639 1.5
      vertex 9.35138 -1.09322 1.1
      vertex 9.35138 -1.09322 1.5
    endloop
  endfacet
  facet normal -0.595508 -0.80335 0
    outer loop
      vertex 9.28611 -1.02121 1.1
      vertex 9.30188 -1.0329 1.5
      vertex 9.28611 -1.02121 1.5
    endloop
  endfacet
  facet normal -0.595508 -0.80335 -0
    outer loop
      vertex 9.30188 -1.0329 1.5
      vertex 9.28611 -1.02121 1.1
      vertex 9.30188 -1.0329 1.1
    endloop
  endfacet
  facet normal 0.595508 -0.80335 0
    outer loop
      vertex -9.30188 -1.0329 1.1
      vertex -9.28611 -1.02121 1.5
      vertex -9.30188 -1.0329 1.5
    endloop
  endfacet
  facet normal 0.595508 -0.80335 0
    outer loop
      vertex -9.28611 -1.02121 1.5
      vertex -9.30188 -1.0329 1.1
      vertex -9.28611 -1.02121 1.1
    endloop
  endfacet
  facet normal 0.243015 0.970023 -0
    outer loop
      vertex -9.21402 -1.38366 1.1
      vertex -9.23306 -1.37889 1.5
      vertex -9.21402 -1.38366 1.5
    endloop
  endfacet
  facet normal 0.243015 0.970023 0
    outer loop
      vertex -9.23306 -1.37889 1.5
      vertex -9.21402 -1.38366 1.1
      vertex -9.23306 -1.37889 1.1
    endloop
  endfacet
  facet normal 0.80335 0.595508 0
    outer loop
      vertex -9.3296 -1.31438 1.5
      vertex -9.34129 -1.29861 1.1
      vertex -9.34129 -1.29861 1.5
    endloop
  endfacet
  facet normal 0.80335 0.595508 0
    outer loop
      vertex -9.34129 -1.29861 1.1
      vertex -9.3296 -1.31438 1.5
      vertex -9.3296 -1.31438 1.1
    endloop
  endfacet
  facet normal -0.989182 -0.146696 0
    outer loop
      vertex 9.37404 -1.1679 1.1
      vertex 9.37116 -1.14848 1.5
      vertex 9.37116 -1.14848 1.1
    endloop
  endfacet
  facet normal -0.989182 -0.146696 0
    outer loop
      vertex 9.37116 -1.14848 1.5
      vertex 9.37404 -1.1679 1.1
      vertex 9.37404 -1.1679 1.5
    endloop
  endfacet
  facet normal 0.989182 -0.146696 0
    outer loop
      vertex -9.37404 -1.1679 1.5
      vertex -9.37116 -1.14848 1.1
      vertex -9.37116 -1.14848 1.5
    endloop
  endfacet
  facet normal 0.989182 -0.146696 0
    outer loop
      vertex -9.37116 -1.14848 1.1
      vertex -9.37404 -1.1679 1.5
      vertex -9.37404 -1.1679 1.1
    endloop
  endfacet
  facet normal 0.998803 -0.0489209 0
    outer loop
      vertex -9.375 -1.1875 1.5
      vertex -9.37404 -1.1679 1.1
      vertex -9.37404 -1.1679 1.5
    endloop
  endfacet
  facet normal 0.998803 -0.0489209 0
    outer loop
      vertex -9.37404 -1.1679 1.1
      vertex -9.375 -1.1875 1.5
      vertex -9.375 -1.1875 1.1
    endloop
  endfacet
  facet normal -0.740908 0.671607 0
    outer loop
      vertex 9.31642 -1.32892 1.1
      vertex 9.3296 -1.31438 1.5
      vertex 9.3296 -1.31438 1.1
    endloop
  endfacet
  facet normal -0.740908 0.671607 0
    outer loop
      vertex 9.3296 -1.31438 1.5
      vertex 9.31642 -1.32892 1.1
      vertex 9.31642 -1.32892 1.5
    endloop
  endfacet
  facet normal -0.146696 0.989182 0
    outer loop
      vertex 9.21402 -1.38366 1.1
      vertex 9.1946 -1.38654 1.5
      vertex 9.21402 -1.38366 1.5
    endloop
  endfacet
  facet normal -0.146696 0.989182 0
    outer loop
      vertex 9.1946 -1.38654 1.5
      vertex 9.21402 -1.38366 1.1
      vertex 9.1946 -1.38654 1.1
    endloop
  endfacet
  facet normal 0.336698 -0.941613 0
    outer loop
      vertex -9.25154 -1.00272 1.1
      vertex -9.23306 -0.996112 1.5
      vertex -9.25154 -1.00272 1.5
    endloop
  endfacet
  facet normal 0.336698 -0.941613 0
    outer loop
      vertex -9.23306 -0.996112 1.5
      vertex -9.25154 -1.00272 1.1
      vertex -9.23306 -0.996112 1.1
    endloop
  endfacet
  facet normal -0.671607 -0.740908 0
    outer loop
      vertex 9.30188 -1.0329 1.1
      vertex 9.31642 -1.04608 1.5
      vertex 9.30188 -1.0329 1.5
    endloop
  endfacet
  facet normal -0.671607 -0.740908 -0
    outer loop
      vertex 9.31642 -1.04608 1.5
      vertex 9.30188 -1.0329 1.1
      vertex 9.31642 -1.04608 1.1
    endloop
  endfacet
  facet normal -0.970023 0.243015 0
    outer loop
      vertex 9.36639 -1.24556 1.1
      vertex 9.37116 -1.22652 1.5
      vertex 9.37116 -1.22652 1.1
    endloop
  endfacet
  facet normal -0.970023 0.243015 0
    outer loop
      vertex 9.37116 -1.22652 1.5
      vertex 9.36639 -1.24556 1.1
      vertex 9.36639 -1.24556 1.5
    endloop
  endfacet
  facet normal -0.514196 -0.857673 0
    outer loop
      vertex 9.26928 -1.01112 1.1
      vertex 9.28611 -1.02121 1.5
      vertex 9.26928 -1.01112 1.5
    endloop
  endfacet
  facet normal -0.514196 -0.857673 -0
    outer loop
      vertex 9.28611 -1.02121 1.5
      vertex 9.26928 -1.01112 1.1
      vertex 9.28611 -1.02121 1.1
    endloop
  endfacet
  facet normal 0.9038 -0.427955 0
    outer loop
      vertex -9.35978 -1.11096 1.5
      vertex -9.35138 -1.09322 1.1
      vertex -9.35138 -1.09322 1.5
    endloop
  endfacet
  facet normal 0.9038 -0.427955 0
    outer loop
      vertex -9.35138 -1.09322 1.1
      vertex -9.35978 -1.11096 1.5
      vertex -9.35978 -1.11096 1.1
    endloop
  endfacet
  facet normal -0.514196 0.857673 0
    outer loop
      vertex 9.28611 -1.35379 1.1
      vertex 9.26928 -1.36388 1.5
      vertex 9.28611 -1.35379 1.5
    endloop
  endfacet
  facet normal -0.514196 0.857673 0
    outer loop
      vertex 9.26928 -1.36388 1.5
      vertex 9.28611 -1.35379 1.1
      vertex 9.26928 -1.36388 1.1
    endloop
  endfacet
  facet normal -0.94158 -0.336788 0
    outer loop
      vertex 9.36639 -1.12944 1.1
      vertex 9.35978 -1.11096 1.5
      vertex 9.35978 -1.11096 1.1
    endloop
  endfacet
  facet normal -0.94158 -0.336788 0
    outer loop
      vertex 9.35978 -1.11096 1.5
      vertex 9.36639 -1.12944 1.1
      vertex 9.36639 -1.12944 1.5
    endloop
  endfacet
  facet normal -0.595508 0.80335 0
    outer loop
      vertex 9.30188 -1.3421 1.1
      vertex 9.28611 -1.35379 1.5
      vertex 9.30188 -1.3421 1.5
    endloop
  endfacet
  facet normal -0.595508 0.80335 0
    outer loop
      vertex 9.28611 -1.35379 1.5
      vertex 9.30188 -1.3421 1.1
      vertex 9.28611 -1.35379 1.1
    endloop
  endfacet
  facet normal 0.740908 0.671607 0
    outer loop
      vertex -9.31642 -1.32892 1.5
      vertex -9.3296 -1.31438 1.1
      vertex -9.3296 -1.31438 1.5
    endloop
  endfacet
  facet normal 0.740908 0.671607 0
    outer loop
      vertex -9.3296 -1.31438 1.1
      vertex -9.31642 -1.32892 1.5
      vertex -9.31642 -1.32892 1.1
    endloop
  endfacet
  facet normal -0.427955 0.9038 0
    outer loop
      vertex 9.26928 -1.36388 1.1
      vertex 9.25154 -1.37228 1.5
      vertex 9.26928 -1.36388 1.5
    endloop
  endfacet
  facet normal -0.427955 0.9038 0
    outer loop
      vertex 9.25154 -1.37228 1.5
      vertex 9.26928 -1.36388 1.1
      vertex 9.25154 -1.37228 1.1
    endloop
  endfacet
  facet normal -0.740908 -0.671607 0
    outer loop
      vertex 9.3296 -1.06062 1.1
      vertex 9.31642 -1.04608 1.5
      vertex 9.31642 -1.04608 1.1
    endloop
  endfacet
  facet normal -0.740908 -0.671607 0
    outer loop
      vertex 9.31642 -1.04608 1.5
      vertex 9.3296 -1.06062 1.1
      vertex 9.3296 -1.06062 1.5
    endloop
  endfacet
  facet normal -0.243015 0.970023 0
    outer loop
      vertex 9.23306 -1.37889 1.1
      vertex 9.21402 -1.38366 1.5
      vertex 9.23306 -1.37889 1.5
    endloop
  endfacet
  facet normal -0.243015 0.970023 0
    outer loop
      vertex 9.21402 -1.38366 1.5
      vertex 9.23306 -1.37889 1.1
      vertex 9.21402 -1.38366 1.1
    endloop
  endfacet
  facet normal -0.80335 -0.595508 0
    outer loop
      vertex 9.34129 -1.07639 1.1
      vertex 9.3296 -1.06062 1.5
      vertex 9.3296 -1.06062 1.1
    endloop
  endfacet
  facet normal -0.80335 -0.595508 0
    outer loop
      vertex 9.3296 -1.06062 1.5
      vertex 9.34129 -1.07639 1.1
      vertex 9.34129 -1.07639 1.5
    endloop
  endfacet
  facet normal -0.146746 -0.989174 0
    outer loop
      vertex 9.1946 -0.988462 1.1
      vertex 9.21402 -0.991343 1.5
      vertex 9.1946 -0.988462 1.5
    endloop
  endfacet
  facet normal -0.146746 -0.989174 -0
    outer loop
      vertex 9.21402 -0.991343 1.5
      vertex 9.1946 -0.988462 1.1
      vertex 9.21402 -0.991343 1.1
    endloop
  endfacet
  facet normal -0.94158 0.336788 0
    outer loop
      vertex 9.35978 -1.26404 1.1
      vertex 9.36639 -1.24556 1.5
      vertex 9.36639 -1.24556 1.1
    endloop
  endfacet
  facet normal -0.94158 0.336788 0
    outer loop
      vertex 9.36639 -1.24556 1.5
      vertex 9.35978 -1.26404 1.1
      vertex 9.35978 -1.26404 1.5
    endloop
  endfacet
  facet normal -0.9038 0.427955 0
    outer loop
      vertex 9.35138 -1.28178 1.1
      vertex 9.35978 -1.26404 1.5
      vertex 9.35978 -1.26404 1.1
    endloop
  endfacet
  facet normal -0.9038 0.427955 0
    outer loop
      vertex 9.35978 -1.26404 1.5
      vertex 9.35138 -1.28178 1.1
      vertex 9.35138 -1.28178 1.5
    endloop
  endfacet
  facet normal 0.9038 0.427955 0
    outer loop
      vertex -9.35138 -1.28178 1.5
      vertex -9.35978 -1.26404 1.1
      vertex -9.35978 -1.26404 1.5
    endloop
  endfacet
  facet normal 0.9038 0.427955 0
    outer loop
      vertex -9.35978 -1.26404 1.1
      vertex -9.35138 -1.28178 1.5
      vertex -9.35138 -1.28178 1.1
    endloop
  endfacet
  facet normal 0.0489209 0.998803 -0
    outer loop
      vertex -9.175 -1.3875 1.1
      vertex -9.1946 -1.38654 1.5
      vertex -9.175 -1.3875 1.5
    endloop
  endfacet
  facet normal 0.0489209 0.998803 0
    outer loop
      vertex -9.1946 -1.38654 1.5
      vertex -9.175 -1.3875 1.1
      vertex -9.1946 -1.38654 1.1
    endloop
  endfacet
  facet normal 0.336788 0.94158 -0
    outer loop
      vertex -9.23306 -1.37889 1.1
      vertex -9.25154 -1.37228 1.5
      vertex -9.23306 -1.37889 1.5
    endloop
  endfacet
  facet normal 0.336788 0.94158 0
    outer loop
      vertex -9.25154 -1.37228 1.5
      vertex -9.23306 -1.37889 1.1
      vertex -9.25154 -1.37228 1.1
    endloop
  endfacet
  facet normal -0.671607 0.740908 0
    outer loop
      vertex 9.31642 -1.32892 1.1
      vertex 9.30188 -1.3421 1.5
      vertex 9.31642 -1.32892 1.5
    endloop
  endfacet
  facet normal -0.671607 0.740908 0
    outer loop
      vertex 9.30188 -1.3421 1.5
      vertex 9.31642 -1.32892 1.1
      vertex 9.30188 -1.3421 1.1
    endloop
  endfacet
  facet normal 0.857673 0.514196 0
    outer loop
      vertex -9.34129 -1.29861 1.5
      vertex -9.35138 -1.28178 1.1
      vertex -9.35138 -1.28178 1.5
    endloop
  endfacet
  facet normal 0.857673 0.514196 0
    outer loop
      vertex -9.35138 -1.28178 1.1
      vertex -9.34129 -1.29861 1.5
      vertex -9.34129 -1.29861 1.1
    endloop
  endfacet
  facet normal 0.595508 0.80335 -0
    outer loop
      vertex -9.28611 -1.35379 1.1
      vertex -9.30188 -1.3421 1.5
      vertex -9.28611 -1.35379 1.5
    endloop
  endfacet
  facet normal 0.595508 0.80335 0
    outer loop
      vertex -9.30188 -1.3421 1.5
      vertex -9.28611 -1.35379 1.1
      vertex -9.30188 -1.3421 1.1
    endloop
  endfacet
  facet normal 0.671607 0.740908 -0
    outer loop
      vertex -9.30188 -1.3421 1.1
      vertex -9.31642 -1.32892 1.5
      vertex -9.30188 -1.3421 1.5
    endloop
  endfacet
  facet normal 0.671607 0.740908 0
    outer loop
      vertex -9.31642 -1.32892 1.5
      vertex -9.30188 -1.3421 1.1
      vertex -9.31642 -1.32892 1.1
    endloop
  endfacet
  facet normal 0 0 1
    outer loop
      vertex 9.37404 -1.1679 1.1
      vertex 9.37404 -1.2071 1.1
      vertex 9.375 -1.1875 1.1
    endloop
  endfacet
  facet normal 0 0 1
    outer loop
      vertex 9.37116 -1.14848 1.1
      vertex 9.37404 -1.2071 1.1
      vertex 9.37404 -1.1679 1.1
    endloop
  endfacet
  facet normal 0 0 1
    outer loop
      vertex 9.37116 -1.14848 1.1
      vertex 9.37116 -1.22652 1.1
      vertex 9.37404 -1.2071 1.1
    endloop
  endfacet
  facet normal 0 0 1
    outer loop
      vertex 9.36639 -1.12944 1.1
      vertex 9.37116 -1.22652 1.1
      vertex 9.37116 -1.14848 1.1
    endloop
  endfacet
  facet normal 0 0 1
    outer loop
      vertex 9.36639 -1.12944 1.1
      vertex 9.36639 -1.24556 1.1
      vertex 9.37116 -1.22652 1.1
    endloop
  endfacet
  facet normal 0 0 1
    outer loop
      vertex 9.35978 -1.11096 1.1
      vertex 9.36639 -1.24556 1.1
      vertex 9.36639 -1.12944 1.1
    endloop
  endfacet
  facet normal 0 0 1
    outer loop
      vertex 9.35978 -1.11096 1.1
      vertex 9.35978 -1.26404 1.1
      vertex 9.36639 -1.24556 1.1
    endloop
  endfacet
  facet normal 0 0 1
    outer loop
      vertex 9.35138 -1.09322 1.1
      vertex 9.35978 -1.26404 1.1
      vertex 9.35978 -1.11096 1.1
    endloop
  endfacet
  facet normal 0 0 1
    outer loop
      vertex 9.35138 -1.09322 1.1
      vertex 9.35138 -1.28178 1.1
      vertex 9.35978 -1.26404 1.1
    endloop
  endfacet
  facet normal 0 0 1
    outer loop
      vertex 9.34129 -1.07639 1.1
      vertex 9.35138 -1.28178 1.1
      vertex 9.35138 -1.09322 1.1
    endloop
  endfacet
  facet normal 0 0 1
    outer loop
      vertex 9.34129 -1.07639 1.1
      vertex 9.34129 -1.29861 1.1
      vertex 9.35138 -1.28178 1.1
    endloop
  endfacet
  facet normal 0 0 1
    outer loop
      vertex 9.3296 -1.06062 1.1
      vertex 9.34129 -1.29861 1.1
      vertex 9.34129 -1.07639 1.1
    endloop
  endfacet
  facet normal 0 0 1
    outer loop
      vertex 9.3296 -1.06062 1.1
      vertex 9.3296 -1.31438 1.1
      vertex 9.34129 -1.29861 1.1
    endloop
  endfacet
  facet normal 0 0 1
    outer loop
      vertex 9.31642 -1.04608 1.1
      vertex 9.3296 -1.31438 1.1
      vertex 9.3296 -1.06062 1.1
    endloop
  endfacet
  facet normal 0 0 1
    outer loop
      vertex 9.31642 -1.04608 1.1
      vertex 9.31642 -1.32892 1.1
      vertex 9.3296 -1.31438 1.1
    endloop
  endfacet
  facet normal 0 0 1
    outer loop
      vertex 9.30188 -1.0329 1.1
      vertex 9.31642 -1.32892 1.1
      vertex 9.31642 -1.04608 1.1
    endloop
  endfacet
  facet normal 0 0 1
    outer loop
      vertex 9.30188 -1.0329 1.1
      vertex 9.30188 -1.3421 1.1
      vertex 9.31642 -1.32892 1.1
    endloop
  endfacet
  facet normal 0 0 1
    outer loop
      vertex 9.28611 -1.02121 1.1
      vertex 9.30188 -1.3421 1.1
      vertex 9.30188 -1.0329 1.1
    endloop
  endfacet
  facet normal 0 0 1
    outer loop
      vertex 9.28611 -1.02121 1.1
      vertex 9.28611 -1.35379 1.1
      vertex 9.30188 -1.3421 1.1
    endloop
  endfacet
  facet normal 0 0 1
    outer loop
      vertex 9.26928 -1.01112 1.1
      vertex 9.28611 -1.35379 1.1
      vertex 9.28611 -1.02121 1.1
    endloop
  endfacet
  facet normal 0 0 1
    outer loop
      vertex 9.26928 -1.01112 1.1
      vertex 9.26928 -1.36388 1.1
      vertex 9.28611 -1.35379 1.1
    endloop
  endfacet
  facet normal 0 0 1
    outer loop
      vertex 9.25154 -1.00272 1.1
      vertex 9.26928 -1.36388 1.1
      vertex 9.26928 -1.01112 1.1
    endloop
  endfacet
  facet normal 0 0 1
    outer loop
      vertex 9.25154 -1.00272 1.1
      vertex 9.25154 -1.37228 1.1
      vertex 9.26928 -1.36388 1.1
    endloop
  endfacet
  facet normal 0 0 1
    outer loop
      vertex 9.23306 -0.996112 1.1
      vertex 9.25154 -1.37228 1.1
      vertex 9.25154 -1.00272 1.1
    endloop
  endfacet
  facet normal 0 0 1
    outer loop
      vertex 9.23306 -0.996112 1.1
      vertex 9.23306 -1.37889 1.1
      vertex 9.25154 -1.37228 1.1
    endloop
  endfacet
  facet normal 0 0 1
    outer loop
      vertex 9.21402 -0.991343 1.1
      vertex 9.23306 -1.37889 1.1
      vertex 9.23306 -0.996112 1.1
    endloop
  endfacet
  facet normal 0 0 1
    outer loop
      vertex 9.21402 -0.991343 1.1
      vertex 9.21402 -1.38366 1.1
      vertex 9.23306 -1.37889 1.1
    endloop
  endfacet
  facet normal 0 0 1
    outer loop
      vertex 9.1946 -0.988462 1.1
      vertex 9.21402 -1.38366 1.1
      vertex 9.21402 -0.991343 1.1
    endloop
  endfacet
  facet normal 0 0 1
    outer loop
      vertex 9.1946 -0.988462 1.1
      vertex 9.1946 -1.38654 1.1
      vertex 9.21402 -1.38366 1.1
    endloop
  endfacet
  facet normal 0 0 1
    outer loop
      vertex 9.175 -0.987499 1.1
      vertex 9.1946 -1.38654 1.1
      vertex 9.1946 -0.988462 1.1
    endloop
  endfacet
  facet normal 0 0 1
    outer loop
      vertex 9.175 -0.987499 1.1
      vertex 9.175 -1.3875 1.1
      vertex 9.1946 -1.38654 1.1
    endloop
  endfacet
  facet normal -0 0 1
    outer loop
      vertex -9.175 -0.987499 1.1
      vertex 9.175 -1.3875 1.1
      vertex 9.175 -0.987499 1.1
    endloop
  endfacet
  facet normal 0 0 1
    outer loop
      vertex -9.175 -0.987499 1.1
      vertex -9.175 -1.3875 1.1
      vertex 9.175 -1.3875 1.1
    endloop
  endfacet
  facet normal -0 0 1
    outer loop
      vertex -9.1946 -0.988462 1.1
      vertex -9.175 -1.3875 1.1
      vertex -9.175 -0.987499 1.1
    endloop
  endfacet
  facet normal 0 0 1
    outer loop
      vertex -9.1946 -0.988462 1.1
      vertex -9.1946 -1.38654 1.1
      vertex -9.175 -1.3875 1.1
    endloop
  endfacet
  facet normal -0 0 1
    outer loop
      vertex -9.21402 -0.991343 1.1
      vertex -9.1946 -1.38654 1.1
      vertex -9.1946 -0.988462 1.1
    endloop
  endfacet
  facet normal 0 0 1
    outer loop
      vertex -9.21402 -0.991343 1.1
      vertex -9.21402 -1.38366 1.1
      vertex -9.1946 -1.38654 1.1
    endloop
  endfacet
  facet normal -0 0 1
    outer loop
      vertex -9.23306 -0.996112 1.1
      vertex -9.21402 -1.38366 1.1
      vertex -9.21402 -0.991343 1.1
    endloop
  endfacet
  facet normal 0 0 1
    outer loop
      vertex -9.23306 -0.996112 1.1
      vertex -9.23306 -1.37889 1.1
      vertex -9.21402 -1.38366 1.1
    endloop
  endfacet
  facet normal -0 0 1
    outer loop
      vertex -9.25154 -1.00272 1.1
      vertex -9.23306 -1.37889 1.1
      vertex -9.23306 -0.996112 1.1
    endloop
  endfacet
  facet normal 0 0 1
    outer loop
      vertex -9.25154 -1.00272 1.1
      vertex -9.25154 -1.37228 1.1
      vertex -9.23306 -1.37889 1.1
    endloop
  endfacet
  facet normal -0 0 1
    outer loop
      vertex -9.26928 -1.01112 1.1
      vertex -9.25154 -1.37228 1.1
      vertex -9.25154 -1.00272 1.1
    endloop
  endfacet
  facet normal 0 0 1
    outer loop
      vertex -9.26928 -1.01112 1.1
      vertex -9.26928 -1.36388 1.1
      vertex -9.25154 -1.37228 1.1
    endloop
  endfacet
  facet normal -0 0 1
    outer loop
      vertex -9.28611 -1.02121 1.1
      vertex -9.26928 -1.36388 1.1
      vertex -9.26928 -1.01112 1.1
    endloop
  endfacet
  facet normal 0 0 1
    outer loop
      vertex -9.28611 -1.02121 1.1
      vertex -9.28611 -1.35379 1.1
      vertex -9.26928 -1.36388 1.1
    endloop
  endfacet
  facet normal -0 0 1
    outer loop
      vertex -9.30188 -1.0329 1.1
      vertex -9.28611 -1.35379 1.1
      vertex -9.28611 -1.02121 1.1
    endloop
  endfacet
  facet normal 0 0 1
    outer loop
      vertex -9.30188 -1.0329 1.1
      vertex -9.30188 -1.3421 1.1
      vertex -9.28611 -1.35379 1.1
    endloop
  endfacet
  facet normal -0 0 1
    outer loop
      vertex -9.31642 -1.04608 1.1
      vertex -9.30188 -1.3421 1.1
      vertex -9.30188 -1.0329 1.1
    endloop
  endfacet
  facet normal 0 0 1
    outer loop
      vertex -9.31642 -1.04608 1.1
      vertex -9.31642 -1.32892 1.1
      vertex -9.30188 -1.3421 1.1
    endloop
  endfacet
  facet normal -0 0 1
    outer loop
      vertex -9.3296 -1.06062 1.1
      vertex -9.31642 -1.32892 1.1
      vertex -9.31642 -1.04608 1.1
    endloop
  endfacet
  facet normal 0 0 1
    outer loop
      vertex -9.3296 -1.06062 1.1
      vertex -9.3296 -1.31438 1.1
      vertex -9.31642 -1.32892 1.1
    endloop
  endfacet
  facet normal -0 0 1
    outer loop
      vertex -9.34129 -1.07639 1.1
      vertex -9.3296 -1.31438 1.1
      vertex -9.3296 -1.06062 1.1
    endloop
  endfacet
  facet normal 0 0 1
    outer loop
      vertex -9.34129 -1.07639 1.1
      vertex -9.34129 -1.29861 1.1
      vertex -9.3296 -1.31438 1.1
    endloop
  endfacet
  facet normal -0 0 1
    outer loop
      vertex -9.35138 -1.09322 1.1
      vertex -9.34129 -1.29861 1.1
      vertex -9.34129 -1.07639 1.1
    endloop
  endfacet
  facet normal 0 0 1
    outer loop
      vertex -9.35138 -1.09322 1.1
      vertex -9.35138 -1.28178 1.1
      vertex -9.34129 -1.29861 1.1
    endloop
  endfacet
  facet normal -0 0 1
    outer loop
      vertex -9.35978 -1.11096 1.1
      vertex -9.35138 -1.28178 1.1
      vertex -9.35138 -1.09322 1.1
    endloop
  endfacet
  facet normal 0 0 1
    outer loop
      vertex -9.35978 -1.11096 1.1
      vertex -9.35978 -1.26404 1.1
      vertex -9.35138 -1.28178 1.1
    endloop
  endfacet
  facet normal -0 0 1
    outer loop
      vertex -9.36639 -1.12944 1.1
      vertex -9.35978 -1.26404 1.1
      vertex -9.35978 -1.11096 1.1
    endloop
  endfacet
  facet normal 0 0 1
    outer loop
      vertex -9.36639 -1.12944 1.1
      vertex -9.36639 -1.24556 1.1
      vertex -9.35978 -1.26404 1.1
    endloop
  endfacet
  facet normal -0 0 1
    outer loop
      vertex -9.37116 -1.14848 1.1
      vertex -9.36639 -1.24556 1.1
      vertex -9.36639 -1.12944 1.1
    endloop
  endfacet
  facet normal 0 0 1
    outer loop
      vertex -9.37116 -1.14848 1.1
      vertex -9.37116 -1.22652 1.1
      vertex -9.36639 -1.24556 1.1
    endloop
  endfacet
  facet normal -0 0 1
    outer loop
      vertex -9.37404 -1.1679 1.1
      vertex -9.37116 -1.22652 1.1
      vertex -9.37116 -1.14848 1.1
    endloop
  endfacet
  facet normal 0 0 1
    outer loop
      vertex -9.37404 -1.1679 1.1
      vertex -9.37404 -1.2071 1.1
      vertex -9.37116 -1.22652 1.1
    endloop
  endfacet
  facet normal 0 -0 1
    outer loop
      vertex -9.37404 -1.2071 1.1
      vertex -9.37404 -1.1679 1.1
      vertex -9.375 -1.1875 1.1
    endloop
  endfacet
  facet normal 0.94158 0.336788 0
    outer loop
      vertex -9.35978 -1.26404 1.5
      vertex -9.36639 -1.24556 1.1
      vertex -9.36639 -1.24556 1.5
    endloop
  endfacet
  facet normal 0.94158 0.336788 0
    outer loop
      vertex -9.36639 -1.24556 1.1
      vertex -9.35978 -1.26404 1.5
      vertex -9.35978 -1.26404 1.1
    endloop
  endfacet
endsolid OpenSCAD_Model
