solid OpenSCAD_Model
  facet normal 0 0 -1
    outer loop
      vertex 6.75 -6.75 0
      vertex 4.15 -3.75 0
      vertex 6.75 -0.75 0
    endloop
  endfacet
  facet normal 0 0 -1
    outer loop
      vertex 6.75 -6.75 0
      vertex 4.14446 -3.86272 0
      vertex 4.15 -3.75 0
    endloop
  endfacet
  facet normal 0 0 -1
    outer loop
      vertex 6.75 -6.75 0
      vertex 4.1279 -3.97435 0
      vertex 4.14446 -3.86272 0
    endloop
  endfacet
  facet normal 0 0 -1
    outer loop
      vertex 6.75 -6.75 0
      vertex 4.10048 -4.08383 0
      vertex 4.1279 -3.97435 0
    endloop
  endfacet
  facet normal 0 0 -1
    outer loop
      vertex 6.75 -6.75 0
      vertex 4.06246 -4.19009 0
      vertex 4.10048 -4.08383 0
    endloop
  endfacet
  facet normal 0 0 -1
    outer loop
      vertex 6.75 -6.75 0
      vertex 4.01421 -4.29211 0
      vertex 4.06246 -4.19009 0
    endloop
  endfacet
  facet normal 0 0 -1
    outer loop
      vertex 6.75 -6.75 0
      vertex 3.95619 -4.38891 0
      vertex 4.01421 -4.29211 0
    endloop
  endfacet
  facet normal 0 0 -1
    outer loop
      vertex 6.75 -6.75 0
      vertex 3.88896 -4.47955 0
      vertex 3.95619 -4.38891 0
    endloop
  endfacet
  facet normal 0 0 -1
    outer loop
      vertex 6.75 -6.75 0
      vertex 3.81317 -4.56317 0
      vertex 3.88896 -4.47955 0
    endloop
  endfacet
  facet normal 0 0 -1
    outer loop
      vertex 6.75 -6.75 0
      vertex 3.72955 -4.63896 0
      vertex 3.81317 -4.56317 0
    endloop
  endfacet
  facet normal 0 0 -1
    outer loop
      vertex 6.75 -6.75 0
      vertex 3.63891 -4.70619 0
      vertex 3.72955 -4.63896 0
    endloop
  endfacet
  facet normal 0 0 -1
    outer loop
      vertex 6.75 -6.75 0
      vertex 3.54211 -4.76421 0
      vertex 3.63891 -4.70619 0
    endloop
  endfacet
  facet normal 0 0 -1
    outer loop
      vertex 6.75 -6.75 0
      vertex 3.44009 -4.81246 0
      vertex 3.54211 -4.76421 0
    endloop
  endfacet
  facet normal 0 0 -1
    outer loop
      vertex 6.75 -6.75 0
      vertex 3.33383 -4.85048 0
      vertex 3.44009 -4.81246 0
    endloop
  endfacet
  facet normal 0 0 -1
    outer loop
      vertex 6.75 -6.75 0
      vertex 3.22435 -4.8779 0
      vertex 3.33383 -4.85048 0
    endloop
  endfacet
  facet normal 0 0 -1
    outer loop
      vertex 6.75 -6.75 0
      vertex 3.11272 -4.89446 0
      vertex 3.22435 -4.8779 0
    endloop
  endfacet
  facet normal 0 0 -1
    outer loop
      vertex 6.75 -6.75 0
      vertex 3 -4.9 0
      vertex 3.11272 -4.89446 0
    endloop
  endfacet
  facet normal 0 0 -1
    outer loop
      vertex 6.75 -6.75 0
      vertex 2.88728 -4.89446 0
      vertex 3 -4.9 0
    endloop
  endfacet
  facet normal 0 0 -1
    outer loop
      vertex 6.75 -6.75 0
      vertex 2.77565 -4.8779 0
      vertex 2.88728 -4.89446 0
    endloop
  endfacet
  facet normal 0 0 -1
    outer loop
      vertex 6.75 -6.75 0
      vertex 2.66617 -4.85048 0
      vertex 2.77565 -4.8779 0
    endloop
  endfacet
  facet normal 0 0 -1
    outer loop
      vertex -6.75 -6.75 0
      vertex 2.66617 -4.85048 0
      vertex 6.75 -6.75 0
    endloop
  endfacet
  facet normal 0 0 -1
    outer loop
      vertex 1.85554 -3.86272 0
      vertex -0.75 -0.75 0
      vertex 1.85 -3.75 0
    endloop
  endfacet
  facet normal 0 0 -1
    outer loop
      vertex 1.8721 -3.97435 0
      vertex -0.75 -0.75 0
      vertex 1.85554 -3.86272 0
    endloop
  endfacet
  facet normal 0 0 -1
    outer loop
      vertex -6.75 -6.75 0
      vertex 1.8721 -3.97435 0
      vertex 1.89952 -4.08383 0
    endloop
  endfacet
  facet normal 0 0 -1
    outer loop
      vertex -6.75 -6.75 0
      vertex 1.89952 -4.08383 0
      vertex 1.93754 -4.19009 0
    endloop
  endfacet
  facet normal 0 0 -1
    outer loop
      vertex -6.75 -6.75 0
      vertex 1.93754 -4.19009 0
      vertex 1.98579 -4.29211 0
    endloop
  endfacet
  facet normal 0 0 -1
    outer loop
      vertex -6.75 -6.75 0
      vertex 1.98579 -4.29211 0
      vertex 2.04381 -4.38891 0
    endloop
  endfacet
  facet normal 0 0 -1
    outer loop
      vertex -6.75 -6.75 0
      vertex 2.04381 -4.38891 0
      vertex 2.11104 -4.47955 0
    endloop
  endfacet
  facet normal 0 0 -1
    outer loop
      vertex -0.75 -0.75 0
      vertex -2.6 3 0
      vertex -0.75 6.75 0
    endloop
  endfacet
  facet normal 0 0 -1
    outer loop
      vertex -0.75 -0.75 0
      vertex -2.60554 2.88728 0
      vertex -2.6 3 0
    endloop
  endfacet
  facet normal 0 0 -1
    outer loop
      vertex -0.75 -0.75 0
      vertex -2.6221 2.77565 0
      vertex -2.60554 2.88728 0
    endloop
  endfacet
  facet normal 0 0 -1
    outer loop
      vertex -0.75 -0.75 0
      vertex -2.64952 2.66617 0
      vertex -2.6221 2.77565 0
    endloop
  endfacet
  facet normal 0 0 -1
    outer loop
      vertex -0.75 -0.75 0
      vertex -2.68754 2.55991 0
      vertex -2.64952 2.66617 0
    endloop
  endfacet
  facet normal 0 0 -1
    outer loop
      vertex -0.75 -0.75 0
      vertex -2.73579 2.45789 0
      vertex -2.68754 2.55991 0
    endloop
  endfacet
  facet normal 0 0 -1
    outer loop
      vertex -0.75 -0.75 0
      vertex -2.79381 2.36109 0
      vertex -2.73579 2.45789 0
    endloop
  endfacet
  facet normal 0 0 -1
    outer loop
      vertex -0.75 -0.75 0
      vertex -2.86104 2.27045 0
      vertex -2.79381 2.36109 0
    endloop
  endfacet
  facet normal 0 0 -1
    outer loop
      vertex -0.75 -0.75 0
      vertex -2.93683 2.18683 0
      vertex -2.86104 2.27045 0
    endloop
  endfacet
  facet normal 0 0 -1
    outer loop
      vertex -0.75 -0.75 0
      vertex -3.02045 2.11104 0
      vertex -2.93683 2.18683 0
    endloop
  endfacet
  facet normal -0 0 -1
    outer loop
      vertex 1.8721 -3.97435 0
      vertex -6.75 -6.75 0
      vertex -0.75 -0.75 0
    endloop
  endfacet
  facet normal 0 0 -1
    outer loop
      vertex -0.75 -0.75 0
      vertex -3.11109 2.04381 0
      vertex -3.02045 2.11104 0
    endloop
  endfacet
  facet normal 0 0 -1
    outer loop
      vertex -0.75 -0.75 0
      vertex -3.20789 1.98579 0
      vertex -3.11109 2.04381 0
    endloop
  endfacet
  facet normal 0 0 -1
    outer loop
      vertex -0.75 -0.75 0
      vertex -3.30991 1.93754 0
      vertex -3.20789 1.98579 0
    endloop
  endfacet
  facet normal 0 0 -1
    outer loop
      vertex -0.75 -0.75 0
      vertex -3.41617 1.89952 0
      vertex -3.30991 1.93754 0
    endloop
  endfacet
  facet normal 0 0 -1
    outer loop
      vertex -0.75 -0.75 0
      vertex -3.52565 1.8721 0
      vertex -3.41617 1.89952 0
    endloop
  endfacet
  facet normal 0 0 -1
    outer loop
      vertex -0.75 -0.75 0
      vertex -3.63728 1.85554 0
      vertex -3.52565 1.8721 0
    endloop
  endfacet
  facet normal 0 0 -1
    outer loop
      vertex -6.75 -6.75 0
      vertex 2.11104 -4.47955 0
      vertex 2.18683 -4.56317 0
    endloop
  endfacet
  facet normal 0 -0 -1
    outer loop
      vertex -3.97435 1.8721 0
      vertex -0.75 -0.75 0
      vertex -6.75 -6.75 0
    endloop
  endfacet
  facet normal 0 0 -1
    outer loop
      vertex -0.75 -0.75 0
      vertex -3.75 1.85 0
      vertex -3.63728 1.85554 0
    endloop
  endfacet
  facet normal 0 0 -1
    outer loop
      vertex -0.75 -0.75 0
      vertex -3.86272 1.85554 0
      vertex -3.75 1.85 0
    endloop
  endfacet
  facet normal 0 0 -1
    outer loop
      vertex -0.75 -0.75 0
      vertex -3.97435 1.8721 0
      vertex -3.86272 1.85554 0
    endloop
  endfacet
  facet normal -0 0 -1
    outer loop
      vertex -3.97435 1.8721 0
      vertex -6.75 -6.75 0
      vertex -4.08383 1.89952 0
    endloop
  endfacet
  facet normal -0 0 -1
    outer loop
      vertex -4.08383 1.89952 0
      vertex -6.75 -6.75 0
      vertex -4.19009 1.93754 0
    endloop
  endfacet
  facet normal -0 0 -1
    outer loop
      vertex -4.19009 1.93754 0
      vertex -6.75 -6.75 0
      vertex -4.29211 1.98579 0
    endloop
  endfacet
  facet normal -0 0 -1
    outer loop
      vertex -4.29211 1.98579 0
      vertex -6.75 -6.75 0
      vertex -4.38891 2.04381 0
    endloop
  endfacet
  facet normal -0 0 -1
    outer loop
      vertex -4.38891 2.04381 0
      vertex -6.75 -6.75 0
      vertex -4.47955 2.11104 0
    endloop
  endfacet
  facet normal 0 0 -1
    outer loop
      vertex -4.8779 2.77565 0
      vertex -6.75 6.75 0
      vertex -4.89446 2.88728 0
    endloop
  endfacet
  facet normal 0 0 -1
    outer loop
      vertex -6.75 6.75 0
      vertex -4.8779 2.77565 0
      vertex -6.75 -6.75 0
    endloop
  endfacet
  facet normal -0 0 -1
    outer loop
      vertex -4.85048 2.66617 0
      vertex -6.75 -6.75 0
      vertex -4.8779 2.77565 0
    endloop
  endfacet
  facet normal -0 0 -1
    outer loop
      vertex -4.81246 2.55991 0
      vertex -6.75 -6.75 0
      vertex -4.85048 2.66617 0
    endloop
  endfacet
  facet normal -0 0 -1
    outer loop
      vertex -4.76421 2.45789 0
      vertex -6.75 -6.75 0
      vertex -4.81246 2.55991 0
    endloop
  endfacet
  facet normal -0 0 -1
    outer loop
      vertex -4.70619 2.36109 0
      vertex -6.75 -6.75 0
      vertex -4.76421 2.45789 0
    endloop
  endfacet
  facet normal -0 0 -1
    outer loop
      vertex -4.63896 2.27045 0
      vertex -6.75 -6.75 0
      vertex -4.70619 2.36109 0
    endloop
  endfacet
  facet normal -0 0 -1
    outer loop
      vertex -4.56317 2.18683 0
      vertex -6.75 -6.75 0
      vertex -4.63896 2.27045 0
    endloop
  endfacet
  facet normal -0 0 -1
    outer loop
      vertex -4.47955 2.11104 0
      vertex -6.75 -6.75 0
      vertex -4.56317 2.18683 0
    endloop
  endfacet
  facet normal -0 0 -1
    outer loop
      vertex 2.27045 -4.63896 0
      vertex -6.75 -6.75 0
      vertex 2.18683 -4.56317 0
    endloop
  endfacet
  facet normal -0 0 -1
    outer loop
      vertex 2.36109 -4.70619 0
      vertex -6.75 -6.75 0
      vertex 2.27045 -4.63896 0
    endloop
  endfacet
  facet normal -0 0 -1
    outer loop
      vertex 2.45789 -4.76421 0
      vertex -6.75 -6.75 0
      vertex 2.36109 -4.70619 0
    endloop
  endfacet
  facet normal -0 0 -1
    outer loop
      vertex 2.55991 -4.81246 0
      vertex -6.75 -6.75 0
      vertex 2.45789 -4.76421 0
    endloop
  endfacet
  facet normal -0 0 -1
    outer loop
      vertex 2.66617 -4.85048 0
      vertex -6.75 -6.75 0
      vertex 2.55991 -4.81246 0
    endloop
  endfacet
  facet normal 0 0 -1
    outer loop
      vertex 4.14446 -3.63728 0
      vertex 6.75 -0.75 0
      vertex 4.15 -3.75 0
    endloop
  endfacet
  facet normal 0 0 -1
    outer loop
      vertex 4.1279 -3.52565 0
      vertex 6.75 -0.75 0
      vertex 4.14446 -3.63728 0
    endloop
  endfacet
  facet normal 0 0 -1
    outer loop
      vertex 4.10048 -3.41617 0
      vertex 6.75 -0.75 0
      vertex 4.1279 -3.52565 0
    endloop
  endfacet
  facet normal 0 0 -1
    outer loop
      vertex 4.06246 -3.30991 0
      vertex 6.75 -0.75 0
      vertex 4.10048 -3.41617 0
    endloop
  endfacet
  facet normal 0 0 -1
    outer loop
      vertex 4.01421 -3.20789 0
      vertex 6.75 -0.75 0
      vertex 4.06246 -3.30991 0
    endloop
  endfacet
  facet normal 0 0 -1
    outer loop
      vertex 3.95619 -3.11109 0
      vertex 6.75 -0.75 0
      vertex 4.01421 -3.20789 0
    endloop
  endfacet
  facet normal 0 0 -1
    outer loop
      vertex 3.88896 -3.02045 0
      vertex 6.75 -0.75 0
      vertex 3.95619 -3.11109 0
    endloop
  endfacet
  facet normal 0 0 -1
    outer loop
      vertex 3.81317 -2.93683 0
      vertex 6.75 -0.75 0
      vertex 3.88896 -3.02045 0
    endloop
  endfacet
  facet normal 0 0 -1
    outer loop
      vertex 3.72955 -2.86104 0
      vertex 6.75 -0.75 0
      vertex 3.81317 -2.93683 0
    endloop
  endfacet
  facet normal 0 0 -1
    outer loop
      vertex 3.63891 -2.79381 0
      vertex 6.75 -0.75 0
      vertex 3.72955 -2.86104 0
    endloop
  endfacet
  facet normal 0 0 -1
    outer loop
      vertex 3.54211 -2.73579 0
      vertex 6.75 -0.75 0
      vertex 3.63891 -2.79381 0
    endloop
  endfacet
  facet normal 0 0 -1
    outer loop
      vertex 3.44009 -2.68754 0
      vertex 6.75 -0.75 0
      vertex 3.54211 -2.73579 0
    endloop
  endfacet
  facet normal 0 0 -1
    outer loop
      vertex 3.33383 -2.64952 0
      vertex 6.75 -0.75 0
      vertex 3.44009 -2.68754 0
    endloop
  endfacet
  facet normal 0 0 -1
    outer loop
      vertex 3.22435 -2.6221 0
      vertex 6.75 -0.75 0
      vertex 3.33383 -2.64952 0
    endloop
  endfacet
  facet normal 0 0 -1
    outer loop
      vertex 3.11272 -2.60554 0
      vertex 6.75 -0.75 0
      vertex 3.22435 -2.6221 0
    endloop
  endfacet
  facet normal 0 0 -1
    outer loop
      vertex 3 -2.6 0
      vertex 6.75 -0.75 0
      vertex 3.11272 -2.60554 0
    endloop
  endfacet
  facet normal 0 0 -1
    outer loop
      vertex -0.75 -0.75 0
      vertex 3 -2.6 0
      vertex 2.88728 -2.60554 0
    endloop
  endfacet
  facet normal 0 0 -1
    outer loop
      vertex -0.75 -0.75 0
      vertex 2.88728 -2.60554 0
      vertex 2.77565 -2.6221 0
    endloop
  endfacet
  facet normal 0 0 -1
    outer loop
      vertex -0.75 -0.75 0
      vertex 2.77565 -2.6221 0
      vertex 2.66617 -2.64952 0
    endloop
  endfacet
  facet normal 0 0 -1
    outer loop
      vertex -0.75 -0.75 0
      vertex 2.66617 -2.64952 0
      vertex 2.55991 -2.68754 0
    endloop
  endfacet
  facet normal 0 0 -1
    outer loop
      vertex 3 -2.6 0
      vertex -0.75 -0.75 0
      vertex 6.75 -0.75 0
    endloop
  endfacet
  facet normal 0 0 -1
    outer loop
      vertex 2.45789 -2.73579 0
      vertex -0.75 -0.75 0
      vertex 2.55991 -2.68754 0
    endloop
  endfacet
  facet normal 0 0 -1
    outer loop
      vertex 2.36109 -2.79381 0
      vertex -0.75 -0.75 0
      vertex 2.45789 -2.73579 0
    endloop
  endfacet
  facet normal 0 0 -1
    outer loop
      vertex 2.27045 -2.86104 0
      vertex -0.75 -0.75 0
      vertex 2.36109 -2.79381 0
    endloop
  endfacet
  facet normal 0 0 -1
    outer loop
      vertex 2.18683 -2.93683 0
      vertex -0.75 -0.75 0
      vertex 2.27045 -2.86104 0
    endloop
  endfacet
  facet normal 0 0 -1
    outer loop
      vertex 2.11104 -3.02045 0
      vertex -0.75 -0.75 0
      vertex 2.18683 -2.93683 0
    endloop
  endfacet
  facet normal 0 0 -1
    outer loop
      vertex 2.04381 -3.11109 0
      vertex -0.75 -0.75 0
      vertex 2.11104 -3.02045 0
    endloop
  endfacet
  facet normal 0 0 -1
    outer loop
      vertex 1.98579 -3.20789 0
      vertex -0.75 -0.75 0
      vertex 2.04381 -3.11109 0
    endloop
  endfacet
  facet normal 0 0 -1
    outer loop
      vertex 1.93754 -3.30991 0
      vertex -0.75 -0.75 0
      vertex 1.98579 -3.20789 0
    endloop
  endfacet
  facet normal 0 0 -1
    outer loop
      vertex 1.89952 -3.41617 0
      vertex -0.75 -0.75 0
      vertex 1.93754 -3.30991 0
    endloop
  endfacet
  facet normal 0 0 -1
    outer loop
      vertex 1.8721 -3.52565 0
      vertex -0.75 -0.75 0
      vertex 1.89952 -3.41617 0
    endloop
  endfacet
  facet normal 0 0 -1
    outer loop
      vertex 1.85554 -3.63728 0
      vertex -0.75 -0.75 0
      vertex 1.8721 -3.52565 0
    endloop
  endfacet
  facet normal 0 0 -1
    outer loop
      vertex -0.75 -0.75 0
      vertex 1.85554 -3.63728 0
      vertex 1.85 -3.75 0
    endloop
  endfacet
  facet normal 0 0 -1
    outer loop
      vertex -2.60554 3.11272 0
      vertex -0.75 6.75 0
      vertex -2.6 3 0
    endloop
  endfacet
  facet normal 0 0 -1
    outer loop
      vertex -2.6221 3.22435 0
      vertex -0.75 6.75 0
      vertex -2.60554 3.11272 0
    endloop
  endfacet
  facet normal 0 0 -1
    outer loop
      vertex -2.64952 3.33383 0
      vertex -0.75 6.75 0
      vertex -2.6221 3.22435 0
    endloop
  endfacet
  facet normal 0 0 -1
    outer loop
      vertex -2.68754 3.44009 0
      vertex -0.75 6.75 0
      vertex -2.64952 3.33383 0
    endloop
  endfacet
  facet normal 0 0 -1
    outer loop
      vertex -2.73579 3.54211 0
      vertex -0.75 6.75 0
      vertex -2.68754 3.44009 0
    endloop
  endfacet
  facet normal 0 0 -1
    outer loop
      vertex -2.79381 3.63891 0
      vertex -0.75 6.75 0
      vertex -2.73579 3.54211 0
    endloop
  endfacet
  facet normal 0 0 -1
    outer loop
      vertex -2.86104 3.72955 0
      vertex -0.75 6.75 0
      vertex -2.79381 3.63891 0
    endloop
  endfacet
  facet normal 0 0 -1
    outer loop
      vertex -2.93683 3.81317 0
      vertex -0.75 6.75 0
      vertex -2.86104 3.72955 0
    endloop
  endfacet
  facet normal 0 0 -1
    outer loop
      vertex -3.02045 3.88896 0
      vertex -0.75 6.75 0
      vertex -2.93683 3.81317 0
    endloop
  endfacet
  facet normal 0 0 -1
    outer loop
      vertex -3.11109 3.95619 0
      vertex -0.75 6.75 0
      vertex -3.02045 3.88896 0
    endloop
  endfacet
  facet normal 0 0 -1
    outer loop
      vertex -3.20789 4.01421 0
      vertex -0.75 6.75 0
      vertex -3.11109 3.95619 0
    endloop
  endfacet
  facet normal 0 0 -1
    outer loop
      vertex -3.30991 4.06246 0
      vertex -0.75 6.75 0
      vertex -3.20789 4.01421 0
    endloop
  endfacet
  facet normal 0 0 -1
    outer loop
      vertex -3.41617 4.10048 0
      vertex -0.75 6.75 0
      vertex -3.30991 4.06246 0
    endloop
  endfacet
  facet normal 0 0 -1
    outer loop
      vertex -3.52565 4.1279 0
      vertex -0.75 6.75 0
      vertex -3.41617 4.10048 0
    endloop
  endfacet
  facet normal 0 0 -1
    outer loop
      vertex -3.63728 4.14446 0
      vertex -0.75 6.75 0
      vertex -3.52565 4.1279 0
    endloop
  endfacet
  facet normal 0 0 -1
    outer loop
      vertex -3.75 4.15 0
      vertex -0.75 6.75 0
      vertex -3.63728 4.14446 0
    endloop
  endfacet
  facet normal 0 0 -1
    outer loop
      vertex -6.75 6.75 0
      vertex -3.75 4.15 0
      vertex -3.86272 4.14446 0
    endloop
  endfacet
  facet normal 0 0 -1
    outer loop
      vertex -6.75 6.75 0
      vertex -3.86272 4.14446 0
      vertex -3.97435 4.1279 0
    endloop
  endfacet
  facet normal 0 0 -1
    outer loop
      vertex -6.75 6.75 0
      vertex -3.97435 4.1279 0
      vertex -4.08383 4.10048 0
    endloop
  endfacet
  facet normal 0 0 -1
    outer loop
      vertex -6.75 6.75 0
      vertex -4.08383 4.10048 0
      vertex -4.19009 4.06246 0
    endloop
  endfacet
  facet normal 0 0 -1
    outer loop
      vertex -6.75 6.75 0
      vertex -4.19009 4.06246 0
      vertex -4.29211 4.01421 0
    endloop
  endfacet
  facet normal 0 0 -1
    outer loop
      vertex -6.75 6.75 0
      vertex -4.29211 4.01421 0
      vertex -4.38891 3.95619 0
    endloop
  endfacet
  facet normal 0 0 -1
    outer loop
      vertex -6.75 6.75 0
      vertex -4.38891 3.95619 0
      vertex -4.47955 3.88896 0
    endloop
  endfacet
  facet normal 0 0 -1
    outer loop
      vertex -4.89446 2.88728 0
      vertex -6.75 6.75 0
      vertex -4.9 3 0
    endloop
  endfacet
  facet normal 0 0 -1
    outer loop
      vertex -4.9 3 0
      vertex -6.75 6.75 0
      vertex -4.89446 3.11272 0
    endloop
  endfacet
  facet normal 0 0 -1
    outer loop
      vertex -3.75 4.15 0
      vertex -6.75 6.75 0
      vertex -0.75 6.75 0
    endloop
  endfacet
  facet normal 0 0 -1
    outer loop
      vertex -4.56317 3.81317 0
      vertex -6.75 6.75 0
      vertex -4.47955 3.88896 0
    endloop
  endfacet
  facet normal 0 0 -1
    outer loop
      vertex -4.63896 3.72955 0
      vertex -6.75 6.75 0
      vertex -4.56317 3.81317 0
    endloop
  endfacet
  facet normal 0 0 -1
    outer loop
      vertex -4.70619 3.63891 0
      vertex -6.75 6.75 0
      vertex -4.63896 3.72955 0
    endloop
  endfacet
  facet normal 0 0 -1
    outer loop
      vertex -4.76421 3.54211 0
      vertex -6.75 6.75 0
      vertex -4.70619 3.63891 0
    endloop
  endfacet
  facet normal 0 0 -1
    outer loop
      vertex -4.81246 3.44009 0
      vertex -6.75 6.75 0
      vertex -4.76421 3.54211 0
    endloop
  endfacet
  facet normal 0 0 -1
    outer loop
      vertex -4.85048 3.33383 0
      vertex -6.75 6.75 0
      vertex -4.81246 3.44009 0
    endloop
  endfacet
  facet normal 0 0 -1
    outer loop
      vertex -4.8779 3.22435 0
      vertex -6.75 6.75 0
      vertex -4.85048 3.33383 0
    endloop
  endfacet
  facet normal 0 0 -1
    outer loop
      vertex -4.89446 3.11272 0
      vertex -6.75 6.75 0
      vertex -4.8779 3.22435 0
    endloop
  endfacet
  facet normal 1 -0 0
    outer loop
      vertex 6.75 -6.75 25
      vertex 6.75 -0.75 0
      vertex 6.75 -0.75 25
    endloop
  endfacet
  facet normal 1 0 0
    outer loop
      vertex 6.75 -0.75 0
      vertex 6.75 -6.75 25
      vertex 6.75 -6.75 0
    endloop
  endfacet
  facet normal 0 -1 0
    outer loop
      vertex -6.75 -6.75 0
      vertex 6.75 -6.75 25
      vertex -6.75 -6.75 25
    endloop
  endfacet
  facet normal 0 -1 -0
    outer loop
      vertex 6.75 -6.75 25
      vertex -6.75 -6.75 0
      vertex 6.75 -6.75 0
    endloop
  endfacet
  facet normal 0 0 1
    outer loop
      vertex -0.75 6.75 25
      vertex -6.75 6.75 25
      vertex -0.75 -0.75 25
    endloop
  endfacet
  facet normal -0 0 1
    outer loop
      vertex -0.75 -0.75 25
      vertex 6.75 -6.75 25
      vertex 6.75 -0.75 25
    endloop
  endfacet
  facet normal 0 0 1
    outer loop
      vertex -0.75 -0.75 25
      vertex -6.75 -6.75 25
      vertex 6.75 -6.75 25
    endloop
  endfacet
  facet normal 0 0 1
    outer loop
      vertex -6.75 -6.75 25
      vertex -0.75 -0.75 25
      vertex -6.75 6.75 25
    endloop
  endfacet
  facet normal -1 0 0
    outer loop
      vertex -6.75 -6.75 0
      vertex -6.75 6.75 25
      vertex -6.75 6.75 0
    endloop
  endfacet
  facet normal -1 -0 0
    outer loop
      vertex -6.75 6.75 25
      vertex -6.75 -6.75 0
      vertex -6.75 -6.75 25
    endloop
  endfacet
  facet normal 0 1 -0
    outer loop
      vertex 6.75 -0.75 0
      vertex -0.75 -0.75 25
      vertex 6.75 -0.75 25
    endloop
  endfacet
  facet normal 0 1 0
    outer loop
      vertex -0.75 -0.75 25
      vertex 6.75 -0.75 0
      vertex -0.75 -0.75 0
    endloop
  endfacet
  facet normal 1 -0 0
    outer loop
      vertex -0.75 -0.75 25
      vertex -0.75 6.75 0
      vertex -0.75 6.75 25
    endloop
  endfacet
  facet normal 1 0 0
    outer loop
      vertex -0.75 6.75 0
      vertex -0.75 -0.75 25
      vertex -0.75 -0.75 0
    endloop
  endfacet
  facet normal 0 1 -0
    outer loop
      vertex -0.75 6.75 0
      vertex -6.75 6.75 25
      vertex -0.75 6.75 25
    endloop
  endfacet
  facet normal 0 1 0
    outer loop
      vertex -6.75 6.75 25
      vertex -0.75 6.75 0
      vertex -6.75 6.75 0
    endloop
  endfacet
  facet normal -0.989175 -0.146741 0
    outer loop
      vertex 4.14446 -3.63728 0
      vertex 4.1279 -3.52565 1.2
      vertex 4.1279 -3.52565 0
    endloop
  endfacet
  facet normal -0.989175 -0.146741 0
    outer loop
      vertex 4.1279 -3.52565 1.2
      vertex 4.14446 -3.63728 0
      vertex 4.14446 -3.63728 1.2
    endloop
  endfacet
  facet normal -0.998794 -0.0490891 0
    outer loop
      vertex 4.15 -3.75 0
      vertex 4.14446 -3.63728 1.2
      vertex 4.14446 -3.63728 0
    endloop
  endfacet
  facet normal -0.998794 -0.0490891 0
    outer loop
      vertex 4.14446 -3.63728 1.2
      vertex 4.15 -3.75 0
      vertex 4.15 -3.75 1.2
    endloop
  endfacet
  facet normal -0.970038 -0.242953 0
    outer loop
      vertex 4.1279 -3.52565 0
      vertex 4.10048 -3.41617 1.2
      vertex 4.10048 -3.41617 0
    endloop
  endfacet
  facet normal -0.970038 -0.242953 0
    outer loop
      vertex 4.10048 -3.41617 1.2
      vertex 4.1279 -3.52565 0
      vertex 4.1279 -3.52565 1.2
    endloop
  endfacet
  facet normal 0.146741 -0.989175 0
    outer loop
      vertex 2.77565 -2.6221 0
      vertex 2.88728 -2.60554 1.2
      vertex 2.77565 -2.6221 1.2
    endloop
  endfacet
  facet normal 0.146741 -0.989175 0
    outer loop
      vertex 2.88728 -2.60554 1.2
      vertex 2.77565 -2.6221 0
      vertex 2.88728 -2.60554 0
    endloop
  endfacet
  facet normal 0.941545 0.336886 0
    outer loop
      vertex 1.93754 -4.19009 1.2
      vertex 1.89952 -4.08383 0
      vertex 1.89952 -4.08383 1.2
    endloop
  endfacet
  facet normal 0.941545 0.336886 0
    outer loop
      vertex 1.89952 -4.08383 0
      vertex 1.93754 -4.19009 1.2
      vertex 1.93754 -4.19009 0
    endloop
  endfacet
  facet normal -0.514105 -0.857727 0
    outer loop
      vertex 3.54211 -2.73579 0
      vertex 3.63891 -2.79381 1.2
      vertex 3.54211 -2.73579 1.2
    endloop
  endfacet
  facet normal -0.514105 -0.857727 -0
    outer loop
      vertex 3.63891 -2.79381 1.2
      vertex 3.54211 -2.73579 0
      vertex 3.63891 -2.79381 0
    endloop
  endfacet
  facet normal 0.857727 -0.514105 0
    outer loop
      vertex 1.98579 -3.20789 1.2
      vertex 2.04381 -3.11109 0
      vertex 2.04381 -3.11109 1.2
    endloop
  endfacet
  facet normal 0.857727 -0.514105 0
    outer loop
      vertex 2.04381 -3.11109 0
      vertex 1.98579 -3.20789 1.2
      vertex 1.98579 -3.20789 0
    endloop
  endfacet
  facet normal -0.427542 0.903996 0
    outer loop
      vertex 3.54211 -4.76421 0
      vertex 3.44009 -4.81246 1.2
      vertex 3.54211 -4.76421 1.2
    endloop
  endfacet
  facet normal -0.427542 0.903996 0
    outer loop
      vertex 3.44009 -4.81246 1.2
      vertex 3.54211 -4.76421 0
      vertex 3.44009 -4.81246 0
    endloop
  endfacet
  facet normal -0.998794 0.0490891 0
    outer loop
      vertex 4.14446 -3.86272 0
      vertex 4.15 -3.75 1.2
      vertex 4.15 -3.75 0
    endloop
  endfacet
  facet normal -0.998794 0.0490891 0
    outer loop
      vertex 4.15 -3.75 1.2
      vertex 4.14446 -3.86272 0
      vertex 4.14446 -3.86272 1.2
    endloop
  endfacet
  facet normal -0.242953 0.970038 0
    outer loop
      vertex 3.33383 -4.85048 0
      vertex 3.22435 -4.8779 1.2
      vertex 3.33383 -4.85048 1.2
    endloop
  endfacet
  facet normal -0.242953 0.970038 0
    outer loop
      vertex 3.22435 -4.8779 1.2
      vertex 3.33383 -4.85048 0
      vertex 3.22435 -4.8779 0
    endloop
  endfacet
  facet normal 0.595738 -0.803179 0
    outer loop
      vertex 2.27045 -2.86104 0
      vertex 2.36109 -2.79381 1.2
      vertex 2.27045 -2.86104 1.2
    endloop
  endfacet
  facet normal 0.595738 -0.803179 0
    outer loop
      vertex 2.36109 -2.79381 1.2
      vertex 2.27045 -2.86104 0
      vertex 2.36109 -2.79381 0
    endloop
  endfacet
  facet normal -0.0490891 0.998794 0
    outer loop
      vertex 3.11272 -4.89446 0
      vertex 3 -4.9 1.2
      vertex 3.11272 -4.89446 1.2
    endloop
  endfacet
  facet normal -0.0490891 0.998794 0
    outer loop
      vertex 3 -4.9 1.2
      vertex 3.11272 -4.89446 0
      vertex 3 -4.9 0
    endloop
  endfacet
  facet normal 0.514105 0.857727 -0
    outer loop
      vertex 2.45789 -4.76421 0
      vertex 2.36109 -4.70619 1.2
      vertex 2.45789 -4.76421 1.2
    endloop
  endfacet
  facet normal 0.514105 0.857727 0
    outer loop
      vertex 2.36109 -4.70619 1.2
      vertex 2.45789 -4.76421 0
      vertex 2.36109 -4.70619 0
    endloop
  endfacet
  facet normal -0.903996 -0.427542 0
    outer loop
      vertex 4.06246 -3.30991 0
      vertex 4.01421 -3.20789 1.2
      vertex 4.01421 -3.20789 0
    endloop
  endfacet
  facet normal -0.903996 -0.427542 0
    outer loop
      vertex 4.01421 -3.20789 1.2
      vertex 4.06246 -3.30991 0
      vertex 4.06246 -3.30991 1.2
    endloop
  endfacet
  facet normal 0.146741 0.989175 -0
    outer loop
      vertex 2.88728 -4.89446 0
      vertex 2.77565 -4.8779 1.2
      vertex 2.88728 -4.89446 1.2
    endloop
  endfacet
  facet normal 0.146741 0.989175 0
    outer loop
      vertex 2.77565 -4.8779 1.2
      vertex 2.88728 -4.89446 0
      vertex 2.77565 -4.8779 0
    endloop
  endfacet
  facet normal 0.242953 0.970038 -0
    outer loop
      vertex 2.77565 -4.8779 0
      vertex 2.66617 -4.85048 1.2
      vertex 2.77565 -4.8779 1.2
    endloop
  endfacet
  facet normal 0.242953 0.970038 0
    outer loop
      vertex 2.66617 -4.85048 1.2
      vertex 2.77565 -4.8779 0
      vertex 2.66617 -4.85048 0
    endloop
  endfacet
  facet normal -0.595738 -0.803179 0
    outer loop
      vertex 3.63891 -2.79381 0
      vertex 3.72955 -2.86104 1.2
      vertex 3.63891 -2.79381 1.2
    endloop
  endfacet
  facet normal -0.595738 -0.803179 -0
    outer loop
      vertex 3.72955 -2.86104 1.2
      vertex 3.63891 -2.79381 0
      vertex 3.72955 -2.86104 0
    endloop
  endfacet
  facet normal 0.903996 0.427542 0
    outer loop
      vertex 1.98579 -4.29211 1.2
      vertex 1.93754 -4.19009 0
      vertex 1.93754 -4.19009 1.2
    endloop
  endfacet
  facet normal 0.903996 0.427542 0
    outer loop
      vertex 1.93754 -4.19009 0
      vertex 1.98579 -4.29211 1.2
      vertex 1.98579 -4.29211 0
    endloop
  endfacet
  facet normal -0.803179 0.595738 0
    outer loop
      vertex 3.88896 -4.47955 0
      vertex 3.95619 -4.38891 1.2
      vertex 3.95619 -4.38891 0
    endloop
  endfacet
  facet normal -0.803179 0.595738 0
    outer loop
      vertex 3.95619 -4.38891 1.2
      vertex 3.88896 -4.47955 0
      vertex 3.88896 -4.47955 1.2
    endloop
  endfacet
  facet normal -0.803179 -0.595738 0
    outer loop
      vertex 3.95619 -3.11109 0
      vertex 3.88896 -3.02045 1.2
      vertex 3.88896 -3.02045 0
    endloop
  endfacet
  facet normal -0.803179 -0.595738 0
    outer loop
      vertex 3.88896 -3.02045 1.2
      vertex 3.95619 -3.11109 0
      vertex 3.95619 -3.11109 1.2
    endloop
  endfacet
  facet normal 0 0 -1
    outer loop
      vertex 4.14446 -3.86272 1.2
      vertex 4.14446 -3.63728 1.2
      vertex 4.15 -3.75 1.2
    endloop
  endfacet
  facet normal 0 0 -1
    outer loop
      vertex 4.1279 -3.97435 1.2
      vertex 4.14446 -3.63728 1.2
      vertex 4.14446 -3.86272 1.2
    endloop
  endfacet
  facet normal 0 0 -1
    outer loop
      vertex 4.1279 -3.97435 1.2
      vertex 4.1279 -3.52565 1.2
      vertex 4.14446 -3.63728 1.2
    endloop
  endfacet
  facet normal 0 0 -1
    outer loop
      vertex 4.10048 -4.08383 1.2
      vertex 4.1279 -3.52565 1.2
      vertex 4.1279 -3.97435 1.2
    endloop
  endfacet
  facet normal 0 0 -1
    outer loop
      vertex 4.10048 -4.08383 1.2
      vertex 4.10048 -3.41617 1.2
      vertex 4.1279 -3.52565 1.2
    endloop
  endfacet
  facet normal 0 0 -1
    outer loop
      vertex 4.06246 -4.19009 1.2
      vertex 4.10048 -3.41617 1.2
      vertex 4.10048 -4.08383 1.2
    endloop
  endfacet
  facet normal 0 0 -1
    outer loop
      vertex 4.06246 -4.19009 1.2
      vertex 4.06246 -3.30991 1.2
      vertex 4.10048 -3.41617 1.2
    endloop
  endfacet
  facet normal 0 0 -1
    outer loop
      vertex 4.01421 -4.29211 1.2
      vertex 4.06246 -3.30991 1.2
      vertex 4.06246 -4.19009 1.2
    endloop
  endfacet
  facet normal 0 0 -1
    outer loop
      vertex 4.01421 -4.29211 1.2
      vertex 4.01421 -3.20789 1.2
      vertex 4.06246 -3.30991 1.2
    endloop
  endfacet
  facet normal 0 0 -1
    outer loop
      vertex 3.95619 -4.38891 1.2
      vertex 4.01421 -3.20789 1.2
      vertex 4.01421 -4.29211 1.2
    endloop
  endfacet
  facet normal 0 0 -1
    outer loop
      vertex 3.95619 -4.38891 1.2
      vertex 3.95619 -3.11109 1.2
      vertex 4.01421 -3.20789 1.2
    endloop
  endfacet
  facet normal 0 0 -1
    outer loop
      vertex 3.88896 -4.47955 1.2
      vertex 3.95619 -3.11109 1.2
      vertex 3.95619 -4.38891 1.2
    endloop
  endfacet
  facet normal 0 0 -1
    outer loop
      vertex 3.88896 -4.47955 1.2
      vertex 3.88896 -3.02045 1.2
      vertex 3.95619 -3.11109 1.2
    endloop
  endfacet
  facet normal 0 0 -1
    outer loop
      vertex 3.81317 -4.56317 1.2
      vertex 3.88896 -3.02045 1.2
      vertex 3.88896 -4.47955 1.2
    endloop
  endfacet
  facet normal 0 0 -1
    outer loop
      vertex 3.81317 -4.56317 1.2
      vertex 3.81317 -2.93683 1.2
      vertex 3.88896 -3.02045 1.2
    endloop
  endfacet
  facet normal 0 0 -1
    outer loop
      vertex 3.72955 -4.63896 1.2
      vertex 3.81317 -2.93683 1.2
      vertex 3.81317 -4.56317 1.2
    endloop
  endfacet
  facet normal 0 0 -1
    outer loop
      vertex 3.72955 -4.63896 1.2
      vertex 3.72955 -2.86104 1.2
      vertex 3.81317 -2.93683 1.2
    endloop
  endfacet
  facet normal 0 0 -1
    outer loop
      vertex 3.63891 -4.70619 1.2
      vertex 3.72955 -2.86104 1.2
      vertex 3.72955 -4.63896 1.2
    endloop
  endfacet
  facet normal 0 0 -1
    outer loop
      vertex 3.63891 -4.70619 1.2
      vertex 3.63891 -2.79381 1.2
      vertex 3.72955 -2.86104 1.2
    endloop
  endfacet
  facet normal 0 0 -1
    outer loop
      vertex 3.54211 -4.76421 1.2
      vertex 3.63891 -2.79381 1.2
      vertex 3.63891 -4.70619 1.2
    endloop
  endfacet
  facet normal 0 0 -1
    outer loop
      vertex 3.54211 -4.76421 1.2
      vertex 3.54211 -2.73579 1.2
      vertex 3.63891 -2.79381 1.2
    endloop
  endfacet
  facet normal 0 0 -1
    outer loop
      vertex 3.44009 -4.81246 1.2
      vertex 3.54211 -2.73579 1.2
      vertex 3.54211 -4.76421 1.2
    endloop
  endfacet
  facet normal 0 0 -1
    outer loop
      vertex 3.44009 -4.81246 1.2
      vertex 3.44009 -2.68754 1.2
      vertex 3.54211 -2.73579 1.2
    endloop
  endfacet
  facet normal 0 0 -1
    outer loop
      vertex 3.33383 -4.85048 1.2
      vertex 3.44009 -2.68754 1.2
      vertex 3.44009 -4.81246 1.2
    endloop
  endfacet
  facet normal 0 0 -1
    outer loop
      vertex 3.33383 -4.85048 1.2
      vertex 3.33383 -2.64952 1.2
      vertex 3.44009 -2.68754 1.2
    endloop
  endfacet
  facet normal 0 0 -1
    outer loop
      vertex 3.22435 -4.8779 1.2
      vertex 3.33383 -2.64952 1.2
      vertex 3.33383 -4.85048 1.2
    endloop
  endfacet
  facet normal 0 0 -1
    outer loop
      vertex 3.22435 -4.8779 1.2
      vertex 3.22435 -2.6221 1.2
      vertex 3.33383 -2.64952 1.2
    endloop
  endfacet
  facet normal 0 0 -1
    outer loop
      vertex 3.11272 -4.89446 1.2
      vertex 3.22435 -2.6221 1.2
      vertex 3.22435 -4.8779 1.2
    endloop
  endfacet
  facet normal 0 0 -1
    outer loop
      vertex 3.11272 -4.89446 1.2
      vertex 3.11272 -2.60554 1.2
      vertex 3.22435 -2.6221 1.2
    endloop
  endfacet
  facet normal 0 0 -1
    outer loop
      vertex 3 -4.9 1.2
      vertex 3.11272 -2.60554 1.2
      vertex 3.11272 -4.89446 1.2
    endloop
  endfacet
  facet normal 0 0 -1
    outer loop
      vertex 3 -4.9 1.2
      vertex 3 -2.6 1.2
      vertex 3.11272 -2.60554 1.2
    endloop
  endfacet
  facet normal 0 0 -1
    outer loop
      vertex 2.88728 -4.89446 1.2
      vertex 3 -2.6 1.2
      vertex 3 -4.9 1.2
    endloop
  endfacet
  facet normal 0 0 -1
    outer loop
      vertex 2.88728 -4.89446 1.2
      vertex 2.88728 -2.60554 1.2
      vertex 3 -2.6 1.2
    endloop
  endfacet
  facet normal 0 0 -1
    outer loop
      vertex 2.77565 -4.8779 1.2
      vertex 2.88728 -2.60554 1.2
      vertex 2.88728 -4.89446 1.2
    endloop
  endfacet
  facet normal 0 0 -1
    outer loop
      vertex 2.77565 -4.8779 1.2
      vertex 2.77565 -2.6221 1.2
      vertex 2.88728 -2.60554 1.2
    endloop
  endfacet
  facet normal 0 0 -1
    outer loop
      vertex 2.66617 -4.85048 1.2
      vertex 2.77565 -2.6221 1.2
      vertex 2.77565 -4.8779 1.2
    endloop
  endfacet
  facet normal 0 0 -1
    outer loop
      vertex 2.66617 -4.85048 1.2
      vertex 2.66617 -2.64952 1.2
      vertex 2.77565 -2.6221 1.2
    endloop
  endfacet
  facet normal 0 0 -1
    outer loop
      vertex 2.55991 -4.81246 1.2
      vertex 2.66617 -2.64952 1.2
      vertex 2.66617 -4.85048 1.2
    endloop
  endfacet
  facet normal 0 0 -1
    outer loop
      vertex 2.55991 -4.81246 1.2
      vertex 2.55991 -2.68754 1.2
      vertex 2.66617 -2.64952 1.2
    endloop
  endfacet
  facet normal 0 0 -1
    outer loop
      vertex 2.45789 -4.76421 1.2
      vertex 2.55991 -2.68754 1.2
      vertex 2.55991 -4.81246 1.2
    endloop
  endfacet
  facet normal 0 0 -1
    outer loop
      vertex 2.45789 -4.76421 1.2
      vertex 2.45789 -2.73579 1.2
      vertex 2.55991 -2.68754 1.2
    endloop
  endfacet
  facet normal 0 0 -1
    outer loop
      vertex 2.36109 -4.70619 1.2
      vertex 2.45789 -2.73579 1.2
      vertex 2.45789 -4.76421 1.2
    endloop
  endfacet
  facet normal 0 0 -1
    outer loop
      vertex 2.36109 -4.70619 1.2
      vertex 2.36109 -2.79381 1.2
      vertex 2.45789 -2.73579 1.2
    endloop
  endfacet
  facet normal 0 0 -1
    outer loop
      vertex 2.27045 -4.63896 1.2
      vertex 2.36109 -2.79381 1.2
      vertex 2.36109 -4.70619 1.2
    endloop
  endfacet
  facet normal 0 0 -1
    outer loop
      vertex 2.27045 -4.63896 1.2
      vertex 2.27045 -2.86104 1.2
      vertex 2.36109 -2.79381 1.2
    endloop
  endfacet
  facet normal 0 0 -1
    outer loop
      vertex 2.18683 -4.56317 1.2
      vertex 2.27045 -2.86104 1.2
      vertex 2.27045 -4.63896 1.2
    endloop
  endfacet
  facet normal 0 0 -1
    outer loop
      vertex 2.18683 -4.56317 1.2
      vertex 2.18683 -2.93683 1.2
      vertex 2.27045 -2.86104 1.2
    endloop
  endfacet
  facet normal 0 0 -1
    outer loop
      vertex 2.11104 -4.47955 1.2
      vertex 2.18683 -2.93683 1.2
      vertex 2.18683 -4.56317 1.2
    endloop
  endfacet
  facet normal 0 0 -1
    outer loop
      vertex 2.11104 -4.47955 1.2
      vertex 2.11104 -3.02045 1.2
      vertex 2.18683 -2.93683 1.2
    endloop
  endfacet
  facet normal 0 0 -1
    outer loop
      vertex 2.04381 -4.38891 1.2
      vertex 2.11104 -3.02045 1.2
      vertex 2.11104 -4.47955 1.2
    endloop
  endfacet
  facet normal 0 0 -1
    outer loop
      vertex 2.04381 -4.38891 1.2
      vertex 2.04381 -3.11109 1.2
      vertex 2.11104 -3.02045 1.2
    endloop
  endfacet
  facet normal 0 0 -1
    outer loop
      vertex 1.98579 -4.29211 1.2
      vertex 2.04381 -3.11109 1.2
      vertex 2.04381 -4.38891 1.2
    endloop
  endfacet
  facet normal 0 0 -1
    outer loop
      vertex 1.98579 -4.29211 1.2
      vertex 1.98579 -3.20789 1.2
      vertex 2.04381 -3.11109 1.2
    endloop
  endfacet
  facet normal 0 0 -1
    outer loop
      vertex 1.93754 -4.19009 1.2
      vertex 1.98579 -3.20789 1.2
      vertex 1.98579 -4.29211 1.2
    endloop
  endfacet
  facet normal 0 0 -1
    outer loop
      vertex 1.93754 -4.19009 1.2
      vertex 1.93754 -3.30991 1.2
      vertex 1.98579 -3.20789 1.2
    endloop
  endfacet
  facet normal 0 0 -1
    outer loop
      vertex 1.89952 -4.08383 1.2
      vertex 1.93754 -3.30991 1.2
      vertex 1.93754 -4.19009 1.2
    endloop
  endfacet
  facet normal 0 0 -1
    outer loop
      vertex 1.89952 -4.08383 1.2
      vertex 1.89952 -3.41617 1.2
      vertex 1.93754 -3.30991 1.2
    endloop
  endfacet
  facet normal 0 0 -1
    outer loop
      vertex 1.8721 -3.97435 1.2
      vertex 1.89952 -3.41617 1.2
      vertex 1.89952 -4.08383 1.2
    endloop
  endfacet
  facet normal 0 0 -1
    outer loop
      vertex 1.8721 -3.97435 1.2
      vertex 1.8721 -3.52565 1.2
      vertex 1.89952 -3.41617 1.2
    endloop
  endfacet
  facet normal 0 0 -1
    outer loop
      vertex 1.85554 -3.86272 1.2
      vertex 1.8721 -3.52565 1.2
      vertex 1.8721 -3.97435 1.2
    endloop
  endfacet
  facet normal 0 0 -1
    outer loop
      vertex 1.85554 -3.86272 1.2
      vertex 1.85554 -3.63728 1.2
      vertex 1.8721 -3.52565 1.2
    endloop
  endfacet
  facet normal 0 -0 -1
    outer loop
      vertex 1.85554 -3.63728 1.2
      vertex 1.85554 -3.86272 1.2
      vertex 1.85 -3.75 1.2
    endloop
  endfacet
  facet normal 0.989175 -0.146741 0
    outer loop
      vertex 1.85554 -3.63728 1.2
      vertex 1.8721 -3.52565 0
      vertex 1.8721 -3.52565 1.2
    endloop
  endfacet
  facet normal 0.989175 -0.146741 0
    outer loop
      vertex 1.8721 -3.52565 0
      vertex 1.85554 -3.63728 1.2
      vertex 1.85554 -3.63728 0
    endloop
  endfacet
  facet normal 0.0490891 -0.998794 0
    outer loop
      vertex 2.88728 -2.60554 0
      vertex 3 -2.6 1.2
      vertex 2.88728 -2.60554 1.2
    endloop
  endfacet
  facet normal 0.0490891 -0.998794 0
    outer loop
      vertex 3 -2.6 1.2
      vertex 2.88728 -2.60554 0
      vertex 3 -2.6 0
    endloop
  endfacet
  facet normal 0.970038 0.242953 0
    outer loop
      vertex 1.89952 -4.08383 1.2
      vertex 1.8721 -3.97435 0
      vertex 1.8721 -3.97435 1.2
    endloop
  endfacet
  facet normal 0.970038 0.242953 0
    outer loop
      vertex 1.8721 -3.97435 0
      vertex 1.89952 -4.08383 1.2
      vertex 1.89952 -4.08383 0
    endloop
  endfacet
  facet normal 0.336886 -0.941545 0
    outer loop
      vertex 2.55991 -2.68754 0
      vertex 2.66617 -2.64952 1.2
      vertex 2.55991 -2.68754 1.2
    endloop
  endfacet
  facet normal 0.336886 -0.941545 0
    outer loop
      vertex 2.66617 -2.64952 1.2
      vertex 2.55991 -2.68754 0
      vertex 2.66617 -2.64952 0
    endloop
  endfacet
  facet normal 0.740946 -0.671565 0
    outer loop
      vertex 2.11104 -3.02045 1.2
      vertex 2.18683 -2.93683 0
      vertex 2.18683 -2.93683 1.2
    endloop
  endfacet
  facet normal 0.740946 -0.671565 0
    outer loop
      vertex 2.18683 -2.93683 0
      vertex 2.11104 -3.02045 1.2
      vertex 2.11104 -3.02045 0
    endloop
  endfacet
  facet normal -0.941545 0.336886 0
    outer loop
      vertex 4.06246 -4.19009 0
      vertex 4.10048 -4.08383 1.2
      vertex 4.10048 -4.08383 0
    endloop
  endfacet
  facet normal -0.941545 0.336886 0
    outer loop
      vertex 4.10048 -4.08383 1.2
      vertex 4.06246 -4.19009 0
      vertex 4.06246 -4.19009 1.2
    endloop
  endfacet
  facet normal -0.146741 0.989175 0
    outer loop
      vertex 3.22435 -4.8779 0
      vertex 3.11272 -4.89446 1.2
      vertex 3.22435 -4.8779 1.2
    endloop
  endfacet
  facet normal -0.146741 0.989175 0
    outer loop
      vertex 3.11272 -4.89446 1.2
      vertex 3.22435 -4.8779 0
      vertex 3.11272 -4.89446 0
    endloop
  endfacet
  facet normal -0.857727 -0.514105 0
    outer loop
      vertex 4.01421 -3.20789 0
      vertex 3.95619 -3.11109 1.2
      vertex 3.95619 -3.11109 0
    endloop
  endfacet
  facet normal -0.857727 -0.514105 0
    outer loop
      vertex 3.95619 -3.11109 1.2
      vertex 4.01421 -3.20789 0
      vertex 4.01421 -3.20789 1.2
    endloop
  endfacet
  facet normal -0.941545 -0.336886 0
    outer loop
      vertex 4.10048 -3.41617 0
      vertex 4.06246 -3.30991 1.2
      vertex 4.06246 -3.30991 0
    endloop
  endfacet
  facet normal -0.941545 -0.336886 0
    outer loop
      vertex 4.06246 -3.30991 1.2
      vertex 4.10048 -3.41617 0
      vertex 4.10048 -3.41617 1.2
    endloop
  endfacet
  facet normal -0.671565 -0.740946 0
    outer loop
      vertex 3.72955 -2.86104 0
      vertex 3.81317 -2.93683 1.2
      vertex 3.72955 -2.86104 1.2
    endloop
  endfacet
  facet normal -0.671565 -0.740946 -0
    outer loop
      vertex 3.81317 -2.93683 1.2
      vertex 3.72955 -2.86104 0
      vertex 3.81317 -2.93683 0
    endloop
  endfacet
  facet normal -0.970038 0.242953 0
    outer loop
      vertex 4.10048 -4.08383 0
      vertex 4.1279 -3.97435 1.2
      vertex 4.1279 -3.97435 0
    endloop
  endfacet
  facet normal -0.970038 0.242953 0
    outer loop
      vertex 4.1279 -3.97435 1.2
      vertex 4.10048 -4.08383 0
      vertex 4.10048 -4.08383 1.2
    endloop
  endfacet
  facet normal -0.0490891 -0.998794 0
    outer loop
      vertex 3 -2.6 0
      vertex 3.11272 -2.60554 1.2
      vertex 3 -2.6 1.2
    endloop
  endfacet
  facet normal -0.0490891 -0.998794 -0
    outer loop
      vertex 3.11272 -2.60554 1.2
      vertex 3 -2.6 0
      vertex 3.11272 -2.60554 0
    endloop
  endfacet
  facet normal 0.514105 -0.857727 0
    outer loop
      vertex 2.36109 -2.79381 0
      vertex 2.45789 -2.73579 1.2
      vertex 2.36109 -2.79381 1.2
    endloop
  endfacet
  facet normal 0.514105 -0.857727 0
    outer loop
      vertex 2.45789 -2.73579 1.2
      vertex 2.36109 -2.79381 0
      vertex 2.45789 -2.73579 0
    endloop
  endfacet
  facet normal -0.336886 -0.941545 0
    outer loop
      vertex 3.33383 -2.64952 0
      vertex 3.44009 -2.68754 1.2
      vertex 3.33383 -2.64952 1.2
    endloop
  endfacet
  facet normal -0.336886 -0.941545 -0
    outer loop
      vertex 3.44009 -2.68754 1.2
      vertex 3.33383 -2.64952 0
      vertex 3.44009 -2.68754 0
    endloop
  endfacet
  facet normal 0.242953 -0.970038 0
    outer loop
      vertex 2.66617 -2.64952 0
      vertex 2.77565 -2.6221 1.2
      vertex 2.66617 -2.64952 1.2
    endloop
  endfacet
  facet normal 0.242953 -0.970038 0
    outer loop
      vertex 2.77565 -2.6221 1.2
      vertex 2.66617 -2.64952 0
      vertex 2.77565 -2.6221 0
    endloop
  endfacet
  facet normal -0.989175 0.146741 0
    outer loop
      vertex 4.1279 -3.97435 0
      vertex 4.14446 -3.86272 1.2
      vertex 4.14446 -3.86272 0
    endloop
  endfacet
  facet normal -0.989175 0.146741 0
    outer loop
      vertex 4.14446 -3.86272 1.2
      vertex 4.1279 -3.97435 0
      vertex 4.1279 -3.97435 1.2
    endloop
  endfacet
  facet normal -0.514105 0.857727 0
    outer loop
      vertex 3.63891 -4.70619 0
      vertex 3.54211 -4.76421 1.2
      vertex 3.63891 -4.70619 1.2
    endloop
  endfacet
  facet normal -0.514105 0.857727 0
    outer loop
      vertex 3.54211 -4.76421 1.2
      vertex 3.63891 -4.70619 0
      vertex 3.54211 -4.76421 0
    endloop
  endfacet
  facet normal -0.857727 0.514105 0
    outer loop
      vertex 3.95619 -4.38891 0
      vertex 4.01421 -4.29211 1.2
      vertex 4.01421 -4.29211 0
    endloop
  endfacet
  facet normal -0.857727 0.514105 0
    outer loop
      vertex 4.01421 -4.29211 1.2
      vertex 3.95619 -4.38891 0
      vertex 3.95619 -4.38891 1.2
    endloop
  endfacet
  facet normal -0.427542 -0.903996 0
    outer loop
      vertex 3.44009 -2.68754 0
      vertex 3.54211 -2.73579 1.2
      vertex 3.44009 -2.68754 1.2
    endloop
  endfacet
  facet normal -0.427542 -0.903996 -0
    outer loop
      vertex 3.54211 -2.73579 1.2
      vertex 3.44009 -2.68754 0
      vertex 3.54211 -2.73579 0
    endloop
  endfacet
  facet normal 0.941545 -0.336886 0
    outer loop
      vertex 1.89952 -3.41617 1.2
      vertex 1.93754 -3.30991 0
      vertex 1.93754 -3.30991 1.2
    endloop
  endfacet
  facet normal 0.941545 -0.336886 0
    outer loop
      vertex 1.93754 -3.30991 0
      vertex 1.89952 -3.41617 1.2
      vertex 1.89952 -3.41617 0
    endloop
  endfacet
  facet normal -0.903996 0.427542 0
    outer loop
      vertex 4.01421 -4.29211 0
      vertex 4.06246 -4.19009 1.2
      vertex 4.06246 -4.19009 0
    endloop
  endfacet
  facet normal -0.903996 0.427542 0
    outer loop
      vertex 4.06246 -4.19009 1.2
      vertex 4.01421 -4.29211 0
      vertex 4.01421 -4.29211 1.2
    endloop
  endfacet
  facet normal -0.242953 -0.970038 0
    outer loop
      vertex 3.22435 -2.6221 0
      vertex 3.33383 -2.64952 1.2
      vertex 3.22435 -2.6221 1.2
    endloop
  endfacet
  facet normal -0.242953 -0.970038 -0
    outer loop
      vertex 3.33383 -2.64952 1.2
      vertex 3.22435 -2.6221 0
      vertex 3.33383 -2.64952 0
    endloop
  endfacet
  facet normal 0.970038 -0.242953 0
    outer loop
      vertex 1.8721 -3.52565 1.2
      vertex 1.89952 -3.41617 0
      vertex 1.89952 -3.41617 1.2
    endloop
  endfacet
  facet normal 0.970038 -0.242953 0
    outer loop
      vertex 1.89952 -3.41617 0
      vertex 1.8721 -3.52565 1.2
      vertex 1.8721 -3.52565 0
    endloop
  endfacet
  facet normal 0.671565 -0.740946 0
    outer loop
      vertex 2.18683 -2.93683 0
      vertex 2.27045 -2.86104 1.2
      vertex 2.18683 -2.93683 1.2
    endloop
  endfacet
  facet normal 0.671565 -0.740946 0
    outer loop
      vertex 2.27045 -2.86104 1.2
      vertex 2.18683 -2.93683 0
      vertex 2.27045 -2.86104 0
    endloop
  endfacet
  facet normal 0.857727 0.514105 0
    outer loop
      vertex 2.04381 -4.38891 1.2
      vertex 1.98579 -4.29211 0
      vertex 1.98579 -4.29211 1.2
    endloop
  endfacet
  facet normal 0.857727 0.514105 0
    outer loop
      vertex 1.98579 -4.29211 0
      vertex 2.04381 -4.38891 1.2
      vertex 2.04381 -4.38891 0
    endloop
  endfacet
  facet normal -0.146741 -0.989175 0
    outer loop
      vertex 3.11272 -2.60554 0
      vertex 3.22435 -2.6221 1.2
      vertex 3.11272 -2.60554 1.2
    endloop
  endfacet
  facet normal -0.146741 -0.989175 -0
    outer loop
      vertex 3.22435 -2.6221 1.2
      vertex 3.11272 -2.60554 0
      vertex 3.22435 -2.6221 0
    endloop
  endfacet
  facet normal 0.740946 0.671565 0
    outer loop
      vertex 2.18683 -4.56317 1.2
      vertex 2.11104 -4.47955 0
      vertex 2.11104 -4.47955 1.2
    endloop
  endfacet
  facet normal 0.740946 0.671565 0
    outer loop
      vertex 2.11104 -4.47955 0
      vertex 2.18683 -4.56317 1.2
      vertex 2.18683 -4.56317 0
    endloop
  endfacet
  facet normal 0.595738 0.803179 -0
    outer loop
      vertex 2.36109 -4.70619 0
      vertex 2.27045 -4.63896 1.2
      vertex 2.36109 -4.70619 1.2
    endloop
  endfacet
  facet normal 0.595738 0.803179 0
    outer loop
      vertex 2.27045 -4.63896 1.2
      vertex 2.36109 -4.70619 0
      vertex 2.27045 -4.63896 0
    endloop
  endfacet
  facet normal 0.989175 0.146741 0
    outer loop
      vertex 1.8721 -3.97435 1.2
      vertex 1.85554 -3.86272 0
      vertex 1.85554 -3.86272 1.2
    endloop
  endfacet
  facet normal 0.989175 0.146741 0
    outer loop
      vertex 1.85554 -3.86272 0
      vertex 1.8721 -3.97435 1.2
      vertex 1.8721 -3.97435 0
    endloop
  endfacet
  facet normal 0.427542 -0.903996 0
    outer loop
      vertex 2.45789 -2.73579 0
      vertex 2.55991 -2.68754 1.2
      vertex 2.45789 -2.73579 1.2
    endloop
  endfacet
  facet normal 0.427542 -0.903996 0
    outer loop
      vertex 2.55991 -2.68754 1.2
      vertex 2.45789 -2.73579 0
      vertex 2.55991 -2.68754 0
    endloop
  endfacet
  facet normal 0.803179 0.595738 0
    outer loop
      vertex 2.11104 -4.47955 1.2
      vertex 2.04381 -4.38891 0
      vertex 2.04381 -4.38891 1.2
    endloop
  endfacet
  facet normal 0.803179 0.595738 0
    outer loop
      vertex 2.04381 -4.38891 0
      vertex 2.11104 -4.47955 1.2
      vertex 2.11104 -4.47955 0
    endloop
  endfacet
  facet normal -0.336886 0.941545 0
    outer loop
      vertex 3.44009 -4.81246 0
      vertex 3.33383 -4.85048 1.2
      vertex 3.44009 -4.81246 1.2
    endloop
  endfacet
  facet normal -0.336886 0.941545 0
    outer loop
      vertex 3.33383 -4.85048 1.2
      vertex 3.44009 -4.81246 0
      vertex 3.33383 -4.85048 0
    endloop
  endfacet
  facet normal 0.998794 0.0490891 0
    outer loop
      vertex 1.85554 -3.86272 1.2
      vertex 1.85 -3.75 0
      vertex 1.85 -3.75 1.2
    endloop
  endfacet
  facet normal 0.998794 0.0490891 0
    outer loop
      vertex 1.85 -3.75 0
      vertex 1.85554 -3.86272 1.2
      vertex 1.85554 -3.86272 0
    endloop
  endfacet
  facet normal 0.427542 0.903996 -0
    outer loop
      vertex 2.55991 -4.81246 0
      vertex 2.45789 -4.76421 1.2
      vertex 2.55991 -4.81246 1.2
    endloop
  endfacet
  facet normal 0.427542 0.903996 0
    outer loop
      vertex 2.45789 -4.76421 1.2
      vertex 2.55991 -4.81246 0
      vertex 2.45789 -4.76421 0
    endloop
  endfacet
  facet normal -0.595738 0.803179 0
    outer loop
      vertex 3.72955 -4.63896 0
      vertex 3.63891 -4.70619 1.2
      vertex 3.72955 -4.63896 1.2
    endloop
  endfacet
  facet normal -0.595738 0.803179 0
    outer loop
      vertex 3.63891 -4.70619 1.2
      vertex 3.72955 -4.63896 0
      vertex 3.63891 -4.70619 0
    endloop
  endfacet
  facet normal 0.803179 -0.595738 0
    outer loop
      vertex 2.04381 -3.11109 1.2
      vertex 2.11104 -3.02045 0
      vertex 2.11104 -3.02045 1.2
    endloop
  endfacet
  facet normal 0.803179 -0.595738 0
    outer loop
      vertex 2.11104 -3.02045 0
      vertex 2.04381 -3.11109 1.2
      vertex 2.04381 -3.11109 0
    endloop
  endfacet
  facet normal -0.740946 -0.671565 0
    outer loop
      vertex 3.88896 -3.02045 0
      vertex 3.81317 -2.93683 1.2
      vertex 3.81317 -2.93683 0
    endloop
  endfacet
  facet normal -0.740946 -0.671565 0
    outer loop
      vertex 3.81317 -2.93683 1.2
      vertex 3.88896 -3.02045 0
      vertex 3.88896 -3.02045 1.2
    endloop
  endfacet
  facet normal 0.903996 -0.427542 0
    outer loop
      vertex 1.93754 -3.30991 1.2
      vertex 1.98579 -3.20789 0
      vertex 1.98579 -3.20789 1.2
    endloop
  endfacet
  facet normal 0.903996 -0.427542 0
    outer loop
      vertex 1.98579 -3.20789 0
      vertex 1.93754 -3.30991 1.2
      vertex 1.93754 -3.30991 0
    endloop
  endfacet
  facet normal 0.336886 0.941545 -0
    outer loop
      vertex 2.66617 -4.85048 0
      vertex 2.55991 -4.81246 1.2
      vertex 2.66617 -4.85048 1.2
    endloop
  endfacet
  facet normal 0.336886 0.941545 0
    outer loop
      vertex 2.55991 -4.81246 1.2
      vertex 2.66617 -4.85048 0
      vertex 2.55991 -4.81246 0
    endloop
  endfacet
  facet normal 0.0490891 0.998794 -0
    outer loop
      vertex 3 -4.9 0
      vertex 2.88728 -4.89446 1.2
      vertex 3 -4.9 1.2
    endloop
  endfacet
  facet normal 0.0490891 0.998794 0
    outer loop
      vertex 2.88728 -4.89446 1.2
      vertex 3 -4.9 0
      vertex 2.88728 -4.89446 0
    endloop
  endfacet
  facet normal 0.998794 -0.0490891 0
    outer loop
      vertex 1.85 -3.75 1.2
      vertex 1.85554 -3.63728 0
      vertex 1.85554 -3.63728 1.2
    endloop
  endfacet
  facet normal 0.998794 -0.0490891 0
    outer loop
      vertex 1.85554 -3.63728 0
      vertex 1.85 -3.75 1.2
      vertex 1.85 -3.75 0
    endloop
  endfacet
  facet normal 0.671565 0.740946 -0
    outer loop
      vertex 2.27045 -4.63896 0
      vertex 2.18683 -4.56317 1.2
      vertex 2.27045 -4.63896 1.2
    endloop
  endfacet
  facet normal 0.671565 0.740946 0
    outer loop
      vertex 2.18683 -4.56317 1.2
      vertex 2.27045 -4.63896 0
      vertex 2.18683 -4.56317 0
    endloop
  endfacet
  facet normal -0.740946 0.671565 0
    outer loop
      vertex 3.81317 -4.56317 0
      vertex 3.88896 -4.47955 1.2
      vertex 3.88896 -4.47955 0
    endloop
  endfacet
  facet normal -0.740946 0.671565 0
    outer loop
      vertex 3.88896 -4.47955 1.2
      vertex 3.81317 -4.56317 0
      vertex 3.81317 -4.56317 1.2
    endloop
  endfacet
  facet normal -0.671565 0.740946 0
    outer loop
      vertex 3.81317 -4.56317 0
      vertex 3.72955 -4.63896 1.2
      vertex 3.81317 -4.56317 1.2
    endloop
  endfacet
  facet normal -0.671565 0.740946 0
    outer loop
      vertex 3.72955 -4.63896 1.2
      vertex 3.81317 -4.56317 0
      vertex 3.72955 -4.63896 0
    endloop
  endfacet
  facet normal 0.336886 0.941545 -0
    outer loop
      vertex -4.08383 1.89952 0
      vertex -4.19009 1.93754 1.2
      vertex -4.08383 1.89952 1.2
    endloop
  endfacet
  facet normal 0.336886 0.941545 0
    outer loop
      vertex -4.19009 1.93754 1.2
      vertex -4.08383 1.89952 0
      vertex -4.19009 1.93754 0
    endloop
  endfacet
  facet normal -0.989175 -0.146741 0
    outer loop
      vertex -2.60554 3.11272 0
      vertex -2.6221 3.22435 1.2
      vertex -2.6221 3.22435 0
    endloop
  endfacet
  facet normal -0.989175 -0.146741 0
    outer loop
      vertex -2.6221 3.22435 1.2
      vertex -2.60554 3.11272 0
      vertex -2.60554 3.11272 1.2
    endloop
  endfacet
  facet normal -0.998794 -0.0490891 0
    outer loop
      vertex -2.6 3 0
      vertex -2.60554 3.11272 1.2
      vertex -2.60554 3.11272 0
    endloop
  endfacet
  facet normal -0.998794 -0.0490891 0
    outer loop
      vertex -2.60554 3.11272 1.2
      vertex -2.6 3 0
      vertex -2.6 3 1.2
    endloop
  endfacet
  facet normal -0.970038 -0.242953 0
    outer loop
      vertex -2.6221 3.22435 0
      vertex -2.64952 3.33383 1.2
      vertex -2.64952 3.33383 0
    endloop
  endfacet
  facet normal -0.970038 -0.242953 0
    outer loop
      vertex -2.64952 3.33383 1.2
      vertex -2.6221 3.22435 0
      vertex -2.6221 3.22435 1.2
    endloop
  endfacet
  facet normal -0.595738 -0.803179 0
    outer loop
      vertex -3.11109 3.95619 0
      vertex -3.02045 3.88896 1.2
      vertex -3.11109 3.95619 1.2
    endloop
  endfacet
  facet normal -0.595738 -0.803179 -0
    outer loop
      vertex -3.02045 3.88896 1.2
      vertex -3.11109 3.95619 0
      vertex -3.02045 3.88896 0
    endloop
  endfacet
  facet normal 0.671565 -0.740946 0
    outer loop
      vertex -4.56317 3.81317 0
      vertex -4.47955 3.88896 1.2
      vertex -4.56317 3.81317 1.2
    endloop
  endfacet
  facet normal 0.671565 -0.740946 0
    outer loop
      vertex -4.47955 3.88896 1.2
      vertex -4.56317 3.81317 0
      vertex -4.47955 3.88896 0
    endloop
  endfacet
  facet normal 0.903996 -0.427542 0
    outer loop
      vertex -4.81246 3.44009 1.2
      vertex -4.76421 3.54211 0
      vertex -4.76421 3.54211 1.2
    endloop
  endfacet
  facet normal 0.903996 -0.427542 0
    outer loop
      vertex -4.76421 3.54211 0
      vertex -4.81246 3.44009 1.2
      vertex -4.81246 3.44009 0
    endloop
  endfacet
  facet normal 0.989175 -0.146741 0
    outer loop
      vertex -4.89446 3.11272 1.2
      vertex -4.8779 3.22435 0
      vertex -4.8779 3.22435 1.2
    endloop
  endfacet
  facet normal 0.989175 -0.146741 0
    outer loop
      vertex -4.8779 3.22435 0
      vertex -4.89446 3.11272 1.2
      vertex -4.89446 3.11272 0
    endloop
  endfacet
  facet normal -0.242953 -0.970038 0
    outer loop
      vertex -3.52565 4.1279 0
      vertex -3.41617 4.10048 1.2
      vertex -3.52565 4.1279 1.2
    endloop
  endfacet
  facet normal -0.242953 -0.970038 -0
    outer loop
      vertex -3.41617 4.10048 1.2
      vertex -3.52565 4.1279 0
      vertex -3.41617 4.10048 0
    endloop
  endfacet
  facet normal 0.0490891 0.998794 -0
    outer loop
      vertex -3.75 1.85 0
      vertex -3.86272 1.85554 1.2
      vertex -3.75 1.85 1.2
    endloop
  endfacet
  facet normal 0.0490891 0.998794 0
    outer loop
      vertex -3.86272 1.85554 1.2
      vertex -3.75 1.85 0
      vertex -3.86272 1.85554 0
    endloop
  endfacet
  facet normal 0.941545 0.336886 0
    outer loop
      vertex -4.81246 2.55991 1.2
      vertex -4.85048 2.66617 0
      vertex -4.85048 2.66617 1.2
    endloop
  endfacet
  facet normal 0.941545 0.336886 0
    outer loop
      vertex -4.85048 2.66617 0
      vertex -4.81246 2.55991 1.2
      vertex -4.81246 2.55991 0
    endloop
  endfacet
  facet normal -0.903996 -0.427542 0
    outer loop
      vertex -2.68754 3.44009 0
      vertex -2.73579 3.54211 1.2
      vertex -2.73579 3.54211 0
    endloop
  endfacet
  facet normal -0.903996 -0.427542 0
    outer loop
      vertex -2.73579 3.54211 1.2
      vertex -2.68754 3.44009 0
      vertex -2.68754 3.44009 1.2
    endloop
  endfacet
  facet normal 0.671565 0.740946 -0
    outer loop
      vertex -4.47955 2.11104 0
      vertex -4.56317 2.18683 1.2
      vertex -4.47955 2.11104 1.2
    endloop
  endfacet
  facet normal 0.671565 0.740946 0
    outer loop
      vertex -4.56317 2.18683 1.2
      vertex -4.47955 2.11104 0
      vertex -4.56317 2.18683 0
    endloop
  endfacet
  facet normal 0.857727 0.514105 0
    outer loop
      vertex -4.70619 2.36109 1.2
      vertex -4.76421 2.45789 0
      vertex -4.76421 2.45789 1.2
    endloop
  endfacet
  facet normal 0.857727 0.514105 0
    outer loop
      vertex -4.76421 2.45789 0
      vertex -4.70619 2.36109 1.2
      vertex -4.70619 2.36109 0
    endloop
  endfacet
  facet normal 0.941545 -0.336886 0
    outer loop
      vertex -4.85048 3.33383 1.2
      vertex -4.81246 3.44009 0
      vertex -4.81246 3.44009 1.2
    endloop
  endfacet
  facet normal 0.941545 -0.336886 0
    outer loop
      vertex -4.81246 3.44009 0
      vertex -4.85048 3.33383 1.2
      vertex -4.85048 3.33383 0
    endloop
  endfacet
  facet normal 0.970038 -0.242953 0
    outer loop
      vertex -4.8779 3.22435 1.2
      vertex -4.85048 3.33383 0
      vertex -4.85048 3.33383 1.2
    endloop
  endfacet
  facet normal 0.970038 -0.242953 0
    outer loop
      vertex -4.85048 3.33383 0
      vertex -4.8779 3.22435 1.2
      vertex -4.8779 3.22435 0
    endloop
  endfacet
  facet normal 0.595738 -0.803179 0
    outer loop
      vertex -4.47955 3.88896 0
      vertex -4.38891 3.95619 1.2
      vertex -4.47955 3.88896 1.2
    endloop
  endfacet
  facet normal 0.595738 -0.803179 0
    outer loop
      vertex -4.38891 3.95619 1.2
      vertex -4.47955 3.88896 0
      vertex -4.38891 3.95619 0
    endloop
  endfacet
  facet normal -0.427542 -0.903996 0
    outer loop
      vertex -3.30991 4.06246 0
      vertex -3.20789 4.01421 1.2
      vertex -3.30991 4.06246 1.2
    endloop
  endfacet
  facet normal -0.427542 -0.903996 -0
    outer loop
      vertex -3.20789 4.01421 1.2
      vertex -3.30991 4.06246 0
      vertex -3.20789 4.01421 0
    endloop
  endfacet
  facet normal -0.970038 0.242953 0
    outer loop
      vertex -2.64952 2.66617 0
      vertex -2.6221 2.77565 1.2
      vertex -2.6221 2.77565 0
    endloop
  endfacet
  facet normal -0.970038 0.242953 0
    outer loop
      vertex -2.6221 2.77565 1.2
      vertex -2.64952 2.66617 0
      vertex -2.64952 2.66617 1.2
    endloop
  endfacet
  facet normal -0.336886 0.941545 0
    outer loop
      vertex -3.30991 1.93754 0
      vertex -3.41617 1.89952 1.2
      vertex -3.30991 1.93754 1.2
    endloop
  endfacet
  facet normal -0.336886 0.941545 0
    outer loop
      vertex -3.41617 1.89952 1.2
      vertex -3.30991 1.93754 0
      vertex -3.41617 1.89952 0
    endloop
  endfacet
  facet normal -0.803179 -0.595738 0
    outer loop
      vertex -2.79381 3.63891 0
      vertex -2.86104 3.72955 1.2
      vertex -2.86104 3.72955 0
    endloop
  endfacet
  facet normal -0.803179 -0.595738 0
    outer loop
      vertex -2.86104 3.72955 1.2
      vertex -2.79381 3.63891 0
      vertex -2.79381 3.63891 1.2
    endloop
  endfacet
  facet normal -0.427542 0.903996 0
    outer loop
      vertex -3.20789 1.98579 0
      vertex -3.30991 1.93754 1.2
      vertex -3.20789 1.98579 1.2
    endloop
  endfacet
  facet normal -0.427542 0.903996 0
    outer loop
      vertex -3.30991 1.93754 1.2
      vertex -3.20789 1.98579 0
      vertex -3.30991 1.93754 0
    endloop
  endfacet
  facet normal -0.0490891 0.998794 0
    outer loop
      vertex -3.63728 1.85554 0
      vertex -3.75 1.85 1.2
      vertex -3.63728 1.85554 1.2
    endloop
  endfacet
  facet normal -0.0490891 0.998794 0
    outer loop
      vertex -3.75 1.85 1.2
      vertex -3.63728 1.85554 0
      vertex -3.75 1.85 0
    endloop
  endfacet
  facet normal -0.595738 0.803179 0
    outer loop
      vertex -3.02045 2.11104 0
      vertex -3.11109 2.04381 1.2
      vertex -3.02045 2.11104 1.2
    endloop
  endfacet
  facet normal -0.595738 0.803179 0
    outer loop
      vertex -3.11109 2.04381 1.2
      vertex -3.02045 2.11104 0
      vertex -3.11109 2.04381 0
    endloop
  endfacet
  facet normal 0.427542 -0.903996 0
    outer loop
      vertex -4.29211 4.01421 0
      vertex -4.19009 4.06246 1.2
      vertex -4.29211 4.01421 1.2
    endloop
  endfacet
  facet normal 0.427542 -0.903996 0
    outer loop
      vertex -4.19009 4.06246 1.2
      vertex -4.29211 4.01421 0
      vertex -4.19009 4.06246 0
    endloop
  endfacet
  facet normal -0.740946 0.671565 0
    outer loop
      vertex -2.93683 2.18683 0
      vertex -2.86104 2.27045 1.2
      vertex -2.86104 2.27045 0
    endloop
  endfacet
  facet normal -0.740946 0.671565 0
    outer loop
      vertex -2.86104 2.27045 1.2
      vertex -2.93683 2.18683 0
      vertex -2.93683 2.18683 1.2
    endloop
  endfacet
  facet normal 0.0490891 -0.998794 0
    outer loop
      vertex -3.86272 4.14446 0
      vertex -3.75 4.15 1.2
      vertex -3.86272 4.14446 1.2
    endloop
  endfacet
  facet normal 0.0490891 -0.998794 0
    outer loop
      vertex -3.75 4.15 1.2
      vertex -3.86272 4.14446 0
      vertex -3.75 4.15 0
    endloop
  endfacet
  facet normal -0.146741 0.989175 0
    outer loop
      vertex -3.52565 1.8721 0
      vertex -3.63728 1.85554 1.2
      vertex -3.52565 1.8721 1.2
    endloop
  endfacet
  facet normal -0.146741 0.989175 0
    outer loop
      vertex -3.63728 1.85554 1.2
      vertex -3.52565 1.8721 0
      vertex -3.63728 1.85554 0
    endloop
  endfacet
  facet normal 0.740946 -0.671565 0
    outer loop
      vertex -4.63896 3.72955 1.2
      vertex -4.56317 3.81317 0
      vertex -4.56317 3.81317 1.2
    endloop
  endfacet
  facet normal 0.740946 -0.671565 0
    outer loop
      vertex -4.56317 3.81317 0
      vertex -4.63896 3.72955 1.2
      vertex -4.63896 3.72955 0
    endloop
  endfacet
  facet normal -0.989175 0.146741 0
    outer loop
      vertex -2.6221 2.77565 0
      vertex -2.60554 2.88728 1.2
      vertex -2.60554 2.88728 0
    endloop
  endfacet
  facet normal -0.989175 0.146741 0
    outer loop
      vertex -2.60554 2.88728 1.2
      vertex -2.6221 2.77565 0
      vertex -2.6221 2.77565 1.2
    endloop
  endfacet
  facet normal -0.998794 0.0490891 0
    outer loop
      vertex -2.60554 2.88728 0
      vertex -2.6 3 1.2
      vertex -2.6 3 0
    endloop
  endfacet
  facet normal -0.998794 0.0490891 0
    outer loop
      vertex -2.6 3 1.2
      vertex -2.60554 2.88728 0
      vertex -2.60554 2.88728 1.2
    endloop
  endfacet
  facet normal -0.941545 -0.336886 0
    outer loop
      vertex -2.64952 3.33383 0
      vertex -2.68754 3.44009 1.2
      vertex -2.68754 3.44009 0
    endloop
  endfacet
  facet normal -0.941545 -0.336886 0
    outer loop
      vertex -2.68754 3.44009 1.2
      vertex -2.64952 3.33383 0
      vertex -2.64952 3.33383 1.2
    endloop
  endfacet
  facet normal -0.146741 -0.989175 0
    outer loop
      vertex -3.63728 4.14446 0
      vertex -3.52565 4.1279 1.2
      vertex -3.63728 4.14446 1.2
    endloop
  endfacet
  facet normal -0.146741 -0.989175 -0
    outer loop
      vertex -3.52565 4.1279 1.2
      vertex -3.63728 4.14446 0
      vertex -3.52565 4.1279 0
    endloop
  endfacet
  facet normal 0 0 -1
    outer loop
      vertex -2.60554 2.88728 1.2
      vertex -2.60554 3.11272 1.2
      vertex -2.6 3 1.2
    endloop
  endfacet
  facet normal 0 0 -1
    outer loop
      vertex -2.6221 2.77565 1.2
      vertex -2.60554 3.11272 1.2
      vertex -2.60554 2.88728 1.2
    endloop
  endfacet
  facet normal 0 0 -1
    outer loop
      vertex -2.6221 2.77565 1.2
      vertex -2.6221 3.22435 1.2
      vertex -2.60554 3.11272 1.2
    endloop
  endfacet
  facet normal 0 0 -1
    outer loop
      vertex -2.64952 2.66617 1.2
      vertex -2.6221 3.22435 1.2
      vertex -2.6221 2.77565 1.2
    endloop
  endfacet
  facet normal 0 0 -1
    outer loop
      vertex -2.64952 2.66617 1.2
      vertex -2.64952 3.33383 1.2
      vertex -2.6221 3.22435 1.2
    endloop
  endfacet
  facet normal 0 0 -1
    outer loop
      vertex -2.68754 2.55991 1.2
      vertex -2.64952 3.33383 1.2
      vertex -2.64952 2.66617 1.2
    endloop
  endfacet
  facet normal 0 0 -1
    outer loop
      vertex -2.68754 2.55991 1.2
      vertex -2.68754 3.44009 1.2
      vertex -2.64952 3.33383 1.2
    endloop
  endfacet
  facet normal 0 0 -1
    outer loop
      vertex -2.73579 2.45789 1.2
      vertex -2.68754 3.44009 1.2
      vertex -2.68754 2.55991 1.2
    endloop
  endfacet
  facet normal 0 0 -1
    outer loop
      vertex -2.73579 2.45789 1.2
      vertex -2.73579 3.54211 1.2
      vertex -2.68754 3.44009 1.2
    endloop
  endfacet
  facet normal 0 0 -1
    outer loop
      vertex -2.79381 2.36109 1.2
      vertex -2.73579 3.54211 1.2
      vertex -2.73579 2.45789 1.2
    endloop
  endfacet
  facet normal 0 0 -1
    outer loop
      vertex -2.79381 2.36109 1.2
      vertex -2.79381 3.63891 1.2
      vertex -2.73579 3.54211 1.2
    endloop
  endfacet
  facet normal 0 0 -1
    outer loop
      vertex -2.86104 2.27045 1.2
      vertex -2.79381 3.63891 1.2
      vertex -2.79381 2.36109 1.2
    endloop
  endfacet
  facet normal 0 0 -1
    outer loop
      vertex -2.86104 2.27045 1.2
      vertex -2.86104 3.72955 1.2
      vertex -2.79381 3.63891 1.2
    endloop
  endfacet
  facet normal 0 0 -1
    outer loop
      vertex -2.93683 2.18683 1.2
      vertex -2.86104 3.72955 1.2
      vertex -2.86104 2.27045 1.2
    endloop
  endfacet
  facet normal 0 0 -1
    outer loop
      vertex -2.93683 2.18683 1.2
      vertex -2.93683 3.81317 1.2
      vertex -2.86104 3.72955 1.2
    endloop
  endfacet
  facet normal 0 0 -1
    outer loop
      vertex -3.02045 2.11104 1.2
      vertex -2.93683 3.81317 1.2
      vertex -2.93683 2.18683 1.2
    endloop
  endfacet
  facet normal 0 0 -1
    outer loop
      vertex -3.02045 2.11104 1.2
      vertex -3.02045 3.88896 1.2
      vertex -2.93683 3.81317 1.2
    endloop
  endfacet
  facet normal 0 0 -1
    outer loop
      vertex -3.11109 2.04381 1.2
      vertex -3.02045 3.88896 1.2
      vertex -3.02045 2.11104 1.2
    endloop
  endfacet
  facet normal 0 0 -1
    outer loop
      vertex -3.11109 2.04381 1.2
      vertex -3.11109 3.95619 1.2
      vertex -3.02045 3.88896 1.2
    endloop
  endfacet
  facet normal 0 0 -1
    outer loop
      vertex -3.20789 1.98579 1.2
      vertex -3.11109 3.95619 1.2
      vertex -3.11109 2.04381 1.2
    endloop
  endfacet
  facet normal 0 0 -1
    outer loop
      vertex -3.20789 1.98579 1.2
      vertex -3.20789 4.01421 1.2
      vertex -3.11109 3.95619 1.2
    endloop
  endfacet
  facet normal 0 0 -1
    outer loop
      vertex -3.30991 1.93754 1.2
      vertex -3.20789 4.01421 1.2
      vertex -3.20789 1.98579 1.2
    endloop
  endfacet
  facet normal 0 0 -1
    outer loop
      vertex -3.30991 1.93754 1.2
      vertex -3.30991 4.06246 1.2
      vertex -3.20789 4.01421 1.2
    endloop
  endfacet
  facet normal 0 0 -1
    outer loop
      vertex -3.41617 1.89952 1.2
      vertex -3.30991 4.06246 1.2
      vertex -3.30991 1.93754 1.2
    endloop
  endfacet
  facet normal 0 0 -1
    outer loop
      vertex -3.41617 1.89952 1.2
      vertex -3.41617 4.10048 1.2
      vertex -3.30991 4.06246 1.2
    endloop
  endfacet
  facet normal 0 0 -1
    outer loop
      vertex -3.52565 1.8721 1.2
      vertex -3.41617 4.10048 1.2
      vertex -3.41617 1.89952 1.2
    endloop
  endfacet
  facet normal 0 0 -1
    outer loop
      vertex -3.52565 1.8721 1.2
      vertex -3.52565 4.1279 1.2
      vertex -3.41617 4.10048 1.2
    endloop
  endfacet
  facet normal 0 0 -1
    outer loop
      vertex -3.63728 1.85554 1.2
      vertex -3.52565 4.1279 1.2
      vertex -3.52565 1.8721 1.2
    endloop
  endfacet
  facet normal 0 0 -1
    outer loop
      vertex -3.63728 1.85554 1.2
      vertex -3.63728 4.14446 1.2
      vertex -3.52565 4.1279 1.2
    endloop
  endfacet
  facet normal 0 0 -1
    outer loop
      vertex -3.75 1.85 1.2
      vertex -3.63728 4.14446 1.2
      vertex -3.63728 1.85554 1.2
    endloop
  endfacet
  facet normal 0 0 -1
    outer loop
      vertex -3.75 1.85 1.2
      vertex -3.75 4.15 1.2
      vertex -3.63728 4.14446 1.2
    endloop
  endfacet
  facet normal 0 0 -1
    outer loop
      vertex -3.86272 1.85554 1.2
      vertex -3.75 4.15 1.2
      vertex -3.75 1.85 1.2
    endloop
  endfacet
  facet normal 0 0 -1
    outer loop
      vertex -3.86272 1.85554 1.2
      vertex -3.86272 4.14446 1.2
      vertex -3.75 4.15 1.2
    endloop
  endfacet
  facet normal 0 0 -1
    outer loop
      vertex -3.97435 1.8721 1.2
      vertex -3.86272 4.14446 1.2
      vertex -3.86272 1.85554 1.2
    endloop
  endfacet
  facet normal 0 0 -1
    outer loop
      vertex -3.97435 1.8721 1.2
      vertex -3.97435 4.1279 1.2
      vertex -3.86272 4.14446 1.2
    endloop
  endfacet
  facet normal 0 0 -1
    outer loop
      vertex -4.08383 1.89952 1.2
      vertex -3.97435 4.1279 1.2
      vertex -3.97435 1.8721 1.2
    endloop
  endfacet
  facet normal 0 0 -1
    outer loop
      vertex -4.08383 1.89952 1.2
      vertex -4.08383 4.10048 1.2
      vertex -3.97435 4.1279 1.2
    endloop
  endfacet
  facet normal 0 0 -1
    outer loop
      vertex -4.19009 1.93754 1.2
      vertex -4.08383 4.10048 1.2
      vertex -4.08383 1.89952 1.2
    endloop
  endfacet
  facet normal 0 0 -1
    outer loop
      vertex -4.19009 1.93754 1.2
      vertex -4.19009 4.06246 1.2
      vertex -4.08383 4.10048 1.2
    endloop
  endfacet
  facet normal 0 0 -1
    outer loop
      vertex -4.29211 1.98579 1.2
      vertex -4.19009 4.06246 1.2
      vertex -4.19009 1.93754 1.2
    endloop
  endfacet
  facet normal 0 0 -1
    outer loop
      vertex -4.29211 1.98579 1.2
      vertex -4.29211 4.01421 1.2
      vertex -4.19009 4.06246 1.2
    endloop
  endfacet
  facet normal 0 0 -1
    outer loop
      vertex -4.38891 2.04381 1.2
      vertex -4.29211 4.01421 1.2
      vertex -4.29211 1.98579 1.2
    endloop
  endfacet
  facet normal 0 0 -1
    outer loop
      vertex -4.38891 2.04381 1.2
      vertex -4.38891 3.95619 1.2
      vertex -4.29211 4.01421 1.2
    endloop
  endfacet
  facet normal 0 0 -1
    outer loop
      vertex -4.47955 2.11104 1.2
      vertex -4.38891 3.95619 1.2
      vertex -4.38891 2.04381 1.2
    endloop
  endfacet
  facet normal 0 0 -1
    outer loop
      vertex -4.47955 2.11104 1.2
      vertex -4.47955 3.88896 1.2
      vertex -4.38891 3.95619 1.2
    endloop
  endfacet
  facet normal 0 0 -1
    outer loop
      vertex -4.56317 2.18683 1.2
      vertex -4.47955 3.88896 1.2
      vertex -4.47955 2.11104 1.2
    endloop
  endfacet
  facet normal 0 0 -1
    outer loop
      vertex -4.56317 2.18683 1.2
      vertex -4.56317 3.81317 1.2
      vertex -4.47955 3.88896 1.2
    endloop
  endfacet
  facet normal 0 0 -1
    outer loop
      vertex -4.63896 2.27045 1.2
      vertex -4.56317 3.81317 1.2
      vertex -4.56317 2.18683 1.2
    endloop
  endfacet
  facet normal 0 0 -1
    outer loop
      vertex -4.63896 2.27045 1.2
      vertex -4.63896 3.72955 1.2
      vertex -4.56317 3.81317 1.2
    endloop
  endfacet
  facet normal 0 0 -1
    outer loop
      vertex -4.70619 2.36109 1.2
      vertex -4.63896 3.72955 1.2
      vertex -4.63896 2.27045 1.2
    endloop
  endfacet
  facet normal 0 0 -1
    outer loop
      vertex -4.70619 2.36109 1.2
      vertex -4.70619 3.63891 1.2
      vertex -4.63896 3.72955 1.2
    endloop
  endfacet
  facet normal 0 0 -1
    outer loop
      vertex -4.76421 2.45789 1.2
      vertex -4.70619 3.63891 1.2
      vertex -4.70619 2.36109 1.2
    endloop
  endfacet
  facet normal 0 0 -1
    outer loop
      vertex -4.76421 2.45789 1.2
      vertex -4.76421 3.54211 1.2
      vertex -4.70619 3.63891 1.2
    endloop
  endfacet
  facet normal 0 0 -1
    outer loop
      vertex -4.81246 2.55991 1.2
      vertex -4.76421 3.54211 1.2
      vertex -4.76421 2.45789 1.2
    endloop
  endfacet
  facet normal 0 0 -1
    outer loop
      vertex -4.81246 2.55991 1.2
      vertex -4.81246 3.44009 1.2
      vertex -4.76421 3.54211 1.2
    endloop
  endfacet
  facet normal 0 0 -1
    outer loop
      vertex -4.85048 2.66617 1.2
      vertex -4.81246 3.44009 1.2
      vertex -4.81246 2.55991 1.2
    endloop
  endfacet
  facet normal 0 0 -1
    outer loop
      vertex -4.85048 2.66617 1.2
      vertex -4.85048 3.33383 1.2
      vertex -4.81246 3.44009 1.2
    endloop
  endfacet
  facet normal 0 0 -1
    outer loop
      vertex -4.8779 2.77565 1.2
      vertex -4.85048 3.33383 1.2
      vertex -4.85048 2.66617 1.2
    endloop
  endfacet
  facet normal 0 0 -1
    outer loop
      vertex -4.8779 2.77565 1.2
      vertex -4.8779 3.22435 1.2
      vertex -4.85048 3.33383 1.2
    endloop
  endfacet
  facet normal 0 0 -1
    outer loop
      vertex -4.89446 2.88728 1.2
      vertex -4.8779 3.22435 1.2
      vertex -4.8779 2.77565 1.2
    endloop
  endfacet
  facet normal 0 0 -1
    outer loop
      vertex -4.89446 2.88728 1.2
      vertex -4.89446 3.11272 1.2
      vertex -4.8779 3.22435 1.2
    endloop
  endfacet
  facet normal 0 -0 -1
    outer loop
      vertex -4.89446 3.11272 1.2
      vertex -4.89446 2.88728 1.2
      vertex -4.9 3 1.2
    endloop
  endfacet
  facet normal -0.514105 -0.857727 0
    outer loop
      vertex -3.20789 4.01421 0
      vertex -3.11109 3.95619 1.2
      vertex -3.20789 4.01421 1.2
    endloop
  endfacet
  facet normal -0.514105 -0.857727 -0
    outer loop
      vertex -3.11109 3.95619 1.2
      vertex -3.20789 4.01421 0
      vertex -3.11109 3.95619 0
    endloop
  endfacet
  facet normal -0.803179 0.595738 0
    outer loop
      vertex -2.86104 2.27045 0
      vertex -2.79381 2.36109 1.2
      vertex -2.79381 2.36109 0
    endloop
  endfacet
  facet normal -0.803179 0.595738 0
    outer loop
      vertex -2.79381 2.36109 1.2
      vertex -2.86104 2.27045 0
      vertex -2.86104 2.27045 1.2
    endloop
  endfacet
  facet normal -0.671565 -0.740946 0
    outer loop
      vertex -3.02045 3.88896 0
      vertex -2.93683 3.81317 1.2
      vertex -3.02045 3.88896 1.2
    endloop
  endfacet
  facet normal -0.671565 -0.740946 -0
    outer loop
      vertex -2.93683 3.81317 1.2
      vertex -3.02045 3.88896 0
      vertex -2.93683 3.81317 0
    endloop
  endfacet
  facet normal -0.336886 -0.941545 0
    outer loop
      vertex -3.41617 4.10048 0
      vertex -3.30991 4.06246 1.2
      vertex -3.41617 4.10048 1.2
    endloop
  endfacet
  facet normal -0.336886 -0.941545 -0
    outer loop
      vertex -3.30991 4.06246 1.2
      vertex -3.41617 4.10048 0
      vertex -3.30991 4.06246 0
    endloop
  endfacet
  facet normal -0.242953 0.970038 0
    outer loop
      vertex -3.41617 1.89952 0
      vertex -3.52565 1.8721 1.2
      vertex -3.41617 1.89952 1.2
    endloop
  endfacet
  facet normal -0.242953 0.970038 0
    outer loop
      vertex -3.52565 1.8721 1.2
      vertex -3.41617 1.89952 0
      vertex -3.52565 1.8721 0
    endloop
  endfacet
  facet normal 0.803179 -0.595738 0
    outer loop
      vertex -4.70619 3.63891 1.2
      vertex -4.63896 3.72955 0
      vertex -4.63896 3.72955 1.2
    endloop
  endfacet
  facet normal 0.803179 -0.595738 0
    outer loop
      vertex -4.63896 3.72955 0
      vertex -4.70619 3.63891 1.2
      vertex -4.70619 3.63891 0
    endloop
  endfacet
  facet normal -0.857727 -0.514105 0
    outer loop
      vertex -2.73579 3.54211 0
      vertex -2.79381 3.63891 1.2
      vertex -2.79381 3.63891 0
    endloop
  endfacet
  facet normal -0.857727 -0.514105 0
    outer loop
      vertex -2.79381 3.63891 1.2
      vertex -2.73579 3.54211 0
      vertex -2.73579 3.54211 1.2
    endloop
  endfacet
  facet normal 0.146741 0.989175 -0
    outer loop
      vertex -3.86272 1.85554 0
      vertex -3.97435 1.8721 1.2
      vertex -3.86272 1.85554 1.2
    endloop
  endfacet
  facet normal 0.146741 0.989175 0
    outer loop
      vertex -3.97435 1.8721 1.2
      vertex -3.86272 1.85554 0
      vertex -3.97435 1.8721 0
    endloop
  endfacet
  facet normal 0.514105 -0.857727 0
    outer loop
      vertex -4.38891 3.95619 0
      vertex -4.29211 4.01421 1.2
      vertex -4.38891 3.95619 1.2
    endloop
  endfacet
  facet normal 0.514105 -0.857727 0
    outer loop
      vertex -4.29211 4.01421 1.2
      vertex -4.38891 3.95619 0
      vertex -4.29211 4.01421 0
    endloop
  endfacet
  facet normal 0.242953 -0.970038 0
    outer loop
      vertex -4.08383 4.10048 0
      vertex -3.97435 4.1279 1.2
      vertex -4.08383 4.10048 1.2
    endloop
  endfacet
  facet normal 0.242953 -0.970038 0
    outer loop
      vertex -3.97435 4.1279 1.2
      vertex -4.08383 4.10048 0
      vertex -3.97435 4.1279 0
    endloop
  endfacet
  facet normal -0.0490891 -0.998794 0
    outer loop
      vertex -3.75 4.15 0
      vertex -3.63728 4.14446 1.2
      vertex -3.75 4.15 1.2
    endloop
  endfacet
  facet normal -0.0490891 -0.998794 -0
    outer loop
      vertex -3.63728 4.14446 1.2
      vertex -3.75 4.15 0
      vertex -3.63728 4.14446 0
    endloop
  endfacet
  facet normal 0.903996 0.427542 0
    outer loop
      vertex -4.76421 2.45789 1.2
      vertex -4.81246 2.55991 0
      vertex -4.81246 2.55991 1.2
    endloop
  endfacet
  facet normal 0.903996 0.427542 0
    outer loop
      vertex -4.81246 2.55991 0
      vertex -4.76421 2.45789 1.2
      vertex -4.76421 2.45789 0
    endloop
  endfacet
  facet normal 0.146741 -0.989175 0
    outer loop
      vertex -3.97435 4.1279 0
      vertex -3.86272 4.14446 1.2
      vertex -3.97435 4.1279 1.2
    endloop
  endfacet
  facet normal 0.146741 -0.989175 0
    outer loop
      vertex -3.86272 4.14446 1.2
      vertex -3.97435 4.1279 0
      vertex -3.86272 4.14446 0
    endloop
  endfacet
  facet normal -0.514105 0.857727 0
    outer loop
      vertex -3.11109 2.04381 0
      vertex -3.20789 1.98579 1.2
      vertex -3.11109 2.04381 1.2
    endloop
  endfacet
  facet normal -0.514105 0.857727 0
    outer loop
      vertex -3.20789 1.98579 1.2
      vertex -3.11109 2.04381 0
      vertex -3.20789 1.98579 0
    endloop
  endfacet
  facet normal 0.336886 -0.941545 0
    outer loop
      vertex -4.19009 4.06246 0
      vertex -4.08383 4.10048 1.2
      vertex -4.19009 4.06246 1.2
    endloop
  endfacet
  facet normal 0.336886 -0.941545 0
    outer loop
      vertex -4.08383 4.10048 1.2
      vertex -4.19009 4.06246 0
      vertex -4.08383 4.10048 0
    endloop
  endfacet
  facet normal 0.857727 -0.514105 0
    outer loop
      vertex -4.76421 3.54211 1.2
      vertex -4.70619 3.63891 0
      vertex -4.70619 3.63891 1.2
    endloop
  endfacet
  facet normal 0.857727 -0.514105 0
    outer loop
      vertex -4.70619 3.63891 0
      vertex -4.76421 3.54211 1.2
      vertex -4.76421 3.54211 0
    endloop
  endfacet
  facet normal 0.970038 0.242953 0
    outer loop
      vertex -4.85048 2.66617 1.2
      vertex -4.8779 2.77565 0
      vertex -4.8779 2.77565 1.2
    endloop
  endfacet
  facet normal 0.970038 0.242953 0
    outer loop
      vertex -4.8779 2.77565 0
      vertex -4.85048 2.66617 1.2
      vertex -4.85048 2.66617 0
    endloop
  endfacet
  facet normal -0.857727 0.514105 0
    outer loop
      vertex -2.79381 2.36109 0
      vertex -2.73579 2.45789 1.2
      vertex -2.73579 2.45789 0
    endloop
  endfacet
  facet normal -0.857727 0.514105 0
    outer loop
      vertex -2.73579 2.45789 1.2
      vertex -2.79381 2.36109 0
      vertex -2.79381 2.36109 1.2
    endloop
  endfacet
  facet normal 0.427542 0.903996 -0
    outer loop
      vertex -4.19009 1.93754 0
      vertex -4.29211 1.98579 1.2
      vertex -4.19009 1.93754 1.2
    endloop
  endfacet
  facet normal 0.427542 0.903996 0
    outer loop
      vertex -4.29211 1.98579 1.2
      vertex -4.19009 1.93754 0
      vertex -4.29211 1.98579 0
    endloop
  endfacet
  facet normal -0.740946 -0.671565 0
    outer loop
      vertex -2.86104 3.72955 0
      vertex -2.93683 3.81317 1.2
      vertex -2.93683 3.81317 0
    endloop
  endfacet
  facet normal -0.740946 -0.671565 0
    outer loop
      vertex -2.93683 3.81317 1.2
      vertex -2.86104 3.72955 0
      vertex -2.86104 3.72955 1.2
    endloop
  endfacet
  facet normal 0.740946 0.671565 0
    outer loop
      vertex -4.56317 2.18683 1.2
      vertex -4.63896 2.27045 0
      vertex -4.63896 2.27045 1.2
    endloop
  endfacet
  facet normal 0.740946 0.671565 0
    outer loop
      vertex -4.63896 2.27045 0
      vertex -4.56317 2.18683 1.2
      vertex -4.56317 2.18683 0
    endloop
  endfacet
  facet normal 0.514105 0.857727 -0
    outer loop
      vertex -4.29211 1.98579 0
      vertex -4.38891 2.04381 1.2
      vertex -4.29211 1.98579 1.2
    endloop
  endfacet
  facet normal 0.514105 0.857727 0
    outer loop
      vertex -4.38891 2.04381 1.2
      vertex -4.29211 1.98579 0
      vertex -4.38891 2.04381 0
    endloop
  endfacet
  facet normal 0.989175 0.146741 0
    outer loop
      vertex -4.8779 2.77565 1.2
      vertex -4.89446 2.88728 0
      vertex -4.89446 2.88728 1.2
    endloop
  endfacet
  facet normal 0.989175 0.146741 0
    outer loop
      vertex -4.89446 2.88728 0
      vertex -4.8779 2.77565 1.2
      vertex -4.8779 2.77565 0
    endloop
  endfacet
  facet normal 0.595738 0.803179 -0
    outer loop
      vertex -4.38891 2.04381 0
      vertex -4.47955 2.11104 1.2
      vertex -4.38891 2.04381 1.2
    endloop
  endfacet
  facet normal 0.595738 0.803179 0
    outer loop
      vertex -4.47955 2.11104 1.2
      vertex -4.38891 2.04381 0
      vertex -4.47955 2.11104 0
    endloop
  endfacet
  facet normal -0.941545 0.336886 0
    outer loop
      vertex -2.68754 2.55991 0
      vertex -2.64952 2.66617 1.2
      vertex -2.64952 2.66617 0
    endloop
  endfacet
  facet normal -0.941545 0.336886 0
    outer loop
      vertex -2.64952 2.66617 1.2
      vertex -2.68754 2.55991 0
      vertex -2.68754 2.55991 1.2
    endloop
  endfacet
  facet normal 0.803179 0.595738 0
    outer loop
      vertex -4.63896 2.27045 1.2
      vertex -4.70619 2.36109 0
      vertex -4.70619 2.36109 1.2
    endloop
  endfacet
  facet normal 0.803179 0.595738 0
    outer loop
      vertex -4.70619 2.36109 0
      vertex -4.63896 2.27045 1.2
      vertex -4.63896 2.27045 0
    endloop
  endfacet
  facet normal -0.903996 0.427542 0
    outer loop
      vertex -2.73579 2.45789 0
      vertex -2.68754 2.55991 1.2
      vertex -2.68754 2.55991 0
    endloop
  endfacet
  facet normal -0.903996 0.427542 0
    outer loop
      vertex -2.68754 2.55991 1.2
      vertex -2.73579 2.45789 0
      vertex -2.73579 2.45789 1.2
    endloop
  endfacet
  facet normal -0.671565 0.740946 0
    outer loop
      vertex -2.93683 2.18683 0
      vertex -3.02045 2.11104 1.2
      vertex -2.93683 2.18683 1.2
    endloop
  endfacet
  facet normal -0.671565 0.740946 0
    outer loop
      vertex -3.02045 2.11104 1.2
      vertex -2.93683 2.18683 0
      vertex -3.02045 2.11104 0
    endloop
  endfacet
  facet normal 0.998794 -0.0490891 0
    outer loop
      vertex -4.9 3 1.2
      vertex -4.89446 3.11272 0
      vertex -4.89446 3.11272 1.2
    endloop
  endfacet
  facet normal 0.998794 -0.0490891 0
    outer loop
      vertex -4.89446 3.11272 0
      vertex -4.9 3 1.2
      vertex -4.9 3 0
    endloop
  endfacet
  facet normal 0.998794 0.0490891 0
    outer loop
      vertex -4.89446 2.88728 1.2
      vertex -4.9 3 0
      vertex -4.9 3 1.2
    endloop
  endfacet
  facet normal 0.998794 0.0490891 0
    outer loop
      vertex -4.9 3 0
      vertex -4.89446 2.88728 1.2
      vertex -4.89446 2.88728 0
    endloop
  endfacet
  facet normal 0.242953 0.970038 -0
    outer loop
      vertex -3.97435 1.8721 0
      vertex -4.08383 1.89952 1.2
      vertex -3.97435 1.8721 1.2
    endloop
  endfacet
  facet normal 0.242953 0.970038 0
    outer loop
      vertex -4.08383 1.89952 1.2
      vertex -3.97435 1.8721 0
      vertex -4.08383 1.89952 0
    endloop
  endfacet
endsolid OpenSCAD_Model
